<svg xmlns="http://www.w3.org/2000/svg" xmlns:xlink="http://www.w3.org/1999/xlink" width="30" height="36" viewBox="0 0 30 36"><defs><path id="bi3qa" d="M1025 4259h-30c0-6.22 5.038-11.287 11.221-11.287h7.525c6.183 0 11.221 5.1 11.254 11.286zm-16.358-16.454c-1.178 0-2.192.856-2.453 2.008a7.854 7.854 0 0 1-3.992-6.845c0-4.343 3.5-7.832 7.787-7.832 4.285 0 7.786 3.489 7.786 7.832a7.776 7.776 0 0 1-2.16 5.396h-2.715a2.414 2.414 0 0 0-1.57-.559zm-10.24-4.245a.547.547 0 0 1-.163-.395v-2.73c0-.692.033-1.383.163-2.041.099-.691.295-1.35.524-2.007.262-.659.556-1.284.883-1.876a9.691 9.691 0 0 1 1.178-1.678c.065-.066.098-.1.163-.132a1.006 1.006 0 0 1 .262-.888c2.388-2.37 5.464-3.554 8.572-3.554 3.108 0 6.183 1.184 8.538 3.554.23.23.327.592.262.888.065.033.13.066.164.132.458.526.85 1.086 1.177 1.678.36.592.655 1.217.884 1.876.229.658.392 1.316.589 2.007.098.658.163 1.35.163 2.04v2.731a.609.609 0 0 1-.163.395c0 .033-.033.033-.066.066a3.684 3.684 0 0 1-1.047 2.139l-.098.099v2.731c0 .362-.065.691-.13.954-.099.297-.23.527-.393.724-.197.198-.393.33-.655.428-.196.066-.392.132-.621.132h-6.314c-.197.329-.557.559-.95.559h-2.682c-.589 0-1.047-.46-1.08-1.053 0-.56.459-1.053 1.048-1.053h2.682c.425 0 .753.23.949.56h6.052c.164 0 .295-.033.426-.066a.716.716 0 0 0 .261-.165c.066-.098.131-.197.164-.362.033-.164.065-.395.065-.625v-2.073c-.163.066-.327.132-.49.164.032-.098.032-.23.032-.362v-6.35c0-.132 0-.264-.032-.395a3.94 3.94 0 0 1 1.603.954c.032.033.098.066.13.132v-.264c0-.625-.065-1.25-.163-1.843a16.33 16.33 0 0 0-.49-1.81 13.128 13.128 0 0 0-.786-1.678 9.597 9.597 0 0 0-1.047-1.514c-.033-.032-.033-.098-.065-.13a.928.928 0 0 1-.785-.264c-1.963-2.007-4.613-2.995-7.198-2.995-2.584 0-5.202.988-7.197 2.995a.964.964 0 0 1-.785.263.25.25 0 0 1-.066.131 9.606 9.606 0 0 0-1.047 1.514 7.84 7.84 0 0 0-.785 1.678 7.91 7.91 0 0 0-.49 1.778 11.345 11.345 0 0 0-.164 1.842v.263l.13-.13c.459-.462.982-.79 1.604-.955-.033.131-.033.263-.033.394v6.384c0 .099 0 .23.033.362a3.94 3.94 0 0 1-1.603-.954 3.683 3.683 0 0 1-1.047-2.139c0-.033-.033-.033-.066-.065z"/></defs><g><g transform="translate(-995 -4223)"><use fill="#fff" xlink:href="#bi3qa"/></g></g></svg>