<svg xmlns="http://www.w3.org/2000/svg" xmlns:xlink="http://www.w3.org/1999/xlink" width="36" height="36" viewBox="0 0 36 36"><defs><path id="c1sua" d="M397.722 4223c1.96 0 3.55 1.593 3.55 3.556a3.553 3.553 0 0 1-3.55 3.556 3.553 3.553 0 0 1-3.55-3.556 3.553 3.553 0 0 1 3.55-3.555zM392 4240.809v-7.61c0-.97.792-1.764 1.76-1.764h7.921c.969 0 1.76.794 1.76 1.763v.706a4.398 4.398 0 0 0-2.64 4.026v9.227c0 .734.206 1.44.528 2.057v.411c0 .97-.792 1.763-1.76 1.763h-3.697c-.968 0-1.76-.793-1.76-1.763v-7.053h-.352c-.998 0-1.76-.793-1.76-1.763zm30.306-17.807c1.961 0 3.55 1.592 3.55 3.555a3.553 3.553 0 0 1-3.55 3.556 3.553 3.553 0 0 1-3.55-3.556 3.553 3.553 0 0 1 3.55-3.555zm-3.99 8.404h7.922c.968 0 1.76.793 1.76 1.763v7.582c0 .97-.792 1.763-1.76 1.763h-.352v7.052c0 .97-.792 1.764-1.76 1.764h-3.697c-.968 0-1.76-.794-1.76-1.764v-.411a4.127 4.127 0 0 0 .528-2.057v-9.198a4.398 4.398 0 0 0-2.64-4.026v-.705c0-.97.791-1.763 1.76-1.763zm-13.085 4.76h9.594c.968 0 1.76.794 1.76 1.764v9.197c0 .97-.792 1.763-1.76 1.763h-.675v8.346c0 .97-.792 1.763-1.76 1.763h-4.724c-.968 0-1.76-.793-1.76-1.763v-8.316h-.675c-.968 0-1.76-.794-1.76-1.763v-9.227c0-.97.763-1.764 1.76-1.764zm4.782-9.638a4.081 4.081 0 0 1 4.079 4.084 4.081 4.081 0 0 1-4.079 4.085 4.081 4.081 0 0 1-4.078-4.085 4.081 4.081 0 0 1 4.078-4.084z"/></defs><g><g transform="translate(-392 -4223)"><use fill="#fff" xlink:href="#c1sua"/></g></g></svg>