<svg xmlns="http://www.w3.org/2000/svg" width="40" height="40" viewBox="0 0 40 40"><g><g><path fill="#7f8890" d="M24.993 32.903v3.871c0 1.778-1.433 3.225-3.194 3.225h-3.833c-1.761 0-3.194-1.447-3.194-3.225v-3.871c0-1.779 1.433-3.226 3.194-3.226h3.833c1.76 0 3.194 1.447 3.194 3.226zm-1.278 0c0-1.068-.86-1.936-1.916-1.936h-3.833a1.928 1.928 0 0 0-1.916 1.936v3.871c0 1.066.86 1.935 1.916 1.935h3.833a1.928 1.928 0 0 0 1.916-1.935zM14.772 5.16c0-2.846 2.293-5.161 5.11-5.161 2.818 0 5.11 2.315 5.11 5.16 0 2.846-2.292 5.162-5.11 5.162-2.817 0-5.11-2.316-5.11-5.161zm1.278 0c0 2.135 1.719 3.871 3.832 3.871 2.114 0 3.833-1.736 3.833-3.871S21.996 1.29 19.882 1.29c-2.113 0-3.832 1.736-3.832 3.87zm-5.75 20H.08V14.838H10.3zM9.024 16.13H1.357v7.741h7.666zM29.07 25.16l5.505-11.12 5.505 11.12zm5.505-8.235l-3.438 6.944h6.876zM25.957 6.489l.53-1.174a16.126 16.126 0 0 1 7.695 7.502l-1.144.576a14.833 14.833 0 0 0-7.08-6.904zm-19.43 7.329l-1.162-.54a16.077 16.077 0 0 1 7.914-7.962l.528 1.174a14.794 14.794 0 0 0-7.28 7.328zM33.238 26.18l1.162.539a16.09 16.09 0 0 1-7.863 7.94l-.533-1.172a14.8 14.8 0 0 0 7.234-7.307zM13.761 33.49l-.532 1.172a16.086 16.086 0 0 1-7.863-7.94l1.161-.54a14.799 14.799 0 0 0 7.234 7.308zm8.677-13.49c0 1.423-1.146 2.581-2.556 2.581-1.409 0-2.555-1.158-2.555-2.58 0-1.424 1.146-2.581 2.555-2.581 1.41 0 2.556 1.157 2.556 2.58zm-1.278 0c0-.71-.573-1.29-1.278-1.29-.704 0-1.277.58-1.277 1.29 0 .712.573 1.291 1.277 1.291.705 0 1.278-.58 1.278-1.29zm4.434.646a5.81 5.81 0 0 1-1.224 2.974l.933.943-.904.912-.932-.943a5.688 5.688 0 0 1-2.946 1.237v1.328h-1.277v-1.328a5.688 5.688 0 0 1-2.946-1.237l-.933.943-.903-.912.933-.943a5.81 5.81 0 0 1-1.224-2.974h-1.315v-1.291h1.315a5.81 5.81 0 0 1 1.224-2.975l-.933-.942.903-.912.933.942a5.683 5.683 0 0 1 2.946-1.236v-1.328h1.277v1.328a5.683 5.683 0 0 1 2.946 1.236l.932-.942.904.912-.933.942a5.811 5.811 0 0 1 1.224 2.975h1.315v1.29zM24.354 20c0-2.49-2.006-4.517-4.472-4.517-2.465 0-4.471 2.027-4.471 4.517s2.006 4.516 4.471 4.516c2.466 0 4.472-2.027 4.472-4.516z"/></g></g></svg>