<svg xmlns="http://www.w3.org/2000/svg" width="40" height="40" viewBox="0 0 40 40"><g><g><path fill="#7f8890" d="M10 7.06c0 1.668-1.346 3.025-3 3.025S4 8.728 4 7.06s1.346-3.026 3-3.026 3 1.358 3 3.026zm-1.333 0c0-.927-.748-1.681-1.667-1.681s-1.667.754-1.667 1.681S6.081 8.74 7 8.74s1.667-.753 1.667-1.68zM33.333 5.38A.67.67 0 0 1 34 6.05a.67.67 0 0 1-.667.672.67.67 0 0 1-.666-.672.67.67 0 0 1 .666-.672zm-2.666 0a.67.67 0 0 1 .666.672.67.67 0 0 1-.666.672.67.67 0 0 1-.667-.672.67.67 0 0 1 .667-.672zm4 2.017c.368 0 .666.3.666.673a.67.67 0 0 1-.666.672.67.67 0 0 1-.667-.672.67.67 0 0 1 .667-.673zm-2.667 0c.368 0 .667.3.667.673A.67.67 0 0 1 32 8.74a.67.67 0 0 1-.667-.672.67.67 0 0 1 .667-.673zM28 5.38a.67.67 0 0 1 .667.672.67.67 0 0 1-.667.672.67.67 0 0 1-.667-.672.67.67 0 0 1 .667-.672zm1.333 2.017c.369 0 .667.3.667.673a.67.67 0 0 1-.667.672.67.67 0 0 1-.666-.672.67.67 0 0 1 .666-.673zm-4-2.017A.67.67 0 0 1 26 6.05a.67.67 0 0 1-.667.672.67.67 0 0 1-.666-.672.67.67 0 0 1 .666-.672zm1.334 2.017c.368 0 .666.3.666.673a.67.67 0 0 1-.666.672.67.67 0 0 1-.667-.672.67.67 0 0 1 .667-.673zm-4-2.017a.67.67 0 0 1 .666.672.67.67 0 0 1-.666.672.67.67 0 0 1-.667-.672.67.67 0 0 1 .667-.672zM24 7.396c.368 0 .667.3.667.673A.67.67 0 0 1 24 8.74a.67.67 0 0 1-.667-.672.67.67 0 0 1 .667-.673zm14.815 6.052A3.089 3.089 0 0 1 40 15.873v7.925c0 1.708-1.378 3.098-3.072 3.098H20.667v6.447a3.357 3.357 0 0 1 2.599 2.622h16.067c.368 0 .667.3.667.672a.67.67 0 0 1-.667.673H23.266C22.956 38.842 21.61 40 20 40s-2.956-1.158-3.266-2.69H.667A.67.67 0 0 1 0 36.637a.67.67 0 0 1 .667-.672h16.067a3.357 3.357 0 0 1 2.6-2.622v-6.447H3.071C1.378 26.896 0 25.506 0 23.797v-7.924a3.09 3.09 0 0 1 1.185-2.425A3.09 3.09 0 0 1 0 11.02V3.098C0 1.389 1.378-.001 3.072-.001h33.856C38.622 0 40 1.39 40 3.098v7.924a3.09 3.09 0 0 1-1.185 2.426zM20 34.62c-1.103 0-2 .905-2 2.017 0 1.112.897 2.018 2 2.018s2-.906 2-2.018a2.01 2.01 0 0 0-2-2.017zm16.927-20.5H3.072c-.959 0-1.739.787-1.739 1.753v7.925c0 .966.78 1.753 1.739 1.753h33.856c.959 0 1.739-.787 1.739-1.754v-7.924c0-.966-.78-1.753-1.74-1.753zm.001-1.345c.959 0 1.739-.786 1.739-1.754V3.098c0-.967-.78-1.754-1.74-1.754H3.072c-.959 0-1.739.787-1.739 1.754v7.924c0 .967.78 1.753 1.739 1.753zM4 19.835c0-1.668 1.346-3.025 3-3.025s3 1.357 3 3.026c0 1.668-1.346 3.026-3 3.026s-3-1.358-3-3.026zm1.333 0c0 .928.748 1.681 1.667 1.681s1.667-.753 1.667-1.68c0-.928-.748-1.681-1.667-1.681s-1.667.753-1.667 1.68zm28-1.68a.67.67 0 0 1 .667.672.67.67 0 0 1-.667.672.67.67 0 0 1-.666-.672.67.67 0 0 1 .666-.672zm-2.666 0a.67.67 0 0 1 .666.672.67.67 0 0 1-.666.672.67.67 0 0 1-.667-.672.67.67 0 0 1 .667-.672zm4 2.017a.67.67 0 0 1 .666.672.67.67 0 0 1-.666.672.67.67 0 0 1-.667-.672.67.67 0 0 1 .667-.672zm-2.667 0a.67.67 0 0 1 .667.672.67.67 0 0 1-.667.672.67.67 0 0 1-.667-.672.67.67 0 0 1 .667-.672zm-4-2.017a.67.67 0 0 1 .667.672.67.67 0 0 1-.667.672.67.67 0 0 1-.667-.672.67.67 0 0 1 .667-.672zm1.333 2.017a.67.67 0 0 1 .667.672.67.67 0 0 1-.667.672.67.67 0 0 1-.666-.672.67.67 0 0 1 .666-.672zm-4-2.017a.67.67 0 0 1 .667.672.67.67 0 0 1-.667.672.67.67 0 0 1-.666-.672.67.67 0 0 1 .666-.672zm1.334 2.017a.67.67 0 0 1 .666.672.67.67 0 0 1-.666.672.67.67 0 0 1-.667-.672.67.67 0 0 1 .667-.672zm-4-2.017a.67.67 0 0 1 .666.672.67.67 0 0 1-.666.672.67.67 0 0 1-.667-.672.67.67 0 0 1 .667-.672zM24 20.172a.67.67 0 0 1 .667.672.67.67 0 0 1-.667.672.67.67 0 0 1-.667-.672.67.67 0 0 1 .667-.672z"/></g></g></svg>