<svg xmlns="http://www.w3.org/2000/svg" width="40" height="40" viewBox="0 0 40 40"><g><g><path fill="#7f8890" d="M20 40.008c-1.916 0-3.475-1.576-3.475-3.512 0-1.935 1.56-3.51 3.475-3.51 1.916 0 3.476 1.575 3.476 3.51 0 1.936-1.56 3.512-3.476 3.512zm0-5.8c-1.25 0-2.266 1.026-2.266 2.288 0 1.263 1.017 2.29 2.266 2.29 1.25 0 2.267-1.027 2.267-2.29 0-1.262-1.017-2.288-2.267-2.288zm7.984-9.163a.603.603 0 0 1-.428-.178A10.566 10.566 0 0 0 20 21.705a10.563 10.563 0 0 0-7.556 3.162.6.6 0 0 1-.854 0 .615.615 0 0 1 0-.863 11.758 11.758 0 0 1 8.41-3.52c3.178 0 6.165 1.25 8.412 3.52a.615.615 0 0 1 0 .863.598.598 0 0 1-.427.178zm5.68-6.736a.603.603 0 0 1-.429-.178c-7.297-7.37-19.172-7.37-26.47 0a.6.6 0 0 1-.854 0 .615.615 0 0 1 0-.863c7.769-7.847 20.41-7.846 28.18 0a.615.615 0 0 1 0 .863.603.603 0 0 1-.428.178zm5.677-8.734a.605.605 0 0 1-.428-.178c-10.427-10.529-27.397-10.531-37.826 0a.6.6 0 0 1-.855 0 .615.615 0 0 1 0-.863c10.9-11.008 28.636-11.006 39.535 0a.615.615 0 0 1 0 .863.6.6 0 0 1-.426.178z"/></g></g></svg>