<svg xmlns="http://www.w3.org/2000/svg" width="40" height="40" viewBox="0 0 40 40"><g><g><path fill="#7f8890" d="M40 40H0V.378l22.079 21.87 1.985-11.139a3.815 3.815 0 0 1-.617-2.077c0-1.43.788-2.677 1.954-3.347V-.001h3.908v5.686a3.863 3.863 0 0 1 1.954 3.347c0 .764-.228 1.477-.616 2.077l3.9 21.892-.537 1.065zM29.527 12.247a3.909 3.909 0 0 1-1.401.579l3.76 19.869.68 1.345.624-1.236zm-2.172 3.51l-1.867 9.867 4.597 4.554zM26.704 5.22c.212-.036.43-.058.651-.058.222 0 .44.022.652.058v-3.93h-1.303zM24.75 9.032c0 1.423 1.169 2.58 2.605 2.58 1.437 0 2.606-1.157 2.606-2.58 0-1.424-1.169-2.58-2.606-2.58-1.436 0-2.605 1.156-2.605 2.58zm-3.23 23.773l.625 1.235.679-1.345 3.76-19.869a3.91 3.91 0 0 1-1.4-.578zm10.97 3.969l-1.867-3.753-.113-.598-5.313-5.263-1.126 5.95-1.926 3.816-1.705-3.378h-2.203v-1.29h2.059l.125-.704L7.816 19.068v13.19h9.118v1.29H6.514V15.953l14.184 14.05 1.105-6.204-20.5-20.307v3.604h3.256v1.29H1.303v2.581h1.953v1.29H1.303v2.581h3.256v1.29H1.303v2.582h1.953V20H1.303v2.58h3.256v1.29H1.303v2.58h1.953v1.291H1.303v2.58h3.256v1.291H1.303v2.58h1.953v1.292H1.303v3.225h2.605v-3.225H5.21v3.225h2.606v-1.935h1.302v1.935h2.606v-3.225h1.302v3.225h2.606v-1.935h1.302v1.935h2.605v-3.225h1.303v3.225h2.605v-1.935h1.303v1.935h2.605v-3.225h1.303v3.225h2.605v-1.935zm.076.152v1.783h4.29l-3.46-3.427z"/></g></g></svg>