<svg xmlns="http://www.w3.org/2000/svg" width="40" height="40" viewBox="0 0 40 40"><g><g><path fill="#7f8890" d="M40 9.368V30.65c0 .225-.137.43-.353.528L20.272 39.94a.663.663 0 0 1-.544 0L.353 31.178A.584.584 0 0 1 0 30.65V9.368c0-.224.137-.43.353-.528L19.728.077a.665.665 0 0 1 .544 0L39.647 8.84a.585.585 0 0 1 .353.528zM14.816 3.6l17.816 8.057c.038.017.073.04.105.062l5.2-2.35L20 1.254zM9.744 5.924l17.903 8.098 3.669-1.66-17.911-8.1zm18.564 9.1v6.133l3.427-1.55v-6.133zm10.442 15.26V10.3l-5.765 2.607v7.067c0 .225-.137.43-.353.527l-4.677 2.115a.653.653 0 0 1-.604-.031.577.577 0 0 1-.293-.496v-7.027l-.009-.011L8.272 6.559l-6.21 2.81 13.534 6.12c.31.14.44.49.29.782a.63.63 0 0 1-.563.331.657.657 0 0 1-.271-.059L1.25 10.301v19.982l18.125 8.198V18.499l-1.652-.747c-.31-.141-.441-.491-.29-.782.15-.291.523-.413.834-.273l1.733.784 4.405-1.992a.644.644 0 0 1 .834.272.57.57 0 0 1-.29.782l-4.324 1.956V38.48zM6.7 28.793a.63.63 0 0 1-.564.33.664.664 0 0 1-.271-.058l-2.843-1.285c-.311-.141-.441-.492-.291-.783a.644.644 0 0 1 .834-.273l2.844 1.286c.31.141.44.491.29.782zm2.616-1.596a.63.63 0 0 1-.563.33.663.663 0 0 1-.271-.057l-5.456-2.468c-.311-.141-.441-.491-.291-.782a.644.644 0 0 1 .834-.273l5.456 2.467c.311.141.442.492.291.783z"/></g></g></svg>