<svg xmlns="http://www.w3.org/2000/svg" width="40" height="40" viewBox="0 0 40 40"><g><g><path fill="#7f8890" d="M20 40.102C8.915 40.102-.103 31.084-.103 20-.103 8.915 8.915-.104 20-.104S40.103 8.914 40.103 20c0 11.084-9.018 20.102-20.103 20.102zM20 1.09C9.574 1.09 1.09 9.573 1.09 20c0 10.426 8.483 18.908 18.909 18.908 10.426 0 18.909-8.482 18.909-18.908 0-10.427-8.483-18.91-18.91-18.91zm0 24.742a5.84 5.84 0 0 1-5.833-5.834A5.84 5.84 0 0 1 20 14.165a5.84 5.84 0 0 1 5.833 5.833A5.84 5.84 0 0 1 20 25.832zm0-10.472a4.644 4.644 0 0 0-4.639 4.638A4.645 4.645 0 0 0 20 24.638a4.644 4.644 0 0 0 4.639-4.64 4.643 4.643 0 0 0-4.64-4.638zm6.684 12.327l-.844-.844a8.956 8.956 0 0 0 2.636-6.376 8.954 8.954 0 0 0-2.637-6.376 8.955 8.955 0 0 0-6.375-2.636 8.954 8.954 0 0 0-6.376 2.636l-.845-.844a10.141 10.141 0 0 1 7.22-2.986c2.73 0 5.293 1.06 7.22 2.986a10.14 10.14 0 0 1 2.987 7.22 10.135 10.135 0 0 1-2.986 7.22zm3.659 3.66l-.844-.845a14.097 14.097 0 0 0 4.149-10.035c0-3.794-1.474-7.358-4.15-10.034-5.533-5.533-14.536-5.533-20.069 0l-.844-.844a15.28 15.28 0 0 1 10.878-4.5c4.115 0 7.978 1.598 10.88 4.5 2.902 2.9 4.5 6.765 4.5 10.878 0 4.114-1.599 7.977-4.5 10.88z"/></g></g></svg>