<svg xmlns="http://www.w3.org/2000/svg" width="50" height="50" viewBox="0 0 50 50"><g><g><path d="M47.218 20.586a17.87 17.87 0 0 1-6.005 5.984c-2.715 1.634-5.428 1.977-7.227 1.977-.576 0-1.037-.036-1.344-.07-.868.933-1.812 1.687-2.811 2.243a2.925 2.925 0 0 0-1.428 1.952 2.45 2.45 0 0 1 1.72 2.336 2.45 2.45 0 0 1-1.788 2.356v3.116h4.018v3.253h3.965V50H13.78v-6.267h3.965V40.48h4.018v-3.116a2.45 2.45 0 0 1-1.788-2.356 2.45 2.45 0 0 1 1.72-2.336 2.926 2.926 0 0 0-1.428-1.952c-1.001-.557-1.939-1.307-2.809-2.244l-.076.009c-.4.041-.827.062-1.27.062-1.8 0-4.513-.343-7.228-1.977a17.872 17.872 0 0 1-6.005-5.984C.952 17.431 0 13.715.049 9.54c.05-4.244 2.222-6.581 6.115-6.581 1.509 0 2.963.351 3.912.644a59.635 59.635 0 0 1-.098-2.86V0H40.12v.742c0 .054-.001 1.124-.096 2.86.95-.293 2.402-.644 3.91-.644 3.893 0 6.065 2.337 6.115 6.581.049 4.175-.903 7.892-2.83 11.047zM11.476 1.485c.007.271.019.613.035 1.013H38.59c.016-.4.026-.741.033-1.013zm24.275 22.241c1.068-.111 2.343-.425 3.527-1.185 3.398-2.182 5.664-6.263 6.382-11.49.173-1.256.02-2.167-.453-2.709-.411-.472-1.116-.711-2.096-.711-1.168 0-2.472.337-3.478.672-.529 4.714-1.622 10.674-3.882 15.423zM10.467 8.304c-1.006-.335-2.312-.673-3.48-.673-.98 0-1.685.24-2.097.711-.473.542-.625 1.454-.453 2.709.718 5.227 2.985 9.308 6.383 11.49 1.183.76 2.457 1.074 3.525 1.185-.04-.083-.08-.166-.118-.25-1.259-2.718-2.267-6.082-2.998-10a72.125 72.125 0 0 1-.762-5.172zm5.829 18.757l-.07-.1a14.169 14.169 0 0 1-.301-.435 18.098 18.098 0 0 1-.155-.234c-.029-.044-.058-.087-.086-.132a21.057 21.057 0 0 1-.527-.873l-.014-.024c-1.386-.028-3.329-.32-5.126-1.473-1.84-1.18-3.376-2.826-4.567-4.891-1.249-2.163-2.084-4.736-2.484-7.646-.234-1.7.037-3.007.805-3.887.706-.81 1.788-1.22 3.215-1.22 1.116 0 2.305.253 3.315.55a84.051 84.051 0 0 1-.125-1.496c-.742-.261-2.367-.757-4.012-.757-3.075 0-4.59 1.672-4.63 5.114-.114 9.73 5.638 14.25 8.116 15.74 2.423 1.459 4.851 1.765 6.461 1.765l.185-.001zm-1.031 18.157v3.297h19.568v-3.297zm3.965-3.253v1.768h11.638v-1.767zm7.62-1.485v-3.025h-3.602v3.025zm.827-6.433h-5.256a.962.962 0 0 0 0 1.923h5.256a.962.962 0 0 0 0-1.923zm6.187-9.88l.213-.392c2.403-4.642 3.542-10.804 4.082-15.641l.049-.457c.08-.756.15-1.52.21-2.282l.001-.022c.019-.24.036-.48.053-.72l.002-.03c.015-.222.028-.434.04-.64H11.59c.291 4.737 1.257 13.655 4.45 19.825l.194.358c.635 1.17 1.33 2.19 2.069 3.033l.181.207c.752.819 1.585 1.504 2.506 2.017a4.415 4.415 0 0 1 2.198 3.139h3.725a4.414 4.414 0 0 1 2.197-3.14c.955-.53 1.859-1.278 2.687-2.223l.012-.014c.082-.095.164-.191.245-.29l.055-.067c.074-.09.147-.183.22-.278l.025-.031a17.747 17.747 0 0 0 1.511-2.353zm14.7-14.61c-.04-3.441-1.555-5.114-4.63-5.114-1.645 0-3.27.496-4.012.758a84.13 84.13 0 0 1-.124 1.495c1.009-.297 2.198-.55 3.313-.55 1.428 0 2.51.41 3.216 1.22.767.88 1.038 2.188.805 3.887-.4 2.91-1.236 5.483-2.484 7.646-1.191 2.065-2.728 3.71-4.568 4.892-1.796 1.153-3.74 1.444-5.125 1.472l-.047.08c-.066.115-.133.23-.2.342l-.04.066a19.898 19.898 0 0 1-.545.85l-.034.05c-.093.137-.188.272-.284.405l-.003.005.184.001c1.61 0 4.039-.306 6.462-1.764 2.478-1.492 8.23-6.01 8.116-15.741zm-28.532 16.03L18.946 26.6c-.475-.51-.93-1.094-1.353-1.737l1.24-.817c.378.574.782 1.093 1.2 1.541zm-1.718-2.39l-1.29.734c-1.164-2.047-2.114-4.667-2.826-7.79l1.447-.33c.68 2.981 1.578 5.466 2.67 7.387zm23.809 9.374v1.253l-1.484.001-.001-1.253h-1.254l-.001-1.485h1.254l-.001-1.254 1.485-.001v1.253h1.255v1.485zM10.01 40.283l.001 1.052-1.485.002-.001-1.053-1.052.001L7.47 38.8h1.052v-1.053l1.484-.001.001 1.052 1.052-.001.002 1.485zM4.818 28.141h1.4v1.485h-1.4zm9.003 4.394h1.401v1.485h-1.4zm22.581 4.469h1.401v1.485h-1.4z"/></g></g></svg>