<svg xmlns="http://www.w3.org/2000/svg" width="50" height="50" viewBox="0 0 50 50"><g><g><path d="M50 45.583v3.583c0 .5-.334.834-.834.834H.833c-.5 0-.833-.334-.833-.834v-3.583c0-1.75.917-3.333 2.5-4.083 4.974-2.638 8.789-4.116 12.185-4.683l-.352-.484c-.166-.167-.166-.5-.166-.667l.78-3.123c-2.065-2.92-3.28-6.57-3.28-10.044v-3.333h-2.5c-.5 0-.834-.333-.834-.833 0-.5.334-.833.834-.833H10v-.834c0-6.583 4.333-12.166 10.833-14V2.5c0-1.417 1.167-2.5 2.5-2.5h3.334c1.416 0 2.5 1.166 2.5 2.5v.167C35.667 4.5 40 10.083 40 16.667v.833h.833c.5 0 .833.333.833.833 0 .5-.333.833-.833.833h-2.5V22.5c0 3.473-1.215 7.124-3.28 10.044l.78 3.123c.083.25 0 .5-.166.667l-.352.484c3.396.566 7.211 2.045 12.185 4.683 1.5.833 2.5 2.416 2.5 4.083zm-27-1.417h4.065l-.815-1.833-1.245-2.74-.505 1.135zm-1.133 4.167h6.236l-.476-2.5h-5.26zm11.502-13.771l-.015.016-.065.063c-1.936 1.938-4.333 3.286-7.019 3.613l2.247 5.055 1.1-1.51 3.466-4.8a.749.749 0 0 1 .149-.164l.851-1.169-.333-1.5c-.126.136-.253.267-.381.396zM31.917 9.75L35.75 9C34.982 8 34 7.074 32.94 6.282a13.58 13.58 0 0 0-.276-.187zM17.336 6.095c-.093.061-.185.124-.275.187-1.062.792-2.043 1.72-2.811 2.718l3.833.75zm-5.67 10.571v.834h26.667v-.834c0-2.244-.572-4.361-1.606-6.205L31 11.667h-.167a.757.757 0 0 1-.583-.25c-.167-.167-.25-.5-.25-.75l1.12-5.456c-.62-.303-1.273-.561-1.954-.772v2.227c0 .5-.333.834-.833.834-.5 0-.833-.334-.833-.834V2.5c0-.5-.417-.833-.833-.833h-3.334c-.5 0-.833.416-.833.833v4.167c0 .5-.333.833-.833.833-.5 0-.834-.334-.834-.833V4.439a13.8 13.8 0 0 0-1.894.743l1.144 5.568c.084.25 0 .583-.25.75-.25.083-.416.167-.666.167H19l-5.765-1.138a12.638 12.638 0 0 0-1.568 6.137zm1.667 2.5V22.5c0 3.634 1.247 6.864 3.118 9.318l.049.016.25.25c1.137 1.422 2.414 2.546 3.77 3.325 1.34.749 2.752 1.186 4.133 1.25a.797.797 0 0 1 .347-.075c.127 0 .255.025.368.073 2.255-.11 4.596-1.216 6.558-3.044.462-.46.905-.97 1.324-1.529l.25-.25.048-.016a15.355 15.355 0 0 0 3.119-9.318v-3.333zm3.26 15.357c-.116-.116-.23-.235-.343-.357l-.333 1.5.913 1.255c.03.026.06.052.087.079l3.466 4.8 1.1 1.51 2.246-5.056c-2.74-.333-5.18-1.73-7.136-3.73zM1.667 48.333h18.466l.632-3.157-4.973-6.838c-3.406.424-7.23 1.84-12.542 4.662-1 .5-1.583 1.5-1.583 2.583zm46.666-2.75c0-1.083-.583-2.083-1.583-2.667-5.202-2.724-9.094-4.14-12.488-4.652l-5.027 6.912.632 3.157h18.466z"/></g></g></svg>