<svg xmlns="http://www.w3.org/2000/svg" width="50" height="50" viewBox="0 0 50 50"><g><g><path d="M27.245 25.254L25.68 29.17a.732.732 0 1 1-1.36-.545l1.164-2.912h-2.05a.732.732 0 0 1-.68-1.005l1.566-3.917a.732.732 0 1 1 1.36.545l-1.164 2.912h2.05a.73.73 0 0 1 .68 1.005zm22.749-11.24v10.184c0 .836-.68 1.517-1.515 1.517h-.833v3.967a.732.732 0 0 1-1.465 0v-3.967h-.833c-.835 0-1.514-.681-1.514-1.517v-6.757a.733.733 0 1 1 1.464 0v6.757c0 .028.023.05.05.05h3.13a.05.05 0 0 0 .051-.05V14.014c0-3.319-1.284-6.452-3.616-8.824a12.491 12.491 0 0 0-8.742-3.76c-3.292-.053-6.436 1.228-8.857 3.61-2.497 2.459-3.93 5.858-3.93 9.327v2.83h3.232v-3.183A9.377 9.377 0 0 1 29.674 7.1a9.25 9.25 0 0 1 7.182-2.394c2.328.22 4.475 1.334 6.045 3.14a9.78 9.78 0 0 1 2.397 6.42.733.733 0 1 1-1.464 0c0-4.166-3.126-7.725-7.116-8.1a7.804 7.804 0 0 0-6.058 2.018 7.906 7.906 0 0 0-2.58 5.83v3.184h2.398a2.301 2.301 0 0 1 2.298 2.3v10.967c0 1.268-1.03 2.3-2.298 2.3H28.08v2.831c0 3.859-1.592 7.64-4.368 10.372C21.066 48.573 17.637 50 14.034 50l-.23-.002a13.946 13.946 0 0 1-9.76-4.197A13.972 13.972 0 0 1 .006 35.95V25.765c0-.836.68-1.516 1.515-1.516h.833V20.28a.733.733 0 1 1 1.464 0v3.968h.833c.836 0 1.515.68 1.515 1.516v6.757a.733.733 0 1 1-1.464 0v-6.757a.05.05 0 0 0-.05-.05H1.52a.05.05 0 0 0-.05.05v10.184c0 3.319 1.284 6.452 3.616 8.824a12.488 12.488 0 0 0 8.742 3.759c3.292.055 6.436-1.227 8.857-3.61 2.497-2.458 3.93-5.857 3.93-9.326v-2.83h-3.232v3.183a9.377 9.377 0 0 1-3.058 6.914 9.23 9.23 0 0 1-6.27 2.437c-.302 0-.606-.014-.912-.043-2.328-.22-4.475-1.334-6.045-3.14a9.781 9.781 0 0 1-2.397-6.42.733.733 0 1 1 1.464 0c0 4.166 3.126 7.724 7.116 8.1a7.805 7.805 0 0 0 6.058-2.018 7.908 7.908 0 0 0 2.58-5.83v-3.184h-2.398a2.302 2.302 0 0 1-2.298-2.3V19.498c0-1.268 1.03-2.3 2.298-2.3h2.398v-2.831c0-3.86 1.592-7.64 4.368-10.372 2.702-2.66 6.221-4.093 9.907-4.03a13.942 13.942 0 0 1 9.762 4.197 13.97 13.97 0 0 1 4.037 9.852zm-30.472 4.65a.834.834 0 0 0-.833.834v10.967c0 .46.373.834.833.834h10.956c.46 0 .833-.374.833-.834V19.498a.834.834 0 0 0-.833-.834zm-17.674-.078a.73.73 0 0 1-.982-.327l-.783-1.567a.733.733 0 0 1 1.31-.656l.783 1.567a.733.733 0 0 1-.328.983zm4.24-1.894l-.782 1.567a.732.732 0 1 1-1.31-.656l.783-1.567a.732.732 0 1 1 1.31.656zM49.59 34.254a.73.73 0 0 1-.982-.328l-.783-1.566a.733.733 0 0 1 1.31-.656l.783 1.567a.733.733 0 0 1-.328.983zm-3.585-1.894l-.783 1.566a.732.732 0 1 1-1.31-.655l.783-1.567a.732.732 0 1 1 1.31.656z"/></g></g></svg>