<svg xmlns="http://www.w3.org/2000/svg" width="50" height="50" viewBox="0 0 50 50"><g><g><path d="M50 7.225V47.81c0 1.208-.99 2.19-2.209 2.19H5.11C2.292 50 0 47.727 0 44.93v-8.699c0-.392.32-.71.717-.71.396 0 .717.318.717.71v5.182a5.132 5.132 0 0 1 7.352-.002V5.16c0-2.017-1.62-3.685-3.613-3.718a3.656 3.656 0 0 0-2.64 1.046 3.606 3.606 0 0 0-1.099 2.6v26.723a.714.714 0 0 1-.717.71.714.714 0 0 1-.717-.71V5.089a5.01 5.01 0 0 1 1.527-3.614A5.114 5.114 0 0 1 5.454.03l.08.007.173.016.095.014.154.022.103.02.142.028.105.026.137.034.105.031.131.04.106.038.126.045c.035.013.07.028.105.043.04.016.081.032.121.05.035.015.07.032.104.048.04.018.079.036.117.055l.103.054.112.06.101.06c.036.02.073.042.108.064.034.02.066.043.099.064.035.023.07.045.104.07.033.022.064.045.096.068.034.025.067.048.1.074l.093.073c.032.026.065.051.096.078l.09.078.092.082c.03.027.058.055.086.083.03.028.06.056.088.085l.083.087.083.089.08.091.078.093.075.094.074.097.07.098c.024.033.048.066.07.1l.067.101.065.103a4.39 4.39 0 0 1 .122.212 5.241 5.241 0 0 1 .214.44l.046.112a5.563 5.563 0 0 1 .125.35 4.782 4.782 0 0 1 .1.357c.01.041.02.083.028.125.009.039.016.08.024.119a5.618 5.618 0 0 1 .07.5 5.22 5.22 0 0 1 .015.256l.004.07H38.2c.396 0 .717.318.717.711 0 .393-.321.711-.717.711H10.22v36.997a.844.844 0 1 1-1.64.275 3.677 3.677 0 0 0-3.47-2.445c-2.027 0-3.676 1.636-3.676 3.646 0 2.011 1.649 3.647 3.676 3.647h42.682a.772.772 0 0 0 .774-.768V7.225a.772.772 0 0 0-.774-.768h-5.136a.714.714 0 0 1-.717-.711c0-.393.32-.711.717-.711h5.136c1.217 0 2.208.982 2.208 2.19zm-6 7.3V12.33a.349.349 0 0 0-.35-.346h-8.13v9.893a.714.714 0 0 1-.717.711.714.714 0 0 1-.717-.711v-9.893H25.14v2.003a.714.714 0 0 1-.717.711.714.714 0 0 1-.717-.71v-2.004h-9.835a.348.348 0 0 0-.35.346v8.648h10.185v-2.585c0-.393.321-.711.717-.711.396 0 .717.318.717.711v3.296a.714.714 0 0 1-.717.711H13.522v10.446h2.329c.396 0 .717.318.717.711 0 .393-.321.712-.717.712h-2.33v7.605c0 .191.157.346.35.346h11.556V34.27h-4.645a.714.714 0 0 1-.717-.712c0-.393.321-.71.717-.71h13.04c.395 0 .716.317.716.71a.714.714 0 0 1-.717.712h-6.96v7.951h16.79c.192 0 .348-.155.348-.346V34.27h-3.258a.714.714 0 0 1-.717-.712c0-.393.32-.71.717-.71h3.258v-5.955h-9.197a.714.714 0 0 1-.717-.712c0-.393.321-.711.717-.711H44v-4.77c0-.394.321-.712.717-.712.396 0 .717.318.717.712v21.175c0 .976-.8 1.769-1.783 1.769H13.871a1.778 1.778 0 0 1-1.783-1.77V12.33c0-.975.8-1.769 1.783-1.769h29.78c.983 0 1.782.794 1.782 1.77v2.194c0 .393-.32.711-.716.711a.714.714 0 0 1-.717-.711z"/></g></g></svg>