<svg xmlns="http://www.w3.org/2000/svg" width="490" height="490" viewBox="0 0 490 490"><defs><clipPath id="vwnka"><path fill="#fff" d="M245-.001c135.31 0 245 109.69 245 245S380.31 490 245 490s-245-109.69-245-245S109.69 0 245 0z"/></clipPath><clipPath id="vwnkb"><path fill="#fff" d="M244.333 65c99.411 0 180 80.588 180 180 0 99.41-80.589 180-180 180s-180-80.59-180-180c0-99.412 80.589-180 180-180z"/></clipPath><clipPath id="vwnkc"><path fill="#fff" d="M244.5 106.999c75.939 0 137.5 61.561 137.5 137.5 0 75.94-61.561 137.5-137.5 137.5-75.94 0-137.5-61.56-137.5-137.5 0-75.939 61.56-137.5 137.5-137.5z"/></clipPath></defs><g><g opacity=".1"><path fill="#3a3d4b" d="M245-.001c135.31 0 245 109.69 245 245S380.31 490 245 490s-245-109.69-245-245S109.69 0 245 0z"/><path fill="none" stroke="#fff" stroke-linecap="round" stroke-linejoin="round" stroke-miterlimit="50" stroke-width="2" d="M245-.001c135.31 0 245 109.69 245 245S380.31 490 245 490s-245-109.69-245-245S109.69 0 245 0z" clip-path="url(&quot;#vwnka&quot;)"/></g><g opacity=".2"><path fill="#3a3d4b" d="M244.333 65c99.411 0 180 80.588 180 180 0 99.41-80.589 180-180 180s-180-80.59-180-180c0-99.412 80.589-180 180-180z"/><path fill="none" stroke="#fff" stroke-linecap="round" stroke-linejoin="round" stroke-miterlimit="50" stroke-width="2" d="M244.333 65c99.411 0 180 80.588 180 180 0 99.41-80.589 180-180 180s-180-80.59-180-180c0-99.412 80.589-180 180-180z" clip-path="url(&quot;#vwnkb&quot;)"/></g><g opacity=".3"><path fill="#3a3d4b" d="M244.5 106.999c75.939 0 137.5 61.561 137.5 137.5 0 75.94-61.561 137.5-137.5 137.5-75.94 0-137.5-61.56-137.5-137.5 0-75.939 61.56-137.5 137.5-137.5z"/><path fill="none" stroke="#fff" stroke-linecap="round" stroke-linejoin="round" stroke-miterlimit="50" stroke-width="6" d="M244.5 106.999c75.939 0 137.5 61.561 137.5 137.5 0 75.94-61.561 137.5-137.5 137.5-75.94 0-137.5-61.56-137.5-137.5 0-75.939 61.56-137.5 137.5-137.5z" clip-path="url(&quot;#vwnkc&quot;)"/></g></g></svg>