<svg xmlns="http://www.w3.org/2000/svg" width="30" height="30" viewBox="0 0 30 30"><defs><clipPath id="2h4ma"><path fill="#fff" d="M15 0c8.284 0 15 6.715 15 15 0 8.284-6.716 15-15 15-8.284 0-15-6.716-15-15C0 6.715 6.716 0 15 0z"/></clipPath></defs><g><g><path fill="#ffb100" d="M15 0c8.284 0 15 6.715 15 15 0 8.284-6.716 15-15 15-8.284 0-15-6.716-15-15C0 6.715 6.716 0 15 0z"/><path fill="#ffb100" d="M15 0c8.284 0 15 6.715 15 15 0 8.284-6.716 15-15 15-8.284 0-15-6.716-15-15C0 6.715 6.716 0 15 0z"/><path fill="none" stroke="#ffb100" stroke-linecap="round" stroke-linejoin="round" stroke-miterlimit="50" stroke-width="2" d="M15 0c8.284 0 15 6.715 15 15 0 8.284-6.716 15-15 15-8.284 0-15-6.716-15-15C0 6.715 6.716 0 15 0z" clip-path="url(&quot;#2h4ma&quot;)"/></g><g><path fill="#fff" d="M8 14h6V8h2v6h6v2h-6v6h-2v-6H8z"/></g></g></svg>