<svg xmlns="http://www.w3.org/2000/svg" width="30" height="18" viewBox="0 0 30 18"><g><g><path fill="#777" d="M23.165 10.324s-3.213-3.277-7.643-3.277c-4.328 0-8.607 3.277-8.607 3.277L4.512 9.32v2.942c.38.13.656.478.656.9a.952.952 0 0 1-.667.903l.71 1.982H3.114l.717-2a.958.958 0 1 1-.018-1.758V9.03L.318 7.57 15.697.67l14.109 6.99zm-7.818-1.617c4.456 0 6.64 2.359 6.64 2.359v4.893s-2.271 1.836-6.99 1.836c-4.718 0-6.29-1.836-6.29-1.836v-4.893s2.184-2.359 6.64-2.359zm-.087 8.039c3.088 0 5.592-.627 5.592-1.398 0-.772-2.504-1.398-5.592-1.398-3.089 0-5.592.626-5.592 1.398 0 .771 2.503 1.398 5.592 1.398z"/></g></g></svg>