<svg xmlns="http://www.w3.org/2000/svg" xmlns:xlink="http://www.w3.org/1999/xlink" width="62" height="77"><defs><path id="a" d="M652 3669.26v50.71c0 1.11-.9 2.03-2.04 2.03H604.7c-6.44 0-11.69-5.23-11.69-11.65v-50.7c0-6.42 5.25-11.65 11.7-11.65h45.26a2.03 2.03 0 1 1 0 4.05H604.7a7.62 7.62 0 0 0-7.62 7.6c0 4.19 3.43 7.58 7.62 7.58h45.26c1.13 0 2.03.92 2.05 2.03zm-4.09 48.68v-46.64H604.7a11.7 11.7 0 0 1-7.62-2.82v41.87c0 4.2 3.43 7.6 7.62 7.6zm-4.34-60.14a2.03 2.03 0 0 1 0 4.06h-38.23a2.03 2.03 0 0 1 0-4.06z"/><path id="b" d="M624.23 3698.02a17.4 17.4 0 0 1-4.14-3.12 17.39 17.39 0 0 1-3.12-4.14l1.11-2.97-3.73-5.81-1.23 1.23-.03.03c-3.1 3.1-1.43 9.45 3.89 14.78 5.32 5.32 11.68 6.99 14.78 3.89a.2.2 0 0 0 .03-.03l1.23-1.23-5.81-3.74z"/></defs><use fill="#b0abb3" xlink:href="#a" transform="translate(-591 -3646)"/><use fill="#b0abb3" xlink:href="#b" transform="translate(-591 -3646)"/></svg>