<svg xmlns="http://www.w3.org/2000/svg" xmlns:xlink="http://www.w3.org/1999/xlink" width="76" height="77"><defs><path id="a" d="M999 3678.8v8.67a7.7 7.7 0 0 1-7.69 7.68 2.48 2.48 0 0 1 0-4.96c1.5 0 2.73-1.22 2.73-2.72v-8.67c0-1.5-1.22-2.72-2.73-2.72h-.55c-1.19 0-2.2-.84-2.44-2a26.37 26.37 0 0 0-25.82-21.12 26.47 26.47 0 0 0-25.8 21.14 2.48 2.48 0 0 1-2.43 1.98h-.6a2.73 2.73 0 0 0-2.71 2.72v8.67c0 1.5 1.22 2.73 2.73 2.73a2.48 2.48 0 0 1 2.48 2.47v5.7c0 8.14 6.62 14.76 14.77 14.76h2.43a6.4 6.4 0 0 1 5.88-3.9h6.5a6.4 6.4 0 0 1 0 12.77h-6.5a6.4 6.4 0 0 1-5.88-3.9h-2.43a19.75 19.75 0 0 1-19.73-19.73v-3.63a7.7 7.7 0 0 1-5.21-7.27v-8.67a7.7 7.7 0 0 1 6.28-7.55A31.45 31.45 0 0 1 962.5 3648a31.36 31.36 0 0 1 30.26 23.25 7.7 7.7 0 0 1 6.24 7.55zm-41.18 36.81c0 .8.64 1.43 1.43 1.43h6.5a1.43 1.43 0 0 0 0-2.85h-6.5c-.79 0-1.43.64-1.43 1.42zm27.9-32.48a23.25 23.25 0 0 1-23.22 23.23 23.25 23.25 0 0 1-23.22-23.23 23.25 23.25 0 0 1 23.22-23.22 23.25 23.25 0 0 1 23.22 23.22zm-4.96 0c0-10.07-8.19-18.26-18.26-18.26a18.28 18.28 0 0 0-18.27 18.26c0 10.07 8.2 18.27 18.27 18.27s18.26-8.2 18.26-18.27z"/></defs><use fill="#b0abb3" xlink:href="#a" transform="translate(-924 -3646)"/></svg>