<svg xmlns="http://www.w3.org/2000/svg" xmlns:xlink="http://www.w3.org/1999/xlink" width="78" height="78"><defs><path id="a" d="M1299.08 3703.44v3.63c0 .65-.47 1.2-1.1 1.3l-2 .3c-.89.14-1.61.7-1.97 1.53-.36.83-.28 1.73.23 2.48l1.08 1.6c.35.52.29 1.22-.16 1.66l-2.57 2.57c-.45.46-1.18.52-1.7.13l-1.14-.84a2.57 2.57 0 0 0-4.08 1.7l-.22 1.4c-.1.63-.65 1.1-1.3 1.1h-3.63c-.62 0-1.16-.44-1.28-1.06l-.37-1.9a2.54 2.54 0 0 0-1.6-1.91 2.54 2.54 0 0 0-2.46.32l-1.62 1.19c-.53.38-1.25.33-1.7-.13l-2.58-2.57a1.31 1.31 0 0 1-.15-1.66l1.08-1.6c.5-.75.59-1.65.23-2.48a2.54 2.54 0 0 0-1.98-1.52l-1.99-.3a1.31 1.31 0 0 1-1.11-1.3v-3.64c0-.63.45-1.17 1.06-1.29l1.9-.36a2.54 2.54 0 0 0 1.91-1.6c.34-.83.22-1.74-.32-2.46l-1.19-1.63a1.31 1.31 0 0 1 .13-1.7l2.57-2.57a1.31 1.31 0 0 1 1.67-.16l2.06 1.4c.73.5 1.62.59 2.44.25a2.55 2.55 0 0 0 1.55-1.9l.46-2.45c.12-.61.66-1.06 1.3-1.06h3.62c.65 0 1.2.47 1.3 1.11l.3 1.99c.14.9.7 1.61 1.53 1.98.83.36 1.73.27 2.48-.23l1.6-1.09a1.31 1.31 0 0 1 1.66.16l2.57 2.57c.46.46.51 1.18.13 1.7l-1.19 1.63a2.53 2.53 0 0 0-.32 2.47 2.54 2.54 0 0 0 1.92 1.6l1.9.35c.6.12 1.05.66 1.05 1.3zm-2.62 1.09l-.83-.16a5.19 5.19 0 0 1-3.21-8.2l.52-.71-1-1-.7.47a5.18 5.18 0 0 1-8.07-3.52l-.14-.88h-1.42l-.27 1.38a5.2 5.2 0 0 1-8.03 3.33l-1.17-.79-1 1 .52.72a5.19 5.19 0 0 1-3.22 8.2l-.83.16v1.42l.88.13a5.18 5.18 0 0 1 3.52 8.07l-.48.7 1.01 1 .71-.52a5.2 5.2 0 0 1 8.2 3.22l.16.83h1.42l.04-.29a5.18 5.18 0 0 1 8.23-3.4l.23.17 1.01-1.01-.47-.7a5.18 5.18 0 0 1-.46-5 5.18 5.18 0 0 1 3.98-3.07l.87-.13zm-7.87.43a6.56 6.56 0 1 1-13.12-.02 6.56 6.56 0 0 1 13.12.02zm-2.62 0a3.94 3.94 0 1 0-7.88 0 3.94 3.94 0 0 0 7.88 0zm50.56 4.85l-3.33 3.32c-4.09 4.09-8.64 6.13-13.51 6.13-4.69 0-9.67-1.88-14.83-5.66a1.31 1.31 0 0 1 1.55-2.11c9.47 6.93 17.86 6.86 24.94-.21l3.32-3.33a3.83 3.83 0 0 0 .68-4.51c-1.9-3.6-8.7-8.13-11.17-9.57-1.02-.58-2.1-.8-2.87-.6-.47.14-.83.43-1.1.9l-.13.2c-.93 1.12-3.2 3.78-4.02 4.34-1.03.7-2.05 1.2-3.06 1.5 2.05.95 4.5 1.76 7.28 2.05a1.31 1.31 0 0 1-.27 2.6 27.36 27.36 0 0 1-15.2-6.92c-.07-.06-.1-.14-.15-.2l-.17-.17-13.92-13.91-.1-.07c-.3-.24-7.4-6.18-8.34-15.3a1.31 1.31 0 0 1 2.6-.27c.25 2.39 1 4.54 1.94 6.4.28-1.14.81-2.3 1.61-3.5.56-.82 3.22-3.07 4.34-4l.2-.14c.47-.27.76-.63.9-1.1.2-.77-.01-1.85-.6-2.88-.05-.08-5.24-8.87-9.56-11.16a3.83 3.83 0 0 0-4.52.68l-3.33 3.33c-7.07 7.07-7.23 15.11-.47 24.56a1.31 1.31 0 1 1-2.13 1.53c-7.42-10.37-7.16-20.04.75-27.95l3.33-3.32a6.43 6.43 0 0 1 7.6-1.15c4.97 2.64 10.37 11.78 10.6 12.17a6.57 6.57 0 0 1 .85 4.9c-.3 1.1-1 2-2.02 2.6-1.6 1.34-3.47 3-3.77 3.4-2.1 3.1-1.85 5.58.83 8.26l15.06 15.06c2.68 2.68 5.15 2.93 8.26.83a43.6 43.6 0 0 0 3.4-3.76 4.35 4.35 0 0 1 2.61-2.03c1.47-.4 3.2-.1 4.88.85.4.23 9.55 5.63 12.18 10.6a6.43 6.43 0 0 1-1.14 7.6z"/></defs><use fill="#b0abb3" xlink:href="#a" transform="translate(-1263 -3646)"/></svg>