<svg xmlns="http://www.w3.org/2000/svg" xmlns:xlink="http://www.w3.org/1999/xlink" width="15" height="15"><defs><path id="a" d="M444.1 2194.82l3.1 3.1-1.14.75-2.71-2.71zm.1-1.64l-1.59-.5 2.33-2.33 2.2-.1zm4.64 4.64l2.93-2.94-.1 2.2-2.33 2.33zm-6.82-.53l.88-.87.54.54-.87.88zm2.7 2.7l-.54-.54.87-.87.55.54zm-2.06-1.22l1.3-1.3.54.55-1.29 1.3zm8.76-8.56a.39.39 0 1 1 0 .77.39.39 0 0 1 0-.77zm1.35 2.58l-4.8 4.8-3.55-3.53 4.8-4.81a4.25 4.25 0 0 1 4.52-.97c.57 1.51.25 3.29-.97 4.51zm-.53-3.01a1.16 1.16 0 1 0-1.64 1.63 1.16 1.16 0 0 0 1.64-1.63z"/></defs><use fill="#f57c00" xlink:href="#a" transform="translate(-441 -2186)"/></svg>