<svg xmlns="http://www.w3.org/2000/svg" xmlns:xlink="http://www.w3.org/1999/xlink" width="16" height="14"><defs><path id="a" d="M602 2191.04h-1c-.52-1.81-2.55-3.04-5-3.04-2.16 0-4.43 1.06-5 3.04l-1 .03v3.89h1.33c.18 1.43 1.46 3 2.99 3h.66l.02 1.04h1.5c.54 0 .54-.95.54-1.47s0-1.56-.54-1.56h-1.53v1.04h-.65c-1.24 0-2.32-1.28-2.32-2.47v-2.75c.4-1.78 2.11-2.87 4-2.87 1.9 0 3.58 1.1 3.96 2.87v2.8c0 .21.18.38.39.38H602v-2.46z"/></defs><use fill="#7f8890" xlink:href="#a" transform="translate(-588 -2186)"/></svg>