<svg xmlns="http://www.w3.org/2000/svg" xmlns:xlink="http://www.w3.org/1999/xlink" width="15" height="15"><defs><path id="a" d="M746.68 2189.99a2.94 2.94 0 0 1-4.16 3.68l-.81.89.58.58.35-.35a.45.45 0 0 1 .64 0l2.8 2.84c.18.17.18.46 0 .64l-1.28 1.28a.45.45 0 0 1-.64 0l-2.8-2.84a.45.45 0 0 1 0-.64l.31-.31-.55-.56-3.88 4.24a.9.9 0 0 1-1.29 0l-.32-.32a.9.9 0 0 1 0-1.28l4.43-3.7-2.94-2.95h-.93l-1.07-1.72.86-.87 1.77 1.08.01.91 2.97 2.98.87-.72a2.94 2.94 0 0 1 3.48-4.46l-1.9 1.88 1.6 1.6zm-9.98 8.3a.45.45 0 1 0-.64.64.45.45 0 0 0 .64-.63z"/></defs><use fill="#7f8890" xlink:href="#a" transform="translate(-734 -2186)"/></svg>