<svg xmlns="http://www.w3.org/2000/svg" xmlns:xlink="http://www.w3.org/1999/xlink" width="18" height="11"><defs><path id="a" d="M1328.88 2194.41s-1.53-1.5-3.64-1.5c-2.06 0-4.1 1.5-4.1 1.5l-1.17-.46.02 3.05h-1l.02-3.37-1.01-.48 7.32-3.15 6.72 3.2zm-3.72-.74a4.52 4.52 0 0 1 3.16 1.08v2.24s-1.08.84-3.33.84-3-.84-3-.84v-2.24s1.04-1.08 3.17-1.08zm-.05 3.68c1.48 0 2.67-.29 2.67-.64 0-.35-1.2-.64-2.67-.64s-2.66.29-2.66.64c0 .35 1.2.64 2.66.64z"/></defs><use fill="#7f8890" xlink:href="#a" transform="translate(-1316 -2188)"/></svg>