<svg xmlns="http://www.w3.org/2000/svg" xmlns:xlink="http://www.w3.org/1999/xlink" width="12" height="17"><defs><path id="a" d="M1476 2195.73v-.73h-1v.73c0 1.72-1.85 3.37-3.51 3.37-1.67 0-3.56-1.65-3.56-3.37v-.73h-.93v.73c0 1.81 2.3 4.05 4 4.3v.96l-1.98.02v.97h4.97l-.03-1.02-1.98.02v-.94c1.72-.23 4.02-2.48 4.02-4.31zm-2-.03v-.7h-5.04v.7c0 1.46 1.11 2.26 2.52 2.26 1.42 0 2.53-.8 2.53-2.26zm-5.04-1.7h5.05v-3.36a2.57 2.57 0 0 0-2.53-2.65 2.58 2.58 0 0 0-2.52 2.65z"/></defs><use fill="#7f8890" xlink:href="#a" transform="translate(-1465 -2186)"/></svg>