<svg xmlns="http://www.w3.org/2000/svg" width="32" height="32" viewBox="0 0 32 32"><g><g><path fill="#777" d="M32 14.123v3.75a.938.938 0 0 1-.716.911l-1.591.386a13.886 13.886 0 0 1-1.768 4.276l.811 1.35a.937.937 0 0 1-.14 1.145l-2.653 2.653a.938.938 0 0 1-1.145.14l-1.351-.811a13.904 13.904 0 0 1-4.275 1.768l-.386 1.591a.94.94 0 0 1-.911.716h-3.75a.94.94 0 0 1-.911-.716l-.386-1.59a13.904 13.904 0 0 1-4.275-1.769l-1.352.811a.938.938 0 0 1-1.145-.14L3.404 25.94a.937.937 0 0 1-.14-1.145l.81-1.35a13.89 13.89 0 0 1-1.767-4.276l-1.59-.386A.938.938 0 0 1 0 17.873v-3.75c0-.433.296-.809.716-.91l1.59-.387c.35-1.524.943-2.957 1.769-4.274L3.264 7.2a.938.938 0 0 1 .14-1.146l2.652-2.65a.937.937 0 0 1 1.145-.142l1.352.81a13.855 13.855 0 0 1 4.275-1.767l.386-1.59a.937.937 0 0 1 .91-.717h3.75c.433 0 .81.296.912.716l.386 1.591c1.523.35 2.956.941 4.275 1.767l1.351-.81a.937.937 0 0 1 1.146.142l2.651 2.65a.938.938 0 0 1 .141 1.146l-.81 1.352a13.855 13.855 0 0 1 1.767 4.274l1.59.386c.42.102.717.478.717.91zm-1.875.737l-1.45-.352a.937.937 0 0 1-.701-.74 12.04 12.04 0 0 0-1.928-4.663.937.937 0 0 1-.031-1.014l.737-1.228-1.617-1.617-1.228.737a.937.937 0 0 1-1.014-.03 12.025 12.025 0 0 0-4.663-1.929.94.94 0 0 1-.74-.7l-.352-1.45h-2.276l-.352 1.45a.94.94 0 0 1-.74.7c-1.69.313-3.258.961-4.664 1.928a.936.936 0 0 1-1.013.03l-1.229-.736-1.616 1.617.737 1.228a.938.938 0 0 1-.031 1.014 12.04 12.04 0 0 0-1.928 4.663.937.937 0 0 1-.7.74l-1.451.352v2.276l1.45.352a.936.936 0 0 1 .701.74 12.055 12.055 0 0 0 1.927 4.664c.209.303.22.698.032 1.013l-.737 1.229 1.616 1.616 1.229-.737a.937.937 0 0 1 1.013.031 12.042 12.042 0 0 0 4.663 1.928.938.938 0 0 1 .74.7l.353 1.451h2.276l.352-1.45a.94.94 0 0 1 .74-.702 12.04 12.04 0 0 0 4.663-1.927.937.937 0 0 1 1.014-.031l1.228.736 1.617-1.615-.737-1.229a.937.937 0 0 1 .031-1.013 12.053 12.053 0 0 0 1.928-4.664.936.936 0 0 1 .7-.74l1.45-.352zm-3.813 1.138c0 5.687-4.626 10.313-10.312 10.313-5.687 0-10.313-4.626-10.313-10.313 0-5.685 4.626-10.313 10.313-10.313 5.686 0 10.312 4.628 10.312 10.313zm-1.875 0c0-4.653-3.785-8.438-8.437-8.438-4.653 0-8.438 3.785-8.438 8.438 0 4.652 3.785 8.437 8.438 8.437 4.652 0 8.437-3.785 8.437-8.437zm-3.087-1.212l-5.625 5.625a.936.936 0 0 1-1.326 0l-3.75-3.75a.937.937 0 1 1 1.326-1.326l3.087 3.087 4.962-4.962a.937.937 0 1 1 1.326 1.326z"/></g></g></svg>