<svg xmlns="http://www.w3.org/2000/svg" xmlns:xlink="http://www.w3.org/1999/xlink" width="278" height="278" viewBox="0 0 278 278"><defs><path id="w1oaa" d="M850.99 1829.808l-18.23-.109c-6.472 0-11.758-5.287-11.758-11.87l.108-19.854c0-6.474 5.286-11.761 11.866-11.761l18.23.107c2.804-14.027 8.414-27.515 16.72-39.709l-12.729-12.84c-4.53-4.64-4.53-12.086.108-16.618l14.023-13.92c4.639-4.532 12.082-4.532 16.612.109l12.837 12.948c12.297-8.2 25.889-13.596 39.912-16.294l.108-18.236c0-6.474 5.285-11.761 11.865-11.761l19.848.107c6.473 0 11.758 5.288 11.758 11.87l-.108 18.236c14.024 2.806 27.507 8.417 39.697 16.726l12.944-12.841c4.639-4.532 12.082-4.532 16.612.107l13.916 14.028c4.53 4.64 4.53 12.086-.108 16.618l-12.945 12.84c8.198 12.301 13.592 25.897 16.288 39.925l18.23.108c6.473 0 11.758 5.288 11.758 11.87l-.108 19.854c0 6.475-5.285 11.762-11.865 11.762l-18.23-.108c-2.805 14.028-8.414 27.516-16.72 39.71l12.836 12.948c4.53 4.64 4.53 12.085-.107 16.617l-14.024 13.92c-4.638 4.532-12.08 4.532-16.612-.108l-12.836-12.948c-12.297 8.2-25.89 13.596-39.912 16.293l-.108 18.236c0 6.474-5.286 11.762-11.866 11.762l-19.848-.109c-6.472 0-11.758-5.286-11.758-11.868l.108-18.237c-14.023-2.805-27.507-8.416-39.696-16.725l-12.945 12.84c-4.638 4.533-12.081 4.533-16.612-.108l-13.915-14.027c-4.53-4.64-4.53-12.085.108-16.617l12.944-12.84c-8.306-12.41-13.7-26.006-16.396-40.033zm71.302 15.97c20.496 20.717 53.828 20.933 74.539.43 20.71-20.501 20.927-53.844.431-74.561-20.495-20.719-53.827-20.934-74.538-.432-20.819 20.501-20.927 53.845-.432 74.562z"/></defs><g><g transform="translate(-821 -1670)"><use fill="#f1f4f9" xlink:href="#w1oaa"/></g></g></svg>