<svg xmlns="http://www.w3.org/2000/svg" xmlns:xlink="http://www.w3.org/1999/xlink" width="50" height="50" viewBox="0 0 50 50"><defs><path id="hqpla" d="M430 6067.5v3.333a.833.833 0 0 1-.833.834h-18.334a.833.833 0 0 1-.833-.834v-3.333c0-3.65 2.62-6.695 6.078-7.361a5.815 5.815 0 0 1-1.911-4.306A5.84 5.84 0 0 1 420 6050a5.84 5.84 0 0 1 5.833 5.833c0 1.706-.74 3.238-1.911 4.306 3.457.666 6.078 3.711 6.078 7.361zm-10-7.5a4.171 4.171 0 0 0 4.167-4.167 4.171 4.171 0 0 0-4.167-4.166 4.171 4.171 0 0 0-4.167 4.166A4.171 4.171 0 0 0 420 6060zm8.333 7.5a5.84 5.84 0 0 0-5.833-5.833h-5a5.84 5.84 0 0 0-5.833 5.833v2.5h16.666zM415 6095.833v3.334c0 .46-.373.833-.833.833h-18.334a.833.833 0 0 1-.833-.833v-3.334c0-3.65 2.62-6.694 6.078-7.36a5.814 5.814 0 0 1-1.911-4.307 5.84 5.84 0 0 1 5.833-5.833 5.84 5.84 0 0 1 5.833 5.833c0 1.706-.74 3.239-1.911 4.306 3.457.667 6.078 3.712 6.078 7.361zm-10-7.5a4.171 4.171 0 0 0 4.167-4.167A4.171 4.171 0 0 0 405 6080a4.171 4.171 0 0 0-4.167 4.166 4.171 4.171 0 0 0 4.167 4.167zm8.333 7.5A5.84 5.84 0 0 0 407.5 6090h-5a5.84 5.84 0 0 0-5.833 5.833v2.5h16.666zm31.667 0v3.334c0 .46-.373.833-.833.833h-18.334a.833.833 0 0 1-.833-.833v-3.334c0-3.65 2.62-6.694 6.078-7.36a5.814 5.814 0 0 1-1.911-4.307 5.84 5.84 0 0 1 5.833-5.833 5.84 5.84 0 0 1 5.833 5.833c0 1.706-.74 3.239-1.911 4.306 3.457.667 6.078 3.712 6.078 7.361zm-10-7.5a4.171 4.171 0 0 0 4.167-4.167A4.171 4.171 0 0 0 435 6080a4.171 4.171 0 0 0-4.167 4.166 4.171 4.171 0 0 0 4.167 4.167zm8.333 7.5A5.84 5.84 0 0 0 437.5 6090h-5a5.84 5.84 0 0 0-5.833 5.833v2.5h16.666zm-43.19-17.599l-1.656.198a21.816 21.816 0 0 1-.136-1.727l1.665-.065c.02.53.063 1.066.126 1.594zm-.001-4.79a20.252 20.252 0 0 0-.126 1.595l-1.665-.065c.021-.577.068-1.158.136-1.727zm7.734-13.52c-.421.32-.835.663-1.232 1.02l-1.114-1.24c.43-.387.88-.758 1.336-1.106zm-5.98 7.396c-.225.479-.434.974-.622 1.472l-1.56-.586c.203-.54.43-1.077.675-1.598zm-1.124 2.991c-.147.51-.274 1.033-.379 1.553l-1.634-.329c.114-.564.252-1.132.41-1.683zm4.725-8.25c-.368.388-.723.793-1.055 1.203l-1.295-1.049c.36-.444.743-.881 1.142-1.301zm5.065-3.866c-.463.248-.926.52-1.376.812l-.904-1.402c.489-.315.991-.61 1.495-.88zm-7.075 6.351c-.301.439-.588.895-.851 1.354l-1.446-.828c.286-.5.596-.993.922-1.468zm14.142 31.148l-.193 1.655a20.936 20.936 0 0 1-1.714-.272l.33-1.634c.516.104 1.048.188 1.577.25zm6.703 1.373c-.56.114-1.135.207-1.71.277l-.201-1.655c.531-.065 1.062-.15 1.58-.256zm-3.438.414a20.827 20.827 0 0 1-1.733.003l.066-1.665c.53.02 1.068.018 1.6-.002zm14.822-36.561l-1.21 1.146c-.364-.384-.75-.759-1.146-1.116l1.113-1.24c.43.386.848.793 1.243 1.21zm2.175 2.69l-1.374.942c-.302-.44-.624-.872-.956-1.283l1.296-1.048c.36.446.707.913 1.034 1.389zm3.776 12.221c0 .294-.006.586-.018.876l-1.665-.065a20.28 20.28 0 0 0 0-1.601l1.665-.065c.012.284.018.57.018.855zm-2.054-9.219l-1.507.712c-.227-.48-.475-.958-.74-1.418l1.447-.83c.286.5.555 1.016.8 1.536zm1.219 3.243l-1.603.459a20.257 20.257 0 0 0-.502-1.518l1.56-.586c.203.538.386 1.091.545 1.645zm.681 3.395l-1.655.197a19.556 19.556 0 0 0-.251-1.58l1.633-.328c.114.566.206 1.141.273 1.711zm-8.372-14.646l-1.012 1.326a19.73 19.73 0 0 0-1.31-.92l.903-1.402c.483.31.96.645 1.419.996zm-2.912-1.875l-.788 1.468c-.47-.252-.953-.487-1.439-.699l.668-1.527c.527.23 1.052.484 1.56.758z"/></defs><g><g transform="translate(-395 -6050)"><use fill="#7f8890" xlink:href="#hqpla"/></g></g></svg>