<svg xmlns="http://www.w3.org/2000/svg" xmlns:xlink="http://www.w3.org/1999/xlink" width="50" height="50" viewBox="0 0 50 50"><defs><path id="2hlda" d="M745.038 6064.066l-.704 4.93a.83.83 0 0 1-.94.703l-3.23-.461a.808.808 0 0 0-.83.398.816.816 0 0 0 .05.922l1.957 2.608a.83.83 0 0 1-.166 1.162l-3.987 2.987a.83.83 0 0 1-1.162-.165l-1.958-2.609a.831.831 0 0 0-1.486.381l-.462 3.228a.83.83 0 0 1-.94.705l-4.932-.705a.83.83 0 0 1-.704-.939l.46-3.229a.83.83 0 0 0-1.32-.78l-2.61 1.956a.83.83 0 0 1-1.162-.166l-2.99-3.984a.83.83 0 0 1 .166-1.161l2.61-1.957a.83.83 0 0 0-.381-1.485l-3.23-.462h-.001a.83.83 0 0 1-.704-.939l.705-4.928v-.002a.83.83 0 0 1 .94-.703l3.23.461c.332.048.66-.11.83-.399a.812.812 0 0 0-.05-.921l-1.957-2.608a.83.83 0 0 1-.158-.616.95.95 0 0 1 .032-.09 14.077 14.077 0 0 0-11.867 6.582c-4.136 6.578-2.153 15.26 4.429 19.394a5.582 5.582 0 0 1 2.634 4.684v3.353c0 .917.744 1.66 1.66 1.66h6.644a1.66 1.66 0 0 0 1.661-1.66v-3.285a5.716 5.716 0 0 1 2.679-4.78c.617-.4 1.202-.847 1.75-1.338l1.107 1.237a15.92 15.92 0 0 1-1.954 1.494 4.067 4.067 0 0 0-1.921 3.387v3.285a3.31 3.31 0 0 1-1.661 2.859v4.61a3.32 3.32 0 0 1-3.322 3.32h-3.321a3.32 3.32 0 0 1-3.322-3.32v-4.61a3.31 3.31 0 0 1-1.66-2.86v-2.364l-1.29 1.293a.831.831 0 0 1-1.058.096l-2.295-1.577-.574 2.728a.83.83 0 0 1-.813.66h-3.321a.83.83 0 0 1-.812-.665l-.574-2.727-2.295 1.58a.83.83 0 0 1-1.058-.096l-2.492-2.49a.83.83 0 0 1-.096-1.057l1.578-2.293-2.73-.573a.83.83 0 0 1-.66-.813v-3.319a.83.83 0 0 1 .654-.813l2.73-.573-1.579-2.293a.83.83 0 0 1 .097-1.058l2.491-2.49a.832.832 0 0 1 1.059-.096l2.298 1.585.574-2.727a.83.83 0 0 1 .812-.664h.25c.011-.233.02-.467.042-.701a15.773 15.773 0 0 1 13.912-14.14c1.129-.12 2.267-.12 3.396 0l2.495-1.87a.83.83 0 0 1 1.163.166l1.957 2.608a.83.83 0 0 0 1.486-.38l.463-3.228v-.001a.83.83 0 0 1 .94-.703l4.929.704a.83.83 0 0 1 .705.939l-.462 3.228a.83.83 0 0 0 1.324.781l2.61-1.957a.83.83 0 0 1 1.162.166l2.99 3.983a.83.83 0 0 1-.166 1.163l-2.61 1.957a.828.828 0 0 0 .38 1.485l3.23.46.002.002a.83.83 0 0 1 .704.94zm-28.227 30.125h6.643v-1.66h-6.643zm0 2.489c0 .917.743 1.66 1.66 1.66h3.322a1.66 1.66 0 0 0 1.661-1.66v-.83h-6.643zm-10.453-12.473a4.98 4.98 0 0 1-1.18-9.889 15.798 15.798 0 0 1-.658-2.814l-.145.69a1.661 1.661 0 0 1-2.567 1.026l-1.727-1.187-1.513 1.508 1.19 1.728a1.66 1.66 0 0 1-1.026 2.562l-2.07.435v1.973l2.07.435a1.659 1.659 0 0 1 1.025 2.567l-1.189 1.723 1.513 1.508 1.726-1.184a1.661 1.661 0 0 1 2.568 1.024l.435 2.07h1.974l.435-2.073a1.66 1.66 0 0 1 2.568-1.024l1.724 1.187 1.781-1.777a4.051 4.051 0 0 0-1.673-2.123 15.731 15.731 0 0 1-1.42-1.033 4.981 4.981 0 0 1-3.84 2.668zm-.53-8.274h-.032a3.314 3.314 0 0 0-1.13 6.434 3.318 3.318 0 0 0 4.244-1.997 15.719 15.719 0 0 1-3.082-4.437zm37.447-11.282l-2.408-.343a2.488 2.488 0 0 1-1.142-4.456l1.946-1.46-1.993-2.655-1.946 1.458a2.49 2.49 0 0 1-3.961-2.344l.344-2.407-3.288-.468-.343 2.406a2.491 2.491 0 0 1-4.46 1.141l-1.46-1.944-2.657 1.992 1.464 1.946a2.49 2.49 0 0 1-2.346 3.958l-2.408-.343-.47 3.285 2.408.344a2.488 2.488 0 0 1 1.142 4.457l-1.945 1.459 1.993 2.655 1.946-1.458a2.493 2.493 0 0 1 3.961 2.345l-.344 2.406 3.288.47.336-2.41a2.492 2.492 0 0 1 4.46-1.141l1.46 1.944 2.657-1.992-1.46-1.945a2.49 2.49 0 0 1 2.346-3.959l2.408.344zm-5.923-.117a6.64 6.64 0 0 1-6.643 6.639 6.64 6.64 0 0 1-6.644-6.64 6.641 6.641 0 0 1 6.644-6.639 6.649 6.649 0 0 1 6.643 6.64zm-1.66 0c0-2.75-2.231-4.98-4.983-4.98a4.981 4.981 0 0 0-4.983 4.98 4.98 4.98 0 0 0 4.983 4.979 4.987 4.987 0 0 0 4.982-4.98zm-16.39 22.188h1.661v2.489h-1.66zm1.661-1.66h-1.66a5.3 5.3 0 0 0-3.406-4.947 11.62 11.62 0 0 1-5.607-4.629c-3.422-5.429-1.792-12.603 3.64-16.023l.888 1.404a9.959 9.959 0 0 0-3.973 4.805c-2.003 5.123.529 10.898 5.655 12.9a6.944 6.944 0 0 1 4.463 6.49zm14.947-4.15h5.813v1.66h-5.813zm-1.361 5.616l1.063-1.275 4.983 4.15-1.063 1.274zm-3.621 1.023h1.66v5.81h-1.66zm-35.08-23.212l6.644-1.66.402 1.61-6.643 1.659zm1.38-8.477l.965-1.35 5.812 4.148-.964 1.35zm7.115-5.451l1.61-.411 1.698 6.639-1.61.41z"/></defs><g><g transform="translate(-695 -6050)"><use xlink:href="#2hlda"/></g></g></svg>