<svg xmlns="http://www.w3.org/2000/svg" xmlns:xlink="http://www.w3.org/1999/xlink" width="50" height="50" viewBox="0 0 50 50"><defs><path id="t34ga" d="M1337.842 6078.038c.232.237.355.55.347.882a21.473 21.473 0 0 1-6.49 14.923 21.478 21.478 0 0 1-15.101 6.157c-1.65 0-3.292-.187-4.885-.555a.732.732 0 0 1 .33-1.427c1.249.289 2.531.457 3.822.504v-6.687h-.99c-1.655 0-3.001-1.347-3.001-3 0-1.655 1.346-3.001 3-3.001h.991v-6.7h-7.139c-.565 0-1.025-.46-1.025-1.025v-1.376c0-.848-.664-1.56-1.48-1.59-.42-.014-.82.138-1.122.43-.303.293-.47.685-.47 1.105v1.43c0 .566-.46 1.026-1.025 1.026h-7.126c.297 8.059 5.467 15.282 13.054 18.126a.732.732 0 1 1-.514 1.372 21.55 21.55 0 0 1-10.08-7.793 21.46 21.46 0 0 1-3.938-12.437 21.478 21.478 0 0 1 6.156-15.1 21.473 21.473 0 0 1 14.924-6.492c.332-.007.645.116.882.348.237.231.368.542.368.873v7.3h.991c.822 0 1.589.326 2.16.918.57.59.868 1.37.839 2.192-.057 1.594-1.426 2.892-3.053 2.892h-.937v6.336h7.14c.565 0 1.025.46 1.025 1.025v1.432c0 .846.689 1.535 1.535 1.535.847 0 1.536-.689 1.536-1.535v-1.432c0-.565.46-1.025 1.025-1.025h7.377c.332 0 .642.131.874.369zm-20.951-8.17h1.376c.847 0 1.56-.664 1.589-1.479a1.524 1.524 0 0 0-.43-1.123 1.523 1.523 0 0 0-1.105-.47h-1.43c-.566 0-1.026-.46-1.026-1.025v-7.49c-10.475.38-19.002 8.957-19.385 19.388h6.685v-.99c0-.823.325-1.59.917-2.16a2.978 2.978 0 0 1 2.192-.84c1.594.057 2.891 1.427 2.891 3.053v.937h6.7v-6.776c0-.565.46-1.025 1.026-1.025zm19.827 9.266h-6.687v.992c0 1.654-1.347 3-3 3-1.655 0-3.001-1.346-3.001-3v-.992h-6.7v7.14c0 .565-.46 1.025-1.025 1.025h-1.43c-.848 0-1.536.688-1.536 1.535s.688 1.536 1.535 1.536h1.43c.566 0 1.026.46 1.026 1.025v7.125c10.431-.384 19.01-8.91 19.388-19.386zm8.274-8.053c.008.332-.115.645-.347.882a1.211 1.211 0 0 1-.874.368h-6.937v.937c0 1.627-1.298 2.997-2.892 3.053a2.973 2.973 0 0 1-2.192-.84 2.975 2.975 0 0 1-.917-2.158v-.992h-6.944c-.673 0-1.22-.547-1.22-1.22v-7.021c0-.565.46-1.026 1.025-1.026h1.43c.847 0 1.536-.688 1.536-1.535s-.689-1.536-1.536-1.536h-1.43c-.566 0-1.026-.46-1.026-1.025v-7.74c0-.331.131-.641.368-.873.238-.232.55-.355.883-.348a21.44 21.44 0 0 1 8.194 1.824.732.732 0 0 1-.591 1.34 19.966 19.966 0 0 0-7.389-1.692v7.05h.991c1.655 0 3 1.346 3 3s-1.345 3-3 3h-.99v6.337h7.431c.405 0 .733.328.733.733v1.724c0 .42.167.813.47 1.105.302.292.701.444 1.122.43.816-.03 1.479-.742 1.479-1.59v-1.669c0-.405.328-.733.732-.733h7.42c-.245-6.863-3.906-13.045-9.83-16.575a.733.733 0 0 1 .75-1.258 21.749 21.749 0 0 1 7.526 7.525 21.59 21.59 0 0 1 3.025 10.523z"/></defs><g><g transform="translate(-1295 -6050)"><use fill="#7f8890" xlink:href="#t34ga"/></g></g></svg>