<svg xmlns="http://www.w3.org/2000/svg" xmlns:xlink="http://www.w3.org/1999/xlink" width="50" height="50" viewBox="0 0 50 50"><defs><path id="jdwqa" d="M707.5 6184.69c0 2.052-1.683 3.724-3.75 3.724-2.068 0-3.75-1.672-3.75-3.725s1.682-3.724 3.75-3.724c2.067 0 3.75 1.67 3.75 3.724zm-1.667 0a2.078 2.078 0 0 0-2.083-2.07 2.078 2.078 0 0 0-2.083 2.07c0 1.14.935 2.068 2.083 2.068a2.078 2.078 0 0 0 2.083-2.069zm30.834-2.07c.46 0 .833.37.833.828a.83.83 0 0 1-.833.828.83.83 0 0 1-.834-.828.83.83 0 0 1 .834-.827zm-3.334 0c.46 0 .834.37.834.828a.83.83 0 0 1-.834.828.83.83 0 0 1-.833-.828.83.83 0 0 1 .833-.827zm5 2.483c.46 0 .834.37.834.827a.83.83 0 0 1-.834.828.83.83 0 0 1-.833-.828.83.83 0 0 1 .833-.827zm-3.333 0c.46 0 .833.37.833.827a.83.83 0 0 1-.833.828.83.83 0 0 1-.833-.828.83.83 0 0 1 .833-.827zm-5-2.482c.46 0 .833.37.833.827a.83.83 0 0 1-.833.828.83.83 0 0 1-.833-.828.83.83 0 0 1 .833-.827zm1.667 2.482c.46 0 .833.37.833.827a.83.83 0 0 1-.833.828.83.83 0 0 1-.834-.828.83.83 0 0 1 .834-.827zm-5-2.482c.46 0 .833.37.833.827a.83.83 0 0 1-.833.828.83.83 0 0 1-.834-.828.83.83 0 0 1 .834-.827zm1.666 2.482c.46 0 .834.37.834.827a.83.83 0 0 1-.834.828.83.83 0 0 1-.833-.828.83.83 0 0 1 .833-.827zm-5-2.482c.46 0 .834.37.834.827a.83.83 0 0 1-.834.828.83.83 0 0 1-.833-.828.83.83 0 0 1 .833-.827zm1.667 2.482c.46 0 .833.37.833.827a.83.83 0 0 1-.833.828.83.83 0 0 1-.833-.828.83.83 0 0 1 .833-.827zm18.52 7.448c.894.699 1.48 1.77 1.48 2.986v9.753c0 2.103-1.723 3.813-3.84 3.813h-20.327v8.705a4.165 4.165 0 0 1 3.25 3.226h20.084c.46 0 .833.37.833.828a.83.83 0 0 1-.833.827h-20.085A4.166 4.166 0 0 1 720 6226a4.166 4.166 0 0 1-4.083-3.31h-20.084a.83.83 0 0 1-.833-.827.83.83 0 0 1 .833-.828h20.084a4.165 4.165 0 0 1 3.25-3.226v-8.705H698.84c-2.118 0-3.84-1.71-3.84-3.814v-9.752c0-1.215.586-2.287 1.48-2.986-.894-.698-1.48-1.77-1.48-2.986v-9.752c0-2.103 1.722-3.813 3.84-3.813h42.32c2.117 0 3.84 1.71 3.84 3.813v9.752c0 1.215-.586 2.288-1.48 2.986zM720 6219.38a2.495 2.495 0 0 0-2.5 2.483 2.495 2.495 0 0 0 2.5 2.483c1.378 0 2.5-1.114 2.5-2.483a2.495 2.495 0 0 0-2.5-2.483zm21.16-26h-42.32a2.168 2.168 0 0 0-2.173 2.158v9.753c0 1.19.975 2.158 2.173 2.158h42.32a2.169 2.169 0 0 0 2.173-2.16v-9.75c0-1.19-.975-2.159-2.174-2.159zm0-1.655a2.168 2.168 0 0 0 2.173-2.16v-9.75c0-1.191-.975-2.16-2.174-2.16H698.84a2.168 2.168 0 0 0-2.173 2.16v9.751c0 1.19.975 2.159 2.173 2.159zm-41.16 8.69c0-2.054 1.682-3.724 3.75-3.724 2.067 0 3.75 1.67 3.75 3.724 0 2.053-1.683 3.724-3.75 3.724-2.068 0-3.75-1.671-3.75-3.724zm1.667 0c0 1.14.935 2.069 2.083 2.069a2.079 2.079 0 0 0 2.083-2.07c0-1.14-.935-2.069-2.083-2.069a2.079 2.079 0 0 0-2.083 2.07zm35-2.07c.46 0 .833.371.833.828a.83.83 0 0 1-.833.827.83.83 0 0 1-.834-.827.83.83 0 0 1 .834-.827zm-3.334 0c.46 0 .834.371.834.828a.83.83 0 0 1-.834.827.83.83 0 0 1-.833-.827.83.83 0 0 1 .833-.827zm5 2.483c.46 0 .834.37.834.828a.83.83 0 0 1-.834.828.83.83 0 0 1-.833-.828.83.83 0 0 1 .833-.828zm-3.333 0c.46 0 .833.37.833.828a.83.83 0 0 1-.833.828.83.83 0 0 1-.833-.828.83.83 0 0 1 .833-.828zm-5-2.483c.46 0 .833.371.833.828a.83.83 0 0 1-.833.827.83.83 0 0 1-.833-.827.83.83 0 0 1 .833-.827zm1.667 2.483c.46 0 .833.37.833.828a.83.83 0 0 1-.833.828.83.83 0 0 1-.834-.828.83.83 0 0 1 .834-.828zm-5-2.483c.46 0 .833.371.833.828a.83.83 0 0 1-.833.827.83.83 0 0 1-.834-.827.83.83 0 0 1 .834-.827zm1.666 2.483c.46 0 .834.37.834.828a.83.83 0 0 1-.834.828.83.83 0 0 1-.833-.828.83.83 0 0 1 .833-.828zm-5-2.483c.46 0 .834.371.834.828a.83.83 0 0 1-.834.827.83.83 0 0 1-.833-.827.83.83 0 0 1 .833-.827zm1.667 2.483c.46 0 .833.37.833.828a.83.83 0 0 1-.833.828.83.83 0 0 1-.833-.828.83.83 0 0 1 .833-.828z"/></defs><g><g transform="translate(-695 -6176)"><use fill="#7f8890" xlink:href="#jdwqa"/></g></g></svg>