<svg xmlns="http://www.w3.org/2000/svg" xmlns:xlink="http://www.w3.org/1999/xlink" width="50" height="50" viewBox="0 0 50 50"><defs><path id="p3wma" d="M1045 6215.655c0 5.704-4.64 10.345-10.345 10.345-5.704 0-10.345-4.64-10.345-10.345 0-5.704 4.64-10.345 10.345-10.345 5.704 0 10.345 4.64 10.345 10.345zm-1.724 0c0-4.753-3.867-8.621-8.62-8.621-4.754 0-8.622 3.868-8.622 8.62 0 4.754 3.868 8.621 8.621 8.621 4.754 0 8.62-3.867 8.62-8.62zm-2.586 0a.861.861 0 0 1-.862.862h-5.173a.861.861 0 0 1-.862-.862v-5.173a.862.862 0 1 1 1.724 0v4.31h4.31c.477 0 .863.386.863.863zm-6.897-21.552v9.483h-15.517v15.517h-17.242v-25zm-7.759 7.76h6.035v-6.035h-6.035zm-15.517 0h6.035v-6.035h-6.035zm-7.758 0h6.034v-6.035h-6.034zm0 7.757h6.034v-6.034h-6.034zm6.034 1.724h-6.034v6.035h6.034zm7.759 0h-6.035v6.035h6.035zm0-7.758h-6.035v6.034h6.035zm7.758-7.758h-6.034v6.034h6.034zm0 28.447a.861.861 0 0 1-.862.863h-27.586a.861.861 0 0 1-.862-.863v-43.965c0-.477.385-.862.862-.862h4.31v-2.586c0-.477.386-.862.862-.862h6.035c.477 0 .862.385.862.862v2.586h18.965v-2.586c0-.477.386-.862.863-.862h6.034c.477 0 .862.385.862.862v2.586h4.31c.477 0 .863.385.863.862V6201a.862.862 0 1 1-1.725 0v-11.207h-41.379v33.62h26.724c.477 0 .862.386.862.862zm4.31-41.379h4.311v-5.172h-4.31zm-26.724 0h4.31v-5.172h-4.31zm-5.172 5.173h41.38v-6.897h-3.449v2.586a.861.861 0 0 1-.862.863h-6.034a.861.861 0 0 1-.863-.863v-2.586h-18.965v2.586a.861.861 0 0 1-.862.863h-6.035a.861.861 0 0 1-.862-.863v-2.586h-3.448z"/></defs><g><g transform="translate(-995 -6176)"><use fill="#7f8890" xlink:href="#p3wma"/></g></g></svg>