<svg xmlns="http://www.w3.org/2000/svg" xmlns:xlink="http://www.w3.org/1999/xlink" width="50" height="50" viewBox="0 0 50 50"><defs><path id="tszxa" d="M1345 6193.045v2.538a2.662 2.662 0 0 1-2.135 2.604l-4.186.838a15.683 15.683 0 0 1-1.061 2.561l2.368 3.552c.7 1.05.56 2.458-.332 3.35l-1.795 1.796a2.657 2.657 0 0 1-1.88.775c-.51 0-1.023-.145-1.47-.443l-3.949-2.633a.79.79 0 0 1 .876-1.314l3.948 2.633a1.08 1.08 0 0 0 1.359-.134l1.795-1.796c.361-.36.418-.932.134-1.357l-2.632-3.95a.788.788 0 0 1-.031-.824c.552-.98.985-2.026 1.288-3.11a.79.79 0 0 1 .606-.562l4.653-.93c.501-.1.865-.544.865-1.056v-2.538a1.08 1.08 0 0 0-.865-1.056l-4.653-.93a.79.79 0 0 1-.606-.562 14.062 14.062 0 0 0-1.288-3.11.788.788 0 0 1 .031-.825l2.632-3.95a1.077 1.077 0 0 0-.134-1.356l-1.795-1.796a1.08 1.08 0 0 0-1.358-.135l-3.95 2.633a.791.791 0 0 1-.824.031 14.02 14.02 0 0 0-3.11-1.288.791.791 0 0 1-.561-.605l-.93-4.653a1.079 1.079 0 0 0-1.057-.865h-2.538c-.511 0-.955.363-1.056.865l-.93 4.653a.791.791 0 0 1-.562.605c-1.084.303-2.13.736-3.11 1.288a.791.791 0 0 1-.824-.031l-3.949-2.633a1.081 1.081 0 0 0-1.358.135l-1.795 1.796c-.362.36-.419.933-.135 1.357l2.632 3.95a.79.79 0 0 1 .031.824c-.551.98-.985 2.026-1.288 3.11a.79.79 0 0 1-.606.561l-4.652.93a1.08 1.08 0 0 0-.866 1.057v2.538c0 .512.364.956.866 1.056l2.71.542a.789.789 0 1 1-.31 1.547l-2.71-.541a2.662 2.662 0 0 1-2.135-2.604v-2.538a2.66 2.66 0 0 1 2.135-2.604l4.186-.837a15.68 15.68 0 0 1 1.062-2.562l-2.369-3.553c-.7-1.05-.56-2.459.332-3.35l1.795-1.796a2.663 2.663 0 0 1 3.35-.33l3.553 2.368c.82-.43 1.678-.785 2.562-1.062l.837-4.187a2.662 2.662 0 0 1 2.604-2.133h2.538c1.262 0 2.357.897 2.604 2.133l.837 4.187c.884.277 1.742.632 2.562 1.062l3.552-2.369c1.05-.7 2.46-.56 3.351.332l1.795 1.795a2.663 2.663 0 0 1 .332 3.351l-2.369 3.552c.429.82.785 1.679 1.062 2.562l4.186.837a2.662 2.662 0 0 1 2.135 2.604zm-15.79 10.217v1.052c0 .829-.35 1.577-.91 2.105.56.53.91 1.277.91 2.105v1.053c0 .83-.35 1.577-.91 2.106.56.527.91 1.277.91 2.105v1.052c0 .829-.35 1.577-.91 2.105.56.529.91 1.277.91 2.106v1.053a2.898 2.898 0 0 1-2.894 2.894h-14.301a4.357 4.357 0 0 1-3.092-1.276 2.805 2.805 0 0 0-1.99-.83H1305v.264a1.844 1.844 0 0 1-1.842 1.842h-6.316a1.844 1.844 0 0 1-1.842-1.842v-17.894c0-1.016.826-1.843 1.842-1.843h6.316c1.016 0 1.842.827 1.842 1.843v.262h1.903c.567 0 1.069-.361 1.248-.899l.294-.882a25.101 25.101 0 0 0 1.291-7.955 2.897 2.897 0 0 1 2.895-2.895c1.055 0 2.046.41 2.792 1.156a3.923 3.923 0 0 1 1.156 2.791v8.422a.79.79 0 0 1-1.58 0v-8.422c0-.632-.245-1.227-.693-1.675a2.356 2.356 0 0 0-1.675-.693c-.725 0-1.315.59-1.315 1.316 0 2.879-.462 5.723-1.373 8.454l-.293.881a2.891 2.891 0 0 1-2.747 1.98H1305v2.37a.79.79 0 0 1-1.579 0v-4.211a.264.264 0 0 0-.263-.264h-6.316a.264.264 0 0 0-.263.264v17.894c0 .145.118.263.263.263h2.368v-10.788a.79.79 0 1 1 1.58 0v10.788h2.368a.264.264 0 0 0 .263-.263v-10.525a.79.79 0 1 1 1.579 0v8.683h1.932c1.167 0 2.27.458 3.105 1.289.529.527 1.231.816 1.978.816h14.3c.726 0 1.316-.59 1.316-1.315v-1.052c0-.727-.59-1.317-1.315-1.317h-7.369a.79.79 0 1 1 0-1.578h7.369c.725 0 1.315-.591 1.315-1.317v-1.052c0-.727-.59-1.316-1.315-1.316h-7.369a.79.79 0 1 1 0-1.579h7.369c.725 0 1.315-.59 1.315-1.316v-1.053c0-.725-.59-1.315-1.315-1.315h-7.369a.79.79 0 1 1 0-1.58h7.369c.725 0 1.315-.589 1.315-1.315v-1.052c0-.726-.59-1.316-1.315-1.316h-7.369a.79.79 0 0 1 0-1.58h7.369a2.898 2.898 0 0 1 2.894 2.896zm-9.53-8.323a4.057 4.057 0 0 1 3.38-4.629 4.057 4.057 0 0 1 4.628 3.38 4.056 4.056 0 0 1-4.006 4.677 4.06 4.06 0 0 1-4.002-3.428zm1.56-.244a2.478 2.478 0 0 0 2.826 2.064 2.478 2.478 0 0 0 2.062-2.826 2.478 2.478 0 0 0-2.825-2.064 2.477 2.477 0 0 0-2.063 2.826zm9.037 7.032a.79.79 0 0 1-.024-1.116 9.042 9.042 0 0 0 2.42-7.7 9.002 9.002 0 0 0-1.61-3.924.79.79 0 0 1 1.279-.925 10.57 10.57 0 0 1 1.892 4.605 10.606 10.606 0 0 1-2.84 9.035.788.788 0 0 1-1.117.025zm-1.115-14.677a9.021 9.021 0 0 0-6.881-1.725 9.039 9.039 0 0 0-6.584 4.63.789.789 0 1 1-1.386-.757 10.612 10.612 0 0 1 7.726-5.434c2.88-.45 5.748.27 8.076 2.025a.79.79 0 0 1-.95 1.261z"/></defs><g><g transform="translate(-1295 -6173)"><use fill="#7f8890" xlink:href="#tszxa"/></g></g></svg>