<svg xmlns="http://www.w3.org/2000/svg" width="25" height="25" viewBox="0 0 25 25"><g><g><path fill="#fff" d="M18.765 10.458c-1.178 1.177-2.94 1.03-4.117-.147-1.178-1.177-1.324-2.94-.147-4.117 1.379-1.378 2.308-.614 3.28-1.044.089-.04.139-.197.013-.323L13.29.323a1.15 1.15 0 0 0-1.62 0L6.866 5.126c-.102.101-.152.015-.172-.029-.45-.98.371-1.862-1.017-3.25C4.5.668 2.738.815 1.56 1.992.384 3.17.237 4.933 1.415 6.11c1.374 1.374 2.26.59 3.224 1.007.052.023.168.068.033.203L.323 11.67a1.15 1.15 0 0 0 0 1.62l4.549 4.549c.126.126.041.188-.007.21-.968.42-1.847-.371-3.221 1.003-1.177 1.177-1.031 2.94.146 4.117 1.178 1.177 2.94 1.323 4.117.146 1.378-1.378.585-2.264 1.01-3.232.02-.044.05-.149.138-.06l4.614 4.613a1.15 1.15 0 0 0 1.62 0L24.637 13.29a1.15 1.15 0 0 0 0-1.62l-4.582-4.583c-.126-.126-.226.026-.262.103-.461.982.367 1.873-1.027 3.268z"/></g></g></svg>