<svg xmlns="http://www.w3.org/2000/svg" width="36" height="36" viewBox="0 0 36 36"><g><g><path fill="#7f8890" d="M1.005 29H0V2.903C0 1.303 1.302 0 2.903 0h15.19c1.601 0 2.904 1.302 2.904 2.903v3.09h-1.005V4.988H1.005zm0-25.017h18.987V2.715c0-.96-.782-1.742-1.742-1.742H2.747c-.96 0-1.742.781-1.742 1.742zM0 30.005h20.997v3.092c0 1.6-1.303 2.902-2.903 2.902H2.904A2.906 2.906 0 0 1 0 33.097zm1.005 3.247c0 .96.782 1.742 1.742 1.742h15.472c.96 0 1.742-.782 1.742-1.742v-2.274H1.005zm6.98-.268h5.026v.973H7.986zm21.628-11.5a3.487 3.487 0 0 1-3.484 3.483 3.487 3.487 0 0 1-3.484-3.484A3.488 3.488 0 0 1 26.13 18a3.488 3.488 0 0 1 3.484 3.484zm-1.161 0a2.325 2.325 0 0 0-2.323-2.323 2.325 2.325 0 0 0-2.323 2.322 2.325 2.325 0 0 0 2.323 2.323 2.325 2.325 0 0 0 2.323-2.323zm-15.678-8.13c0 1.601-1.302 2.903-2.903 2.903a2.906 2.906 0 0 1-2.903-2.902A2.907 2.907 0 0 1 9.87 10.45c1.6 0 2.903 1.302 2.903 2.904zm-1.161 0c0-.96-.782-1.742-1.742-1.742s-1.742.782-1.742 1.743c0 .96.782 1.741 1.742 1.741s1.742-.782 1.742-1.741zm-.104 7.642H8.235l-.424-2.213a5.564 5.564 0 0 1-.319-.134l-1.8 1.2-1.979-1.979.821-.82 1.306 1.305 1.572-1.048.305.16c.255.135.514.243.77.323l.329.103.37 2.098h1.37l.37-2.098.33-.103c.255-.08.515-.188.77-.323l.305-.16 1.572 1.048.968-.969-1.048-1.572.16-.306c.135-.256.244-.515.323-.77l.103-.328 1.849-.37v-1.371l-1.849-.37-.103-.329a4.662 4.662 0 0 0-.322-.77l1.028-.54c.11.21.206.421.288.633l2.12.424v3.274l-2.12.425c-.04.106-.085.212-.134.319l1.2 1.8-2.315 2.315-1.8-1.2a5.564 5.564 0 0 1-.319.133zm-7.067-9.703c.04-.106.085-.212.133-.32l-1.2-1.799L5.69 6.86l1.8 1.2c.107-.048.213-.093.32-.134l.424-1.932h3.274l.423 1.932c.107.041.213.086.319.134l1.8-1.2 1.979 1.979-.821.821-1.306-1.306-1.573 1.049-.305-.16a4.58 4.58 0 0 0-.77-.323l-.328-.103-.37-1.849h-1.37l-.37 1.849-.33.103a4.6 4.6 0 0 0-.769.322l-.305.16L5.84 8.354l-.97.97 1.048 1.572-.16.305a4.635 4.635 0 0 0-.322.77l-.103.33-1.85.369v1.37l1.85.37.102.33c.08.254.188.513.323.77l-1.028.54a6.172 6.172 0 0 1-.288-.633l-2.12-.424v-3.275zM9.009 21.97h1.005v1.036H9.009zm0 2.01h1.005v.974H9.009zm0 1.98h1.005v1.004H9.009zM25.986 9.007h.974v1.005h-.974zm0-2.04h.974v1.035h-.974zm0-1.98h.974v1.005h-.974zm7.15 19.285a7.839 7.839 0 0 1-.079.191l1.62 2.43-3.136 3.137-2.43-1.62-.191.08-.572 2.487H23.91l-.573-2.488a10.624 10.624 0 0 1-.191-.079l-2.43 1.526-2.8-2.706.82-.821 2.127 2.032 2.186-1.362.299.146c.225.109.455.205.685.284l.314.11.515 2.385h2.532l.514-2.385.314-.11c.23-.078.46-.175.685-.283l.299-.147 2.185 1.457 1.79-1.79-1.456-2.185.146-.3c.109-.224.204-.454.284-.684l.11-.315 2.729-.515v-2.53l-2.73-.515-.109-.314a6.165 6.165 0 0 0-.284-.685l1.044-.508c.08.163.153.33.22.498l2.864.571v4.436zM20.718 12.935l2.43 1.62a9.08 9.08 0 0 1 .191-.079l.573-2.52h4.435l.574 2.521c.063.025.127.051.19.078l2.43-1.619 2.801 2.8-.82.82-2.128-2.126-2.185 1.456-.3-.145a6.29 6.29 0 0 0-.686-.286l-.313-.11-.514-2.384h-2.532l-.514 2.384-.313.11c-.23.08-.462.176-.686.285l-.3.145-2.185-1.456-1.79 1.79 1.457 2.184-.146.3c-.109.225-.205.455-.284.685l-.11.314-2.979.516v2.531l2.98.514.109.315c.079.23.175.46.284.685l-1.044.508a7.018 7.018 0 0 1-.22-.497l-3.114-.572v-4.437l3.113-.572a6.63 6.63 0 0 1 .08-.191l-1.62-2.43z"/></g></g></svg>