<svg xmlns="http://www.w3.org/2000/svg" width="36" height="36" viewBox="0 0 36 36"><g><g><path fill="#7f8890" d="M6.998 27.964h.997v1.004h-.997zm.997-22.002h-.997v-3.06C6.998 1.303 8.29 0 9.882 0h15.246c1.59 0 2.883 1.302 2.883 2.903v3.059h-1.028v-.974H7.995zm0-1.948h18.988v-1.3c0-.96-.776-1.741-1.73-1.741H9.725c-.954 0-1.73.781-1.73 1.742zm19.02 23.95h.996v1.004h-.997zm-20.017 2.01H28.01v3.123c0 1.6-1.293 2.902-2.883 2.902H9.882c-1.59 0-2.884-1.302-2.884-2.902zm.997 3.31c0 .96.776 1.742 1.73 1.742h15.559c.954 0 1.73-.782 1.73-1.742v-2.306H7.995zm7-1.3h6.018v.974h-6.017zm-5.19-5.274C4.398 26.71 0 22.28 0 16.838s4.398-9.87 9.805-9.87 9.805 4.427 9.805 9.87-4.398 9.872-9.805 9.872zm0-1.162c4.77 0 8.651-3.907 8.651-8.71 0-4.802-3.88-8.71-8.651-8.71-4.77 0-8.652 3.908-8.652 8.71 0 4.803 3.882 8.71 8.652 8.71zm.094-2.56c-1.59 0-2.884-1.303-2.884-2.903v-6.15c0-1.6 1.293-2.903 2.884-2.903h3.071v4.925h-2.963V18h2.963v4.989zm-.157-1.005h2.23v-2.979H8.979v-3.989h2.995v-3.01H9.836c-.954 0-1.824.782-1.824 1.742v5.994c0 .96.776 2.242 1.73 2.242zM27.707 6.967c3.18 0 5.768 2.605 5.768 5.807v2.322c0 .96-.776 1.742-1.73 1.742 0 .909-.432 1.777-1.155 2.323l-1.076.812a1.732 1.732 0 0 1-1.038.349h-1.538c-.372 0-.74-.124-1.038-.349l-1.077-.812a2.925 2.925 0 0 1-1.153-2.323c-.954 0-1.73-.782-1.73-1.742v-2.322c0-3.202 2.587-5.807 5.767-5.807zm-4.037 7.548a.58.58 0 0 0-.577.581c0 .32.258.58.577.58zm6.921-.105a6.01 6.01 0 0 1-2.906-1.414 6.016 6.016 0 0 1-2.862 1.408v2.434c0 .546.259 1.066.692 1.394l1.077.812c.1.076.222.117.346.117h1.538a.579.579 0 0 0 .347-.117l1.076-.812c.433-.328.692-.848.692-1.394zm1.73.686a.58.58 0 0 0-.576-.58v1.16c.318 0 .576-.26.576-.58zm-4.614-6.968c-2.544 0-4.614 2.084-4.614 4.646v.687c.181-.065.374-.106.577-.106 1.319 0 2.56-.518 3.492-1.457l.523-.526.522.526a4.892 4.892 0 0 0 3.493 1.457h.045c.203 0 .395.041.576.106v-.687c0-2.562-2.07-4.646-4.614-4.646zm5.365 13.003c.893.299 1.585 1.02 1.852 1.928l1.076 3.9H19.422l1.029-3.878a2.897 2.897 0 0 1 1.862-1.956l1.911-.64v-.744h1.154v.905c.608.533 1.399.837 2.208.837h.242c.801 0 1.559-.282 2.164-.796v-.946h1.153v.743zm-.365 1.1l-1.969-.66a4.464 4.464 0 0 1-2.91 1.074h-.242a4.533 4.533 0 0 1-2.921-1.084l-1.987.666c-.543.182-.96.621-1.118 1.175l-.609 2.552h13.503l-.636-2.565a1.74 1.74 0 0 0-1.111-1.158z"/></g></g></svg>