<svg xmlns="http://www.w3.org/2000/svg" width="27" height="24" viewBox="0 0 27 24"><g><g><path fill="#fff" d="M23.86 17.352h-7.083c0-1.86 1.586-3.365 3.54-3.365 1.957 0 3.543 1.504 3.542 3.365zm-13.635 0H3.138c0-1.86 1.586-3.365 3.544-3.365 1.955 0 3.543 1.504 3.543 3.365zm16.004-.049c0 3.224-2.65 5.85-5.911 5.85-3.261 0-5.906-2.626-5.906-5.85 0-.467-.004-1.35-.004-1.35l-.085-2.702H12.66l-.07 2.702v1.35c0 3.224-2.729 5.85-5.909 5.85-3.184.001-5.911-2.626-5.911-5.85 0-.467.062-.919.167-1.35L4.38 2.721s3.328-4.133 8.556.071l-.057 2.058h1.18l-.062-1.95c4.434-4.462 8.145-.261 8.145-.261l3.92 13.314c.106.431.167.883.167 1.35zm-15.457 0c0-2.234-1.834-4.05-4.09-4.05-2.26 0-4.092 1.816-4.092 4.05 0 2.233 1.833 4.049 4.092 4.049 2.255 0 4.09-1.816 4.09-4.049zm13.637 0c0-2.234-1.833-4.05-4.092-4.05-2.255 0-4.088 1.816-4.088 4.05 0 2.233 1.833 4.049 4.088 4.049 2.26 0 4.092-1.816 4.092-4.049z"/></g></g></svg>