<svg xmlns="http://www.w3.org/2000/svg" width="25" height="25" viewBox="0 0 25 25"><g><g><path fill="#fff" d="M25 14.403v3.335a.621.621 0 0 1-.631.611H22.43a8.058 8.058 0 0 1-1.808 2.552l.815 3.346a.598.598 0 0 1-.12.52.64.64 0 0 1-.494.233h-2.777a.63.63 0 0 1-.603-.433l-.45-1.42a12.774 12.774 0 0 1-4.5.803c-1.61 0-3.135-.288-4.5-.803l-.45 1.42A.63.63 0 0 1 6.94 25H4.163a.64.64 0 0 1-.494-.233.598.598 0 0 1-.12-.52l.815-3.346c-1.493-1.438-2.39-3.277-2.39-5.279 0-1.577.556-3.053 1.521-4.311a2.872 2.872 0 0 0-.145-.299c-.405.519-.923.778-1.417.838-.844.105-1.65-.36-1.875-1.08-.142-.46 0-1 .363-1.375.275-.285.92-.72 2.151-.444.077.017.151.037.223.06.017-.135.029-.28.035-.435a.624.624 0 0 1 .654-.588.62.62 0 0 1 .607.635 5.572 5.572 0 0 1-.147 1.104c.18.187.328.39.449.588 1.931-1.844 4.845-3.021 8.1-3.021 1.945 0 3.768.421 5.332 1.153a6.579 6.579 0 0 1 2.42-.46c.546 0 .9.068.939.076a.623.623 0 0 1 .473.413.598.598 0 0 1-.14.603c-.005.006-.537.565-.914 1.245 1.034.99 1.782 2.172 2.15 3.466h1.616c.348 0 .63.274.631.613zM2.42 10.18a2.149 2.149 0 0 0-.596-.094c-.214 0-.38.047-.475.139-.085.082-.086.175-.082.193.04.13.254.25.506.218.222-.028.456-.168.647-.456zm12.795-.34c-.043-.025-1.058-.627-2.859-.627-1.782 0-3.15.72-3.207.751a.603.603 0 0 0-.248.832.645.645 0 0 0 .857.24 6.088 6.088 0 0 1 2.598-.6c1.397 0 2.17.431 2.195.445a.643.643 0 0 0 .865-.197.602.602 0 0 0-.201-.844zm5.164 4.014c0-.81-.63-1.468-1.406-1.468-.775 0-1.405.659-1.405 1.468 0 .81.63 1.468 1.405 1.468s1.406-.658 1.406-1.468zM15.324 2.855c0 1.575-1.321 2.856-2.945 2.856-1.624 0-2.945-1.281-2.945-2.856C9.434 1.281 10.755 0 12.379 0c1.624 0 2.945 1.282 2.945 2.856z"/></g></g></svg>