<svg xmlns="http://www.w3.org/2000/svg" width="25" height="25" viewBox="0 0 25 25"><g><g><path fill="#fff" d="M12.431 16.474c-.636-1.503.093-3.237 1.62-3.864 1.525-.626 3.284.092 3.92 1.596.637 1.504-.092 3.237-1.619 3.864-1.526.627-3.285-.092-3.92-1.596zm12.535 1.87l-.699 1.668a.674.674 0 0 1-.874.357l-1.407-.571a8.023 8.023 0 0 1-2.245 2.217l.584 1.381a.656.656 0 0 1-.362.867l-1.686.688a.673.673 0 0 1-.88-.357l-.584-1.381a8.25 8.25 0 0 1-3.182 0l-.579 1.386a.674.674 0 0 1-.874.357l-1.692-.688a.657.657 0 0 1-.362-.862l.58-1.386a8.024 8.024 0 0 1-2.251-2.212l-1.407.576a.673.673 0 0 1-.88-.357l-.698-1.662a.656.656 0 0 1 .362-.866l1.402-.576a7.755 7.755 0 0 1-.13-2.233 2.161 2.161 0 0 0 2.142-1.81.244.244 0 0 0 .057-.02 2.2 2.2 0 0 0 1.687.383 4.587 4.587 0 0 0-.155 3.894c1.003 2.38 3.781 3.512 6.192 2.523 2.416-.989 3.564-3.726 2.56-6.101-1.003-2.38-3.78-3.512-6.192-2.523-.01 0-.015.005-.025.01a2.11 2.11 0 0 0-.341-1.825l.025-.056a2.162 2.162 0 0 0 1.836-1.835 8.194 8.194 0 0 1 1.904.148l.58-1.387a.674.674 0 0 1 .874-.357l1.681.694a.657.657 0 0 1 .362.861l-.58 1.386a8.027 8.027 0 0 1 2.251 2.213l1.407-.576c.347-.143.74.02.88.356l.698 1.662a.657.657 0 0 1-.362.867l-1.402.576a7.871 7.871 0 0 1 0 3.13l1.407.57a.683.683 0 0 1 .378.872zM1.438 7.55l-.874-.005A.562.562 0 0 1 0 6.984l.005-.939c0-.306.254-.555.57-.555l.873.005c.135-.663.404-1.3.802-1.876l-.61-.607a.55.55 0 0 1 .005-.784l.673-.658a.57.57 0 0 1 .796.005l.616.612a5.266 5.266 0 0 1 1.914-.77l.005-.861c0-.306.254-.556.57-.556l.95.005c.311 0 .565.25.565.56l-.005.862c.672.133 1.319.398 1.903.79l.621-.606a.57.57 0 0 1 .797.005l.667.662a.55.55 0 0 1-.005.785l-.62.607c.392.581.651 1.223.78 1.886l.875.005c.31 0 .564.25.564.56l-.006.939a.562.562 0 0 1-.569.555l-.874-.005a5.067 5.067 0 0 1-.802 1.876l.616.612a.55.55 0 0 1-.005.785l-.673.657a.57.57 0 0 1-.797-.005l-.615-.612a5.264 5.264 0 0 1-1.914.77l-.005.861a.562.562 0 0 1-.57.556l-.951-.005a.562.562 0 0 1-.564-.56l.005-.862a5.223 5.223 0 0 1-1.904-.79l-.62.606a.57.57 0 0 1-.797-.005l-.667-.662a.55.55 0 0 1 .005-.785l.62-.607a5.086 5.086 0 0 1-.786-1.891zm3.42.754a2.553 2.553 0 0 0 3.574.02 2.463 2.463 0 0 0 .02-3.521 2.553 2.553 0 0 0-3.574-.02 2.459 2.459 0 0 0-.02 3.521z"/></g></g></svg>