<svg xmlns="http://www.w3.org/2000/svg" width="25" height="25" viewBox="0 0 25 25"><g><g><path fill="#fff" d="M22.012 19.512c.828.832.823 1.852-.01 2.695-.562.567-1.161 1.109-1.692 1.702-.775.87-1.744 1.15-2.857 1.088-1.62-.09-3.108-.625-4.545-1.323-3.19-1.55-5.918-3.699-8.203-6.415-1.691-2.009-3.086-4.2-4.002-6.667C.255 9.4-.063 8.178.036 6.882c.063-.797.36-1.478.948-2.034.635-.604 1.233-1.234 1.858-1.849.812-.802 1.832-.802 2.65-.005.504.495.999 1 1.498 1.5.484.489.968.967 1.453 1.456.853.859.853 1.858.005 2.711-.61.615-1.213 1.23-1.832 1.827-.162.161-.177.291-.094.49.411.978 1 1.847 1.66 2.658 1.333 1.634 2.837 3.086 4.633 4.216.385.239.812.416 1.213.635.203.115.343.077.51-.094.609-.624 1.228-1.238 1.847-1.853.812-.806 1.833-.806 2.65 0 .994.988 1.988 1.978 2.977 2.972zm-5.824-10.7a6.63 6.63 0 0 0-3.79-1.888l.271-1.931a8.541 8.541 0 0 1 4.893 2.44 8.58 8.58 0 0 1 2.4 4.632l-1.921.327a6.62 6.62 0 0 0-1.853-3.58zm8.843 2.92l-1.92.329a12.257 12.257 0 0 0-3.441-6.636 12.276 12.276 0 0 0-7.017-3.498l.271-1.93a14.158 14.158 0 0 1 8.12 4.05 14.254 14.254 0 0 1 3.987 7.685z"/></g></g></svg>