<svg xmlns="http://www.w3.org/2000/svg" width="35" height="40" viewBox="0 0 35 40"><defs><linearGradient id="rzlha" x1="17" x2="18" y1="40" y2="0" gradientUnits="userSpaceOnUse"><stop offset="0" stop-color="#ff8e00"/><stop offset="1" stop-color="#ffc523"/></linearGradient></defs><g><g><path d="M33.994 17.383v4.213c0 .328-.08.595-.41.595a.596.596 0 0 1-.596-.595v-4.401c0-.673-.55-1.22-1.225-1.22H3.623c-.934 0-1.973-.354-2.617-.934v17.404c0 .328-.173.595-.503.595S0 32.773 0 32.445V12.559v-.006a3.62 3.62 0 0 1 3.622-3.61H7.74a.596.596 0 1 1 0 1.19H3.622a2.427 2.427 0 0 0-2.428 2.417v.009a2.427 2.427 0 0 0 2.428 2.414h27.953a2.417 2.417 0 0 1 2.42 2.41zm0 14.835v5.372c0 1.329-1.085 2.41-2.419 2.41H3.622A3.62 3.62 0 0 1 0 36.39v-1.962c0-.329.173-.595.503-.595s.503.266.503.595v2.117c0 1.335 1.09 2.42 2.429 2.42h28.328c.675 0 1.225-.547 1.225-1.22v-5.527c0-.329.11-.47.44-.47s.566.141.566.47zm-.406-21.414v3.44a.596.596 0 0 1-.597.594.596.596 0 0 1-.597-.594v-3.44a.673.673 0 0 0-.674-.67h-.473a.596.596 0 1 1 0-1.19h.473c1.03 0 1.868.834 1.868 1.86zm-3.912 1.294l-1.85 1.844a.595.595 0 0 1-.845 0 .593.593 0 0 1 0-.842l1.851-1.844a1.195 1.195 0 0 0 0-1.692L20.779 1.54a1.195 1.195 0 0 0-.849-.35c-.32 0-.622.124-.849.35l-2.584 2.575a.598.598 0 0 1-.844 0 .594.594 0 0 1 0-.842L18.237.698A2.384 2.384 0 0 1 19.93 0c.64 0 1.241.248 1.693.698l8.053 8.025c.934.93.934 2.444 0 3.375zM15.124 5.483l-8.489 8.459a.595.595 0 0 1-.844 0 .594.594 0 0 1 0-.842l8.488-8.458a.599.599 0 0 1 .845 0 .593.593 0 0 1 0 .84zm10.787 7.206l-1.258 1.253a.595.595 0 0 1-.844 0 .593.593 0 0 1 0-.841l.689-.686a2.513 2.513 0 0 1-.985-2.004 2.516 2.516 0 0 1 .985-2.005L21.94 5.858a2.534 2.534 0 0 1-2.01.982h-.001a2.534 2.534 0 0 1-2.011-.981l-8.111 8.083a.598.598 0 0 1-.844 0 .594.594 0 0 1 0-.842l8.68-8.65a.598.598 0 0 1 .993.247 1.346 1.346 0 0 0 1.293.953 1.347 1.347 0 0 0 1.293-.953.598.598 0 0 1 .993-.246l3.695 3.681a.593.593 0 0 1-.247.99 1.335 1.335 0 0 0-.56.335 1.336 1.336 0 0 0-.397.954c0 .36.141.698.397.952.158.158.346.27.56.336a.596.596 0 0 1 .247.99zm-6.31 1.411a.597.597 0 0 1-.717-.444 2.947 2.947 0 0 0-.792-1.414 2.952 2.952 0 0 0-2.098-.867c-.793 0-1.538.308-2.099.867-.392.39-.665.88-.79 1.414a.597.597 0 0 1-1.163-.27A4.136 4.136 0 0 1 13.05 11.4a4.142 4.142 0 0 1 2.943-1.215c1.111 0 2.156.432 2.942 1.215.55.548.934 1.234 1.11 1.985a.595.595 0 0 1-.446.715zM35 24.498v4.818c0 1.054-.86 1.91-1.917 1.91h-5.325c-2.39 0-4.335-1.938-4.335-4.319 0-2.382 1.945-4.32 4.335-4.32h5.325c1.057 0 1.917.858 1.917 1.91zm-1.007 0a.723.723 0 0 0-.722-.72h-5.513a3.139 3.139 0 0 0-3.14 3.13 3.139 3.139 0 0 0 3.14 3.129h5.513a.722.722 0 0 0 .722-.72zm-4.226 2.41c0 1.148-.939 2.084-2.092 2.084a2.091 2.091 0 0 1-2.092-2.085 2.09 2.09 0 0 1 2.092-2.085 2.09 2.09 0 0 1 2.092 2.085zm-1.194 0a.897.897 0 0 0-1.796 0 .898.898 0 0 0 1.796 0z"/><path fill="url(#rzlha)" d="M33.994 17.383v4.213c0 .328-.08.595-.41.595a.596.596 0 0 1-.596-.595v-4.401c0-.673-.55-1.22-1.225-1.22H3.623c-.934 0-1.973-.354-2.617-.934v17.404c0 .328-.173.595-.503.595S0 32.773 0 32.445V12.559v-.006a3.62 3.62 0 0 1 3.622-3.61H7.74a.596.596 0 1 1 0 1.19H3.622a2.427 2.427 0 0 0-2.428 2.417v.009a2.427 2.427 0 0 0 2.428 2.414h27.953a2.417 2.417 0 0 1 2.42 2.41zm0 14.835v5.372c0 1.329-1.085 2.41-2.419 2.41H3.622A3.62 3.62 0 0 1 0 36.39v-1.962c0-.329.173-.595.503-.595s.503.266.503.595v2.117c0 1.335 1.09 2.42 2.429 2.42h28.328c.675 0 1.225-.547 1.225-1.22v-5.527c0-.329.11-.47.44-.47s.566.141.566.47zm-.406-21.414v3.44a.596.596 0 0 1-.597.594.596.596 0 0 1-.597-.594v-3.44a.673.673 0 0 0-.674-.67h-.473a.596.596 0 1 1 0-1.19h.473c1.03 0 1.868.834 1.868 1.86zm-3.912 1.294l-1.85 1.844a.595.595 0 0 1-.845 0 .593.593 0 0 1 0-.842l1.851-1.844a1.195 1.195 0 0 0 0-1.692L20.779 1.54a1.195 1.195 0 0 0-.849-.35c-.32 0-.622.124-.849.35l-2.584 2.575a.598.598 0 0 1-.844 0 .594.594 0 0 1 0-.842L18.237.698A2.384 2.384 0 0 1 19.93 0c.64 0 1.241.248 1.693.698l8.053 8.025c.934.93.934 2.444 0 3.375zM15.124 5.483l-8.489 8.459a.595.595 0 0 1-.844 0 .594.594 0 0 1 0-.842l8.488-8.458a.599.599 0 0 1 .845 0 .593.593 0 0 1 0 .84zm10.787 7.206l-1.258 1.253a.595.595 0 0 1-.844 0 .593.593 0 0 1 0-.841l.689-.686a2.513 2.513 0 0 1-.985-2.004 2.516 2.516 0 0 1 .985-2.005L21.94 5.858a2.534 2.534 0 0 1-2.01.982h-.001a2.534 2.534 0 0 1-2.011-.981l-8.111 8.083a.598.598 0 0 1-.844 0 .594.594 0 0 1 0-.842l8.68-8.65a.598.598 0 0 1 .993.247 1.346 1.346 0 0 0 1.293.953 1.347 1.347 0 0 0 1.293-.953.598.598 0 0 1 .993-.246l3.695 3.681a.593.593 0 0 1-.247.99 1.335 1.335 0 0 0-.56.335 1.336 1.336 0 0 0-.397.954c0 .36.141.698.397.952.158.158.346.27.56.336a.596.596 0 0 1 .247.99zm-6.31 1.411a.597.597 0 0 1-.717-.444 2.947 2.947 0 0 0-.792-1.414 2.952 2.952 0 0 0-2.098-.867c-.793 0-1.538.308-2.099.867-.392.39-.665.88-.79 1.414a.597.597 0 0 1-1.163-.27A4.136 4.136 0 0 1 13.05 11.4a4.142 4.142 0 0 1 2.943-1.215c1.111 0 2.156.432 2.942 1.215.55.548.934 1.234 1.11 1.985a.595.595 0 0 1-.446.715zM35 24.498v4.818c0 1.054-.86 1.91-1.917 1.91h-5.325c-2.39 0-4.335-1.938-4.335-4.319 0-2.382 1.945-4.32 4.335-4.32h5.325c1.057 0 1.917.858 1.917 1.91zm-1.007 0a.723.723 0 0 0-.722-.72h-5.513a3.139 3.139 0 0 0-3.14 3.13 3.139 3.139 0 0 0 3.14 3.129h5.513a.722.722 0 0 0 .722-.72zm-4.226 2.41c0 1.148-.939 2.084-2.092 2.084a2.091 2.091 0 0 1-2.092-2.085 2.09 2.09 0 0 1 2.092-2.085 2.09 2.09 0 0 1 2.092 2.085zm-1.194 0a.897.897 0 0 0-1.796 0 .898.898 0 0 0 1.796 0z"/></g></g></svg>