<svg xmlns="http://www.w3.org/2000/svg" width="40" height="40" viewBox="0 0 40 40"><defs><linearGradient id="exvaa" x1="20" x2="20" y1="40" y2="0" gradientUnits="userSpaceOnUse"><stop offset="0" stop-color="#ff8e00"/><stop offset="1" stop-color="#ffc523"/></linearGradient></defs><g><g><path d="M40 31.724C40 36.287 36.288 40 31.724 40c-4.563 0-8.276-3.713-8.276-8.276 0-4.564 3.713-8.276 8.276-8.276 4.564 0 8.276 3.712 8.276 8.276zm-1.38 0a6.904 6.904 0 0 0-6.896-6.897 6.904 6.904 0 0 0-6.896 6.897 6.904 6.904 0 0 0 6.896 6.896 6.904 6.904 0 0 0 6.897-6.896zm-2.068.75c0 .38-.309.502-.69.502h-4.17a.69.69 0 0 1-.689-.69v-4.7c0-.381.12-.69.502-.69s.503.309.503.69v4.385h3.854c.381 0 .69.121.69.503zm-6.549-18.46v7.992H17.996v12.977H5.015v-20.97zm-5.988 6.957h4.984v-5.985h-4.984zm-12.008 0h4.984v-5.985h-4.984zm-6.019 0h5.015v-5.985H5.988zm0 5.988h5.015v-4.953H5.988zm5.015 1.035H5.988v6.015h5.015zm5.988 0h-4.984v6.015h4.984zm0-5.988h-4.984v4.953h4.984zm6.02-7.02h-5.015v5.985h5.015zm.437 23.446c0 .381-.308.565-.69.565H.69a.69.69 0 0 1-.69-.69V3.667c0-.382.308-.69.69-.69h3.323V.689c0-.38.308-.689.69-.689H9.31c.382 0 .69.308.69.69v2.287h15.954V.689c0-.38.308-.689.69-.689h4.67c.382 0 .69.308.69.69v2.287h3.292c.382 0 .69.308.69.69V20c0 .38-.027.69-.408.69-.382 0-.565-.31-.565-.69V10.97H1.004v26.99H22.76c.381 0 .69.09.69.471zM26.99 5.954h4.011v-4.95h-4.01zm-22.004 0h3.98v-4.95h-3.98zM1.004 9.967h34.01V4.012h-3.009V6.27a.69.69 0 0 1-.69.69h-4.67a.69.69 0 0 1-.69-.69V4.012H10V6.3a.69.69 0 0 1-.69.69H4.702a.69.69 0 0 1-.69-.69V4.012H1.005z"/><path fill="url(#exvaa)" d="M40 31.724C40 36.287 36.288 40 31.724 40c-4.563 0-8.276-3.713-8.276-8.276 0-4.564 3.713-8.276 8.276-8.276 4.564 0 8.276 3.712 8.276 8.276zm-1.38 0a6.904 6.904 0 0 0-6.896-6.897 6.904 6.904 0 0 0-6.896 6.897 6.904 6.904 0 0 0 6.896 6.896 6.904 6.904 0 0 0 6.897-6.896zm-2.068.75c0 .38-.309.502-.69.502h-4.17a.69.69 0 0 1-.689-.69v-4.7c0-.381.12-.69.502-.69s.503.309.503.69v4.385h3.854c.381 0 .69.121.69.503zm-6.549-18.46v7.992H17.996v12.977H5.015v-20.97zm-5.988 6.957h4.984v-5.985h-4.984zm-12.008 0h4.984v-5.985h-4.984zm-6.019 0h5.015v-5.985H5.988zm0 5.988h5.015v-4.953H5.988zm5.015 1.035H5.988v6.015h5.015zm5.988 0h-4.984v6.015h4.984zm0-5.988h-4.984v4.953h4.984zm6.02-7.02h-5.015v5.985h5.015zm.437 23.446c0 .381-.308.565-.69.565H.69a.69.69 0 0 1-.69-.69V3.667c0-.382.308-.69.69-.69h3.323V.689c0-.38.308-.689.69-.689H9.31c.382 0 .69.308.69.69v2.287h15.954V.689c0-.38.308-.689.69-.689h4.67c.382 0 .69.308.69.69v2.287h3.292c.382 0 .69.308.69.69V20c0 .38-.027.69-.408.69-.382 0-.565-.31-.565-.69V10.97H1.004v26.99H22.76c.381 0 .69.09.69.471zM26.99 5.954h4.011v-4.95h-4.01zm-22.004 0h3.98v-4.95h-3.98zM1.004 9.967h34.01V4.012h-3.009V6.27a.69.69 0 0 1-.69.69h-4.67a.69.69 0 0 1-.69-.69V4.012H10V6.3a.69.69 0 0 1-.69.69H4.702a.69.69 0 0 1-.69-.69V4.012H1.005z"/></g></g></svg>