<svg xmlns="http://www.w3.org/2000/svg" width="50" height="50" viewBox="0 0 50 50"><g><g><path fill="#fff" d="M36.526 23.608a11.57 11.57 0 0 1-3.451 9.726 8.938 8.938 0 0 0-2.718 6.389v1.348H19.643v-1.342a9.142 9.142 0 0 0-2.818-6.494 11.606 11.606 0 0 1 8.159-19.843c.46 0 .92.025 1.379.078a11.637 11.637 0 0 1 10.163 10.138zM22.474 48.214h5.052A2.683 2.683 0 0 1 25 49.999a2.683 2.683 0 0 1-2.526-1.785zm-1.938-5.358h8.928v2.68c0 .492-.4.892-.893.892H21.43a.894.894 0 0 1-.893-.893zM23.214 6.25V1.785a1.785 1.785 0 0 1 3.572 0V6.25a1.786 1.786 0 0 1-3.572 0zM6.774 9.298a1.785 1.785 0 1 1 2.524-2.525l3.157 3.156a1.786 1.786 0 0 1 0 2.525 1.829 1.829 0 0 1-2.525 0zM6.25 26.785H1.786A1.788 1.788 0 0 1 0 25c0-.986.8-1.785 1.786-1.787H6.25a1.786 1.786 0 0 1 0 3.572zm6.67 11.559a1.785 1.785 0 0 1-.465 1.726l-3.157 3.157a1.828 1.828 0 0 1-2.525 0 1.786 1.786 0 0 1 0-2.526l3.157-3.157a1.788 1.788 0 0 1 2.99.8zM43.227 40.7a1.783 1.783 0 0 1 0 2.526 1.828 1.828 0 0 1-2.525 0l-3.157-3.157a1.786 1.786 0 1 1 2.525-2.526zM50 25c0 .985-.8 1.785-1.786 1.785H43.75a1.786 1.786 0 0 1 0-3.572h4.464c.986 0 1.786.8 1.786 1.787zM37.545 12.454a1.786 1.786 0 0 1 0-2.525L40.7 6.773a1.785 1.785 0 1 1 2.526 2.525l-3.157 3.157a1.829 1.829 0 0 1-2.525 0z"/></g></g></svg>