<svg xmlns="http://www.w3.org/2000/svg" width="60" height="50" viewBox="0 0 60 50"><g><g><path fill="#8fd4ef" d="M15-.003c8.284 0 15 6.716 15 15.002 0 8.282-6.716 14.998-15 14.998-8.285 0-15-6.716-15-14.998C0 6.713 6.715-.003 15-.003z"/></g><g><path fill="#565574" d="M49.552 6.797a.86.86 0 0 1-1.206.18 22.211 22.211 0 0 0-13.312-4.391c-5.025 0-9.988 1.63-13.276 4.362a.862.862 0 0 1-1.413-.663V.86a.863.863 0 0 1 1.724 0v3.71C25.577 2.227 30.289.86 35.034.86a23.924 23.924 0 0 1 14.34 4.73.861.861 0 0 1 .178 1.206zm9.586 5.272h-3.709c2.343 3.508 3.709 8.22 3.709 12.965 0 5.202-1.636 10.16-4.73 14.34a.864.864 0 0 1-1.207.178.861.861 0 0 1-.18-1.205 22.212 22.212 0 0 0 4.393-13.313c0-5.026-1.631-9.988-4.362-13.276a.862.862 0 0 1 .663-1.414h5.423a.863.863 0 0 1 0 1.725zm-9.483 31.646v5.422a.862.862 0 0 1-1.724 0v-3.709c-3.508 2.343-8.22 3.71-12.965 3.71a23.925 23.925 0 0 1-14.34-4.73.862.862 0 1 1 1.027-1.386 22.212 22.212 0 0 0 13.314 4.392c5.025 0 9.988-1.631 13.275-4.363a.862.862 0 0 1 1.413.664zm-32.59-4.556a.86.86 0 0 1-.78.496h-5.423a.863.863 0 0 1 0-1.724h3.709c-2.343-3.508-3.709-8.221-3.709-12.965a23.925 23.925 0 0 1 4.73-14.34.862.862 0 1 1 1.386 1.026 22.215 22.215 0 0 0-4.393 13.314c0 5.025 1.631 9.988 4.362 13.275.214.257.26.615.118.918zm32.589-15.883v3.449a.863.863 0 0 1-.863.862h-1.664c-.378 0-.71.234-.809.572-.314 1.069-.626 1.88-.952 2.48a.837.837 0 0 0 .162.982l1.179 1.178a.862.862 0 0 1 0 1.219l-2.69 2.69a.86.86 0 0 1-1.22 0l-1.178-1.177c-.266-.266-.67-.334-.983-.163-.597.326-1.408.637-2.478.953-.338.099-.574.431-.574.809v1.663a.86.86 0 0 1-.86.861h-3.448a.862.862 0 0 1-.862-.861v-1.665c0-.378-.236-.71-.573-.809-1.07-.315-1.882-.627-2.479-.954-.311-.168-.715-.102-.982.165l-1.178 1.177a.86.86 0 0 1-1.22 0l-2.69-2.69a.862.862 0 0 1 0-1.22l1.179-1.178a.837.837 0 0 0 .163-.982c-.327-.6-.638-1.412-.953-2.48-.1-.337-.432-.572-.809-.572h-1.665a.863.863 0 0 1-.862-.862v-3.449c0-.476.386-.862.862-.862h1.664c.378 0 .71-.235.81-.573.314-1.069.625-1.88.952-2.479.17-.312.102-.716-.163-.982l-1.179-1.179a.861.861 0 0 1 0-1.219l2.69-2.69a.862.862 0 0 1 1.22 0l1.177 1.178c.267.266.67.333.983.162.597-.325 1.409-.637 2.479-.952.337-.1.572-.432.572-.81v-1.662c0-.476.386-.862.862-.862h3.448c.476 0 .862.386.862.862v1.665c0 .378.236.709.573.809 1.07.315 1.882.627 2.48.953.312.17.715.102.982-.164l1.178-1.178a.862.862 0 0 1 1.22 0l2.69 2.691a.861.861 0 0 1 0 1.219l-1.179 1.179c-.266.266-.333.67-.162.982.326.599.638 1.41.952 2.48.1.337.431.572.809.572h1.664c.476 0 .862.386.863.862zm-1.722.86h-.803c-1.136 0-2.149-.744-2.463-1.809-.279-.95-.544-1.65-.813-2.142-.533-.979-.344-2.224.46-3.026l.567-.57-1.471-1.471-.57.569c-.802.803-2.047.991-3.025.458-.49-.267-1.19-.533-2.142-.814-1.065-.313-1.81-1.326-1.81-2.463v-.8H34.14v.803c0 1.136-.744 2.149-1.81 2.462-.951.28-1.652.547-2.141.813-.98.535-2.224.345-3.027-.458l-.568-.568-1.472 1.471.57.57c.802.802.99 2.047.458 3.025-.268.492-.534 1.192-.813 2.142-.313 1.065-1.327 1.809-2.463 1.809h-.802v1.724h.802c1.136 0 2.15.744 2.463 1.81.28.95.546 1.65.813 2.141.534.98.345 2.224-.458 3.026l-.569.57 1.472 1.471.568-.568c.803-.803 2.047-.991 3.026-.458.49.267 1.19.533 2.142.813 1.065.313 1.81 1.326 1.81 2.463v.802h1.722v-.803c0-1.137.744-2.15 1.81-2.463.951-.28 1.652-.546 2.142-.813.98-.534 2.223-.345 3.027.458l.568.569 1.471-1.472-.568-.57c-.803-.803-.991-2.046-.458-3.026.268-.49.533-1.192.812-2.141.314-1.066 1.327-1.81 2.463-1.81h.803zM41.896 25A6.905 6.905 0 0 1 35 31.896 6.905 6.905 0 0 1 28.103 25 6.905 6.905 0 0 1 35 18.102 6.905 6.905 0 0 1 41.896 25zm-1.724 0A5.178 5.178 0 0 0 35 19.827a5.178 5.178 0 0 0-5.172 5.172A5.178 5.178 0 0 0 35 30.171 5.177 5.177 0 0 0 40.172 25z"/></g></g></svg>