<svg xmlns="http://www.w3.org/2000/svg" width="60" height="50" viewBox="0 0 60 50"><g><g><path fill="#8fd4ef" d="M45 19.996c8.284 0 15 6.718 15 15.002 0 8.283-6.716 15-15 15-8.284 0-15-6.717-15-15 0-8.284 6.716-15.002 15-15.002z"/></g><g><path fill="#565574" d="M28.93 48.906a.79.79 0 0 1-.682.885l-.072.009a.79.79 0 0 1-.196-1.567l.066-.008a.79.79 0 0 1 .884.681zm-2.832.292a.79.79 0 0 1-.78.8h-.312c-6.68 0-12.959-2.599-17.682-7.321A24.832 24.832 0 0 1 0 24.999C0 18.322 2.6 12.043 7.324 7.322 12.047 2.6 18.327-.001 25.006-.001c6.68 0 12.959 2.6 17.682 7.323 4.723 4.721 7.324 11 7.324 17.677a24.76 24.76 0 0 1-2.481 10.87.79.79 0 1 1-1.422-.687 23.193 23.193 0 0 0 2.324-10.183c0-12.915-10.51-23.421-23.427-23.421-12.918 0-23.427 10.506-23.427 23.421s10.51 23.422 23.427 23.422c.098 0 .195 0 .293-.003h.01a.79.79 0 0 1 .79.78zM44.221 25c0-1.219-.992-2.21-2.211-2.21h-1.283a.789.789 0 0 1-.775-.643 15.04 15.04 0 0 0-2.36-5.695.79.79 0 0 1 .094-1.003l.907-.906a2.212 2.212 0 0 0 0-3.126 2.213 2.213 0 0 0-3.127 0l-.907.906a.79.79 0 0 1-1.003.095 15.046 15.046 0 0 0-5.697-2.36.79.79 0 0 1-.642-.776V8c0-1.218-.992-2.21-2.211-2.21-1.22 0-2.211.992-2.211 2.21v1.282c0 .379-.27.705-.643.775a15.048 15.048 0 0 0-5.696 2.36.79.79 0 0 1-1.003-.094l-.907-.907a2.213 2.213 0 0 0-3.775 1.563c0 .59.23 1.146.648 1.563l.907.907c.268.268.308.69.094 1.002a15.05 15.05 0 0 0-2.36 5.696.79.79 0 0 1-.776.643H8.002c-1.22 0-2.211.99-2.211 2.21 0 1.219.992 2.21 2.21 2.21h1.283c.38 0 .705.27.776.643a15.04 15.04 0 0 0 2.36 5.695.789.789 0 0 1-.094 1.002l-.907.907a2.196 2.196 0 0 0-.648 1.564 2.213 2.213 0 0 0 3.774 1.563l.908-.907a.789.789 0 0 1 1.003-.094 15.057 15.057 0 0 0 5.696 2.36.79.79 0 0 1 .643.775v1.282c0 1.218.992 2.21 2.21 2.21 1.22 0 2.212-.992 2.212-2.21v-1.282c0-.38.27-.705.643-.776a15.14 15.14 0 0 0 2.15-.575.79.79 0 0 1 .52 1.492c-.566.197-1.147.364-1.734.5v.641c0 2.09-1.7 3.79-3.79 3.79s-3.79-1.7-3.79-3.79v-.64a16.613 16.613 0 0 1-5.1-2.113l-.454.454a3.795 3.795 0 0 1-5.36 0 3.765 3.765 0 0 1-1.11-2.68c0-1.012.394-1.964 1.11-2.68l.454-.453a16.576 16.576 0 0 1-2.113-5.098h-.641c-2.09 0-3.79-1.7-3.79-3.79s1.7-3.789 3.79-3.789h.641a16.576 16.576 0 0 1 2.113-5.098l-.454-.454a3.766 3.766 0 0 1-1.11-2.68c0-1.012.394-1.964 1.11-2.68a3.795 3.795 0 0 1 5.36 0l.455.455a16.58 16.58 0 0 1 5.099-2.113V8c0-2.09 1.7-3.79 3.79-3.79s3.79 1.7 3.79 3.79v.64a16.583 16.583 0 0 1 5.1 2.113l.454-.454a3.796 3.796 0 0 1 5.36 0 3.793 3.793 0 0 1 0 5.359l-.454.454a16.582 16.582 0 0 1 2.113 5.098h.641c2.09 0 3.79 1.7 3.79 3.789 0 2.09-1.7 3.79-3.79 3.79h-.641a16.738 16.738 0 0 1-.5 1.733.79.79 0 0 1-1.492-.52 15.11 15.11 0 0 0 .575-2.15.79.79 0 0 1 .776-.643h1.282c1.22 0 2.211-.99 2.211-2.21zM32.137 48.157a.79.79 0 0 1-.555.969l-.088.023a.79.79 0 0 1-.41-1.525l.083-.022a.79.79 0 0 1 .97.555zm17.028-6.076a2.898 2.898 0 0 1-.001 4.094l-2.978 2.976a2.885 2.885 0 0 1-2.047.847 2.885 2.885 0 0 1-2.048-.847L33 40.04a2.877 2.877 0 0 1-.847-2.047c0-.503.127-.985.366-1.412l-1.444-1.444a11.767 11.767 0 0 1-6.078 1.673 11.77 11.77 0 0 1-8.375-3.469 11.763 11.763 0 0 1-3.47-8.374c0-3.163 1.233-6.137 3.47-8.374 4.618-4.616 12.133-4.616 16.751 0 3.913 3.912 4.51 9.902 1.794 14.448l1.447 1.447c.427-.24.91-.367 1.412-.367.774 0 1.5.301 2.048.848zm-16.91-9.857a10.27 10.27 0 0 0 1.256-1.521c2.69-3.99 2.272-9.466-1.256-12.994-2-2-4.63-3-7.258-3-2.63 0-5.258 1-7.26 3a10.197 10.197 0 0 0-3.006 7.257c0 2.741 1.068 5.319 3.007 7.257a10.2 10.2 0 0 0 7.259 3.006 10.191 10.191 0 0 0 7.259-3.005zm1.303 3.163l1.862-1.861-1.169-1.168a11.836 11.836 0 0 1-1.86 1.862zm14.49 7.81l-9.093-9.114a1.309 1.309 0 0 0-.93-.384c-.351 0-.682.137-.93.385l-2.978 2.978a1.306 1.306 0 0 0-.386.93c0 .352.137.682.386.93l9.092 9.113a1.317 1.317 0 0 0 1.86 0l2.978-2.978a1.316 1.316 0 0 0 0-1.86zm-17.281-24c3.181 3.182 3.181 8.357 0 11.538a8.134 8.134 0 0 1-5.77 2.386c-2.09 0-4.18-.795-5.77-2.386-3.182-3.181-3.182-8.356 0-11.537 3.181-3.18 8.358-3.18 11.54 0zm-1.117 1.118a6.589 6.589 0 0 0-9.307 0 6.585 6.585 0 0 0 0 9.304 6.56 6.56 0 0 0 4.654 1.923c1.685 0 3.37-.64 4.653-1.923a6.585 6.585 0 0 0 0-9.304zm6.596 26.15a.79.79 0 0 1-.367 1.054l-.08.038a.79.79 0 0 1-.683-1.424l.075-.035a.79.79 0 0 1 1.054.367z"/></g></g></svg>