<svg xmlns="http://www.w3.org/2000/svg" width="60" height="50" viewBox="0 0 60 50"><g><g><path fill="#8fd4ef" d="M45-.004c8.284 0 15 6.717 15 15.003 0 8.282-6.716 14.998-15 14.998-8.285 0-15-6.716-15-14.998C30 6.713 36.715-.004 45-.004z"/></g><g><path fill="#565574" d="M50 20.046v2.539c0 1.26-.898 2.356-2.135 2.603l-4.186.838a15.613 15.613 0 0 1-1.061 2.56l2.368 3.553c.7 1.05.56 2.46-.332 3.351l-1.795 1.795a2.654 2.654 0 0 1-1.88.775 2.64 2.64 0 0 1-1.47-.444l-3.949-2.632a.79.79 0 1 1 .876-1.313l3.948 2.632a1.08 1.08 0 0 0 1.359-.134l1.795-1.796a1.08 1.08 0 0 0 .134-1.358l-2.632-3.949a.789.789 0 0 1-.031-.825c.552-.98.985-2.026 1.288-3.11a.792.792 0 0 1 .606-.56l4.653-.931c.501-.1.865-.545.865-1.056v-2.539c0-.51-.364-.954-.865-1.055l-4.653-.93a.792.792 0 0 1-.606-.562 14.069 14.069 0 0 0-1.288-3.11.788.788 0 0 1 .031-.824l2.632-3.949a1.08 1.08 0 0 0-.134-1.359l-1.795-1.795a1.079 1.079 0 0 0-1.359-.134l-3.948 2.632a.792.792 0 0 1-.826.032 14.02 14.02 0 0 0-3.109-1.289.79.79 0 0 1-.561-.605l-.931-4.653a1.08 1.08 0 0 0-1.056-.865h-2.538a1.08 1.08 0 0 0-1.056.865l-.93 4.653a.79.79 0 0 1-.562.605c-1.084.303-2.13.737-3.11 1.289a.792.792 0 0 1-.825-.032l-3.948-2.632a1.079 1.079 0 0 0-1.358.134L13.83 8.256a1.08 1.08 0 0 0-.135 1.36l2.632 3.948a.79.79 0 0 1 .031.825c-.551.98-.985 2.025-1.288 3.11a.792.792 0 0 1-.606.561l-4.652.93a1.08 1.08 0 0 0-.866 1.055v2.54c0 .51.364.954.866 1.054l2.71.543a.79.79 0 0 1-.31 1.548l-2.71-.542a2.663 2.663 0 0 1-2.135-2.604v-2.539c0-1.26.898-2.356 2.135-2.604l4.186-.837c.278-.883.633-1.741 1.062-2.561l-2.369-3.552c-.7-1.05-.56-2.46.332-3.351l1.795-1.795a2.663 2.663 0 0 1 3.35-.332l3.553 2.368c.82-.428 1.678-.784 2.562-1.06l.837-4.187a2.663 2.663 0 0 1 2.604-2.135h2.538c1.262 0 2.357.898 2.604 2.135l.837 4.187c.884.276 1.742.632 2.562 1.06l3.552-2.368c1.05-.7 2.46-.56 3.351.332l1.795 1.795a2.663 2.663 0 0 1 .332 3.35l-2.369 3.553c.429.82.784 1.678 1.062 2.561l4.186.837A2.664 2.664 0 0 1 50 20.046zM34.21 30.262v1.053a2.89 2.89 0 0 1-.91 2.106c.56.528.91 1.276.91 2.105v1.052c0 .829-.35 1.578-.91 2.105.56.529.91 1.278.91 2.106v1.052c0 .829-.35 1.577-.91 2.106.56.528.91 1.276.91 2.105v1.052A2.897 2.897 0 0 1 31.316 50H17.015a4.356 4.356 0 0 1-3.092-1.276 2.807 2.807 0 0 0-1.99-.829H10v.263a1.844 1.844 0 0 1-1.842 1.842H1.842A1.844 1.844 0 0 1 0 48.157V30.262c0-1.015.826-1.842 1.842-1.842h6.316c1.015 0 1.842.826 1.842 1.842v.263h1.903c.567 0 1.069-.361 1.248-.9l.294-.881a25.11 25.11 0 0 0 1.291-7.956 2.898 2.898 0 0 1 2.895-2.894c1.055 0 2.046.41 2.792 1.156a3.92 3.92 0 0 1 1.156 2.792v8.42a.79.79 0 1 1-1.58 0v-8.42c0-.633-.245-1.228-.693-1.675a2.352 2.352 0 0 0-1.675-.694c-.725 0-1.315.59-1.315 1.316a26.68 26.68 0 0 1-1.373 8.454l-.293.882a2.89 2.89 0 0 1-2.747 1.98H10v2.368a.79.79 0 0 1-1.579 0v-4.21A.263.263 0 0 0 8.158 30H1.842a.263.263 0 0 0-.263.262v17.895c0 .145.118.264.263.264H4.21V37.63a.789.789 0 1 1 1.58 0v10.79h2.368a.264.264 0 0 0 .263-.264V37.63a.79.79 0 1 1 1.579 0v8.684h1.932c1.167 0 2.27.458 3.105 1.289.529.527 1.231.817 1.978.817h14.3c.726 0 1.316-.59 1.316-1.317v-1.052c0-.726-.59-1.316-1.315-1.316h-7.369a.79.79 0 1 1 0-1.579h7.369c.725 0 1.315-.59 1.315-1.316V40.79c0-.726-.59-1.316-1.315-1.316h-7.369a.79.79 0 1 1 0-1.58h7.369c.725 0 1.315-.59 1.315-1.315v-1.053c0-.725-.59-1.315-1.315-1.315h-7.369a.79.79 0 1 1 0-1.58h7.369c.725 0 1.315-.59 1.315-1.315v-1.053c0-.725-.59-1.315-1.315-1.315h-7.369a.79.79 0 1 1 0-1.58h7.369a2.898 2.898 0 0 1 2.894 2.895zm-9.53-8.322a4.057 4.057 0 0 1 3.38-4.629 4.057 4.057 0 0 1 4.628 3.38 4.056 4.056 0 0 1-4.006 4.677 4.06 4.06 0 0 1-4.002-3.428zm1.56-.244a2.477 2.477 0 0 0 2.826 2.063 2.476 2.476 0 0 0 2.062-2.825 2.477 2.477 0 0 0-2.825-2.063 2.476 2.476 0 0 0-2.063 2.825zm9.037 7.032a.79.79 0 0 1-.024-1.116 9.039 9.039 0 0 0 2.42-7.7 9.004 9.004 0 0 0-1.61-3.924.79.79 0 0 1 1.279-.925 10.569 10.569 0 0 1 1.892 4.605 10.606 10.606 0 0 1-2.84 9.035.787.787 0 0 1-1.117.025zM34.162 14.05a9.027 9.027 0 0 0-6.881-1.726 9.043 9.043 0 0 0-6.584 4.632.79.79 0 1 1-1.386-.758 10.608 10.608 0 0 1 7.726-5.434c2.88-.45 5.748.27 8.076 2.025a.79.79 0 1 1-.95 1.26z"/></g></g></svg>