<svg xmlns="http://www.w3.org/2000/svg" width="100" height="100" viewBox="0 0 100 100"><defs><clipPath id="95lea"><path fill="#fff" d="M50 0c27.614 0 50 22.385 50 50 0 27.614-22.386 50-50 50S0 77.613 0 50C0 22.385 22.386 0 50 0z"/></clipPath><linearGradient id="95leb" x1="50" x2="50" y1="75" y2="26" gradientUnits="userSpaceOnUse"><stop offset="0" stop-color="#f74f6f"/><stop offset="1" stop-color="#ff795f"/></linearGradient></defs><g><g><path fill="#484846" d="M50 0c27.614 0 50 22.385 50 50 0 27.614-22.386 50-50 50S0 77.613 0 50C0 22.385 22.386 0 50 0z"/><path fill="none" stroke="#000001" stroke-linecap="round" stroke-linejoin="round" stroke-miterlimit="50" stroke-width="2" d="M50 0c27.614 0 50 22.385 50 50 0 27.614-22.386 50-50 50S0 77.613 0 50C0 22.385 22.386 0 50 0z" clip-path="url(&quot;#95lea&quot;)"/></g><g><path d="M66.752 46.044c0 3.276-2.131 6.063-5.08 7.052v9.74H52.66V59.69l-8.341-1.922v3.383h3.091v6.048H44.32V75H33.356l-3.898-23.908A4.951 4.951 0 0 1 25 46.172v-.258a4.95 4.95 0 0 1 4.946-4.944h3.302v-4.098l19.413-4.475V29.25h9.01v9.74c2.95.99 5.081 3.777 5.081 7.054zM44.32 65.756h1.649v-3.164h-1.65zm-14.374-16.08h3.302v-7.264h-3.302a3.507 3.507 0 0 0-3.504 3.502v.259a3.507 3.507 0 0 0 3.504 3.502zm12.931 23.882V57.435l-9.63-2.22v-4.098h-2.324l3.659 22.44zm9.63-39.646L34.69 38.02v16.049l17.817 4.107zm7.722-3.22h-6.126v30.703h6.126zm5.08 15.352c0-2.47-1.5-4.594-3.637-5.513v11.025a6.006 6.006 0 0 0 3.638-5.512zm-6.115-14.317v8.29h-1.442v-6.849H55.86v-1.441zm-1.442 10.116h1.442v1.296h-1.442zM39.817 37.9l1.691-.39.324 1.405-1.69.39zm11.655-2.687v4.468H50.03v-2.656l-6.264 1.443-.324-1.404zm-19.26 8.234v2.476H30.77v-1.035h-.695a1.16 1.16 0 0 0-1.05.674l-1.31-.604a2.607 2.607 0 0 1 2.36-1.511zm9.63 21.071v8.005h-3.418v-1.441H40.4v-6.564zm-1.442-3.46h1.442v1.51H40.4zm30.243-14.92c0 3.546-1.538 6.914-4.22 9.241l-.945-1.088a10.793 10.793 0 0 0 3.722-8.153c0-3.127-1.357-6.098-3.722-8.152l.946-1.088a12.233 12.233 0 0 1 4.219 9.24zm4.357 0c0 3.376-1.008 6.624-2.916 9.395a16.586 16.586 0 0 1-7.488 6.002l-.54-1.337a15.088 15.088 0 0 0 9.502-14.06c0-6.217-3.73-11.735-9.501-14.057l.539-1.338a16.588 16.588 0 0 1 7.488 6.002A16.492 16.492 0 0 1 75 46.139zm-6.418 17.588h1.442v1.585h-1.442zm3.49-34.547h1.441v1.585h-1.442zm-6.762-3.18h1.442v1.586H65.31zM67.215 72h1.443v1.585h-1.443zm-9.36-4.633h1.443v1.585h-1.442z"/><path fill="url(#95leb)" d="M66.752 46.044c0 3.276-2.131 6.063-5.08 7.052v9.74H52.66V59.69l-8.341-1.922v3.383h3.091v6.048H44.32V75H33.356l-3.898-23.908A4.951 4.951 0 0 1 25 46.172v-.258a4.95 4.95 0 0 1 4.946-4.944h3.302v-4.098l19.413-4.475V29.25h9.01v9.74c2.95.99 5.081 3.777 5.081 7.054zM44.32 65.756h1.649v-3.164h-1.65zm-14.374-16.08h3.302v-7.264h-3.302a3.507 3.507 0 0 0-3.504 3.502v.259a3.507 3.507 0 0 0 3.504 3.502zm12.931 23.882V57.435l-9.63-2.22v-4.098h-2.324l3.659 22.44zm9.63-39.646L34.69 38.02v16.049l17.817 4.107zm7.722-3.22h-6.126v30.703h6.126zm5.08 15.352c0-2.47-1.5-4.594-3.637-5.513v11.025a6.006 6.006 0 0 0 3.638-5.512zm-6.115-14.317v8.29h-1.442v-6.849H55.86v-1.441zm-1.442 10.116h1.442v1.296h-1.442zM39.817 37.9l1.691-.39.324 1.405-1.69.39zm11.655-2.687v4.468H50.03v-2.656l-6.264 1.443-.324-1.404zm-19.26 8.234v2.476H30.77v-1.035h-.695a1.16 1.16 0 0 0-1.05.674l-1.31-.604a2.607 2.607 0 0 1 2.36-1.511zm9.63 21.071v8.005h-3.418v-1.441H40.4v-6.564zm-1.442-3.46h1.442v1.51H40.4zm30.243-14.92c0 3.546-1.538 6.914-4.22 9.241l-.945-1.088a10.793 10.793 0 0 0 3.722-8.153c0-3.127-1.357-6.098-3.722-8.152l.946-1.088a12.233 12.233 0 0 1 4.219 9.24zm4.357 0c0 3.376-1.008 6.624-2.916 9.395a16.586 16.586 0 0 1-7.488 6.002l-.54-1.337a15.088 15.088 0 0 0 9.502-14.06c0-6.217-3.73-11.735-9.501-14.057l.539-1.338a16.588 16.588 0 0 1 7.488 6.002A16.492 16.492 0 0 1 75 46.139zm-6.418 17.588h1.442v1.585h-1.442zm3.49-34.547h1.441v1.585h-1.442zm-6.762-3.18h1.442v1.586H65.31zM67.215 72h1.443v1.585h-1.443zm-9.36-4.633h1.443v1.585h-1.442z"/></g></g></svg>