<svg xmlns="http://www.w3.org/2000/svg" width="100" height="100" viewBox="0 0 100 100"><defs><clipPath id="iz1oa"><path fill="#fff" d="M50 0c27.614 0 50 22.385 50 50 0 27.614-22.386 50-50 50S0 77.613 0 50C0 22.384 22.386 0 50 0z"/></clipPath><linearGradient id="iz1ob" x1="50" x2="50.97" y1="75" y2="25" gradientUnits="userSpaceOnUse"><stop offset="0" stop-color="#9a66ff"/><stop offset="1" stop-color="#e567e6"/></linearGradient></defs><g><g><path fill="none" stroke="#000001" stroke-linecap="round" stroke-linejoin="round" stroke-miterlimit="50" stroke-width="2" d="M50 0c27.614 0 50 22.385 50 50 0 27.614-22.386 50-50 50S0 77.613 0 50C0 22.384 22.386 0 50 0z" clip-path="url(&quot;#iz1oa&quot;)"/></g><g><path d="M62.215 65.603a2.81 2.81 0 0 1 .91 2.072v.308a2.815 2.815 0 0 1-2.81 2.814h-.477a4.947 4.947 0 0 1-4.88 4.202 4.947 4.947 0 0 1-4.881-4.202h-.478a2.815 2.815 0 0 1-2.809-2.814v-.308c0-.819.351-1.557.91-2.072a2.808 2.808 0 0 1-.91-2.07v-.31c0-.907.432-1.716 1.101-2.23l-.102-.098a3.397 3.397 0 0 1-.999-2.416c0-.836-.41-1.603-1.1-2.05a17.04 17.04 0 0 1-7.787-14.38c.005-2.25.445-4.44 1.31-6.51a.742.742 0 1 1 1.367.573 15.427 15.427 0 0 0-1.194 5.94 15.561 15.561 0 0 0 7.111 13.13 3.911 3.911 0 0 1 1.776 3.297c0 .516.2 1 .565 1.366.362.362.842.562 1.354.565h4.024V46.654a3.816 3.816 0 0 1-3.064-3.739 3.816 3.816 0 0 1 3.064-3.739V26.502c-5.119.24-9.765 2.983-12.504 7.41a.74.74 0 1 1-1.26-.783 17.296 17.296 0 0 1 5.987-5.83A16.955 16.955 0 0 1 54.709 25h.013l.235-.001c.41 0 .742.332.742.742v13.434a3.816 3.816 0 0 1 3.064 3.74 3.816 3.816 0 0 1-3.064 3.737V60.41h4.617a2.814 2.814 0 0 1 2.81 2.814v.308c0 .819-.352 1.557-.911 2.071zM55.699 45.12a2.33 2.33 0 0 0 1.581-2.204A2.33 2.33 0 0 0 55.7 40.71zm-1.483-4.409a2.33 2.33 0 0 0-1.581 2.204 2.33 2.33 0 0 0 1.581 2.205zm4.115 30.087h-6.746a3.46 3.46 0 0 0 3.373 2.718 3.46 3.46 0 0 0 3.373-2.718zm3.312-7.265v-.308a1.33 1.33 0 0 0-1.327-1.33h-5.349l-.01.002h-4.755l-.02-.001H49.6a1.33 1.33 0 0 0-1.327 1.329v.308A1.33 1.33 0 0 0 49.6 64.86h6.498a.742.742 0 0 1 0 1.485H49.6a1.33 1.33 0 0 0-1.327 1.329v.308c0 .733.595 1.329 1.327 1.329h10.716a1.33 1.33 0 0 0 1.327-1.33v-.307a1.33 1.33 0 0 0-1.327-1.33H58.57a.742.742 0 0 1 0-1.484h1.747a1.33 1.33 0 0 0 1.327-1.33zM72 39.394v7.042c0 .36-.257.667-.61.731l-4.017.725a13.355 13.355 0 0 1-1.907 3.302l1.384 3.851a.743.743 0 0 1-.327.895l-6.09 3.521a.738.738 0 0 1-.936-.164l-2.905-3.444a.744.744 0 0 1 .088-1.046.74.74 0 0 1 1.045.088l2.504 2.97 5.016-2.901-1.316-3.661a.744.744 0 0 1 .13-.73 11.884 11.884 0 0 0 2.074-3.592.742.742 0 0 1 .565-.477l3.82-.688v-5.801l-3.82-.689a.741.741 0 0 1-.565-.477 11.866 11.866 0 0 0-2.074-3.591.743.743 0 0 1-.13-.73l1.316-3.662-5.015-2.9-2.505 2.97a.74.74 0 0 1-1.045.088.743.743 0 0 1-.088-1.046l2.905-3.445a.74.74 0 0 1 .937-.164l6.09 3.521c.31.18.448.556.326.895l-1.384 3.852a13.322 13.322 0 0 1 1.907 3.302l4.017.724c.353.063.61.371.61.73zm-9.627 3.521a7.436 7.436 0 0 1-4.97 7.015.744.744 0 0 1-.944-.456.743.743 0 0 1 .455-.946 5.949 5.949 0 0 0 0-11.225.743.743 0 0 1 .49-1.403 7.435 7.435 0 0 1 4.97 7.015zm-26.482-3.799a.742.742 0 0 1-.872.584l-5.454-1.087a.742.742 0 0 1 .289-1.457l5.454 1.087c.402.08.663.471.583.873zm4.448-9.043a.74.74 0 0 1-1.046.07l-4.178-3.672a.744.744 0 0 1-.069-1.048.74.74 0 0 1 1.046-.07l4.179 3.672c.308.27.338.74.068 1.048zm1.867 28.533l-3.665 4.187a.739.739 0 0 1-1.046.07.744.744 0 0 1-.068-1.05l3.665-4.186a.74.74 0 0 1 1.046-.069c.308.27.339.74.068 1.048zm-6.123-8.488l-5.263 1.79a.739.739 0 0 1-.94-.464.743.743 0 0 1 .463-.942l5.263-1.79a.742.742 0 1 1 .477 1.406z"/><path fill="url(#iz1ob)" d="M62.215 65.603a2.81 2.81 0 0 1 .91 2.072v.308a2.815 2.815 0 0 1-2.81 2.814h-.477a4.947 4.947 0 0 1-4.88 4.202 4.947 4.947 0 0 1-4.881-4.202h-.478a2.815 2.815 0 0 1-2.809-2.814v-.308c0-.819.351-1.557.91-2.072a2.808 2.808 0 0 1-.91-2.07v-.31c0-.907.432-1.716 1.101-2.23l-.102-.098a3.397 3.397 0 0 1-.999-2.416c0-.836-.41-1.603-1.1-2.05a17.04 17.04 0 0 1-7.787-14.38c.005-2.25.445-4.44 1.31-6.51a.742.742 0 1 1 1.367.573 15.427 15.427 0 0 0-1.194 5.94 15.561 15.561 0 0 0 7.111 13.13 3.911 3.911 0 0 1 1.776 3.297c0 .516.2 1 .565 1.366.362.362.842.562 1.354.565h4.024V46.654a3.816 3.816 0 0 1-3.064-3.739 3.816 3.816 0 0 1 3.064-3.739V26.502c-5.119.24-9.765 2.983-12.504 7.41a.74.74 0 1 1-1.26-.783 17.296 17.296 0 0 1 5.987-5.83A16.955 16.955 0 0 1 54.709 25h.013l.235-.001c.41 0 .742.332.742.742v13.434a3.816 3.816 0 0 1 3.064 3.74 3.816 3.816 0 0 1-3.064 3.737V60.41h4.617a2.814 2.814 0 0 1 2.81 2.814v.308c0 .819-.352 1.557-.911 2.071zM55.699 45.12a2.33 2.33 0 0 0 1.581-2.204A2.33 2.33 0 0 0 55.7 40.71zm-1.483-4.409a2.33 2.33 0 0 0-1.581 2.204 2.33 2.33 0 0 0 1.581 2.205zm4.115 30.087h-6.746a3.46 3.46 0 0 0 3.373 2.718 3.46 3.46 0 0 0 3.373-2.718zm3.312-7.265v-.308a1.33 1.33 0 0 0-1.327-1.33h-5.349l-.01.002h-4.755l-.02-.001H49.6a1.33 1.33 0 0 0-1.327 1.329v.308A1.33 1.33 0 0 0 49.6 64.86h6.498a.742.742 0 0 1 0 1.485H49.6a1.33 1.33 0 0 0-1.327 1.329v.308c0 .733.595 1.329 1.327 1.329h10.716a1.33 1.33 0 0 0 1.327-1.33v-.307a1.33 1.33 0 0 0-1.327-1.33H58.57a.742.742 0 0 1 0-1.484h1.747a1.33 1.33 0 0 0 1.327-1.33zM72 39.394v7.042c0 .36-.257.667-.61.731l-4.017.725a13.355 13.355 0 0 1-1.907 3.302l1.384 3.851a.743.743 0 0 1-.327.895l-6.09 3.521a.738.738 0 0 1-.936-.164l-2.905-3.444a.744.744 0 0 1 .088-1.046.74.74 0 0 1 1.045.088l2.504 2.97 5.016-2.901-1.316-3.661a.744.744 0 0 1 .13-.73 11.884 11.884 0 0 0 2.074-3.592.742.742 0 0 1 .565-.477l3.82-.688v-5.801l-3.82-.689a.741.741 0 0 1-.565-.477 11.866 11.866 0 0 0-2.074-3.591.743.743 0 0 1-.13-.73l1.316-3.662-5.015-2.9-2.505 2.97a.74.74 0 0 1-1.045.088.743.743 0 0 1-.088-1.046l2.905-3.445a.74.74 0 0 1 .937-.164l6.09 3.521c.31.18.448.556.326.895l-1.384 3.852a13.322 13.322 0 0 1 1.907 3.302l4.017.724c.353.063.61.371.61.73zm-9.627 3.521a7.436 7.436 0 0 1-4.97 7.015.744.744 0 0 1-.944-.456.743.743 0 0 1 .455-.946 5.949 5.949 0 0 0 0-11.225.743.743 0 0 1 .49-1.403 7.435 7.435 0 0 1 4.97 7.015zm-26.482-3.799a.742.742 0 0 1-.872.584l-5.454-1.087a.742.742 0 0 1 .289-1.457l5.454 1.087c.402.08.663.471.583.873zm4.448-9.043a.74.74 0 0 1-1.046.07l-4.178-3.672a.744.744 0 0 1-.069-1.048.74.74 0 0 1 1.046-.07l4.179 3.672c.308.27.338.74.068 1.048zm1.867 28.533l-3.665 4.187a.739.739 0 0 1-1.046.07.744.744 0 0 1-.068-1.05l3.665-4.186a.74.74 0 0 1 1.046-.069c.308.27.339.74.068 1.048zm-6.123-8.488l-5.263 1.79a.739.739 0 0 1-.94-.464.743.743 0 0 1 .463-.942l5.263-1.79a.742.742 0 1 1 .477 1.406z"/></g></g></svg>