<svg xmlns="http://www.w3.org/2000/svg" width="30" height="31" viewBox="0 0 30 31"><g><g><path fill="#b0abb3" d="M28.954 26.27l-1.406 1.414c-1.736 1.745-3.651 2.615-5.702 2.615-2.793 0-5.838-1.613-9.03-4.823l-8.149-8.193C2.152 14.754.608 12.304.078 10.002c-.635-2.762.17-5.297 2.395-7.533l1.406-1.413A2.708 2.708 0 0 1 7.09.57c2.103 1.118 4.384 5.004 4.48 5.169.407.716.534 1.453.362 2.078a1.85 1.85 0 0 1-.857 1.112c-.676.569-1.466 1.274-1.59 1.446-.887 1.317-.783 2.366.35 3.505l6.364 6.4c1.133 1.14 2.176 1.244 3.488.35.17-.122.87-.917 1.436-1.597a1.844 1.844 0 0 1 1.105-.861c.623-.173 1.355-.045 2.063.36.17.1 4.033 2.394 5.146 4.509a2.746 2.746 0 0 1-.483 3.229zm-.497-2.708c-.965-1.834-4.683-4.042-4.721-4.064-.43-.247-.885-.343-1.212-.251-.2.056-.35.18-.462.38l-.058.085c-.394.475-1.349 1.606-1.697 1.843a4.738 4.738 0 0 1-1.292.638c.866.401 1.903.747 3.075.869a.557.557 0 0 1-.114 1.108c-3.82-.398-6.323-2.839-6.427-2.943-.026-.026-.039-.058-.058-.087l-.075-.07-5.88-5.913c-.014-.01-.031-.014-.045-.026-.128-.105-3.124-2.627-3.524-6.5a.557.557 0 0 1 .494-.613.56.56 0 0 1 .609.497c.105 1.014.423 1.93.817 2.719.118-.486.343-.98.682-1.484.236-.35 1.36-1.31 1.833-1.706l.083-.058a.748.748 0 0 0 .379-.465c.09-.328-.005-.785-.253-1.224-.02-.031-2.215-3.77-4.04-4.742a1.617 1.617 0 0 0-1.91.289L3.257 3.257C1.293 5.231.606 7.355 1.158 9.751c.482 2.095 1.926 4.364 4.293 6.744l8.148 8.193c5.097 5.125 9.526 5.866 13.166 2.207l1.405-1.413c.508-.51.623-1.282.287-1.92z"/></g></g></svg>