<svg xmlns="http://www.w3.org/2000/svg" width="30" height="30" viewBox="0 0 30 30"><g><g><path fill="#b0abb3" d="M19.26 4.265c0 2.35-1.893 4.264-4.22 4.264-2.328 0-4.221-1.913-4.221-4.264 0-2.352 1.893-4.265 4.22-4.265 2.328 0 4.222 1.913 4.222 4.265zm-1.172 0c0-1.699-1.367-3.08-3.048-3.08s-3.049 1.381-3.049 3.08c0 1.698 1.368 3.08 3.049 3.08 1.68 0 3.048-1.382 3.048-3.08zM29.481 25.23a4.214 4.214 0 0 1-3.662 2.131c-.716 0-1.44-.184-2.103-.57-2.016-1.176-2.709-3.789-1.545-5.825a4.199 4.199 0 0 1 2.562-1.987 4.158 4.158 0 0 1 3.203.426c2.016 1.175 2.708 3.789 1.545 5.825zm-2.131-4.8a3.009 3.009 0 0 0-2.313-.307 3.033 3.033 0 0 0-1.85 1.435c-.841 1.47-.34 3.358 1.115 4.207a3.034 3.034 0 0 0 4.164-1.127c.84-1.47.34-3.358-1.116-4.207zM3.196 16.787v.029a.59.59 0 0 1-.587.593.59.59 0 0 1-.586-.593v-.033a.59.59 0 0 1 .586-.59h.002c.324 0 .586.267.585.594zm6.833-10.812c-3.55 1.675-6.046 5-6.677 8.893a.588.588 0 0 1-.673.488.592.592 0 0 1-.484-.68 13.115 13.115 0 0 1 7.338-9.774.584.584 0 0 1 .779.286.595.595 0 0 1-.283.787zm18.01 10.84a.59.59 0 0 1-.585.594.59.59 0 0 1-.587-.593c0-3.657-1.624-7.065-4.455-9.35a.596.596 0 0 1-.093-.832.583.583 0 0 1 .824-.093c3.112 2.51 4.897 6.256 4.897 10.275zm-6.23 11.263A12.884 12.884 0 0 1 15.031 30a12.89 12.89 0 0 1-6.689-1.868.596.596 0 0 1-.2-.813.583.583 0 0 1 .804-.203 11.728 11.728 0 0 0 6.085 1.7c2.181 0 4.313-.606 6.165-1.75a.583.583 0 0 1 .806.197.596.596 0 0 1-.195.814zM6.36 26.776a4.164 4.164 0 0 1-2.103.57 4.216 4.216 0 0 1-3.662-2.13 4.275 4.275 0 0 1-.421-3.236c.291-1.1.99-2.02 1.966-2.59a4.156 4.156 0 0 1 3.203-.426 4.2 4.2 0 0 1 2.562 1.987c1.164 2.037.47 4.65-1.545 5.825zm.53-5.232a3.033 3.033 0 0 0-4.164-1.128 3.054 3.054 0 0 0-1.42 1.87 3.087 3.087 0 0 0 .304 2.337 3.034 3.034 0 0 0 4.164 1.127c1.456-.849 1.956-2.736 1.116-4.206zM20.936 5.178a.59.59 0 0 1 .586.592.59.59 0 0 1-.586.592.59.59 0 0 1-.587-.592.59.59 0 0 1 .587-.592zm-.757 16.673l-.46.464a3.74 3.74 0 0 1-2.677 1.12 3.742 3.742 0 0 1-2.677-1.12l-4.801-4.85a3.858 3.858 0 0 1 0-5.41l.46-.464a1.625 1.625 0 0 1 2.312 0l1.92 1.94a1.667 1.667 0 0 1 0 2.336l-.125.126a.226.226 0 0 0 0 .32l1.373 1.388a.223.223 0 0 0 .317 0l.125-.126c.309-.312.72-.484 1.156-.484.437 0 .848.172 1.157.484l1.92 1.94a1.667 1.667 0 0 1 0 2.336zm-.83-1.498l-1.92-1.94a.46.46 0 0 0-.654 0l-.125.126a1.381 1.381 0 0 1-.987.413 1.38 1.38 0 0 1-.988-.413l-1.373-1.388a1.423 1.423 0 0 1 0-1.995l.125-.127a.471.471 0 0 0 0-.66l-1.92-1.94a.46.46 0 0 0-.655 0l-.46.463a2.663 2.663 0 0 0 0 3.735l4.802 4.85c.494.5 1.15.774 1.848.774.698 0 1.355-.275 1.848-.773l.46-.465a.47.47 0 0 0 0-.66zm1.687-4.68a.59.59 0 0 1-.586.593.59.59 0 0 1-.586-.593c0-2.083-1.678-3.778-3.74-3.778a.59.59 0 0 1-.587-.593.59.59 0 0 1 .586-.592c2.71 0 4.913 2.227 4.913 4.963zm-2.472 0a.59.59 0 0 1-.586.593.59.59 0 0 1-.587-.593c0-.706-.568-1.28-1.268-1.28a.59.59 0 0 1-.586-.593.59.59 0 0 1 .586-.592c1.346 0 2.441 1.106 2.441 2.465z"/></g></g></svg>