<svg xmlns="http://www.w3.org/2000/svg" xmlns:xlink="http://www.w3.org/1999/xlink" width="26" height="26" viewBox="0 0 26 26"><defs><path id="qyrla" d="M410.477 2446.493l-1.663 1.665c.314.129.597.32.843.565l.056.056c.933.934 1.001 2.385.152 3.235-.85.85-2.3.782-3.233-.152l-.056-.055a2.572 2.572 0 0 1-.565-.845l-1.661 1.663a1.3 1.3 0 0 1-1.007.372 1.516 1.516 0 0 1-.978-.449l-1.927-1.928a2.023 2.023 0 0 1-.497.822l-.05.049c-.398.398-.929.595-1.476.595-.62 0-1.26-.252-1.756-.747-.933-.934-1.001-2.385-.152-3.235l.05-.05c.228-.228.51-.398.82-.497l-1.927-1.929c-.568-.568-.602-1.459-.077-1.985l1.746-1.746a.904.904 0 0 1 .83-.239c.334.071.607.304.73.623.078.201.198.384.357.543l.055.055c.268.269.61.428.96.45.329.02.626-.086.837-.297.212-.212.318-.51.298-.838a1.496 1.496 0 0 0-.45-.961l-.055-.055a1.558 1.558 0 0 0-.542-.357 1.003 1.003 0 0 1-.623-.73.905.905 0 0 1 .238-.832l1.747-1.748c.526-.527 1.416-.492 1.984.076l1.928 1.93a2.02 2.02 0 0 1 .497-.823l.05-.049c.419-.42.992-.63 1.615-.593a2.51 2.51 0 0 1 1.617.745c.933.934 1.001 2.385.152 3.235l-.05.05c-.228.228-.51.398-.82.497l1.927 1.929c.267.267.426.615.448.977a1.31 1.31 0 0 1-.372 1.008zm-.64-.947a.51.51 0 0 0-.154-.32l-2.016-2.018a.976.976 0 0 1-.258-.964.862.862 0 0 1 .657-.607c.2-.043.372-.135.511-.274l.05-.05c.453-.453.385-1.26-.153-1.798a1.495 1.495 0 0 0-.96-.45 1.07 1.07 0 0 0-.837.298l-.05.05a1.005 1.005 0 0 0-.273.511.863.863 0 0 1-.607.657c-.335.1-.704 0-.963-.258l-2.016-2.017c-.17-.17-.421-.205-.55-.077l-1.663 1.664c.314.13.598.32.844.566l.055.056c.933.933 1.001 2.384.152 3.235-.85.85-2.3.782-3.233-.153l-.055-.055a2.574 2.574 0 0 1-.565-.844l-1.662 1.663a.29.29 0 0 0-.076.228.51.51 0 0 0 .153.321l2.016 2.018a.975.975 0 0 1 .258.964.863.863 0 0 1-.657.607c-.2.043-.372.134-.511.274l-.05.049c-.453.454-.385 1.26.153 1.798.537.538 1.343.607 1.797.152l.049-.049c.14-.139.231-.311.274-.511a.863.863 0 0 1 .606-.658.931.931 0 0 1 .263-.038c.255 0 .509.105.7.297l.526.526 1.684-1.686a.507.507 0 1 1 .718.718l-1.684 1.685.773.774c.09.09.207.147.321.153a.29.29 0 0 0 .228-.076l1.745-1.746a.903.903 0 0 1 .831-.238c.334.07.606.303.73.622.078.202.197.384.356.543l.056.056c.537.538 1.343.606 1.797.151.454-.453.386-1.26-.152-1.798l-.055-.056a1.568 1.568 0 0 0-.543-.356 1.003 1.003 0 0 1-.622-.73.905.905 0 0 1 .238-.832l1.747-1.748c.07-.07.08-.163.076-.229zm-4.393 2.164a.511.511 0 0 1-.507.508.51.51 0 0 1-.359-.867.511.511 0 0 1 .718 0 .513.513 0 0 1 .148.359zm10.776-13.902a.512.512 0 0 1-.507.508.512.512 0 0 1-.507-.508.512.512 0 0 1 .507-.508.51.51 0 0 1 .507.508zm3.707 4.918c.933.934 1.002 2.386.152 3.236-.85.85-2.3.781-3.233-.153l-.055-.055a2.596 2.596 0 0 1-.612-.969l-1.701 1.703c-.25.25-.582.373-.922.373-.377 0-.764-.151-1.063-.45l-2.014-2.017a.976.976 0 0 1-.258-.964.863.863 0 0 1 .657-.607c.2-.042.372-.134.511-.274l.05-.049c.21-.212.316-.509.296-.837a1.496 1.496 0 0 0-.449-.961 1.496 1.496 0 0 0-.96-.45 1.07 1.07 0 0 0-.837.298l-.05.048c-.138.14-.23.312-.273.512a.863.863 0 0 1-.607.658c-.335.099-.704 0-.963-.259l-2.018-2.018c-.568-.569-.603-1.459-.077-1.985l1.701-1.703a2.59 2.59 0 0 1-.967-.613l-.056-.055c-.933-.934-1.001-2.385-.152-3.235.85-.85 2.3-.782 3.233.152l.055.055c.276.276.487.61.613.969l1.701-1.702c.526-.527 1.416-.492 1.984.076l1.892 1.893c.102-.267.258-.509.458-.709l.049-.05c.85-.849 2.3-.78 3.233.153.933.934 1.001 2.385.152 3.235l-.05.05c-.2.2-.442.355-.708.457l1.89 1.891c.267.268.426.615.448.978.023.381-.113.748-.372 1.008l-1.7 1.702c.358.126.691.337.967.613zm-.718.719l-.055-.056a1.563 1.563 0 0 0-.618-.383 1.012 1.012 0 0 1-.667-.723.904.904 0 0 1 .232-.858l.255-.254-1.682-1.683a.508.508 0 0 1 .718-.718l1.681 1.683.814-.816c.07-.07.08-.163.077-.227a.51.51 0 0 0-.153-.322l-1.97-1.97a.982.982 0 0 1-.265-.937.865.865 0 0 1 .61-.62 1 1 0 0 0 .444-.258l.049-.05c.454-.453.386-1.26-.152-1.798-.537-.538-1.344-.606-1.797-.152l-.05.05c-.122.122-.209.272-.257.444a.865.865 0 0 1-.62.61.98.98 0 0 1-.936-.266l-1.971-1.973c-.17-.17-.421-.205-.55-.076l-1.786 1.788a.904.904 0 0 1-.857.232 1.013 1.013 0 0 1-.722-.668 1.563 1.563 0 0 0-.383-.618l-.055-.056c-.538-.538-1.344-.606-1.798-.152-.454.454-.385 1.26.152 1.799l.055.055c.177.177.39.31.618.383.33.108.586.385.668.723a.905.905 0 0 1-.232.858l-1.787 1.788a.291.291 0 0 0-.076.228.509.509 0 0 0 .152.32l1.93 1.93c.099-.312.268-.593.497-.821l.05-.05c.419-.42.992-.63 1.615-.593.599.036 1.173.3 1.617.745.444.445.708 1.02.744 1.619a2.074 2.074 0 0 1-.592 1.616l-.05.049c-.228.23-.51.399-.82.497l1.925 1.93a.51.51 0 0 0 .32.152.293.293 0 0 0 .229-.076l1.786-1.788a.903.903 0 0 1 .857-.232c.339.081.615.337.722.668.074.227.207.44.384.618l.055.055c.537.538 1.344.606 1.797.152.454-.454.386-1.26-.152-1.798z"/></defs><g><g transform="translate(-395 -2427)"><use fill="#7f8890" xlink:href="#qyrla"/></g></g></svg>