<svg xmlns="http://www.w3.org/2000/svg" xmlns:xlink="http://www.w3.org/1999/xlink" width="26" height="26" viewBox="0 0 26 26"><defs><path id="pzbea" d="M409.992 2571.646v22.781c0 .58-.298 1.093-.797 1.374-.238.133-.495.2-.754.2-.272 0-.544-.075-.79-.222a.506.506 0 0 1-.08-.06l-6.77-6.2-5.302.002a.5.5 0 0 1-.5-.498v-12.47c0-.276.224-.499.5-.499h5.315l6.772-5.713a.497.497 0 0 1 .065-.046 1.517 1.517 0 0 1 1.544-.022c.5.281.798.795.798 1.373zm-.999 0a.571.571 0 0 0-.29-.505.523.523 0 0 0-.507-.009l-6.7 5.652v2.261a.499.499 0 0 1-.999 0v-1.994H396v11.474l4.498-.002v-1.992c0-.276.223-.499.5-.499.276 0 .5.223.5.499v2.27l6.707 6.145c.226.114.422.03.5-.013a.572.572 0 0 0 .289-.506zM421 2582.29a9.716 9.716 0 0 1-6.598 9.194.5.5 0 0 1-.634-.31.497.497 0 0 1 .311-.634 8.72 8.72 0 0 0 5.922-8.25 8.714 8.714 0 0 0-5.934-8.25.5.5 0 1 1 .322-.945 9.71 9.71 0 0 1 6.61 9.195zm-9.37 6.459a.498.498 0 1 1-.277-.958c2.444-.704 4.15-2.967 4.15-5.502 0-2.535-1.706-4.799-4.15-5.502a.498.498 0 1 1 .277-.959c2.869.828 4.872 3.484 4.872 6.46 0 2.978-2.003 5.634-4.872 6.461z"/></defs><g><g transform="translate(-395 -2570)"><use fill="#7f8890" xlink:href="#pzbea"/></g></g></svg>