<svg xmlns="http://www.w3.org/2000/svg" xmlns:xlink="http://www.w3.org/1999/xlink" width="26" height="26" viewBox="0 0 26 26"><defs><path id="6fr0a" d="M421 2498.484v16.584c0 .006-.003.01-.003.017-.038 2.316-2.132 4.19-4.703 4.19-2.595 0-4.706-1.907-4.706-4.253 0-2.345 2.111-4.252 4.706-4.252 1.54 0 2.843.674 3.702 1.711v-8.627l-15.99 1.773v13.705c0 .032-.013.06-.019.09.01.108.018.216.018.325 0 2.345-1.704 4.253-4.3 4.253-2.594 0-4.705-1.908-4.705-4.253s2.111-4.252 4.706-4.252c1.54 0 2.437.268 3.296 1.305v-16.421c0-.238.175-.438.41-.468l17.057-1.895a.474.474 0 0 1 .531.468zm-17.967 21.263c0-1.823-1.251-3.307-3.327-3.307s-3.765 1.484-3.765 3.307c0 1.824 1.689 3.308 3.765 3.308s3.327-1.484 3.327-3.308zm17.026-4.725c0-1.823-1.69-3.307-3.765-3.307-2.076 0-3.765 1.484-3.765 3.307 0 1.824 1.69 3.308 3.765 3.308 2.076 0 3.765-1.484 3.765-3.308zm-.063-12.12v-3.88l-15.99 1.772v3.88z"/></defs><g><g transform="translate(-395 -2498)"><use fill="#7f8890" xlink:href="#6fr0a"/></g></g></svg>