<svg xmlns="http://www.w3.org/2000/svg" xmlns:xlink="http://www.w3.org/1999/xlink" width="26" height="26" viewBox="0 0 26 26"><defs><path id="hs97a" d="M421 2376.7v4.868c0 1.533-1.282 2.78-2.859 2.78h-1.573c-.246 3.012-2.336 5.595-5.298 6.53-.108 1.187-1.136 2.122-2.385 2.122-1.32 0-2.394-1.045-2.394-2.328s1.074-2.327 2.394-2.327a2.4 2.4 0 0 1 2.19 1.39c2.583-.891 4.342-3.278 4.342-5.985v-9.256c0-3.502-2.93-6.35-6.532-6.35h-1.77c-3.602 0-6.532 2.848-6.532 6.35v9.281a.58.58 0 0 1-.588.572h-2.136c-1.577 0-2.86-1.246-2.86-2.779v-4.867c0-1.533 1.283-2.78 2.86-2.78h1.57c.301-3.865 3.633-6.921 7.686-6.921h1.77c4.053 0 7.385 3.056 7.686 6.922h1.57c1.577 0 2.859 1.246 2.859 2.779zm-22-1.635h-1.141c-.928 0-1.683.734-1.683 1.636v4.867c0 .902.755 1.636 1.683 1.636H399zm11.103 15.607c0-.652-.546-1.184-1.218-1.184-.671 0-1.217.532-1.217 1.184 0 .653.546 1.184 1.217 1.184.672 0 1.218-.531 1.218-1.184zm9.72-13.971c0-.902-.754-1.636-1.682-1.636H417v8.139h1.141c.928 0 1.682-.734 1.682-1.636z"/></defs><g><g transform="translate(-395 -2367)"><use fill="#7f8890" xlink:href="#hs97a"/></g></g></svg>