<svg xmlns="http://www.w3.org/2000/svg" xmlns:xlink="http://www.w3.org/1999/xlink" width="26" height="26" viewBox="0 0 26 26"><defs><path id="oqfza" d="M418.26 2337.94c.539.531.82 1.164.82 1.824 0 .654-.276 1.293-.803 1.84-.23.24-.464.469-.692.687-.336.325-.655.628-.932.963-.006.01-.016.015-.022.026-.809.878-1.842 1.32-3.072 1.32-.107 0-.224-.006-.336-.011-1.826-.117-3.46-.803-4.686-1.383-3.205-1.548-6.012-3.745-8.344-6.527-1.922-2.309-3.211-4.464-4.074-6.788-.351-.947-.809-2.394-.681-3.947a3.89 3.89 0 0 1 1.155-2.474l1.81-1.825.011-.01c.533-.511 1.161-.782 1.81-.782.65 0 1.268.271 1.785.782.346.319.681.66 1.001.99.16.17.33.34.495.505l1.454 1.452c1.118 1.117 1.118 2.564 0 3.681-.15.149-.298.303-.447.452-.394.399-.8.814-1.236 1.213.325.718.772 1.426 1.438 2.266 1.374 1.686 2.806 2.99 4.382 3.99.155.096.336.186.528.282.133.07.271.138.41.213l1.682-1.676c.538-.537 1.167-.82 1.822-.82.66 0 1.283.288 1.8.825zm-1.022 1.005l-2.934-2.931-.01-.011c-.165-.18-.437-.388-.767-.388-.336 0-.623.218-.804.399l-1.821 1.819c-.09.09-.368.367-.81.367-.175 0-.346-.043-.527-.133-.021-.01-.043-.027-.064-.037a6.784 6.784 0 0 0-.527-.282c-.213-.107-.437-.218-.655-.356-1.71-1.08-3.259-2.49-4.729-4.299l-.005-.005c-.81-1.027-1.342-1.889-1.72-2.804l-.016-.047c-.096-.304-.18-.75.277-1.208.005-.01.016-.016.027-.027.463-.415.889-.84 1.336-1.297.155-.15.304-.304.458-.458.565-.564.565-1.086 0-1.65l-1.454-1.451c-.17-.176-.34-.346-.505-.516-.325-.335-.634-.65-.959-.952l-.016-.017c-.17-.17-.442-.372-.777-.372-.272 0-.549.133-.81.378l-1.816 1.814a2.442 2.442 0 0 0-.734 1.58c-.08.973.1 2.005.596 3.33.804 2.17 2.018 4.192 3.834 6.378 2.2 2.622 4.846 4.692 7.86 6.15 1.102.526 2.572 1.143 4.153 1.244.08.006.165.006.245.006.83 0 1.465-.272 2.002-.846.33-.389.682-.734 1.028-1.064.229-.224.442-.426.65-.65-.006.006-.006 0 0 0 .543-.563.543-1.122-.006-1.664zm-8.786-14.385a.723.723 0 0 1 .83-.585 8.22 8.22 0 0 1 4.447 2.304 8.204 8.204 0 0 1 2.306 4.442.72.72 0 0 1-.591.83c-.043.005-.08.01-.123.01a.714.714 0 0 1-.708-.596 6.778 6.778 0 0 0-1.906-3.67 6.753 6.753 0 0 0-3.674-1.904.71.71 0 0 1-.58-.83zm11.56 6.772a.714.714 0 0 1-.83-.585 12.048 12.048 0 0 0-3.392-6.538 12.108 12.108 0 0 0-6.544-3.389.716.716 0 1 1 .234-1.415c2.78.474 5.309 1.783 7.322 3.794a13.494 13.494 0 0 1 3.797 7.314.705.705 0 0 1-.586.82z"/></defs><g><g transform="translate(-395 -2319)"><use fill="#7f8890" xlink:href="#oqfza"/></g></g></svg>