<svg xmlns="http://www.w3.org/2000/svg" xmlns:xlink="http://www.w3.org/1999/xlink" width="25" height="25" viewBox="0 0 25 25"><defs><path id="q2tfa" d="M1019.87 11373.692v-6.572a.494.494 0 0 0-.497-.496h-9.34v-5.159a3.75 3.75 0 0 0 3.264-3.712 3.77 3.77 0 0 0-3.765-3.755 3.767 3.767 0 0 0-3.766 3.755 3.738 3.738 0 0 0 3.263 3.712v5.144h-9.308a.494.494 0 0 0-.497.495v6.574a2.688 2.688 0 0 0-2.193 2.64 2.686 2.686 0 0 0 2.69 2.682c1.475 0 2.69-1.211 2.69-2.681a2.688 2.688 0 0 0-2.193-2.641v-6.058h8.822v6.058a2.688 2.688 0 0 0-2.193 2.64 2.686 2.686 0 0 0 2.69 2.682c1.496 0 2.69-1.211 2.69-2.681a2.688 2.688 0 0 0-2.193-2.641v-6.058h8.822v6.058a2.688 2.688 0 0 0-2.193 2.64 2.686 2.686 0 0 0 2.69 2.682c1.495 0 2.69-1.211 2.69-2.681a2.638 2.638 0 0 0-2.173-2.627z"/></defs><g><g transform="translate(-997 -11354)"><use fill="#fff" xlink:href="#q2tfa"/></g></g></svg>