<svg xmlns="http://www.w3.org/2000/svg" xmlns:xlink="http://www.w3.org/1999/xlink" width="50" height="50" viewBox="0 0 50 50"><defs><path id="c128a" d="M455.038 8523.065l-.704 4.93a.83.83 0 0 1-.94.703l-3.23-.46a.806.806 0 0 0-.83.398.815.815 0 0 0 .05.92l1.957 2.61a.83.83 0 0 1-.166 1.162l-3.986 2.987a.83.83 0 0 1-1.163-.166l-1.958-2.608a.831.831 0 0 0-1.486.38l-.461 3.229a.83.83 0 0 1-.94.704l-4.933-.704a.83.83 0 0 1-.704-.94l.46-3.228a.831.831 0 0 0-1.32-.78l-2.61 1.955a.83.83 0 0 1-1.163-.166l-2.989-3.983a.829.829 0 0 1 .166-1.162l2.61-1.956a.832.832 0 0 0-.381-1.486l-3.23-.46h-.001a.831.831 0 0 1-.704-.94l.705-4.93a.831.831 0 0 1 .94-.704l3.23.461c.332.049.66-.109.83-.398a.813.813 0 0 0-.05-.922l-1.957-2.608a.828.828 0 0 1-.158-.615c.009-.03.02-.06.032-.09a14.08 14.08 0 0 0-11.867 6.582c-4.136 6.577-2.153 15.26 4.429 19.393a5.585 5.585 0 0 1 2.634 4.683v3.355c0 .917.744 1.66 1.66 1.66h6.644a1.66 1.66 0 0 0 1.661-1.66v-3.285a5.718 5.718 0 0 1 2.679-4.782 14.041 14.041 0 0 0 1.75-1.336l1.107 1.236a15.943 15.943 0 0 1-1.954 1.494 4.065 4.065 0 0 0-1.921 3.388v3.285a3.308 3.308 0 0 1-1.66 2.858v4.61a3.32 3.32 0 0 1-3.323 3.32h-3.321a3.32 3.32 0 0 1-3.322-3.32v-4.61a3.308 3.308 0 0 1-1.66-2.858v-2.366l-1.29 1.293a.83.83 0 0 1-1.058.097l-2.295-1.577-.574 2.728a.83.83 0 0 1-.813.659h-3.321a.83.83 0 0 1-.812-.665l-.574-2.727-2.295 1.58a.83.83 0 0 1-1.058-.096l-2.492-2.49a.829.829 0 0 1-.096-1.057l1.578-2.292-2.73-.575a.829.829 0 0 1-.66-.81v-3.32c0-.392.272-.729.654-.814l2.729-.572-1.578-2.294a.83.83 0 0 1 .097-1.058l2.49-2.489a.832.832 0 0 1 1.06-.096l2.298 1.585.574-2.728a.829.829 0 0 1 .812-.663h.25c.01-.233.02-.467.042-.702a15.773 15.773 0 0 1 13.912-14.139c1.129-.12 2.267-.12 3.396 0l2.495-1.871a.831.831 0 0 1 1.163.166l1.957 2.61a.83.83 0 0 0 1.487-.382l.461-3.228a.83.83 0 0 1 .94-.704l4.93.704a.83.83 0 0 1 .705.94l-.462 3.228a.83.83 0 0 0 1.324.781l2.61-1.957a.83.83 0 0 1 1.162.165l2.99 3.984a.83.83 0 0 1-.166 1.162l-2.611 1.957a.83.83 0 0 0 .381 1.486l3.23.46.002.002a.83.83 0 0 1 .704.94zm-28.227 30.124h6.643v-1.658h-6.643zm0 2.49c0 .917.743 1.66 1.66 1.66h3.322a1.66 1.66 0 0 0 1.661-1.66v-.83h-6.643zm-10.453-12.473a4.98 4.98 0 1 1-1.18-9.888 15.794 15.794 0 0 1-.658-2.814l-.145.691a1.659 1.659 0 0 1-2.567 1.025l-1.727-1.188-1.513 1.508 1.19 1.728a1.66 1.66 0 0 1-1.026 2.562l-2.07.436v1.972l2.07.435a1.658 1.658 0 0 1 1.025 2.567l-1.189 1.723 1.513 1.51 1.726-1.186a1.661 1.661 0 0 1 2.568 1.024l.435 2.07h1.974l.435-2.073a1.661 1.661 0 0 1 2.568-1.024l1.724 1.188 1.781-1.777a4.049 4.049 0 0 0-1.673-2.123 16.015 16.015 0 0 1-1.42-1.033 4.982 4.982 0 0 1-3.84 2.667zm-.53-8.274h-.032a3.314 3.314 0 0 0-1.13 6.433 3.317 3.317 0 0 0 4.244-1.996 15.722 15.722 0 0 1-3.082-4.437zm37.447-11.28l-2.408-.344a2.488 2.488 0 0 1-1.142-4.457l1.946-1.46-1.993-2.655-1.946 1.459a2.49 2.49 0 0 1-3.961-2.344l.344-2.407-3.287-.469-.344 2.407a2.492 2.492 0 0 1-4.46 1.14l-1.46-1.943-2.657 1.991 1.464 1.946a2.49 2.49 0 0 1-2.346 3.959l-2.408-.344-.47 3.285 2.408.344a2.491 2.491 0 0 1 1.142 4.457l-1.945 1.46 1.993 2.654 1.946-1.458a2.49 2.49 0 0 1 3.96 2.345l-.343 2.406 3.288.47.336-2.41a2.491 2.491 0 0 1 4.46-1.14l1.46 1.942 2.657-1.99-1.46-1.945a2.49 2.49 0 0 1 2.346-3.96l2.408.345zm-5.923-.12a6.64 6.64 0 0 1-6.643 6.64 6.64 6.64 0 0 1-6.644-6.64 6.64 6.64 0 0 1 6.644-6.638 6.649 6.649 0 0 1 6.643 6.639zm-1.66 0a4.98 4.98 0 0 0-4.983-4.978 4.98 4.98 0 0 0-4.983 4.979 4.98 4.98 0 0 0 4.983 4.979 4.986 4.986 0 0 0 4.982-4.98zm-16.39 22.189h1.661v2.49h-1.66zm1.661-1.66h-1.66a5.3 5.3 0 0 0-3.406-4.946 11.625 11.625 0 0 1-5.607-4.629c-3.422-5.43-1.792-12.603 3.64-16.024l.888 1.405a9.956 9.956 0 0 0-3.974 4.804c-2.002 5.124.53 10.899 5.656 12.9a6.943 6.943 0 0 1 4.463 6.49zm14.947-4.149h5.813v1.66h-5.813zm-1.361 5.616l1.063-1.275 4.983 4.15-1.064 1.273zm-3.621 1.023h1.66v5.81h-1.66zm-35.08-23.213l6.644-1.66.402 1.61-6.643 1.66zm1.38-8.478l.965-1.35 5.812 4.15-.964 1.35zm7.115-5.45l1.61-.41 1.698 6.638-1.61.411z"/><linearGradient id="c128b" x1="430.05" x2="430" y1="8559" y2="8509" gradientUnits="userSpaceOnUse"><stop offset="0" stop-color="#ff8a00"/><stop offset="1" stop-color="#ffc527"/></linearGradient></defs><g><g transform="translate(-405 -8509)"><use xlink:href="#c128a"/><use fill="url(#c128b)" xlink:href="#c128a"/></g></g></svg>