<svg xmlns="http://www.w3.org/2000/svg" xmlns:xlink="http://www.w3.org/1999/xlink" width="50" height="50" viewBox="0 0 50 50"><defs><path id="9h4ka" d="M1232.627 275.666a2.967 2.967 0 0 1-1.745-5.372l10.788-7.804a.834.834 0 0 1 1.164 1.164l-7.802 10.786a2.962 2.962 0 0 1-2.405 1.226zm-.92-2.049a1.304 1.304 0 0 0 1.976-.156l4.759-6.578-6.581 4.76a1.302 1.302 0 0 0-.154 1.974zm22.816-2.118a22.34 22.34 0 0 1-2.997 11.197c-.009.017-.008.036-.018.054-.014.024-.034.041-.05.064a22.66 22.66 0 0 1-8.144 8.134c-.016.01-.025.026-.042.036-.025.016-.052.022-.078.034a22.357 22.357 0 0 1-11.016 2.977c-.006 0-.012.004-.019.004-.005 0-.009-.004-.015-.004-.04.001-.08.004-.12.004-1.687 0-3.386-.193-5.049-.576a.833.833 0 0 1 .373-1.625c1.314.301 2.649.47 3.98.515v-1.647a.832.832 0 1 1 1.666 0v1.64a20.676 20.676 0 0 0 8.713-2.37l-.821-1.424a.832.832 0 1 1 1.443-.833l.82 1.42a20.996 20.996 0 0 0 6.476-6.477l-1.42-.82a.833.833 0 0 1 .834-1.443l1.422.822a20.687 20.687 0 0 0 2.375-8.849h-1.646a.834.834 0 0 1 0-1.667h1.646a20.679 20.679 0 0 0-2.375-8.849l-1.422.821a.833.833 0 0 1-.835-1.444l1.419-.818a20.984 20.984 0 0 0-6.477-6.476l-.819 1.418a.83.83 0 0 1-1.138.306.833.833 0 0 1-.305-1.138l.822-1.423a20.646 20.646 0 0 0-8.714-2.37v1.64a.832.832 0 1 1-1.666 0v-1.647c-.245.011-.497.027-.77.048l-.894.069c-.776.09-1.55.22-2.317.397a.833.833 0 1 1-.372-1.624c.888-.203 1.786-.35 2.686-.446v-.963h-1.25a2.085 2.085 0 0 1-2.083-2.084c0-1.15.934-2.083 2.083-2.083h7.5c1.15 0 2.084.934 2.084 2.083a2.085 2.085 0 0 1-2.083 2.084h-1.25v.993a22.348 22.348 0 0 1 8.56 2.836c.018.009.036.008.054.018.017.01.026.026.042.037a22.58 22.58 0 0 1 4.007 2.972l1.79-1.79-1.18-1.179 3.537-3.535 3.535 3.535-3.535 3.536-1.179-1.178-1.79 1.789a22.64 22.64 0 0 1 2.971 4.008c.011.015.027.024.037.041.009.018.009.036.017.053a22.35 22.35 0 0 1 2.997 11.197zm-4.233-19.446l1.179 1.18 1.178-1.18-1.178-1.178zm-18.677-3.042c.137-.002.274-.012.41-.012l.063.002.073-.002c.267 0 .544.006.834.017V246.5h2.916a.417.417 0 0 0 0-.833h-7.5a.417.417 0 0 0 0 .833h2.917v2.517c.1-.003.19-.003.287-.005zm-6.12 7.488c0 .46-.373.834-.834.834h-7.166a.833.833 0 1 1 0-1.667h7.166c.461 0 .834.372.834.833zm0 5.833c0 .461-.373.833-.834.833h-11.333a.832.832 0 1 1 0-1.666h11.333c.461 0 .834.372.834.833zm0 5.834c0 .46-.373.833-.834.833h-15.5a.832.832 0 1 1 0-1.666h15.5c.461 0 .834.372.834.833zm0 5.833c0 .461-.373.833-.834.833h-18.833a.833.833 0 1 1 0-1.667h18.833c.461 0 .834.373.834.834zm0 5.834c0 .46-.373.833-.834.833h-13.833a.832.832 0 1 1 0-1.667h13.833c.461 0 .834.373.834.834zm0 5.833c0 .46-.373.833-.834.833h-8.833a.832.832 0 1 1 0-1.667h8.833c.461 0 .834.373.834.834z"/><linearGradient id="9h4kb" x1="1230" x2="1229.99" y1="294" y2="244" gradientUnits="userSpaceOnUse"><stop offset="0" stop-color="#ff8a00"/><stop offset="1" stop-color="#ffc527"/></linearGradient></defs><g><g transform="translate(-1205 -244)"><use xlink:href="#9h4ka"/><use fill="url(#9h4kb)" xlink:href="#9h4ka"/></g></g></svg>