<svg xmlns="http://www.w3.org/2000/svg" xmlns:xlink="http://www.w3.org/1999/xlink" width="100" height="100" viewBox="0 0 100 100"><defs><path id="tdgma" d="M1154 3969.998c27.614 0 50 22.386 50 50.001 0 27.614-22.386 50-50 50s-50-22.386-50-50c0-27.615 22.386-50 50-50z"/><path id="tdgmc" d="M1135.177 4001.836a.961.961 0 0 1 .279.674.95.95 0 0 1-.95.955.952.952 0 0 1-.949-.955.95.95 0 0 1 1.62-.674zm3.317.674a.95.95 0 0 1-.95.955.951.951 0 0 1-.949-.955.95.95 0 0 1 1.62-.674.96.96 0 0 1 .279.674zm-3.317 16.314a.96.96 0 0 1 0 1.35.95.95 0 0 1-.67.28.952.952 0 0 1-.95-.955.95.95 0 0 1 1.62-.675zm3.317.675a.957.957 0 0 1-.95.954.951.951 0 0 1-.949-.954.95.95 0 0 1 1.62-.675.963.963 0 0 1 .279.675zm-3.317 16.314a.961.961 0 0 1 .279.674.954.954 0 0 1-.95.954.955.955 0 0 1-.672-.28.964.964 0 0 1 0-1.35.952.952 0 0 1 .673-.279.95.95 0 0 1 .67.28zm3.317.674a.954.954 0 0 1-.95.954.955.955 0 0 1-.672-.28.967.967 0 0 1-.277-.674.951.951 0 0 1 .95-.954.95.95 0 0 1 .949.954zm36.538-26.465v1.965h3.018c.525 0 .95.428.95.955v13.114a.952.952 0 0 1-.95.954h-3.018v1.965h3.018c.525 0 .95.428.95.955v14.114a.952.952 0 0 1-.95.955h-48.1a.952.952 0 0 1-.95-.955v-14.114c0-.527.425-.955.95-.955h3.018v-1.965h-3.019a.952.952 0 0 1-.95-.954v-13.114c0-.527.426-.955.95-.955h3.019v-1.965h-3.019a.952.952 0 0 1-.95-.955v-13.114c0-.527.426-.954.95-.954h48.101c.525 0 .95.427.95.954v13.114a.952.952 0 0 1-.95.955zm1.944-13.114h-4.958v11.08h4.958zm-7.044 11.08v-11.08h-4.938v11.08zm-38.908 0h31.946v-11.08h-31.946zm0 17.113h31.946v-11.205h-31.946zm33.97 0h4.938v-11.205h-4.938zm-33.97 17.989h31.946v-12.143h-31.946zm33.97-12.143v12.143h4.938v-12.143zm11.982 0h-4.958v12.143h4.958zm-3.968-3.937h-38.017v1.965h38.017zm3.968-13.114h-4.958v11.205h4.958zm-3.968-3.874h-38.017v1.965h38.017z"/><clipPath id="tdgmb"><use fill="#fff" xlink:href="#tdgma"/></clipPath></defs><g><g transform="translate(-1104 -3970)"><use fill="#fff" fill-opacity="0" stroke="#9f45c1" stroke-linecap="round" stroke-linejoin="round" stroke-miterlimit="50" stroke-width="2" clip-path="url(&quot;#tdgmb&quot;)" xlink:href="#tdgma"/></g><g transform="translate(-1104 -3970)"><use fill="#9f45c1" xlink:href="#tdgmc"/></g></g></svg>