<svg xmlns="http://www.w3.org/2000/svg" xmlns:xlink="http://www.w3.org/1999/xlink" width="100" height="100" viewBox="0 0 100 100"><defs><path id="nofka" d="M761 3969.998c27.614 0 50 22.386 50 50.001 0 27.614-22.386 50-50 50s-50-22.386-50-50c0-27.615 22.386-50 50-50z"/><path id="nofkc" d="M750.01 4037.997h1.98v1.011h-1.98zm2.959 0h2.041v1.011h-2.041zm-2.959-13.004h1.98v1.01h-1.98zm2.959 0h2.041v1.01h-2.041zm33.03-9.17c0 5.985-5.006 10.836-10.989 10.836v4.502c0 .46-.373.834-.833.834h-2.167v2.979h2.167c.46 0 .833.374.833.834v8.357c0 .46-.373.834-.833.834h-26.385a.833.833 0 0 1-.834-.834v-8.357c0-.46.373-.834.834-.834h2.166v-2.98h-2.166a.833.833 0 0 1-.834-.833v-4.502h-1.792c-5.062 0-9.166-4.105-9.166-9.17 0-5.064 4.104-9.17 9.166-9.17.286 0 .571.013.856.04a14.167 14.167 0 0 1 10.072-12.781c7.492-2.246 15.385 2.008 17.63 9.503.479-.065.96-.096 1.442-.096 5.984 0 10.834 4.851 10.834 10.838zm-37 21.132v6.032h24v-6.032zm20.97-1.981v-2.98h-17.97v2.98zm3.03-10.961h-24v5.97h24zm11.138-10.068c-1.037-4.958-5.894-8.136-10.85-7.099a.834.834 0 0 1-.98-.622 12.494 12.494 0 0 0-12.156-9.578c-6.9.005-12.489 5.604-12.484 12.506l.008.157a.832.832 0 0 1-.998.83 7.502 7.502 0 0 0-9.01 7.351 7.502 7.502 0 0 0 7.5 7.503h1.791v-2.19c0-.46.373-.833.834-.833h5.218v-5.314h-3.83a2.5 2.5 0 1 1 0-1.668h3.976c.46 0 .833.374.833.835v6.147h4.98v-16.985c0-.461.373-.835.833-.835h3.851a2.501 2.501 0 1 1 0 1.668h-3.643v16.152h4.948v-8.65c0-.46.373-.833.833-.833h7.862a2.5 2.5 0 1 1 3.19 3.192 2.5 2.5 0 0 1-3.19-1.524H766v7.815h8.177c.46 0 .833.374.833.834v2.189a10.86 10.86 0 0 0 2.03-.195c4.956-1.037 8.133-5.896 7.097-10.853zm-8.137.21a.833.833 0 1 0 0-1.667.833.833 0 0 0 0 1.667zm-10-8.337a.833.833 0 1 0 0-1.667.833.833 0 0 0 0 1.667zm-19.167 9.17a.834.834 0 1 0 .002 1.668.834.834 0 0 0-.002-1.668z"/><clipPath id="nofkb"><use fill="#fff" xlink:href="#nofka"/></clipPath></defs><g><g transform="translate(-711 -3970)"><use fill="#fff" fill-opacity="0" stroke="#40c4f4" stroke-linecap="round" stroke-linejoin="round" stroke-miterlimit="50" stroke-width="2" clip-path="url(&quot;#nofkb&quot;)" xlink:href="#nofka"/></g><g transform="translate(-711 -3970)"><use fill="#40c4f4" xlink:href="#nofkc"/></g></g></svg>