<svg xmlns="http://www.w3.org/2000/svg" xmlns:xlink="http://www.w3.org/1999/xlink" width="40" height="40" viewBox="0 0 40 40"><defs><path id="ucnra" d="M660 1613.998c11.046 0 20 8.954 20 20 0 11.045-8.955 20-20 20-11.046 0-20-8.955-20-20 0-11.046 8.954-20 20-20z"/><path id="ucnrb" d="M654.94 1631.43a1.44 1.44 0 0 0-.268-.279c-1.073-.964-2.683-.837-3.61.28s-.805 2.792.268 3.757l5.903 5.305.292.28c.025.024.05.05.074.05.756.61 1.853.459 2.463-.33l9.536-12.896-10.707 8.606z"/></defs><g><g transform="translate(-640 -1614)"><use fill="#ffc527" xlink:href="#ucnra"/></g><g transform="translate(-640 -1614)"><use fill="#fff" xlink:href="#ucnrb"/></g></g></svg>