<svg xmlns="http://www.w3.org/2000/svg" xmlns:xlink="http://www.w3.org/1999/xlink" width="60" height="50" viewBox="0 0 60 50"><defs><path id="5tvda" d="M795 2907.997c8.284 0 15 6.716 15 15 0 8.285-6.716 15-15 15-8.284 0-15-6.715-15-15 0-8.284 6.716-15 15-15z"/><path id="5tvdb" d="M815 2958.008c-2.394 0-4.344-1.92-4.344-4.279 0-2.358 1.95-4.278 4.345-4.278 2.394 0 4.343 1.92 4.343 4.278 0 2.36-1.949 4.279-4.344 4.279zm0-7.07c-1.562 0-2.833 1.252-2.833 2.791s1.271 2.79 2.834 2.79c1.562 0 2.832-1.251 2.832-2.79 0-1.54-1.27-2.79-2.832-2.79zm9.98-9.29a.766.766 0 0 1-.534-.218c-2.524-2.485-5.878-3.854-9.447-3.854-3.567 0-6.923 1.37-9.445 3.854a.763.763 0 0 1-1.068 0 .735.735 0 0 1 0-1.051c2.808-2.766 6.542-4.29 10.513-4.29 3.972 0 7.706 1.523 10.515 4.29a.735.735 0 0 1 0 1.05.76.76 0 0 1-.534.219zm7.099-10.991a.762.762 0 0 1-.535-.218c-9.122-8.983-23.965-8.98-33.087 0a.762.762 0 0 1-1.068 0 .735.735 0 0 1 0-1.05c9.71-9.565 25.512-9.563 35.225 0a.735.735 0 0 1 0 1.05.762.762 0 0 1-.535.218zm7.097-10.989a.763.763 0 0 1-.535-.217c-13.034-12.832-34.246-12.835-47.283 0a.763.763 0 0 1-1.068 0 .736.736 0 0 1 0-1.051c13.626-13.417 35.795-13.414 49.42 0a.736.736 0 0 1 0 1.051.757.757 0 0 1-.534.217z"/></defs><g><g transform="translate(-780 -2908)"><g><use fill="#8fd4ef" xlink:href="#5tvda"/></g><g><use fill="#565574" xlink:href="#5tvdb"/></g></g></g></svg>