<svg xmlns="http://www.w3.org/2000/svg" width="76" height="76" viewBox="0 0 76 76"><defs><mask id="frxvb" width="2" height="2" x="-1" y="-1"><path fill="#fff" d="M13 6h50v50H13z"/><path d="M38 5.997c13.807 0 25 11.193 25 25 0 13.808-11.193 25-25 25s-25-11.192-25-25c0-13.807 11.193-25 25-25z"/></mask><filter id="frxva" width="100" height="107" x="-12" y="-19" filterUnits="userSpaceOnUse"><feOffset dy="7" in="SourceGraphic" result="FeOffset1023Out"/><feGaussianBlur in="FeOffset1023Out" result="FeGaussianBlur1024Out" stdDeviation="6 6"/></filter></defs><g><g><g filter="url(#frxva)"><path fill="none" d="M38 5.997c13.807 0 25 11.193 25 25 0 13.808-11.193 25-25 25s-25-11.192-25-25c0-13.807 11.193-25 25-25z" mask="url(&quot;#frxvb&quot;)"/><path fill="#ffd466" d="M38 5.997c13.807 0 25 11.193 25 25 0 13.808-11.193 25-25 25s-25-11.192-25-25c0-13.807 11.193-25 25-25z"/></g><path fill="#ffc527" d="M38 5.997c13.807 0 25 11.193 25 25 0 13.808-11.193 25-25 25s-25-11.192-25-25c0-13.807 11.193-25 25-25z"/></g><g><path fill="#fff" d="M32.94 28.43a1.41 1.41 0 0 0-.268-.28c-1.073-.965-2.683-.837-3.61.28a2.734 2.734 0 0 0 .268 3.757l5.903 5.305.292.28c.025.024.05.05.073.05.756.61 1.854.458 2.464-.33l9.536-12.895L36.891 33.2z"/></g></g></svg>