<svg xmlns="http://www.w3.org/2000/svg" width="19" height="18" viewBox="0 0 19 18"><g><g><path fill="#ffb100" d="M12.835 9.214a3.34 3.34 0 0 0-1.001-2.339 3.382 3.382 0 0 0-2.41-.986c-.085 0-.17.017-.255.017h-.05c-.103 0-.188.016-.29.033-.203.051-.424-.099-.458-.318-.05-.198.102-.417.323-.45l.356-.05c.136-.017.255-.017.374-.017.356 0 .73.05 1.069.134.73.2 1.375.568 1.901 1.086.425.434.781.953.985 1.537.153.451.237.919.237 1.404v.184c-.017.083-.017.134-.017.183a.413.413 0 0 1-.441.368.41.41 0 0 1-.373-.434c.017-.067.017-.117.05-.167v-.185zm2.292.201V9.25c0-.736-.153-1.438-.407-2.073a5.724 5.724 0 0 0-1.273-1.888 5.668 5.668 0 0 0-2.394-1.404 5.894 5.894 0 0 0-1.646-.234c-.153 0-.323 0-.493.017-.05 0-.101.016-.152.016-.12.017-.221.034-.34.05-.204.051-.424-.1-.458-.316-.051-.202.102-.417.322-.452.187-.033.374-.05.56-.066.187-.017.374-.017.56-.017a6.481 6.481 0 0 1 4.6 1.87 6.32 6.32 0 0 1 1.817 3.46c.051.351.085.703.085 1.07 0 .184 0 .367-.017.551a.409.409 0 0 1-.815-.068c0-.116.017-.216.051-.35zm3.106-.133c0 .234-.017.484-.034.735a.413.413 0 0 1-.44.367.41.41 0 0 1-.374-.434c0-.117.017-.218.017-.318v-.367c0-2.19-.9-4.161-2.343-5.582a8.12 8.12 0 0 0-5.67-2.305c-.237 0-.458.017-.695.032-.12 0-.238.018-.357.034-.119.017-.22.034-.34.05a.386.386 0 0 1-.458-.316c-.05-.202.102-.418.323-.452.255-.05.51-.084.764-.1.254-.015.509-.033.764-.033 2.444 0 4.65.969 6.263 2.556a8.587 8.587 0 0 1 2.58 6.133zm-2.19 7.535C10.85 19.607 1.53 11.154.784 5.922.496 3.802 4.01-.744 5.266 2.096l1.34 2.958C7.235 6.709 5.3 7.144 5.334 8.01c.017.568 1.476 2.324 1.816 2.691.713.77 2.903 2.456 4.074 2.74.56.134 1.035-.568 1.29-.835 1.052-1.102 1.086-1.453 2.088-.92l3.004 1.59c1.155.683-.407 2.905-1.561 3.54z"/></g></g></svg>