<svg xmlns="http://www.w3.org/2000/svg" width="57" height="50" viewBox="0 0 57 50"><g><g><path fill="#8fd4ef" d="M42 19.997c8.284 0 15 6.716 15 15.001 0 8.283-6.716 15-15 15-8.284 0-15-6.717-15-15 0-8.285 6.716-15.001 15-15.001z"/></g><g><path fill="#565574" d="M45 11.666v26.667a.83.83 0 0 1-.46.744L22.871 49.911c-.011.006-.025.003-.038.009a.829.829 0 0 1-.334.08.82.82 0 0 1-.334-.08c-.013-.007-.026-.004-.039-.01L.461 39.076c-.013-.005-.022-.015-.034-.022a.755.755 0 0 1-.093-.064.696.696 0 0 1-.16-.16.841.841 0 0 1-.07-.109c-.009-.014-.02-.025-.027-.04-.007-.013-.005-.028-.01-.042a.822.822 0 0 1-.058-.243c0-.016-.007-.032-.007-.048L0 38.333V11.666c0-.073.01-.145.03-.215.005-.019.015-.035.02-.052a.786.786 0 0 1 .065-.15c.013-.023.032-.043.047-.065a.814.814 0 0 1 .087-.107c.022-.02.045-.039.07-.058.022-.017.04-.039.065-.055.013-.008.028-.012.043-.02.012-.007.021-.016.034-.023L22.127.088c.008-.005.016-.003.024-.006a.81.81 0 0 1 .349-.083c.126 0 .242.032.35.083.007.004.016.002.023.006L44.54 10.92c.012.006.022.016.034.024.013.007.03.011.043.02.024.015.043.036.065.054.024.02.048.037.07.06.032.032.06.068.086.105.016.023.034.042.048.066a.787.787 0 0 1 .064.15c.006.016.016.033.02.051.02.07.03.142.03.215zM2.744 38.356l18.923 9.462V22.2l-20-9.231V37.03l.33-.153a.828.828 0 1 1 .747 1.478zM21.812 2.108L2.757 11.636l18.91 8.728v-.365a.834.834 0 0 1 1.666 0v.365l18.91-8.728-19.055-9.528a.819.819 0 0 1-.688.392.819.819 0 0 1-.688-.392zm1.521 45.71l18.91-9.455-.9-.416a.833.833 0 1 1 .698-1.513l1.292.597V12.969l-20 9.23v5.813a.814.814 0 0 1 .549.04l1.513.698a.834.834 0 0 1-.698 1.514l-1.364-.628zm-9.637-15.422a.833.833 0 0 1 .407-1.106l1.514-.699a.835.835 0 0 1 .698 1.514l-1.513.698a.833.833 0 0 1-1.106-.407zm-4.54 2.095a.835.835 0 0 1 .407-1.106l1.514-.698a.833.833 0 1 1 .698 1.513l-1.513.699a.834.834 0 0 1-1.106-.407zm-4.54 2.095a.833.833 0 0 1 .407-1.106l1.514-.698a.834.834 0 0 1 .698 1.513l-1.513.699a.833.833 0 0 1-1.106-.408zm30.266-2.539a.833.833 0 0 1-1.106.408l-1.514-.699a.834.834 0 0 1 .699-1.514l1.513.699c.418.193.6.688.408 1.106zm4.539 2.096a.831.831 0 0 1-1.105.407l-1.514-.698a.833.833 0 1 1 .699-1.514l1.513.7c.418.192.601.687.407 1.105zm-9.08-4.19a.832.832 0 0 1-1.105.407l-1.514-.698a.833.833 0 1 1 .699-1.514l1.513.699c.418.193.601.687.407 1.106zM18.236 30.3a.833.833 0 0 1 .407-1.105l1.514-.699a.833.833 0 1 1 .698 1.513l-1.513.699a.834.834 0 0 1-1.106-.408zm3.43-23.634V5a.834.834 0 0 1 1.667 0v1.667a.833.833 0 0 1-1.666 0zm0 5V10a.834.834 0 0 1 1.667 0v1.667a.834.834 0 0 1-1.666 0zm0 5V15a.834.834 0 0 1 1.667 0v1.666a.834.834 0 0 1-1.666 0z"/></g></g></svg>