<svg xmlns="http://www.w3.org/2000/svg" xmlns:xlink="http://www.w3.org/1999/xlink" width="38" height="46" viewBox="0 0 38 46"><defs><path id="yijha" d="M625 4523.077v2.002l6.432 1.297a1.49 1.49 0 0 1 1.187 1.46v1.675c0 .82-.662 1.488-1.476 1.488h-18.286a1.484 1.484 0 0 1-1.476-1.488v-1.675c0-.707.499-1.32 1.187-1.46l6.432-1.297v-2.002c-9.056-1.454-16-9.384-16-18.919 0-10.564 8.523-19.158 19-19.158s19 8.594 19 19.158c0 9.535-6.944 17.465-16 18.919zm-.785 3.312h-4.43l-6.937 1.4a.048.048 0 0 0-.039.047v1.675c0 .027.022.047.048.047h18.286c.026 0 .048-.02.048-.047v-1.675a.048.048 0 0 0-.039-.047zm-.644-1.44v-1.698a19.086 19.086 0 0 1-3.143 0v1.699zm16-20.79c0-9.77-7.882-17.72-17.571-17.72-9.69 0-17.572 7.95-17.572 17.72 0 9.769 7.883 17.717 17.572 17.717s17.572-7.948 17.572-17.718zm-9.238 0c0 4.633-3.738 8.401-8.333 8.401-4.595 0-8.333-3.768-8.333-8.402 0-4.634 3.738-8.403 8.333-8.403 4.595 0 8.333 3.77 8.333 8.403zm-1.428 0c0-3.84-3.098-6.964-6.905-6.964-3.807 0-6.905 3.123-6.905 6.963s3.098 6.962 6.905 6.962c3.807 0 6.905-3.123 6.905-6.962zm-1.62 0c0 2.938-2.37 5.329-5.285 5.329s-5.286-2.39-5.286-5.33c0-2.939 2.371-5.33 5.286-5.33 2.914 0 5.286 2.391 5.286 5.33zm-1.428 0c0-2.146-1.73-3.89-3.857-3.89-2.127 0-3.857 1.744-3.857 3.89 0 2.144 1.73 3.888 3.857 3.888 2.127 0 3.857-1.744 3.857-3.889zm-1.619-13.062a2.25 2.25 0 0 1-2.238 2.257 2.25 2.25 0 0 1-2.238-2.257 2.25 2.25 0 0 1 2.238-2.257 2.25 2.25 0 0 1 2.238 2.257zm-1.429 0a.814.814 0 0 0-.81-.816.814.814 0 0 0-.809.816c0 .45.364.817.81.817.446 0 .81-.367.81-.817zm1.43 13.061c0 .398-.32.72-.715.72a.717.717 0 0 1-.715-.72.814.814 0 0 0-.81-.816.718.718 0 0 1-.713-.72c0-.398.32-.721.714-.721a2.25 2.25 0 0 1 2.238 2.257z"/></defs><g><g transform="translate(-603 -4485)"><use fill="#7f8890" xlink:href="#yijha"/></g></g></svg>