<svg xmlns="http://www.w3.org/2000/svg" xmlns:xlink="http://www.w3.org/1999/xlink" width="46" height="46" viewBox="0 0 46 46"><defs><path id="bziia" d="M984 4942.47v30.996c0 .847-.687 1.534-1.533 1.534h-42.934a1.534 1.534 0 0 1-1.533-1.534v-30.996c0-.848.686-1.534 1.533-1.534h1.534c.423 0 .766.532.766.954 0 .424-.343 1.143-.766 1.143h-1.096v29.933h41.995v-29.933H964.6c-.424 0-.767-.407-.767-.83s.343-1.267.767-1.267h17.866c.847 0 1.534.687 1.534 1.534zm-40.967 22.563v-32.2a3.838 3.838 0 0 1 3.834-3.834H958.1a3.838 3.838 0 0 1 3.833 3.834v32.199c-.002 2.116-1.717 3.894-3.833 3.896h-11.233c-2.116-.002-3.831-1.78-3.834-3.895zm1.95-.396a2.3 2.3 0 0 0 2.3 2.3h10.463a2.3 2.3 0 0 0 2.3-2.3v-31.367a2.3 2.3 0 0 0-2.3-2.3h-10.463a2.3 2.3 0 0 0-2.3 2.3zm19.006-12.169v-5.977c0-.847.687-1.534 1.534-1.534h7.51c.424 0 .767.125.767.548 0 .423-.343.486-.767.486h-8.02v7.008h13.98v-7.008h-2.127c-.423 0-.766-.063-.766-.486 0-.424.343-.548.766-.548h1.534c.847 0 1.596.687 1.596 1.534v5.977c0 .846-.687 1.534-1.534 1.534h-12.94a1.534 1.534 0 0 1-1.533-1.534zm-.156 4.006c0-.424.343-.486.767-.486h2.675c.423 0 .766.062.766.486 0 .423-.343.486-.766.486H964.6c-.424 0-.767-.063-.767-.486zm16.225 0c0 .423-.343.486-.767.486h-2.58c-.424 0-.768-.063-.768-.486 0-.424.344-.486.767-.486h2.581c.424 0 .767.062.767.486zm-6.04 0c0 .423-.343.486-.766.486h-2.519c-.423 0-.766-.063-.766-.486 0-.424.343-.486.766-.486h2.519c.423 0 .766.062.766.486zm-10.185 4.052c0-.423.343-.516.767-.516h2.675c.423 0 .766.093.766.516 0 .424-.343.455-.766.455H964.6c-.424 0-.767-.031-.767-.455zm16.225 0c0 .424-.343.454-.767.454h-2.58c-.424 0-.768-.03-.768-.454 0-.423.344-.516.767-.516h2.581c.424 0 .767.093.767.516zm-6.04 0c0 .424-.343.454-.766.454h-2.519c-.423 0-.766-.03-.766-.454 0-.423.343-.516.766-.516h2.519c.423 0 .766.093.766.516zm-10.185 3.958c0-.424.343-.485.767-.485h2.675c.423 0 .766.061.766.485s-.343.486-.766.486H964.6c-.424 0-.767-.062-.767-.486zm16.225 0c0 .424-.343.485-.767.485h-2.58c-.424 0-.768-.061-.768-.485s.344-.485.767-.485h2.581c.424 0 .767.061.767.485zm-6.04 0c0 .424-.343.485-.766.485h-2.519c-.423 0-.766-.061-.766-.485s.343-.485.766-.485h2.519c.423 0 .766.061.766.485zm-10.185 4.021c0-.424.343-.516.767-.516h2.675c.423 0 .766.092.766.516 0 .424-.343.485-.766.485H964.6c-.424 0-.767-.061-.767-.485zm16.225 0c0 .424-.343.485-.767.485h-2.58c-.424 0-.768-.061-.768-.485s.344-.516.767-.516h2.581c.424 0 .767.092.767.516zm-6.04 0c0 .424-.343.485-.766.485h-2.519c-.423 0-.766-.061-.766-.485s.343-.516.766-.516h2.519c.423 0 .766.092.766.516z"/></defs><g><g transform="translate(-938 -4929)"><use fill="#7f8890" xlink:href="#bziia"/></g></g></svg>