<svg xmlns="http://www.w3.org/2000/svg" xmlns:xlink="http://www.w3.org/1999/xlink" width="46" height="46" viewBox="0 0 46 46"><defs><path id="nvhia" d="M1309.012 4486.377v39.245a3.375 3.375 0 0 1-3.364 3.377h-19.298a3.375 3.375 0 0 1-3.363-3.378v-39.244a3.375 3.375 0 0 1 3.363-3.377h19.299a3.375 3.375 0 0 1 3.363 3.377zm-23.998 30.607h21.971v-25.976h-21.97zm0-30.17v2.192h21.971v-2.192a1.843 1.843 0 0 0-1.837-1.845h-18.297a1.843 1.843 0 0 0-1.837 1.845zm21.971 38.308v-6.167h-21.97v6.167c0 1.016.823 1.843 1.836 1.843h18.298a1.842 1.842 0 0 0 1.836-1.843zm-7.931-2.49a3.064 3.064 0 0 1-3.054 3.067 3.064 3.064 0 0 1-3.055-3.067c0-1.69 1.37-3.066 3.055-3.066a3.064 3.064 0 0 1 3.054 3.066zm-1.527 0c0-.845-.685-1.533-1.527-1.533-.843 0-1.528.688-1.528 1.533s.685 1.533 1.528 1.533c.842 0 1.527-.688 1.527-1.533zm-5.346-35.66c0-.424.342-1.017.764-1.017H1296c.422 0 .763.593.763 1.017 0 .423-.341.985-.763.985h-3.055c-.422 0-.764-.561-.764-.985zm5.346 0c0-.424.341-1.017.763-1.017h.764c.422 0 .764.593.764 1.017 0 .423-.342.985-.764.985h-.764c-.422 0-.763-.561-.763-.985zm18.794 12.088a.762.762 0 0 1-1.08 0 .768.768 0 0 1 0-1.084c2.853-2.865 2.853-7.526 0-10.39a.769.769 0 0 1 0-1.084.76.76 0 0 1 1.08 0c3.448 3.463 3.448 9.097 0 12.558zm-1.304-6.172a6.53 6.53 0 0 1-1.912 4.64.762.762 0 0 1-1.08 0 .769.769 0 0 1 0-1.085 5.003 5.003 0 0 0 1.465-3.555c0-1.345-.52-2.609-1.464-3.557a.768.768 0 0 1 0-1.084.76.76 0 0 1 1.08 0 6.528 6.528 0 0 1 1.911 4.641zm-38.259 5.088a.768.768 0 0 1-.54 1.309.762.762 0 0 1-.54-.225c-3.448-3.462-3.448-9.095 0-12.558a.76.76 0 0 1 1.08 0c.299.3.299.785 0 1.085-2.854 2.864-2.854 7.525 0 10.39zm3.216-8.857a5.004 5.004 0 0 0-1.465 3.556c0 1.345.52 2.608 1.465 3.556a.769.769 0 0 1-.54 1.31.762.762 0 0 1-.54-.225 6.531 6.531 0 0 1-1.912-4.64c0-1.755.679-3.403 1.912-4.64a.76.76 0 0 1 1.08 0c.297.3.297.784 0 1.083z"/></defs><g><g transform="translate(-1273 -4483)"><use fill="#7f8890" xlink:href="#nvhia"/></g></g></svg>