<svg xmlns="http://www.w3.org/2000/svg" xmlns:xlink="http://www.w3.org/1999/xlink" width="40" height="40" viewBox="0 0 40 40"><defs><path id="g8wha" d="M715 7221.807a.638.638 0 0 1-.638.639h-9.433v1.915a.638.638 0 1 1-1.277 0v-1.915h-14.751v1.915a.638.638 0 1 1-1.277 0v-1.915h-9.433a.638.638 0 0 1-.638-.639v-5.39h-1.915a.638.638 0 1 1 0-1.277h1.915v-4.75h-1.915a.638.638 0 1 1 0-1.277h1.915v-4.752h-1.915a.639.639 0 0 1 0-1.277h1.915v-4.751h-1.915a.639.639 0 0 1 0-1.277h1.915v-4.752h-1.915a.638.638 0 1 1 0-1.276h1.915v-5.391a.638.638 0 0 1 1.277 0v35.532h35.532c.352 0 .638.287.638.638zm-34.043-2.552v-15.533c0-.352.286-.638.639-.638h6.666c.353 0 .639.286.639.638v5.391h5.673c.353 0 .639.285.639.638v9.504a.638.638 0 0 1-1.277 0v-8.866h-5.035v8.866a.638.638 0 0 1-1.277 0v-14.894h-5.39v14.894a.639.639 0 0 1-1.277 0zm16.383 0v-27.589c0-.353.286-.638.639-.638h6.312c.352 0 .638.285.638.638v5.39h6.028c.353 0 .639.286.639.638v21.561a.638.638 0 0 1-1.277 0v-20.922h-5.39v20.922a.638.638 0 0 1-1.277 0v-26.951h-5.035v26.951a.638.638 0 0 1-1.277 0z"/></defs><g><g transform="translate(-675 -7185)"><use fill="#f0aa06" xlink:href="#g8wha"/></g></g></svg>