<svg xmlns="http://www.w3.org/2000/svg" xmlns:xlink="http://www.w3.org/1999/xlink" width="40" height="40" viewBox="0 0 40 40"><defs><path id="liv4a" d="M1314.942 7203.014a.667.667 0 0 1-.665.648h-.02a.667.667 0 0 1-.647-.685c.127-4.505-1.58-8.869-4.678-11.971-3.1-3.104-7.466-4.8-11.956-4.684-.363.023-.674-.28-.685-.647a.668.668 0 0 1 .647-.687c4.865-.145 9.578 1.713 12.936 5.074 3.357 3.36 5.204 8.083 5.068 12.952zm-5.329-.038c.105-3.472-1.174-6.803-3.507-9.14-2.283-2.286-5.615-3.574-9.138-3.512h-.011a.666.666 0 0 1-.01-1.334c3.908-.046 7.565 1.363 10.1 3.902 2.593 2.596 4.014 6.286 3.899 10.124a.667.667 0 0 1-.666.646h-.02a.666.666 0 0 1-.647-.686zm-13.322-9.317c0-.369.297-.668.666-.668 1.694 0 4.892.356 7.265 2.731 2.372 2.376 2.727 5.578 2.727 7.274a.666.666 0 1 1-1.333 0c0-1.49-.303-4.294-2.336-6.33-2.033-2.037-4.835-2.34-6.323-2.34a.667.667 0 0 1-.666-.667zm14.473 23.274c.26.261.26.683 0 .943l-1.866 1.87a.664.664 0 0 1-.942 0 .666.666 0 0 1 0-.942l1.395-1.399-6.649-6.658-3.324 3.33c-2.123 2.126-6.319 2.216-10.905-2.376-4.246-4.252-4.484-8.168-2.81-10.413l-5.255-5.262a.668.668 0 0 1 .942-.943l5.692 5.7c.26.26.26.682 0 .943-1.654 1.656-1.562 5.092 2.373 9.032 3.936 3.94 7.367 4.031 9.021 2.376l3.795-3.801c.25-.25.692-.25.942 0zm-3.794 3.801a.663.663 0 0 1 0 .943c-2.21 2.212-4.557 3.322-7.008 3.322-1.206 0-2.437-.268-3.689-.806-.185-.074-4.933-2.021-11.596-8.692-6.662-6.67-8.607-11.425-8.688-11.623-1.927-3.854-1.203-6.967 2.521-10.696l3.795-3.8c.25-.25.692-.25.942 0l7.592 7.6a.668.668 0 0 1 0 .943l-1.899 1.9a.665.665 0 1 1-.942-.942l1.427-1.428-6.65-6.657-3.323 3.328c-3.285 3.287-3.914 5.869-2.248 9.205.041.097 1.97 4.774 8.415 11.227 6.47 6.479 11.117 8.385 11.163 8.402 3.132 1.344 5.998.765 8.765-1.765l-5.213-5.22a.668.668 0 0 1 .942-.942z"/></defs><g><g transform="translate(-1275 -7185)"><use fill="#f0aa06" xlink:href="#liv4a"/></g></g></svg>