<svg xmlns="http://www.w3.org/2000/svg" xmlns:xlink="http://www.w3.org/1999/xlink" width="40" height="40" viewBox="0 0 40 40"><defs><path id="plkqa" d="M715 6793.037v2.03a2.13 2.13 0 0 1-1.708 2.083l-3.349.67a12.527 12.527 0 0 1-.849 2.05l1.895 2.842a2.13 2.13 0 0 1-.266 2.68l-1.436 1.436a2.127 2.127 0 0 1-2.68.265l-3.159-2.106a.631.631 0 1 1 .7-1.051l3.16 2.107a.865.865 0 0 0 1.086-.108l1.436-1.436a.864.864 0 0 0 .108-1.087l-2.106-3.159a.631.631 0 0 1-.025-.66c.442-.784.788-1.621 1.03-2.487a.634.634 0 0 1 .485-.45l3.723-.744a.865.865 0 0 0 .692-.845v-2.03a.863.863 0 0 0-.692-.845l-3.723-.744a.633.633 0 0 1-.484-.45 11.242 11.242 0 0 0-1.03-2.487.63.63 0 0 1 .024-.66l2.106-3.16a.864.864 0 0 0-.108-1.086l-1.436-1.436a.863.863 0 0 0-1.086-.108l-3.16 2.107a.633.633 0 0 1-.66.024c-.783-.44-1.62-.788-2.487-1.03a.63.63 0 0 1-.45-.485l-.744-3.722a.863.863 0 0 0-.844-.693h-2.031a.864.864 0 0 0-.845.693l-.744 3.722a.63.63 0 0 1-.45.484c-.866.243-1.703.59-2.487 1.031a.633.633 0 0 1-.66-.024l-3.159-2.107a.864.864 0 0 0-1.087.108l-1.436 1.436a.864.864 0 0 0-.107 1.087l2.106 3.16a.631.631 0 0 1 .024.66c-.44.783-.788 1.619-1.03 2.486a.633.633 0 0 1-.485.45l-3.722.744a.864.864 0 0 0-.692.845v2.03c0 .409.291.764.692.844l2.169.434a.632.632 0 0 1-.248 1.24l-2.168-.435a2.13 2.13 0 0 1-1.708-2.083v-2.03a2.13 2.13 0 0 1 1.708-2.084l3.349-.67c.221-.707.506-1.393.849-2.048l-1.895-2.843a2.13 2.13 0 0 1 .265-2.68l1.436-1.436a2.13 2.13 0 0 1 2.68-.266l2.843 1.895a12.558 12.558 0 0 1 2.049-.85l.67-3.348a2.13 2.13 0 0 1 2.083-1.708h2.03a2.13 2.13 0 0 1 2.084 1.708l.67 3.349c.706.222 1.393.506 2.049.849l2.842-1.895a2.13 2.13 0 0 1 2.68.266l1.436 1.436a2.13 2.13 0 0 1 .266 2.681l-1.895 2.842c.343.655.627 1.342.849 2.048l3.349.67a2.13 2.13 0 0 1 1.708 2.084zm-12.632 8.173v.842c0 .662-.28 1.262-.728 1.684a2.31 2.31 0 0 1 .728 1.685v.841c0 .663-.28 1.262-.728 1.685a2.31 2.31 0 0 1 .728 1.685v.841a2.31 2.31 0 0 1-.728 1.684 2.31 2.31 0 0 1 .728 1.684v.842a2.318 2.318 0 0 1-2.315 2.316h-11.441a3.485 3.485 0 0 1-2.474-1.02 2.25 2.25 0 0 0-1.592-.664H683v.21c0 .813-.661 1.474-1.474 1.474h-5.052a1.475 1.475 0 0 1-1.474-1.474v-14.315c0-.813.661-1.474 1.474-1.474h5.052c.813 0 1.474.661 1.474 1.474v.21h1.523c.453 0 .855-.29.998-.72l.235-.705a20.084 20.084 0 0 0 1.033-6.364 2.318 2.318 0 0 1 2.316-2.316c.844 0 1.637.328 2.233.925.597.596.925 1.39.925 2.233v6.737a.631.631 0 0 1-1.263 0v-6.737c0-.506-.197-.981-.555-1.34a1.88 1.88 0 0 0-1.34-.555c-.58 0-1.053.472-1.053 1.053 0 2.303-.369 4.578-1.097 6.764l-.235.705a2.313 2.313 0 0 1-2.197 1.584H683v1.894a.632.632 0 1 1-1.263 0v-3.368a.211.211 0 0 0-.21-.21h-5.053a.21.21 0 0 0-.21.21v14.315c0 .117.094.211.21.211h1.894v-8.632a.631.631 0 0 1 1.264 0v8.632h1.894a.21.21 0 0 0 .21-.21v-8.42a.632.632 0 1 1 1.264 0v6.946h1.546c.933 0 1.815.366 2.483 1.031.424.422.986.653 1.583.653h11.44c.581 0 1.053-.472 1.053-1.052v-.843c0-.58-.472-1.053-1.052-1.053h-5.895a.63.63 0 1 1 0-1.262h5.895c.58 0 1.052-.472 1.052-1.053v-.841c0-.582-.472-1.054-1.052-1.054h-5.895a.631.631 0 0 1 0-1.263h5.895c.58 0 1.052-.472 1.052-1.052v-.842c0-.581-.472-1.053-1.052-1.053h-5.895a.632.632 0 0 1 0-1.264h5.895c.58 0 1.052-.472 1.052-1.052v-.842c0-.58-.472-1.053-1.052-1.053h-5.895a.632.632 0 0 1 0-1.263h5.895a2.318 2.318 0 0 1 2.315 2.316zm-7.624-6.658a3.246 3.246 0 0 1 2.703-3.703 3.245 3.245 0 0 1 3.703 2.703 3.245 3.245 0 0 1-3.205 3.742 3.247 3.247 0 0 1-3.2-2.742zm1.248-.195a1.981 1.981 0 0 0 2.26 1.65 1.98 1.98 0 0 0 1.65-2.26 1.982 1.982 0 0 0-2.26-1.65 1.98 1.98 0 0 0-1.65 2.26zm7.23 5.625a.632.632 0 0 1-.02-.893 7.231 7.231 0 0 0 1.937-6.16 7.2 7.2 0 0 0-1.289-3.138.633.633 0 0 1 1.024-.741 8.453 8.453 0 0 1 1.513 3.684 8.484 8.484 0 0 1-2.272 7.228.629.629 0 0 1-.893.02zm-.892-11.741a7.224 7.224 0 0 0-5.505-1.381 7.236 7.236 0 0 0-5.268 3.705.631.631 0 1 1-1.108-.605 8.487 8.487 0 0 1 6.18-4.348 8.471 8.471 0 0 1 6.461 1.62.632.632 0 0 1-.76 1.009z"/></defs><g><g transform="translate(-675 -6777)"><use fill="#f0aa06" xlink:href="#plkqa"/></g></g></svg>