<svg xmlns="http://www.w3.org/2000/svg" xmlns:xlink="http://www.w3.org/1999/xlink" width="40" height="40" viewBox="0 0 40 40"><defs><path id="nk6ca" d="M1015 6797.017a20.014 20.014 0 0 1-5.972 14.244c-7.875 7.752-20.541 7.652-28.292-.224-7.75-7.877-7.65-20.547.225-28.3 7.874-7.752 20.54-7.651 28.291.225l.154-1.742a.77.77 0 1 1 1.535.13l-.308 3.523a.778.778 0 0 1-.038.146.756.756 0 0 1 0 .123.964.964 0 0 1-.322.33l-.085.054a.737.737 0 0 1-.284.053l-3.522-.145a.767.767 0 1 1 0-1.535l1.711.068a18.5 18.5 0 0 0-13.12-5.467c-10.217-.006-18.506 8.275-18.511 18.496-.006 10.22 8.273 18.511 18.491 18.517 10.218.005 18.506-8.275 18.512-18.496a.767.767 0 0 1 1.535 0zm-20.397 5.457c.008.317-.11.624-.33.852-.272.25-.637.376-1.005.346h-7.52a1.632 1.632 0 0 1-1.198-.422 1.361 1.361 0 0 1-.43-.998c.026-.34.12-.672.276-.975.149-.35.354-.675.607-.96a54.633 54.633 0 0 1 2.494-2.425c.483-.472.996-.913 1.534-1.32a8.982 8.982 0 0 0 1.397-1.19c.34-.376.617-.803.821-1.267a2.92 2.92 0 0 0 .292-1.228 2.225 2.225 0 0 0-.315-1.166 2.16 2.16 0 0 0-.852-.768 2.443 2.443 0 0 0-1.128-.3 2.385 2.385 0 0 0-2.102 1.175c-.14.268-.256.548-.346.836-.12.38-.304.735-.544 1.052a1.07 1.07 0 0 1-.883.368 1.147 1.147 0 0 1-.852-.337 1.245 1.245 0 0 1-.337-.921 3.842 3.842 0 0 1 .314-1.474c.219-.522.54-.995.944-1.39a4.673 4.673 0 0 1 1.596-1.005 6.127 6.127 0 0 1 2.264-.384 6.52 6.52 0 0 1 2.64.507c.474.215.901.52 1.259.898a4.222 4.222 0 0 1 1.143 2.886 4.362 4.362 0 0 1-.63 2.303 7.164 7.164 0 0 1-1.28 1.627 89.727 89.727 0 0 1-2.196 1.843 16.478 16.478 0 0 0-2.11 1.948c-.182.211-.349.434-.499.669H993c.43-.028.856.089 1.212.33.266.216.412.548.392.89zm12.877-3.155a.983.983 0 0 1-.392.883c-.353.204-.76.297-1.166.269h-.622v1.919c.026.408-.097.811-.345 1.136a1.305 1.305 0 0 1-1.857 0 1.691 1.691 0 0 1-.346-1.136v-1.927h-5.133a2.112 2.112 0 0 1-1.458-.438 1.534 1.534 0 0 1-.484-1.197c0-.133.024-.266.07-.392.054-.148.126-.29.214-.421.097-.144.197-.285.3-.423l.375-.499 5.418-7.253c.263-.37.555-.715.875-1.036.22-.212.516-.328.821-.323 1.023 0 1.535.593 1.535 1.78v7.915h.437c.437-.026.874.042 1.282.2a.92.92 0 0 1 .476.943zm-4.735-7.108l-4.397 5.942h4.397z"/></defs><g><g transform="translate(-975 -6777)"><use fill="#f0aa06" xlink:href="#nk6ca"/></g></g></svg>