<svg xmlns="http://www.w3.org/2000/svg" xmlns:xlink="http://www.w3.org/1999/xlink" width="40" height="40" viewBox="0 0 40 40"><defs><path id="d40ba" d="M1310.714 6805.119c.303.21.377.626.167.928l-4.143 5.953a.667.667 0 0 1-.97.134l-3.19-2.62a.665.665 0 1 1 .845-1.03l2.632 2.161 3.73-5.36a.665.665 0 0 1 .929-.166zm-13.047-8.2a2.67 2.67 0 0 1-2.667 2.667 2.662 2.662 0 0 1-2.547-1.92h-4.786a.666.666 0 1 1 0-1.334h4.736c.219-.971.97-1.736 1.93-1.985v-6.762a.667.667 0 1 1 1.334 0v6.762c1.146.298 2 1.332 2 2.571zm-1.334 0c0-.736-.598-1.334-1.333-1.334s-1.333.598-1.333 1.333c0 .736.598 1.334 1.333 1.334s1.333-.598 1.333-1.334zm-2-14v-.667a.667.667 0 1 1 1.334 0v.667a.666.666 0 1 1-1.334 0zm1.334 28v.667a.666.666 0 0 1-1.334 0v-.667a.666.666 0 0 1 1.334 0zm12.666-14c0-.368.299-.667.667-.667h.667a.667.667 0 0 1 0 1.334H1309a.667.667 0 0 1-.667-.668zm-26.666 0c0 .369-.3.667-.667.667h-.667a.667.667 0 1 1 0-1.334h.667c.368 0 .667.299.667.666zm22.76-9.429a.666.666 0 0 1 0-.942l.472-.472a.667.667 0 0 1 .943.942l-.471.472a.665.665 0 0 1-.943 0zm-18.855 18.857c.26.26.26.682 0 .943l-.471.47a.665.665 0 0 1-.943 0 .666.666 0 0 1 0-.942l.471-.471a.665.665 0 0 1 .943 0zm0-19.8a.666.666 0 1 1-.943.943l-.471-.472a.666.666 0 1 1 .943-.942zm28.195 17.352a8.603 8.603 0 0 1 1.233 4.433c0 4.779-3.888 8.667-8.667 8.667a8.606 8.606 0 0 1-4.433-1.233 19.902 19.902 0 0 1-6.9 1.233c-11.028 0-20-8.972-20-20s8.972-20 20-20 20 8.972 20 20c0 2.366-.418 4.685-1.233 6.9zm-13.354 10.745a8.975 8.975 0 0 1-1.175-1.352 7.794 7.794 0 0 1-.215-.326 9.16 9.16 0 0 1-.248-.408c-.066-.118-.125-.238-.185-.358-.07-.137-.14-.274-.2-.415-.06-.136-.11-.274-.162-.414-.05-.133-.103-.264-.146-.398-.052-.161-.092-.326-.134-.49-.03-.12-.067-.238-.093-.36-.041-.196-.068-.397-.096-.598-.014-.095-.034-.187-.044-.284a8.698 8.698 0 0 1-.048-.909c0-4.779 3.888-8.667 8.666-8.667.308 0 .61.018.908.05.095.01.188.029.282.042.202.028.404.056.6.098.12.025.237.06.356.09.166.043.333.084.495.136.133.043.263.095.394.145.14.052.282.103.419.163.139.061.274.13.41.199.122.06.244.12.363.187.137.076.27.16.403.244.112.072.224.143.332.219a9.101 9.101 0 0 1 .696.545 8.715 8.715 0 0 1 .657.632c.053.058.113.109.165.168.567-1.806.854-3.679.854-5.584 0-10.292-8.374-18.666-18.667-18.666-10.293 0-18.667 8.374-18.667 18.666 0 10.293 8.374 18.667 18.667 18.667 1.905 0 3.778-.288 5.583-.854-.06-.054-.112-.114-.17-.168zm13.254-6.312a7.28 7.28 0 0 0-1.208-4.019 7.37 7.37 0 0 0-.517-.694c-.034-.04-.071-.077-.106-.117a7.611 7.611 0 0 0-.671-.67 6.62 6.62 0 0 0-.422-.344c-.08-.06-.156-.122-.237-.177a7.245 7.245 0 0 0-1.416-.768c-.086-.036-.175-.065-.263-.097a7.451 7.451 0 0 0-.816-.245 7.463 7.463 0 0 0-.575-.11c-.085-.013-.17-.028-.255-.038a7.386 7.386 0 0 0-.848-.054c-4.043 0-7.333 3.29-7.333 7.333 0 .286.02.568.053.848.01.086.026.17.039.255a7.129 7.129 0 0 0 .354 1.393c.032.087.061.175.096.261.09.221.19.437.3.647l.09.163c.115.209.242.411.379.606.056.081.117.158.176.237a7.89 7.89 0 0 0 .538.636c.152.16.31.312.476.457.04.035.077.072.117.106.22.185.452.358.696.518a7.283 7.283 0 0 0 4.02 1.207c4.043 0 7.333-3.29 7.333-7.334z"/></defs><g><g transform="translate(-1275 -6777)"><use fill="#f0aa06" xlink:href="#d40ba"/></g></g></svg>