<svg xmlns="http://www.w3.org/2000/svg" xmlns:xlink="http://www.w3.org/1999/xlink" width="40" height="37" viewBox="0 0 40 37"><defs><path id="4kkqa" d="M415 7046.233v3.926c0 .335-.27.607-.601.607h-9.253a.604.604 0 0 1-.601-.607c0-.336.269-.608.6-.608h8.652v-3.318c0-1.239-.997-2.247-2.223-2.247h-2.285a.605.605 0 0 1-.602-.608v-1.965c0-.212.107-.398.269-.506l1.094-1.22c.345-.382.534-.878.534-1.396v-2.774c0-1.269-1.022-2.302-2.278-2.302h-1.6c-1.257 0-2.279 1.033-2.279 2.302v2.774c0 .518.19 1.014.534 1.397l1.094 1.218a.61.61 0 0 1 .27.507v1.965c0 .335-.27.608-.602.608h-2.286c-1.096 0-2.01.807-2.19 1.864a3.833 3.833 0 0 1 2.102 3.425v4.421a.605.605 0 0 1-.602.608h-15.526a.605.605 0 0 1-.601-.608v-4.421c0-1.51.87-2.818 2.13-3.44a2.233 2.233 0 0 0-2.188-1.85h-2.285a.605.605 0 0 1-.602-.607v-1.965c0-.212.107-.398.27-.506l1.094-1.22c.344-.382.533-.878.533-1.396v-2.774c0-1.269-1.022-2.302-2.278-2.302h-1.6c-1.257 0-2.278 1.033-2.278 2.302v2.774c0 .518.19 1.014.533 1.397l1.095 1.219a.606.606 0 0 1 .269.506v1.965c0 .336-.27.608-.602.608h-2.285c-1.226 0-2.223 1.008-2.223 2.247v3.318h8.754c.333 0 .602.272.602.608 0 .335-.27.607-.602.607h-9.356a.604.604 0 0 1-.601-.607v-3.926c0-1.91 1.537-3.463 3.426-3.463h1.684v-1.095l-1.051-1.17a3.306 3.306 0 0 1-.846-2.214v-2.774c0-1.94 1.561-3.518 3.48-3.518h1.601c1.92 0 3.48 1.578 3.48 3.518v2.774c0 .82-.3 1.607-.845 2.214l-1.05 1.17v1.095h1.683c1.635 0 3.005 1.164 3.345 2.714a3.74 3.74 0 0 1 .495-.033h1.973v-1.339l-1.203-1.34a3.648 3.648 0 0 1-.933-2.442v-3.124c0-2.143 1.724-3.886 3.844-3.886.332 0 .601.273.601.608 0 .335-.27.608-.601.608-1.457 0-2.642 1.197-2.642 2.67v3.124c0 .602.22 1.18.621 1.625l1.24 1.38a.609.609 0 0 1 .276.51v2.214c0 .336-.27.607-.602.607h-2.574c-.264 0-.52.041-.76.117a.591.591 0 0 1-.132.044 2.612 2.612 0 0 0-1.687 2.448v3.814h14.323v-3.814c0-1.439-1.157-2.609-2.58-2.609h-2.574a.604.604 0 0 1-.6-.607v-2.213c0-.215.11-.403.275-.511l1.24-1.38c.4-.446.62-1.023.62-1.625v-3.124c0-1.473-1.185-2.67-2.641-2.67a.605.605 0 0 1-.601-.608c0-.335.269-.608.601-.608 2.12 0 3.844 1.743 3.844 3.886v3.124c0 .905-.331 1.772-.933 2.442l-1.203 1.34v1.34h1.972c.179 0 .354.013.526.037.338-1.553 1.71-2.719 3.345-2.719h1.685v-1.095l-1.051-1.17a3.306 3.306 0 0 1-.846-2.214v-2.774c0-1.94 1.561-3.518 3.48-3.518h1.601c1.92 0 3.48 1.578 3.48 3.518v2.774c0 .82-.3 1.607-.845 2.214l-1.051 1.17v1.095h1.684c1.89 0 3.426 1.553 3.426 3.463zm-14.097 16.39l-2.34 2.392.502 3.326a.611.611 0 0 1-.241.584.596.596 0 0 1-.624.05l-2.974-1.51-2.975 1.51a.601.601 0 0 1-.864-.635l.502-3.325-2.34-2.393a.612.612 0 0 1-.145-.615.602.602 0 0 1 .475-.412l3.285-.545 1.528-2.989a.6.6 0 0 1 1.068 0l1.528 2.989 3.285.545a.612.612 0 0 1 .33 1.027zm-1.674-.019l-2.434-.404a.6.6 0 0 1-.437-.321l-1.132-2.215-1.133 2.215a.6.6 0 0 1-.436.32l-2.435.405 1.735 1.773c.134.137.195.33.167.52l-.372 2.465 2.204-1.12a.603.603 0 0 1 .54 0l2.204 1.12-.372-2.466a.613.613 0 0 1 .167-.519zm14.837-4.451l-2.34 2.392.502 3.327a.611.611 0 0 1-.241.583.595.595 0 0 1-.624.052l-2.974-1.51-2.975 1.51a.597.597 0 0 1-.623-.052.612.612 0 0 1-.241-.583l.502-3.327-2.34-2.392a.612.612 0 0 1 .33-1.027l3.285-.546 1.528-2.988a.601.601 0 0 1 .534-.33.6.6 0 0 1 .534.33l1.528 2.988 3.285.546a.612.612 0 0 1 .33 1.027zm-1.674-.018l-2.434-.404a.6.6 0 0 1-.437-.32l-1.132-2.216-1.132 2.215a.6.6 0 0 1-.437.321l-2.435.404 1.735 1.773c.134.137.196.33.167.52l-.372 2.464 2.204-1.12a.587.587 0 0 1 .54 0l2.204 1.12-.372-2.465a.613.613 0 0 1 .167-.519zm-24.652.018l-2.34 2.392.501 3.327a.61.61 0 0 1-.24.583.595.595 0 0 1-.624.052l-2.974-1.51-2.975 1.51a.597.597 0 0 1-.623-.052.61.61 0 0 1-.241-.583l.502-3.327-2.34-2.392a.613.613 0 0 1-.145-.615.606.606 0 0 1 .475-.412l3.285-.545 1.527-2.99a.601.601 0 0 1 .535-.329c.225 0 .43.128.534.33l1.528 2.988 3.285.545a.606.606 0 0 1 .474.413.612.612 0 0 1-.144.615zm-1.674-.018l-2.434-.404a.6.6 0 0 1-.437-.32l-1.132-2.216-1.132 2.215a.601.601 0 0 1-.437.321l-2.435.404 1.735 1.773c.133.137.195.33.167.52l-.373 2.464 2.205-1.12a.587.587 0 0 1 .54 0l2.204 1.12-.372-2.465a.612.612 0 0 1 .167-.519z"/></defs><g><g transform="translate(-375 -7032)"><use fill="#f0aa06" xlink:href="#4kkqa"/></g></g></svg>