<svg xmlns="http://www.w3.org/2000/svg" xmlns:xlink="http://www.w3.org/1999/xlink" width="40" height="40" viewBox="0 0 40 40"><defs><path id="aeena" d="M712.775 7045.469a14.303 14.303 0 0 1-4.804 4.786c-2.172 1.308-4.343 1.582-5.782 1.582-.461 0-.83-.03-1.076-.056a9.173 9.173 0 0 1-2.248 1.795 2.34 2.34 0 0 0-1.143 1.56 1.96 1.96 0 0 1 1.377 1.87 1.96 1.96 0 0 1-1.43 1.884v2.494h3.214v2.601h3.172V7069h-18.031v-5.015h3.172v-2.601h3.214v-2.494a1.96 1.96 0 0 1-1.43-1.884c0-.878.58-1.621 1.376-1.87a2.34 2.34 0 0 0-1.142-1.56c-.802-.446-1.552-1.046-2.247-1.795-.021.001-.04.004-.062.007-.32.032-.661.049-1.016.049-1.439 0-3.61-.274-5.782-1.582a14.29 14.29 0 0 1-4.804-4.786c-1.541-2.525-2.303-5.497-2.264-8.838.04-3.395 1.778-5.265 4.893-5.265 1.207 0 2.37.28 3.129.515a47.618 47.618 0 0 1-.079-2.288V7029h24.114v.593c0 .043 0 .9-.077 2.287.76-.234 1.922-.514 3.127-.514 3.115 0 4.853 1.87 4.893 5.265.039 3.34-.723 6.313-2.264 8.838zm-28.594-15.282c.006.218.015.49.028.81h21.663c.013-.32.021-.592.026-.81zm19.42 17.794c.854-.09 1.874-.341 2.821-.949 2.718-1.746 4.532-5.01 5.106-9.192.138-1.004.016-1.733-.362-2.167-.33-.378-.893-.57-1.677-.57-.934 0-1.978.272-2.783.538-.422 3.772-1.297 8.54-3.105 12.34zm-20.227-12.338c-.806-.268-1.85-.538-2.785-.538-.783 0-1.348.19-1.677.569-.378.433-.5 1.162-.362 2.166.574 4.182 2.388 7.446 5.106 9.192.946.608 1.965.859 2.82.95l-.095-.202c-1.007-2.174-1.813-4.865-2.398-8a57.754 57.754 0 0 1-.61-4.137zm4.663 15.005l-.057-.08a25 25 0 0 1-.24-.348 10.246 10.246 0 0 1-.124-.188l-.069-.104c-.06-.094-.12-.191-.179-.288l-.058-.096a18.277 18.277 0 0 1-.184-.315l-.011-.019c-1.11-.023-2.664-.256-4.101-1.178-1.472-.945-2.701-2.262-3.654-3.913-.999-1.731-1.667-3.79-1.987-6.118-.187-1.358.03-2.405.644-3.11.565-.647 1.43-.976 2.572-.976.893 0 1.844.204 2.651.441-.036-.398-.07-.798-.1-1.196-.593-.21-1.893-.606-3.208-.606-2.46 0-3.672 1.338-3.705 4.091-.091 7.784 4.51 11.4 6.493 12.593 1.938 1.166 3.881 1.411 5.17 1.411l.147-.001zm-.825 14.527v2.636h15.655v-2.636zm3.172-2.603v1.414h9.31v-1.414zm6.096-1.188v-2.421h-2.882v2.42zm.662-5.147h-4.205a.77.77 0 0 0 0 1.538h4.205a.77.77 0 0 0 0-1.538zm4.95-7.905l.17-.312c1.922-3.713 2.834-8.644 3.265-12.514l.039-.365c.064-.605.12-1.216.168-1.826l.001-.017c.015-.192.03-.384.042-.575l.002-.026.033-.511h-21.54c.232 3.79 1.005 10.923 3.56 15.86l.155.286c.507.937 1.064 1.753 1.654 2.426l.146.166a8.034 8.034 0 0 0 2.004 1.614 3.531 3.531 0 0 1 1.758 2.51h2.98a3.532 3.532 0 0 1 1.758-2.51c.764-.425 1.487-1.024 2.15-1.78l.009-.01a9.962 9.962 0 0 0 .417-.508l.02-.025c.426-.555.83-1.186 1.209-1.883zm11.76-11.687c-.033-2.753-1.245-4.091-3.705-4.091-1.316 0-2.616.397-3.21.606l-.002.03c-.028.371-.06.76-.097 1.166.807-.237 1.759-.44 2.651-.44 1.142 0 2.008.328 2.573.976.614.704.83 1.75.644 3.11-.32 2.328-.989 4.387-1.987 6.117-.954 1.651-2.183 2.968-3.655 3.913-1.437.922-2.991 1.156-4.1 1.178l-.038.064-.16.274-.031.052c-.066.109-.134.217-.202.325l-.047.072c-.062.096-.124.19-.187.284-.01.012-.018.026-.027.04-.075.109-.151.217-.228.323l-.003.004.148.001c1.288 0 3.23-.245 5.17-1.41 1.982-1.194 6.583-4.81 6.492-12.594zm-22.826 12.824l-.87.81c-.379-.407-.743-.874-1.082-1.39l.992-.653c.303.46.626.875.96 1.233zm-1.374-1.912l-1.033.587c-.93-1.637-1.691-3.734-2.261-6.231l1.158-.264c.544 2.384 1.263 4.372 2.136 5.908zm19.046 7.499l.001 1.003h-1.188v-1.002h-1.004v-1.187l1.002-.002v-1.003h1.188v1.003l1.003-.001.001 1.188zm-25.69 6.17v.842l-1.187.001-.001-.842-.842.001-.001-1.188h.842l-.001-.843h1.188v.84h.842l.002 1.188zm-4.154-9.714h1.12v1.189h-1.12zm7.203 3.516h1.12v1.188h-1.12zm18.065 3.574h1.12v1.188h-1.12z"/></defs><g><g transform="translate(-675 -7029)"><use fill="#f0aa06" xlink:href="#aeena"/></g></g></svg>