<svg xmlns="http://www.w3.org/2000/svg" xmlns:xlink="http://www.w3.org/1999/xlink" width="40" height="40" viewBox="0 0 40 40"><defs><path id="gf5ma" d="M1015 7049.017v.061a20.017 20.017 0 0 1-3.29 10.964.665.665 0 0 1-.134.2 19.942 19.942 0 0 1-16.576 8.834l-.018.002-.018-.002c-.7 0-1.398-.037-2.093-.11a20.038 20.038 0 0 1-15.307-10.051 20.002 20.002 0 0 1-.73-18.287l.05-.107a6.41 6.41 0 0 1 .787-1.376.647.647 0 0 1 .088-.253 20.02 20.02 0 0 1 15.903-9.766 6.763 6.763 0 0 1 2.103-.026c10.711.43 19.187 9.206 19.235 19.917zm-24.7 18.136a7.943 7.943 0 0 1-.427-.282 3.322 3.322 0 0 1-1.56-2.59c.03-.614.208-1.211.52-1.741a3.15 3.15 0 0 0 .227-.708c.085-.531.31-1.03.649-1.446a3.23 3.23 0 0 1 1.083-.722c.193-.083.376-.186.549-.305.391-.322.717-.716.959-1.16.126-.223.244-.48.368-.757.233-.6.563-1.156.978-1.648.192-.2.418-.366.667-.49v-1.767l-.051-.01a457.22 457.22 0 0 0-4.373-1.086c-1.05-.254-2.807-.679-3.595-2.099a5.202 5.202 0 0 1-.5-1.587 3.338 3.338 0 0 0-.441-1.313 3.556 3.556 0 0 0-1.932-.96l-.123-.035c-.909-.278-2.154-.776-2.606-1.933a3.797 3.797 0 0 1 .278-2.725c.27-.537.383-1.14.324-1.74a.914.914 0 0 0-.487-.643 1.346 1.346 0 0 0-.567-.114 2.316 2.316 0 0 0-.92.206 1.35 1.35 0 0 0-.43.29 4.018 4.018 0 0 0-.796 1.297l-.051.109a18.769 18.769 0 0 0-1.739 7.884 18.608 18.608 0 0 0 13.997 18.075zm4.018.574v-10.598a8.695 8.695 0 0 0-.436.858c-.133.293-.27.597-.43.874a5.24 5.24 0 0 1-1.297 1.548c-.246.18-.511.333-.79.455a2.136 2.136 0 0 0-.668.417c-.18.258-.297.555-.34.867-.07.348-.185.686-.34 1.005a2.652 2.652 0 0 0-.37 1.123c.101.625.467 1.178 1.005 1.514.272.194.573.37.892.556a7.107 7.107 0 0 1 1.773 1.318c.326.03.659.051 1 .063zm0-15.564v-.929a4.068 4.068 0 0 0-.615-.676l-.349-.259c-.947-.698-2.125-1.567-2.125-3.072a2.208 2.208 0 0 1 1.423-2.067 2.152 2.152 0 0 1 1.662.074v-12.223c-.051.004-.097.004-.15.01-.295.027-.598.056-.912.056a4.94 4.94 0 0 1-3.818-1.807 18.504 18.504 0 0 0-9.464 6.702c.485-.048.974.032 1.417.235.61.296 1.052.854 1.201 1.514a4.227 4.227 0 0 1-.361 2.523 2.73 2.73 0 0 0-.285 1.787c.239.613 1.107.94 1.739 1.134l.11.031a4.611 4.611 0 0 1 2.638 1.447c.362.558.594 1.19.679 1.85.057.416.178.82.357 1.2.466.84 1.609 1.177 2.743 1.45 1.374.331 2.743.677 4.11 1.02zm0-2.81v-2.673c-.07-.029-.136-.055-.208-.087-.45-.198-.696-.297-.973-.19a.873.873 0 0 0-.57.818c0 .782.626 1.302 1.583 2.007l.168.125zm0-18.916c-1.147.04-2.288.187-3.408.437a3.643 3.643 0 0 0 2.166.866c.323.008.646-.007.967-.045.09-.009.183-.016.275-.024zm16.446 8.67a33.495 33.495 0 0 1-5.476 1.585c.645 2.507.99 5.08 1.03 7.666l7.33-.002a18.529 18.529 0 0 0-2.884-9.25zm-10.85-8.028c2.134 1.82 3.875 4.742 5.003 8.329a33.117 33.117 0 0 0 5.079-1.42 18.747 18.747 0 0 0-10.083-6.909zm-4.262 9.273a51.518 51.518 0 0 0 7.93-.693c-1.612-5.004-4.457-8.593-7.766-9.203l-.055-.013c-.03-.006-.061-.007-.088-.013h-.021zm0 8.006h9.332a31.283 31.283 0 0 0-1.021-7.404c-2.747.46-5.526.704-8.311.725zm0 8.011v.001c2.794.021 5.582.264 8.337.727a31.66 31.66 0 0 0 .994-7.406h-9.331v3.027a.594.594 0 0 1 0 .096v3.555zm0 11.25c3.398-.517 6.325-4.097 7.961-9.225a51.597 51.597 0 0 0-7.961-.696zm14.41-7.533a32.818 32.818 0 0 0-5.157-1.45c-1.176 3.708-3.01 6.7-5.227 8.505a18.622 18.622 0 0 0 10.385-7.055zm3.587-10.395h-7.329a32.4 32.4 0 0 1-1.04 7.66 33.25 33.25 0 0 1 5.537 1.612 18.681 18.681 0 0 0 2.832-9.271z"/></defs><g><g transform="translate(-975 -7029)"><use fill="#f0aa06" xlink:href="#gf5ma"/></g></g></svg>