<svg xmlns="http://www.w3.org/2000/svg" xmlns:xlink="http://www.w3.org/1999/xlink" width="40" height="40" viewBox="0 0 40 40"><defs><path id="yrz6a" d="M1315 7040.332v27.334c0 .737-.597 1.334-1.333 1.334h-37.334a1.333 1.333 0 0 1-1.333-1.334v-27.334c0-.736.597-1.333 1.333-1.333h1.334a.667.667 0 0 1 0 1.333h-1.334v27.334h37.333v-27.334H1299a.666.666 0 1 1 0-1.333h14.666c.737 0 1.334.597 1.334 1.333zm-35.333 20v-28A3.337 3.337 0 0 1 1283 7029h9.333a3.337 3.337 0 0 1 3.334 3.333v28a3.338 3.338 0 0 1-3.334 3.333H1283a3.338 3.338 0 0 1-3.333-3.333zm1.333 0a2 2 0 0 0 2 2h9.333a2 2 0 0 0 2-2v-28a2 2 0 0 0-2-1.999H1283a2 2 0 0 0-2 2zm17.333-11.333v-5.333c0-.736.597-1.333 1.333-1.333h6.667a.666.666 0 1 1 0 1.333h-6.667v5.333H1311v-5.333h-1.333a.666.666 0 1 1 0-1.334H1311c.736 0 1.333.598 1.333 1.334v5.333c0 .736-.597 1.333-1.333 1.333h-11.334a1.334 1.334 0 0 1-1.333-1.333zm0 4c0-.367.299-.667.667-.667h2a.667.667 0 0 1 0 1.334h-2a.667.667 0 0 1-.667-.666zm14 0a.667.667 0 0 1-.666.667h-2a.667.667 0 1 1 0-1.334h2c.368 0 .666.3.666.668zm-5.333 0a.667.667 0 0 1-.667.667h-2a.667.667 0 1 1 0-1.334h2c.368 0 .667.3.667.668zm-8.667 3.334c0-.369.299-.667.667-.667h2a.666.666 0 1 1 0 1.333h-2a.666.666 0 0 1-.667-.666zm14 0a.666.666 0 0 1-.666.666h-2a.666.666 0 1 1 0-1.333h2c.368 0 .666.298.666.666zm-5.333 0a.666.666 0 0 1-.667.666h-2a.666.666 0 1 1 0-1.333h2c.368 0 .667.298.667.666zm-8.667 3.332c0-.367.299-.666.667-.666h2a.666.666 0 1 1 0 1.334h-2a.667.667 0 0 1-.667-.668zm14 0a.667.667 0 0 1-.666.668h-2a.667.667 0 0 1 0-1.334h2c.368 0 .666.298.666.666zm-5.333 0a.667.667 0 0 1-.667.668h-2a.667.667 0 0 1 0-1.334h2c.368 0 .667.298.667.666zm-8.667 3.334c0-.368.299-.666.667-.666h2a.666.666 0 1 1 0 1.333h-2a.667.667 0 0 1-.667-.667zm14 0a.667.667 0 0 1-.666.667h-2a.667.667 0 0 1 0-1.333h2c.368 0 .666.298.666.666zm-5.333 0a.667.667 0 0 1-.667.667h-2a.667.667 0 0 1 0-1.333h2c.368 0 .667.298.667.666z"/></defs><g><g transform="translate(-1275 -7029)"><use fill="#f0aa06" xlink:href="#yrz6a"/></g></g></svg>