<svg xmlns="http://www.w3.org/2000/svg" xmlns:xlink="http://www.w3.org/1999/xlink" width="40" height="40" viewBox="0 0 40 40"><defs><path id="4t5la" d="M415 7185.635v38.697a.667.667 0 0 1-.667.667h-38.666a.667.667 0 0 1-.667-.667v-19.348a.667.667 0 0 1 1.138-.472l4.195 4.199 9.196-9.203c.26-.26.682-.26.942 0l4.529 4.532 18.862-18.875a.667.667 0 0 1 1.138.47zm-1.333 1.611l-18.196 18.21a.667.667 0 0 1-.942 0l-4.529-4.533-9.195 9.202a.665.665 0 0 1-.943 0l-3.529-3.53v17.07h37.334v-22.872l-18.338 10.433a.666.666 0 0 1-.8-.109l-4.529-4.532-9.195 9.202a.667.667 0 0 1-.943-.944l9.667-9.673a.665.665 0 0 1 .942 0l4.641 4.644 18.555-10.559zM393 7221.663c0-.368.298-.667.667-.667h2.666a.667.667 0 0 1 0 1.334h-2.666a.667.667 0 0 1-.667-.667zm5.333 0c0-.368.299-.667.667-.667h2.667a.667.667 0 0 1 0 1.334H399a.667.667 0 0 1-.667-.667zm-10.666 0c0-.368.298-.667.666-.667H391a.667.667 0 0 1 0 1.334h-2.667a.667.667 0 0 1-.666-.667z"/></defs><g><g transform="translate(-375 -7185)"><use fill="#f0aa06" xlink:href="#4t5la"/></g></g></svg>