<svg xmlns="http://www.w3.org/2000/svg" xmlns:xlink="http://www.w3.org/1999/xlink" width="46" height="46" viewBox="0 0 46 46"><defs><path id="xgi8a" d="M1202.5 2461.965c0 1.882-1.548 3.414-3.45 3.414-1.902 0-3.45-1.532-3.45-3.414 0-1.882 1.548-3.414 3.45-3.414 1.902 0 3.45 1.532 3.45 3.414zm-1.533 0c0-1.046-.86-1.896-1.917-1.896-1.056 0-1.917.85-1.917 1.896 0 1.046.86 1.897 1.917 1.897 1.056 0 1.917-.85 1.917-1.897zm28.366-1.896c.424 0 .767.34.767.758 0 .42-.343.759-.767.759a.763.763 0 0 1-.766-.759c0-.419.343-.758.766-.758zm-3.066 0c.423 0 .766.34.766.758 0 .42-.343.759-.766.759a.763.763 0 0 1-.767-.759c0-.419.343-.758.767-.758zm4.6 2.276c.423 0 .766.339.766.758a.762.762 0 0 1-.766.759.763.763 0 0 1-.767-.759c0-.419.343-.758.767-.758zm-3.067 0c.423 0 .767.339.767.758a.762.762 0 0 1-.767.759.763.763 0 0 1-.767-.759c0-.419.344-.758.767-.758zm-4.6-2.276c.423 0 .767.34.767.758 0 .42-.344.759-.767.759a.763.763 0 0 1-.767-.759c0-.419.343-.758.767-.758zm1.533 2.276c.424 0 .767.339.767.758a.762.762 0 0 1-.767.759.763.763 0 0 1-.766-.759c0-.419.343-.758.766-.758zm-4.6-2.276c.424 0 .767.34.767.758 0 .42-.343.759-.767.759a.763.763 0 0 1-.766-.759c0-.419.343-.758.766-.758zm1.534 2.276c.423 0 .766.339.766.758a.762.762 0 0 1-.766.759.763.763 0 0 1-.767-.759c0-.419.343-.758.767-.758zm-4.6-2.276c.423 0 .766.34.766.758 0 .42-.343.759-.766.759a.763.763 0 0 1-.767-.759c0-.419.343-.758.767-.758zm1.533 2.276c.423 0 .767.339.767.758a.762.762 0 0 1-.767.759.762.762 0 0 1-.767-.759c0-.419.344-.758.767-.758zm17.038 6.827c.823.64 1.362 1.623 1.362 2.737v8.94c0 1.927-1.585 3.496-3.533 3.496h-18.7v8.145a3.826 3.826 0 0 1 2.989 2.958h18.477c.423 0 .767.34.767.759 0 .42-.344.758-.767.758h-18.477A3.83 3.83 0 0 1 1214 2500a3.83 3.83 0 0 1-3.756-3.035h-18.477a.762.762 0 0 1-.767-.758c0-.42.343-.759.767-.759h18.477a3.826 3.826 0 0 1 2.99-2.958v-8.145h-18.701c-1.948 0-3.533-1.569-3.533-3.497v-8.939c0-1.113.539-2.097 1.362-2.737-.823-.64-1.362-1.623-1.362-2.738v-8.939c0-1.927 1.585-3.495 3.533-3.495h38.934c1.948 0 3.533 1.568 3.533 3.495v8.94c0 1.114-.539 2.097-1.362 2.737zM1214 2493.93c-1.268 0-2.3 1.022-2.3 2.277 0 1.254 1.032 2.276 2.3 2.276 1.268 0 2.3-1.022 2.3-2.276 0-1.255-1.032-2.277-2.3-2.277zm19.466-24h-38.933c-1.103 0-2 .888-2 1.98v8.939c0 1.09.897 1.978 2 1.978h38.934c1.103 0 2-.887 2-1.979v-8.939c0-1.09-.897-1.978-2-1.978zm.001-1.516c1.103 0 2-.888 2-1.98v-8.939c0-1.09-.897-1.978-2-1.978h-38.934c-1.103 0-2 .887-2 1.978v8.94c0 1.091.897 1.979 2 1.979zm-37.867 7.965c0-1.882 1.548-3.414 3.45-3.414 1.902 0 3.45 1.532 3.45 3.414 0 1.882-1.548 3.414-3.45 3.414-1.902 0-3.45-1.532-3.45-3.414zm1.533 0c0 1.046.86 1.897 1.917 1.897 1.056 0 1.917-.85 1.917-1.897a1.91 1.91 0 0 0-1.917-1.897 1.91 1.91 0 0 0-1.917 1.897zm32.2-1.897c.424 0 .767.34.767.759a.763.763 0 0 1-.767.759.763.763 0 0 1-.766-.759c0-.419.343-.759.766-.759zm-3.066 0c.423 0 .766.34.766.759a.763.763 0 0 1-.766.759.763.763 0 0 1-.767-.759c0-.419.343-.759.767-.759zm4.6 2.277c.423 0 .766.339.766.758s-.343.759-.766.759a.763.763 0 0 1-.767-.76c0-.418.343-.757.767-.757zm-3.067 0c.423 0 .767.339.767.758s-.344.759-.767.759a.763.763 0 0 1-.767-.76c0-.418.344-.757.767-.757zm-4.6-2.277c.423 0 .767.34.767.759a.763.763 0 0 1-.767.759.763.763 0 0 1-.767-.759c0-.419.343-.759.767-.759zm1.533 2.277c.424 0 .767.339.767.758s-.343.759-.767.759a.763.763 0 0 1-.766-.76c0-.418.343-.757.766-.757zm-4.6-2.277c.424 0 .767.34.767.759a.763.763 0 0 1-.767.759.763.763 0 0 1-.766-.759c0-.419.343-.759.766-.759zm1.534 2.277c.423 0 .766.339.766.758s-.343.759-.766.759a.763.763 0 0 1-.767-.76c0-.418.343-.757.767-.757zm-4.6-2.277c.423 0 .766.34.766.759a.763.763 0 0 1-.766.759.763.763 0 0 1-.767-.759c0-.419.343-.759.767-.759zm1.533 2.277c.423 0 .767.339.767.758s-.344.759-.767.759a.763.763 0 0 1-.767-.76c0-.418.344-.757.767-.757z"/></defs><g><g transform="translate(-1191 -2454)"><use fill="#fff" xlink:href="#xgi8a"/></g></g></svg>