<svg xmlns="http://www.w3.org/2000/svg" xmlns:xlink="http://www.w3.org/1999/xlink" width="46" height="47" viewBox="0 0 46 47"><defs><path id="nv12a" d="M439.056 2329.608c0 4.228-3.428 7.667-7.642 7.667s-7.643-3.44-7.643-7.667 3.428-7.666 7.643-7.666c4.214 0 7.642 3.44 7.642 7.666zm-1.698 0c0-3.288-2.667-5.963-5.944-5.963-3.278 0-5.945 2.675-5.945 5.963 0 3.288 2.667 5.963 5.945 5.963 3.277 0 5.944-2.675 5.944-5.963zm7.642 0a.85.85 0 0 1-.85.852h-3.396a.85.85 0 0 1-.849-.852c0-.47.38-.851.85-.851h3.396c.47 0 .85.38.85.851zm-12.883 9.37v3.408a.85.85 0 0 1-1.698 0v-3.408a.85.85 0 1 1 1.698 0zm9.092-.748a.854.854 0 0 1-.6 1.454.844.844 0 0 1-.601-.25l-2.402-2.408a.853.853 0 0 1 0-1.205.847.847 0 0 1 1.201 0zm0-17.742a.853.853 0 0 1 0 1.204l-2.402 2.41a.844.844 0 0 1-1.2 0 .854.854 0 0 1 0-1.205l2.401-2.409a.847.847 0 0 1 1.2 0zm-42.21-15.583c0-4.227 3.429-7.666 7.643-7.666 1.343 0 2.665.355 3.822 1.026a.853.853 0 0 1 0 1.475 5.99 5.99 0 0 0-2.973 5.165 5.99 5.99 0 0 0 2.973 5.166.853.853 0 0 1 0 1.475 7.63 7.63 0 0 1-3.822 1.026c-4.214 0-7.642-3.44-7.642-7.667zm1.699 0c0 3.288 2.667 5.963 5.944 5.963.578 0 1.151-.085 1.7-.248a7.708 7.708 0 0 1-2.55-5.715 7.71 7.71 0 0 1 2.55-5.714 5.947 5.947 0 0 0-1.7-.248c-3.277 0-5.944 2.674-5.944 5.962zm7.745 14.73l-.6.603.6.603a.853.853 0 0 1-.6 1.453.845.845 0 0 1-.6-.25l-.6-.602-.601.603a.844.844 0 0 1-1.2 0 .853.853 0 0 1 0-1.204l.6-.603-.6-.602a.853.853 0 0 1 0-1.205.847.847 0 0 1 1.2 0l.6.602.6-.602a.847.847 0 0 1 1.201 0 .853.853 0 0 1 0 1.205zm6.588-16.184a.853.853 0 0 1 0-1.204.846.846 0 0 1 1.2 0l.6.602.601-.603a.847.847 0 0 1 1.201 0 .854.854 0 0 1 0 1.205l-.6.602.6.603a.854.854 0 0 1-.6 1.454.847.847 0 0 1-.6-.25l-.601-.602-.6.602a.845.845 0 0 1-1.201 0 .854.854 0 0 1 0-1.204l.6-.602zm26.068-3.753l-39.742 39.868a.846.846 0 0 1-1.2 0 .854.854 0 0 1 0-1.205l39.742-39.868a.847.847 0 0 1 1.2 0 .854.854 0 0 1 0 1.205z"/></defs><g><g transform="translate(-399 -2297)"><use fill="#fff" xlink:href="#nv12a"/></g></g></svg>