<svg xmlns="http://www.w3.org/2000/svg" xmlns:xlink="http://www.w3.org/1999/xlink" width="46" height="46" viewBox="0 0 46 46"><defs><path id="hu21a" d="M1244.559 2077.262a.878.878 0 0 1-.473.645l-4.264 2.147v9.408a.878.878 0 0 1-.496.79l-16.883 8.168a.877.877 0 0 1-.767 0l-5.76-2.787a.877.877 0 1 1 .767-1.58l4.498 2.175v-13.56l-3.468 3.463a.88.88 0 0 1-1.018.163l-10.64-5.355v7.973l4.902 2.371a.878.878 0 1 1-.766 1.58l-5.398-2.61a.878.878 0 0 1-.496-.791v-9.408l-4.264-2.147a.878.878 0 0 1-.226-1.405l4.748-4.742a.866.866 0 0 1 .238-.169l6.622-3.203v-8.565c0-.32.174-.613.453-.768l9.76-5.4a.88.88 0 0 1 .852-.001l2.164 1.194a.878.878 0 1 1-.85 1.537l-1.739-.959-7.946 4.397 7.946 4.397 7.947-4.398-1.502-.832a.878.878 0 1 1 .853-1.536l2.889 1.601c.28.155.452.45.452.768v8.56l6.632 3.208a.877.877 0 0 1 .238.17l4.748 4.741c.2.2.291.482.247.76zm-21.625-2.727l8.002-4.427v-8.794l-8.002 4.428zm-9.76-4.427l8.001 4.427v-8.794l-8.001-4.427zm7.39 10.693l-15.208-7.357-3.446 3.441 15.01 7.555zm16.362-8.42l-4.231-2.046v.29c0 .32-.174.613-.454.768l-9.76 5.4a.878.878 0 0 1-.852 0l-9.76-5.4a.879.879 0 0 1-.454-.768v-.286l-4.221 2.042 14.866 7.192zm1.137 8.558l-10.64 5.355a.879.879 0 0 1-1.017-.163l-3.467-3.462v13.559l15.124-7.316zm4.146-4.054l-3.446-3.441-15.207 7.357 3.644 3.64zm-27.979 16.532a.883.883 0 0 1-.879.878.883.883 0 0 1-.88-.878c0-.231.095-.458.258-.621a.882.882 0 0 1 1.501.621zm13.211-36.5a.885.885 0 0 1-.258.62.886.886 0 0 1-.621.257.885.885 0 0 1-.622-.257.884.884 0 0 1-.257-.62.882.882 0 0 1 .879-.879.884.884 0 0 1 .88.878zm12.381-1.426v5.634a.879.879 0 0 1-1.759 0v-5.634a.879.879 0 0 1 1.759 0zm0 9.309a.883.883 0 0 1-.88.878.882.882 0 0 1-.88-.878.883.883 0 0 1 1.5-.62c.166.162.26.389.26.62zm-33.766-5.637v2.197a.879.879 0 0 1-1.758 0v-2.197a.88.88 0 0 1 1.758 0zm0 6.061v1.814a.879.879 0 0 1-1.758 0v-1.814a.879.879 0 0 1 1.758 0z"/></defs><g><g transform="translate(-1199 -2053)"><use fill="#fff" xlink:href="#hu21a"/></g></g></svg>