<svg xmlns="http://www.w3.org/2000/svg" xmlns:xlink="http://www.w3.org/1999/xlink" width="46" height="46" viewBox="0 0 46 46"><defs><path id="nj6oa" d="M1239.19 2178.266c-.01.014-.026.018-.037.032-4.05 4.536-9.866 7.458-16.358 7.681v.001l-.447.012a9.753 9.753 0 0 1-.348.008c-.117 0-.232-.004-.349-.008l-.447-.011v-.001c-6.485-.222-12.295-3.139-16.345-7.666-.015-.018-.035-.027-.05-.047-.005-.007-.005-.015-.01-.022-3.604-4.062-5.8-9.401-5.8-15.245 0-6.081 2.377-11.614 6.245-15.73v-.002l.011-.01c4.028-4.282 9.672-7.023 15.95-7.238l.447-.012c.116-.004.231-.008.348-.008.117 0 .232.004.348.008l.448.011.001.001c6.277.215 11.921 2.956 15.95 7.238.002.004.006.006.01.01v.001c3.867 4.117 6.243 9.65 6.243 15.73 0 5.845-2.195 11.184-5.8 15.246-.004.007-.004.015-.01.021zm-33.582-1.508a29.24 29.24 0 0 1 6.433-3.276 29.312 29.312 0 0 1-1.915-9.69h-9.52c.18 4.926 2.03 9.431 5.002 12.966zm-5.002-14.551h9.52c.096-3.617.839-7.129 2.18-10.386a29.202 29.202 0 0 1-6.265-3.079 21.319 21.319 0 0 0-5.435 13.465zm37.353-13.465a29.204 29.204 0 0 1-6.266 3.079 29.286 29.286 0 0 1 2.181 10.386h9.52a21.32 21.32 0 0 0-5.435-13.465zm-16.752-6.646a27.751 27.751 0 0 0-6.719 8.753c2.175.61 4.426.953 6.719 1.018zm-7.38 10.217a27.701 27.701 0 0 0-2.115 9.894h9.495v-8.754a29.31 29.31 0 0 1-7.38-1.14zm8.966 9.894h9.496a27.696 27.696 0 0 0-2.115-9.894 29.296 29.296 0 0 1-7.38 1.14zm6.718-11.358a27.751 27.751 0 0 0-6.718-8.753v9.771a27.742 27.742 0 0 0 6.718-1.018zm7.323-3.271a21.354 21.354 0 0 0-12.042-5.804 29.287 29.287 0 0 1 6.257 8.593 27.583 27.583 0 0 0 5.785-2.79zm-17.626-5.804a21.351 21.351 0 0 0-12.041 5.804 27.556 27.556 0 0 0 5.784 2.79 29.275 29.275 0 0 1 6.257-8.594zm-5.663 31.202a29.262 29.262 0 0 1 7.662-1.222v-7.961h-9.495c.09 3.187.717 6.284 1.833 9.183zm.616 1.475a27.738 27.738 0 0 0 7.046 9.452v-10.563c-2.41.068-4.772.441-7.046 1.111zm15.678 0a27.657 27.657 0 0 0-7.046-1.11v10.562a27.734 27.734 0 0 0 7.046-9.453zm.615-1.474a27.69 27.69 0 0 0 1.834-9.184h-9.495v7.961a29.21 29.21 0 0 1 7.661 1.223zm1.505.505a29.24 29.24 0 0 1 6.433 3.276 21.311 21.311 0 0 0 5.002-12.965h-9.52a29.289 29.289 0 0 1-1.915 9.69zm-12.752 10.744a29.268 29.268 0 0 1-6.56-9.278 27.65 27.65 0 0 0-5.961 2.998 21.369 21.369 0 0 0 12.521 6.28zm18.107-6.28a27.665 27.665 0 0 0-5.962-2.998 29.245 29.245 0 0 1-6.56 9.277 21.368 21.368 0 0 0 12.522-6.279z"/></defs><g><g transform="translate(-1199 -2140)"><use fill="#fff" xlink:href="#nj6oa"/></g></g></svg>