<svg xmlns="http://www.w3.org/2000/svg" xmlns:xlink="http://www.w3.org/1999/xlink" width="46" height="46" viewBox="0 0 46 46"><defs><path id="77m5a" d="M408.72 2472.633a.77.77 0 0 1 .771-.767h19.298a.77.77 0 0 1 .772.767.77.77 0 0 1-.772.767h-19.298a.77.77 0 0 1-.772-.767zm0-6.133a.77.77 0 0 1 .771-.767h7.72a.77.77 0 0 1 .771.767.77.77 0 0 1-.771.766h-7.72a.77.77 0 0 1-.772-.766zm0 12.266a.77.77 0 0 1 .771-.766h19.298a.77.77 0 0 1 .772.766.77.77 0 0 1-.772.767h-19.298a.77.77 0 0 1-.772-.767zm14.666 6.134a.77.77 0 0 1-.772.766H409.49a.77.77 0 0 1-.772-.766.77.77 0 0 1 .772-.767h13.123a.77.77 0 0 1 .772.767zm-2.316 6.133a.77.77 0 0 1-.772.767h-10.807a.77.77 0 0 1-.772-.767.77.77 0 0 1 .772-.766h10.807a.77.77 0 0 1 .772.766zm23.93 0c0 5.495-4.502 9.966-10.035 9.966H399v-46h27.021l11.26 11.183v15.163c4.418 1.042 7.719 4.985 7.719 9.688zm-18.526-25.3h8.171l-8.171-8.116zm2.972 33.617a10.415 10.415 0 0 1-.85-.618l-.053-.047a10.153 10.153 0 0 1-.586-.529 9.883 9.883 0 0 1-.708-.757c-.03-.036-.058-.073-.087-.11a10.127 10.127 0 0 1-.444-.59c-.037-.052-.074-.102-.11-.155a9.8 9.8 0 0 1-.435-.71l-.082-.158a9.79 9.79 0 0 1-.324-.666c-.02-.048-.044-.096-.065-.145-.108-.26-.206-.525-.293-.795-.02-.062-.038-.126-.057-.189a9.763 9.763 0 0 1-.198-.765c-.007-.034-.017-.066-.023-.1a9.973 9.973 0 0 1-.155-1.076c-.027-.3-.046-.601-.046-.907 0-5.495 4.502-9.967 10.035-9.967.252 0 .508.012.772.034v-13.834H424.93v-10.733h-24.386v42.933h29.078c-.06-.037-.117-.079-.176-.116zm14.01-8.317c0-4.051-2.892-7.442-6.733-8.25l-.342-.056c-.244-.04-.477-.07-.701-.091a8.509 8.509 0 0 0-.715-.036c-4.682 0-8.491 3.783-8.491 8.433s3.81 8.433 8.49 8.433c4.683 0 8.492-3.783 8.492-8.433zm-3.419-4.462c.35.241.436.72.193 1.067l-4.797 6.846a.777.777 0 0 1-1.123.154l-3.694-3.013a.761.761 0 0 1-.107-1.078.775.775 0 0 1 1.086-.107l3.048 2.486 4.32-6.164a.774.774 0 0 1 1.074-.191z"/></defs><g><g transform="translate(-399 -2455)"><use fill="#fff" xlink:href="#77m5a"/></g></g></svg>