<svg xmlns="http://www.w3.org/2000/svg" xmlns:xlink="http://www.w3.org/1999/xlink" width="46" height="32" viewBox="0 0 46 32"><defs><path id="rtoza" d="M1207.924 2321.68a3.424 3.424 0 0 1 3.426-3.415 3.424 3.424 0 0 1 3.425 3.415 3.424 3.424 0 0 1-3.425 3.416 3.424 3.424 0 0 1-3.426-3.416zm1.468 0a1.957 1.957 0 0 0 3.915 0 1.957 1.957 0 0 0-3.915 0zm26.684 0a3.424 3.424 0 0 1-3.426 3.416 3.424 3.424 0 0 1-3.426-3.416 3.424 3.424 0 0 1 3.426-3.415 3.424 3.424 0 0 1 3.426 3.415zm-1.468 0a1.957 1.957 0 0 0-3.915 0 1.957 1.957 0 1 0 3.915 0zm-24.427-19.308l-4.716 4.997h11.522v-6.71c0-.404.328-.732.734-.732h9.907c.762 0 1.869.701 2.193 1.389l3.02 6.476a.73.73 0 0 1-.665 1.04h-28.41a.73.73 0 1 1-.535-1.234l5.881-6.23c.7-.74 2.325-1.44 3.345-1.44h2.328a.733.733 0 1 1 0 1.463h-2.328c-.605 0-1.86.54-2.276.981zm8.274 4.997h12.57l-2.533-5.433c-.099-.186-.65-.535-.866-.545h-9.171zm26.545 7.845v3.539c0 2.018-1.477 3.66-3.292 3.66h-1.754c-.37 3.693-3.504 6.587-7.304 6.587-4.047 0-7.34-3.284-7.34-7.32 0-4.036 3.293-7.319 7.34-7.319 3.8 0 6.934 2.894 7.304 6.587h1.754c1.006 0 1.824-.984 1.824-2.195v-2.862c-2.373-.354-4.198-2.4-4.198-4.863 0-.284.025-.566.073-.843l-2.789-.927c-.964-.32-2.017-1.253-2.45-2.17l-3.018-6.396c-.57-1.208-2.183-2.228-3.522-2.228h-15.17c-1.42 0-3.442.87-4.415 1.901l-6.768 7.171c-.422.448-.807 1.414-.807 2.029v9.188c0 1.21.988 2.195 2.202 2.195h1.376c.37-3.693 3.504-6.587 7.304-6.587 3.8 0 6.934 2.894 7.304 6.587h4.454a.733.733 0 1 1 0 1.464h-4.454c-.37 3.694-3.504 6.588-7.304 6.588-3.8 0-6.934-2.894-7.304-6.588h-1.376a3.669 3.669 0 0 1-3.67-3.66v-9.187c0-.984.53-2.316 1.206-3.032l6.768-7.171c1.25-1.325 3.66-2.362 5.483-2.362h15.17c1.908 0 4.039 1.348 4.851 3.07l3.018 6.395c.258.544 1.013 1.214 1.586 1.404l3.434 1.141c2.472.822 4.484 3.605 4.484 6.204zm-39.523 6.466c0 3.23 2.635 5.856 5.873 5.856 3.238 0 5.872-2.627 5.872-5.856 0-3.228-2.634-5.855-5.872-5.855s-5.873 2.627-5.873 5.855zm33.045 0c0-3.228-2.634-5.855-5.872-5.855s-5.872 2.627-5.872 5.855c0 3.23 2.634 5.856 5.872 5.856s5.872-2.627 5.872-5.856zm4.92-7.297c-.3-1.454-1.34-2.893-2.629-3.637a3.462 3.462 0 0 0 2.63 3.637z"/></defs><g><g transform="translate(-1199 -2297)"><use fill="#fff" xlink:href="#rtoza"/></g></g></svg>