<svg xmlns="http://www.w3.org/2000/svg" xmlns:xlink="http://www.w3.org/1999/xlink" width="46" height="46" viewBox="0 0 46 46"><defs><path id="fgrua" d="M445 2160.707v4.585a.77.77 0 0 1-.563.742l-2.77.779c-.179.926-.422 1.838-.729 2.73l2.006 2.053a.77.77 0 0 1 .151.853 23.104 23.104 0 0 1-2.372 4.101.77.77 0 0 1-.815.295l-2.78-.712a20.134 20.134 0 0 1-1.996 1.996l.712 2.78a.77.77 0 0 1-.294.815 23.123 23.123 0 0 1-4.101 2.37.77.77 0 0 1-.853-.15l-2.054-2.006c-.892.307-1.804.55-2.73.729l-.778 2.77a.77.77 0 0 1-.742.563h-4.585a.77.77 0 0 1-.742-.563l-.778-2.77a19.91 19.91 0 0 1-2.73-.729l-2.053 2.006a.772.772 0 0 1-.854.15 23.11 23.11 0 0 1-4.1-2.371.77.77 0 0 1-.295-.815l.712-2.78a20.12 20.12 0 0 1-1.997-1.996l-2.78.712a.769.769 0 0 1-.814-.294 23.104 23.104 0 0 1-2.371-4.101.77.77 0 0 1 .15-.854l2.006-2.053a19.865 19.865 0 0 1-.727-2.73l-2.772-.778a.77.77 0 0 1-.562-.742v-4.585a.77.77 0 0 1 .562-.742l2.772-.778c.177-.926.42-1.839.727-2.73l-2.005-2.054a.77.77 0 0 1-.151-.853 23.1 23.1 0 0 1 2.372-4.101.765.765 0 0 1 .814-.295l2.78.712a20.179 20.179 0 0 1 1.997-1.996l-.712-2.78a.771.771 0 0 1 .294-.815 23.118 23.118 0 0 1 4.101-2.37.767.767 0 0 1 .853.15l2.054 2.006c.891-.307 1.803-.55 2.73-.728l.777-2.771a.77.77 0 0 1 .742-.562h4.586a.77.77 0 0 1 .742.562l.778 2.771c.926.178 1.838.421 2.73.728l2.053-2.005a.766.766 0 0 1 .854-.152 23.135 23.135 0 0 1 4.1 2.372.772.772 0 0 1 .295.815l-.712 2.78a20.18 20.18 0 0 1 1.996 1.996l2.78-.712c.306-.08.63.038.815.295a23.118 23.118 0 0 1 2.371 4.1.77.77 0 0 1-.151.854l-2.005 2.053c.307.892.55 1.804.727 2.73l2.772.778a.77.77 0 0 1 .561.742zm-1.541 4.002v-3.418l-2.674-.751a.77.77 0 0 1-.552-.615 18.442 18.442 0 0 0-.904-3.392.77.77 0 0 1 .17-.807l1.97-2.018a21.549 21.549 0 0 0-1.692-2.928l-2.733.7a.768.768 0 0 1-.785-.256 18.575 18.575 0 0 0-2.483-2.483.77.77 0 0 1-.256-.785l.7-2.733c-.93-.64-1.909-1.206-2.928-1.693l-2.018 1.97a.765.765 0 0 1-.807.17 18.44 18.44 0 0 0-3.392-.904.77.77 0 0 1-.615-.551l-.751-2.674h-3.418l-.751 2.674a.77.77 0 0 1-.615.551 18.434 18.434 0 0 0-3.391.904.766.766 0 0 1-.808-.17l-2.018-1.97a21.633 21.633 0 0 0-2.928 1.692l.7 2.733a.772.772 0 0 1-.256.786 18.556 18.556 0 0 0-2.483 2.482.77.77 0 0 1-.785.256l-2.733-.7c-.64.93-1.206 1.91-1.693 2.928l1.97 2.018a.769.769 0 0 1 .17.808 18.408 18.408 0 0 0-.904 3.392.77.77 0 0 1-.551.615l-2.674.75v3.418l2.674.75a.77.77 0 0 1 .551.615c.193 1.158.496 2.293.905 3.393a.769.769 0 0 1-.17.807l-1.97 2.019a21.637 21.637 0 0 0 1.691 2.927l2.734-.7a.773.773 0 0 1 .785.256 18.562 18.562 0 0 0 2.483 2.484c.23.19.33.495.255.785l-.7 2.732c.93.64 1.91 1.206 2.928 1.694l2.019-1.971a.766.766 0 0 1 .807-.17 18.4 18.4 0 0 0 3.392.904.77.77 0 0 1 .615.552l.751 2.674h3.417l.75-2.673a.771.771 0 0 1 .616-.552 18.462 18.462 0 0 0 3.392-.906.767.767 0 0 1 .807.17l2.019 1.971a21.556 21.556 0 0 0 2.928-1.692l-.7-2.733a.772.772 0 0 1 .256-.785 18.578 18.578 0 0 0 2.483-2.483c.189-.23.495-.331.785-.256l2.733.7c.64-.93 1.206-1.91 1.693-2.928l-1.971-2.018a.769.769 0 0 1-.17-.807c.409-1.1.712-2.236.904-3.393a.77.77 0 0 1 .552-.614zm-6.048-1.71c0 8.512-6.9 15.412-15.411 15.412-8.507-.01-15.402-6.904-15.411-15.411 0-8.511 6.9-15.411 15.41-15.411 8.512 0 15.412 6.9 15.412 15.41zm-1.58.771h-2.273v-1.54h2.273a13.793 13.793 0 0 0-3.51-8.462l-1.603 1.604-1.09-1.09 1.604-1.604a13.793 13.793 0 0 0-8.461-3.51v2.273h-1.542v-2.272a13.795 13.795 0 0 0-8.461 3.51l1.604 1.603-1.09 1.09-1.604-1.604a13.793 13.793 0 0 0-3.509 8.461h2.272v1.541h-2.272a13.794 13.794 0 0 0 3.51 8.462l1.603-1.604 1.09 1.09-1.604 1.603a13.794 13.794 0 0 0 8.461 3.51v-2.273h1.541v2.273a13.794 13.794 0 0 0 8.462-3.51l-1.604-1.604 1.09-1.09 1.603 1.605a13.795 13.795 0 0 0 3.51-8.462zm-7.026-6.507l-3.728 5.593a3.085 3.085 0 0 1-3.077 3.226 3.082 3.082 0 1 1 .145-6.16l5.592-3.728a.77.77 0 0 1 1.068 1.069zm-3.42 2.351l-2.623 1.749a.778.778 0 0 1-.542.121 1.41 1.41 0 0 0-.22-.025 1.541 1.541 0 1 0 1.54 1.54 1.335 1.335 0 0 0-.022-.205.814.814 0 0 1 .118-.557z"/></defs><g><g transform="translate(-399 -2140)"><use fill="#fff" xlink:href="#fgrua"/></g></g></svg>