<svg xmlns="http://www.w3.org/2000/svg" xmlns:xlink="http://www.w3.org/1999/xlink" width="36" height="36" viewBox="0 0 36 36"><defs><path id="1zb5a" d="M1013.867 1692.76c0 2.098-1.735 3.806-3.867 3.806-2.132 0-3.867-1.708-3.867-3.806s1.735-3.805 3.867-3.805c2.132 0 3.867 1.707 3.867 3.805zm-1.172 0c0-1.463-1.209-2.652-2.695-2.652-1.486 0-2.695 1.19-2.695 2.652 0 1.463 1.209 2.652 2.695 2.652 1.486 0 2.695-1.189 2.695-2.652zm6.52-1.234v2.47a.58.58 0 0 1-.547.574l-1.678.109a7.008 7.008 0 0 1-.67 1.588l1.11 1.245a.57.57 0 0 1-.027.788l-1.775 1.746a.593.593 0 0 1-.8.026l-1.265-1.092c-.51.285-1.05.505-1.614.66l-.11 1.65a.582.582 0 0 1-.585.538h-2.509a.582.582 0 0 1-.584-.538l-.11-1.65a7.226 7.226 0 0 1-1.614-.66l-1.265 1.092a.593.593 0 0 1-.8-.026l-1.775-1.746a.57.57 0 0 1-.027-.788l1.109-1.245a6.998 6.998 0 0 1-.67-1.588l-1.676-.109a.58.58 0 0 1-.548-.575v-2.469a.58.58 0 0 1 .548-.575l1.676-.11a7.009 7.009 0 0 1 .67-1.587l-1.108-1.245a.57.57 0 0 1 .026-.787l1.775-1.747a.592.592 0 0 1 .8-.026l1.265 1.091a7.235 7.235 0 0 1 1.613-.659l.11-1.65a.582.582 0 0 1 .585-.539h2.51c.308 0 .563.235.584.539l.11 1.65a7.248 7.248 0 0 1 1.614.659l.945-.814.018-.017.302-.26a.592.592 0 0 1 .8.026l1.775 1.746a.57.57 0 0 1 .026.788l-1.108 1.245a7.02 7.02 0 0 1 .67 1.588l1.677.109a.58.58 0 0 1 .547.575zm-1.172.54l-1.558-.101a.584.584 0 0 1-.534-.455 5.897 5.897 0 0 0-.845-2.005.57.57 0 0 1 .05-.694l1.03-1.156-.998-.983-1.175 1.013a.592.592 0 0 1-.705.05 6.104 6.104 0 0 0-2.037-.83.58.58 0 0 1-.463-.527l-.102-1.533h-1.412l-.103 1.533a.58.58 0 0 1-.462.526 6.09 6.09 0 0 0-2.037.831.592.592 0 0 1-.705-.05l-1.175-1.013-.999.983 1.03 1.156a.57.57 0 0 1 .051.694 5.89 5.89 0 0 0-.845 2.005.583.583 0 0 1-.535.455l-1.557.1v1.39l1.558.101c.261.017.48.203.534.455.155.716.44 1.39.845 2.004a.57.57 0 0 1-.05.694l-1.03 1.157.998.983 1.175-1.014a.594.594 0 0 1 .706-.05c.624.4 1.31.68 2.036.832a.58.58 0 0 1 .462.525l.103 1.534h1.412l.102-1.533a.58.58 0 0 1 .463-.526 6.086 6.086 0 0 0 2.036-.832c.22-.14.509-.12.706.05l1.174 1.014 1-.983-1.03-1.157a.57.57 0 0 1-.051-.693 5.89 5.89 0 0 0 .845-2.005.583.583 0 0 1 .534-.455l1.558-.1zm9.957-10.247v25.359c0 1.555-1.286 2.82-2.866 2.82h-10.04l1.442 3.974h2.815c.323 0 .585.226.585.545 0 .318-.262.483-.585.483h-18.702c-.323 0-.586-.165-.586-.483 0-.319.263-.545.586-.545h2.815l1.441-3.974h-10.04c-1.58 0-2.865-1.265-2.865-2.82v-15.338c0-.32.262-.577.586-.577.323 0 .43.258.43.577v13.128h28.188c.324 0 .586.196.586.514s-.262.483-.586.483h-28.189v1.369c0 .92.76 1.667 1.694 1.667h30.582c.934 0 1.694-.748 1.694-1.667v-1.37h-3.828c-.323 0-.586-.164-.586-.482 0-.318.263-.514.586-.514h3.828v-23.305c0-.919-.76-1.667-1.694-1.667h-30.582c-.934 0-1.694.748-1.694 1.667v8.255c0 .318-.106.576-.43.576a.58.58 0 0 1-.585-.576v-8.099c0-1.554 1.285-2.82 2.865-2.82h30.27c1.58 0 2.865 1.266 2.865 2.82zm-13.74 29.16h-8.52l-1.001 2.992h10.522z"/></defs><g><g transform="translate(-992 -1679)"><use fill="#b0abb3" xlink:href="#1zb5a"/></g></g></svg>