<svg xmlns="http://www.w3.org/2000/svg" xmlns:xlink="http://www.w3.org/1999/xlink" width="50" height="50" viewBox="0 0 50 50"><defs><path id="k0dca" d="M1079 1255.044v2.537a2.663 2.663 0 0 1-2.135 2.604l-4.186.838c-.277.884-.633 1.74-1.061 2.561l2.368 3.553c.7 1.05.56 2.458-.332 3.35l-1.795 1.795a2.653 2.653 0 0 1-1.88.775c-.51 0-1.023-.145-1.47-.442l-3.949-2.634a.788.788 0 1 1 .876-1.314l3.948 2.633c.426.285.997.227 1.359-.134l1.795-1.796c.361-.36.418-.932.134-1.358l-2.632-3.948a.79.79 0 0 1-.031-.825c.552-.98.985-2.026 1.288-3.11a.79.79 0 0 1 .606-.561l4.653-.93c.501-.1.865-.545.865-1.057v-2.538a1.08 1.08 0 0 0-.865-1.056l-4.653-.93a.79.79 0 0 1-.606-.561 14.084 14.084 0 0 0-1.288-3.11.787.787 0 0 1 .031-.825l2.632-3.95a1.078 1.078 0 0 0-.134-1.357l-1.795-1.795a1.08 1.08 0 0 0-1.359-.135l-3.948 2.632a.79.79 0 0 1-.826.03 14.07 14.07 0 0 0-3.109-1.287.79.79 0 0 1-.561-.606l-.931-4.652a1.079 1.079 0 0 0-1.056-.865h-2.538c-.511 0-.955.363-1.056.865l-.93 4.652a.79.79 0 0 1-.562.606c-1.084.303-2.13.737-3.11 1.288a.79.79 0 0 1-.825-.03l-3.948-2.633a1.081 1.081 0 0 0-1.358.135l-1.795 1.795a1.078 1.078 0 0 0-.135 1.357l2.632 3.95a.788.788 0 0 1 .031.825 14.09 14.09 0 0 0-1.288 3.11.79.79 0 0 1-.606.561l-4.652.93a1.08 1.08 0 0 0-.866 1.056v2.538c0 .512.364.956.866 1.057l2.71.54a.79.79 0 0 1-.31 1.55l-2.71-.542a2.663 2.663 0 0 1-2.135-2.605v-2.538a2.66 2.66 0 0 1 2.135-2.603l4.186-.838c.278-.884.633-1.741 1.062-2.562l-2.369-3.552c-.7-1.05-.56-2.459.332-3.351l1.795-1.795a2.664 2.664 0 0 1 3.35-.332l3.553 2.37c.82-.43 1.678-.785 2.562-1.062l.837-4.188a2.664 2.664 0 0 1 2.604-2.134h2.538c1.262 0 2.357.899 2.604 2.134l.837 4.188c.884.277 1.742.632 2.562 1.062l3.552-2.37c1.05-.7 2.459-.56 3.351.333l1.795 1.794a2.664 2.664 0 0 1 .332 3.352l-2.369 3.551c.429.821.784 1.679 1.062 2.562l4.186.838a2.661 2.661 0 0 1 2.135 2.604zm-15.79 10.215v1.054c0 .829-.35 1.576-.91 2.104.56.53.91 1.278.91 2.105v1.052c0 .83-.35 1.579-.91 2.106.56.529.91 1.278.91 2.106v1.052c0 .83-.35 1.579-.91 2.106.56.528.91 1.276.91 2.104v1.054a2.898 2.898 0 0 1-2.894 2.895h-14.301a4.358 4.358 0 0 1-3.092-1.277 2.81 2.81 0 0 0-1.99-.83H1039v.265a1.844 1.844 0 0 1-1.842 1.842h-6.316a1.844 1.844 0 0 1-1.842-1.842v-17.896c0-1.015.826-1.841 1.842-1.841h6.316c1.015 0 1.842.826 1.842 1.841v.263h1.903c.567 0 1.069-.361 1.248-.898l.294-.883a25.102 25.102 0 0 0 1.291-7.955 2.897 2.897 0 0 1 2.895-2.894c1.055 0 2.046.41 2.792 1.154a3.926 3.926 0 0 1 1.156 2.792v8.421a.79.79 0 1 1-1.58 0v-8.42c0-.632-.245-1.228-.693-1.675a2.353 2.353 0 0 0-1.675-.694c-.725 0-1.315.59-1.315 1.316 0 2.878-.462 5.723-1.373 8.454l-.293.881a2.89 2.89 0 0 1-2.747 1.98H1039v2.37a.79.79 0 1 1-1.579 0v-4.212a.264.264 0 0 0-.263-.263h-6.316a.264.264 0 0 0-.263.263v17.896c0 .144.118.262.263.262h2.368v-10.788a.79.79 0 0 1 1.579 0v10.789h2.369a.264.264 0 0 0 .263-.263v-10.526a.79.79 0 0 1 .79-.79.79.79 0 0 1 .789.79v8.683h1.932c1.167 0 2.27.458 3.105 1.29.529.526 1.231.816 1.978.816h14.3c.726 0 1.316-.59 1.316-1.316v-1.053c0-.725-.59-1.316-1.315-1.316h-7.369a.79.79 0 1 1 0-1.579h7.369c.725 0 1.315-.59 1.315-1.316v-1.052c0-.726-.59-1.317-1.315-1.317h-7.369a.79.79 0 1 1 0-1.577h7.369c.725 0 1.315-.591 1.315-1.317v-1.053c0-.724-.59-1.316-1.315-1.316h-7.369a.79.79 0 1 1 0-1.578h7.369c.725 0 1.315-.59 1.315-1.316v-1.053c0-.725-.59-1.315-1.315-1.315h-7.369a.79.79 0 0 1 0-1.579h7.369a2.897 2.897 0 0 1 2.894 2.894zm-9.53-8.321a4.057 4.057 0 0 1 3.38-4.63 4.057 4.057 0 0 1 4.628 3.38 4.056 4.056 0 0 1-4.006 4.677 4.06 4.06 0 0 1-4.002-3.427zm1.56-.245a2.477 2.477 0 0 0 2.826 2.064 2.478 2.478 0 0 0 2.062-2.826 2.478 2.478 0 0 0-2.825-2.063 2.477 2.477 0 0 0-2.063 2.825zm9.037 7.031a.788.788 0 0 1-.024-1.115 9.04 9.04 0 0 0 2.42-7.7 9.004 9.004 0 0 0-1.61-3.924.79.79 0 0 1 1.279-.925 10.561 10.561 0 0 1 1.892 4.606 10.604 10.604 0 0 1-2.84 9.034.787.787 0 0 1-1.117.024zm-1.115-14.675a9.018 9.018 0 0 0-6.881-1.725 9.035 9.035 0 0 0-6.584 4.63.79.79 0 1 1-1.386-.758 10.611 10.611 0 0 1 7.726-5.433c2.88-.45 5.748.27 8.076 2.024a.79.79 0 0 1-.95 1.262z"/></defs><g><g transform="translate(-1029 -1235)"><use xlink:href="#k0dca"/></g></g></svg>