<svg xmlns="http://www.w3.org/2000/svg" xmlns:xlink="http://www.w3.org/1999/xlink" width="50" height="50" viewBox="0 0 50 50"><defs><path id="f3b0a" d="M469.552 1931.794a.86.86 0 0 1-1.206.18 22.216 22.216 0 0 0-13.313-4.392c-5.025 0-9.987 1.63-13.275 4.362a.86.86 0 0 1-1.413-.663v-5.423a.862.862 0 1 1 1.724 0v3.709c3.508-2.342 8.22-3.709 12.964-3.709a23.929 23.929 0 0 1 14.34 4.73.862.862 0 0 1 .18 1.206zm9.586 5.272h-3.709c2.343 3.507 3.709 8.22 3.709 12.964 0 5.202-1.636 10.16-4.73 14.34a.864.864 0 0 1-1.207.179.86.86 0 0 1-.18-1.206 22.21 22.21 0 0 0 4.393-13.313c0-5.026-1.631-9.988-4.362-13.276a.861.861 0 0 1 .663-1.413h5.423a.863.863 0 0 1 0 1.725zm-9.483 31.646v5.423a.862.862 0 0 1-1.724 0v-3.71c-3.508 2.343-8.22 3.71-12.965 3.71a23.931 23.931 0 0 1-14.34-4.731.862.862 0 1 1 1.027-1.385 22.21 22.21 0 0 0 13.314 4.392c5.025 0 9.988-1.633 13.275-4.362a.86.86 0 0 1 1.413.663zm-32.59-4.556a.86.86 0 0 1-.78.495h-5.423a.863.863 0 0 1 0-1.723h3.709c-2.343-3.508-3.71-8.222-3.71-12.966a23.92 23.92 0 0 1 4.731-14.339.86.86 0 1 1 1.386 1.026 22.217 22.217 0 0 0-4.393 13.313c0 5.026 1.631 9.988 4.362 13.276.214.256.26.615.118.918zm32.588-15.884v3.449a.862.862 0 0 1-.862.862h-1.664c-.378 0-.71.235-.809.572-.314 1.07-.626 1.88-.953 2.48-.17.312-.103.715.163.982l1.179 1.18a.861.861 0 0 1 0 1.217l-2.69 2.692a.86.86 0 0 1-1.22 0l-1.178-1.178c-.266-.266-.67-.333-.983-.163-.597.325-1.409.637-2.478.951-.338.1-.574.434-.574.81v1.662a.86.86 0 0 1-.86.863h-3.448a.863.863 0 0 1-.862-.863v-1.664c0-.377-.236-.708-.573-.81-1.07-.314-1.882-.626-2.479-.952-.311-.168-.716-.102-.982.164l-1.178 1.177a.86.86 0 0 1-1.22 0l-2.69-2.69a.863.863 0 0 1 0-1.219l1.179-1.178c.266-.266.332-.67.162-.982-.326-.6-.637-1.412-.952-2.48-.1-.338-.432-.572-.809-.572h-1.665a.863.863 0 0 1-.862-.863v-3.448c0-.476.386-.862.862-.862h1.664c.378 0 .71-.236.809-.573.315-1.069.626-1.88.953-2.479.17-.312.102-.716-.163-.982l-1.179-1.179a.861.861 0 0 1 0-1.22l2.69-2.69a.863.863 0 0 1 1.22 0l1.177 1.178c.267.266.67.334.983.162.597-.324 1.409-.635 2.478-.952.338-.098.573-.43.573-.808v-1.664c0-.475.386-.861.862-.861h3.448c.476 0 .862.386.862.861v1.666c0 .376.236.71.573.809 1.07.315 1.882.627 2.48.952.312.17.715.104.982-.164l1.178-1.177a.862.862 0 0 1 1.22 0l2.69 2.69a.858.858 0 0 1 0 1.22l-1.179 1.178c-.266.267-.333.67-.163.983.327.599.64 1.41.953 2.478.1.338.431.575.809.575h1.664c.476 0 .862.384.862.86zm-1.721.86h-.803c-1.136 0-2.149-.742-2.463-1.808-.279-.95-.545-1.651-.813-2.141-.533-.98-.344-2.225.459-3.028l.568-.569-1.472-1.47-.569.567c-.802.803-2.047.992-3.025.458-.49-.266-1.19-.532-2.142-.813-1.065-.314-1.81-1.327-1.81-2.462v-.8h-1.723v.801c0 1.137-.744 2.15-1.81 2.463-.952.281-1.652.547-2.141.813-.98.535-2.224.345-3.027-.459l-.568-.567-1.472 1.471.57.57c.802.802.99 2.046.458 3.026-.268.49-.534 1.19-.813 2.14-.313 1.066-1.327 1.81-2.463 1.81h-.802v1.724h.802c1.136 0 2.15.745 2.463 1.81.28.95.546 1.65.813 2.142.534.979.345 2.223-.458 3.025l-.569.569 1.472 1.472.568-.568c.803-.803 2.047-.992 3.026-.459.49.268 1.19.533 2.142.815 1.065.311 1.81 1.325 1.81 2.461v.803h1.722v-.803c0-1.137.744-2.15 1.81-2.463.951-.28 1.652-.547 2.142-.813.979-.533 2.223-.344 3.026.459l.569.567 1.471-1.471-.568-.569c-.803-.803-.991-2.047-.458-3.026.268-.491.533-1.194.812-2.142.314-1.066 1.327-1.81 2.463-1.81h.803zm-6.036.863a6.904 6.904 0 0 1-6.896 6.897 6.904 6.904 0 0 1-6.897-6.897A6.904 6.904 0 0 1 455 1943.1a6.904 6.904 0 0 1 6.896 6.896zm-1.724 0a5.179 5.179 0 0 0-5.172-5.172 5.179 5.179 0 0 0-5.173 5.172 5.179 5.179 0 0 0 5.173 5.174 5.178 5.178 0 0 0 5.172-5.174z"/></defs><g><g transform="translate(-430 -1925)"><use xlink:href="#f3b0a"/></g></g></svg>