<svg xmlns="http://www.w3.org/2000/svg" xmlns:xlink="http://www.w3.org/1999/xlink" width="50" height="50" viewBox="0 0 50 50"><defs><path id="tpvfa" d="M465.89 1591.785a2.66 2.66 0 0 1 .196 2.042 2.661 2.661 0 0 1-1.304 1.583l-.677.36a6.384 6.384 0 0 1-3.956.668 7.154 7.154 0 0 1-5.187-3.69l-6.7-12.602a7.14 7.14 0 0 1-.159-6.347 6.427 6.427 0 0 1 2.778-2.924l.671-.356a2.671 2.671 0 0 1 2.04-.196c.684.21 1.246.673 1.583 1.305l1.25 2.351a2.757 2.757 0 0 1-1.137 3.72c-.537.286-.93.762-1.107 1.343a2.259 2.259 0 0 0 .167 1.732l3.514 6.61c.277.52.76.92 1.324 1.092.572.174 1.18.115 1.709-.166a2.765 2.765 0 0 1 2.117-.204c.71.216 1.292.698 1.642 1.353zm-1.38.733l-1.235-2.324a1.215 1.215 0 0 0-1.646-.503 3.788 3.788 0 0 1-2.899.28 3.79 3.79 0 0 1-2.247-1.852l-3.514-6.61a3.812 3.812 0 0 1-.282-2.923 3.808 3.808 0 0 1 1.866-2.267c.58-.306.8-1.027.493-1.605l-1.25-2.351a1.105 1.105 0 0 0-.66-.545 1.098 1.098 0 0 0-.85.082l-.672.356a4.85 4.85 0 0 0-2.097 2.206 5.569 5.569 0 0 0 .125 4.95l6.699 12.601a5.58 5.58 0 0 0 4.047 2.88 4.796 4.796 0 0 0 2.984-.503l.678-.361a1.113 1.113 0 0 0 .46-1.51zm15.49-29.2v41.36c0 2.382-1.907 4.32-4.251 4.32h-38.484c-2.344 0-4.251-1.938-4.251-4.32v-10.68h-3.015v-2.031h3.015v-15.969h-3.015v-2h3.015v-10.68c0-2.383 1.907-4.32 4.251-4.32h38.484c2.344 0 4.25 1.937 4.25 4.32zm-2 .406c0-1.52-1.206-2.757-2.689-2.757h-37.608c-1.483 0-2.69 1.236-2.69 2.757v10.274h2.984v2h-2.984v15.969h2.984v2.03h-2.984v10.213c0 1.52 1.207 2.756 2.69 2.756h37.608c1.483 0 2.69-1.236 2.69-2.756z"/></defs><g><g transform="translate(-430 -1559)"><use xlink:href="#tpvfa"/></g></g></svg>