<svg xmlns="http://www.w3.org/2000/svg" xmlns:xlink="http://www.w3.org/1999/xlink" width="50" height="50" viewBox="0 0 50 50"><defs><path id="z587a" d="M442.5 1243.688c0 2.053-1.683 3.723-3.75 3.723-2.068 0-3.75-1.67-3.75-3.723 0-2.054 1.682-3.725 3.75-3.725 2.067 0 3.75 1.67 3.75 3.725zm-1.667 0a2.078 2.078 0 0 0-2.083-2.069 2.078 2.078 0 0 0-2.084 2.069c0 1.141.936 2.068 2.084 2.068a2.078 2.078 0 0 0 2.083-2.068zm30.834-2.069c.46 0 .833.37.833.827a.83.83 0 0 1-.833.827.83.83 0 0 1-.834-.827.83.83 0 0 1 .834-.827zm-3.334 0c.46 0 .834.37.834.827a.83.83 0 0 1-.834.827.83.83 0 0 1-.833-.827.83.83 0 0 1 .833-.827zm5 2.482c.46 0 .833.37.833.828a.83.83 0 0 1-.833.827.83.83 0 0 1-.833-.827.83.83 0 0 1 .833-.828zm-3.333 0c.46 0 .833.37.833.828a.83.83 0 0 1-.833.827.83.83 0 0 1-.833-.827.83.83 0 0 1 .833-.828zm-5-2.482c.46 0 .833.37.833.827a.83.83 0 0 1-.833.827.83.83 0 0 1-.833-.827.83.83 0 0 1 .833-.827zm1.666 2.482c.46 0 .834.37.834.828a.83.83 0 0 1-.834.827.83.83 0 0 1-.833-.827.83.83 0 0 1 .833-.828zm-5-2.482c.46 0 .834.37.834.827a.83.83 0 0 1-.833.827.83.83 0 0 1-.834-.827.83.83 0 0 1 .834-.827zm1.667 2.482c.46 0 .834.37.834.828a.83.83 0 0 1-.834.827.83.83 0 0 1-.833-.827.83.83 0 0 1 .833-.828zm-5-2.482c.46 0 .833.37.833.827a.83.83 0 0 1-.833.827.83.83 0 0 1-.833-.827.83.83 0 0 1 .833-.827zm1.667 2.482c.46 0 .833.37.833.828a.83.83 0 0 1-.833.827.83.83 0 0 1-.834-.827.83.83 0 0 1 .834-.828zm18.519 7.448c.895.7 1.48 1.771 1.48 2.987v9.751c0 2.103-1.722 3.814-3.84 3.814h-20.2v8.704c1.63.33 2.79 1.609 3.123 3.228h20.085c.46 0 .833.494.833.951 0 .458-.373.953-.833.953h-20.085c-.387 1.886-2.07 3.06-4.082 3.06-2.013 0-3.695-1.174-4.083-3.06h-20.084c-.46 0-.833-.495-.833-.953 0-.457.373-.95.833-.95h20.084c.333-1.62 1.495-2.899 3.124-3.23v-8.703H433.84c-2.118 0-3.84-1.71-3.84-3.814v-9.751c0-1.215.586-2.288 1.48-2.987-.894-.699-1.48-1.77-1.48-2.987v-9.75c0-2.104 1.722-3.815 3.84-3.815h42.32c2.117 0 3.84 1.711 3.84 3.814v9.752c0 1.216-.586 2.287-1.481 2.986zm-23.52 26.828a2.495 2.495 0 0 0-2.5 2.482 2.495 2.495 0 0 0 2.5 2.484c1.38 0 2.5-1.114 2.5-2.484a2.495 2.495 0 0 0-2.5-2.482zm20.847-25.438h-41.694a2.168 2.168 0 0 0-2.173 2.158v8.752c0 1.19.975 2.159 2.173 2.159h41.695a2.169 2.169 0 0 0 2.174-2.16v-8.751c0-1.19-.975-2.158-2.175-2.158zm.001-1.967a2.169 2.169 0 0 0 2.174-2.16v-9.689c0-1.189-.975-2.158-2.175-2.158h-41.694a2.169 2.169 0 0 0-2.173 2.158v9.69c0 1.19.975 2.159 2.173 2.159zm-40.535 8.439c0-2.053 1.37-3.723 3.438-3.723 2.067 0 3.75 1.67 3.75 3.723 0 2.054-1.683 3.725-3.75 3.725-2.068 0-3.438-1.671-3.438-3.725zm1.354 0c0 1.142.936 2.069 2.084 2.069a2.078 2.078 0 0 0 2.083-2.069 2.078 2.078 0 0 0-2.083-2.069 2.078 2.078 0 0 0-2.084 2.069zm35-2.069c.46 0 .834.371.834.828a.83.83 0 0 1-.833.828.83.83 0 0 1-.834-.828.83.83 0 0 1 .834-.828zm-3.333 0c.46 0 .834.371.834.828a.83.83 0 0 1-.834.828.83.83 0 0 1-.833-.828.83.83 0 0 1 .833-.828zm5 2.484c.46 0 .833.37.833.826a.83.83 0 0 1-.833.828.83.83 0 0 1-.833-.828.83.83 0 0 1 .833-.826zm-3.333 0c.46 0 .833.37.833.826a.83.83 0 0 1-.833.828.83.83 0 0 1-.833-.828.83.83 0 0 1 .833-.826zm-5-2.484c.46 0 .833.371.833.828a.83.83 0 0 1-.833.828.83.83 0 0 1-.833-.828.83.83 0 0 1 .833-.828zm1.666 2.484c.46 0 .834.37.834.826a.83.83 0 0 1-.834.828.83.83 0 0 1-.833-.828.83.83 0 0 1 .833-.826zm-5-2.484c.46 0 .834.371.834.828a.83.83 0 0 1-.833.828.83.83 0 0 1-.834-.828.83.83 0 0 1 .834-.828zm1.667 2.484c.46 0 .834.37.834.826a.83.83 0 0 1-.834.828.83.83 0 0 1-.833-.828.83.83 0 0 1 .833-.826zm-5-2.484c.46 0 .833.371.833.828a.83.83 0 0 1-.833.828.83.83 0 0 1-.833-.828.83.83 0 0 1 .833-.828zm1.667 2.484c.46 0 .833.37.833.826a.83.83 0 0 1-.833.828.83.83 0 0 1-.834-.828.83.83 0 0 1 .834-.826z"/></defs><g><g transform="translate(-430 -1235)"><use xlink:href="#z587a"/></g></g></svg>