<svg xmlns="http://www.w3.org/2000/svg" xmlns:xlink="http://www.w3.org/1999/xlink" width="100" height="100" viewBox="0 0 100 100"><defs><path id="xxgwa" d="M425 6203.998c27.614 0 50 22.386 50 50 0 27.615-22.386 50-50 50s-50-22.385-50-50c0-27.614 22.386-50 50-50z"/><path id="xxgwc" d="M444.642 6263.315c.379.264.471.783.209 1.16l-5.179 7.44a.835.835 0 0 1-1.212.169l-3.988-3.275a.83.83 0 0 1-.116-1.172.834.834 0 0 1 1.172-.116l3.291 2.702 4.663-6.7a.829.829 0 0 1 1.16-.208zm-32.142-25.566a3.754 3.754 0 0 1-3.75 3.749 3.754 3.754 0 0 1-3.75-3.75 3.754 3.754 0 0 1 3.75-3.75 3.754 3.754 0 0 1 3.75 3.75zm-1.667 0c0-1.15-.935-2.085-2.083-2.085a2.086 2.086 0 0 0-2.083 2.085c0 1.148.935 2.083 2.083 2.083a2.086 2.086 0 0 0 2.083-2.083zm30.834-2.085a.834.834 0 1 1-.001 1.668.834.834 0 0 1 0-1.668zm-3.334 0a.834.834 0 1 1 0 1.668.834.834 0 0 1 0-1.668zm5 2.502a.833.833 0 1 1 .001 1.665.833.833 0 0 1 0-1.665zm-3.333 0a.833.833 0 1 1 .001 1.665.833.833 0 0 1-.001-1.665zm-5-2.502a.834.834 0 1 1 0 1.668.834.834 0 0 1 0-1.668zm1.667 2.502a.833.833 0 1 1 0 1.665.833.833 0 0 1 0-1.665zm-5-2.502a.834.834 0 1 1-.001 1.668.834.834 0 0 1 0-1.668zm1.666 2.502a.833.833 0 1 1 .001 1.665.833.833 0 0 1 0-1.665zm-5-2.502a.834.834 0 1 1 0 1.668.834.834 0 0 1 0-1.668zm1.667 2.502a.833.833 0 1 1 .001 1.665.833.833 0 0 1-.001-1.665zm18.519 7.499a3.82 3.82 0 0 1 1.48 3.008v9.818c0 1.44-.82 2.72-2.037 3.372a10.768 10.768 0 0 1 2.038 6.302c0 5.974-4.86 10.833-10.833 10.833-1.474 0-2.879-.298-4.16-.832H403.84a3.845 3.845 0 0 1-3.84-3.841v-9.82c0-1.223.586-2.303 1.48-3.007a3.82 3.82 0 0 1-1.48-3.008v-9.818c0-1.224.586-2.302 1.48-3.007a3.819 3.819 0 0 1-1.48-3.007v-9.82a3.844 3.844 0 0 1 3.84-3.84h42.32a3.844 3.844 0 0 1 3.84 3.84v9.82a3.818 3.818 0 0 1-1.481 3.007zm-16.597 30.282c-.154-.14-.31-.025-.455-.172-.13-.132-.249-.271-.371-.408-.126-.14-.252-.28-.37-.427-.113-.14-.217-.285-.322-.43-.116-.16-.23-.32-.337-.486a11.904 11.904 0 0 1-.768-1.414c-.095-.21-.18-.424-.262-.641-.05-.132-.102-.265-.147-.401a10.82 10.82 0 0 1-.206-.719c-.032-.127-.07-.25-.097-.378-.059-.267-.1-.538-.138-.812-.015-.11-.038-.216-.05-.326a10.812 10.812 0 0 1-.066-1.168c0-.327.02-.65.05-.975.008-.103.02-.203.032-.304.027-.23.063-.458.105-.685.02-.099.034-.2.055-.3.06-.281.132-.558.215-.833.04-.137.09-.27.135-.405a11.397 11.397 0 0 1 .35-.893c.059-.136.126-.267.192-.4.129-.259.268-.513.416-.76.055-.091.107-.531.165-.622h-25.864a2.176 2.176 0 0 0-2.174 2.174v10.163c0 1.198.975 1.673 2.174 1.673h28.063c-.114-.095-.215.047-.325-.051zm16.411-7.782a9.125 9.125 0 0 0-2.423-6.188 9.35 9.35 0 0 0-.6-.596c-.028-.024-.054-.05-.08-.073a8.92 8.92 0 0 0-.675-.543l-.057-.041a9.345 9.345 0 0 0-.774-.501l-.008-.006a9.135 9.135 0 0 0-5.512-1.166l-.03.003a9.124 9.124 0 0 0-2.733.743l-.004.002a9.137 9.137 0 0 0-1.62.938l-.08.059a8.911 8.911 0 0 0-.655.533c-.03.027-.061.054-.091.083a9.258 9.258 0 0 0-.595.597c-.028.03-.056.059-.083.09a8.705 8.705 0 0 0-.539.668c-.135.187-.262.376-.383.568-.032.05-.063.102-.094.154a8.892 8.892 0 0 0-.655 1.33c-.033.082-.061.166-.091.248-.065.18-.128.36-.181.544-.03.107-.056.214-.083.323-.042.165-.085.331-.117.499-.028.148-.048.3-.07.45-.018.134-.042.266-.055.4-.028.291-.045.584-.045.882a9.071 9.071 0 0 0 .07 1.081c.025.203.056.4.092.598.015.08.028.16.045.24.055.256.12.51.195.758.02.064.045.126.065.19a8.88 8.88 0 0 0 .59 1.387c.025.048.046.097.072.143.13.239.272.471.423.696.02.032.044.06.065.09.135.199.28.39.43.577l.098.12c.17.202.346.398.532.585l.015.014c.2.2.409.39.626.57.029.025.059.046.087.07.177.142.36.28.547.41l.191.129c.165.107.335.21.508.308.068.04.135.082.205.119.229.123.464.236.704.34l.07.03c1.09.457 2.283.71 3.537.71 5.054 0 9.166-4.111 9.166-9.165zm-2.549-21.198h-41.6a2.176 2.176 0 0 0-2.174 2.173v8.695c0 1.199.975 2.174 2.174 2.174h27.18l.02-.017c1.97-2.04 4.728-2.66 7.783-2.66a10.79 10.79 0 0 1 7.684 3.207c.867-.294 1.107-1.112 1.107-2.049v-9.35a2.176 2.176 0 0 0-2.174-2.173zm0-2.011a2.175 2.175 0 0 0 2.174-2.173v-9.632a2.176 2.176 0 0 0-2.174-2.173h-41.6a2.176 2.176 0 0 0-2.174 2.173v9.633c0 1.198.975 2.172 2.174 2.172zM405 6253.58a3.755 3.755 0 0 1 3.75-3.75 3.755 3.755 0 0 1 3.75 3.75 3.755 3.755 0 0 1-3.75 3.751 3.755 3.755 0 0 1-3.75-3.75zm1.667 0c0 1.15.935 2.084 2.083 2.084a2.085 2.085 0 0 0 2.083-2.084c0-1.15-.935-2.083-2.083-2.083a2.085 2.085 0 0 0-2.083 2.083zm35-2.083a.834.834 0 1 1 0 1.667.834.834 0 0 1 0-1.667zm-3.334 0a.834.834 0 1 1 0 1.667.834.834 0 0 1 0-1.667zm5 2.5a.834.834 0 1 1 0 1.667.834.834 0 0 1 0-1.667zm-3.333 0a.834.834 0 1 1 0 1.667.834.834 0 0 1 0-1.667zm-5-2.5a.834.834 0 1 1 0 1.667.834.834 0 0 1 0-1.667zm1.667 2.5a.834.834 0 1 1 0 1.667.834.834 0 0 1 0-1.667zm-5-2.5a.834.834 0 1 1 0 1.667.834.834 0 0 1 0-1.667zm1.666 2.5a.834.834 0 1 1 0 1.667.834.834 0 0 1 0-1.667zm-5-2.5a.834.834 0 1 1 0 1.667.834.834 0 0 1 0-1.667zm1.667 2.5a.834.834 0 1 1 0 1.667.834.834 0 0 1 0-1.667zm-17.5 15.417a3.754 3.754 0 0 1-3.75 3.75 3.754 3.754 0 0 1-3.75-3.75 3.754 3.754 0 0 1 3.75-3.75 3.754 3.754 0 0 1 3.75 3.75zm-1.667 0c0-1.15-.935-2.083-2.083-2.083a2.085 2.085 0 0 0-2.083 2.083c0 1.15.935 2.083 2.083 2.083a2.085 2.085 0 0 0 2.083-2.083z"/><clipPath id="xxgwb"><use fill="#fff" xlink:href="#xxgwa"/></clipPath></defs><g><g transform="translate(-375 -6204)"><use fill="#fff" fill-opacity="0" stroke="#ffc527" stroke-linecap="round" stroke-linejoin="round" stroke-miterlimit="50" stroke-width="2" clip-path="url(&quot;#xxgwb&quot;)" xlink:href="#xxgwa"/></g><g transform="translate(-375 -6204)"><use fill="#ffc527" xlink:href="#xxgwc"/></g></g></svg>