<svg xmlns="http://www.w3.org/2000/svg" xmlns:xlink="http://www.w3.org/1999/xlink" width="16" height="16" viewBox="0 0 16 16"><defs><path id="duffa" d="M1053.008 6593.998a8 8 0 1 1 0-16 8 8 0 0 1 0 16zm3.668-10.332a.385.385 0 0 0 0-.545l-.817-.817a.387.387 0 0 0-.544 0l-2.314 2.315-2.315-2.315a.387.387 0 0 0-.544 0l-.817.817a.385.385 0 0 0 0 .545l2.314 2.314-2.314 2.315a.384.384 0 0 0 0 .543l.817.818c.15.15.394.15.544 0l2.315-2.315 2.314 2.315c.15.15.394.15.544 0l.817-.818a.384.384 0 0 0 0-.543l-2.314-2.315z"/></defs><g><g transform="translate(-1045 -6578)"><use fill="#cfd8dc" xlink:href="#duffa"/></g></g></svg>