<svg xmlns="http://www.w3.org/2000/svg" xmlns:xlink="http://www.w3.org/1999/xlink" width="16" height="16" viewBox="0 0 16 16"><defs><path id="uj5oa" d="M553.007 5575.006a8 8 0 1 1 0-16 8 8 0 0 1 0 16zm4.466-10.804l-.796-.796a.376.376 0 0 0-.53 0l-4.773 4.772-2.27-2.287a.377.377 0 0 0-.531 0l-.796.797a.375.375 0 0 0 0 .53l2.524 2.544c.004.003.005.008.008.012l.547.546.131.132.118.118a.377.377 0 0 0 .531 0l5.837-5.838a.374.374 0 0 0 0-.53z"/></defs><g><g transform="translate(-545 -5559)"><use fill="#7ac70c" xlink:href="#uj5oa"/></g></g></svg>