<svg xmlns="http://www.w3.org/2000/svg" xmlns:xlink="http://www.w3.org/1999/xlink" width="100" height="100" viewBox="0 0 100 100"><defs><path id="im1ga" d="M425 5254.998c27.614 0 50 22.386 50 50 0 27.613-22.386 50-50 50s-50-22.387-50-50c0-27.614 22.386-50 50-50z"/><path id="im1gc" d="M414.01 5322.996h1.98v1.011h-1.98zm2.959 0h2.041v1.011h-2.041zm-2.959-13.005h1.98v1.012h-1.98zm2.959 0h2.041v1.012h-2.041zm33.03-9.17c0 5.986-5.006 10.839-10.989 10.839v4.5a.833.833 0 0 1-.833.834h-2.167v2.979h2.167c.46 0 .833.374.833.835v8.356c0 .46-.373.834-.833.834H411.79a.834.834 0 0 1-.833-.834v-8.356c0-.46.373-.835.833-.835h2.167v-2.98h-2.167a.833.833 0 0 1-.833-.833v-4.5h-1.792c-5.062 0-9.166-4.107-9.166-9.172 0-5.064 4.104-9.17 9.166-9.17.286 0 .571.013.856.04a14.168 14.168 0 0 1 10.072-12.781c7.492-2.246 15.385 2.008 17.63 9.504.479-.065.96-.098 1.442-.098 5.984 0 10.834 4.853 10.834 10.839zm-37 21.132v6.034h24v-6.034zm20.97-1.98v-2.98h-17.97v2.98zm3.03-10.961h-24v5.97h24zm11.138-10.068c-1.037-4.958-5.894-8.136-10.85-7.099a.834.834 0 0 1-.98-.622 12.496 12.496 0 0 0-12.156-9.578c-6.9.005-12.49 5.604-12.484 12.507l.008.157a.835.835 0 0 1-.999.829 7.5 7.5 0 0 0-9.01 7.35 7.501 7.501 0 0 0 7.5 7.503h1.792v-2.188c0-.46.373-.833.833-.833h5.22v-5.314h-3.831a2.5 2.5 0 0 1-4.714 0 2.5 2.5 0 1 1 4.714-1.668h3.976c.46 0 .833.373.833.834v6.148h4.98v-16.987c0-.46.373-.833.833-.833h3.851a2.5 2.5 0 1 1 0 1.667h-3.643v16.153h4.948v-8.65c0-.46.373-.833.833-.833h7.862a2.5 2.5 0 1 1 0 1.667H430v7.816h8.177c.46 0 .833.373.833.833v2.188c.63 0 1.414-.065 2.03-.194 4.956-1.036 8.133-5.895 7.097-10.853zm-8.137.21a.834.834 0 1 0-.002-1.668.834.834 0 0 0 .002 1.668zm-10-8.337a.834.834 0 1 0 0-1.667.834.834 0 0 0 0 1.667zm-19.167 9.17a.834.834 0 1 0 .001 1.668.834.834 0 0 0 0-1.668z"/><clipPath id="im1gb"><use fill="#fff" xlink:href="#im1ga"/></clipPath></defs><g><g transform="translate(-375 -5255)"><use fill="#fff" fill-opacity="0" stroke="#40c4f4" stroke-linecap="round" stroke-linejoin="round" stroke-miterlimit="50" stroke-width="2" clip-path="url(&quot;#im1gb&quot;)" xlink:href="#im1ga"/></g><g transform="translate(-375 -5255)"><use fill="#40c4f4" xlink:href="#im1gc"/></g></g></svg>