<svg xmlns="http://www.w3.org/2000/svg" xmlns:xlink="http://www.w3.org/1999/xlink" width="16" height="16" viewBox="0 0 16 16"><defs><path id="bsu4a" d="M1053.008 5848.998a8 8 0 1 1 8-8c0 4.42-3.582 8-8 8zm3.668-10.333a.384.384 0 0 0 0-.544l-.817-.817a.386.386 0 0 0-.544 0l-2.314 2.314-2.315-2.314a.386.386 0 0 0-.544 0l-.817.817a.384.384 0 0 0 0 .544l2.314 2.315-2.314 2.314a.384.384 0 0 0 0 .544l.817.817c.15.15.394.15.544 0l2.315-2.314 2.314 2.314c.15.15.394.15.544 0l.817-.817a.384.384 0 0 0 0-.544l-2.314-2.314z"/></defs><g><g transform="translate(-1045 -5833)"><use fill="#f66f7d" xlink:href="#bsu4a"/></g></g></svg>