<svg xmlns="http://www.w3.org/2000/svg" xmlns:xlink="http://www.w3.org/1999/xlink" width="201" height="201" viewBox="0 0 201 201"><defs><path id="5buda" d="M1481.386 5593.524l60.963 60.966c3.96 3.96 3.96 10.383 0 14.344l-21.517 21.516c-3.96 3.96-10.383 3.96-14.343 0l-60.965-60.965-60.964 60.965c-3.961 3.96-10.383 3.96-14.345 0l-21.517-21.516c-3.96-3.961-3.96-10.385 0-14.344l60.965-60.966-60.965-60.964c-3.96-3.96-3.96-10.384 0-14.344l21.517-21.517c3.962-3.96 10.384-3.96 14.345 0l60.964 60.965 60.965-60.965c3.96-3.96 10.382-3.96 14.343 0l21.517 21.517c3.96 3.96 3.96 10.384 0 14.344z"/></defs><g><g transform="translate(-1345 -5493)"><use fill="#f1f4f9" xlink:href="#5buda"/></g></g></svg>