<svg xmlns="http://www.w3.org/2000/svg" width="60" height="50" viewBox="0 0 60 50"><g><g><path fill="#8fd4ef" d="M45-.003c8.284 0 15 6.717 15 15.002 0 8.283-6.716 14.999-15 14.999-8.285 0-15-6.716-15-15C30 6.715 36.715-.002 45-.002z"/></g><g><path fill="#565574" d="M50 20.047v2.538a2.663 2.663 0 0 1-2.135 2.604l-4.186.837a15.636 15.636 0 0 1-1.061 2.561l2.368 3.553c.7 1.05.56 2.459-.332 3.35l-1.795 1.796a2.655 2.655 0 0 1-1.88.775c-.51 0-1.023-.145-1.47-.444l-3.949-2.632a.79.79 0 1 1 .876-1.314l3.948 2.633a1.08 1.08 0 0 0 1.359-.135l1.795-1.795a1.08 1.08 0 0 0 .134-1.358l-2.632-3.949a.79.79 0 0 1-.031-.825c.552-.98.985-2.026 1.288-3.11a.79.79 0 0 1 .606-.561l4.653-.93c.501-.1.865-.545.865-1.056v-2.539a1.08 1.08 0 0 0-.865-1.055l-4.653-.93a.79.79 0 0 1-.606-.562 14.064 14.064 0 0 0-1.288-3.11.789.789 0 0 1 .031-.825l2.632-3.949a1.08 1.08 0 0 0-.134-1.358l-1.795-1.795a1.08 1.08 0 0 0-1.358-.135l-3.95 2.633a.79.79 0 0 1-.825.031 14.056 14.056 0 0 0-3.109-1.288.79.79 0 0 1-.561-.606l-.93-4.653a1.08 1.08 0 0 0-1.057-.865h-2.538a1.08 1.08 0 0 0-1.056.865l-.93 4.653a.79.79 0 0 1-.562.606c-1.084.303-2.13.736-3.11 1.288a.79.79 0 0 1-.824-.031l-3.949-2.632a1.079 1.079 0 0 0-1.358.134L13.83 8.257a1.08 1.08 0 0 0-.135 1.358l2.632 3.95a.79.79 0 0 1 .031.824 14.07 14.07 0 0 0-1.288 3.11.79.79 0 0 1-.606.561l-4.652.93a1.08 1.08 0 0 0-.866 1.056v2.539c0 .511.364.955.866 1.055l2.71.542a.79.79 0 0 1-.31 1.549l-2.71-.542a2.663 2.663 0 0 1-2.135-2.604v-2.539c0-1.261.898-2.356 2.135-2.604l4.186-.837c.278-.883.633-1.741 1.062-2.561l-2.369-3.553c-.7-1.05-.56-2.459.332-3.35l1.795-1.795a2.662 2.662 0 0 1 3.35-.332l3.553 2.368c.82-.428 1.678-.784 2.562-1.061l.837-4.187A2.662 2.662 0 0 1 27.415 0h2.538c1.262 0 2.357.898 2.604 2.134l.837 4.187a15.63 15.63 0 0 1 2.562 1.061l3.552-2.368c1.05-.7 2.46-.56 3.351.332l1.795 1.795c.892.892 1.032 2.3.332 3.35l-2.369 3.553c.429.82.784 1.678 1.062 2.561l4.186.837A2.663 2.663 0 0 1 50 20.047zM34.21 30.263v1.053c0 .828-.35 1.577-.91 2.105.56.528.91 1.276.91 2.105v1.053c0 .828-.35 1.577-.91 2.105.56.528.91 1.277.91 2.105v1.053c0 .829-.35 1.577-.91 2.105.56.528.91 1.277.91 2.105v1.053A2.898 2.898 0 0 1 31.316 50H17.015a4.357 4.357 0 0 1-3.092-1.276 2.809 2.809 0 0 0-1.99-.83H10v.264A1.844 1.844 0 0 1 8.158 50H1.842A1.844 1.844 0 0 1 0 48.158V30.263c0-1.016.826-1.842 1.842-1.842h6.316c1.016 0 1.842.826 1.842 1.842v.263h1.903c.567 0 1.069-.362 1.248-.9l.294-.882a25.108 25.108 0 0 0 1.291-7.955 2.898 2.898 0 0 1 2.895-2.895c1.055 0 2.046.411 2.792 1.157a3.922 3.922 0 0 1 1.156 2.791v8.42a.79.79 0 1 1-1.58 0v-8.42c0-.633-.245-1.227-.693-1.675a2.352 2.352 0 0 0-1.675-.694c-.725 0-1.315.59-1.315 1.316 0 2.88-.462 5.724-1.372 8.455l-.294.882a2.891 2.891 0 0 1-2.747 1.98H10v2.368a.79.79 0 1 1-1.579 0v-4.211A.264.264 0 0 0 8.158 30H1.842a.263.263 0 0 0-.263.263v17.895c0 .145.118.263.263.263H4.21V37.63a.79.79 0 1 1 1.58 0v10.79h2.368a.263.263 0 0 0 .263-.263V37.632a.79.79 0 1 1 1.579 0v8.684h1.932c1.167 0 2.27.457 3.105 1.289.529.526 1.231.816 1.978.816h14.3c.726 0 1.316-.59 1.316-1.316v-1.053c0-.725-.59-1.315-1.315-1.315h-7.369a.79.79 0 0 1 0-1.58h7.369c.725 0 1.315-.59 1.315-1.315v-1.053c0-.725-.59-1.315-1.315-1.315h-7.369a.79.79 0 0 1 0-1.58h7.369c.725 0 1.315-.59 1.315-1.315v-1.053c0-.725-.59-1.316-1.315-1.316h-7.369a.79.79 0 1 1 0-1.578h7.369c.725 0 1.315-.59 1.315-1.316v-1.053c0-.725-.59-1.316-1.315-1.316h-7.369a.79.79 0 1 1 0-1.579h7.369a2.898 2.898 0 0 1 2.894 2.895zm-9.53-8.323a4.057 4.057 0 0 1 3.38-4.628 4.057 4.057 0 0 1 4.628 3.379 4.057 4.057 0 0 1-4.006 4.678 4.06 4.06 0 0 1-4.002-3.429zm1.56-.243a2.476 2.476 0 0 0 2.826 2.063 2.476 2.476 0 0 0 2.062-2.826 2.477 2.477 0 0 0-2.825-2.062 2.476 2.476 0 0 0-2.063 2.825zm9.037 7.031a.79.79 0 0 1-.024-1.116 9.04 9.04 0 0 0 2.42-7.7 9.002 9.002 0 0 0-1.61-3.923.79.79 0 0 1 1.279-.926 10.566 10.566 0 0 1 1.892 4.606 10.606 10.606 0 0 1-2.84 9.035.787.787 0 0 1-1.117.024zm-1.115-14.677a9.027 9.027 0 0 0-6.881-1.725 9.042 9.042 0 0 0-6.584 4.632.79.79 0 1 1-1.386-.758 10.608 10.608 0 0 1 7.726-5.434c2.88-.45 5.748.27 8.076 2.025a.79.79 0 1 1-.95 1.26z"/></g></g></svg>