<svg xmlns="http://www.w3.org/2000/svg" width="60" height="50" viewBox="0 0 60 50"><g><g><path fill="#8fd4ef" d="M45 19.997c8.284 0 15 6.717 15 15.002 0 8.283-6.716 14.999-15 14.999-8.284 0-15-6.716-15-15 0-8.284 6.716-15.001 15-15.001z"/></g><g><path fill="#565574" d="M28.93 48.907a.79.79 0 0 1-.682.884l-.072.01a.79.79 0 0 1-.196-1.566l.066-.01a.79.79 0 0 1 .884.682zm-2.831.292a.79.79 0 0 1-.78.8h-.313c-6.68 0-12.959-2.6-17.682-7.322C2.601 37.956 0 31.677 0 25 0 18.322 2.6 12.044 7.324 7.322 12.047 2.6 18.327 0 25.006 0c6.68 0 12.959 2.6 17.682 7.322 4.723 4.722 7.324 11 7.324 17.678 0 3.809-.835 7.466-2.481 10.87a.79.79 0 0 1-1.422-.688A23.196 23.196 0 0 0 48.433 25c0-12.915-10.51-23.421-23.427-23.421-12.918 0-23.427 10.506-23.427 23.42 0 12.915 10.51 23.422 23.427 23.422.098 0 .196 0 .293-.002h.01a.79.79 0 0 1 .79.78zm18.122-24.2c0-1.218-.992-2.21-2.211-2.21h-1.283a.79.79 0 0 1-.775-.642 15.044 15.044 0 0 0-2.36-5.695.79.79 0 0 1 .094-1.003l.907-.907a2.212 2.212 0 0 0 0-3.126 2.213 2.213 0 0 0-3.127 0l-.907.907a.79.79 0 0 1-1.003.094 15.05 15.05 0 0 0-5.697-2.36.79.79 0 0 1-.642-.775V8c0-1.219-.992-2.21-2.211-2.21-1.22 0-2.211.991-2.211 2.21V9.28c0 .38-.27.705-.643.776a15.048 15.048 0 0 0-5.696 2.36.79.79 0 0 1-1.003-.094l-.907-.908a2.214 2.214 0 0 0-3.127 0 2.195 2.195 0 0 0-.648 1.564c0 .59.23 1.145.648 1.563l.907.907a.79.79 0 0 1 .094 1.002 15.045 15.045 0 0 0-2.36 5.696.79.79 0 0 1-.776.642H8.002c-1.22 0-2.211.992-2.211 2.21 0 1.22.992 2.211 2.21 2.211h1.283c.38 0 .705.27.776.642a15.043 15.043 0 0 0 2.36 5.696.79.79 0 0 1-.094 1.002l-.907.907a2.196 2.196 0 0 0-.648 1.563 2.214 2.214 0 0 0 3.774 1.563l.908-.907a.79.79 0 0 1 1.003-.094 15.048 15.048 0 0 0 5.696 2.36.79.79 0 0 1 .643.775V42c0 1.218.992 2.21 2.21 2.21 1.22 0 2.212-.992 2.212-2.21v-1.283c0-.379.27-.705.643-.775a15.157 15.157 0 0 0 2.15-.575.79.79 0 1 1 .52 1.491c-.566.197-1.147.365-1.734.5V42c0 2.09-1.7 3.79-3.79 3.79s-3.79-1.7-3.79-3.79v-.641a16.586 16.586 0 0 1-5.1-2.113l-.454.454a3.796 3.796 0 0 1-5.36 0 3.765 3.765 0 0 1-1.11-2.68c0-1.011.394-1.963 1.11-2.68l.454-.453a16.58 16.58 0 0 1-2.113-5.098h-.641c-2.09 0-3.79-1.7-3.79-3.79 0-2.089 1.7-3.789 3.79-3.789h.641a16.58 16.58 0 0 1 2.113-5.098l-.454-.454a3.765 3.765 0 0 1-1.11-2.68c0-1.011.394-1.963 1.11-2.679a3.795 3.795 0 0 1 5.36 0l.455.454a16.583 16.583 0 0 1 5.099-2.112V8c0-2.09 1.7-3.79 3.79-3.79s3.79 1.7 3.79 3.79v.641a16.586 16.586 0 0 1 5.1 2.112l.454-.454a3.796 3.796 0 0 1 5.36 0 3.794 3.794 0 0 1 0 5.36l-.454.454a16.578 16.578 0 0 1 2.113 5.097h.641c2.09 0 3.79 1.7 3.79 3.79s-1.7 3.79-3.79 3.79h-.641a16.718 16.718 0 0 1-.5 1.733.79.79 0 0 1-1.492-.52c.243-.698.437-1.422.575-2.15a.79.79 0 0 1 .776-.643h1.282c1.22 0 2.211-.991 2.211-2.21zM32.137 48.158a.79.79 0 0 1-.555.97l-.088.023a.79.79 0 0 1-.41-1.525l.083-.022a.79.79 0 0 1 .97.554zm17.028-6.076a2.898 2.898 0 0 1-.001 4.094l-2.978 2.977a2.887 2.887 0 0 1-2.047.846 2.887 2.887 0 0 1-2.048-.846L33 40.039a2.876 2.876 0 0 1-.847-2.046c0-.503.127-.986.366-1.413l-1.444-1.443a11.774 11.774 0 0 1-6.078 1.672 11.77 11.77 0 0 1-8.375-3.468 11.763 11.763 0 0 1-3.47-8.374c0-3.163 1.233-6.137 3.47-8.374 4.618-4.617 12.133-4.617 16.751 0 3.913 3.912 4.51 9.901 1.794 14.448l1.447 1.446a2.88 2.88 0 0 1 1.412-.366 2.877 2.877 0 0 1 2.049.848zm-16.91-9.857a10.28 10.28 0 0 0 1.256-1.52c2.69-3.99 2.272-9.467-1.256-12.994-2-2.001-4.63-3.001-7.258-3.001-2.63 0-5.258 1-7.26 3a10.195 10.195 0 0 0-3.006 7.258c0 2.741 1.068 5.319 3.007 7.257a10.2 10.2 0 0 0 7.259 3.006 10.195 10.195 0 0 0 7.259-3.006zm1.303 3.163l1.862-1.86-1.169-1.168a11.888 11.888 0 0 1-1.86 1.861zm14.49 7.81l-9.093-9.113a1.307 1.307 0 0 0-.93-.384c-.351 0-.682.137-.93.385l-2.978 2.977a1.306 1.306 0 0 0-.386.93c0 .352.137.683.386.931l9.092 9.113a1.317 1.317 0 0 0 1.86 0l2.978-2.978a1.317 1.317 0 0 0 0-1.86zM30.766 19.199c3.181 3.181 3.181 8.357 0 11.538a8.136 8.136 0 0 1-5.77 2.385c-2.09 0-4.18-.795-5.77-2.385-3.182-3.181-3.182-8.357 0-11.538 3.181-3.18 8.358-3.18 11.54 0zm-1.117 1.117a6.589 6.589 0 0 0-9.306 0 6.585 6.585 0 0 0 0 9.304 6.561 6.561 0 0 0 4.653 1.924 6.56 6.56 0 0 0 4.653-1.924 6.585 6.585 0 0 0 0-9.304zm6.596 26.15a.79.79 0 0 1-.367 1.054l-.08.039a.787.787 0 0 1-1.053-.37.79.79 0 0 1 .37-1.054l.075-.036a.79.79 0 0 1 1.055.367z"/></g></g></svg>