<svg xmlns="http://www.w3.org/2000/svg" width="55" height="50" viewBox="0 0 55 50"><g><g><path fill="#8fd4ef" d="M15 19.997c8.284 0 15 6.717 15 15.002 0 8.283-6.716 14.999-15 14.999-8.285 0-15-6.716-15-15 0-8.284 6.715-15.001 15-15.001z"/></g><g><path fill="#565574" d="M45.673 18.695v2.61a1.04 1.04 0 0 1-1.037 1.038h-2.219a7.7 7.7 0 0 1-.515 1.245l1.568 1.569c.196.197.304.457.304.734 0 .277-.108.538-.304.734l-1.845 1.846a1.039 1.039 0 0 1-1.468 0l-1.569-1.569c-.399.208-.815.38-1.245.516v2.218a1.04 1.04 0 0 1-1.038 1.038h-2.61a1.04 1.04 0 0 1-1.038-1.038v-2.218a7.7 7.7 0 0 1-1.246-.516l-1.568 1.569a1.039 1.039 0 0 1-1.468 0l-1.846-1.846a1.04 1.04 0 0 1 0-1.468l1.569-1.569c-.208-.399-.38-.815-.516-1.245h-2.218a1.04 1.04 0 0 1-1.038-1.037v-2.611a1.04 1.04 0 0 1 1.038-1.038h2.218c.136-.43.308-.846.516-1.245l-1.569-1.569a1.031 1.031 0 0 1-.304-.734c0-.277.109-.538.305-.733l1.845-1.847a1.04 1.04 0 0 1 1.468 0l1.568 1.569c.4-.208.816-.38 1.246-.515v-2.22c0-.571.465-1.037 1.038-1.037h2.61a1.04 1.04 0 0 1 1.038 1.038v2.219c.43.135.846.307 1.245.515l1.569-1.569a1.04 1.04 0 0 1 1.468 0l1.845 1.847c.196.195.304.456.304.734 0 .277-.108.537-.304.733l-1.568 1.569c.208.4.38.816.516 1.245h2.218c.572 0 1.038.465 1.037 1.038zm-1.464.427h-2.35a.733.733 0 0 1-.713-.566 6.277 6.277 0 0 0-.779-1.881.732.732 0 0 1 .104-.904l1.662-1.661-1.242-1.242-1.661 1.66a.733.733 0 0 1-.905.105 6.27 6.27 0 0 0-1.881-.78.732.732 0 0 1-.566-.712v-2.35h-1.756v2.35c0 .34-.234.635-.566.713-.667.156-1.3.418-1.881.779a.732.732 0 0 1-.904-.105l-1.662-1.66-1.242 1.242 1.662 1.66c.24.241.283.616.104.905a6.27 6.27 0 0 0-.78 1.881.733.733 0 0 1-.712.566h-2.35v1.756h2.35c.34 0 .635.235.713.566.156.668.418 1.3.779 1.881.18.29.136.664-.104.905l-1.662 1.661 1.242 1.242 1.662-1.66a.733.733 0 0 1 .904-.105c.58.36 1.214.623 1.881.779a.732.732 0 0 1 .566.713v2.35h1.756v-2.35c0-.34.234-.636.566-.713a6.262 6.262 0 0 0 1.881-.779.732.732 0 0 1 .905.104l1.66 1.661 1.243-1.242-1.662-1.66a.733.733 0 0 1-.104-.906c.361-.58.623-1.213.78-1.88a.733.733 0 0 1 .712-.567h2.35zM38.923 20A3.928 3.928 0 0 1 35 23.924 3.928 3.928 0 0 1 31.076 20 3.928 3.928 0 0 1 35 16.077 3.928 3.928 0 0 1 38.923 20zm-1.464 0a2.461 2.461 0 0 0-2.46-2.459 2.461 2.461 0 0 0-2.458 2.46A2.462 2.462 0 0 0 35 22.458 2.462 2.462 0 0 0 37.459 20zm-18.565 0a.732.732 0 0 1-.732.732h-2.43a.732.732 0 1 1 0-1.464h2.43c.405 0 .733.328.733.732zM55 20a.732.732 0 0 1-.733.732h-2.43a.732.732 0 1 1 0-1.464h2.43c.405 0 .733.328.733.732zM23.612 32.425l-1.718 1.718a.733.733 0 0 1-1.036-1.036l1.718-1.718a.733.733 0 0 1 1.036 1.036zm25.53-25.531l-1.718 1.718a.734.734 0 0 1-1.036-1.036l1.718-1.719a.734.734 0 0 1 1.036 1.037zM35.732.732v2.43a.732.732 0 1 1-1.464 0V.732a.732.732 0 0 1 1.464 0zm13.41 33.411a.733.733 0 0 1-1.036 0l-1.718-1.718a.733.733 0 0 1 1.036-1.036l1.718 1.718a.733.733 0 0 1 0 1.036zm-25.53-25.53a.734.734 0 0 1-1.036 0l-1.718-1.72a.733.733 0 0 1 1.036-1.036l1.718 1.719a.733.733 0 0 1 0 1.036zm25.357 10.406a.733.733 0 0 1-.813-.642A13.19 13.19 0 0 0 36.62 6.787a.733.733 0 0 1 .178-1.455c6.694.816 12.025 6.148 12.813 12.874a.732.732 0 0 1-.642.813zm.626 2.782a14.66 14.66 0 0 1-6.782 10.605 3.47 3.47 0 0 0-1.643 2.95v3.121a1.905 1.905 0 0 1 1.282 1.798v1.044c0 .442-.153.849-.406 1.172.253.324.406.73.406 1.172v1.044c0 1.05-.854 1.904-1.904 1.904h-2.303v1.657c0 .954-.777 1.732-1.732 1.732h-3.027a1.734 1.734 0 0 1-1.732-1.732V46.61h-2.303a1.906 1.906 0 0 1-1.904-1.904v-1.044c0-.442.153-.848.407-1.172a1.892 1.892 0 0 1-.407-1.172v-1.044c0-.831.537-1.54 1.282-1.798V35.29a3.348 3.348 0 0 0-1.563-2.835 14.809 14.809 0 0 1-5.06-5.247 14.715 14.715 0 0 1-1.92-7.272c0-7.395 5.59-13.695 12.915-14.603a.732.732 0 1 1 .18 1.454c-6.63.821-11.63 6.474-11.63 13.149 0 4.623 2.35 8.837 6.287 11.274a4.822 4.822 0 0 1 2.256 4.08v3.08h9.412v-3.014c0-1.709.87-3.275 2.328-4.191a13.198 13.198 0 0 0 6.108-9.547.732.732 0 1 1 1.453.183zM36.78 46.611h-3.562v1.656c0 .145.123.268.267.268h3.027a.271.271 0 0 0 .268-.268zm4.207-2.948a.445.445 0 0 0-.44-.44H29.452a.445.445 0 0 0-.44.44v1.044c0 .238.202.44.44.44h11.096c.238 0 .44-.202.44-.44zm0-2.344v-1.044a.445.445 0 0 0-.44-.44H29.452a.445.445 0 0 0-.44.44v1.044c0 .239.202.44.44.44h11.096c.238 0 .44-.201.44-.44z"/></g></g></svg>