<svg xmlns="http://www.w3.org/2000/svg" xmlns:xlink="http://www.w3.org/1999/xlink" width="61" height="59" viewBox="0 0 61 59"><defs><path id="iptia" d="M637.326 2411.626a4.825 4.825 0 0 1-.876 5.751l-2.55 2.517c-3.14 3.103-6.608 4.664-10.342 4.664-1.06 0-2.138-.126-3.24-.377-4.15-.947-8.567-3.712-13.127-8.217l-14.773-14.592c-10.038-9.914-11.415-19.037-3.98-26.382l2.549-2.517a4.975 4.975 0 0 1 5.823-.866c3.813 1.992 7.948 8.912 8.122 9.205.737 1.278.968 2.588.656 3.703-.235.838-.772 1.52-1.553 1.98-1.226 1.012-2.658 2.267-2.883 2.575-1.61 2.346-1.42 4.214.634 6.243l11.539 11.397c2.052 2.028 3.942 2.216 6.324.625.306-.22 1.578-1.634 2.604-2.845a3.335 3.335 0 0 1 2.004-1.534c1.13-.31 2.457-.082 3.738.64.308.178 7.313 4.264 9.33 8.03zm-1.78.928c-1.454-2.715-6.672-6.146-8.56-7.24-.78-.44-1.607-.604-2.195-.446-.361.1-.637.322-.84.678l-.104.15c-.714.847-2.444 2.859-3.074 3.282-.793.53-1.575.91-2.345 1.138 1.568.713 3.45 1.328 5.575 1.546a.997.997 0 0 1 .896 1.09 1.002 1.002 0 0 1-1.103.884c-6.927-.71-11.463-5.056-11.652-5.242-.047-.045-.07-.102-.105-.154-.045-.042-.091-.08-.137-.125l-10.66-10.53c-.026-.018-.056-.025-.082-.046-.23-.188-5.663-4.678-6.388-11.578a.998.998 0 0 1 .896-1.09 1.009 1.009 0 0 1 1.104.885c.19 1.807.767 3.436 1.481 4.843.214-.866.622-1.747 1.237-2.644.427-.622 2.466-2.331 3.323-3.037l.15-.104c.363-.2.587-.472.688-.83.163-.583-.008-1.397-.46-2.178-.033-.057-4.013-6.716-7.322-8.445a2.955 2.955 0 0 0-3.462.514l-2.548 2.517c-6.598 6.52-5.26 14.451 3.98 23.576l14.772 14.592c9.24 9.127 17.271 10.448 23.87 3.93l2.548-2.517a2.864 2.864 0 0 0 .518-3.42zm8.448-14.18c0 .55-.449.993-1.005.993a.997.997 0 0 1-1.004-.992c0-16.762-13.806-30.398-30.776-30.398a.998.998 0 0 1-1.004-.993c0-.548.449-.992 1.004-.992 18.078 0 32.785 14.527 32.785 32.383zm-33.79-24.414c0-.549.45-.992 1.005-.992 14.183 0 25.722 11.397 25.722 25.405 0 .55-.45.993-1.005.993a.998.998 0 0 1-1.004-.993c0-12.914-10.637-23.42-23.713-23.42a.998.998 0 0 1-1.004-.993zm0 6.976c0-.55.45-.993 1.005-.993 10.29 0 18.66 8.269 18.66 18.432 0 .548-.449.992-1.004.992a.998.998 0 0 1-1.005-.992c0-9.069-7.469-16.447-16.65-16.447a.998.998 0 0 1-1.005-.992z"/></defs><g><g transform="translate(-583 -2366)"><use fill="#fff" xlink:href="#iptia"/></g></g></svg>