<svg xmlns="http://www.w3.org/2000/svg" width="20" height="20" viewBox="0 0 20 20"><g><g><path fill="#fff" d="M15.625 11.25V15c0 .69-.56 1.25-1.25 1.25h-2.5a.625.625 0 0 1-.625-.625v-5c0-.345.28-.625.625-.625h2.5c.69 0 1.25.56 1.25 1.25zm-1.25 0H12.5V15h1.875zm3.125 0v1.25H20v1.25h-2.5v2.5h-1.25v-5.625c0-.345.28-.625.625-.625H20v1.25zm-15.625 7.5H6.25V20H1.875A1.875 1.875 0 0 1 0 18.124V1.875C0 .84.84 0 1.875 0h10c.166 0 .326.065.444.182l3.75 3.75a.624.624 0 0 1 .18.443v2.5H15V5h-2.5c-.69 0-1.25-.56-1.25-1.25v-2.5H1.876a.625.625 0 0 0-.625.625v16.25c0 .345.28.625.625.625zm8.75-7.5v1.875c0 .69-.56 1.25-1.25 1.25H7.5v1.875H6.25v-5.625c0-.345.28-.625.625-.625h2.5c.69 0 1.25.56 1.25 1.25zm-1.25 0H7.5v1.875h1.875z"/></g></g></svg>