<svg xmlns="http://www.w3.org/2000/svg" xmlns:xlink="http://www.w3.org/1999/xlink" width="30" height="30" viewBox="0 0 30 30"><defs><path id="ovpoa" d="M1208.818 3138.476v1.473a.533.533 0 0 1-.45.526l-.806.124a1.03 1.03 0 0 0-.801.616 1.03 1.03 0 0 0 .093 1.008l.438.646a.532.532 0 0 1-.065.675l-1.04 1.04a.53.53 0 0 1-.691.054l-.462-.34a1.04 1.04 0 0 0-1.021-.122 1.04 1.04 0 0 0-.635.81l-.087.565a.531.531 0 0 1-.525.45h-1.473a.532.532 0 0 1-.522-.43l-.147-.768a1.027 1.027 0 0 0-.646-.778 1.026 1.026 0 0 0-1.002.13l-.657.483a.534.534 0 0 1-.691-.053l-1.041-1.042a.532.532 0 0 1-.064-.674l.438-.647c.205-.305.24-.67.093-1.007a1.031 1.031 0 0 0-.802-.617l-.805-.124a.532.532 0 0 1-.451-.525v-1.473c0-.254.181-.474.432-.522l.767-.146c.36-.07.643-.305.777-.648.134-.34.087-.706-.13-1.001l-.483-.657a.532.532 0 0 1 .054-.691l1.041-1.041a.533.533 0 0 1 .674-.064l.836.565c.297.201.657.24.989.1a1.03 1.03 0 0 0 .628-.77l.19-.99a.532.532 0 0 1 .522-.432h1.472c.263 0 .486.192.526.45l.124.806c.055.364.28.656.616.802.337.147.704.113 1.008-.093l.647-.438a.532.532 0 0 1 .674.064l1.041 1.04c.186.187.209.48.053.692l-.482.657c-.217.295-.265.66-.13 1.001.134.343.417.578.777.648l.768.146c.25.048.43.268.43.522zm-1.063.44l-.336-.065a2.104 2.104 0 0 1-1.567-1.302 2.1 2.1 0 0 1 .263-2.02l.212-.29-.408-.407-.283.192a2.102 2.102 0 0 1-2.029.187 2.1 2.1 0 0 1-1.242-1.614l-.055-.355h-.577l-.107.56c-.135.7-.608 1.28-1.266 1.552a2.106 2.106 0 0 1-1.992-.202l-.472-.32-.408.408.212.29c.43.586.528 1.341.262 2.02a2.102 2.102 0 0 1-1.566 1.301l-.337.065v.577l.355.055a2.1 2.1 0 0 1 1.614 1.242 2.1 2.1 0 0 1-.188 2.028l-.191.283.408.409.289-.213a2.102 2.102 0 0 1 2.02-.263 2.101 2.101 0 0 1 1.302 1.567l.064.336h.578l.017-.116a2.095 2.095 0 0 1 1.279-1.629 2.1 2.1 0 0 1 2.057.248l.094.07.408-.409-.192-.283a2.099 2.099 0 0 1-.187-2.028 2.098 2.098 0 0 1 1.614-1.242l.355-.055zm-3.19.174a2.66 2.66 0 0 1-2.658 2.658 2.661 2.661 0 0 1-2.658-2.658 2.662 2.662 0 0 1 2.658-2.659 2.662 2.662 0 0 1 2.658 2.66zm-1.063 0c0-.879-.716-1.595-1.595-1.595-.88 0-1.595.716-1.595 1.595a1.596 1.596 0 0 0 3.19 0zm20.496 1.966l-1.349 1.349c-1.657 1.657-3.502 2.486-5.479 2.486-1.9 0-3.918-.764-6.01-2.295a.532.532 0 0 1 .628-.858c3.84 2.81 7.241 2.782 10.109-.084l1.348-1.349a1.552 1.552 0 0 0 .276-1.831c-.77-1.455-3.53-3.293-4.53-3.879-.413-.235-.85-.326-1.162-.239a.714.714 0 0 0-.444.363l-.055.08c-.379.454-1.294 1.533-1.628 1.759-.42.284-.834.488-1.241.61.83.382 1.826.711 2.95.828a.533.533 0 0 1-.109 1.058c-3.666-.38-6.066-2.71-6.166-2.81-.025-.024-.037-.054-.057-.082l-.07-.067-5.641-5.64c-.015-.01-.03-.015-.044-.025-.122-.1-2.997-2.507-3.38-6.203a.533.533 0 0 1 1.057-.11c.1.967.407 1.841.785 2.594.112-.463.328-.936.654-1.417.225-.333 1.305-1.249 1.758-1.627l.08-.056a.713.713 0 0 0 .363-.444c.087-.312-.004-.748-.242-1.167-.018-.031-2.124-3.598-3.875-4.524a1.551 1.551 0 0 0-1.832.276l-1.349 1.348c-2.87 2.869-2.932 6.127-.191 9.96a.531.531 0 1 1-.865.619c-3.008-4.206-2.903-8.124.305-11.33l1.348-1.349a2.606 2.606 0 0 1 3.081-.464c2.018 1.067 4.206 4.774 4.298 4.932.385.674.51 1.395.347 1.984a1.767 1.767 0 0 1-.821 1.06c-.649.543-1.407 1.215-1.526 1.38-.851 1.256-.751 2.257.336 3.344l6.106 6.106c1.086 1.086 2.086 1.187 3.346.334.164-.117.836-.875 1.378-1.523a1.765 1.765 0 0 1 1.06-.822c.597-.165 1.3-.044 1.98.343.163.096 3.87 2.285 4.937 4.302a2.607 2.607 0 0 1-.464 3.08z"/></defs><g><g transform="translate(-1195 -3116)"><use fill="#7f8890" xlink:href="#ovpoa"/></g></g></svg>