<svg xmlns="http://www.w3.org/2000/svg" xmlns:xlink="http://www.w3.org/1999/xlink" width="30" height="30" viewBox="0 0 30 30"><defs><path id="g1eda" d="M403 3269.998h1v1.001h-1zm2 0h1v1.001h-1zm-2-6.002h1v1h-1zm2 0h1v1h-1zm20-5.503c0 3.592-2.41 6.503-6 6.503v1.5a.5.5 0 0 1-.5.501H417v1h1.5a.5.5 0 0 1 .5.5v7.002a.5.5 0 0 1-.5.5h-17a.5.5 0 0 1-.5-.5v-7.001a.5.5 0 0 1 .5-.501h1.5v-1h-1.5a.5.5 0 0 1-.5-.5v-1.501h-.5a5.501 5.501 0 0 1-5.5-5.502 5.501 5.501 0 0 1 6.013-5.479 8.496 8.496 0 0 1 16.622-1.967 6.501 6.501 0 0 1 7.365 6.445zm-23 10.505v6h16v-6zm14-1.001v-1h-12v1zm2-5.002h-16v3.001h16zm5.882-5.628a5.5 5.5 0 0 0-6.51-4.26.5.5 0 0 1-.588-.372 7.496 7.496 0 0 0-14.784 1.757l.005.094a.5.5 0 0 1-.599.498 4.502 4.502 0 0 0-5.406 4.41 4.501 4.501 0 0 0 4.5 4.502h.5v-1.501a.5.5 0 0 1 .5-.5h3.5v-3.002h-2.092a1.499 1.499 0 0 1-2.828 0 1.5 1.5 0 0 1 2.828-1h2.592a.5.5 0 0 1 .5.5v3.502h3v-9.535a.5.5 0 0 1 .5-.501h2.092a1.5 1.5 0 1 1 0 1.001H410v9.035h2v-4.534a.5.5 0 0 1 .5-.5h5.092a1.5 1.5 0 1 1 1.914 1.915 1.5 1.5 0 0 1-1.914-.914H413v4.033h5.5a.5.5 0 0 1 .5.5v1.5c.378 0 .255-.038.625-.116a5.501 5.501 0 0 0 4.257-6.512zm-4.882.595a.5.5 0 1 0 0-1 .5.5 0 0 0 0 1zm-6-5.002a.5.5 0 1 0-.001-1.001.5.5 0 0 0 .001 1.001zm-11.5 5.033a.5.5 0 1 0 .001 1 .5.5 0 0 0-.001-1z"/></defs><g><g transform="translate(-395 -3246)"><use fill="#7f8890" xlink:href="#g1eda"/></g></g></svg>