<svg xmlns="http://www.w3.org/2000/svg" xmlns:xlink="http://www.w3.org/1999/xlink" width="30" height="30" viewBox="0 0 30 30"><defs><path id="8joha" d="M821.785 3266.59a.5.5 0 0 1 .125.695l-3.107 4.465a.502.502 0 0 1-.727.1l-2.393-1.964a.5.5 0 1 1 .634-.772l1.974 1.62 2.798-4.02a.497.497 0 0 1 .696-.125zm-19.285-15.34c0 1.24-1.01 2.25-2.25 2.25s-2.25-1.01-2.25-2.25 1.01-2.25 2.25-2.25 2.25 1.01 2.25 2.25zm-1 0c0-.69-.561-1.251-1.25-1.251-.69 0-1.25.56-1.25 1.25a1.251 1.251 0 0 0 2.5 0zm17.937-1.251a.5.5 0 1 1 0 1.001.5.5 0 0 1 0-1.001zm-2 0a.5.5 0 1 1 0 1.001.5.5 0 0 1 0-1.001zm3.063 1.97a.5.5 0 1 1 0 1 .5.5 0 0 1 0-1zm-2 0a.5.5 0 1 1 0 1 .5.5 0 0 1 0-1zm-3.063-1.97a.5.5 0 1 1 0 1.001.5.5 0 0 1 0-1.001zm1.063 1.97a.5.5 0 1 1 0 1 .5.5 0 0 1 0-1zm-3.063-1.97a.5.5 0 1 1 0 1.001.5.5 0 0 1 0-1.001zm1.063 1.97a.5.5 0 1 1 0 1 .5.5 0 0 1 0-1zm-3.063-1.97a.5.5 0 1 1 0 1.001.5.5 0 0 1 0-1.001zm1.063 1.97a.5.5 0 1 1 0 1 .5.5 0 0 1 0-1zm11.611 3.53a2.29 2.29 0 0 1 .889 1.804v6.392c0 .864-.492 1.632-1.223 2.023A6.46 6.46 0 0 1 825 3269.5c0 3.584-2.916 6.5-6.5 6.5h-21.196c-1.27 0-2.304-1.066-2.304-2.337v-6.36c0-.734.351-1.38.888-1.804a2.293 2.293 0 0 1-.888-1.804v-6.392c0-.734.351-1.382.888-1.804a2.292 2.292 0 0 1-.888-1.804v-5.423a2.306 2.306 0 0 1 2.304-2.303h25.392a2.306 2.306 0 0 1 2.304 2.303v5.423c0 .734-.352 1.382-.889 1.804zm-9.958 18.819c-.092-.083-.186-.165-.273-.253-.078-.078-.15-.162-.223-.244-.075-.085-.15-.168-.222-.256-.067-.084-.13-.171-.193-.259a6.793 6.793 0 0 1-.202-.291 6.24 6.24 0 0 1-.34-.596 6.304 6.304 0 0 1-.278-.637c-.03-.08-.061-.16-.088-.24a6.574 6.574 0 0 1-.124-.432c-.019-.076-.042-.15-.058-.226a6.575 6.575 0 0 1-.083-.489c-.009-.065-.023-.13-.03-.195a6.475 6.475 0 0 1-.039-.7c0-.196.012-.391.03-.586.004-.06.012-.122.019-.182.016-.138.038-.275.063-.411.011-.06.02-.12.033-.18.036-.168.08-.336.129-.5.024-.082.053-.161.08-.243a5.919 5.919 0 0 1 .21-.536 6.686 6.686 0 0 1 .366-.695c.033-.056.064-.113.099-.168h-15.725c-.72 0-1.304.585-1.304 1.304v6.392c0 .72.585 1.304 1.304 1.304h17.044c-.068-.057-.129-.621-.195-.681zM824 3269.5a5.472 5.472 0 0 0-1.815-4.071l-.048-.044a5.622 5.622 0 0 0-.404-.326l-.034-.025a5.751 5.751 0 0 0-.47-.304 5.487 5.487 0 0 0-3.307-.7l-.018.002a5.476 5.476 0 0 0-1.64.447h-.002a5.49 5.49 0 0 0-.5.257l-.028.017c-.152.09-.3.185-.444.29-.016.01-.032.023-.048.035a5.1 5.1 0 0 0-.393.32l-.055.05a5.639 5.639 0 0 0-.357.357l-.05.055a5.502 5.502 0 0 0-.27.329 5.678 5.678 0 0 0-.584.965c-.053.11-.103.223-.148.338-.02.049-.037.099-.055.149a5.3 5.3 0 0 0-.108.325c-.019.065-.034.13-.05.195-.025.099-.05.199-.07.299-.017.09-.029.18-.042.27-.011.08-.025.159-.033.24-.017.175-.027.351-.027.53a5.442 5.442 0 0 0 .097 1.007l.027.144c.033.153.072.305.117.455.012.038.027.075.04.114a5.377 5.377 0 0 0 .353.833l.043.084c.079.144.163.283.254.418.012.019.026.036.039.055a5.389 5.389 0 0 0 .317.417 5.3 5.3 0 0 0 .32.35l.008.01c.12.12.245.233.376.342l.052.042a5.498 5.498 0 0 0 .747.507c.041.025.081.05.123.072.138.074.279.142.423.204l.042.018c.653.275 1.37.427 2.122.427 3.032 0 5.5-2.467 5.5-5.5zm-1.305-13.5h-25.391c-.72 0-1.304.584-1.304 1.303v6.392c0 .72.585 1.304 1.304 1.304h16.515l.011-.01a6.48 6.48 0 0 1 9.28-.066c.52-.175.89-.667.89-1.228v-6.392c0-.719-.585-1.304-1.305-1.304zm.001-1c.719 0 1.304-.586 1.304-1.305v-5.423c0-.72-.585-1.304-1.305-1.304h-25.391c-.72 0-1.304.585-1.304 1.304v5.423c0 .72.585 1.304 1.304 1.304zM798 3260.75c0-1.242 1.01-2.25 2.25-2.25s2.25 1.008 2.25 2.25c0 1.24-1.01 2.249-2.25 2.249a2.252 2.252 0 0 1-2.25-2.25zm1 0c0 .689.56 1.25 1.25 1.25.689 0 1.25-.561 1.25-1.25 0-.69-.561-1.25-1.25-1.25-.69 0-1.25.56-1.25 1.25zm20.469-1.75a.5.5 0 1 1 0 .999.5.5 0 0 1 0-1zm-2 0a.5.5 0 1 1 0 .999.5.5 0 0 1 0-1zm3 2a.5.5 0 1 1 0 .999.5.5 0 0 1 0-1zm-2 0a.5.5 0 1 1 0 .999.5.5 0 0 1 0-1zm-3-2a.5.5 0 1 1 0 .999.5.5 0 0 1 0-1zm1 2a.5.5 0 1 1 0 .999.5.5 0 0 1 0-1zm-3-2a.5.5 0 1 1 0 .999.5.5 0 0 1 0-1zm1 2a.5.5 0 1 1 0 .999.5.5 0 0 1 0-1zm-3-2a.5.5 0 1 1 0 .999.5.5 0 0 1 0-1zm1 2a.5.5 0 1 1 0 .999.5.5 0 0 1 0-1zm-9.969 9.25c0 1.24-1.01 2.25-2.25 2.25s-2.25-1.01-2.25-2.25 1.01-2.25 2.25-2.25 2.25 1.01 2.25 2.25zm-1 0a1.251 1.251 0 0 0-2.5 0c0 .689.56 1.25 1.25 1.25.689 0 1.25-.561 1.25-1.25z"/></defs><g><g transform="translate(-795 -3246)"><use fill="#7f8890" xlink:href="#8joha"/></g></g></svg>