<svg xmlns="http://www.w3.org/2000/svg" xmlns:xlink="http://www.w3.org/1999/xlink" width="30" height="30" viewBox="0 0 30 30"><defs><path id="umo2a" d="M1207.21 3248.612c0 1.409-1.13 2.554-2.517 2.554-1.388 0-2.518-1.145-2.518-2.554 0-1.407 1.13-2.553 2.518-2.553s2.517 1.146 2.517 2.553zm-1.172 0c0-.752-.603-1.365-1.345-1.365s-1.346.613-1.346 1.365c0 .753.604 1.366 1.346 1.366.742 0 1.345-.613 1.345-1.366zm12.587 0c0 1.409-1.13 2.554-2.517 2.554-1.388 0-2.518-1.145-2.518-2.554 0-1.407 1.13-2.553 2.518-2.553s2.517 1.146 2.517 2.553zm-1.172 0c0-.752-.603-1.365-1.345-1.365s-1.346.613-1.346 1.365c0 .753.604 1.366 1.346 1.366.742 0 1.345-.613 1.345-1.366zm7.547 26.852c0 .329-.262.532-.586.532h-28.828c-.324 0-.586-.203-.586-.532 0-.328.262-.5.586-.5h4.397v-12.82c0-.328.169-.594.492-.594.324 0 .524.266.524.594v12.82H1205v-14.782c0-.595-.254-1.179-.077-1.74a4.182 4.182 0 0 0-2.02-.514c-2.286 0-3.897 1.821-3.897 4.062v2.654c0 .328-.137.594-.46.594a.59.59 0 0 1-.587-.594v-2.654c0-2.175.97-4.044 2.883-4.841a2.84 2.84 0 0 1-.872-2.052c0-1.561 1.252-2.83 2.79-2.83 1.539 0 2.79 1.269 2.79 2.83 0 .766-.301 1.46-.79 1.972a5.2 5.2 0 0 1 .632.28 5.899 5.899 0 0 1 3.023-2.63 3.143 3.143 0 0 1-1.053-2.353c0-1.727 1.384-3.13 3.086-3.13 1.701 0 3.086 1.403 3.086 3.13 0 .891-.37 1.696-.961 2.266a5.894 5.894 0 0 1 3.263 2.733c.145-.078.294-.148.445-.211a2.833 2.833 0 0 1-.875-2.05c-.003-1.562 1.246-2.834 2.784-2.838h.006c1.536 0 2.787 1.266 2.79 2.825a2.832 2.832 0 0 1-.784 1.973c.704.256 1.35.66 1.9 1.198 1.01.99.88 2.31.884 3.715l.01 2.654a.59.59 0 0 1-.585.597h-.002c-.322 0-.397-.265-.398-.592l-.01-2.655c-.002-1.082.067-2.1-.714-2.864a4.162 4.162 0 0 0-2.932-1.19h-.01c-.724.002-1.984.185-2.604.533.173.556.26 1.133.26 1.722v.673c.006.034.01.069.01.105l.027 14.004h3.981l-.026-12.823c-.001-.33.105-.596.428-.597h.001a.59.59 0 0 1 .586.594l.027 12.826h3.378c.324 0 .586.172.586.5zm-8.421-20.363c0 .438.17.85.476 1.16.306.308.711.478 1.142.478h.004a1.6 1.6 0 0 0 1.143-.484c.305-.31.473-.723.472-1.161-.002-.904-.728-1.639-1.619-1.639h-.003c-.892.002-1.617.74-1.615 1.646zm-12.2-.004c0-.906-.725-1.642-1.618-1.642-.892 0-1.618.736-1.618 1.642 0 .905.726 1.642 1.618 1.642.893 0 1.619-.737 1.619-1.642zm4.156-2.731c0 1.07.858 1.942 1.914 1.942 1.055 0 1.914-.871 1.914-1.942 0-1.07-.859-1.941-1.914-1.941-1.056 0-1.914.87-1.914 1.94zm-1.538 15.755c-.564-.047-.583-.251-1.012-.57v7.413h1.012zm7.002-7.763v6.555c.81-.152.988-.848.988-1.68v-5.05a4.58 4.58 0 0 0-.342-1.745c-.733-1.787-2.069-2.942-4.034-2.942-1.955 0-3.538 1.148-4.275 2.922l-.001.004a4.585 4.585 0 0 0-.35 1.76v5.05c0 .863.16 1.578 1.013 1.694v-6.568c0-.328.168-.594.492-.594.323 0 .523.266.523.594v14.606h1.988v-7.27c0-.33.169-.595.492-.595.324 0 .493.266.493.594v7.27h1.997v-14.605c0-.328.169-.594.493-.594.323 0 .523.266.523.594zm0 14.606h1.024l-.014-7.43c-.41.311-.47.518-1.01.579z"/></defs><g><g transform="translate(-1195 -3246)"><use fill="#7f8890" xlink:href="#umo2a"/></g></g></svg>