<svg xmlns="http://www.w3.org/2000/svg" xmlns:xlink="http://www.w3.org/1999/xlink" width="30" height="30" viewBox="0 0 30 30"><defs><path id="op2da" d="M820.705 3393.29c.14.143.213.331.209.53-.08 3.397-1.464 6.107-3.895 8.486a12.888 12.888 0 0 1-9.06 3.694c-.99 0-1.976-.112-2.931-.333a.44.44 0 0 1 .198-.857c.749.174.987.274 1.762.303v-4.013h-.595c-.992 0-1.8-.807-1.8-1.8s.808-1.8 1.8-1.8h.595v-3.551h-3.752a.616.616 0 0 1-.616-.616v-.825c0-.509-.398-.936-.887-.953a.917.917 0 0 0-.955.92v.858a.616.616 0 0 1-.615.616h-4.276c.178 4.835 3.28 8.7 7.832 10.407a.44.44 0 0 1-.308.823 12.936 12.936 0 0 1-6.048-4.676 12.876 12.876 0 0 1-2.363-7.462c0-3.408 1.312-6.625 3.694-9.06 2.378-2.432 5.027-3.815 8.423-3.895a.729.729 0 0 1 .75.732v4.38h.595c.493 0 .953.196 1.295.55.342.356.521.823.504 1.316-.034.957-.856 1.735-1.832 1.735h-.562v4.271h4.815c.339 0 .615.276.615.615v.859a.922.922 0 0 0 1.842 0v-.859c0-.339.276-.615.616-.615h4.426c.199 0 .385.078.524.22zm-13.102-5.37h.826c.508 0 .936-.398.953-.887a.916.916 0 0 0-.257-.674.914.914 0 0 0-.663-.282h-.859a.616.616 0 0 1-.615-.615v-4.493c-6.286.227-10.87 5.842-11.1 12.101h4.01v-.595c0-.493.196-.953.551-1.295a1.787 1.787 0 0 1 1.315-.504c.957.034 1.735.856 1.735 1.831v.563h3.489v-4.534c0-.34.276-.616.615-.616zm12.428 6.029h-4.013v.595c0 .992-.807 1.8-1.8 1.8-.992 0-1.8-.808-1.8-1.8v-.595h-4.551v3.815a.616.616 0 0 1-.615.615h-.859a.922.922 0 0 0 0 1.842h.859c.339 0 .615.276.615.615v4.276c6.259-.23 11.937-4.877 12.164-11.163zm4.964-4.8a.728.728 0 0 1-.208.529.728.728 0 0 1-.524.22H820.1v.563c0 .976-.778 1.797-1.735 1.831l-.066.001c-.469 0-.91-.177-1.25-.505a1.784 1.784 0 0 1-.55-1.295v-.594h-4.76a.733.733 0 0 1-.732-.733v-4.713c0-.34.276-.615.615-.615h.859a.922.922 0 0 0 0-1.842h-.859a.616.616 0 0 1-.615-.615v-4.644c0-.2.079-.385.221-.524a.725.725 0 0 1 .53-.209c1.709.04 3.956.409 5.51 1.094a.44.44 0 0 1-.355.804c-1.402-.619-3.487-.96-5.027-1.015v4.23h.595c.993 0 1.8.807 1.8 1.8 0 .992-.807 1.8-1.8 1.8h-.595v4.303h5.053a.44.44 0 0 1 .44.44v1.033c0 .253.1.488.281.663a.914.914 0 0 0 .674.258c.49-.018.887-.445.887-.953v-1.001a.44.44 0 0 1 .44-.44h4.451c-.146-4.119-2.343-8.328-5.897-10.446a.44.44 0 0 1 .45-.755 13.042 13.042 0 0 1 4.515 4.516c1.135 1.905 1.763 4.588 1.815 6.813z"/></defs><g><g transform="translate(-795 -3376)"><use fill="#7f8890" xlink:href="#op2da"/></g></g></svg>