<svg xmlns="http://www.w3.org/2000/svg" xmlns:xlink="http://www.w3.org/1999/xlink" width="27" height="30" viewBox="0 0 27 30"><defs><path id="qn1ba" d="M1224 3383v16a.498.498 0 0 1-.277.446l-13 6.5c-.007.004-.015.002-.023.006a.494.494 0 0 1-.2.048.483.483 0 0 1-.2-.049c-.008-.003-.016-.001-.024-.005l-13-6.5c-.007-.004-.012-.01-.02-.014a.657.657 0 0 1-.11-.084.489.489 0 0 1-.042-.05.487.487 0 0 1-.042-.066c-.005-.008-.012-.015-.016-.023s-.003-.018-.006-.025a.497.497 0 0 1-.035-.147c0-.01-.004-.019-.004-.029L1197 3399v-16c0-.045.006-.088.018-.13.003-.01.009-.02.013-.03a.453.453 0 0 1 .038-.09c.008-.015.019-.027.028-.04a.504.504 0 0 1 .052-.064c.013-.013.027-.024.042-.035.013-.01.024-.023.04-.032.007-.006.016-.008.025-.012l.02-.015 13-6.5c.005-.002.01-.001.014-.003a.5.5 0 0 1 .21-.05c.075 0 .145.02.21.05.004.002.01.001.014.003l13 6.5.02.015c.008.004.018.006.026.012l.04.032c.013.011.028.022.041.036a.42.42 0 0 1 .052.063c.01.014.02.026.028.04a.46.46 0 0 1 .039.09c.003.01.01.02.012.03a.482.482 0 0 1 .018.13zm-25.354 16.013l11.354 5.677v-15.37l-12-5.54v14.438l.198-.092a.496.496 0 1 1 .448.887zm11.44-21.748l-11.432 5.717 11.346 5.236V3388a.5.5 0 0 1 1 0v.218l11.346-5.236-11.433-5.717a.49.49 0 0 1-.413.235.49.49 0 0 1-.413-.236zm.914 27.425l11.346-5.672-.54-.25a.5.5 0 1 1 .418-.908l.776.358v-14.438l-12 5.54v3.487a.494.494 0 0 1 .329.024l.908.419a.5.5 0 0 1-.419.909l-.818-.379zm-5.783-9.253a.5.5 0 0 1 .245-.663l.908-.42a.5.5 0 0 1 .419.91l-.908.418a.5.5 0 0 1-.663-.245zm-2.724 1.257a.5.5 0 0 1 .245-.663l.908-.42a.5.5 0 0 1 .419.909l-.908.419a.501.501 0 0 1-.664-.245zm-2.724 1.257a.5.5 0 0 1 .245-.663l.908-.419a.5.5 0 1 1 .419.908l-.908.419a.5.5 0 0 1-.664-.245zm18.16-1.523a.5.5 0 0 1-.664.244l-.907-.419a.5.5 0 0 1 .418-.908l.908.42a.5.5 0 0 1 .245.663zm2.723 1.257a.499.499 0 0 1-.663.245l-.908-.42a.499.499 0 1 1 .42-.907l.907.419c.251.116.361.413.244.663zm-5.448-2.514a.5.5 0 0 1-.663.245l-.908-.42a.499.499 0 1 1 .42-.907l.907.419c.251.116.36.413.244.663zm-7.263-.99a.5.5 0 0 1 .245-.664l.908-.42a.5.5 0 0 1 .419.908l-.908.42a.5.5 0 0 1-.664-.244zM1210 3380v-1.001a.5.5 0 0 1 1 0v1a.5.5 0 0 1-1 0zm0 3v-1a.5.5 0 1 1 1 0v1a.5.5 0 0 1-1 0zm0 3v-1a.5.5 0 0 1 1 0v1a.5.5 0 0 1-1 0z"/></defs><g><g transform="translate(-1197 -3376)"><use fill="#7f8890" xlink:href="#qn1ba"/></g></g></svg>