<svg xmlns="http://www.w3.org/2000/svg" xmlns:xlink="http://www.w3.org/1999/xlink" width="70" height="70" viewBox="0 0 70 70"><defs><path id="2iana" d="M425.564 6816.113c0-.72.58-1.302 1.296-1.302h2.591c.716 0 1.296.583 1.296 1.302 0 .72-.58 1.301-1.296 1.301h-2.591a1.298 1.298 0 0 1-1.296-1.301zm-7.774 0c0-.72.58-1.302 1.295-1.302h2.592c.715 0 1.295.583 1.295 1.302 0 .72-.58 1.301-1.295 1.301h-2.592a1.298 1.298 0 0 1-1.295-1.301zm0 15.872c0-.718.58-1.301 1.295-1.301h2.592c.715 0 1.295.583 1.295 1.301 0 .72-.58 1.302-1.295 1.302h-2.592a1.299 1.299 0 0 1-1.295-1.302zm-34.985-15.872a3.896 3.896 0 0 1 3.887-3.906 3.896 3.896 0 0 1 3.887 3.906c0 2.157-1.74 3.906-3.887 3.906-2.147 0-3.887-1.75-3.887-3.906zm2.591 0c0 .72.58 1.301 1.296 1.301.716 0 1.296-.582 1.296-1.301 0-.72-.58-1.302-1.296-1.302-.716 0-1.296.583-1.296 1.302zm-2.591 15.622c0-2.156 1.74-3.905 3.887-3.905 2.147 0 3.887 1.749 3.887 3.905a3.896 3.896 0 0 1-3.887 3.905c-2.147 0-3.887-1.748-3.887-3.905zm2.591 0c0 .719.58 1.302 1.296 1.302.716 0 1.296-.583 1.296-1.302 0-.719-.58-1.302-1.296-1.302-.716 0-1.296.583-1.296 1.302zm5.183 15.623c0 2.157-1.74 3.906-3.887 3.906-2.147 0-3.887-1.749-3.887-3.906a3.896 3.896 0 0 1 3.887-3.906 3.896 3.896 0 0 1 3.887 3.906zm-2.591 0c0-.72-.58-1.302-1.296-1.302-.716 0-1.296.583-1.296 1.302 0 .72.58 1.302 1.296 1.302.716 0 1.296-.583 1.296-1.302zm47.942 25.548c0 .72-.58 1.115-1.296 1.115h-17.532c0 1.438-1.16 2.978-2.591 2.978h-16.953c-1.431 0-2.592-1.54-2.592-2.978h-12.748c-.716 0-1.296-.208-1.296-.927 0-.72.58-1.115 1.296-1.115h12.749c0-1.438 1.16-2.978 2.591-2.978h4.402v-8.718c0-.719.58-1.302 1.295-1.302h5.464c.716 0 1.296.583 1.296 1.302v8.718h4.495c1.432 0 2.592 1.603 2.592 3.04h17.532c.716 0 1.296.146 1.296.865zm-31.942-3.905h3.998v-8.01h-3.998zm10.991 5.957v-3.979h-17.984v3.979zM445 6839.546v7.812c0 10.993-11.685 17.705-12.312 18.053l-.017.01c-.06.03-.123.054-.188.074a.81.81 0 0 1-.113.045 1.27 1.27 0 0 1-.327.045 1.28 1.28 0 0 1-.33-.045c-.036-.009-.068-.03-.103-.04a1.487 1.487 0 0 1-.197-.08c-3.794-2.236-7.044-5.793-9.513-9.45h-40.453c-3.577-.003-6.475-2.916-6.48-6.509v-4.707a6.498 6.498 0 0 1 2.632-5.208 6.495 6.495 0 0 1-2.631-5.207v-5.207a6.496 6.496 0 0 1 2.631-5.208 6.497 6.497 0 0 1-2.631-5.208v-5.207c.004-3.593 2.902-6.505 6.479-6.51h49.112c3.577.005 6.475 2.917 6.48 6.51v5.208a6.497 6.497 0 0 1-2.633 5.208 6.496 6.496 0 0 1 2.632 5.207v5.207a6.402 6.402 0 0 1-.282 1.84c2.052 1.231 4.56 1.94 6.948 2.066.716 0 1.296.583 1.296 1.301zm-64.116-16.612h50.175a3.896 3.896 0 0 0 3.888-3.905v-6.083c0-2.157-1.74-3.906-3.888-3.906h-50.175c-2.147 0-3.887 1.749-3.887 3.906v5.77c0 2.157 1.74 4.219 3.887 4.218zm0 14.999h39.497c.068 0 7.102.209 10.552-5.57.008-.017.027-.025.037-.041a2.8 2.8 0 0 1 .365-.368c.016-.01.025-.027.04-.036a.99.99 0 0 1 .161-.058 1.119 1.119 0 0 1 1.003-.003c.059.015.116.035.171.06.017.011.026.028.041.038.069.052.132.11.19.174.064.058.123.123.175.193.01.016.028.024.037.041.42.704 1.23 1.36 1.794 1.953v-5.372c0-2.157-1.74-3.906-3.888-3.906h-50.175c-2.147 0-3.887 1.749-3.887 3.906v5.083c0 2.157 1.74 3.906 3.887 3.906zm39.512 15.997a16.248 16.248 0 0 1-1.436-6.572v-7.322h-38.076c-2.147 0-3.887 1.748-3.887 3.906v6.082a3.896 3.896 0 0 0 3.887 3.906zm22.575-13.735c-4.027-.415-8.302-1.81-10.929-4.905-2.626 3.094-7.026 4.49-11.053 4.905v7.163c0 8.21 8.736 14.243 11.054 15.712 2.314-1.48 10.928-7.524 10.928-15.712zm-14.436 12.752l7.774-7.812a1.291 1.291 0 0 1 1.817.016c.5.503.507 1.315.016 1.826l-7.775 7.81a1.292 1.292 0 0 1-1.832 0 1.307 1.307 0 0 1 0-1.84zm3.887-11.717a1.291 1.291 0 0 1 1.817.016c.5.502.506 1.315.015 1.825l-5.182 5.207a1.291 1.291 0 0 1-1.26.355 1.306 1.306 0 0 1-.572-2.196z"/></defs><g><g transform="translate(-375 -6807)"><use fill="#7f8890" xlink:href="#2iana"/></g></g></svg>