<svg xmlns="http://www.w3.org/2000/svg" xmlns:xlink="http://www.w3.org/1999/xlink" width="53" height="70" viewBox="0 0 53 70"><defs><path id="j3qla" d="M1010.8 6814.004c0 3.862-3.153 7.004-7.028 7.004-3.876 0-7.029-3.142-7.029-7.004 0-3.862 3.153-7.005 7.029-7.005 3.875 0 7.028 3.143 7.028 7.005zm-2.058 0c0-2.732-2.23-4.953-4.97-4.953-2.74 0-4.97 2.221-4.97 4.953 0 2.731 2.229 4.953 4.97 4.953 2.74 0 4.97-2.222 4.97-4.953zm21.394 37.14l-9.381 9.534a1.032 1.032 0 0 1-1.479-.01l-3.784-3.945a1.024 1.024 0 0 1 .033-1.45 1.031 1.031 0 0 1 1.455.032l3.05 3.18 8.636-8.778a1.031 1.031 0 0 1 1.456-.014c.405.396.412 1.046.014 1.45zm6.472 6.604c-1.29 6.466-5.78 12.14-12.186 14.697a1.03 1.03 0 0 1-1.338-.57 1.024 1.024 0 0 1 .572-1.334c5.564-2.221 9.753-7.277 10.933-13.193a1.03 1.03 0 0 1 2.019.4zm.392-15.282v10.297c0 .566-.46 1.026-1.029 1.026-.568 0-1.029-.46-1.029-1.026v-10.179c-4.252 2.348-7.62 1.332-9.702.059-2.071-1.266-3.306-3.036-3.601-3.49l-.021.03c-.416.651-1.032 1.383-1.788 2.076-3.295 3.064-7.329 3.625-11.495 1.325v11.177c0 7.577 4.66 14.135 11.285 16.78.528.21.784.807.573 1.333a1.03 1.03 0 0 1-1.338.57c-2.504-1-4.77-2.503-6.674-4.409v5.407a3.568 3.568 0 0 1-3.57 3.557h-2.298a3.564 3.564 0 0 1-2.541-1.061 3.564 3.564 0 0 1-2.541 1.061h-2.298a3.568 3.568 0 0 1-3.57-3.557v-37.869c-2.139 3.248-3.257 6.983-3.257 10.95a4.04 4.04 0 0 1-4.164 4.034c-2.177-.06-3.942-1.912-3.935-4.128.033-10.57 5.632-17.371 8.966-20.485a8.702 8.702 0 0 1 5.96-2.344h9.677c2.083 0 4.076.775 5.61 2.184 2.408 2.21 5.603 5.919 7.517 11.261.66.032 1.251.38 1.598.945.042.068 1.097 1.753 2.98 2.904 2.369 1.448 4.965 1.396 7.718-.154 1.326-.746 2.967.211 2.967 1.726zm-35.037-16.816l1.232 1.459a.756.756 0 0 0 1.154 0l1.232-1.459zm12.755 16.165a19.318 19.318 0 0 0-2.538-5.976v6.01a6.413 6.413 0 0 0 2.538-.034zm5.19-3.774c-1.76-5.115-4.802-8.656-7.082-10.748a6.22 6.22 0 0 0-4.216-1.643h-.339l-2.348 2.78a2.819 2.819 0 0 1-4.303 0l-2.348-2.78h-.339c-1.7 0-3.316.637-4.553 1.791-3.092 2.888-8.285 9.195-8.315 18.995-.004 1.113.864 2.041 1.934 2.071a1.988 1.988 0 0 0 2.049-1.984c0-5.469 1.927-10.536 5.573-14.653.624-.706 1.8-.265 1.8.678v40.894c0 .83.679 1.507 1.512 1.507h2.298c.834 0 1.512-.677 1.512-1.507v-21.074c0-.566.46-1.026 1.029-1.026.568 0 1.029.46 1.029 1.026v21.074c0 .83.678 1.507 1.512 1.507h2.298c.833 0 1.512-.676 1.512-1.507v-7.817a20.084 20.084 0 0 1-3.847-11.864v-11.294c0-1.46 1.524-2.408 2.832-1.795.015.007.57.315 1.014.515v-8.438c0-.946 1.187-1.389 1.809-.668 2.31 2.673 3.895 5.69 4.722 8.981a9.906 9.906 0 0 0 3.255-3.021z"/></defs><g><g transform="translate(-984 -6807)"><use fill="#7f8890" xlink:href="#j3qla"/></g></g></svg>