<svg xmlns="http://www.w3.org/2000/svg" xmlns:xlink="http://www.w3.org/1999/xlink" width="40" height="40" viewBox="0 0 40 40"><defs><path id="cho1a" d="M660 1764.999c11.046 0 20 8.954 20 19.999 0 11.046-8.955 20-20 20-11.046 0-20-8.954-20-20 0-11.045 8.954-20 20-20z"/><path id="cho1b" d="M654.94 1782.43c-.073-.1-.17-.202-.268-.278-1.073-.964-2.683-.838-3.61.279-.927 1.118-.805 2.793.268 3.758l5.903 5.305.292.28c.025.025.05.05.074.05.756.609 1.853.458 2.463-.33l9.536-12.895-10.707 8.605z"/></defs><g><g transform="translate(-640 -1765)"><use fill="#ffc527" xlink:href="#cho1a"/></g><g transform="translate(-640 -1765)"><use fill="#fff" xlink:href="#cho1b"/></g></g></svg>