<svg xmlns="http://www.w3.org/2000/svg" xmlns:xlink="http://www.w3.org/1999/xlink" width="48" height="50" viewBox="0 0 48 50"><defs><path id="fakya" d="M468.013 4703.957h20.99V4706h-20.99zm0-5.979h7.984v2.011h-7.984zm0 13.021h20.99v1.98h-20.99zm13.972 8.99h-13.972v-2.01h13.972zm-1.995 6.01h-11.977v-2.041h11.977zm27.01-.833c0 5.974-4.911 10.833-10.947 10.833h-37.116v-50.063h27.359l12.72 12.218v16.481c4.82 1.134 7.984 5.42 7.984 10.531zm-19.96-28.125h7.976l-7.977-7.947zm3.16 36.917h.023c-.007-.005-.015-.005-.023 0zm-.533 0c-.192-.136-.38-.277-.562-.425-.02-.015-.039-.033-.058-.05a11.024 11.024 0 0 1-.639-.574l-.16-.155a11.053 11.053 0 0 1-.612-.668c-.033-.04-.063-.08-.095-.12-.17-.207-.331-.421-.485-.64l-.12-.17a10.67 10.67 0 0 1-.474-.773c-.031-.056-.06-.114-.09-.17a10.651 10.651 0 0 1-.353-.725c-.023-.052-.048-.104-.07-.157-.12-.283-.226-.57-.32-.864-.023-.067-.042-.137-.063-.205-.083-.274-.156-.55-.217-.831-.007-.038-.017-.073-.025-.11a10.778 10.778 0 0 1-.168-1.17c-.03-.325-.05-.652-.05-.985 0-5.974 4.91-10.833 10.947-10.833.274 0 .616.013.904.036v-15.348H484.98v-11.042h-23.983v45.979zm.178.124c.062.043.124.083.187.124.056.036.112-.215.168-.248h-.533l.178.124zm15.47-8.916c0-4.404-3.155-8.089-7.344-8.967l-.373-.062c-.267-.043-.52-.075-.766-.098a9.075 9.075 0 0 0-.78-.04c-5.107 0-9.263 4.112-9.263 9.167 0 5.054 4.156 9.167 9.264 9.167 5.107 0 9.263-4.113 9.263-9.167zm-3.729-4.85a.828.828 0 0 1 .21 1.16l-5.232 7.44a.846.846 0 0 1-1.225.168l-4.03-3.273a.826.826 0 0 1-.118-1.173.848.848 0 0 1 1.185-.116l3.325 2.702 4.713-6.7a.847.847 0 0 1 1.172-.208z"/></defs><g><g transform="translate(-459 -4686)"><use fill="#fff" xlink:href="#fakya"/></g></g></svg>