<svg xmlns="http://www.w3.org/2000/svg" xmlns:xlink="http://www.w3.org/1999/xlink" width="46" height="46" viewBox="0 0 46 46"><defs><path id="jqxya" d="M425.527 1855.478l-3.066 2.3a.77.77 0 0 1-.92 0l-3.067-2.3a.766.766 0 0 1-.268-.856l2.882-8.643-1.813-1.209.85-1.275 1.875 1.25 1.874-1.25.85 1.275-1.812 1.209 2.883 8.643a.768.768 0 0 1-.268.856zm-1.363-.894L422 1848.09l-2.164 6.494 2.164 1.623zm20.836-9.685v15.333a.768.768 0 0 1-.767.768h-44.466a.768.768 0 0 1-.767-.768v-15.333c0-1.82 1.28-3.342 2.985-3.731a4.56 4.56 0 0 1-.685-2.402v-5.367c0-.423.343-.766.767-.766h7.666c.423 0 .767.343.767.766v5.367c0 .88-.253 1.702-.685 2.402a3.832 3.832 0 0 1 2.553 2.002 9.162 9.162 0 0 1 4.416-3.157 8.417 8.417 0 0 1-3.217-6.614v-6.969a4.605 4.605 0 0 1-3.834-4.531v-1.533c0-.423.344-.767.767-.767h14.567a5.373 5.373 0 0 1 5.366 5.367v.86a3.45 3.45 0 0 1 2.684 3.356 3.452 3.452 0 0 1-2.684 3.358v.859a8.417 8.417 0 0 1-3.217 6.614 9.16 9.16 0 0 1 4.416 3.156 3.832 3.832 0 0 1 2.553-2.001 4.56 4.56 0 0 1-.685-2.402v-5.367c0-.423.343-.766.767-.766h7.666c.424 0 .767.343.767.766v5.367a4.56 4.56 0 0 1-.685 2.402 3.837 3.837 0 0 1 2.985 3.731zm-14.567-13.96a1.92 1.92 0 0 0 1.15-1.757 1.92 1.92 0 0 0-1.15-1.756zm-27.6 7.827a3.06 3.06 0 0 0 1.24 2.45l.005.003c.126.093.258.173.393.245.017.009.033.019.05.027.13.067.266.122.403.17l.07.02a3.045 3.045 0 0 0 2.284-.19l.05-.027a3.15 3.15 0 0 0 .393-.246l.005-.002a3.054 3.054 0 0 0 1.205-2.097l-.956.955a.764.764 0 0 1-.542.225h-2.3v-1.533h1.983l1.85-1.85v-2.75h-6.133zm3.067 7.243l-1.434 6.213 1.434.956 1.434-.956zm5.367-1.11c0-1.268-1.032-2.3-2.3-2.3h-.53a4.569 4.569 0 0 1-1.596.67l2.106 9.124a.766.766 0 0 1-.321.81l-2.3 1.535a.77.77 0 0 1-.852 0l-2.3-1.535a.766.766 0 0 1-.322-.81l2.106-9.125a4.57 4.57 0 0 1-1.596-.669h-.529a2.303 2.303 0 0 0-2.3 2.3v14.566h9.967v-10.733c0-.31.017-.615.048-.918.004-.051.015-.102.02-.154.03-.26.07-.517.121-.771.007-.03.015-.058.021-.088.128-.603.317-1.181.557-1.736zm3.066-19.933h10.734c.423 0 .766.343.766.766v1.534c0 1.85 1.32 3.4 3.067 3.756v-6.056a3.838 3.838 0 0 0-3.833-3.834h-13.8v.767a3.07 3.07 0 0 0 3.066 3.067zm4.792 14.696c.224.103.45.195.681.273h.002c1.425.482 2.96.482 4.385 0h.001a6.9 6.9 0 0 0 4.689-6.202l-2.508 2.508a.766.766 0 0 1-.542.224H419.7v-1.533h5.816l2.545-2.545a5.378 5.378 0 0 1-3.761-5.121v-.768h-9.2v6.9c0 2.779 1.654 5.172 4.025 6.264zm12.842 9.07c0-.262-.016-.523-.043-.781-.006-.053-.016-.105-.022-.158a7.607 7.607 0 0 0-.105-.642c-.007-.035-.016-.068-.024-.103a7.69 7.69 0 0 0-.504-1.494c-.004-.008-.002-.017-.005-.025a7.64 7.64 0 0 0-5.923-4.39 8.362 8.362 0 0 1-3.341.693 8.368 8.368 0 0 1-3.342-.694 7.64 7.64 0 0 0-5.922 4.391c-.004.008-.002.017-.006.025a7.784 7.784 0 0 0-.504 1.494l-.024.103a7.607 7.607 0 0 0-.105.642c-.006.053-.016.105-.022.158-.026.258-.042.519-.042.781v10.733h19.934zm3.066-9.966a3.06 3.06 0 0 0 1.24 2.45l.005.003c.126.093.258.173.393.245.017.009.033.019.05.027.13.067.266.122.403.17l.07.02c.59.184 1.221.184 1.81 0l.071-.022c.137-.046.272-.102.403-.169l.05-.026c.135-.073.267-.152.393-.246l.005-.002a3.054 3.054 0 0 0 1.205-2.097l-.956.955a.764.764 0 0 1-.542.225h-2.3v-1.533h1.983l1.85-1.85v-2.75h-6.133zm3.067 7.243l-1.434 6.213 1.434.956 1.434-.956zm5.367-1.11c0-1.268-1.032-2.3-2.3-2.3h-.53a4.569 4.569 0 0 1-1.596.67l2.106 9.124a.766.766 0 0 1-.322.81l-2.3 1.535a.77.77 0 0 1-.85 0l-2.3-1.535a.766.766 0 0 1-.322-.81l2.106-9.125a4.57 4.57 0 0 1-1.596-.669h-.529a2.303 2.303 0 0 0-2.3 2.3v.166c.24.555.429 1.133.557 1.736l.02.088c.052.253.09.51.12.77.007.053.017.104.022.155.03.303.047.608.047.918v10.733h9.967zm-6.134-15.333h1.534v1.533h-1.534zm0-3.068h1.534v1.535h-1.534zm3.067 0h1.533v1.535H440.4zm-6.133 0h1.533v1.535h-1.533zm-29.134 3.068h1.534v1.533h-1.534zm0-3.068h1.534v1.535h-1.534zm3.067 0h1.533v1.535H408.2zm-6.133 0h1.533v1.535h-1.533zm32.2-8.432h1.533v1.533h-1.533zm3.066 0h1.534v1.533h-1.534zm3.067 0h1.533v1.533H440.4zm4.6-2.3v6.133a.767.767 0 0 1-.606.75l-10.734 2.3a.765.765 0 0 1-.833-.385.766.766 0 0 1 .13-.907l.992-.992h-1.982a.766.766 0 0 1-.767-.766v-6.133c0-.423.343-.767.767-.767h12.266c.424 0 .767.344.767.767zm-1.533.766h-10.734v4.6h3.067a.768.768 0 0 1 .542 1.31l-.464.463 7.589-1.626z"/></defs><g><g transform="translate(-399 -1815)"><use fill="#fff" xlink:href="#jqxya"/></g></g></svg>