<svg xmlns="http://www.w3.org/2000/svg" xmlns:xlink="http://www.w3.org/1999/xlink" width="46" height="44" viewBox="0 0 46 44"><defs><path id="vdsya" d="M645 8843.659v.83c0 3.902-3.121 7.058-6.982 7.058h-2.875a1.657 1.657 0 0 1-1.643-1.661v-11.622c0-.914.74-1.66 1.643-1.66h1.643c0-8.261-6.613-14.944-14.786-14.944-8.173 0-14.786 6.683-14.786 14.943h1.643c.904 0 1.643.747 1.643 1.66v11.623c0 .913-.74 1.66-1.643 1.66h-.575l2.382 3.778c1.725 2.822 4.724 4.525 8.01 4.525h.574c.37-1.413 1.643-2.492 3.163-2.492 1.807 0 3.285 1.495 3.285 3.32 0 1.827-1.478 3.322-3.285 3.322-1.52 0-2.793-1.08-3.163-2.49h-.575c-3.86 0-7.352-1.951-9.405-5.272l-2.916-4.69h-.37c-3.86 0-6.982-3.156-6.982-7.057v-.831c0-3.735 2.916-6.807 6.571-7.014v-.042c0-9.174 7.352-16.604 16.429-16.604 9.077 0 16.428 7.43 16.428 16.646 3.656.207 6.572 3.279 6.572 7.014zm-24.232 17.019c0 .913.74 1.66 1.643 1.66s1.643-.747 1.643-1.66c0-.913-.74-1.66-1.643-1.66-.904 0-1.643.747-1.643 1.66zm-14.786-22.414c-2.957 0-5.34 2.407-5.34 5.395v.83c0 2.99 2.383 5.397 5.34 5.397h2.875v-11.622zm37.375 5.395c0-2.988-2.382-5.395-5.34-5.395h-2.874v11.622h2.875c2.957 0 5.34-2.407 5.34-5.396zm-14.21-16.272a.76.76 0 0 1-.699.416.78.78 0 0 1-.41-.125 1.646 1.646 0 0 1-.37-.207 3.498 3.498 0 0 0-.329-.207c-.41-.25-.493-.707-.287-1.122a.769.769 0 0 1 1.109-.29c.082.042.205.125.328.208.123.082.247.166.329.207.41.25.534.748.328 1.12zm-4.56-2.947c.411.126.74.582.617.997a.873.873 0 0 1-.986.623c-.74-.166-1.479-.25-2.218-.25-2.998 0-5.832 1.33-7.804 3.612a.737.737 0 0 1-.616.29c-.205 0-.37-.083-.534-.207a.85.85 0 0 1-.082-1.162 11.841 11.841 0 0 1 9.036-4.193c.862 0 1.725.084 2.587.29z"/></defs><g><g transform="translate(-599 -8820)"><use fill="#7f8890" xlink:href="#vdsya"/></g></g></svg>