<svg xmlns="http://www.w3.org/2000/svg" xmlns:xlink="http://www.w3.org/1999/xlink" width="41" height="46" viewBox="0 0 41 46"><defs><path id="2kn1a" d="M645 8982.732v24.533c0 .291-.163.557-.42.686l-19.74 9.966c-.011.006-.024.004-.036.01a.747.747 0 0 1-.304.072.734.734 0 0 1-.305-.073c-.01-.006-.023-.004-.034-.01l-19.741-9.966c-.012-.005-.02-.015-.031-.021a.9.9 0 0 1-.168-.13.682.682 0 0 1-.062-.076.728.728 0 0 1-.065-.1c-.008-.012-.018-.023-.024-.037-.006-.012-.004-.025-.01-.038a.763.763 0 0 1-.052-.224c0-.015-.006-.029-.006-.045l-.002-.014v-24.533c0-.068.01-.133.027-.197.005-.017.014-.032.02-.049a.721.721 0 0 1 .058-.136c.012-.023.029-.041.043-.061a.697.697 0 0 1 .079-.098c.02-.02.041-.036.063-.053.02-.017.037-.036.06-.051.012-.008.026-.012.039-.02.011-.005.02-.014.03-.02l19.742-9.967c.006-.004.014-.002.02-.005a.735.735 0 0 1 .319-.076c.115 0 .22.03.319.076.007.004.014.002.021.005l19.74 9.967c.012.005.02.015.032.02.012.008.027.012.039.02.022.015.04.034.06.05.021.018.043.034.063.055.03.03.054.062.079.098.014.02.03.038.043.06a.712.712 0 0 1 .058.136c.006.017.015.033.02.05.017.063.026.128.026.196zm-38.5 24.555l17.24 8.705v-23.57l-18.222-8.491v22.137l.302-.14a.756.756 0 0 1 1.007.374.765.765 0 0 1-.327.985zm17.373-33.348l-17.361 8.766 17.229 8.03v-.336c0-.423.34-.766.759-.766s.76.343.76.766v.336l17.228-8.03-17.36-8.766a.744.744 0 0 1-.628.36.744.744 0 0 1-.627-.36zm1.386 42.053l17.23-8.698-.821-.383a.77.77 0 0 1-.372-1.017.755.755 0 0 1 1.008-.375l1.177.55v-22.138l-18.222 8.492v5.348a.737.737 0 0 1 .5.036l1.379.643c.38.177.546.633.37 1.018a.76.76 0 0 1-1.007.375l-1.242-.579zm-8.78-14.188a.77.77 0 0 1 .37-1.017l1.38-.642a.755.755 0 0 1 1.007.374.769.769 0 0 1-.371 1.017l-1.38.643a.759.759 0 0 1-1.008-.375zm-4.137 1.927a.77.77 0 0 1 .371-1.016l1.379-.643a.755.755 0 0 1 1.008.375.77.77 0 0 1-.372 1.017l-1.379.642a.76.76 0 0 1-1.008-.375zm-4.136 1.927a.768.768 0 0 1 .37-1.016l1.38-.643a.757.757 0 0 1 1.007.375.77.77 0 0 1-.371 1.018l-1.379.642a.744.744 0 0 1-.317.071.759.759 0 0 1-.69-.447zm27.575-2.335a.76.76 0 0 1-1.008.375l-1.378-.643a.77.77 0 0 1-.372-1.017.757.757 0 0 1 1.008-.375l1.379.643a.77.77 0 0 1 .371 1.017zm4.136 1.928a.758.758 0 0 1-1.007.375l-1.379-.642a.77.77 0 0 1-.371-1.018.756.756 0 0 1 1.007-.375l1.38.643c.38.178.547.632.37 1.017zm-8.273-3.854a.758.758 0 0 1-1.007.374l-1.379-.643a.77.77 0 0 1-.371-1.017.756.756 0 0 1 1.007-.375l1.38.643a.769.769 0 0 1 .37 1.018zm-11.03-1.521a.772.772 0 0 1 .372-1.018l1.379-.642a.756.756 0 0 1 1.008.375.77.77 0 0 1-.372 1.017l-1.379.642a.759.759 0 0 1-1.008-.375zm3.127-21.744v-1.533c0-.423.34-.766.759-.766s.76.343.76.766v1.533c0 .423-.341.768-.76.768a.764.764 0 0 1-.76-.768zm0 4.6v-1.533c0-.423.34-.766.759-.766s.76.343.76.766v1.533c0 .423-.341.767-.76.767a.763.763 0 0 1-.76-.767zm0 4.6v-1.532c0-.424.34-.768.759-.768s.76.344.76.768v1.532c0 .424-.341.766-.76.766a.763.763 0 0 1-.76-.766z"/></defs><g><g transform="translate(-604 -8972)"><use fill="#7f8890" xlink:href="#2kn1a"/></g></g></svg>