<svg xmlns="http://www.w3.org/2000/svg" xmlns:xlink="http://www.w3.org/1999/xlink" width="46" height="43" viewBox="0 0 46 43"><defs><path id="mac7a" d="M1321 9130.754v32.435c0 .967-.783 1.753-1.746 1.753h-15.22v5.08h6.11c.406 0 .735.58.735.989 0 .407-.329.988-.734.988h-24.29c-.406 0-.734-.58-.734-.988 0-.408.328-.988.734-.988h6.11v-5.08h-15.219a1.752 1.752 0 0 1-1.746-1.754v-32.435c0-.969.783-1.755 1.746-1.755h42.508c.963 0 1.746.786 1.746 1.755zm-19.059 34.188h-7.945v5.08h7.945zm17.09-33.689c0-.15-.127-.279-.277-.279h-41.508a.282.282 0 0 0-.278.28v31.497c0 .151.127.28.278.28h41.508c.15 0 .278-.129.278-.28zm-1.067 26.639c0 .407-.329 1.05-.734 1.05h-38.46c-.405 0-.734-.643-.734-1.05 0-.408.329-.925.734-.925h38.46c.405 0 .734.517.734.925zm-32.932-3.683v-10.45c0-.407.328-.737.734-.737h3.54c.405 0 .734.33.734.737v10.45a.736.736 0 0 1-.734.737h-3.54a.736.736 0 0 1-.734-.737zm.968-.238h2.947v-9.975H1286zm6.008.238v-13.502c0-.407.329-.738.734-.738h3.54c.405 0 .734.331.734.738v13.502a.736.736 0 0 1-.734.737h-3.54a.736.736 0 0 1-.734-.737zm1.03-.238h2.947v-13.026h-2.947zm5.946.238v-17.489c0-.407.328-.737.734-.737h3.54c.405 0 .734.33.734.737v17.49a.736.736 0 0 1-.734.736h-3.54a.736.736 0 0 1-.734-.737zm1.03-.238h3.01v-16.513h-3.01zm5.946.238v-7.43c0-.408.328-.738.734-.738h3.54c.405 0 .734.33.734.738v7.43a.736.736 0 0 1-.734.737h-3.54a.736.736 0 0 1-.734-.737zm1.03-.238h3.01v-6.955h-3.01z"/></defs><g><g transform="translate(-1275 -9129)"><use fill="#7f8890" xlink:href="#mac7a"/></g></g></svg>