<svg xmlns="http://www.w3.org/2000/svg" xmlns:xlink="http://www.w3.org/1999/xlink" width="42" height="46" viewBox="0 0 42 46"><defs><path id="5jlwa" d="M1317 8824.527v30.945a.83.83 0 0 1-.105.405c-1.025 4.078-9.886 7.122-20.895 7.122-11.034 0-19.91-3.056-20.902-7.15a.784.784 0 0 1-.098-.377v-30.945c0-.153.052-.288.123-.41.972-3.59 8.212-7.118 20.877-7.118s19.905 3.529 20.877 7.118c.07.122.123.257.123.41zm-1.68 20.49c0-.094-.01-.188-.026-.283a.83.83 0 0 1 .026-.371v-6.21a8.561 8.561 0 0 1-.698.568c-3.178 2.369-9.49 4.205-18.622 4.205-9.171 0-15.499-1.85-18.663-4.234a8.522 8.522 0 0 1-.58-.474c-.024-.022-.054-.043-.077-.065v6.21c.035.119.047.245.026.371a1.788 1.788 0 0 0-.026.283c0 .135.034.27.065.404a2.056 2.056 0 0 0 .218.551 3.108 3.108 0 0 0 .378.54 4.176 4.176 0 0 0 .523.526c.138.119.282.239.442.356.07.051.144.1.216.15.19.131.388.261.606.387a13.087 13.087 0 0 0 .972.516l.11.052c.315.148.645.294.997.434l.03.012c1.908.758 4.348 1.397 7.191 1.814a49.193 49.193 0 0 0 1.745.223c.095.01.195.016.29.027.509.053 1.023.101 1.552.14.242.018.496.026.742.041.398.022.792.05 1.2.063a57.707 57.707 0 0 0 4.085.003c.408-.014.802-.04 1.2-.064.246-.015.5-.023.742-.04.53-.039 1.043-.087 1.552-.14.095-.01.195-.017.29-.027a45.121 45.121 0 0 0 1.745-.223c2.843-.417 5.283-1.056 7.191-1.814l.03-.013a17.681 17.681 0 0 0 1.107-.485c.283-.135.544-.274.794-.415.06-.034.121-.066.178-.1.218-.128.416-.257.606-.388.073-.05.147-.1.216-.15.16-.118.304-.237.442-.356.075-.067.15-.132.218-.198a4.548 4.548 0 0 0 .489-.56 2.761 2.761 0 0 0 .314-.556c.041-.103.074-.203.098-.304.032-.136.066-.271.066-.406zm-.325-16.63c-.061.051-.118.101-.18.151-.253.2-.525.393-.82.583-.061.039-.13.077-.194.116a13.477 13.477 0 0 1-1.09.612c-.308.155-.63.306-.968.454-.055.023-.106.049-.162.072a22.85 22.85 0 0 1-1.247.48c-.12.042-.246.082-.37.124-.346.116-.704.228-1.074.335-.134.039-.265.079-.402.116-.491.134-.999.264-1.531.382-.073.017-.152.03-.226.047a37.996 37.996 0 0 1-1.972.372c-.477.078-.967.149-1.47.214-.13.017-.253.036-.384.052-.625.075-1.272.14-1.936.195-.165.013-.335.022-.501.035-.532.038-1.075.07-1.631.095a65.314 65.314 0 0 1-2.837.067c-.764 0-1.502-.017-2.226-.041a62.972 62.972 0 0 1-2.242-.12c-.166-.013-.337-.023-.5-.036a52.93 52.93 0 0 1-1.937-.195c-.13-.016-.254-.035-.384-.052a44.63 44.63 0 0 1-1.985-.302c-.5-.088-.988-.182-1.457-.284-.074-.017-.153-.03-.226-.047a31.049 31.049 0 0 1-1.531-.382c-.137-.037-.268-.077-.402-.116a26.5 26.5 0 0 1-1.074-.335c-.124-.042-.25-.082-.37-.125a23.108 23.108 0 0 1-1.247-.479c-.057-.023-.107-.049-.162-.072a17.436 17.436 0 0 1-1.275-.615 14.661 14.661 0 0 1-.783-.45c-.064-.04-.133-.078-.194-.117-.295-.19-.567-.385-.82-.583-.063-.05-.12-.1-.18-.15-.11-.09-.224-.18-.325-.27v6.208a.83.83 0 0 1 .026.372c-.015.094-.026.189-.026.282 0 .136.034.271.065.404.024.102.057.203.098.304.034.083.075.165.12.248.057.103.12.205.194.309.055.077.119.154.184.23.093.112.192.22.305.329.068.067.144.132.218.198.138.12.282.237.442.356.07.051.144.1.216.15.19.131.388.26.606.388.057.034.119.066.178.1.25.142.511.28.794.416l.11.051a18.095 18.095 0 0 0 1.027.445c1.908.759 4.348 1.397 7.191 1.815a49.165 49.165 0 0 0 1.745.224c.095.009.195.016.29.026a49.46 49.46 0 0 0 1.552.139c.242.017.496.027.742.042.398.022.792.049 1.2.062a57.707 57.707 0 0 0 4.085.003c.408-.014.802-.04 1.2-.063.246-.015.5-.024.742-.041.53-.039 1.043-.088 1.552-.14.095-.01.195-.017.29-.027a47.1 47.1 0 0 0 1.745-.222c2.843-.419 5.283-1.057 7.191-1.815l.03-.012a19.105 19.105 0 0 0 1.107-.484 14.2 14.2 0 0 0 .794-.417c.06-.033.121-.065.178-.1.218-.127.416-.257.606-.387.073-.05.147-.1.216-.15.16-.119.304-.237.442-.356.075-.067.15-.132.218-.198.113-.108.212-.218.305-.328a2.837 2.837 0 0 0 .498-.788c.041-.102.074-.203.098-.305.032-.135.066-.27.066-.406 0-.093-.01-.188-.026-.282a.831.831 0 0 1 .026-.372v-6.209c-.1.091-.216.181-.325.27zm-38.315-3.442c0 2.967 7.934 6.272 19.32 6.272s19.32-3.305 19.32-6.272c0-2.968-7.934-6.273-19.32-6.273s-19.32 3.305-19.32 6.273zm38.64 23.245a8.561 8.561 0 0 1-.698.568c-3.178 2.368-9.49 4.205-18.622 4.205-9.171 0-15.499-1.852-18.663-4.235a8.25 8.25 0 0 1-.58-.474c-.024-.022-.054-.043-.077-.064v7.036c.01.036.02.072.027.11.476 2.893 8.343 5.99 19.293 5.99s18.817-3.097 19.293-5.99a.843.843 0 0 1 .027-.112z"/></defs><g><g transform="translate(-1275 -8817)"><use fill="#7f8890" xlink:href="#5jlwa"/></g></g></svg>