<svg xmlns="http://www.w3.org/2000/svg" xmlns:xlink="http://www.w3.org/1999/xlink" width="46" height="43" viewBox="0 0 46 43"><defs><path id="vm5fa" d="M684 9291.974v13.59c0 .268-.16.51-.408.615l-11.163 4.765a.682.682 0 0 1-.07.026c-.006 0-.011.002-.017.003a.63.63 0 0 1-.07.017c-.008 0-.015.002-.023.003a.913.913 0 0 1-.087.006c-.029 0-.057-.003-.086-.006-.008 0-.016-.002-.023-.003a.64.64 0 0 1-.07-.017c-.006 0-.012-.002-.017-.003a.682.682 0 0 1-.07-.026l-3.812-1.627a.667.667 0 0 1-.353-.879.677.677 0 0 1 .887-.35l2.87 1.225v-12.054l-9.813-4.262v12.126l2.579 1.102c.342.146.5.54.353.88a.678.678 0 0 1-.887.349l-2.72-1.161-10.895 4.651a.684.684 0 0 1-.071.026c-.006 0-.011.002-.016.003a.639.639 0 0 1-.07.017l-.024.003a.915.915 0 0 1-.086.006c-.03 0-.058-.003-.087-.006-.008 0-.015-.002-.023-.003a.645.645 0 0 1-.07-.017c-.006 0-.011-.002-.017-.003a.684.684 0 0 1-.07-.026l-11.163-4.765a.67.67 0 0 1-.408-.615v-13.59c0-.031.003-.061.007-.092l.005-.03a.632.632 0 0 1 .014-.06l.01-.033.02-.052.016-.03a.435.435 0 0 1 .027-.05l.018-.029a.562.562 0 0 1 .037-.048l.019-.024a.78.78 0 0 1 .063-.06l.002-.002a.66.66 0 0 1 .068-.05l.006-.004a.271.271 0 0 1 .023-.013.422.422 0 0 1 .06-.03l.01-.006 10.757-4.673v-4.257c0-.37.303-.67.676-.67.373 0 .675.3.675.67v4.254l9.812 4.19v-12.054l-9.812-4.263v3.173c0 .37-.302.67-.675.67a.672.672 0 0 1-.676-.67v-4.196c0-.031.003-.061.007-.091l.006-.03a.701.701 0 0 1 .013-.06l.011-.033.02-.052.015-.031a.532.532 0 0 1 .028-.05c.006-.01.011-.02.018-.029a.54.54 0 0 1 .055-.07.652.652 0 0 1 .064-.062l.001-.001a.655.655 0 0 1 .068-.051l.006-.004a.252.252 0 0 1 .023-.012c.02-.011.04-.023.06-.031l.01-.006 11.162-4.848a.677.677 0 0 1 .542 0l11.163 4.848.01.006a.75.75 0 0 1 .082.043l.006.004a.667.667 0 0 1 .068.05l.001.002c.023.019.044.04.064.062l.018.022c.013.016.026.031.037.048l.019.03a.53.53 0 0 1 .027.049l.015.03a.991.991 0 0 1 .03.087c.006.019.01.039.014.059l.006.03c.004.03.007.06.007.09v13.154l10.758 4.673.01.005c.02.009.04.02.059.031a.271.271 0 0 1 .023.013l.006.004a.643.643 0 0 1 .068.05l.002.002c.023.019.044.04.063.061l.018.023c.014.016.026.031.038.048l.018.03c.01.015.019.031.027.048.006.01.01.021.015.031a.991.991 0 0 1 .031.086c.006.02.01.04.014.06l.005.03c.004.03.007.06.007.09zm-34.838 5.285l-9.812-4.262v12.127l9.812 4.19zm10.156-5.285l-9.48-4.118-9.48 4.118 9.48 4.117zm1.007 1.023l-9.812 4.262v12.054l9.812-4.19zm10.155-19.462l-9.48-4.117-9.48 4.117 9.48 4.117zm-8.805 17.34l9.812-4.19v-12.127l-9.812 4.263zm19.968 1.099l-9.48-4.118-9.481 4.118 9.48 4.117zm1.007 1.023l-9.812 4.262v12.054l9.812-4.19z"/></defs><g><g transform="translate(-638 -9268)"><use fill="#7f8890" xlink:href="#vm5fa"/></g></g></svg>