<svg xmlns="http://www.w3.org/2000/svg" xmlns:xlink="http://www.w3.org/1999/xlink" width="30" height="30" viewBox="0 0 30 30"><defs><path id="in9ja" d="M403.331 12319.351a10.734 10.734 0 0 1-3.603 3.591c-1.629.98-3.257 1.186-4.336 1.186-.346 0-.623-.021-.807-.042a6.895 6.895 0 0 1-1.686 1.346 1.753 1.753 0 0 0-.857 1.17 1.47 1.47 0 0 1 1.032 1.402 1.47 1.47 0 0 1-1.073 1.414v1.87h2.41v1.702h2.599v4.01h-14.023v-4.01h2.66v-1.702h2.41v-1.87a1.47 1.47 0 0 1-1.072-1.414c0-.657.435-1.215 1.032-1.401a1.753 1.753 0 0 0-.857-1.171 6.872 6.872 0 0 1-1.685-1.346l-.046.005a7.52 7.52 0 0 1-.762.037c-1.08 0-2.708-.206-4.337-1.186a10.734 10.734 0 0 1-3.603-3.59c-1.156-1.894-1.727-4.124-1.698-6.628.03-2.547 1.333-3.95 3.67-3.95.905 0 1.777.21 2.347.387a35.814 35.814 0 0 1-.06-1.716v-.446h18.086v.446c0 .032 0 .674-.057 1.715.57-.175 1.44-.386 2.345-.386 2.336 0 3.64 1.403 3.67 3.95.028 2.504-.543 4.734-1.699 6.627zm-21.445-11.46c.004.162.01.367.02.607h16.248c.01-.24.016-.444.02-.608zm14.565 13.345c.64-.067 1.405-.256 2.116-.712 2.038-1.309 3.398-3.757 3.83-6.894.103-.753.011-1.3-.273-1.625-.246-.283-.67-.427-1.257-.427-.701 0-1.484.203-2.087.404-.317 2.828-.974 6.404-2.33 9.254zm-15.17-9.254c-.605-.201-1.388-.404-2.09-.404-.587 0-1.01.144-1.257.427-.284.325-.375.872-.272 1.625.431 3.137 1.791 5.585 3.83 6.894.71.456 1.474.645 2.115.712l-.071-.151c-.755-1.63-1.36-3.649-1.799-6a43.211 43.211 0 0 1-.457-3.103zm3.496 11.254l-.042-.06-.09-.128-.09-.132a11.968 11.968 0 0 1-.279-.436l-.043-.072a11.42 11.42 0 0 1-.147-.25c-.832-.018-1.998-.192-3.076-.884-1.103-.71-2.025-1.696-2.74-2.935-.75-1.297-1.25-2.841-1.49-4.588-.14-1.02.022-1.804.483-2.332.423-.486 1.072-.732 1.929-.732.67 0 1.383.152 1.988.33-.027-.299-.052-.599-.074-.897-.446-.157-1.42-.454-2.407-.454-1.846 0-2.754 1.003-2.779 3.068-.068 5.837 3.383 8.55 4.87 9.444 1.454.875 2.91 1.059 3.877 1.059l.11-.001zm-.774 10.738v2.01h11.99v-2.01zm2.535-1.795v.81h6.983v-.81zm4.572-.891v-1.815h-2.161v1.815zm.496-3.86h-3.153a.577.577 0 0 0 0 1.154h3.153a.578.578 0 0 0 0-1.154zm3.713-5.929l.127-.234c1.442-2.785 2.126-6.482 2.45-9.385l.029-.274c.048-.453.09-.912.125-1.37l.001-.012a48.064 48.064 0 0 0 .058-.835h-16.156c.175 2.843.755 8.193 2.67 11.896l.117.214a9.98 9.98 0 0 0 1.241 1.82l.11.124c.45.492.95.903 1.503 1.21a2.648 2.648 0 0 1 1.318 1.883h2.235a2.648 2.648 0 0 1 1.318-1.882 6.134 6.134 0 0 0 1.613-1.336l.007-.008c.049-.056.098-.114.147-.173l.033-.04a9.54 9.54 0 0 0 .132-.167l.015-.019c.32-.416.623-.889.907-1.412zm8.82-8.765c-.025-2.065-.934-3.068-2.779-3.068-.987 0-1.961.297-2.407.454l-.002.023c-.02.278-.045.57-.073.874.606-.178 1.32-.33 1.989-.33.856 0 1.506.247 1.93.732.46.528.622 1.313.482 2.333-.24 1.746-.741 3.29-1.49 4.587-.715 1.239-1.637 2.226-2.74 2.935-1.079.693-2.245.867-3.076.884-.01.016-.02.031-.028.048a15.178 15.178 0 0 1-.295.487l-.036.055-.14.212-.02.03a9.628 9.628 0 0 1-.171.244l-.002.002h.11c.967 0 2.424-.183 3.878-1.058 1.487-.895 4.938-3.607 4.87-9.444zm-17.12 9.618l-.652.607a7.891 7.891 0 0 1-.811-1.041l.744-.49c.227.344.469.655.72.924zm-1.03-1.433l-.775.44c-.698-1.229-1.268-2.801-1.695-4.674l.868-.199c.408 1.79.947 3.28 1.602 4.433z"/></defs><g><g transform="translate(-375 -12307)"><use fill="#7f8890" xlink:href="#in9ja"/></g></g></svg>