<svg xmlns="http://www.w3.org/2000/svg" xmlns:xlink="http://www.w3.org/1999/xlink" width="27" height="30" viewBox="0 0 27 30"><defs><path id="duala" d="M701.846 12631.857c-.213 1.335-.71 2.589-1.41 3.727-2.516 4.078-3.47 8.518-3.47 12.84v1.575H686v-4.026h.974v3.027h5.027v-9.036h.974v9.036h3.016v-.577c0-4.5 1.005-9.115 3.614-13.344a9.207 9.207 0 0 0 1.28-3.374c.443-2.764-.306-5.408-2.053-7.443-1.523-1.773-3.43-2.902-5.857-3.208v.927h-.974v-1.004c-.122-.005-.524-.01-.647-.01h-3.15c-1.545 0-2.966.307-4.224.91-3.338 1.6-5.41 4.864-5.41 8.518a4.993 4.993 0 0 1-1.901 3.928l-.378.3c1.304 2.09 2.33 4.044 3.067 6.385h1.646v.968h-1.36c.043.156.09.591.13.747l.152.585c.19.732.652 1.32 1.268 1.615.688.33 1.496.313 2.16-.045l7.152-4.01.479.844-7.16 4.013a3.375 3.375 0 0 1-3.054.07c-.874-.419-1.526-1.237-1.788-2.245l-.152-.586a28.096 28.096 0 0 0-3.594-8.187l-.237-.367 1.06-.843a4.03 4.03 0 0 0 1.535-3.172c0-4.029 2.284-7.626 5.962-9.39 1.39-.667 2.954-1.005 4.647-1.005h3.15c3.24 0 6.235 1.324 8.219 3.635 1.935 2.253 2.763 5.173 2.273 8.222zm-21.847.145h3.016v.969H680zm12.145 1.062c-1.611 0-2.86-1.302-2.86-2.903s1.311-2.904 2.923-2.904 2.922 1.303 2.922 2.904c0 1.6-1.373 2.903-2.985 2.903zm2.011-2.903a1.944 1.944 0 0 0-1.948-1.936 1.944 1.944 0 0 0-1.948 1.936c0 1.067.874 1.935 1.948 1.935a1.944 1.944 0 0 0 1.948-1.935zm-5.53 6.084l-2.335-2.32.69-.684 1.796 1.785 1.034-.616.237.112c.155.074.314.14.478.197l.246.087.293 1.162h2.161l.292-1.162.247-.087a4.83 4.83 0 0 0 .479-.197l.236-.112 1.034.616 1.528-1.52-.62-1.026.113-.235c.075-.154.141-.312.199-.473l.087-.247 1.17-.29v-2.148l-1.17-.29-.087-.246a4.686 4.686 0 0 0-.199-.476l.88-.416c.05.106.099.215.143.323l1.406.35v3.659l-1.406.349-.034.082.745 1.235-2.604 2.587-1.243-.74c-.028.01-.055.023-.083.034l-.352 1.397h-3.683l-.352-1.397-.083-.034zm-2.206-8.638l.035-.082-.746-1.236 2.604-2.586 1.243.74.084-.034.351-1.397h3.684l.35 1.396.082.034 1.244-.74 2.335 2.32-.689.684-1.797-1.786-1.034.616-.236-.111a4.843 4.843 0 0 0-.479-.198l-.246-.086-.292-1.162h-2.162l-.292 1.162-.247.086a4.843 4.843 0 0 0-.478.198l-.236.111-1.034-.616-1.529 1.52.62 1.026-.112.234c-.074.155-.14.313-.198.475l-.087.247-1.17.29v2.148l1.17.29.087.246c.057.162.124.32.198.475l-.879.417a5.694 5.694 0 0 1-.144-.323l-1.406-.35v-3.659z"/></defs><g><g transform="translate(-675 -12620)"><use fill="#7f8890" xlink:href="#duala"/></g></g></svg>