<svg xmlns="http://www.w3.org/2000/svg" xmlns:xlink="http://www.w3.org/1999/xlink" width="30" height="30" viewBox="0 0 30 30"><defs><path id="do4ha" d="M701.785 12326.59a.5.5 0 0 1 .125.694l-3.107 4.466a.5.5 0 0 1-.727.1l-2.393-1.965a.499.499 0 1 1 .634-.772l1.974 1.621 2.798-4.02a.497.497 0 0 1 .696-.125zm-19.285-15.34c0 1.24-1.01 2.25-2.25 2.25s-2.25-1.01-2.25-2.25c0-1.242 1.01-2.252 2.25-2.252s2.25 1.01 2.25 2.251zm-1 0c0-.69-.561-1.252-1.25-1.252a1.25 1.25 0 1 0 1.25 1.25zm17.937-1.252a.5.5 0 1 1 0 1.002.5.5 0 0 1 0-1.002zm-2 0a.5.5 0 1 1 0 1.002.5.5 0 0 1 0-1.002zm3.063 1.97a.5.5 0 1 1 0 1 .5.5 0 0 1 0-1zm-2 0a.5.5 0 1 1 0 1 .5.5 0 0 1 0-1zm-3.063-1.97a.5.5 0 1 1 0 1.002.5.5 0 0 1 0-1.002zm1.063 1.97a.5.5 0 1 1 0 1 .5.5 0 0 1 0-1zm-3.063-1.97a.5.5 0 1 1 0 1.002.5.5 0 0 1 0-1.002zm1.063 1.97a.5.5 0 1 1 0 1 .5.5 0 0 1 0-1zm-3.063-1.97a.5.5 0 1 1 0 1.002.5.5 0 0 1 0-1.002zm1.063 1.97a.5.5 0 1 1 0 1 .5.5 0 0 1 0-1zm11.611 3.53a2.29 2.29 0 0 1 .889 1.804v6.393c0 .863-.492 1.631-1.223 2.022a6.46 6.46 0 0 1 1.223 3.782c0 3.584-2.916 6.5-6.5 6.5h-21.196c-1.27 0-2.304-1.065-2.304-2.336v-6.36c0-.734.351-1.381.888-1.804a2.292 2.292 0 0 1-.888-1.804v-6.393c0-.733.351-1.381.888-1.803a2.291 2.291 0 0 1-.888-1.805v-5.423a2.306 2.306 0 0 1 2.304-2.303h25.392a2.306 2.306 0 0 1 2.304 2.303v5.424a2.29 2.29 0 0 1-.889 1.804zm-9.958 18.82c-.092-.084-.186-.165-.273-.254-.078-.078-.15-.162-.223-.244-.075-.084-.15-.168-.222-.256-.067-.084-.13-.17-.193-.258a6.755 6.755 0 0 1-.202-.292 6.333 6.333 0 0 1-.34-.595 6.503 6.503 0 0 1-.279-.637c-.03-.08-.06-.16-.087-.241a6.68 6.68 0 0 1-.124-.431c-.019-.077-.042-.151-.058-.227a6.56 6.56 0 0 1-.083-.488c-.009-.065-.023-.13-.03-.195a6.477 6.477 0 0 1-.039-.701c0-.196.012-.391.03-.586.004-.06.012-.121.019-.182.016-.137.038-.275.063-.41.011-.06.02-.121.033-.181.036-.167.08-.336.129-.5.024-.082.053-.161.08-.242a5.787 5.787 0 0 1 .21-.536 6.653 6.653 0 0 1 .366-.695c.033-.057.064-.113.099-.168h-15.725c-.72 0-1.304.585-1.304 1.304v6.392c0 .719.585 1.304 1.304 1.304h17.044c-.068-.058-.129-.621-.195-.681zm9.847-4.82a5.471 5.471 0 0 0-1.815-4.07l-.048-.043a5.422 5.422 0 0 0-.438-.351 5.635 5.635 0 0 0-.465-.301l-.005-.003a5.486 5.486 0 0 0-3.307-.7l-.018.002a5.462 5.462 0 0 0-1.64.447h-.002a5.46 5.46 0 0 0-.5.257l-.028.016c-.152.09-.3.185-.444.29l-.048.035c-.135.1-.267.207-.393.32l-.055.05a5.779 5.779 0 0 0-.357.358l-.05.054a5.908 5.908 0 0 0-.27.33c-.017.025-.035.048-.053.072a5.819 5.819 0 0 0-.474.775c-.02.039-.038.078-.057.118-.053.11-.103.222-.148.338-.02.048-.037.098-.055.148a5.4 5.4 0 0 0-.108.326c-.019.064-.034.13-.05.195-.025.098-.05.198-.07.298-.017.09-.029.18-.042.27-.011.08-.025.16-.033.24-.017.175-.027.352-.027.53a5.441 5.441 0 0 0 .097 1.007l.027.144c.033.154.072.305.117.455.012.038.027.076.04.115a5.352 5.352 0 0 0 .353.832l.043.085c.079.144.163.283.254.418l.039.055c.081.118.168.233.258.345l.059.07c.102.123.207.24.32.353l.008.01c.12.118.245.231.376.34l.052.042a5.359 5.359 0 0 0 .747.508c.041.024.081.05.123.071.138.075.279.143.423.204l.042.02c.653.274 1.37.426 2.122.426 3.032 0 5.5-2.468 5.5-5.5zm-1.305-13.5h-25.391c-.72 0-1.304.586-1.304 1.304v6.393c0 .719.585 1.304 1.304 1.304h16.515l.011-.01a6.48 6.48 0 0 1 9.28-.066c.52-.176.89-.667.89-1.228v-6.393c0-.718-.585-1.303-1.305-1.303zm.001-1c.719 0 1.304-.584 1.304-1.304v-5.423c0-.719-.585-1.303-1.305-1.303h-25.391c-.72 0-1.304.584-1.304 1.303v5.424c0 .719.585 1.304 1.304 1.304zm-24.696 5.75c0-1.24 1.01-2.248 2.25-2.248s2.25 1.008 2.25 2.249-1.01 2.25-2.25 2.25a2.252 2.252 0 0 1-2.25-2.25zm1 0c0 .69.56 1.251 1.25 1.251.689 0 1.25-.56 1.25-1.25s-.561-1.25-1.25-1.25c-.69 0-1.25.56-1.25 1.25zm20.469-1.748a.5.5 0 1 1 .002.998.5.5 0 0 1-.002-.998zm-2 0a.5.5 0 1 1 .002.998.5.5 0 0 1-.002-.998zm3 2a.5.5 0 1 1 .001.998.5.5 0 0 1-.001-.999zm-2 0a.5.5 0 1 1 .001.998.5.5 0 0 1-.001-.999zm-3-2a.5.5 0 1 1 .002.998.5.5 0 0 1-.002-.998zm1 2a.5.5 0 1 1 .001.998.5.5 0 0 1-.001-.999zm-3-2a.5.5 0 1 1 .002.998.5.5 0 0 1-.002-.998zm1 2a.5.5 0 1 1 .001.998.5.5 0 0 1-.001-.999zm-3-2a.5.5 0 1 1 .002.998.5.5 0 0 1-.002-.998zm1 2a.5.5 0 1 1 .001.998.5.5 0 0 1-.001-.999zm-9.969 9.249c0 1.24-1.01 2.25-2.25 2.25s-2.25-1.01-2.25-2.25 1.01-2.25 2.25-2.25 2.25 1.01 2.25 2.25zm-1 0c0-.69-.561-1.25-1.25-1.25a1.251 1.251 0 1 0 1.25 1.25z"/></defs><g><g transform="translate(-675 -12306)"><use fill="#7f8890" xlink:href="#do4ha"/></g></g></svg>