<svg xmlns="http://www.w3.org/2000/svg" xmlns:xlink="http://www.w3.org/1999/xlink" width="30" height="30" viewBox="0 0 30 30"><defs><path id="cjkwa" d="M983 12329.997h1v1.002h-1zm2 0h1v1.002h-1zm-2-6.001h1v1h-1zm2 0h1v1h-1zm20-5.503c0 3.59-2.41 6.503-6 6.503v1.5a.5.5 0 0 1-.5.5H997v1h1.5a.5.5 0 0 1 .5.501v7.001a.5.5 0 0 1-.5.5h-17a.5.5 0 0 1-.5-.5v-7a.5.5 0 0 1 .5-.502h1.5v-1h-1.5a.5.5 0 0 1-.5-.5v-1.5h-.5a5.501 5.501 0 0 1-5.5-5.503 5.501 5.501 0 0 1 6.013-5.479 8.496 8.496 0 0 1 16.622-1.966 6.5 6.5 0 0 1 7.365 6.445zm-23 10.504v6.002h16v-6.002zm14-1v-1h-12v1zm2-5.002h-16v3.001h16zm5.882-5.629a5.5 5.5 0 0 0-6.51-4.259.5.5 0 0 1-.588-.372 7.496 7.496 0 0 0-14.784 1.756l.005.094a.5.5 0 0 1-.599.498 4.502 4.502 0 0 0-5.406 4.41 4.502 4.502 0 0 0 4.5 4.503h.5v-1.502a.5.5 0 0 1 .5-.5h3.5v-3h-2.092a1.5 1.5 0 1 1-1.914-1.916 1.5 1.5 0 0 1 1.914.914h2.592a.5.5 0 0 1 .5.501v3.5h3v-9.534a.5.5 0 0 1 .5-.5h2.092a1.499 1.499 0 0 1 2.828 0 1.501 1.501 0 0 1-2.828 1.001H990v9.034h2v-4.533a.5.5 0 0 1 .5-.5h5.092a1.5 1.5 0 1 1 0 1H993v4.033h5.5a.5.5 0 0 1 .5.5v1.502c.378 0 .255-.04.624-.118a5.502 5.502 0 0 0 4.258-6.512zm-4.882.595a.5.5 0 1 0 0-1 .5.5 0 0 0 0 1zm-6-5.001a.5.5 0 1 0-.001-1.001.5.5 0 0 0 0 1.001zm-11.5 5.032a.5.5 0 1 0 .001 1.002.5.5 0 0 0-.001-1.002z"/></defs><g><g transform="translate(-975 -12306)"><use fill="#7f8890" xlink:href="#cjkwa"/></g></g></svg>