<svg xmlns="http://www.w3.org/2000/svg" xmlns:xlink="http://www.w3.org/1999/xlink" width="27" height="30" viewBox="0 0 27 30"><defs><path id="757aa" d="M1302 12313v15.999c0 .189-.107.363-.277.446l-13 6.5c-.007.004-.015.003-.023.006a.487.487 0 0 1-.2.048.487.487 0 0 1-.2-.048c-.008-.003-.016-.002-.024-.005l-13-6.5-.02-.014a.49.49 0 0 1-.056-.039c-.019-.015-.038-.03-.055-.046a.67.67 0 0 1-.083-.115c-.005-.009-.012-.015-.016-.024-.004-.008-.003-.017-.006-.025a.505.505 0 0 1-.035-.147c0-.009-.004-.018-.004-.028l-.001-.01V12313c0-.044.006-.087.018-.129l.012-.03a.457.457 0 0 1 .039-.09c.008-.015.019-.027.028-.04.016-.023.033-.045.052-.065a.415.415 0 0 1 .042-.034c.013-.011.024-.024.04-.033.007-.005.016-.007.025-.012l.02-.014 13-6.5.014-.004a.504.504 0 0 1 .21-.05c.075 0 .145.02.21.05.004.003.01.002.014.003l13 6.5.02.015c.008.005.018.007.026.012.014.01.026.022.04.033a.408.408 0 0 1 .093.1c.01.013.02.024.028.038a.464.464 0 0 1 .039.09c.003.01.01.02.012.031a.486.486 0 0 1 .018.13zm-25.354 16.013l11.354 5.676v-15.37l-12-5.54v14.438l.198-.09a.496.496 0 1 1 .448.886zm11.44-21.749l-11.432 5.717 11.346 5.237v-.218a.5.5 0 1 1 1 0v.218l11.346-5.237-11.433-5.717a.49.49 0 0 1-.413.235.49.49 0 0 1-.413-.235zm.914 27.425l11.346-5.672-.54-.25a.5.5 0 1 1 .418-.907l.776.357v-14.437l-12 5.539v3.488a.496.496 0 0 1 .329.023l.908.42a.5.5 0 0 1-.42.908l-.817-.378zm-5.783-9.253a.499.499 0 0 1 .245-.662l.908-.42a.5.5 0 0 1 .419.909l-.908.419a.5.5 0 0 1-.663-.245zm-2.724 1.258a.501.501 0 0 1 .245-.664l.908-.419a.5.5 0 0 1 .419.908l-.908.42a.501.501 0 0 1-.664-.245zm-2.724 1.257a.5.5 0 0 1 .245-.664l.908-.419a.5.5 0 0 1 .419.91l-.908.417a.5.5 0 0 1-.664-.245zm18.16-1.524a.5.5 0 0 1-.664.245l-.908-.42a.5.5 0 0 1 .42-.907l.907.419a.5.5 0 0 1 .245.663zm2.723 1.257a.498.498 0 0 1-.663.245l-.908-.42a.499.499 0 1 1 .42-.906l.907.419c.25.115.36.412.244.662zm-5.448-2.514a.5.5 0 0 1-.663.246l-.908-.42a.5.5 0 1 1 .419-.907l.908.418c.251.116.36.413.244.663zm-7.263-.99a.501.501 0 0 1 .245-.664l.908-.42a.5.5 0 0 1 .419.909l-.908.419a.501.501 0 0 1-.664-.244zM1288 12310v-1.002a.5.5 0 0 1 1 0v1.001a.5.5 0 1 1-1 0zm0 3v-1a.5.5 0 1 1 1 0v1a.5.5 0 1 1-1 0zm0 2.999v-1a.5.5 0 1 1 1 0v1a.5.5 0 1 1-1 0z"/></defs><g><g transform="translate(-1275 -12306)"><use fill="#7f8890" xlink:href="#757aa"/></g></g></svg>