<svg xmlns="http://www.w3.org/2000/svg" xmlns:xlink="http://www.w3.org/1999/xlink" width="30" height="30" viewBox="0 0 30 30"><defs><path id="qp72a" d="M405.061 12477.503v6.187c0 .92-.783 1.579-1.937 1.668a.604.604 0 0 1-.065.32c-.15.274-3.724 6.627-11.544 6.723-.371.409-.893.639-1.447.645-1.129.014-2.048-.907-1.99-2.031.053-.96.842-1.752 1.82-1.822 1.148-.084 2.107.799 2.12 1.904 5.778-.32 8.94-4.544 9.71-5.72h-1.415c-1.493 0-2.42-.901-2.42-2.352v-3.342c0-1.541.992-2.615 2.42-2.615h3.437c-.11-3.4-1.565-6.577-4.115-8.986-2.68-2.562-6.32-3.93-10.063-3.79-7.017.25-12.776 5.906-13.18 12.776h3.423c1.422 0 2.42 1.075 2.42 2.615v3.342c0 1.45-.926 2.352-2.42 2.352h-2.556c-1.298 0-2.198-.697-2.198-1.687v-5.963-.026-.038c.091-7.823 6.541-14.38 14.459-14.656 4.095-.127 8.067 1.368 11.021 4.148 2.916 2.762 4.52 6.43 4.52 10.348zm-28.696.837v5.343c0 .34.646.41.894.41h2.556c.77 0 1.116-.333 1.116-1.074v-3.343c0-.313-.079-1.336-1.116-1.336zm14.348 12.783a.647.647 0 0 0-.652-.64.647.647 0 0 0-.652.64c0 .351.293.639.652.639a.647.647 0 0 0 .652-.64zm13.044-7.44v-5.343h-3.444c-1.037 0-1.115 1.023-1.115 1.336v3.343c0 .741.339 1.073 1.115 1.073h2.557c.241 0 .887-.076.887-.409z"/></defs><g><g transform="translate(-375 -12463)"><use fill="#7f8890" xlink:href="#qp72a"/></g></g></svg>