<svg xmlns="http://www.w3.org/2000/svg" xmlns:xlink="http://www.w3.org/1999/xlink" width="30" height="30" viewBox="0 0 30 30"><defs><path id="rlt1a" d="M700.705 12480.29c.14.142.213.33.209.53-.08 3.396-1.464 6.107-3.895 8.486a12.889 12.889 0 0 1-9.06 3.694c-.99 0-1.976-.113-2.931-.334a.44.44 0 0 1 .198-.856c.749.173.987.274 1.762.303v-4.013h-.595c-.992 0-1.8-.808-1.8-1.8 0-.993.808-1.8 1.8-1.8h.595v-3.552h-3.752a.616.616 0 0 1-.616-.615v-.825c0-.509-.398-.936-.887-.954a.914.914 0 0 0-.674.258.914.914 0 0 0-.281.662v.86a.616.616 0 0 1-.615.614h-4.276c.178 4.835 3.28 8.7 7.832 10.407a.44.44 0 1 1-.308.823 12.935 12.935 0 0 1-6.048-4.675 12.876 12.876 0 0 1-2.363-7.462c0-3.408 1.312-6.625 3.694-9.06 2.378-2.432 5.027-3.816 8.423-3.895a.728.728 0 0 1 .75.732v4.38h.595c.493 0 .953.196 1.295.55.342.355.521.822.504 1.315-.034.958-.856 1.735-1.832 1.735h-.562v4.272h4.815c.339 0 .615.276.615.615v.858a.922.922 0 0 0 1.842 0v-.858c0-.339.276-.615.616-.615h4.426c.199 0 .385.078.524.22zm-13.102-5.37h.826c.508 0 .936-.398.953-.888a.917.917 0 0 0-.257-.674.913.913 0 0 0-.663-.281h-.859a.616.616 0 0 1-.615-.616v-4.492c-6.286.226-10.87 5.841-11.1 12.1h4.01v-.595c0-.492.196-.952.551-1.295.355-.343.822-.52 1.315-.504.957.034 1.735.856 1.735 1.832v.563h3.489v-4.535c0-.34.276-.615.615-.615zm12.428 6.028h-4.013v.595c0 .992-.807 1.8-1.8 1.8-.992 0-1.8-.808-1.8-1.8v-.595h-4.551v3.815c0 .34-.276.616-.615.616h-.859a.923.923 0 0 0 0 1.842h.859c.339 0 .615.276.615.615v4.275c6.259-.23 11.937-4.876 12.164-11.163zm4.964-4.8c.005.2-.069.387-.208.53a.726.726 0 0 1-.524.22H700.1v.563c0 .975-.778 1.797-1.735 1.83-.022.002-.044.002-.066.002-.469 0-.91-.178-1.25-.505a1.783 1.783 0 0 1-.55-1.295v-.595h-4.76a.733.733 0 0 1-.732-.732v-4.714c0-.339.276-.614.615-.614h.859a.922.922 0 0 0 0-1.843h-.859a.615.615 0 0 1-.615-.614v-4.645c0-.199.079-.384.221-.523a.725.725 0 0 1 .53-.21c1.709.04 3.956.409 5.51 1.094a.44.44 0 0 1-.355.805c-1.402-.62-3.487-.96-5.027-1.016v4.23h.595c.993 0 1.8.808 1.8 1.8 0 .993-.807 1.8-1.8 1.8h-.595v4.303h5.053a.44.44 0 0 1 .44.44v1.034c0 .252.1.488.281.662a.914.914 0 0 0 .674.259c.49-.018.887-.446.887-.953v-1.002a.44.44 0 0 1 .44-.44h4.451c-.146-4.118-2.343-8.327-5.897-10.446a.439.439 0 1 1 .45-.755 13.048 13.048 0 0 1 4.515 4.516c1.135 1.905 1.763 4.588 1.815 6.814z"/></defs><g><g transform="translate(-675 -12463)"><use fill="#7f8890" xlink:href="#rlt1a"/></g></g></svg>