<svg xmlns="http://www.w3.org/2000/svg" xmlns:xlink="http://www.w3.org/1999/xlink" width="30" height="30" viewBox="0 0 30 30"><defs><path id="5wnza" d="M1005 12486.793a6.214 6.214 0 0 1-6.207 6.207 6.214 6.214 0 0 1-6.207-6.207 6.214 6.214 0 0 1 6.207-6.207 6.214 6.214 0 0 1 6.207 6.207zm-1.035 0a5.178 5.178 0 0 0-5.172-5.172 5.178 5.178 0 0 0-5.172 5.172 5.178 5.178 0 0 0 5.172 5.172 5.178 5.178 0 0 0 5.172-5.172zm-1.551 0a.517.517 0 0 1-.518.517h-3.103a.517.517 0 0 1-.517-.517v-3.103a.517.517 0 1 1 1.034 0v2.586h2.586c.287 0 .518.23.518.517zm-4.138-12.931v5.69h-9.31v9.31H978.62v-15zm-4.655 4.655h3.62v-3.62h-3.62zm-9.31 0h3.62v-3.62h-3.62zm-4.656 0h3.62v-3.62h-3.62zm0 4.655h3.62v-3.62h-3.62zm3.62 1.035h-3.62v3.62h3.62zm4.656 0h-3.62v3.62h3.62zm0-4.655h-3.62v3.62h3.62zm4.655-4.656h-3.62v3.621h3.62zm0 17.6a.517.517 0 0 1-.517.517h-16.552a.517.517 0 0 1-.517-.517v-26.91c0-.286.231-.518.517-.518h2.586v-1.552c0-.285.232-.517.518-.517h3.62c.286 0 .518.232.518.517v1.552h11.379v-1.552c0-.285.231-.517.517-.517h3.62c.287 0 .518.232.518.517v1.552h2.586c.286 0 .517.232.517.518V12478a.517.517 0 1 1-1.034 0v-7.006h-24.828v20.985h16.035c.286 0 .517.23.517.517zm2.586-25.358h2.587v-3.104h-2.587zm-16.034 0h2.586v-3.104h-2.586zm-3.104 2.822h24.828v-3.857h-2.069v1.552a.517.517 0 0 1-.517.517h-3.62a.517.517 0 0 1-.518-.517v-1.552h-11.38v1.552a.517.517 0 0 1-.517.517h-3.62a.517.517 0 0 1-.518-.517v-1.552h-2.069z"/></defs><g><g transform="translate(-975 -12463)"><use fill="#7f8890" xlink:href="#5wnza"/></g></g></svg>