<svg xmlns="http://www.w3.org/2000/svg" xmlns:xlink="http://www.w3.org/1999/xlink" width="30" height="30" viewBox="0 0 30 30"><defs><path id="vpjja" d="M1285.378 12482.815c.242.171.301.508.133.754l-3.307 4.832a.532.532 0 0 1-.437.233.527.527 0 0 1-.337-.124l-2.547-2.126a.547.547 0 0 1-.074-.762.526.526 0 0 1 .749-.074l2.101 1.754 2.979-4.351a.525.525 0 0 1 .74-.136zm18.619 5.694l-1.35 1.373c-1.665 1.692-3.502 2.544-5.48 2.544-.561 0-1.133-.068-1.715-.205-2.173-.511-4.485-1.994-6.87-4.399-.804 2.98-3.484 5.18-6.667 5.18-3.815 0-6.918-3.156-6.918-7.036 0-3.244 2.171-5.973 5.111-6.784-2.08-2.245-3.379-4.422-3.846-6.475-.61-2.684.164-5.146 2.3-7.318l1.35-1.373a2.58 2.58 0 0 1 3.085-.471c2.02 1.086 4.21 4.86 4.303 5.02.384.686.51 1.42.347 2.02a1.793 1.793 0 0 1-.823 1.08c-.65.553-1.408 1.237-1.527 1.404-.853 1.28-.753 2.3.336 3.406l6.113 6.216c1.088 1.106 2.09 1.209 3.35.34.163-.119.837-.89 1.38-1.551.246-.421.613-.71 1.062-.837.596-.166 1.3-.044 1.98.35.163.098 3.874 2.325 4.943 4.38a2.688 2.688 0 0 1-.464 3.136zm-16.271-1.845c.009-.078.014-.15.02-.223.012-.157.024-.315.024-.475 0-3.283-2.627-5.953-5.855-5.953-.156 0-.308.011-.461.023-.074.007-.146.011-.225.021l-.01.001c-2.9.353-5.158 2.865-5.158 5.908 0 3.282 2.626 5.954 5.854 5.954 2.996 0 5.47-2.302 5.811-5.256zm15.794-.785c-.928-1.782-4.499-3.927-4.535-3.948-.414-.24-.85-.332-1.164-.244a.72.72 0 0 0-.444.37l-.055.082c-.379.462-1.296 1.56-1.63 1.79-.42.29-.834.497-1.242.621a9.25 9.25 0 0 0 2.953.843.54.54 0 0 1 .475.595.536.536 0 0 1-.585.482c-3.67-.387-6.072-2.758-6.173-2.859-.025-.025-.037-.057-.056-.085l-.071-.068-5.647-5.743c-.015-.01-.03-.014-.044-.025-.123-.103-3-2.553-3.385-6.315a.54.54 0 0 1 .475-.596.54.54 0 0 1 .585.483c.1.986.406 1.875.784 2.643.114-.473.33-.955.656-1.444.226-.34 1.306-1.272 1.76-1.657l.08-.056a.724.724 0 0 0 .364-.452c.087-.318-.004-.763-.243-1.19-.018-.03-2.127-3.662-3.88-4.605a1.536 1.536 0 0 0-1.833.28l-1.35 1.374c-1.886 1.917-2.545 3.98-2.016 6.307.46 2.02 1.827 4.203 4.065 6.493a6.11 6.11 0 0 1 .55-.025h.001c3.815 0 6.919 3.156 6.919 7.036 0 .178-.008.363-.025.56l.44.447c2.273 2.312 4.44 3.722 6.442 4.193 2.289.537 4.318-.131 6.203-2.049l1.35-1.373a1.597 1.597 0 0 0 .276-1.865z"/></defs><g><g transform="translate(-1275 -12463)"><use fill="#7f8890" xlink:href="#vpjja"/></g></g></svg>