<svg xmlns="http://www.w3.org/2000/svg" xmlns:xlink="http://www.w3.org/1999/xlink" width="26" height="30" viewBox="0 0 26 30"><defs><path id="bclqa" d="M401.06 12625.824v6.454c0 6.647-3.113 11.045-5.725 13.566-2.811 2.714-6.086 4.214-7.275 4.214-1.19 0-4.464-1.5-7.276-4.214-2.611-2.52-5.724-6.92-5.724-13.566v-6.454c0-.285.193-.535.471-.61a49.741 49.741 0 0 0 12.203-5.097.648.648 0 0 1 .652 0 51.165 51.165 0 0 0 12.202 5.098.633.633 0 0 1 .471.609zm-1.283.479a52.515 52.515 0 0 1-11.717-4.91 50.902 50.902 0 0 1-11.718 4.91v5.975c0 6.208 2.904 10.313 5.34 12.664 2.764 2.668 5.72 3.853 6.378 3.853.657 0 3.613-1.185 6.377-3.853 2.436-2.351 5.34-6.456 5.34-12.664zm-17.763.749c-1.028.398-2.08.77-3.133 1.105v1.977c0 .35-.287.632-.64.632a.637.637 0 0 1-.642-.632v-2.439c0-.276.182-.52.45-.602a52.847 52.847 0 0 0 3.494-1.217c.33-.128.702.031.832.356a.63.63 0 0 1-.361.82zm.99-1.078a.626.626 0 0 1 .33-.831l.01-.005a.646.646 0 0 1 .847.325.626.626 0 0 1-.329.83l-.011.006a.642.642 0 0 1-.846-.325zm12.882 15.298a16.683 16.683 0 0 1-1.994 2.454 17.541 17.541 0 0 1-1.984 1.738.645.645 0 0 1-.899-.119.626.626 0 0 1 .121-.885c.65-.487 1.269-1.03 1.84-1.612a15.459 15.459 0 0 0 1.843-2.267.647.647 0 0 1 .888-.184c.296.191.38.582.185.875zm-5.368 4.404a.627.627 0 0 1-.229.865l-.042.024a.642.642 0 0 1-.876-.23.626.626 0 0 1 .233-.863l.037-.021a.647.647 0 0 1 .877.225zm-4.518-9.645l6.431-6.333a2.087 2.087 0 0 1 1.475-.602c.557 0 1.08.214 1.474.602.813.8.813 2.104 0 2.904l-7.905 7.787a2.087 2.087 0 0 1-1.475.602c-.557 0-1.08-.214-1.474-.602l-3.787-3.73a2.035 2.035 0 0 1 0-2.905 2.09 2.09 0 0 1 1.475-.6c.557 0 1.08.212 1.474.6zm.454 1.341a.647.647 0 0 1-.907 0l-2.766-2.724a.805.805 0 0 0-.567-.232.805.805 0 0 0-.568.232.783.783 0 0 0 0 1.118l3.787 3.73c.151.149.353.231.567.231a.805.805 0 0 0 .568-.231l7.905-7.787a.783.783 0 0 0 0-1.118.804.804 0 0 0-.567-.231.804.804 0 0 0-.568.23z"/></defs><g><g transform="translate(-375 -12620)"><use fill="#7f8890" xlink:href="#bclqa"/></g></g></svg>