<svg xmlns="http://www.w3.org/2000/svg" xmlns:xlink="http://www.w3.org/1999/xlink" width="28" height="24"><defs><path id="a" d="M1414.93 3552.94h-23.94a2 2 0 0 1-1.99-2v-10.97c0-1.1.9-2 2-2l1.05-.05c0-1.63.5-2.62 1.49-3.73a4.75 4.75 0 0 1 3.69-1.67c.7 0 1.47.12 2.32.36 0 0 1.84.6 3.12.6 1.95 0 3.28-.85 3.99-2.56.33-.82.67-1.23 1.01-1.23.5 0 .74.23.74.69 0 .8-.44 1.7-1.32 2.7a5.58 5.58 0 0 1-4.35 2 18.5 18.5 0 0 1-3.64-.63 9.84 9.84 0 0 0-1.99-.34c-.95 0-1.77.41-2.45 1.22a3.62 3.62 0 0 0-1.02 2.6l21.29.05a2 2 0 0 1 2 2v10.96a2 2 0 0 1-2 2zm1-12.97a1 1 0 0 0-1-1h-23.94a1 1 0 0 0-1 1v10.97a1 1 0 0 0 1 1h23.94a1 1 0 0 0 1-1zm-4 5.02h-1.96v1.93h-2V3545h-1.99v1.93h-2.06V3545H1402v1.93h-2V3545h-2v1.93h-2V3545h-2.02v1.93h-2v-1.96h2.03v-2H1392V3541h2v1.93h2.02V3541h2v1.93h1.99V3541h2v1.93h1.92V3541h2.06v1.93h2V3541h1.99v1.93h1.96V3541h2v1.96h-1.97v2h1.97v1.96h-2zm-13.93-2.03h-2.02v2h2.02zm3.96 0h-2v2h2zm3.99 0h-2v2h2zm3.99 0h-2v2h2zm.1 6.98h-14.1v-1.96h14.1z"/></defs><use fill="#263139" xlink:href="#a" transform="translate(-1389 -3529)"/></svg>