<svg xmlns="http://www.w3.org/2000/svg" xmlns:xlink="http://www.w3.org/1999/xlink" width="31" height="36"><defs><path id="a" d="M1115 3538h-1.33a9.46 9.46 0 0 1-.92 2.2l1.23 1.23a2 2 0 0 1 0 2.84l-.71.7a2 2 0 0 1-2.84 0l-1.23-1.23a9.5 9.5 0 0 1-2.2.9v1.3a2 2 0 0 1-2 2h-1a2 2 0 0 1-2-2v-1.3a9.5 9.5 0 0 1-2.2-.9l-1.23 1.24a2 2 0 0 1-2.84 0l-.7-.71a2 2 0 0 1 0-2.84l1.22-1.22c-.4-.69-.7-1.43-.92-2.2H1094a2 2 0 0 1-2-2.01v-1a2 2 0 0 1 2-2h1.31c.21-.78.5-1.51.89-2.2l-1.18-1.17a2 2 0 0 1 0-2.84l.71-.7a2 2 0 0 1 2.84 0l1.15 1.15a9.5 9.5 0 0 1 2.27-.95v-1.35c0-1.1.9-2 2-2h1.01a2 2 0 0 1 2 2v1.35c.81.22 1.57.54 2.28.95l1.15-1.15a2 2 0 0 1 2.84 0l.7.7a2 2 0 0 1 0 2.84l-1.17 1.18c.38.68.68 1.41.89 2.18h1.3a2 2 0 0 1 2.01 2v1.01a2 2 0 0 1-2 2zm-10.5-7.98a5.51 5.51 0 1 0 0 11.02 5.51 5.51 0 0 0 0-11.02zm0 7.95a2.5 2.5 0 1 1 0-5 2.5 2.5 0 0 1 0 5zm17.65 16.28h-.64c-.1.37-.25.73-.45 1.06l.6.6c.38.38.38 1 0 1.37l-.35.35a.97.97 0 0 1-1.37 0l-.6-.6c-.33.19-.69.33-1.06.44v.62c0 .54-.44.97-.97.97h-.5a.97.97 0 0 1-.96-.97v-.62c-.38-.1-.74-.25-1.07-.44l-.6.6a.97.97 0 0 1-1.37 0l-.34-.35a.97.97 0 0 1 0-1.37l.59-.6c-.2-.33-.34-.69-.45-1.06h-.64a.97.97 0 0 1-.97-.98v-.48c0-.54.44-.98.97-.98h.64c.1-.37.24-.73.43-1.06l-.57-.57a.97.97 0 0 1 0-1.37l.34-.35a.97.97 0 0 1 1.38 0l.55.56c.35-.2.72-.35 1.1-.46v-.65c0-.54.44-.97.98-.97h.49c.53 0 .97.43.97.97v.65c.39.1.76.26 1.1.46l.56-.56a.97.97 0 0 1 1.37 0l.35.35c.38.38.38 1 0 1.37l-.57.57c.18.33.33.69.43 1.06h.63c.54 0 .97.44.97.98v.48c0 .54-.43.98-.97.98zm-5.09-3.88a2.67 2.67 0 1 0 0 5.35 2.67 2.67 0 0 0 0-5.35zm0 3.86a1.22 1.22 0 1 1 0-2.43 1.22 1.22 0 0 1 0 2.43z"/></defs><use fill="#263139" xlink:href="#a" transform="translate(-1092 -3523)"/></svg>