<svg xmlns="http://www.w3.org/2000/svg" xmlns:xlink="http://www.w3.org/1999/xlink" width="18" height="32"><defs><path id="a" d="M960.43 764.76v3.75a.55.55 0 1 1-1.11 0v-3.75c0-.3.25-.56.55-.56.3 0 .56.25.56.56zm8.14 4.59v11.54c0 4.91-3.9 8.91-8.7 8.91-4.8 0-8.7-4-8.7-8.91v-11.54a8.8 8.8 0 0 1 8.15-8.86v-1.39a.555.555 0 0 1 1.11 0v1.38a8.82 8.82 0 0 1 8.14 8.87zm-1.1 0c0-4.31-3.41-7.81-7.6-7.81a7.71 7.71 0 0 0-7.59 7.8v11.55c0 4.3 3.4 7.8 7.6 7.8a7.7 7.7 0 0 0 7.59-7.8z"/></defs><use fill="#fff" xlink:href="#a" transform="translate(-951 -758)"/></svg>