<svg xmlns="http://www.w3.org/2000/svg" xmlns:xlink="http://www.w3.org/1999/xlink" width="19" height="22"><defs><path id="a" d="M799 5112h-3a1 1 0 0 1-1-1v-2a1 1 0 0 1 1-1h2v-6h-7v6h1a1 1 0 0 1 1 1v2a1 1 0 0 1-1 1h-3a1 1 0 0 1-1-1v-2a1 1 0 0 1 1-1h1v-6h-7v6h2a1 1 0 0 1 1 1v2a1 1 0 0 1-1 1h-3a1 1 0 0 1-1-1v-2a1 1 0 0 1 1-1v-7h8v-7h-1a1 1 0 0 1-1-1v-2a1 1 0 0 1 1-1h3a1 1 0 0 1 1 1v2a1 1 0 0 1-1 1h-1v7h8v7a1 1 0 0 1 1 1v2a1 1 0 0 1-1 1z"/></defs><use fill="#fff" xlink:href="#a" transform="translate(-781 -5090)"/></svg>