<svg xmlns="http://www.w3.org/2000/svg" xmlns:xlink="http://www.w3.org/1999/xlink" width="29" height="29"><defs><path id="a" d="M1137.65 5094.99h5.18c.69 1.54 1.1 3.23 1.17 5h-5.93a34.66 34.66 0 0 0-.42-5zm-2.26-7.1a13.57 13.57 0 0 1 6.93 6.1h-4.83c-.55-2.81-1.39-4.8-2.1-6.1zm-4.33 6.1v-7c1.07.04 2.1.21 3.1.5a20.3 20.3 0 0 1 2.33 6.5zm-6.58 12.02a34.4 34.4 0 0 1-.42-5.01h6v5.01zm0-11.02h5.58v5h-6c.02-1.88.18-3.54.41-5zm2.5-7.53c1-.27 2.02-.44 3.08-.47v7h-5.42c.61-3.15 1.59-5.27 2.34-6.53zm-8.32 6.52c1.55-2.8 4.06-4.99 7.1-6.13a20.99 20.99 0 0 0-2.12 6.13zm4.4 6.02H1117c.06-1.78.46-3.48 1.15-5.01h5.32a34.68 34.68 0 0 0-.41 5zm.42 6.01h-5.29a13.38 13.38 0 0 1-1.2-5.01h6.07c.02 1.9.19 3.54.42 5.01zm.17 1a20.51 20.51 0 0 0 2.13 6.15 13.55 13.55 0 0 1-7.11-6.15zm6.41 0v7c-1.05-.04-2.07-.2-3.04-.46a19.98 19.98 0 0 1-2.36-6.54zm6.4 0a20 20 0 0 1-2.34 6.51c-.98.28-2 .42-3.06.47V5107zm-5.4-6.01h6c-.02 1.9-.18 3.54-.42 5.01h-5.58zm6-1h-6v-5.01h5.6c.23 1.46.38 3.12.4 5zm1 1h5.93c-.06 1.79-.5 3.47-1.2 5.01h-5.15c.24-1.47.4-3.12.43-5.01zm4.25 6.01a13.51 13.51 0 0 1-6.94 6.1 20.54 20.54 0 0 0 2.11-6.1zm-26.31-6.51a14.5 14.5 0 1 0 29 0 14.5 14.5 0 0 0-29 0z"/></defs><use fill="#fff" xlink:href="#a" transform="translate(-1116 -5086)"/></svg>