<svg xmlns="http://www.w3.org/2000/svg" xmlns:xlink="http://www.w3.org/1999/xlink" width="24" height="24"><defs><path id="a" d="M485.66 2082.2l.67 3.48-1.02.2-.4-2.13-.47.7a12.06 12.06 0 0 1-9.45 4.55c-6.63 0-11.99-5.36-11.99-12v-.46l1.02.05v.4a10.96 10.96 0 0 0 19.55 6.85l.54-.8-2.32.45-.2-1.02 3.47-.67c.3-.05.56.16.6.4zm1.34-5.2v.46l-1.02-.05v-.4a10.96 10.96 0 0 0-19.55-6.85l-.5.75 2.34-.44.2 1.02-3.47.66c-.35.05-.62-.15-.67-.4l-.6-3.48 1.02-.21.4 2.11.41-.63A12.06 12.06 0 0 1 475 2065c6.64 0 12 5.36 12 12zm-17.81-4.95h1.02v9.86h-1.02zm3.52 3.31h1.02v6.6h-1.02zm3.57-1.63h1.02v8.23h-1.02zm3.52 1.63h1.02v6.6h-1.02z"/></defs><use fill="#263139" xlink:href="#a" transform="translate(-463 -2065)"/></svg>