<svg xmlns="http://www.w3.org/2000/svg" xmlns:xlink="http://www.w3.org/1999/xlink" width="24" height="19"><defs><path id="a" d="M756.99 2246.84v15.29c0 1.06-.76 1.87-1.8 1.87h-20.37c-1.04 0-1.83-.8-1.83-1.87v-15.3c0-1.06.79-1.83 1.83-1.83h20.37c1.04 0 1.8.77 1.8 1.84zm-5.5 16.13l-1.1-1.96c-.25-.5-.95-1.03-1.5-1.03h-7.74c-.55 0-1.25.53-1.5 1.03l-1.1 1.96zm4.52-.84v-15.3a.83.83 0 0 0-.82-.83h-20.37a.83.83 0 0 0-.82.84v15.29c0 .46.37.84.82.84h2.53l1.35-2.46a2.97 2.97 0 0 1 2.45-1.53h7.74c.95 0 2.02.67 2.45 1.53l1.35 2.46h2.5c.45 0 .82-.38.82-.84zm-13.3-7.63c0 1.7-1.35 3.09-3.02 3.09a3.06 3.06 0 0 1-3.03-3.1c0-1.7 1.36-3.08 3.03-3.08a3.06 3.06 0 0 1 3.03 3.09zm-1.06 0c0-1.1-.88-2-1.96-2s-1.96.9-1.96 2 .88 2 1.96 2 1.96-.9 1.96-2zm11.73 0c0 1.7-1.36 3.09-3.03 3.09a3.06 3.06 0 0 1-3.03-3.1c0-1.7 1.36-3.08 3.03-3.08a3.06 3.06 0 0 1 3.03 3.09zm-1.07 0c0-1.1-.88-2-1.96-2s-1.96.9-1.96 2 .88 2 1.96 2 1.96-.9 1.96-2zm-13.16-6.04c0-.3.24-.48.54-.48h10.66c.3 0 .54.18.54.48s-.24.55-.54.55h-10.66a.54.54 0 0 1-.54-.55z"/></defs><use fill="#263139" xlink:href="#a" transform="translate(-733 -2245)"/></svg>