<svg xmlns="http://www.w3.org/2000/svg" xmlns:xlink="http://www.w3.org/1999/xlink" width="24" height="24"><defs><path id="a" d="M466.36 2441a3.9 3.9 0 0 1 3.92-3.94 3.9 3.9 0 0 1 3.91 3.94 3.93 3.93 0 0 1-7.83 0zm1.01.05a2.9 2.9 0 1 0 5.81 0c0-1.64-1.27-2.91-2.9-2.91a2.91 2.91 0 0 0-2.9 2.91zm10.29 8.42v6.02a.6.6 0 0 1-.56.5h-13.6c-.3 0-.5-.2-.5-.5v-6.02a3.01 3.01 0 0 1 3-3.01h2.29c.15 0 .25.05.36.15l1.67 1.68 1.68-1.68c.1-.1.21-.15.36-.15h2.3c1.62 0 3 1.32 3 3zm-1.07 5.51v-5.5c0-1.08-.86-2-1.98-2h-2.04l-1.88 1.89c-.2.2-.51.2-.72 0l-1.88-1.9h-2.04a2 2 0 0 0-1.98 2v5.51zm9.87-17.25h-2.54v6.33c-.05.25-.3.5-.56.5h-3.2c-.31 0-.52-.2-.52-.5v-6.33h-2.54c-.5 0-.74-.5-.36-.87l4.68-4.7c.2-.2.5-.2.72 0l4.68 4.7c.34.37.15.87-.36.87zm-1.27-1.02l-3.46-3.47-3.46 3.47h1.83c.3 0 .51.2.51.5v6.34h2.24v-6.33c0-.3.2-.51.5-.51z"/></defs><use fill="#263139" xlink:href="#a" transform="translate(-463 -2432)"/></svg>