<svg xmlns="http://www.w3.org/2000/svg" xmlns:xlink="http://www.w3.org/1999/xlink" width="20" height="17"><defs><path id="a" d="M751.82 2074.54a.58.58 0 0 1-.41-.18.62.62 0 0 1 0-.85l1.59-1.64h-4.9l-1.58 2.4a.58.58 0 0 1-.82.17.62.62 0 0 1-.16-.84l1.75-2.67c.11-.17.3-.27.5-.27h5.2l-1.58-1.64a.62.62 0 0 1 0-.85c.23-.24.6-.24.83 0l2.6 2.67c.23.23.23.62 0 .85l-2.6 2.67a.58.58 0 0 1-.42.18zm-10.9 7.46h-5.33a.6.6 0 0 1-.59-.6c0-.34.26-.4.59-.4h5.02l1.73-2.53a.58.58 0 0 1 .82-.16c.27.18.34.56.16.84l-1.9 2.58c-.11.17-.3.27-.5.27zm10.9 3a.58.58 0 0 1-.41-.18.62.62 0 0 1 0-.85l1.59-1.64h-5.22c-.2 0-.38-.1-.49-.27l-6.68-10.08h-5.02a.6.6 0 0 1-.59-.6c0-.34.26-.42.59-.42h5.34c.2 0 .38.1.48.27l6.68 9.89h4.9l-1.58-1.64a.62.62 0 0 1 0-.86c.23-.23.6-.23.83 0l2.6 2.67c.23.24.23.62 0 .86l-2.6 2.67a.58.58 0 0 1-.42.18z"/></defs><use fill="#263139" xlink:href="#a" transform="translate(-735 -2068)"/></svg>