<svg xmlns="http://www.w3.org/2000/svg" xmlns:xlink="http://www.w3.org/1999/xlink" width="24" height="24"><defs><path id="a" d="M758 2433.51V2445c0 .3-.2.51-.51.51h-3.99v.2a2.96 2.96 0 0 1 1.28 2.46 3 3 0 0 1-3.01 3.11 3.07 3.07 0 0 1-3.07-3.06c0-.97.46-1.9 1.28-2.45v-.25h-3.47v3.98c0 .3-.2.51-.51.51h-.97c-.2 0-.36-.1-.46-.25a1.94 1.94 0 0 0-1.74-1.03 2.05 2.05 0 0 0 0 4.08c.72 0 1.38-.35 1.74-1.02.1-.15.25-.25.46-.25h.97c.3 0 .5.2.5.5v4.5c0 .25-.2.46-.5.46h-11.5c-.3 0-.51-.2-.51-.51v-22.98c0-.3.2-.51.51-.51h22.97c.3 0 .51.2.52.51zm-22.98.51v10.47h3.47v-.21a2.95 2.95 0 0 1-1.28-2.45 3.07 3.07 0 0 1 6.13 0c0 .97-.46 1.89-1.27 2.45v.2h3.42v-3.98c0-.3.2-.51.5-.51h.98c.2 0 .35.1.45.26a1.94 1.94 0 0 0 1.74 1.02c1.12 0 2.04-.92 2.04-2.04s-.92-2.04-2.04-2.04c-.71 0-1.38.36-1.74 1.02a.53.53 0 0 1-.45.25H746c-.3 0-.51-.2-.51-.5v-3.94zm10.47 11.49h-3.99c-.3 0-.51-.2-.51-.51v-.97c0-.2.1-.35.26-.46a1.94 1.94 0 0 0 1.02-1.73c0-1.13-.92-2.05-2.04-2.05s-2.04.92-2.04 2.05c0 .7.36 1.37 1.02 1.73.15.1.25.25.25.46v.97c0 .3-.2.51-.5.51h-3.94v10.48h10.47v-3.48h-.21a2.96 2.96 0 0 1-2.45 1.28 3.07 3.07 0 0 1-3.07-3.07 3.07 3.07 0 0 1 3.07-3.06c.97 0 1.89.45 2.45 1.27h.2zm11.54-11.49H746.5v3.47h.2a2.96 2.96 0 0 1 2.46-1.28 3.08 3.08 0 0 1 3.06 3.07 3.08 3.08 0 0 1-3.06 3.06c-.97 0-1.9-.46-2.45-1.27h-.21v3.42h3.98c.3 0 .52.2.52.5v.98c0 .2-.1.35-.26.46a1.94 1.94 0 0 0-1.02 1.73c0 1.12.92 2.04 2.04 2.04s2.04-.92 2.04-2.04c0-.71-.36-1.38-1.02-1.73a.53.53 0 0 1-.26-.46v-.97c0-.3.2-.51.51-.51h3.99z"/></defs><use fill="#263139" xlink:href="#a" transform="translate(-734 -2433)"/></svg>