<svg xmlns="http://www.w3.org/2000/svg" xmlns:xlink="http://www.w3.org/1999/xlink" width="22" height="24"><defs><path id="a" d="M467.67 2261.73c0 .39.18.76.52 1.1v-1.86a5.06 5.06 0 0 1-.52-.4zm17.28 0v-1.15c-.16.13-.33.27-.52.4v1.85c.34-.34.52-.71.52-1.1zm-2.1.03v2.06c.4-.17.76-.36 1.05-.56v-1.98c-.32.18-.67.33-1.04.48zm-1.56.48v2.1c.37-.09.72-.2 1.04-.31v-2.09c-.33.11-.68.21-1.04.3zm-1.58.3v2.13c.37-.05.72-.12 1.05-.2v-2.11l-1.05.19zm-1.57.19v2.13l1.05-.11v-2.13c-.34.04-.7.08-1.05.1zm-1.57.07v2.13c.36 0 .7-.02 1.05-.03v-2.14l-1.05.04zm-1.57-.04v2.14l1.05.03v-2.13c-.35 0-.7-.02-1.05-.04zm-1.57-.14v2.13l1.05.11v-2.13l-1.05-.1zm-1.57-.26v2.12l1.04.2v-2.13c-.35-.06-.7-.12-1.04-.2zm-1.57-.42v2.09c.32.11.67.22 1.04.32v-2.11c-.36-.09-.71-.19-1.04-.3zm-1.58-.66v1.98c.3.2.65.39 1.05.56v-2.06c-.37-.15-.72-.3-1.05-.48zm17.29.45c0 2.8-4.88 4.27-9.69 4.27-4.82 0-9.7-1.47-9.7-4.27v-2.86c-1.58-.7-2.61-1.71-2.61-3v-3.2c0-1.3 1.04-2.3 2.63-3.02l-.01-.18v-3.2c0-2.8 4.87-4.27 9.69-4.27 4.81 0 9.69 1.46 9.69 4.27v3.2c0 1.29-1.04 2.3-2.63 3l.01.2v2.85c1.59.72 2.62 1.72 2.62 3.01zm-20.95-5.86c0 .38.18.75.52 1.1v-1.87a5.06 5.06 0 0 1-.52-.4zm17.28 0v-1.16c-.16.14-.33.27-.52.4v1.86c.34-.35.52-.72.52-1.1zm-2.1.02v2.06c.4-.17.76-.36 1.06-.56v-1.97c-.33.17-.68.33-1.05.47zm-2.26.64v2.12c.64-.14 1.22-.3 1.74-.49v-2.09c-.54.18-1.13.33-1.74.46zm-1.98.29v2.13c.35-.03.69-.08 1.02-.13v-2.13c-.33.05-.67.1-1.02.13zm-2 .11v2.13c.34 0 .68-.01 1.01-.03v-2.13l-1.02.03zm-1.6-.03v2.13l.6.03v-2.14l-.6-.02zm-1.58-.15v2.13c.34.05.69.08 1.05.11v-2.13l-1.05-.1zm-1.57-.26v2.12c.33.07.68.14 1.05.2v-2.13c-.36-.05-.71-.12-1.05-.19zm-1.57-.42v2.09c.32.12.67.22 1.04.32v-2.1a14.2 14.2 0 0 1-1.04-.3zm-1.57-.65v1.97c.3.2.64.4 1.04.56v-2.06c-.37-.14-.72-.3-1.04-.47zm1.57-5.95c0 .38.18.75.52 1.1v-1.87a5.06 5.06 0 0 1-.52-.39zm17.28 0v-1.16c-.16.14-.33.27-.52.4v1.86c.34-.35.52-.72.52-1.1zm-2.1.02v2.06c.4-.17.76-.36 1.05-.56v-1.97c-.32.17-.67.33-1.04.47zm-1.56.48v2.11c.37-.1.72-.2 1.04-.32v-2.09c-.33.11-.68.21-1.04.3zm-1.58.31v2.13c.37-.06.72-.13 1.05-.2v-2.12l-1.05.2zm-1.57.18v2.13l1.05-.1v-2.14c-.34.05-.7.08-1.05.11zm-1.57.07v2.13c.36 0 .7-.01 1.05-.03v-2.13l-1.05.03zm-1.57-.03v2.13c.34.02.7.03 1.05.03v-2.13l-1.05-.03zm-1.57-.15v2.13c.34.05.69.08 1.05.11v-2.13l-1.05-.1zm-1.57-.26v2.12l1.04.2v-2.13c-.35-.05-.7-.12-1.04-.19zm-1.57-.42v2.09c.32.12.67.22 1.04.32v-2.1l-1.04-.3zm-1.58-.65v1.97c.3.2.65.4 1.05.56v-2.06c-.37-.14-.72-.3-1.05-.47z"/></defs><use fill="#263139" xlink:href="#a" transform="translate(-464 -2242)"/></svg>