<svg xmlns="http://www.w3.org/2000/svg" width="16" height="16" viewBox="0 0 16 16"><g><g><path fill="#cfd8dc" d="M8.008 15.998a8 8 0 0 1-8-8 8 8 0 0 1 8-8 8 8 0 0 1 8 8 8 8 0 0 1-8 8zm3.668-10.333a.385.385 0 0 0 0-.544l-.817-.818a.387.387 0 0 0-.544 0L8 6.618 5.686 4.303a.387.387 0 0 0-.544 0l-.817.818a.385.385 0 0 0 0 .544l2.314 2.314-2.314 2.314a.385.385 0 0 0 0 .545l.817.816c.15.151.394.151.544 0L8 9.34l2.315 2.313c.15.151.394.151.544 0l.817-.816a.385.385 0 0 0 0-.545L9.362 7.98z"/></g></g></svg>