<svg xmlns="http://www.w3.org/2000/svg" xmlns:xlink="http://www.w3.org/1999/xlink" width="56" height="56" viewBox="0 0 56 56"><defs><path id="v8osa" d="M426.276 1168.401l-2.247 3.68a5.483 5.483 0 0 1-3.252 2.463 13.543 13.543 0 0 1-3.52.45c-5.137.001-12.595-2.642-22.581-12.45-12.568-12.35-13.581-20.762-12.218-25.644a5.41 5.41 0 0 1 2.507-3.196l3.74-2.21c1.29-.763 2.964-.393 3.797.84l5.973 8.801a2.744 2.744 0 0 1-.615 3.719l-3.354 2.562a.883.883 0 0 0-.245 1.142l.274.488c.89 1.605 2 3.604 6.105 7.636 4.104 4.032 6.137 5.122 7.77 5.996l.5.27a.918.918 0 0 0 1.16-.24l2.61-3.296a2.861 2.861 0 0 1 3.784-.604l8.96 5.869a2.733 2.733 0 0 1 .852 3.724zm-1.905-2.173l-8.96-5.868a.932.932 0 0 0-1.233.197l-2.608 3.294a2.827 2.827 0 0 1-3.584.725l-.485-.262c-1.74-.932-3.905-2.09-8.203-6.314-4.3-4.224-5.48-6.352-6.43-8.061l-.265-.476a2.713 2.713 0 0 1 .738-3.52l3.354-2.562a.895.895 0 0 0 .2-1.211l-5.972-8.802a.928.928 0 0 0-1.234-.273l-3.748 2.208a3.555 3.555 0 0 0-1.652 2.09c-1.23 4.406-.195 12.121 11.729 23.83 11.924 11.708 19.775 12.734 24.257 11.521a3.596 3.596 0 0 0 2.127-1.623l2.247-3.679a.891.891 0 0 0-.278-1.214zm-12.946-34.194a.94.94 0 0 1-.949.933h-2.847a.94.94 0 0 1-.95-.933c0-.515.425-.932.95-.932h2.847a.94.94 0 0 1 .95.932zm0 3.73a.94.94 0 0 1-.949.932h-2.847a.94.94 0 0 1-.95-.932.94.94 0 0 1 .95-.932h2.847a.94.94 0 0 1 .95.932zM438 1133.9c0 3.243-2.426 5.992-5.692 6.453v6.554c.003.69-.372 1.33-.981 1.673-.583.33-1.302.32-1.876-.023l-11.655-7.197h-1.375v10.207c0 1.03-.85 1.865-1.898 1.865h-3.345a1.885 1.885 0 0 1-1.815-1.316l-2.13-6.751a.92.92 0 0 1 .2-.926.96.96 0 0 1 .92-.278c.335.078.6.33.694.655l2.13 7.001h3.596v-10.457h-8.993c-2.097 0-3.797-1.67-3.797-3.73v-7.76c0-2.06 1.7-3.73 3.797-3.73h12.016l11.637-6.886a1.88 1.88 0 0 1 1.894-.034c.61.344.983.984.98 1.674v6.553c3.267.461 5.693 3.211 5.693 6.453zm-7.557 13.068l-.01-7.354a.839.839 0 0 1-.024-.12.864.864 0 0 1 .025-.115l-.015-11.023c-.001-.017-.01-.031-.01-.048s.01-.03.01-.047l-.01-7.367-11.83 6.769c-.021.013-.046.014-.069.025a.889.889 0 0 1-.177.066.89.89 0 0 1-.19.036.654.654 0 0 1-.073.015h-12.54c-1.048 0-1.898.835-1.898 1.865v8.26c0 1.03.85 1.865 1.898 1.865h11.59v-8.692a.94.94 0 0 1 .95-.933c.524 0 .949.418.949.933v8.809zm5.666-13.068c0-2.217-1.59-4.128-3.801-4.569v9.139c2.211-.442 3.801-2.352 3.801-4.57z"/></defs><g><g transform="translate(-382 -1119)"><use fill="#b0abb3" xlink:href="#v8osa"/></g></g></svg>