<svg xmlns="http://www.w3.org/2000/svg" xmlns:xlink="http://www.w3.org/1999/xlink" width="70" height="70" viewBox="0 0 70 70"><defs><path id="12cta" d="M1010 2932c19.33 0 35 15.67 35 35s-15.67 35-35 35-35-15.67-35-35 15.67-35 35-35z"/><path id="12ctc" d="M1014.235 2960.337h-8.434v-1.017c0-2.358 1.405-4.27 4.168-4.27 2.761 0 4.266 1.912 4.266 4.27zm-8.434 5.81v-5.065h8.434v5.067c0 2.356-1.506 4.265-4.266 4.265-2.763 0-4.168-1.91-4.168-4.267zm11.669-5.975v5.977c0 3.95-2.916 7.204-6.668 7.628v2.653h3.066l.83 2.52h-9.731l.846-2.511 3.323-.009v-2.653c-3.751-.422-6.669-3.676-6.669-7.628v-5.977s.738-.95 1.667 0v5.977c0 3.293 2.16 5.974 5.835 5.974 3.678 0 5.836-2.681 5.836-5.974v-5.977s.644-1.046 1.665 0z"/><clipPath id="12ctb"><use fill="#fff" xlink:href="#12cta"/></clipPath></defs><g><g transform="translate(-975 -2932)"><use fill="#fff" xlink:href="#12cta"/><use fill="#fff" fill-opacity="0" stroke="#50575d" stroke-linecap="round" stroke-linejoin="round" stroke-miterlimit="50" stroke-width="2" clip-path="url(&quot;#12ctb&quot;)" xlink:href="#12cta"/></g><g transform="translate(-975 -2932)"/><g transform="translate(-975 -2932)"><use fill="#fff" xlink:href="#12ctc"/></g></g></svg>