<svg xmlns="http://www.w3.org/2000/svg" xmlns:xlink="http://www.w3.org/1999/xlink" width="56" height="56" viewBox="0 0 56 56"><defs><path id="8m2ya" d="M1020.267 1119c7.967 0 14.449 6.516 14.449 14.527v3.96c0 1.266-.49 2.455-1.38 3.35-.863.867-2 1.355-3.216 1.384a10.386 10.386 0 0 1-1.768 3.344 14.2 14.2 0 0 1 3.94 4.244.858.858 0 0 1-.726 1.298.85.85 0 0 1-.73-.412 12.486 12.486 0 0 0-3.663-3.87 10.253 10.253 0 0 1-6.906 2.672 10.254 10.254 0 0 1-6.907-2.672 12.434 12.434 0 0 0-3.662 3.868.85.85 0 0 1-1.168.291.858.858 0 0 1-.29-1.174 14.045 14.045 0 0 1 3.942-4.245 10.383 10.383 0 0 1-1.768-3.344 4.67 4.67 0 0 1-2.894-1.092v.93c0 .998.808 1.81 1.8 1.81.471 0 .852.383.852.855 0 .473-.381.856-.851.856-1.931 0-3.503-1.58-3.503-3.522v-8.531c0-8.01 6.482-14.527 14.45-14.527zm11.866 20.627c.568-.571.881-1.331.881-2.139a3.025 3.025 0 0 0-2.45-2.972c.019.253.028.507.028.764v3.836c0 .46-.03.911-.088 1.355a2.978 2.978 0 0 0 1.629-.844zm-11.866 8.159c4.755 0 8.624-3.89 8.624-8.67v-3.664a7.92 7.92 0 0 1-.53.02c-2.727 0-5.249-1.416-6.712-3.651-1.463 2.235-3.985 3.65-6.711 3.65a7.96 7.96 0 0 1-3.278-.703c-.01.17-.016.34-.016.512v3.836c0 4.78 3.868 8.67 8.623 8.67zm8.486-14.039c-.723-4.052-4.251-7.137-8.486-7.137-3.972 0-7.323 2.714-8.32 6.394a6.262 6.262 0 0 0 2.99.757c2.616 0 4.993-1.653 5.916-4.114a.85.85 0 0 1 1.592 0c.923 2.46 3.3 4.114 5.915 4.114.132 0 .262-.006.393-.014zm-18.723 6.723a10.495 10.495 0 0 1-.088-1.354v-3.836c0-.257.01-.512.028-.765a2.98 2.98 0 0 0-1.569.834 3.014 3.014 0 0 0-.88 2.14 3.025 3.025 0 0 0 2.509 2.981zm-2.51-6.626a4.652 4.652 0 0 1 2.73-1.083c1.123-4.51 5.188-7.862 10.017-7.862 4.83 0 8.894 3.351 10.017 7.862a4.674 4.674 0 0 1 2.73 1.086v-.32c0-7.067-5.718-12.816-12.747-12.816s-12.747 5.749-12.747 12.816zm7.082 4.186a2.581 2.581 0 0 1 1.843-.768c.696 0 1.35.273 1.842.768a.858.858 0 0 1 0 1.21.847.847 0 0 1-1.203 0 .895.895 0 0 0-.64-.266.896.896 0 0 0-.639.265.845.845 0 0 1-1.203 0 .858.858 0 0 1 0-1.21zm7.645 0a2.582 2.582 0 0 1 1.842-.768c.696 0 1.35.273 1.843.768a.858.858 0 0 1 0 1.21.847.847 0 0 1-1.204 0 .895.895 0 0 0-.639-.266.896.896 0 0 0-.639.265.845.845 0 0 1-1.203 0 .859.859 0 0 1 0-1.21zm-4.627 4.528a.848.848 0 0 1 1.203 0c.796.8 2.092.8 2.888 0a.848.848 0 0 1 1.203 0 .859.859 0 0 1 0 1.21 3.721 3.721 0 0 1-2.647 1.1 3.723 3.723 0 0 1-2.647-1.1.859.859 0 0 1 0-1.21zm-14.235 17.272a.853.853 0 0 1-.85-.856v-3.668c0-1.884 1.523-3.416 3.396-3.416h28.673c1.872 0 3.396 1.532 3.396 3.416v16.277c0 1.884-1.524 3.416-3.396 3.416h-28.673c-1.873 0-3.397-1.532-3.397-3.415v-9.758c0-.473.381-.855.851-.855s.85.382.85.855v9.758c0 .94.761 1.704 1.696 1.704h28.673c.934 0 1.694-.764 1.694-1.704v-16.278c0-.94-.76-1.706-1.694-1.706h-28.673c-.935 0-1.695.766-1.695 1.706v3.668c0 .473-.38.856-.85.856zm16.882.822c1.97 0 3.574 1.612 3.574 3.593 0 1.98-1.603 3.593-3.574 3.593-1.97 0-3.573-1.612-3.573-3.593 0-1.981 1.603-3.593 3.573-3.593zm0 5.475a1.879 1.879 0 0 0 1.872-1.882 1.88 1.88 0 0 0-1.872-1.882 1.88 1.88 0 0 0-1.872 1.882c0 1.038.84 1.882 1.872 1.882zm-26.863-47.072c2.578 0 5.01.79 7.034 2.282.379.28.46.816.183 1.196a.847.847 0 0 1-1.19.184c-1.73-1.276-3.814-1.95-6.027-1.95-5.35 0-9.702 4.044-9.702 9.015 0 4.97 4.352 9.016 9.702 9.016.789 0 1.575-.09 2.337-.264a.849.849 0 0 1 .862.31c.744.965 2.35 1.527 3.727 1.826-.592-1.044-.945-2.125-1.153-2.983a.858.858 0 0 1 .318-.888c2.295-1.723 3.612-4.28 3.612-7.017 0-1.942-.655-3.792-1.893-5.35a.859.859 0 0 1 .134-1.201.848.848 0 0 1 1.196.134c1.481 1.863 2.264 4.083 2.264 6.417 0 3.093-1.39 5.988-3.837 8.026.316 1.079.88 2.401 1.87 3.397.25.25.32.63.175.955a.85.85 0 0 1-.776.505l-.05-.001c-.192-.012-4.484-.282-6.568-2.36-.728.136-1.472.205-2.218.205-6.288 0-11.404-4.813-11.404-10.727 0-5.914 5.116-10.727 11.404-10.727zm2.707 11.071a.86.86 0 0 1 1.008.1c.312.28.364.761.136 1.109-.403.617-1.377.428-1.537-.287a.865.865 0 0 1 .393-.922zm-6.251-.02a.855.855 0 0 1 .987.135.867.867 0 0 1 .12 1.094c-.414.631-1.418.413-1.545-.329a.863.863 0 0 1 .438-.9zm3.244-.01a.857.857 0 0 1 .945.123c.274.242.362.65.215.985a.858.858 0 0 1-.945.495.864.864 0 0 1-.672-.698.863.863 0 0 1 .457-.904z"/></defs><g><g transform="translate(-982 -1119)"><use fill="#b0abb3" xlink:href="#8m2ya"/></g></g></svg>