<svg xmlns="http://www.w3.org/2000/svg" xmlns:xlink="http://www.w3.org/1999/xlink" width="18" height="18" viewBox="0 0 18 18"><defs><path id="esyja" d="M582.718 5096.088a.399.399 0 0 1-.118-.297v-1.655a.4.4 0 0 1 .42-.414h2.94v-1.525h-2.94a.399.399 0 0 1-.42-.414v-1.926c0-.111.04-.208.118-.29a.4.4 0 0 1 .302-.123h2.94v-8.131c0-.12.04-.22.118-.298a.413.413 0 0 1 .302-.115h7.074c1.75 0 3.179.526 4.285 1.576 1.107 1.052 1.66 2.41 1.66 4.072 0 1.664-.553 3.02-1.66 4.072-1.107 1.052-2.535 1.577-4.285 1.577h-4.462v1.525h6.628c.122 0 .223.039.302.117a.399.399 0 0 1 .118.297v1.655a.4.4 0 0 1-.42.413h-6.628v2.482c0 .12-.042.22-.125.297a.417.417 0 0 1-.295.117h-2.192a.41.41 0 0 1-.302-.117.398.398 0 0 1-.118-.297v-2.482h-2.94a.412.412 0 0 1-.302-.116zm6.274-6.644h4.2c.927 0 1.675-.267 2.244-.802.569-.533.853-1.232.853-2.094 0-.861-.284-1.56-.853-2.093-.569-.535-1.317-.802-2.244-.802h-4.2z"/></defs><g><g transform="translate(-582 -5081)"><use fill="#ffb100" xlink:href="#esyja"/></g></g></svg>