<svg xmlns="http://www.w3.org/2000/svg" xmlns:xlink="http://www.w3.org/1999/xlink" width="40" height="40" viewBox="0 0 40 40"><defs><path id="7mmea" d="M395.016 2588.981v-26.98c-2.818-.489-4.966-2.965-4.966-5.955 0-3.338 2.68-6.046 5.963-6.046s5.963 2.708 5.963 6.046c0 2.99-2.157 5.466-4.967 5.955v26.98c0 .563-.449 1.019-1.004 1.019a1.011 1.011 0 0 1-1.005-1.019zm.98-28.918c2.181 0 3.962-1.806 3.962-4.017 0-2.212-1.78-4.017-3.962-4.017-2.18 0-3.961 1.805-3.961 4.017 0 2.22 1.78 4.017 3.961 4.017zM409.972 2590c-3.283 0-5.962-2.708-5.962-6.047 0-2.99 2.156-5.466 4.966-5.955v-26.98c0-.563.45-1.018 1.004-1.018.556 0 1.005.455 1.005 1.018v26.98c2.818.489 4.967 2.965 4.967 5.955 0 3.33-2.696 6.047-5.98 6.047zm.017-2.03c2.18 0 3.961-1.805 3.961-4.017 0-2.21-1.78-4.016-3.961-4.016s-3.962 1.805-3.962 4.016c0 2.212 1.78 4.017 3.962 4.017zm13.102 1.011v-26.98c-2.819-.489-4.967-2.965-4.967-5.955 0-3.338 2.68-6.046 5.963-6.046 3.284 0 5.963 2.708 5.963 6.046 0 2.99-2.157 5.466-4.966 5.955v26.98c0 .563-.45 1.019-1.005 1.019a.987.987 0 0 1-.988-1.019zm.988-28.918c2.18 0 3.962-1.806 3.962-4.017 0-2.212-1.781-4.017-3.962-4.017s-3.962 1.805-3.962 4.017c0 2.22 1.773 4.017 3.962 4.017z"/></defs><g><g transform="translate(-390 -2550)"><use fill="#ffb300" xlink:href="#7mmea"/></g></g></svg>