<svg xmlns="http://www.w3.org/2000/svg" xmlns:xlink="http://www.w3.org/1999/xlink" width="40" height="40" viewBox="0 0 40 40"><defs><path id="sav4a" d="M1017.287 2331.58l-2.367 2.392-.902-.912.825-.834h-10.589v-1.29h10.59l-.826-.835.902-.912zm-.903 5.162h-10.589l.826.834-.903.912-2.367-2.392 2.367-2.391.903.912-.826.834h10.59zm4.48 27.247l1.486 5.01h-24.7l1.487-5.01a4.468 4.468 0 0 1 3.481-3.146l4.19-.77v-.333a6.461 6.461 0 0 1-3.072-4.342 2.579 2.579 0 0 1-2.036-2.527v-4.96c0-1.228.286-2.388.78-3.427H990l1.067-3.77a3.217 3.217 0 0 1 2.544-2.296l1.705-.288v-.454a3.844 3.844 0 0 1-1.277-2.87v-1.935c0-2.135 1.718-3.871 3.83-3.871 2.113 0 3.831 1.736 3.831 3.87v1.936a3.845 3.845 0 0 1-1.277 2.87v.454l1.705.287a3.219 3.219 0 0 1 2.545 2.296l.23.815a7.756 7.756 0 0 1 10.026.59l.398-1.405a3.218 3.218 0 0 1 2.544-2.296l1.706-.287v-.454a3.844 3.844 0 0 1-1.277-2.87v-1.935c0-2.135 1.718-3.871 3.83-3.871 2.113 0 3.831 1.736 3.831 3.87v1.936a3.845 3.845 0 0 1-1.277 2.87v.454l1.705.287a3.219 3.219 0 0 1 2.545 2.296l1.066 3.77h-12.24c.34.6.54 1.286.54 2.015v6.373a2.578 2.578 0 0 1-2.036 2.527 6.46 6.46 0 0 1-3.072 4.342v.334l4.19.77a4.466 4.466 0 0 1 3.481 3.145zm-3.841-11.118c0-.476-.259-.887-.639-1.111v2.221c.38-.223.639-.635.639-1.11zm-.974-10.015c.198.098.385.21.56.337h11.698l-.6-2.126a1.931 1.931 0 0 0-1.528-1.377l-2.772-.466v-2.173l.254-.193a2.568 2.568 0 0 0 1.023-2.052v-1.935c0-1.424-1.145-2.581-2.554-2.581-1.408 0-2.553 1.157-2.553 2.58v1.936c0 .807.373 1.554 1.023 2.052l.254.193v2.173l-2.773.466a1.932 1.932 0 0 0-1.526 1.377zm-12.797.337c.184-.25.38-.49.592-.717l-.398-1.409a1.931 1.931 0 0 0-1.528-1.377l-2.772-.466v-2.173l.254-.193a2.568 2.568 0 0 0 1.023-2.052v-1.935c0-1.424-1.145-2.581-2.554-2.581-1.408 0-2.553 1.157-2.553 2.58v1.936c0 .807.373 1.554 1.023 2.052l.253.193v2.173l-2.772.466a1.932 1.932 0 0 0-1.526 1.377l-.6 2.126zm.363 8.567c-.38.224-.638.635-.638 1.11 0 .476.259.888.638 1.111zm.639-2.115c1.476 0 2.864-.58 3.908-1.636l1.269-1.282.508.685a5.534 5.534 0 0 0 4.42 2.233h2.025v.737c.228.059.441.15.639.267v-4.15c0-1.27-.851-2.372-2.07-2.68l-.172-.043-.563-.57a6.51 6.51 0 0 0-4.657-1.948c-3.63 0-6.584 2.985-6.584 6.653v2.738c.198-.117.411-.207.639-.267v-.737zm5.746 9.677c2.816 0 5.108-2.315 5.108-5.161v-3.226h-.748a6.807 6.807 0 0 1-5.046-2.265l-.249.252a6.728 6.728 0 0 1-4.173 1.983v3.256c0 2.846 2.292 5.161 5.108 5.161zm0 2.42l1.861-1.41a6.29 6.29 0 0 1-3.722 0zm-2.713-.444l-.407.074.845 2.562 1.303-1.316zm3.684 1.32l1.303 1.316.845-2.562-.406-.074zm9.663 5.091l-.994-3.35a3.19 3.19 0 0 0-2.487-2.246l-2.764-.508-1.556 4.718-2.833-2.863-2.832 2.864-1.556-4.718-2.765.508a3.188 3.188 0 0 0-2.486 2.246l-.995 3.35zm9.158-.645c0 1.067-.86 1.936-1.915 1.936a1.928 1.928 0 0 1-1.916-1.936c0-1.067.86-1.936 1.916-1.936 1.055 0 1.915.869 1.915 1.936zm-1.277 0a.643.643 0 0 0-.638-.645.643.643 0 0 0-.639.645c0 .356.287.645.639.645a.642.642 0 0 0 .638-.645zm-34.476 0c0 1.067-.86 1.936-1.916 1.936a1.928 1.928 0 0 1-1.915-1.936c0-1.067.86-1.936 1.915-1.936 1.056 0 1.916.869 1.916 1.936zm-1.277 0a.643.643 0 0 0-.639-.645.643.643 0 0 0-.638.645c0 .356.287.645.638.645a.642.642 0 0 0 .639-.645zm-1.277-4.516h1.277v1.29h-1.277zm0-2.58h1.277v1.29h-1.277zm0-2.581h1.277v1.29h-1.277zm35.753 5.161h1.277v1.29h-1.277zm0-2.58h1.277v1.29h-1.277zm0-2.581h1.277v1.29h-1.277z"/></defs><g><g transform="translate(-990 -2329)"><use fill="#ffb300" xlink:href="#sav4a"/></g></g></svg>