<svg xmlns="http://www.w3.org/2000/svg" xmlns:xlink="http://www.w3.org/1999/xlink" width="40" height="40" viewBox="0 0 40 40"><defs><path id="vpl9a" d="M418 2430v2.666a.666.666 0 0 1-.667.667h-14.666a.666.666 0 0 1-.667-.667V2430c0-2.92 2.097-5.356 4.863-5.889a4.652 4.652 0 0 1-1.53-3.445A4.672 4.672 0 0 1 410 2416a4.672 4.672 0 0 1 4.667 4.666c0 1.365-.593 2.59-1.53 3.445 2.766.533 4.863 2.97 4.863 5.889zm-8-6a3.337 3.337 0 0 0 3.333-3.334 3.337 3.337 0 0 0-3.333-3.333 3.337 3.337 0 0 0-3.333 3.333A3.337 3.337 0 0 0 410 2424zm6.667 6a4.672 4.672 0 0 0-4.667-4.667h-4a4.672 4.672 0 0 0-4.667 4.667v2h13.334zM406 2452.666v2.667a.666.666 0 0 1-.667.666h-14.666a.666.666 0 0 1-.667-.666v-2.667c0-2.92 2.097-5.355 4.863-5.888a4.651 4.651 0 0 1-1.53-3.445 4.672 4.672 0 0 1 4.667-4.667 4.672 4.672 0 0 1 4.667 4.667 4.651 4.651 0 0 1-1.53 3.445c2.766.533 4.863 2.969 4.863 5.888zm-8-6a3.337 3.337 0 0 0 3.333-3.333A3.337 3.337 0 0 0 398 2440a3.337 3.337 0 0 0-3.333 3.333 3.337 3.337 0 0 0 3.333 3.333zm6.667 6A4.672 4.672 0 0 0 400 2448h-4a4.672 4.672 0 0 0-4.667 4.666v2h13.334zm25.333 0v2.667a.666.666 0 0 1-.667.666h-14.666a.666.666 0 0 1-.667-.666v-2.667c0-2.92 2.097-5.355 4.863-5.888a4.652 4.652 0 0 1-1.53-3.445 4.672 4.672 0 0 1 4.667-4.667 4.672 4.672 0 0 1 4.667 4.667 4.651 4.651 0 0 1-1.53 3.445c2.766.533 4.863 2.969 4.863 5.888zm-8-6a3.337 3.337 0 0 0 3.333-3.333A3.337 3.337 0 0 0 422 2440a3.337 3.337 0 0 0-3.333 3.333 3.337 3.337 0 0 0 3.333 3.333zm6.667 6A4.672 4.672 0 0 0 424 2448h-4a4.672 4.672 0 0 0-4.667 4.666v2h13.334zm-34.553-14.079l-1.324.159a17.457 17.457 0 0 1-.11-1.382l1.333-.052c.016.424.05.853.1 1.275zm0-3.832c-.05.42-.085.85-.101 1.276l-1.332-.052c.017-.462.054-.927.108-1.381zm6.187-10.816c-.337.256-.668.53-.986.816l-.891-.992c.345-.31.704-.607 1.069-.885zm-4.784 5.917c-.18.383-.348.78-.498 1.178l-1.248-.47c.163-.432.344-.861.54-1.278zm-.9 2.393c-.117.407-.218.826-.302 1.243l-1.308-.264c.092-.452.202-.906.328-1.347zm3.78-6.6c-.294.31-.578.634-.843.962l-1.037-.839c.288-.355.595-.705.914-1.04zm4.053-3.093c-.37.198-.741.416-1.101.65l-.723-1.122c.39-.252.793-.488 1.196-.703zm-5.66 5.08c-.241.352-.47.716-.681 1.084l-1.157-.662c.229-.4.477-.794.737-1.175zm11.313 24.92l-.154 1.323c-.461-.054-.922-.127-1.371-.217l.263-1.308c.414.084.839.151 1.262.201zm5.362 1.097c-.448.091-.908.166-1.368.222l-.16-1.324c.425-.052.85-.12 1.264-.205zm-2.75.332a16.42 16.42 0 0 1-1.386.002l.053-1.332c.423.017.854.015 1.28-.002zm11.858-29.25l-.968.917c-.292-.306-.6-.607-.917-.892l.89-.992c.345.309.679.634.995.968zm1.74 2.153l-1.1.754a16.134 16.134 0 0 0-.764-1.027l1.036-.839c.288.357.566.73.828 1.112zm3.02 9.777c0 .235-.004.469-.014.7l-1.332-.051a16.254 16.254 0 0 0 0-1.28l1.332-.053c.01.227.014.455.014.684zm-1.642-7.376l-1.206.57c-.182-.384-.38-.766-.592-1.135l1.158-.663c.228.4.444.813.64 1.228zm.974 2.595l-1.282.367a16.098 16.098 0 0 0-.401-1.214l1.248-.47c.162.431.309.874.435 1.317zm.546 2.716l-1.324.158c-.05-.422-.118-.847-.202-1.264l1.307-.263c.091.453.165.913.219 1.37zm-6.698-11.717l-.81 1.06c-.34-.259-.691-.506-1.047-.735l.722-1.122c.386.249.767.516 1.135.797zm-2.33-1.5l-.63 1.175a16.164 16.164 0 0 0-1.151-.56l.534-1.221c.421.183.841.387 1.247.606z"/></defs><g><g transform="translate(-390 -2416)"><use fill="#ffb300" xlink:href="#vpl9a"/></g></g></svg>