<svg xmlns="http://www.w3.org/2000/svg" xmlns:xlink="http://www.w3.org/1999/xlink" width="18" height="32" viewBox="0 0 18 32"><defs><path id="pf77a" d="M960.427 764.758v3.75a.555.555 0 1 1-1.108 0v-3.75a.556.556 0 1 1 1.108 0zm8.147 4.587l-.001 11.54c0 4.917-3.905 8.912-8.7 8.912-4.8 0-8.703-3.997-8.701-8.911v-11.541c-.002-4.726 3.61-8.562 8.149-8.86l-.001-1.386a.555.555 0 1 1 1.11-.003l-.002 1.386c4.534.302 8.144 4.14 8.146 8.863zm-1.11 0c0-4.307-3.405-7.809-7.593-7.81-4.184.002-7.59 3.503-7.591 7.81v11.54c0 4.304 3.405 7.803 7.592 7.803 4.188 0 7.593-3.5 7.593-7.805z"/></defs><g><g transform="translate(-951 -758)"><use fill="#fff" xlink:href="#pf77a"/></g></g></svg>