<svg xmlns="http://www.w3.org/2000/svg" width="30" height="30" viewBox="0 0 30 30"><g><g><path fill="#fff" d="M30 11.194v5.616c0 1.768-1.48 3.207-3.298 3.207h-1.815c-.284 3.475-2.696 6.456-6.114 7.534-.124 1.37-1.31 2.449-2.752 2.449-1.523 0-2.762-1.205-2.762-2.686 0-1.48 1.24-2.685 2.762-2.685a2.77 2.77 0 0 1 2.528 1.604c2.98-1.028 5.009-3.782 5.009-6.906V8.647c0-4.04-3.38-7.327-7.537-7.327h-2.043c-4.155 0-7.536 3.287-7.536 7.327v10.71a.67.67 0 0 1-.679.66H3.298C1.48 20.017 0 18.578 0 16.81v-5.616c0-1.769 1.48-3.207 3.298-3.207H5.11C5.458 3.527 9.303 0 13.978 0h2.043c4.676 0 8.52 3.526 8.869 7.987H26.7c1.82 0 3.299 1.438 3.299 3.207zM5.084 9.307H3.298c-1.07 0-1.94.846-1.94 1.887v5.616c0 1.04.87 1.887 1.94 1.887h1.786zm12.342 18.007c0-.753-.63-1.365-1.405-1.365-.774 0-1.404.612-1.404 1.365 0 .754.63 1.366 1.404 1.366.775 0 1.405-.612 1.405-1.366zm11.216-16.12c0-1.04-.87-1.887-1.94-1.887h-1.787v9.39h1.786c1.07 0 1.941-.847 1.941-1.887z"/></g></g></svg>