<svg xmlns="http://www.w3.org/2000/svg" width="30" height="30" viewBox="0 0 30 30"><g><g><path fill="#fff" d="M30 7.969v21.03a1 1 0 0 1-1 1H1a1 1 0 0 1-1-1V8a1 1 0 0 1 1-1h1a.5.5 0 0 1 0 1H1v21h28V7.969H18.5a.5.5 0 0 1 0-1H29a1 1 0 0 1 1 1zM3 23.499v-21A2.503 2.503 0 0 1 5.5 0h8A2.503 2.503 0 0 1 16 2.5v21a2.503 2.503 0 0 1-2.5 2.5h-8A2.503 2.503 0 0 1 3 23.5zm1 0A1.5 1.5 0 0 0 5.5 25h8a1.5 1.5 0 0 0 1.5-1.5v-21A1.5 1.5 0 0 0 13.5 1h-8A1.5 1.5 0 0 0 4 2.5zM18 15v-4a1 1 0 0 1 1-1h4.5a.5.5 0 0 1 0 1H19v4h8v-4h-1a.5.5 0 0 1 0-1h1a1 1 0 0 1 1 1v4A1 1 0 0 1 27 16h-8a1 1 0 0 1-1-1zm-.281 4.47a.5.5 0 0 1 .5-.5h1.5a.5.5 0 1 1 0 1h-1.5a.5.5 0 0 1-.5-.5zm10.53 0a.5.5 0 0 1-.5.5h-1.5a.5.5 0 1 1 0-1h1.5a.5.5 0 0 1 .5.5zm-4 0a.5.5 0 0 1-.499.5h-1.5a.5.5 0 0 1 0-1h1.5a.5.5 0 0 1 .5.5zm-6.53 2.03a.5.5 0 0 1 .5-.499h1.5a.5.5 0 1 1 0 1h-1.5a.5.5 0 0 1-.5-.5zm10.53 0a.5.5 0 0 1-.5.5h-1.5a.5.5 0 1 1 0-1h1.5a.5.5 0 0 1 .5.5zm-4 0a.5.5 0 0 1-.499.5h-1.5a.5.5 0 0 1 0-1h1.5a.5.5 0 0 1 .5.5zm-6.53 1.97a.5.5 0 0 1 .5-.5h1.5a.5.5 0 1 1 0 1h-1.5a.5.5 0 0 1-.5-.5zm10.53 0a.5.5 0 0 1-.5.5h-1.5a.5.5 0 1 1 0-1h1.5a.5.5 0 0 1 .5.5zm-4 0a.5.5 0 0 1-.499.5h-1.5a.5.5 0 0 1 0-1h1.5a.5.5 0 0 1 .5.5zm-6.53 2.03a.5.5 0 0 1 .5-.5h1.5a.5.5 0 0 1 0 1h-1.5a.5.5 0 0 1-.5-.5zm10.53 0a.5.5 0 0 1-.5.5h-1.5a.5.5 0 1 1 0-1h1.5a.5.5 0 0 1 .5.5zm-4 0a.5.5 0 0 1-.499.5h-1.5a.5.5 0 0 1 0-1h1.5a.5.5 0 0 1 .5.5z"/></g></g></svg>