<svg xmlns="http://www.w3.org/2000/svg" width="18" height="18" viewBox="0 0 18 18"><g><g><path fill="#fdb100" d="M7.914 5.61c-.016-.066-.016-.148-.016-.214 0-.065 0-.131.016-.214a.937.937 0 0 1 .066-.197c.033-.066.066-.132.099-.181a1.07 1.07 0 0 1 .131-.148c.05-.05.099-.082.165-.131.049-.034.115-.067.18-.1h.017a.935.935 0 0 1 .198-.065c.065-.017.148-.017.213-.017.066 0 .132 0 .214.017a.935.935 0 0 1 .198.065c.066.033.115.066.18.1.067.049.116.081.165.13l.033.033a.944.944 0 0 1 .198.297c.033.082.049.148.066.214a.94.94 0 0 1 .016.213c0 .067 0 .149-.016.215-.017.065-.033.147-.066.213-.017.017-.017.017-.017.034a.515.515 0 0 1-.082.164.902.902 0 0 1-.115.148l-.017.016a1.076 1.076 0 0 1-.345.248h-.017a.568.568 0 0 1-.18.065c-.066.016-.149.016-.215.016-.065 0-.131 0-.213-.016a.786.786 0 0 1-.214-.065c-.083-.017-.148-.067-.198-.1-.066-.049-.115-.098-.164-.148-.033-.05-.082-.098-.115-.147-.033-.05-.066-.116-.1-.182-.016-.066-.049-.131-.065-.263zm2.78 6.73v.888a.425.425 0 0 1-.427.428H7.733a.425.425 0 0 1-.428-.428v-.889c0-.246.198-.427.428-.427h.346V9.18h-.346a.425.425 0 0 1-.428-.428v-.889c0-.247.198-.428.428-.428h1.728c.246 0 .427.198.427.428v4.03h.379a.44.44 0 0 1 .428.445zM18 9c0 4.969-4.031 9-9 9s-9-4.031-9-9C0 4.03 4.03 0 9 0s9 4.03 9 9zm-1.185 0c0-4.312-3.504-7.816-7.815-7.816-4.31 0-7.815 3.504-7.815 7.815 0 4.312 3.504 7.816 7.815 7.816 4.31 0 7.815-3.504 7.815-7.816z"/></g></g></svg>