<svg xmlns="http://www.w3.org/2000/svg" width="60" height="50" viewBox="0 0 60 50"><g><g><path fill="#8fd4ef" d="M15-.001c8.284 0 15 6.715 15 15 0 8.284-6.716 15-15 15-8.284 0-15-6.716-15-15 0-8.285 6.716-15 15-15z"/></g><g><path fill="#565574" d="M30.35 4.268c0 2.3-1.882 4.17-4.195 4.17-2.314 0-4.196-1.87-4.196-4.17s1.882-4.17 4.196-4.17c2.313 0 4.195 1.87 4.195 4.17zm-1.953 0c0-1.23-1.006-2.23-2.242-2.23-1.237 0-2.243 1-2.243 2.23 0 1.229 1.006 2.23 2.243 2.23 1.236-.001 2.242-1.001 2.242-2.23zm20.978 0c0 2.3-1.882 4.17-4.195 4.17-2.314 0-4.196-1.87-4.196-4.17S42.866.098 45.18.098c2.313 0 4.195 1.87 4.195 4.17zm-1.953 0c0-1.23-1.006-2.23-2.242-2.23-1.237 0-2.243 1-2.243 2.23 0 1.229 1.006 2.23 2.243 2.23 1.236-.001 2.242-1.001 2.242-2.23zM60 49.126c0 .536-.437.97-.977.97H10.977a.974.974 0 0 1-.977-.97c0-.536.437-.97.977-.97h7.276V26.368c0-.536.438-.97.977-.97.54 0 .976.434.976.97v21.786h5.89v-24.99c0-.972.149-1.925.443-2.842a7.087 7.087 0 0 0-3.365-.841c-3.811 0-6.912 2.976-6.912 6.634v4.336c0 .537-.437.971-.976.971a.974.974 0 0 1-.977-.97v-4.337c0-3.55 2.242-6.604 5.429-7.905a4.597 4.597 0 0 1-1.453-3.352c0-2.55 2.086-4.624 4.65-4.624 2.565 0 4.651 2.075 4.651 4.624 0 1.25-.503 2.387-1.318 3.22.36.13.713.284 1.055.46a9.779 9.779 0 0 1 5.037-4.299 5.089 5.089 0 0 1-1.755-3.842c0-2.82 2.307-5.113 5.143-5.113s5.143 2.294 5.143 5.113c0 1.456-.616 2.77-1.6 3.702 2.3.771 4.246 2.346 5.438 4.464a8.92 8.92 0 0 1 .74-.345l-.088-.084a4.58 4.58 0 0 1-1.37-3.266c-.005-2.549 2.077-4.627 4.642-4.633h.01c2.56 0 4.645 2.067 4.65 4.613a4.577 4.577 0 0 1-1.307 3.223 8.873 8.873 0 0 1 3.164 1.956c1.685 1.618 2.616 3.773 2.62 6.07l.016 4.334a.974.974 0 0 1-.973.975h-.004a.974.974 0 0 1-.976-.968l-.016-4.336c-.003-1.768-.722-3.428-2.024-4.678-1.305-1.253-3.04-1.943-4.886-1.943h-.016a7.082 7.082 0 0 0-3.404.87c.288.908.435 1.851.435 2.813v1.099c.01.055.016.112.016.17l.045 23.72h6.062l-.044-21.791a.974.974 0 0 1 .974-.973h.002c.539 0 .976.433.977.969l.045 21.796h5.004c.54 0 .977.435.977.97zm-14.035-34.26c.002.716.283 1.388.794 1.894.51.504 1.185.781 1.903.781h.006a2.69 2.69 0 0 0 1.906-.79 2.656 2.656 0 0 0 .786-1.897 2.693 2.693 0 0 0-2.698-2.676h-.005a2.693 2.693 0 0 0-2.692 2.687zm-20.332-.007a2.693 2.693 0 0 0-2.697-2.682 2.693 2.693 0 0 0-2.698 2.682 2.693 2.693 0 0 0 2.698 2.682 2.693 2.693 0 0 0 2.697-2.682zm6.925-4.46c0 1.748 1.431 3.17 3.19 3.17s3.19-1.422 3.19-3.17c0-1.75-1.431-3.172-3.19-3.172s-3.19 1.423-3.19 3.171zm-1.99 25.733a4.943 4.943 0 0 1-2.52-.932v12.955h2.52zm11.045-12.68v10.706c1.351-.248 2.376-1.384 2.376-2.744v-8.249c0-.984-.192-1.942-.571-2.848-1.22-2.92-4.124-4.806-7.4-4.806-3.258 0-6.157 1.874-7.385 4.774l-.002.005a7.35 7.35 0 0 0-.582 2.875v8.249c0 1.409 1.098 2.576 2.52 2.767V23.452c0-.536.437-.97.976-.97.54 0 .977.434.977.97v24.703h2.376V35.433c0-.536.437-.971.976-.971.54 0 .977.435.977.97v12.723h2.809V23.452c0-.536.437-.97.976-.97.54 0 .977.434.977.97zm0 24.703h2.437l-.024-12.983a4.941 4.941 0 0 1-2.413.947zM56.83 33.283c.54 0 .977.434.977.97 0 .537-.438.971-.977.971a.974.974 0 0 1-.977-.97c0-.537.438-.971.977-.971zm-41.545 0c.54 0 .977.434.977.97 0 .537-.438.971-.977.971a.974.974 0 0 1-.976-.97c0-.537.437-.971.976-.971z"/></g></g></svg>