<svg xmlns="http://www.w3.org/2000/svg" width="52" height="50" viewBox="0 0 52 50"><g><g><path fill="#8fd4ef" d="M37-.001c8.284 0 15 6.715 15 15 0 8.284-6.716 15-15 15-8.284 0-15-6.716-15-15 0-8.285 6.716-15 15-15z"/></g><g><path fill="#565574" d="M34 21.875a.777.777 0 0 1-.773.78h-1.545a.778.778 0 0 0-.773.782v5.469a3.123 3.123 0 0 1-2.398 3.045c-.315 1.386-1.545 2.424-3.011 2.424h-6.182v10.937h5.41c1.277 0 2.317 1.051 2.317 2.344 0 1.292-1.04 2.344-2.318 2.344s-2.318-1.052-2.318-2.344c0-.274.047-.537.133-.781H11.458c.086.244.133.507.133.78 0 1.293-1.04 2.345-2.318 2.345-1.279 0-2.318-1.052-2.318-2.344 0-1.293 1.04-2.344 2.318-2.344h5.409V34.375H8.5c-1.466 0-2.696-1.038-3.012-2.424a3.123 3.123 0 0 1-2.397-3.045v-5.469a.778.778 0 0 0-.773-.781H.773A.777.777 0 0 1 0 21.875c0-.432.346-.781.773-.781h1.545c1.278 0 2.318 1.051 2.318 2.343v5.469c0 .632.375 1.177.91 1.423.39-1.275 1.567-2.204 2.954-2.204h6.182V25h-5.41c-1.704 0-3.09-1.402-3.09-3.125V3.125C6.182 1.4 7.568 0 9.272 0h15.455c1.704 0 3.091 1.401 3.091 3.125v18.75c0 1.723-1.387 3.125-3.09 3.125h-5.41v3.125H25.5c1.387 0 2.564.929 2.954 2.204.535-.246.91-.79.91-1.423v-5.469c0-1.292 1.04-2.343 2.318-2.343h1.545c.427 0 .773.35.773.78zm-23.955 25.78a.778.778 0 0 0-.772-.78.778.778 0 0 0-.773.78c0 .432.347.782.773.782.426 0 .772-.35.772-.781zm13.91 0c0 .432.346.782.772.782.426 0 .773-.35.773-.781a.778.778 0 0 0-.773-.781.778.778 0 0 0-.772.78zm.772-24.218c.852 0 1.546-.7 1.546-1.562V3.125c0-.862-.694-1.563-1.546-1.563H9.273c-.852 0-1.546.701-1.546 1.563v18.75c0 .861.694 1.562 1.546 1.562zM16.227 25v3.125h1.546V25zm1.546 9.375h-1.546v10.937h1.546zm9.272-3.125c0-.862-.693-1.563-1.545-1.563h-17c-.852 0-1.545.701-1.545 1.563 0 .861.693 1.562 1.545 1.562h17c.852 0 1.545-.7 1.545-1.562zM23.182 5.469V3.906c0-.431.346-.781.773-.781.426 0 .772.35.772.78V5.47a.777.777 0 0 1-.772.78.777.777 0 0 1-.773-.78zm1.545 7.812a.777.777 0 0 1-.772.781.777.777 0 0 1-.773-.781V8.594c0-.432.346-.782.773-.782.426 0 .772.35.772.782z"/></g></g></svg>