<svg xmlns="http://www.w3.org/2000/svg" width="60" height="50" viewBox="0 0 60 50"><g><g><path fill="#8fd4ef" d="M45 18.999c8.284 0 15 6.715 15 15 0 8.284-6.716 14.999-15 14.999-8.284 0-15-6.715-15-15C30 25.714 36.716 19 45 19z"/></g><g><path fill="#565574" d="M37.738 39.486a3.254 3.254 0 0 1-2.309.955 3.254 3.254 0 0 1-2.309-.955l-5.825-5.826a2.786 2.786 0 0 1-.562-3.116c.035-.076.05-.173.013-.21l-.982-.982a.169.169 0 0 0-.122-.05.169.169 0 0 0-.122.05 2.757 2.757 0 0 1-1.961.812 2.757 2.757 0 0 1-1.962-.812l-6.078-6.078c-3.036-3.036-4.526-6.05-4.427-8.958.076-2.26 1.137-3.592 1.182-3.648a.812.812 0 0 1 1.202-.062l24.262 24.262a3.269 3.269 0 0 1 0 4.618zm-1.145-3.472L13.086 12.507c-.609 1.492-1.124 4.919 3.579 9.622l6.077 6.077c.218.218.508.339.817.339.308 0 .598-.12.816-.339a1.78 1.78 0 0 1 1.267-.524c.479 0 .929.186 1.267.524l.982.983c.519.518.642 1.314.315 2.03-.2.436-.105.957.234 1.296l5.826 5.826a1.647 1.647 0 0 0 2.327 0 1.647 1.647 0 0 0 0-2.327zm1.878-22.597l-5.17 5.169a.808.808 0 0 1-1.144 0 .81.81 0 0 1 0-1.145l5.169-5.17a.81.81 0 1 1 1.145 1.146zm-2.2-2.862L31 15.824c-.508.509-.82 1.148-.833 1.709l-.044 1.832a.81.81 0 0 1-.237.553l-1.698 1.697a.807.807 0 0 1-1.145 0 .81.81 0 0 1 0-1.145L28.512 19l.036-1.507c.024-.981.5-2.008 1.308-2.815l5.27-5.27a.81.81 0 1 1 1.144 1.146zm-13.846 22.38l-6.48 6.48a3.244 3.244 0 0 1-2.309.957c-.872 0-1.692-.34-2.309-.957a3.243 3.243 0 0 1-.956-2.308c0-.872.34-1.693.956-2.31l6.255-6.254a.81.81 0 1 1 1.145 1.145l-6.255 6.255c-.31.31-.481.724-.481 1.163 0 .44.17.853.481 1.164.311.31.724.482 1.164.482.44 0 .853-.171 1.163-.482l6.48-6.48a.81.81 0 0 1 1.146 1.146zM41.454 15.74l-5.269 5.268c-.816.816-1.87 1.276-2.896 1.26l-1.561-.024-1.456 1.456a.807.807 0 0 1-1.145 0 .81.81 0 0 1 0-1.146l1.698-1.698a.813.813 0 0 1 .585-.236l1.904.028c.584.007 1.225-.285 1.726-.785l5.269-5.269a.81.81 0 1 1 1.145 1.146zM50 24.999c0 6.678-2.6 12.957-7.322 17.678C37.956 47.4 31.678 50 25 50c-6.678 0-12.956-2.6-17.678-7.323C2.6 37.956 0 31.677 0 25c0-6.678 2.6-12.956 7.322-17.678C12.044 2.6 18.322 0 25 0c6.678 0 12.956 2.6 17.678 7.322C47.4 12.044 50 18.322 50 25zm-1.62 0a23.227 23.227 0 0 0-6.848-16.531A23.227 23.227 0 0 0 25 1.62 23.227 23.227 0 0 0 8.468 8.468 23.227 23.227 0 0 0 1.62 25a23.227 23.227 0 0 0 6.848 16.532A23.227 23.227 0 0 0 25 48.38a23.227 23.227 0 0 0 16.532-6.848A23.227 23.227 0 0 0 48.38 25z"/></g></g></svg>