<svg xmlns="http://www.w3.org/2000/svg" width="60" height="50" viewBox="0 0 60 50"><g><g><path fill="#fdb100" d="M15-.004c8.284 0 15 6.718 15 15.002 0 8.283-6.716 15-15 15-8.285 0-15-6.717-15-15C0 6.714 6.715-.004 15-.004z"/></g><g><path fill="#fff" d="M49.552 6.798a.86.86 0 0 1-1.206.18 22.214 22.214 0 0 0-13.312-4.392c-5.025 0-9.988 1.63-13.276 4.362a.862.862 0 0 1-1.413-.663V.86a.862.862 0 0 1 1.724 0v3.71C25.577 2.227 30.289.86 35.033.86a23.928 23.928 0 0 1 14.34 4.73.862.862 0 0 1 .18 1.207zm9.586 5.271h-3.709c2.343 3.508 3.709 8.22 3.709 12.965a23.925 23.925 0 0 1-4.73 14.34.864.864 0 0 1-1.207.179.862.862 0 0 1-.18-1.206 22.211 22.211 0 0 0 4.393-13.313c0-5.026-1.631-9.988-4.362-13.276a.861.861 0 0 1 .663-1.413h5.423a.862.862 0 1 1 0 1.724zm-9.483 31.646v5.423a.862.862 0 0 1-1.724 0v-3.709c-3.508 2.341-8.22 3.709-12.965 3.709a23.923 23.923 0 0 1-14.34-4.731.862.862 0 1 1 1.027-1.386 22.21 22.21 0 0 0 13.314 4.393c5.025 0 9.988-1.63 13.275-4.362a.86.86 0 0 1 1.413.663zm-32.59-4.556a.86.86 0 0 1-.78.496h-5.423a.863.863 0 0 1 0-1.724h3.709c-2.343-3.508-3.709-8.221-3.709-12.965a23.923 23.923 0 0 1 4.73-14.34.861.861 0 1 1 1.386 1.027 22.213 22.213 0 0 0-4.393 13.313c0 5.025 1.631 9.988 4.362 13.276.214.256.26.614.118.917zm32.588-15.882v3.447a.863.863 0 0 1-.862.863h-1.664c-.378 0-.71.235-.809.572-.314 1.069-.626 1.88-.953 2.48a.838.838 0 0 0 .163.982l1.179 1.179a.86.86 0 0 1 0 1.218l-2.69 2.691a.861.861 0 0 1-1.22 0l-1.178-1.177a.835.835 0 0 0-.983-.164c-.597.326-1.408.638-2.478.953-.338.1-.574.432-.574.808v1.663a.86.86 0 0 1-.86.863h-3.448a.863.863 0 0 1-.862-.863v-1.664c0-.378-.236-.71-.573-.809-1.07-.315-1.881-.627-2.479-.953-.311-.17-.716-.103-.982.164l-1.178 1.177a.861.861 0 0 1-1.22 0l-2.69-2.69a.86.86 0 0 1 0-1.22l1.179-1.178a.837.837 0 0 0 .162-.983c-.326-.6-.637-1.41-.952-2.479-.1-.337-.432-.572-.809-.572h-1.665a.862.862 0 0 1-.862-.862v-3.448c0-.476.386-.863.862-.863h1.665c.377 0 .709-.235.808-.572.315-1.07.626-1.88.953-2.48.17-.312.102-.716-.163-.982l-1.179-1.179a.86.86 0 0 1 0-1.219l2.69-2.69a.86.86 0 0 1 1.22 0l1.177 1.178c.267.266.67.333.983.162.597-.325 1.409-.637 2.478-.952.338-.1.573-.432.573-.809v-1.663c0-.475.386-.862.862-.862h3.448c.476 0 .862.387.862.862v1.665c0 .378.236.71.573.808 1.07.316 1.882.628 2.48.954.312.17.715.103.982-.164l1.178-1.178a.861.861 0 0 1 1.22 0l2.69 2.691a.862.862 0 0 1 0 1.219l-1.179 1.178c-.266.267-.333.671-.163.983.327.6.64 1.41.953 2.48.1.337.431.572.809.572h1.664c.476 0 .862.387.862.863zm-1.721.86h-.803c-1.136 0-2.149-.745-2.463-1.81-.279-.95-.545-1.65-.813-2.141-.533-.98-.344-2.225.459-3.027l.568-.57-1.471-1.47-.57.568c-.802.803-2.047.992-3.025.458-.49-.267-1.19-.533-2.142-.813-1.065-.314-1.81-1.326-1.81-2.463v-.801H34.14v.803c0 1.136-.744 2.149-1.81 2.463-.952.28-1.652.546-2.141.813-.98.534-2.224.345-3.027-.459l-.568-.568-1.472 1.472.57.568c.802.803.99 2.048.458 3.027-.268.49-.534 1.19-.813 2.14-.313 1.066-1.327 1.81-2.463 1.81h-.802v1.725h.802c1.136 0 2.15.744 2.463 1.809.28.95.546 1.65.813 2.141.534.98.345 2.224-.458 3.027l-.569.569 1.472 1.471.568-.568c.803-.803 2.047-.992 3.026-.458.49.267 1.19.533 2.142.814 1.065.313 1.81 1.326 1.81 2.462v.802h1.722v-.803c0-1.136.744-2.149 1.81-2.463.951-.28 1.652-.547 2.142-.813.98-.533 2.223-.345 3.027.459l.568.568 1.471-1.472-.568-.569c-.803-.803-.991-2.047-.458-3.026.268-.491.533-1.192.812-2.142.314-1.065 1.327-1.81 2.463-1.81h.803zm-6.035.862A6.905 6.905 0 0 1 35 31.896 6.905 6.905 0 0 1 28.103 25 6.905 6.905 0 0 1 35 18.103a6.905 6.905 0 0 1 6.897 6.896zm-1.725 0A5.178 5.178 0 0 0 35 19.827a5.178 5.178 0 0 0-5.173 5.172A5.178 5.178 0 0 0 35 30.172a5.178 5.178 0 0 0 5.172-5.173z"/></g></g></svg>