<svg xmlns="http://www.w3.org/2000/svg" width="60" height="50" viewBox="0 0 60 50"><g><g><path fill="#fdb100" d="M15-.003c8.284 0 15 6.717 15 15.001 0 8.284-6.716 14.999-15 14.999-8.285 0-15-6.715-15-14.999S6.715-.003 15-.003z"/></g><g><path fill="#fff" d="M38.93 48.907a.79.79 0 0 1-.682.884l-.072.01a.79.79 0 0 1-.196-1.567l.066-.008a.79.79 0 0 1 .884.681zm-2.832.292a.79.79 0 0 1-.78.799l-.312.002c-6.68 0-12.959-2.6-17.682-7.323C12.601 37.955 10 31.677 10 25c0-6.678 2.601-12.956 7.324-17.678C22.047 2.6 28.327 0 35.006 0c6.68 0 12.959 2.6 17.682 7.322 4.723 4.722 7.324 11 7.324 17.678 0 3.808-.835 7.466-2.481 10.87a.79.79 0 0 1-1.422-.688A23.195 23.195 0 0 0 58.433 25c0-12.915-10.51-23.421-23.427-23.421-12.918 0-23.427 10.506-23.427 23.42 0 12.915 10.51 23.422 23.427 23.422.098 0 .196 0 .293-.002h.01a.79.79 0 0 1 .79.78zm18.123-24.2c0-1.218-.992-2.21-2.211-2.21h-1.283a.79.79 0 0 1-.775-.642 15.044 15.044 0 0 0-2.36-5.696.79.79 0 0 1 .094-1.002l.907-.907a2.213 2.213 0 0 0 0-3.126 2.214 2.214 0 0 0-3.127 0l-.907.907a.79.79 0 0 1-1.003.094 15.05 15.05 0 0 0-5.696-2.36.79.79 0 0 1-.643-.775V8c0-1.219-.992-2.21-2.211-2.21-1.22 0-2.211.991-2.211 2.21V9.28a.79.79 0 0 1-.643.776 15.045 15.045 0 0 0-5.696 2.36.79.79 0 0 1-1.003-.095l-.907-.907a2.214 2.214 0 0 0-3.127 0 2.197 2.197 0 0 0-.648 1.563c0 .591.23 1.146.648 1.564l.907.907a.79.79 0 0 1 .095 1.002 15.044 15.044 0 0 0-2.36 5.695.79.79 0 0 1-.777.643h-1.282c-1.22 0-2.211.992-2.211 2.21 0 1.22.992 2.21 2.211 2.21h1.282c.38 0 .705.27.776.643a15.041 15.041 0 0 0 2.36 5.696.79.79 0 0 1-.094 1.002l-.907.907a2.195 2.195 0 0 0-.648 1.563 2.213 2.213 0 0 0 3.774 1.563l.908-.906a.79.79 0 0 1 1.003-.095 15.053 15.053 0 0 0 5.696 2.36.79.79 0 0 1 .643.775V42c0 1.218.992 2.21 2.21 2.21 1.22 0 2.212-.992 2.212-2.21v-1.283c0-.379.27-.705.643-.775a15.16 15.16 0 0 0 2.151-.575.79.79 0 1 1 .519 1.491c-.566.197-1.147.365-1.734.5V42c0 2.089-1.7 3.79-3.79 3.79s-3.79-1.701-3.79-3.79v-.642a16.574 16.574 0 0 1-5.1-2.112l-.453.454a3.795 3.795 0 0 1-5.36 0 3.766 3.766 0 0 1-1.111-2.68c0-1.012.394-1.963 1.11-2.679l.454-.454a16.577 16.577 0 0 1-2.113-5.098h-.641c-2.09 0-3.79-1.7-3.79-3.79 0-2.089 1.7-3.789 3.79-3.789h.641a16.572 16.572 0 0 1 2.113-5.098l-.454-.454a3.764 3.764 0 0 1-1.11-2.68c0-1.011.394-1.963 1.11-2.679a3.795 3.795 0 0 1 5.36 0l.455.454a16.584 16.584 0 0 1 5.099-2.112V8c0-2.09 1.7-3.79 3.79-3.79s3.79 1.7 3.79 3.79v.64a16.585 16.585 0 0 1 5.1 2.113l.454-.454a3.796 3.796 0 0 1 5.36 0 3.794 3.794 0 0 1 0 5.36l-.454.453a16.576 16.576 0 0 1 2.113 5.098h.641c2.09 0 3.79 1.7 3.79 3.79s-1.7 3.79-3.79 3.79h-.641a16.695 16.695 0 0 1-.5 1.732.79.79 0 0 1-1.492-.519c.243-.699.437-1.422.575-2.15a.79.79 0 0 1 .776-.643h1.282c1.22 0 2.211-.992 2.211-2.21zM42.137 48.158a.79.79 0 0 1-.555.97l-.088.023a.79.79 0 0 1-.41-1.525l.083-.022a.79.79 0 0 1 .97.554zm17.028-6.076a2.898 2.898 0 0 1 0 4.094l-2.979 2.977a2.888 2.888 0 0 1-2.047.846 2.886 2.886 0 0 1-2.048-.846L43 40.039a2.874 2.874 0 0 1-.847-2.046c0-.503.127-.986.366-1.412l-1.444-1.444a11.778 11.778 0 0 1-6.078 1.672 11.77 11.77 0 0 1-8.375-3.469 11.763 11.763 0 0 1-3.47-8.373c0-3.163 1.233-6.137 3.47-8.374 4.618-4.617 12.133-4.617 16.751 0 3.912 3.912 4.51 9.9 1.794 14.448l1.447 1.446a2.88 2.88 0 0 1 1.412-.367c.774 0 1.5.301 2.048.848v.001zm-16.91-9.857c.471-.47.886-.975 1.246-1.507l.01-.014c2.69-3.99 2.272-9.466-1.256-12.993-2-2.001-4.63-3.002-7.258-3.002-2.63 0-5.258 1.001-7.26 3.002a10.195 10.195 0 0 0-3.006 7.257c0 2.741 1.068 5.318 3.007 7.257a10.2 10.2 0 0 0 7.259 3.006 10.195 10.195 0 0 0 7.259-3.006zm1.303 3.163l1.862-1.86-1.169-1.168a11.843 11.843 0 0 1-1.86 1.86zm14.49 7.81l-9.093-9.113a1.308 1.308 0 0 0-.93-.385c-.351 0-.682.137-.93.386l-2.978 2.977a1.306 1.306 0 0 0-.386.93c0 .352.137.682.386.93l9.092 9.114a1.317 1.317 0 0 0 1.86 0l2.978-2.978a1.316 1.316 0 0 0 0-1.86zM40.766 19.199c3.181 3.181 3.181 8.357 0 11.537a8.135 8.135 0 0 1-5.77 2.386c-2.09 0-4.18-.795-5.77-2.386-3.182-3.18-3.182-8.356 0-11.537 3.181-3.18 8.358-3.18 11.54 0zm-1.117 1.117a6.59 6.59 0 0 0-9.307 0 6.586 6.586 0 0 0 0 9.304 6.564 6.564 0 0 0 4.654 1.924 6.56 6.56 0 0 0 4.653-1.924 6.585 6.585 0 0 0 0-9.304zm6.596 26.15a.79.79 0 0 1-.367 1.054l-.08.039a.788.788 0 0 1-1.053-.37.79.79 0 0 1 .37-1.054l.075-.036a.79.79 0 0 1 1.054.366z"/></g></g></svg>