<svg xmlns="http://www.w3.org/2000/svg" width="60" height="50" viewBox="0 0 60 50"><g><g><path fill="#fdb100" d="M15-.004c8.284 0 15 6.718 15 15.002 0 8.283-6.716 14.999-15 14.999-8.285 0-15-6.716-15-14.999C0 6.714 6.715-.004 15-.004z"/></g><g><path fill="#fff" d="M52.842 28.038c.232.237.355.55.347.882a21.473 21.473 0 0 1-6.49 14.923A21.477 21.477 0 0 1 31.597 50c-1.65 0-3.292-.187-4.885-.555a.732.732 0 1 1 .33-1.427c1.249.289 2.531.457 3.822.504v-6.687h-.99c-1.655 0-3.001-1.346-3.001-3 0-1.655 1.346-3.001 3-3.001h.991v-6.7h-7.139c-.565 0-1.025-.46-1.025-1.025v-1.376c0-.848-.664-1.56-1.48-1.589-.42-.015-.82.138-1.122.43-.303.291-.47.684-.47 1.104v1.43c0 .566-.46 1.026-1.025 1.026h-7.126c.297 8.06 5.467 15.283 13.054 18.127a.732.732 0 1 1-.514 1.371 21.551 21.551 0 0 1-10.08-7.793A21.458 21.458 0 0 1 10 28.402a21.477 21.477 0 0 1 6.156-15.1A21.47 21.47 0 0 1 31.08 6.81c.332-.007.645.116.882.348.237.232.368.542.368.873v7.3h.991c.822 0 1.589.326 2.16.918.57.591.868 1.37.839 2.192-.057 1.595-1.426 2.892-3.053 2.892h-.937v6.336h7.14c.565 0 1.025.46 1.025 1.026v1.43c0 .847.689 1.536 1.535 1.536.847 0 1.536-.689 1.536-1.535v-1.431c0-.565.46-1.026 1.025-1.026h7.377c.332 0 .642.131.874.369zm-20.951-8.17h1.376c.847 0 1.56-.663 1.589-1.48a1.526 1.526 0 0 0-.43-1.122 1.524 1.524 0 0 0-1.105-.47h-1.43c-.566 0-1.026-.46-1.026-1.025V8.282C20.39 8.66 11.863 17.238 11.48 27.67h6.685v-.99c0-.822.325-1.59.917-2.16a2.978 2.978 0 0 1 2.192-.84c1.594.057 2.891 1.427 2.891 3.054v.936h6.7v-6.776c0-.565.46-1.025 1.026-1.025zm19.827 9.266H45.03v.991c0 1.655-1.345 3-3 3-1.654 0-3-1.345-3-3v-.99h-6.7v7.138c0 .566-.46 1.026-1.025 1.026h-1.431c-.847 0-1.536.689-1.536 1.535 0 .847.69 1.536 1.536 1.536h1.43c.566 0 1.026.46 1.026 1.025v7.125c10.431-.383 19.01-8.91 19.388-19.386zm8.274-8.053c.008.332-.115.645-.347.883a1.212 1.212 0 0 1-.874.367h-6.937v.937c0 1.627-1.298 2.996-2.892 3.053l-.11.002a2.976 2.976 0 0 1-2.082-.841 2.976 2.976 0 0 1-.917-2.16v-.99h-6.944c-.673 0-1.22-.548-1.22-1.221V14.09c0-.566.46-1.026 1.025-1.026h1.43c.847 0 1.536-.688 1.536-1.535s-.689-1.536-1.536-1.536h-1.43c-.566 0-1.026-.46-1.026-1.025v-7.74c0-.33.131-.641.368-.873.238-.232.55-.355.883-.348 2.848.067 5.605.681 8.194 1.824a.733.733 0 0 1-.591 1.34 19.972 19.972 0 0 0-7.389-1.692v7.05h.991c1.655 0 3 1.346 3 3s-1.345 3-3 3h-.99v6.338h7.431c.405 0 .733.328.733.732v1.724c0 .42.167.813.47 1.105.302.292.701.444 1.122.43.816-.03 1.479-.742 1.479-1.59V21.6c0-.404.328-.732.732-.732h7.42c-.245-6.864-3.906-13.046-9.83-16.576a.733.733 0 0 1 .75-1.258 21.746 21.746 0 0 1 7.526 7.526 21.587 21.587 0 0 1 3.025 10.522z"/></g></g></svg>