<svg xmlns="http://www.w3.org/2000/svg" width="26" height="32" viewBox="0 0 26 32"><defs><linearGradient id="2cr7a" x1="13.04" x2="13.04" y1="32" y2="0" gradientUnits="userSpaceOnUse"><stop offset="0" stop-color="#bf3267"/><stop offset="1" stop-color="#f9643a"/></linearGradient></defs><g><g><path fill="#fff" d="M26.04 12.827a13.02 13.02 0 0 1-.32 2.837c-.196.872-.488 1.718-.869 2.53-1.4 3.253-4.485 8.25-11.233 13.605a.93.93 0 0 1-1.155 0C5.708 26.445 2.629 21.447 1.23 18.193a12.518 12.518 0 0 1-.959-2.958 12.464 12.464 0 0 1-.23-2.408C.04 5.756 5.87 0 13.033 0c7.162 0 12.993 5.756 13.006 12.827zm-1.848-.007c0-6.072-5.008-11.016-11.158-11.016-6.15 0-11.159 4.944-11.159 11.016 0 .704.068 1.402.204 2.093 0 .02.007.033.007.046.007.034.02.135.061.289v.014c.177.751.428 1.489.754 2.187.007.006.007.02.014.027 1.27 2.971 4.057 7.506 10.119 12.45 6.061-4.944 8.847-9.479 10.118-12.45.007-.007.007-.02.014-.027.333-.705.584-1.436.754-2.187v-.014c.034-.154.054-.255.061-.289 0-.013.007-.026.007-.04.136-.683.204-1.388.204-2.099zm-2.909.147c0 4.488-3.703 8.145-8.25 8.145-4.546 0-8.25-3.657-8.25-8.145 0-4.488 3.704-8.144 8.25-8.144 4.547 0 8.25 3.656 8.25 8.144zm-1.834 0c0-3.488-2.882-6.333-6.415-6.333-3.534 0-6.415 2.845-6.415 6.333 0 3.489 2.874 6.333 6.415 6.333 3.54 0 6.415-2.844 6.415-6.333z"/><path fill="url(#2cr7a)" d="M26.04 12.827a13.02 13.02 0 0 1-.32 2.837c-.196.872-.488 1.718-.869 2.53-1.4 3.253-4.485 8.25-11.233 13.605a.93.93 0 0 1-1.155 0C5.708 26.445 2.629 21.447 1.23 18.193a12.518 12.518 0 0 1-.959-2.958 12.464 12.464 0 0 1-.23-2.408C.04 5.756 5.87 0 13.033 0c7.162 0 12.993 5.756 13.006 12.827zm-1.848-.007c0-6.072-5.008-11.016-11.158-11.016-6.15 0-11.159 4.944-11.159 11.016 0 .704.068 1.402.204 2.093 0 .02.007.033.007.046.007.034.02.135.061.289v.014c.177.751.428 1.489.754 2.187.007.006.007.02.014.027 1.27 2.971 4.057 7.506 10.119 12.45 6.061-4.944 8.847-9.479 10.118-12.45.007-.007.007-.02.014-.027.333-.705.584-1.436.754-2.187v-.014c.034-.154.054-.255.061-.289 0-.013.007-.026.007-.04.136-.683.204-1.388.204-2.099zm-2.909.147c0 4.488-3.703 8.145-8.25 8.145-4.546 0-8.25-3.657-8.25-8.145 0-4.488 3.704-8.144 8.25-8.144 4.547 0 8.25 3.656 8.25 8.144zm-1.834 0c0-3.488-2.882-6.333-6.415-6.333-3.534 0-6.415 2.845-6.415 6.333 0 3.489 2.874 6.333 6.415 6.333 3.54 0 6.415-2.844 6.415-6.333z"/></g></g></svg>