<?xml version="1.0" encoding="UTF-8" ?>
<!DOCTYPE svg PUBLIC "-//W3C//DTD SVG 1.1//EN" "http://www.w3.org/Graphics/SVG/1.1/DTD/svg11.dtd">
<svg width="26pt" height="22pt" viewBox="0 0 26 22" version="1.1" xmlns="http://www.w3.org/2000/svg">
<g id="#7f8890fe">
<path fill="#7f8890" opacity="1.00" d=" M 13.89 0.00 L 18.02 0.00 C 21.93 0.64 25.91 3.14 26.00 7.50 L 26.00 7.97 C 25.88 11.65 23.68 14.67 21.55 17.48 C 22.17 18.76 22.79 20.03 23.41 21.30 C 20.62 20.35 17.62 19.77 14.85 21.16 C 8.89 23.62 0.47 20.82 0.00 13.63 L 0.00 12.99 C 1.29 6.33 7.79 1.88 13.89 0.00 M 3.61 8.78 C 1.72 11.90 2.56 16.35 5.76 18.26 C 9.42 20.75 14.09 19.63 17.90 18.13 C 18.72 18.43 20.36 19.04 21.18 19.34 C 20.77 18.64 19.97 17.23 19.56 16.53 C 23.18 13.13 25.62 6.47 21.12 2.75 C 15.12 -1.14 6.69 2.90 3.61 8.78 Z" />
<path fill="#7f8890" opacity="1.00" d=" M 11.69 3.77 C 12.42 3.77 13.87 3.76 14.59 3.75 C 14.56 5.18 14.53 6.60 14.50 8.02 C 15.65 7.23 16.81 6.47 17.96 5.69 C 18.36 6.31 19.16 7.55 19.56 8.17 C 18.31 8.84 17.09 9.55 15.85 10.23 C 17.05 10.93 18.24 11.64 19.44 12.35 C 18.96 13.20 18.49 14.05 18.02 14.90 C 16.85 14.15 15.66 13.43 14.49 12.67 C 14.52 13.71 14.56 15.78 14.59 16.81 C 13.86 16.81 12.40 16.81 11.67 16.81 C 11.68 15.78 11.69 13.73 11.70 12.71 C 10.52 13.44 9.32 14.14 8.15 14.89 C 7.71 14.07 7.27 13.25 6.83 12.43 C 8.01 11.68 9.19 10.94 10.36 10.19 C 9.22 9.60 8.08 9.02 6.94 8.44 C 7.32 7.50 7.71 6.57 8.09 5.64 C 9.28 6.40 10.47 7.16 11.66 7.92 C 11.66 6.54 11.67 5.15 11.69 3.77 Z" />
</g>
</svg>
