<svg xmlns="http://www.w3.org/2000/svg" xmlns:xlink="http://www.w3.org/1999/xlink" width="32" height="32" viewBox="0 0 32 32"><defs><path id="hyija" d="M426 269.32v3.746c0 1.833-1.512 3.324-3.37 3.324-.6 0-1.087-.48-1.087-1.072a1.08 1.08 0 0 1 1.087-1.072c.66 0 1.196-.53 1.196-1.18v-3.746c0-.65-.537-1.18-1.196-1.18h-.244c-.518 0-.965-.361-1.066-.862-1.07-5.293-5.83-9.135-11.32-9.135-5.454 0-10.21 3.845-11.309 9.14-.103.5-.549.858-1.064.858h-.006l-.256-.001c-.655 0-1.191.53-1.191 1.18v3.746c0 .65.536 1.18 1.196 1.18.6 0 1.087.48 1.087 1.072v2.461c0 3.521 2.905 6.387 6.475 6.387h1.064a2.804 2.804 0 0 1 2.58-1.69h2.847c1.544 0 2.8 1.24 2.8 2.762 0 1.523-1.256 2.76-2.8 2.76h-2.848a2.803 2.803 0 0 1-2.58-1.69h-1.063c-4.77 0-8.649-3.825-8.649-8.529v-1.566c-1.326-.447-2.283-1.689-2.283-3.147v-3.746c0-1.625 1.19-2.982 2.754-3.269 1.6-5.872 7.043-10.053 13.246-10.053 6.242 0 11.69 4.183 13.263 10.057 1.557.293 2.737 1.646 2.737 3.265zm-18.05 15.918c0 .34.28.616.625.616h2.848a.621.621 0 0 0 .626-.616.622.622 0 0 0-.626-.617h-2.848a.621.621 0 0 0-.625.617zm12.23-14.046c0 5.536-4.567 10.043-10.18 10.043-5.614 0-10.18-4.507-10.18-10.043 0-5.537 4.566-10.042 10.18-10.042 5.613 0 10.18 4.505 10.18 10.042zm-2.174 0c0-4.353-3.592-7.897-8.006-7.897-4.415 0-8.007 3.544-8.007 7.897 0 4.355 3.592 7.898 8.007 7.898 4.414 0 8.006-3.543 8.006-7.898z"/></defs><g><g transform="translate(-394 -256)"><use fill="#777" xlink:href="#hyija"/></g></g></svg>