<svg xmlns="http://www.w3.org/2000/svg" width="106" height="106" viewBox="0 0 106 106"><defs><clipPath id="sn9ba"><path fill="#fff" d="M50.25.75c27.614 0 50 22.386 50 50s-22.386 50-50 50-50-22.386-50-50 22.386-50 50-50z"/></clipPath></defs><g><g><path fill="#a2e9b1" d="M55.25 5.75c27.614 0 50 22.386 50 50s-22.386 50-50 50-50-22.386-50-50 22.386-50 50-50z"/></g><g><path fill="#46c46c" d="M50.25.75c27.614 0 50 22.386 50 50s-22.386 50-50 50-50-22.386-50-50 22.386-50 50-50z"/><path fill="none" stroke="#3f5676" stroke-linecap="round" stroke-linejoin="round" stroke-miterlimit="50" stroke-width="4" d="M50.25.75c27.614 0 50 22.386 50 50s-22.386 50-50 50-50-22.386-50-50 22.386-50 50-50z" clip-path="url(&quot;#sn9ba&quot;)"/></g><g><path fill="#3d5875" d="M66.815 42.664L45.884 63.593a.471.471 0 0 1-.667 0L33.332 51.709a.471.471 0 0 1 0-.666l2.888-2.888a.472.472 0 0 1 .667 0l8.664 8.663L63.26 39.11a.471.471 0 0 1 .666 0l2.888 2.887a.471.471 0 0 1 0 .667z"/></g></g></svg>