<svg xmlns="http://www.w3.org/2000/svg" xmlns:xlink="http://www.w3.org/1999/xlink" width="50" height="50" viewBox="0 0 50 50"><defs><path id="ku48a" d="M455 1288.204v2.308c0 .411-.3.761-.706.824l-1.262.194c-.57.087-1.028.44-1.257.967a1.615 1.615 0 0 0 .146 1.579l.686 1.014a.833.833 0 0 1-.1 1.057l-1.632 1.632a.834.834 0 0 1-1.083.083l-.724-.531a1.631 1.631 0 0 0-1.6-.194 1.63 1.63 0 0 0-.995 1.269l-.136.887a.833.833 0 0 1-.824.707h-2.308a.833.833 0 0 1-.818-.675l-.231-1.203a1.612 1.612 0 0 0-1.014-1.219 1.612 1.612 0 0 0-1.57.204l-1.03.756a.836.836 0 0 1-1.083-.083l-1.632-1.633a.833.833 0 0 1-.1-1.056l.686-1.014a1.615 1.615 0 0 0 .146-1.58 1.614 1.614 0 0 0-1.257-.966l-1.262-.194a.833.833 0 0 1-.707-.824v-2.308c0-.4.284-.743.676-.818l1.203-.231a1.612 1.612 0 0 0 1.219-1.014 1.61 1.61 0 0 0-.204-1.57l-.756-1.03a.833.833 0 0 1 .083-1.083l1.633-1.632a.835.835 0 0 1 1.056-.1l1.31.886c.466.315 1.03.375 1.55.158.52-.215.879-.655.984-1.207l.299-1.554a.834.834 0 0 1 .818-.677h2.308c.411 0 .761.3.823.706l.194 1.263c.088.569.44 1.027.967 1.256.527.231 1.104.179 1.579-.146l1.014-.686a.835.835 0 0 1 1.057.1l1.632 1.632c.292.291.327.751.084 1.083l-.756 1.03a1.61 1.61 0 0 0-.204 1.57c.21.536.654.906 1.218 1.014l1.203.23c.393.077.677.42.677.82zm-1.667.69l-.526-.102a3.295 3.295 0 0 1-2.456-2.04 3.294 3.294 0 0 1 .411-3.167l.333-.453-.64-.64-.444.3c-.944.64-2.133.75-3.18.294a3.291 3.291 0 0 1-1.947-2.53l-.086-.556h-.905l-.167.878a3.302 3.302 0 0 1-1.984 2.433 3.3 3.3 0 0 1-3.122-.318l-.74-.501-.64.64.332.453c.674.92.828 2.104.411 3.167a3.293 3.293 0 0 1-2.456 2.04l-.527.101v.905l.556.085a3.292 3.292 0 0 1 2.53 1.948 3.294 3.294 0 0 1-.294 3.179l-.3.444.64.64.453-.332a3.298 3.298 0 0 1 3.167-.412 3.293 3.293 0 0 1 2.04 2.456l.101.527h.905l.028-.181a3.285 3.285 0 0 1 2.004-2.555 3.292 3.292 0 0 1 3.224.39l.148.108.64-.64-.301-.444a3.292 3.292 0 0 1-.294-3.18 3.291 3.291 0 0 1 2.53-1.947l.556-.086zm-5 .273a4.171 4.171 0 0 1-4.166 4.166 4.171 4.171 0 0 1-4.167-4.166 4.171 4.171 0 0 1 4.167-4.167 4.171 4.171 0 0 1 4.166 4.167zm-1.666 0c0-1.379-1.122-2.5-2.5-2.5a2.503 2.503 0 0 0-2.5 2.5c0 1.378 1.121 2.5 2.5 2.5 1.378 0 2.5-1.122 2.5-2.5zM417.5 1258.75a3.755 3.755 0 0 1-3.75 3.75 3.755 3.755 0 0 1-3.75-3.75 3.755 3.755 0 0 1 3.75-3.75 3.755 3.755 0 0 1 3.75 3.75zm-1.667 0c0-1.15-.934-2.083-2.083-2.083-1.15 0-2.083.934-2.083 2.083 0 1.15.934 2.083 2.083 2.083 1.15 0 2.083-.934 2.083-2.083zm29.646-2.083a.833.833 0 1 1 0 1.666.833.833 0 0 1 0-1.666zm-2.927 0a.833.833 0 1 1 0 1.666.833.833 0 0 1 0-1.666zm4.875 2.937a.833.833 0 1 1 0 1.667.833.833 0 0 1 0-1.667zm-2.958 0a.833.833 0 1 1 0 1.667.833.833 0 0 1 0-1.667zm-4.938-2.937a.833.833 0 1 1 0 1.666.833.833 0 0 1 0-1.666zm2.073 2.937a.833.833 0 1 1 0 1.667.833.833 0 0 1 0-1.667zm-5.156-2.937a.833.833 0 1 1 0 1.666.833.833 0 0 1 0-1.666zm2.104 2.937a.833.833 0 1 1 0 1.667.833.833 0 0 1 0-1.667zm-5-2.937a.833.833 0 1 1 0 1.666.833.833 0 0 1 0-1.666zm1.917 2.937a.833.833 0 1 1 0 1.667.833.833 0 0 1 0-1.667zm18.05 7.5a3.817 3.817 0 0 1 1.48 3.007v8.93h-1.978v-8.93a2.176 2.176 0 0 0-2.174-2.174h-41.695a2.176 2.176 0 0 0-2.173 2.174v9.757c0 1.199.975 2.174 2.173 2.174h18.806v1.916h-18.806c-1.198 0-2.173.6-2.173 1.799v9.07c0 1.198.975 2.173 2.173 2.173H432v2.042h-23.16a3.844 3.844 0 0 1-3.84-3.841v-9.694c0-1.224.586-1.928 1.48-2.632-.894-.704-1.48-1.783-1.48-3.008v-9.756c0-1.224.586-2.303 1.48-3.007-.894-.704-1.48-1.783-1.48-3.007v-10.257a3.844 3.844 0 0 1 3.84-3.84h42.32a3.844 3.844 0 0 1 3.84 3.84v10.257c0 1.224-.586 2.303-1.48 3.007zm-2.672-1.083a2.176 2.176 0 0 0 2.174-2.174v-9.632a2.176 2.176 0 0 0-2.174-2.173h-41.695a2.176 2.176 0 0 0-2.173 2.173v9.632c0 1.199.975 2.174 2.173 2.174zm-37.097 4.812a3.755 3.755 0 0 1 3.75 3.75 3.755 3.755 0 0 1-3.75 3.75 3.755 3.755 0 0 1-3.75-3.75 3.755 3.755 0 0 1 3.75-3.75zm0 1.667c-1.15 0-2.083.934-2.083 2.083 0 1.15.934 2.084 2.083 2.084 1.15 0 2.083-.935 2.083-2.084s-.934-2.083-2.083-2.083zm31.73-.844a.833.833 0 1 1 0 1.667.833.833 0 0 1 0-1.667zm-2.99 0a.833.833 0 1 1 0 1.667.833.833 0 0 1 0-1.667zm4.968 2.938a.833.833 0 1 1 0 1.666.833.833 0 0 1 0-1.666zm-2.958 0a.833.833 0 1 1 0 1.666.833.833 0 0 1 0-1.666zm-5-2.938a.833.833 0 1 1 0 1.667.833.833 0 0 1 0-1.667zm1.98 2.938a.833.833 0 1 1 0 1.666.833.833 0 0 1 0-1.666zm-5.032-2.938a.833.833 0 1 1 0 1.667.833.833 0 0 1 0-1.667zm2.073 2.938a.833.833 0 1 1 0 1.666.833.833 0 0 1 0-1.666zm-4.969-2.938a.833.833 0 1 1 0 1.667.833.833 0 0 1 0-1.667zm1.948 2.938a.833.833 0 1 1 0 1.666.833.833 0 0 1 0-1.666zm-21.75 12.073a3.755 3.755 0 0 1 3.75 3.75 3.755 3.755 0 0 1-3.75 3.75 3.755 3.755 0 0 1-3.75-3.75 3.755 3.755 0 0 1 3.75-3.75zm0 1.666c-1.15 0-2.083.934-2.083 2.084 0 1.149.934 2.083 2.083 2.083 1.15 0 2.083-.934 2.083-2.083 0-1.15-.934-2.084-2.083-2.084z"/><linearGradient id="ku48b" x1="430" x2="430" y1="1300" y2="1250" gradientUnits="userSpaceOnUse"><stop offset="0" stop-color="#ff8a00"/><stop offset="1" stop-color="#ffc527"/></linearGradient></defs><g><g transform="translate(-405 -1250)"><use xlink:href="#ku48a"/><use fill="url(#ku48b)" xlink:href="#ku48a"/></g></g></svg>