<svg xmlns="http://www.w3.org/2000/svg" xmlns:xlink="http://www.w3.org/1999/xlink" width="40" height="36" viewBox="0 0 40 36"><defs><path id="uh79a" d="M400.625 3914.646c0 .642-.524 1.16-1.172 1.16h-5.937c-.648 0-1.172-.518-1.172-1.16 0-.643.524-1.162 1.172-1.162h5.937c.648 0 1.172.52 1.172 1.162zm0 9.291c0 .642-.524 1.161-1.172 1.161h-5.937c-.648 0-1.172-.519-1.172-1.16 0-.643.524-1.162 1.172-1.162h5.937c.648 0 1.172.519 1.172 1.161zm-2.344-4.646c0 .642-.524 1.162-1.172 1.162h-5.937c-.648 0-1.172-.52-1.172-1.162 0-.642.524-1.161 1.172-1.161h5.937c.648 0 1.172.52 1.172 1.161zm31.719 6.97a2.333 2.333 0 0 1-2.344 2.322h-9.453a2.333 2.333 0 0 1-2.344-2.323v-1.36l-3.717 3.683 5.374 5.326a2.308 2.308 0 0 1 0 3.285l-8.203 8.13a2.358 2.358 0 0 1-3.314 0 2.308 2.308 0 0 1 0-3.285l6.546-6.487-5.374-5.326a2.308 2.308 0 0 1 0-3.285l9.374-9.291c1.484-1.473 4.002-.399 4.002 1.641v4.646h7.11a2.333 2.333 0 0 1 2.343 2.323zm-13.784-11.158c-.494.23-.945.525-1.328.905l-2.29 2.27-1.713-1.225-5.087 5.042a2.358 2.358 0 0 1-3.315 0 2.307 2.307 0 0 1 0-3.284l6.446-6.389a2.36 2.36 0 0 1 2.957-.29zm-9.045 18.407l-11.92 11.815a2.358 2.358 0 0 1-3.314 0 2.308 2.308 0 0 1 0-3.286l12.378-12.267a4.592 4.592 0 0 0 1.199 2.096zm14.548-23.51c1.941 0 3.515 1.56 3.515 3.484s-1.574 3.484-3.515 3.484c-1.942 0-3.516-1.56-3.516-3.484 0-1.925 1.574-3.484 3.516-3.484z"/><linearGradient id="uh79b" x1="410" x2="410" y1="3946.01" y2="3910" gradientUnits="userSpaceOnUse"><stop offset="0" stop-color="#4ab3be"/><stop offset="1" stop-color="#acdce2"/></linearGradient></defs><g><g transform="translate(-390 -3910)"><use xlink:href="#uh79a"/><use fill="url(#uh79b)" xlink:href="#uh79a"/></g></g></svg>