<svg xmlns="http://www.w3.org/2000/svg" xmlns:xlink="http://www.w3.org/1999/xlink" width="50" height="50" viewBox="0 0 50 50"><defs><path id="pmv9a" d="M1370 2822c8.284 0 15 6.715 15 15 0 8.283-6.716 15-15 15-8.284 0-15-6.717-15-15 0-8.285 6.716-15 15-15z"/><path id="pmv9b" d="M1385.028 2837.434a7.783 7.783 0 0 1-6.97 7.867.758.758 0 0 1-.16.032h-2.325a11.322 11.322 0 0 1-1.785 5.172c-.42.66-.885 1.288-1.335 1.895a16.906 16.906 0 0 0-2.024 3.192 12.46 12.46 0 0 0-.97 6.513 24.39 24.39 0 0 0 .877 4.405c.219.727.497 1.435.834 2.117.156.287.335.562.536.82.365.442.653.943.852 1.481a.833.833 0 0 1-.8 1.072h-18.9a.836.836 0 0 1-.81-.635c-.273-1.11-1.317-4.053-2.959-5.043a57.704 57.704 0 0 1-6.272 1.869 3.016 3.016 0 0 1-.619.065 2.904 2.904 0 0 1-2.738-2.092 4.479 4.479 0 0 1-.256-2.05c.028-.2.07-.393.113-.585a2 2 0 0 0 .082-.866c-.052-.207-.212-.315-.623-.55a6.138 6.138 0 0 1-.542-.338 1.15 1.15 0 0 1-.472-.783 1.896 1.896 0 0 1 .22-1.062c-.24-.184-.491-.383-.643-.519-.744-.628-.257-1.481.034-1.992.098-.172.211-.37.32-.598.095-.216.121-.458.076-.69-.032-.16-.591-.444-.86-.581a5.508 5.508 0 0 1-.789-.458 2.35 2.35 0 0 1-1.12-1.457 3.16 3.16 0 0 1 1.007-2.266 28.646 28.646 0 0 0 3.263-5.298c.05-.091.09-.188.118-.29-.001-.182-.296-.451-.581-.71a2.91 2.91 0 0 1-1.12-1.717c-.04-.437.028-.877.197-1.282.14-.368.294-.711.448-1.055.265-.54.478-1.103.636-1.684l.089-.379c.167-.79.384-1.57.65-2.334a14.269 14.269 0 0 1 3.021-4.911 9.364 9.364 0 0 1 1.052-.958c2.287-1.792 5.75-2.963 10.293-3.48.456-.054.925-.09 1.398-.116a5.55 5.55 0 0 1 2.175-.445c.019 0 .036.003.054.003a5.775 5.775 0 0 1 5.346-3.772 5.657 5.657 0 0 1 3.878 1.568 6.583 6.583 0 0 1 5.121-2.51 6.832 6.832 0 0 1 6.683 6.957c0 .236-.017.47-.04.703a7.769 7.769 0 0 1 6.34 7.775zm-11.153 7.899h-5.952l-8.279 5.686a.834.834 0 0 1-1.176-1.134l2.9-4.552h-5.975a.814.814 0 0 1-.106-.022c-.113.009-.225.022-.34.022a5.909 5.909 0 0 1-5.784-6.015 6.053 6.053 0 0 1 2.867-5.186 6.134 6.134 0 0 1 1.018-5.041c-3.628.536-6.4 1.531-8.241 2.972-.31.243-.6.507-.87.793a12.612 12.612 0 0 0-2.666 4.342c-.241.697-.438 1.41-.59 2.134l-.09.383a10.957 10.957 0 0 1-.737 1.986c-.141.313-.283.625-.404.944a1.456 1.456 0 0 0-.112.482c.027.197.314.459.592.712a2.694 2.694 0 0 1 1.126 1.937 2.26 2.26 0 0 1-.28 1.013 30.204 30.204 0 0 1-3.453 5.604 3.364 3.364 0 0 0-.663.989c.125.123.26.236.405.336.19.132.391.248.6.347.656.333 1.552.788 1.74 1.75.114.582.041 1.186-.207 1.726-.13.27-.26.501-.376.703l-.09.157c.3.238.69.527.858.651a.831.831 0 0 1 .16 1.19c-.09.117-.171.24-.242.37l.097.055a2.534 2.534 0 0 1 1.409 1.578c.113.546.09 1.112-.07 1.647-.033.15-.067.298-.088.448-.039.435.023.872.18 1.28a1.24 1.24 0 0 0 1.442.939 58.871 58.871 0 0 0 6.413-1.93h.001l.002-.003c.763-.258 1.455-.503 2.006-.697.538-.19.945-.333 1.158-.4 3.056-.959 3.677-2.04 3.661-2.778a.831.831 0 0 1 .815-.851l.02-.001c.452 0 .822.361.832.814.044 1.905-1.58 3.387-4.829 4.406-.202.064-.589.2-1.101.38l-.516.183a12.14 12.14 0 0 1 2.547 4.65h16.801a6.317 6.317 0 0 1-.617-.975 15.08 15.08 0 0 1-.93-2.357 25.986 25.986 0 0 1-.939-4.694 14.127 14.127 0 0 1 1.098-7.383 18.412 18.412 0 0 1 2.212-3.516c.433-.582.88-1.186 1.268-1.796a9.718 9.718 0 0 0 1.495-4.278zm-8.16-3.72l-3.64 5.715 8.722-5.992-4.447-1.904a.833.833 0 0 1-.455-1.05l1.928-5.3-6.738 7.25h3.925a.834.834 0 0 1 .704 1.282zm17.645-4.179c.09-3.255-2.411-5.999-5.663-6.214-.009 0-.016-.006-.025-.007a.787.787 0 0 1-.13-.014 1.03 1.03 0 0 1-.08-.037.81.81 0 0 1-.55-.724.768.768 0 0 1-.013-.085.732.732 0 0 1 .019-.074c0-.028 0-.055.002-.082.095-.407.142-.824.14-1.241a5.164 5.164 0 0 0-5.015-5.29 4.973 4.973 0 0 0-4.31 2.596c-.004.005-.01.008-.013.014a.873.873 0 0 1-.107.126.854.854 0 0 1-.116.122c-.005.004-.007.01-.013.014a.844.844 0 0 1-.105.046.812.812 0 0 1-.174.077 2.546 2.546 0 0 1-.318.017.844.844 0 0 1-.172-.056.798.798 0 0 1-.117-.037c-.006-.003-.009-.01-.015-.012a.828.828 0 0 1-.127-.11.826.826 0 0 1-.12-.113l-.014-.013a4.032 4.032 0 0 0-3.278-1.73 4.15 4.15 0 0 0-3.961 3.19.778.778 0 0 1-.066.147.638.638 0 0 1-.236.307c-.01.008-.023.01-.034.019a.835.835 0 0 1-.229.113l-.243.04c-.026 0-.052-.008-.078-.01-.012-.001-.023.004-.035.002a3.89 3.89 0 0 0-.518-.039 4.24 4.24 0 0 0-4.115 4.348 4.23 4.23 0 0 0 .27 1.52c.012.047.02.096.023.144a.82.82 0 0 1 .027.16.812.812 0 0 1-.028.16.48.48 0 0 1-.12.287.826.826 0 0 1-.09.13.842.842 0 0 1-.137.096.772.772 0 0 1-.116.082 4.358 4.358 0 0 0-2.529 4.015 4.24 4.24 0 0 0 4.116 4.347c.114.001.228-.006.342-.02a.808.808 0 0 1 .308.02h6.832l1.062-1.666h-4.32a.835.835 0 0 1-.61-1.4l10.842-11.667a.835.835 0 0 1 1.396.852l-3.067 8.426 5.114 2.19a.832.832 0 0 1 .143 1.452l-2.64 1.813h7.095a6.086 6.086 0 0 0 5.916-6.23z"/></defs><g><g transform="translate(-1335 -2822)"><use fill="#ffc527" xlink:href="#pmv9a"/></g><g transform="translate(-1335 -2822)"><use fill="#484847" xlink:href="#pmv9b"/></g></g></svg>