<svg xmlns="http://www.w3.org/2000/svg" xmlns:xlink="http://www.w3.org/1999/xlink" width="47" height="50" viewBox="0 0 47 50"><defs><path id="ssi1a" d="M970 2822c8.284 0 15 6.715 15 15 0 8.283-6.716 15-15 15-8.284 0-15-6.717-15-15 0-8.285 6.716-15 15-15z"/><path id="ssi1b" d="M980.225 2843.729v5.265a.747.747 0 0 1-.75.744.747.747 0 0 1-.751-.744v-5.265c0-.842-.69-1.526-1.54-1.526h-34.63a4.56 4.56 0 0 1-3.053-1.167v21.52c0 .41-.336.743-.75.743a.747.747 0 0 1-.751-.743v-24.857-.008c0-2.488 2.043-4.513 4.554-4.513h5.177c.414 0 .75.334.75.744s-.336.744-.75.744h-5.177c-1.683 0-3.051 1.355-3.053 3.022v.01c.004 1.665 1.372 3.018 3.053 3.018h34.63c1.677 0 3.04 1.35 3.04 3.013zm0 18.543v6.715c0 1.66-1.364 3.013-3.04 3.013h-34.631c-2.511 0-4.554-2.025-4.554-4.514v-2.452c0-.41.336-.744.75-.744.415 0 .751.334.751.744v2.452c0 1.67 1.37 3.026 3.053 3.026h34.63c.85 0 1.54-.684 1.54-1.525v-6.715c0-.41.336-.744.75-.744.415 0 .75.333.75.744zm0-26.767v4.3c0 .41-.336.742-.75.742a.747.747 0 0 1-.751-.743v-4.3a.844.844 0 0 0-.847-.838h-.595a.747.747 0 0 1-.751-.744c0-.41.336-.744.75-.744h.596c1.295 0 2.348 1.044 2.348 2.327zm-4.918 1.617l-2.326 2.305a.75.75 0 0 1-1.062 0 .738.738 0 0 1 0-1.052l2.327-2.305a1.487 1.487 0 0 0 0-2.115l-10.124-10.03a1.506 1.506 0 0 0-1.067-.438c-.403 0-.783.155-1.067.437l-3.249 3.219a.755.755 0 0 1-1.061 0 .74.74 0 0 1 0-1.052l3.248-3.218a3.004 3.004 0 0 1 2.129-.874c.804 0 1.56.31 2.129.874l10.123 10.03a2.967 2.967 0 0 1 0 4.219zm-18.294-8.268l-10.672 10.573a.75.75 0 0 1-1.061 0 .74.74 0 0 1 0-1.053l10.671-10.572a.756.756 0 0 1 1.062 0 .739.739 0 0 1 0 1.052zm13.56 9.006l-1.58 1.566a.751.751 0 0 1-1.062 0 .738.738 0 0 1 0-1.05l.866-.859a3.023 3.023 0 0 1-.3-.263 3.131 3.131 0 0 1-.937-2.242 3.135 3.135 0 0 1 1.237-2.505l-3.214-3.184a3.195 3.195 0 0 1-2.528 1.226 3.19 3.19 0 0 1-2.528-1.226l-10.197 10.103a.755.755 0 0 1-1.061 0 .74.74 0 0 1 0-1.052l10.912-10.811a.757.757 0 0 1 .712-.196.75.75 0 0 1 .536.504c.082.266.225.5.423.696.322.32.749.495 1.203.495a1.695 1.695 0 0 0 1.626-1.19.746.746 0 0 1 .536-.505.756.756 0 0 1 .712.196l4.645 4.602a.738.738 0 0 1 .198.705.746.746 0 0 1-.509.531 1.673 1.673 0 0 0-.703.42c-.322.318-.5.741-.5 1.191 0 .45.178.874.499 1.191.199.198.435.339.704.42a.738.738 0 0 1 .31 1.237zm-7.933 1.765a.75.75 0 0 1-.902-.555 3.723 3.723 0 0 0-3.632-2.85 3.723 3.723 0 0 0-3.632 2.85.75.75 0 0 1-.902.555.743.743 0 0 1-.56-.893 5.222 5.222 0 0 1 5.094-4 5.224 5.224 0 0 1 5.094 4c.095.4-.156.8-.56.893zm19.36 12.997v6.023c0 1.316-1.081 2.388-2.41 2.388h-6.694c-3.005 0-5.45-2.422-5.45-5.4 0-2.977 2.445-5.4 5.45-5.4h6.694c1.329 0 2.41 1.072 2.41 2.389zm-1.501 0c0-.496-.408-.9-.909-.9h-6.694c-2.177 0-3.949 1.754-3.949 3.91 0 2.158 1.772 3.913 3.949 3.913h6.694a.906.906 0 0 0 .909-.9zm-5.078 3.01c0 1.438-1.18 2.607-2.63 2.607s-2.63-1.17-2.63-2.606c0-1.437 1.18-2.606 2.63-2.606s2.63 1.17 2.63 2.606zm-1.5 0c0-.616-.507-1.118-1.13-1.118-.622 0-1.129.502-1.129 1.119s.507 1.118 1.13 1.118c.622 0 1.128-.5 1.128-1.118z"/></defs><g><g transform="translate(-938 -2822)"><use fill="#ffc527" xlink:href="#ssi1a"/></g><g transform="translate(-938 -2822)"><use fill="#484847" xlink:href="#ssi1b"/></g></g></svg>