<svg xmlns="http://www.w3.org/2000/svg" xmlns:xlink="http://www.w3.org/1999/xlink" width="50" height="50" viewBox="0 0 50 50"><defs><path id="kfvda" d="M855 3828.604v34.729c0 .92-.746 1.666-1.667 1.666h-46.666c-.92 0-1.667-.746-1.667-1.666v-34.73c0-.92.746-1.667 1.667-1.667h1.666c.46 0 .834.374.834.834 0 .46-.373 1.271-.834 1.271h-1.354v33.979h46.042v-34.042H835c-.46 0-.833-.498-.833-.959 0-.46.373-1.083.833-1.083h18.333c.92 0 1.667.747 1.667 1.668zm-43.98 25.187v-34.625a4.172 4.172 0 0 1 4.167-4.167h11.605a4.172 4.172 0 0 1 4.166 4.167v34.625a4.171 4.171 0 0 1-4.166 4.166h-11.605a4.171 4.171 0 0 1-4.166-4.166zm1.917-.25a2.5 2.5 0 0 0 2.5 2.5h11.105a2.5 2.5 0 0 0 2.5-2.5v-34.062a2.5 2.5 0 0 0-2.5-2.5h-11.105a2.5 2.5 0 0 0-2.5 2.5zm21.104-13.229v-7.667c0-.92.747-1.667 1.667-1.667h8.458c.46 0 .834.56.834 1.021 0 .46-.373.958-.834.958h-8.145V3840H850v-7.043h-1.354c-.46 0-.834-.498-.834-.958 0-.46.373-1.02.834-1.02h1.666c.92 0 1.667.746 1.667 1.666v7.667c0 .92-.746 1.667-1.667 1.667h-14.604c-.92 0-1.666-.746-1.667-1.667zm.438 4.624c0-.46.373-.896.833-.896h2.5c.46 0 .834.437.834.896 0 .46-.373 1.021-.834 1.021h-2.5c-.46 0-.833-.56-.833-1.02zm17.187 0c0 .46-.373 1.021-.833 1.021h-2.5c-.46 0-.833-.56-.833-1.02 0-.46.373-.897.833-.897h2.5c.46 0 .833.437.833.896zm-6.291 0c0 .46-.373 1.021-.834 1.021h-2.5c-.46 0-.833-.56-.833-1.02 0-.46.373-.897.834-.897h2.5c.46 0 .833.437.833.896zm-10.896 3.98c0-.46.373-.959.833-.959h2.5c.46 0 .834.498.834.96 0 .46-.373 1.02-.834 1.02h-2.5c-.46 0-.833-.56-.833-1.02zm17.187 0c0 .46-.373 1.02-.833 1.02h-2.5c-.46 0-.833-.56-.833-1.02 0-.46.373-.96.833-.96h2.5c.46 0 .833.5.833.96zm-6.291 0c0 .46-.373 1.02-.834 1.02h-2.5c-.46 0-.833-.56-.833-1.02 0-.46.373-.96.834-.96h2.5c.46 0 .833.5.833.96zm-10.896 4.041c0-.46.373-1.02.833-1.02h2.5c.46 0 .834.56.834 1.02 0 .46-.373 1.021-.834 1.021h-2.5c-.46 0-.833-.56-.833-1.02zm17.187 0c0 .46-.373 1.021-.833 1.021h-2.5c-.46 0-.833-.56-.833-1.02 0-.46.373-1.02.833-1.02h2.5c.46 0 .834.56.833 1.02zm-6.291 0c0 .46-.373 1.021-.834 1.021h-2.5c-.46 0-.833-.56-.833-1.02 0-.46.373-1.02.834-1.02h2.5c.46 0 .833.56.833 1.02zm-10.896 3.916c0-.46.373-.895.833-.895h2.5c.46 0 .834.436.834.895 0 .461-.373 1.084-.834 1.084h-2.5c-.46 0-.833-.623-.833-1.084zm17.187 0c0 .461-.373 1.084-.833 1.084h-2.5c-.46 0-.833-.623-.833-1.084 0-.46.373-.895.833-.895h2.5c.46 0 .833.436.833.895zm-6.291 0c0 .461-.373 1.084-.834 1.084h-2.5c-.46 0-.833-.623-.833-1.084 0-.46.373-.895.834-.895h2.5c.46 0 .833.436.833.895z"/><linearGradient id="kfvdb" x1="830" x2="830" y1="3865" y2="3815" gradientUnits="userSpaceOnUse"><stop offset="0" stop-color="#ff8a00"/><stop offset="1" stop-color="#ffc527"/></linearGradient></defs><g><g transform="translate(-805 -3815)"><use xlink:href="#kfvda"/><use fill="url(#kfvdb)" xlink:href="#kfvda"/></g></g></svg>