<svg xmlns="http://www.w3.org/2000/svg" xmlns:xlink="http://www.w3.org/1999/xlink" width="50" height="50" viewBox="0 0 50 50"><defs><path id="9793a" d="M813.421 1268.948c0-.46.377-.958.842-.958h23.053c.465 0 .842.498.842.958 0 .46-.377 1.052-.842 1.052h-23.053c-.465 0-.842-.592-.842-1.052zm0-7.01c0-.46.377-.959.842-.959h10.421c.465 0 .842.499.842.959 0 .46-.377 1.02-.842 1.02h-10.42c-.466 0-.843-.56-.843-1.02zm0 14.052c0-.46.377-.99.842-.99h23.053c.465 0 .842.53.842.99 0 .46-.377.99-.842.99h-23.053c-.465 0-.842-.53-.842-.99zm18 5.979c0 .46-.377.99-.842.99h-16.316c-.465 0-.842-.53-.842-.99 0-.46.377-.99.842-.99h16.316c.465 0 .842.53.842.99zm-2.526 7.01c0 .46-.378 1.021-.842 1.021h-13.79c-.465 0-.842-.56-.842-1.02 0-.46.377-1.022.842-1.022h13.79c.464 0 .842.561.842 1.021zm26.105.188c0 5.973-4.911 10.833-10.947 10.833H804.99v-50h29.306l12.69 12.155v16.48c4.82 1.134 8.014 5.42 8.014 10.532zm-19.992-27.188h8.946l-8.946-9.134zm3.187 36.042h.029c-.01-.006-.02-.006-.029 0zm-.439 0a10.75 10.75 0 0 1-.65-.487c-.021-.016-.04-.033-.059-.05a10.959 10.959 0 0 1-.798-.73 10.754 10.754 0 0 1-.613-.667c-.033-.04-.063-.08-.095-.12-.17-.207-.331-.421-.486-.641-.039-.057-.08-.112-.118-.17-.17-.25-.328-.508-.475-.772l-.09-.17a10.769 10.769 0 0 1-.353-.725c-.023-.052-.048-.104-.07-.157-.12-.283-.226-.571-.32-.865-.023-.067-.042-.136-.063-.205-.083-.273-.156-.55-.217-.831-.007-.037-.017-.073-.025-.11a10.793 10.793 0 0 1-.168-1.169c-.03-.325-.05-.653-.05-.985 0-5.974 4.91-10.834 10.947-10.834.274 0 .647.013.935.037v-14.38h-11.977v-12.01h-26.014v46.04zm.09.061c.06.043.123.084.185.125.056.034.11-.155.164-.186h-.439l.09.061zm15.47-8.915c0-4.404-3.156-8.09-7.345-8.967l-.373-.062c-.267-.044-.52-.076-.766-.099a9.255 9.255 0 0 0-.78-.04c-5.107 0-9.263 4.113-9.263 9.168 0 5.054 4.156 9.166 9.264 9.166 5.107 0 9.263-4.112 9.263-9.166zm-3.73-4.85a.828.828 0 0 1 .21 1.16l-5.232 7.44a.848.848 0 0 1-1.226.168l-4.03-3.274a.826.826 0 0 1-.117-1.173.847.847 0 0 1 1.185-.116l3.325 2.702 4.713-6.7a.847.847 0 0 1 1.172-.207z"/><linearGradient id="9793b" x1="830" x2="829.99" y1="1300" y2="1250" gradientUnits="userSpaceOnUse"><stop offset="0" stop-color="#ff8a00"/><stop offset="1" stop-color="#ffc527"/></linearGradient></defs><g><g transform="translate(-805 -1250)"><use xlink:href="#9793a"/><use fill="url(#9793b)" xlink:href="#9793a"/></g></g></svg>