<svg xmlns="http://www.w3.org/2000/svg" xmlns:xlink="http://www.w3.org/1999/xlink" width="50" height="50" viewBox="0 0 50 50"><defs><path id="chaha" d="M455 3832.968c0 9.908-8.06 17.968-17.969 17.968a17.902 17.902 0 0 1-12.191-4.78l-2.436 2.436c.432.628.666 1.372.666 2.153a3.79 3.79 0 0 1-1.118 2.698l-10.44 10.439a3.79 3.79 0 0 1-2.697 1.117 3.79 3.79 0 0 1-2.698-1.117 3.791 3.791 0 0 1-1.117-2.698c0-1.018.397-1.977 1.117-2.697l10.44-10.44a3.791 3.791 0 0 1 2.698-1.117 3.79 3.79 0 0 1 2.022.579l2.462-2.462a17.898 17.898 0 0 1-4.677-12.08c0-9.907 8.061-17.968 17.97-17.968 9.907 0 17.968 8.061 17.968 17.969zm-33.493 17.777c0-.602-.234-1.167-.66-1.593a2.235 2.235 0 0 0-1.592-.66c-.602 0-1.168.234-1.593.66l-10.44 10.439c-.425.426-.66.991-.66 1.593s.235 1.167.66 1.592c.426.426.991.661 1.593.661s1.167-.235 1.593-.66l10.44-10.44c.425-.425.66-.99.66-1.592zm31.93-17.777c0-9.047-7.36-16.406-16.406-16.406s-16.406 7.359-16.406 16.406c0 9.046 7.36 16.406 16.406 16.406 9.047 0 16.406-7.36 16.406-16.406zm-3.906-6.25a2.347 2.347 0 0 1-2.681 2.319l-5.755 10.934c.387.42.624.978.624 1.59a2.347 2.347 0 0 1-2.344 2.344 2.347 2.347 0 0 1-2.344-2.344c0-.453.13-.876.354-1.236l-3.49-4.362a2.347 2.347 0 0 1-1.78-.099l-2.344 2.344a2.346 2.346 0 0 1-2.115 3.354 2.346 2.346 0 0 1-2.344-2.344 2.346 2.346 0 0 1 3.354-2.115l2.344-2.344a2.346 2.346 0 0 1 2.115-3.353 2.346 2.346 0 0 1 2.344 2.343c0 .454-.13.878-.354 1.237l3.49 4.363a2.326 2.326 0 0 1 1.108-.106l5.755-10.935a2.333 2.333 0 0 1-.624-1.59 2.347 2.347 0 0 1 2.344-2.344 2.347 2.347 0 0 1 2.343 2.344zm-21.094 12.5a.782.782 0 1 0-1.563.002.782.782 0 0 0 1.563-.002zm4.688-4.687a.782.782 0 1 0-.002-1.565.782.782 0 0 0 .002 1.565zm7.031 7.03a.782.782 0 1 0-1.563.003.782.782 0 0 0 1.563-.003zm7.813-14.843a.782.782 0 0 0-1.563 0 .782.782 0 0 0 1.563 0z"/><linearGradient id="chahb" x1="430" x2="430" y1="3865" y2="3815" gradientUnits="userSpaceOnUse"><stop offset="0" stop-color="#ff8a00"/><stop offset="1" stop-color="#ffc527"/></linearGradient></defs><g><g transform="translate(-405 -3815)"><use xlink:href="#chaha"/><use fill="url(#chahb)" xlink:href="#chaha"/></g></g></svg>