<svg xmlns="http://www.w3.org/2000/svg" xmlns:xlink="http://www.w3.org/1999/xlink" width="50" height="32" viewBox="0 0 50 32"><defs><path id="llh7a" d="M1255 3850.689v8.449c0 .437-.35.792-.783.792h-2.559l.001.053c0 2.766-2.224 5.016-4.958 5.016s-4.958-2.25-4.958-5.016l.001-.053h-17.643l.001.053c0 2.766-2.224 5.016-4.958 5.016s-4.958-2.25-4.958-5.016l.001-.053h-4.604a1.63 1.63 0 0 1-1.618-1.637v-1.368h-2.182c-.433 0-.783-.542-.783-.98 0-.437.35-.98.783-.98h7.515c.433 0 .783.543.783.98 0 .438-.35.98-.783.98h-3.267v1.368c0 .029.023.053.052.053h4.375c.673-1.965 2.518-3.38 4.686-3.38 2.167 0 4.013 1.415 4.686 3.38h16.18v-5.967c0-.438.538-.792.97-.792.433 0 .97.354.97.792v5.967h.065c.673-1.964 2.519-3.38 4.686-3.38 2.168 0 4.013 1.416 4.686 3.38h1.61v-3.485h-.45c-1.353 0-2.516-1.113-2.516-2.482v-1.628c0-.437.413-.791.846-.791h2.434c-.332-1.04-1.296-1.92-2.433-1.92h-.002-8.925v.96c0 .437-.538.791-.97.791-.433 0-.97-.354-.97-.791v-13.926a.052.052 0 0 0-.053-.053h-29.937a.052.052 0 0 0-.053.053V3849c0 .436-.6.791-1.032.791-.433 0-.97-.355-.97-.791v-14.364a1.63 1.63 0 0 1 1.617-1.636h30.438c.892 0 1.93.734 1.93 1.636v1.368h5.585c1.813 0 3.351 1.867 3.351 3.701v.845c0 .381-.328.699-.682.775l1.357 5.24c1.98.305 3.438 2.039 3.438 4.124zm-13.049-10.744h7.308v-.052c0-.96-.773-1.93-1.723-1.93h-5.585zm0 6.072h7.923l-1.279-4.112h-6.644zm-19.414 13.966c0-1.892-1.522-3.432-3.393-3.432-1.87 0-3.392 1.54-3.392 3.432 0 1.893 1.521 3.432 3.392 3.432 1.87 0 3.393-1.54 3.393-3.432zm27.557 0c0-1.892-1.522-3.432-3.393-3.432-1.87 0-3.392 1.54-3.392 3.432 0 1.893 1.522 3.432 3.392 3.432 1.871 0 3.393-1.54 3.393-3.432zm2.903-6.832v-1.17h-1.087v.398c0 .495.148.772.637.772zm-32.235 6.832a1.63 1.63 0 0 1-1.618 1.637 1.63 1.63 0 0 1-1.618-1.637 1.63 1.63 0 0 1 1.618-1.637 1.63 1.63 0 0 1 1.618 1.637zm27.557 0a1.63 1.63 0 0 1-1.618 1.637 1.63 1.63 0 0 1-1.618-1.637 1.63 1.63 0 0 1 1.618-1.637 1.63 1.63 0 0 1 1.618 1.637zm-10.02-3.974c0 .436-.351.916-.783.916h-11.692c-.432 0-.782-.48-.782-.916 0-.439.35-1.043.783-1.043h11.69c.433 0 .783.604.783 1.043zm-20.042-3.943c0 .437-.35.917-.783.917h-10.021c-.432 0-.783-.48-.783-.917 0-.437.35-1.042.783-1.042h10.02c.433 0 .784.605.784 1.042zm13.967-10.11l-7.516 7.604a.776.776 0 0 1-1.107 0l-4.175-4.225a.799.799 0 0 1 0-1.12.777.777 0 0 1 1.107 0l3.621 3.665 6.963-7.044a.776.776 0 0 1 1.107-.001.8.8 0 0 1 0 1.12z"/><linearGradient id="llh7b" x1="1230" x2="1230" y1="3865" y2="3833" gradientUnits="userSpaceOnUse"><stop offset="0" stop-color="#ff8a00"/><stop offset="1" stop-color="#ffc527"/></linearGradient></defs><g><g transform="translate(-1205 -3833)"><use xlink:href="#llh7a"/><use fill="url(#llh7b)" xlink:href="#llh7a"/></g></g></svg>