<svg xmlns="http://www.w3.org/2000/svg" xmlns:xlink="http://www.w3.org/1999/xlink" width="50" height="50" viewBox="0 0 50 50"><defs><path id="fn3na" d="M550 3174c8.284 0 15 6.715 15 15 0 8.283-6.716 14.999-15 14.999-8.284 0-15-6.716-15-15 0-8.284 6.716-15 15-15z"/><path id="fn3nb" d="M565.833 3203.772v1.904a.831.831 0 0 1-.833.832h-10a.832.832 0 0 1-.833-.832v-1.904a5.57 5.57 0 0 1 3.128-4.95 4.164 4.164 0 0 1 2.705-7.332 4.164 4.164 0 1 1 2.705 7.332 5.57 5.57 0 0 1 3.128 4.95zm-8.333-8.092a2.5 2.5 0 1 0 5-.001 2.5 2.5 0 0 0-5 .001zm6.667 9.162v-1.07a4.173 4.173 0 0 0-4.167-3.927 4.173 4.173 0 0 0-4.167 3.927v1.07zm20.833 16.42v1.905a.831.831 0 0 1-.833.832h-10a.834.834 0 0 1-.834-.832v-1.905a5.573 5.573 0 0 1 3.128-4.95 4.163 4.163 0 0 1 2.705-7.332 4.163 4.163 0 1 1 2.705 7.332 5.573 5.573 0 0 1 3.129 4.95zm-8.334-8.09a2.502 2.502 0 0 0 4.81.956 2.501 2.501 0 1 0-4.81-.957zm6.667 9.161v-1.07a4.173 4.173 0 0 0-4.167-3.927 4.173 4.173 0 0 0-4.166 3.926v1.071zm-36.666-1.07v1.904a.83.83 0 0 1-.834.832h-10a.834.834 0 0 1-.833-.832v-1.905a5.573 5.573 0 0 1 3.128-4.95 4.163 4.163 0 0 1 2.705-7.332 4.163 4.163 0 1 1 2.705 7.332 5.573 5.573 0 0 1 3.129 4.95zm-8.334-8.091a2.502 2.502 0 0 0 4.81.956 2.501 2.501 0 1 0-4.81-.957zm6.667 9.161v-1.07a4.057 4.057 0 0 0-4.167-3.927 4.057 4.057 0 0 0-4.166 3.926v1.071zm40-36.051v1.903a.835.835 0 0 1-.834.833h-10a.835.835 0 0 1-.833-.833v-1.903a5.572 5.572 0 0 1 3.128-4.95 4.163 4.163 0 0 1 2.705-7.333 4.163 4.163 0 1 1 2.705 7.332 5.572 5.572 0 0 1 3.129 4.95zm-8.334-8.092a2.5 2.5 0 1 0 2.5-2.5 2.5 2.5 0 0 0-2.5 2.5zm6.667 9.162v-1.07a4.173 4.173 0 0 0-8.333 0v1.07zm-48.089 1.422a.834.834 0 0 1-.244-.59v-1.902a5.571 5.571 0 0 1 3.128-4.95 4.163 4.163 0 0 1 2.705-7.333 4.164 4.164 0 1 1 2.705 7.332 5.571 5.571 0 0 1 3.129 4.95v1.904a.835.835 0 0 1-.834.833h-10a.835.835 0 0 1-.589-.244zm3.09-10.584a2.5 2.5 0 1 0 2.5-2.5 2.5 2.5 0 0 0-2.5 2.5zm-1.667 9.162H545v-1.07a4.057 4.057 0 0 0-4.167-3.928 4.057 4.057 0 0 0-4.166 3.928zm35.29 25.528a1.65 1.65 0 0 1-.651 1.627 1.67 1.67 0 0 1-1.762.145l-9.538-4.873-9.55 4.873a1.67 1.67 0 0 1-1.762-.145 1.65 1.65 0 0 1-.65-1.627l1.813-10.273-7.669-7.26a1.665 1.665 0 0 1 .917-2.857l10.63-1.5 4.771-9.386a1.676 1.676 0 0 1 2.987 0l4.767 9.383 10.633 1.503a1.658 1.658 0 0 1 1.36 1.145 1.652 1.652 0 0 1-.442 1.713l-7.668 7.262zm-1.655.288l-1.8-10.271a1.658 1.658 0 0 1 .495-1.496l7.668-7.263-10.632-1.5a1.676 1.676 0 0 1-1.26-.898l-4.766-9.383-.003-.005-4.778 9.388a1.677 1.677 0 0 1-1.258.899l-10.629 1.5 7.664 7.262c.406.384.592.945.495 1.495l-1.814 10.274 9.552-4.875a1.682 1.682 0 0 1 1.527 0z"/></defs><g><g transform="translate(-535 -3174)"><use fill="#ffc527" xlink:href="#fn3na"/></g><g transform="translate(-535 -3174)"><use fill="#484847" xlink:href="#fn3nb"/></g></g></svg>