<svg xmlns="http://www.w3.org/2000/svg" xmlns:xlink="http://www.w3.org/1999/xlink" width="50" height="50" viewBox="0 0 50 50"><defs><path id="2w27a" d="M1370 2997.999c8.284 0 15 6.717 15 15 0 8.285-6.716 15-15 15-8.284 0-15-6.715-15-15 0-8.283 6.716-15 15-15z"/><path id="2w27b" d="M1385 3008.832v31.668c0 .46-.373.833-.833.833h-2.5v2.5c0 .46-.373.833-.834.833h-2.963a3.32 3.32 0 0 1-2.87 1.666h-12.5a.781.781 0 0 1-.138-.01l-9.029-1.506v2.35c0 .46-.373.833-.833.833h-16.667a.833.833 0 0 1-.833-.833v-21.667c0-.46.373-.833.833-.833h22.304l6.03-3.015v-9.485c0-.46.373-.833.833-.833h2.5v-2.5c0-.46.373-.834.833-.834h15.834c.46 0 .833.373.833.833zm-33.333 17.5h-15v20h15zm17.5-15h11.666c.46 0 .834.373.834.834v12.961a3.312 3.312 0 0 1 1.666 2.776v-18.237h-14.166zm-3.334 13.334h1.667v-7.5c0-.46.373-.833.833-.833.46 0 .834-.374.834-.834 0-.46.373-.833.833-.833h5.833c.46 0 .834.373.834.833 0 .46.373.834.833.834.46 0 .833.373.833.832v7.5H1380V3013h-14.167zm9.31-8.333h-4.452a2.514 2.514 0 0 1-1.524 1.524v6.809h7.5v-6.81a2.514 2.514 0 0 1-1.525-1.523zm4.857 21.71a3.336 3.336 0 0 1-2.23 3.102c.367.548.564 1.194.563 1.854H1380zm0-.086v-2.08a3.243 3.243 0 0 1-.564.268 3.35 3.35 0 0 1 .564 1.812zm0 .085v-.085zm1.667-10.043c0-.92-.747-1.667-1.667-1.667h-15a.833.833 0 0 1-.833-.833v-1.985l-5.461 2.731a.835.835 0 0 1-.373.087h-5v16.795l9.236 1.539H1375a1.667 1.667 0 1 0 0-3.333h-1.667a.834.834 0 0 1 0-1.667h3.334a1.667 1.667 0 0 0 0-3.334H1375a.833.833 0 1 1 0-1.666h3.333a1.667 1.667 0 1 0 0-3.333h-1.666a.834.834 0 0 1 0-1.667H1380c.92 0 1.667-.747 1.667-1.667zm1.666 11.667v-11.563a3.311 3.311 0 0 1-1.666 2.775v8.788zm-33.333 1.667a3.333 3.333 0 1 1-6.666 0 3.333 3.333 0 0 1 6.666 0zm-1.667 0a1.667 1.667 0 1 0-3.333 0 1.667 1.667 0 0 0 3.333 0z"/></defs><g><g transform="translate(-1335 -2998)"><use fill="#ffc527" xlink:href="#2w27a"/></g><g transform="translate(-1335 -2998)"><use fill="#484847" xlink:href="#2w27b"/></g></g></svg>