<svg xmlns="http://www.w3.org/2000/svg" xmlns:xlink="http://www.w3.org/1999/xlink" width="40" height="40" viewBox="0 0 40 40"><defs><path id="e3msa" d="M396.357 4054a3.948 3.948 0 0 1 3.945 3.951 3.947 3.947 0 0 1-3.945 3.95 3.948 3.948 0 0 1-3.944-3.95 3.948 3.948 0 0 1 3.944-3.95zm-6.356 19.787v-8.457c0-1.077.88-1.959 1.955-1.959h8.802c1.076 0 1.956.882 1.956 1.96v.783a4.886 4.886 0 0 0-2.934 4.473v10.253c0 .816.228 1.6.587 2.285v.457c0 1.078-.88 1.96-1.956 1.96h-4.107a1.964 1.964 0 0 1-1.956-1.96v-7.836h-.392a1.942 1.942 0 0 1-1.955-1.959zm33.674-19.786a3.948 3.948 0 0 1 3.944 3.95 3.948 3.948 0 0 1-3.944 3.95 3.948 3.948 0 0 1-3.945-3.95 3.948 3.948 0 0 1 3.945-3.95zm-4.434 9.337h8.802c1.076 0 1.956.882 1.956 1.96v8.424c0 1.078-.88 1.96-1.956 1.96h-.391v7.835c0 1.077-.88 1.959-1.956 1.959h-4.107a1.963 1.963 0 0 1-1.956-1.959v-.457c.39-.686.586-1.47.586-2.286v-10.219a4.887 4.887 0 0 0-2.933-4.473v-.784c0-1.078.88-1.96 1.955-1.96zm-14.538 5.29h10.66c1.075 0 1.955.882 1.955 1.959v10.22c0 1.077-.88 1.959-1.956 1.959h-.75v9.273c0 1.078-.88 1.959-1.955 1.959h-5.249a1.963 1.963 0 0 1-1.956-1.959v-9.24h-.75a1.963 1.963 0 0 1-1.955-1.96v-10.252c0-1.077.847-1.959 1.956-1.959zm5.313-10.71a4.535 4.535 0 0 1 4.531 4.54 4.535 4.535 0 0 1-4.53 4.538 4.535 4.535 0 0 1-4.532-4.539 4.535 4.535 0 0 1 4.531-4.538z"/><linearGradient id="e3msb" x1="410" x2="410" y1="4094" y2="4054" gradientUnits="userSpaceOnUse"><stop offset="0" stop-color="#358cf1"/><stop offset="1" stop-color="#86cffc"/></linearGradient></defs><g><g transform="translate(-390 -4054)"><use xlink:href="#e3msa"/><use fill="url(#e3msb)" xlink:href="#e3msa"/></g></g></svg>