<svg xmlns="http://www.w3.org/2000/svg" xmlns:xlink="http://www.w3.org/1999/xlink" width="19" height="18" viewBox="0 0 19 18"><defs><path id="w9aja" d="M390.836 5343.215a3.342 3.342 0 0 0-1.002-2.34 3.385 3.385 0 0 0-2.41-.984c-.085 0-.17.016-.255.016h-.05c-.103 0-.188.016-.29.033-.203.051-.424-.1-.458-.316-.05-.2.102-.42.323-.453.119-.016.237-.032.356-.05.136-.016.255-.016.374-.016.356 0 .73.05 1.07.134.729.2 1.374.568 1.9 1.086.425.435.781.953.985 1.537.153.45.237.92.237 1.404v.184c-.017.083-.017.133-.017.183a.413.413 0 0 1-.441.368.41.41 0 0 1-.373-.434c.017-.068.017-.117.05-.168v-.184zm2.291.201v-.167c0-.735-.153-1.437-.407-2.071a5.724 5.724 0 0 0-1.273-1.89 5.659 5.659 0 0 0-2.394-1.403 5.926 5.926 0 0 0-1.646-.233c-.153 0-.323 0-.493.016-.05 0-.101.016-.152.016-.12.017-.221.034-.34.05-.203.051-.424-.1-.458-.316-.051-.202.102-.418.322-.452.187-.034.374-.05.56-.067.187-.017.374-.017.56-.017a6.482 6.482 0 0 1 4.6 1.872 6.317 6.317 0 0 1 1.817 3.46c.051.35.085.7.085 1.069 0 .184 0 .367-.017.55a.41.41 0 0 1-.815-.067c0-.116.017-.217.051-.35zm3.106-.133c0 .234-.016.483-.034.734a.413.413 0 0 1-.44.369.41.41 0 0 1-.374-.435c0-.117.017-.218.017-.318v-.367c0-2.19-.9-4.16-2.343-5.582a8.118 8.118 0 0 0-5.67-2.305c-.237 0-.458.016-.695.033-.12 0-.238.017-.357.033-.118.017-.22.034-.34.05a.387.387 0 0 1-.458-.316c-.05-.202.102-.418.323-.452.255-.05.51-.083.764-.1.254-.016.51-.034.764-.034 2.444 0 4.65.97 6.263 2.557a8.586 8.586 0 0 1 2.58 6.133zm-2.19 7.535c-5.193 2.792-14.513-5.664-15.26-10.895-.288-2.12 3.226-6.666 4.482-3.826l1.341 2.958c.628 1.654-1.307 2.09-1.273 2.957.017.568 1.477 2.324 1.816 2.691.713.769 2.903 2.456 4.074 2.74.56.133 1.035-.569 1.29-.834 1.052-1.103 1.086-1.455 2.088-.92l3.004 1.588c1.155.684-.407 2.907-1.561 3.54z"/></defs><g><g transform="translate(-378 -5334)"><use fill="#ffb100" xlink:href="#w9aja"/></g></g></svg>