<svg xmlns="http://www.w3.org/2000/svg" xmlns:xlink="http://www.w3.org/1999/xlink" width="50" height="50" viewBox="0 0 50 50"><defs><path id="1i0va" d="M570 2997.999c8.284 0 15 6.717 15 15 0 8.285-6.716 15-15 15-8.284 0-15-6.715-15-15 0-8.283 6.716-15 15-15z"/><path id="1i0vb" d="M584.925 3029.242a6.646 6.646 0 0 1-5.183 5.289 6.724 6.724 0 0 1-4.722-.76l.01 11.729a2.503 2.503 0 0 1-2.502 2.499h-35.026a2.503 2.503 0 0 1-2.502-2.5v-34.988a2.504 2.504 0 0 1 2.502-2.5h11.708a6.836 6.836 0 0 1-.727-4.708 6.678 6.678 0 0 1 11.94-2.53 6.661 6.661 0 0 1 .353 7.265l11.752-.026a2.503 2.503 0 0 1 2.501 2.499v11.727a6.598 6.598 0 0 1 3.336-.897c1.987 0 3.87.883 5.138 2.41a6.662 6.662 0 0 1 1.422 5.491zm-3.666-5.316a5.01 5.01 0 0 0-5.413-.239c-.505.299-1.133.3-1.64.004a1.68 1.68 0 0 1-.844-1.453v-11.727a.834.834 0 0 0-.834-.833h-11.739a1.683 1.683 0 0 1-1.455-.845 1.613 1.613 0 0 1 .003-1.636 4.997 4.997 0 0 0-.265-5.447 5.008 5.008 0 0 0-8.955 1.884 5.038 5.038 0 0 0 .568 3.549 1.62 1.62 0 0 1-.002 1.64 1.705 1.705 0 0 1-1.473.855h-11.708a.834.834 0 0 0-.834.833v34.989c0 .46.374.832.834.833h35.026c.46 0 .833-.373.834-.833v-11.695a1.701 1.701 0 0 1 .854-1.471 1.621 1.621 0 0 1 1.642-.003 5.047 5.047 0 0 0 3.552.567 4.965 4.965 0 0 0 3.873-3.951v-.001a4.997 4.997 0 0 0-2.024-5.02zm-17.905 4.08c0 4.6-3.734 8.33-8.34 8.33-4.603-.005-8.333-3.731-8.339-8.33 0-4.602 3.734-8.331 8.34-8.331s8.34 3.73 8.34 8.33zm-1.668 0a6.669 6.669 0 0 0-6.671-6.665 6.676 6.676 0 0 0-6.672 6.664 6.668 6.668 0 0 0 6.672 6.665 6.668 6.668 0 0 0 6.671-6.665zm-3.336 0a3.334 3.334 0 0 1-3.335 3.332 3.338 3.338 0 0 1-3.336-3.333 3.334 3.334 0 0 1 3.336-3.332 3.334 3.334 0 0 1 3.335 3.332zm-1.667 0a1.667 1.667 0 1 0-3.334 0 1.667 1.667 0 0 0 3.334 0zm13.3-1.071c.032.352.043.709.043 1.07 0 .362-.011.72-.043 1.07a.835.835 0 0 1-.485.686l-3.37 1.528a11.505 11.505 0 0 1-.933 2.24l1.303 3.466a.832.832 0 0 1-.14.827c-.228.27-.472.53-.728.786a11.89 11.89 0 0 1-.789.728.837.837 0 0 1-.827.14l-3.47-1.3c-.713.388-1.465.7-2.243.932l-1.53 3.365a.833.833 0 0 1-.685.486c-.351.032-.709.042-1.071.042-.363 0-.72-.01-1.072-.042a.835.835 0 0 1-.685-.486l-1.53-3.365a11.58 11.58 0 0 1-2.242-.932l-3.47 1.3a.839.839 0 0 1-.828-.14 12.148 12.148 0 0 1-.788-.728 12.121 12.121 0 0 1-.728-.786.833.833 0 0 1-.14-.828l1.302-3.465a11.534 11.534 0 0 1-.934-2.24l-3.368-1.529a.833.833 0 0 1-.486-.684 12.072 12.072 0 0 1-.043-1.07c0-.362.011-.719.043-1.071a.83.83 0 0 1 .486-.684l3.368-1.53c.232-.777.545-1.527.934-2.239l-1.303-3.466a.832.832 0 0 1 .141-.827c.227-.27.472-.53.728-.786a11.9 11.9 0 0 1 .788-.728.835.835 0 0 1 .827-.14l3.47 1.3c.713-.389 1.465-.7 2.243-.933l1.53-3.364a.834.834 0 0 1 .685-.486c.713-.063 1.43-.063 2.143 0 .3.027.56.213.685.486l1.53 3.364c.778.232 1.53.544 2.242.933l3.47-1.3a.835.835 0 0 1 .828.14c.271.227.532.47.788.728.257.255.501.516.728.786.193.23.247.547.14.827l-1.302 3.466a11.5 11.5 0 0 1 .934 2.24l3.369 1.53a.83.83 0 0 1 .485.683zm-1.625 1.07c0-.149-.002-.297-.007-.445l-3.266-1.483a.83.83 0 0 1-.463-.548 9.82 9.82 0 0 0-1.062-2.55.833.833 0 0 1-.063-.717l1.263-3.362a16.31 16.31 0 0 0-.63-.63l-3.366 1.262a.848.848 0 0 1-.717-.062 9.848 9.848 0 0 0-2.552-1.061.839.839 0 0 1-.551-.463l-1.484-3.263c-.295-.01-.596-.01-.89 0l-1.484 3.263a.839.839 0 0 1-.551.463 9.848 9.848 0 0 0-2.552 1.06.848.848 0 0 1-.717.063l-3.366-1.261a14.678 14.678 0 0 0-.63.63l1.263 3.361a.833.833 0 0 1-.063.717 9.85 9.85 0 0 0-1.063 2.55.83.83 0 0 1-.462.548l-3.267 1.482a13.456 13.456 0 0 0 0 .892l3.266 1.481c.23.105.4.306.463.55.233.896.59 1.754 1.063 2.55.128.218.151.48.062.717l-1.263 3.362a14.166 14.166 0 0 0 .63.63l3.366-1.263a.84.84 0 0 1 .717.063 9.82 9.82 0 0 0 2.553 1.06.839.839 0 0 1 .55.464l1.484 3.262c.295.012.596.012.891 0l1.484-3.262c.104-.23.306-.4.55-.463a9.815 9.815 0 0 0 2.553-1.06.84.84 0 0 1 .717-.064l3.366 1.262a12.361 12.361 0 0 0 .63-.63l-1.263-3.361a.833.833 0 0 1 .062-.717 9.845 9.845 0 0 0 1.063-2.55.832.832 0 0 1 .463-.549l3.266-1.482c.005-.148.007-.296.007-.446z"/></defs><g><g transform="translate(-535 -2998)"><use fill="#ffc527" xlink:href="#1i0va"/></g><g transform="translate(-535 -2998)"><use fill="#484847" xlink:href="#1i0vb"/></g></g></svg>