<svg xmlns="http://www.w3.org/2000/svg" xmlns:xlink="http://www.w3.org/1999/xlink" width="40" height="40" viewBox="0 0 40 40"><defs><path id="bclna" d="M394.03 2789.652a522.875 522.875 0 0 1-3.98-.344c.81-6.755 3.956-12.002 9.754-15.453 5.995-3.574 12.268-3.706 18.706-.992-.582 1.254-1.139 2.435-1.688 3.623-10.81-4.869-22.08 2.96-22.792 13.166zm17.731 21.282c-.106-1.287-.221-2.574-.336-3.894 4.644-.516 8.444-2.533 11.278-6.206 2.85-3.69 3.816-7.903 3.12-12.575 1.343-.23 2.629-.46 3.923-.68 2.154 13.239-8.264 23.01-17.985 23.355zm-3.128-3.804c-.107 1.255-.222 2.55-.336 3.87-10.72-.87-17.83-10.051-18.133-18.208 1.286-.107 2.572-.221 3.809-.328 1.417 8.403 6.273 13.264 14.66 14.666zm10.589-29.226c.778-1.114 1.531-2.18 2.293-3.27 3.432 2.467 5.848 5.616 7.33 9.567-1.286.467-2.514.918-3.759 1.369-.598-1.574-1.368-3-2.367-4.296-.99-1.287-2.17-2.394-3.497-3.37zm-8.354 25.635h-1.638a1.06 1.06 0 0 1-1.056-1.057v-1.558a10.14 10.14 0 0 1-3.816-1.574l-1.098 1.1c-.418.409-1.081.409-1.499 0l-1.154-1.157a1.07 1.07 0 0 1 0-1.5l1.08-1.107a10.077 10.077 0 0 1-1.572-3.812h-1.556a1.06 1.06 0 0 1-1.056-1.058v-1.639a1.06 1.06 0 0 1 1.056-1.058h1.564a9.94 9.94 0 0 1 1.581-3.795l-1.114-1.115a1.07 1.07 0 0 1 0-1.5l1.155-1.165a1.067 1.067 0 0 1 1.499 0l1.122 1.115a10.023 10.023 0 0 1 3.783-1.557v-1.607a1.06 1.06 0 0 1 1.057-1.057h1.638a1.06 1.06 0 0 1 1.056 1.057v1.615c1.327.254 2.613.779 3.768 1.566l1.146-1.148a1.067 1.067 0 0 1 1.499 0l1.171 1.164a1.07 1.07 0 0 1 0 1.5l-1.146 1.148a10.03 10.03 0 0 1 1.564 3.763h1.613a1.06 1.06 0 0 1 1.057 1.057v1.64a1.06 1.06 0 0 1-1.057 1.058h-1.605a10.027 10.027 0 0 1-1.548 3.787l1.13 1.131a1.07 1.07 0 0 1 0 1.5l-1.154 1.156c-.418.41-1.082.41-1.5 0l-1.113-1.114a9.944 9.944 0 0 1-3.792 1.59v1.566c0 .582-.475 1.058-1.065 1.065zm3.03-8.69c2.13-2.13 2.122-5.59-.008-7.722-2.129-2.131-5.585-2.123-7.714.009-2.13 2.13-2.122 5.59.008 7.722a5.453 5.453 0 0 0 7.715-.008z"/><linearGradient id="bclnb" x1="410.03" x2="410.05" y1="2811" y2="2770.98" gradientUnits="userSpaceOnUse"><stop offset="0" stop-color="#fb8b3e"/><stop offset="1" stop-color="#ffbd8f"/></linearGradient></defs><g><g transform="translate(-390 -2771)"><use xlink:href="#bclna"/><use fill="url(#bclnb)" xlink:href="#bclna"/></g></g></svg>