<svg xmlns="http://www.w3.org/2000/svg" xmlns:xlink="http://www.w3.org/1999/xlink" width="33" height="40" viewBox="0 0 33 40"><defs><path id="ljh9a" d="M425.444 3121.402l-3.133 3.438c-.41.448-.984.705-1.576.705a2.143 2.143 0 0 1-1.575-.704 13.613 13.613 0 0 0-3.474-2.764 2.34 2.34 0 0 1-1.16-2.041l-.437-2.92c-3.269-1.075-5.794-1.076-9.092.002l-.448 3.049c.01.735-.441 1.516-1.167 1.906-1.268.7-2.437 1.63-3.464 2.757-.818.897-2.334.896-3.151.002l-3.126-3.43a2.382 2.382 0 0 1 0-3.184c4.244-4.655 9.89-7.218 15.901-7.218 6.013 0 11.66 2.563 15.903 7.218a2.383 2.383 0 0 1 0 3.184zm-15.901 4.161c1.013 0 1.835.814 1.835 1.819a1.826 1.826 0 0 1-1.835 1.818 1.827 1.827 0 0 1-1.835-1.818c0-1.004.822-1.819 1.835-1.819zm-7.338 0c1.013 0 1.834.814 1.834 1.819a1.826 1.826 0 0 1-1.834 1.818 1.826 1.826 0 0 1-1.835-1.818c0-1.004.821-1.819 1.835-1.819zm14.676 0c1.014 0 1.835.814 1.835 1.819a1.826 1.826 0 0 1-1.835 1.818 1.826 1.826 0 0 1-1.834-1.818c0-1.004.821-1.819 1.834-1.819zm-7.338 7.273c1.013 0 1.835.814 1.835 1.818a1.826 1.826 0 0 1-1.835 1.819 1.827 1.827 0 0 1-1.835-1.819c0-1.004.822-1.818 1.835-1.818zm-7.338 0c1.013 0 1.834.814 1.834 1.818a1.826 1.826 0 0 1-1.834 1.819 1.826 1.826 0 0 1-1.835-1.819c0-1.004.821-1.818 1.835-1.818zm14.676 0c1.014 0 1.835.814 1.835 1.818a1.826 1.826 0 0 1-1.835 1.819 1.826 1.826 0 0 1-1.834-1.819c0-1.004.821-1.818 1.834-1.818zm-7.338 7.255c1.013 0 1.835.814 1.835 1.818a1.826 1.826 0 0 1-1.835 1.818 1.826 1.826 0 0 1-1.835-1.818c0-1.004.822-1.818 1.835-1.818zm-7.338 0c1.013 0 1.834.814 1.834 1.818a1.826 1.826 0 0 1-1.834 1.818 1.826 1.826 0 0 1-1.835-1.818c0-1.004.821-1.818 1.835-1.818zm14.676 0c1.014 0 1.835.814 1.835 1.818a1.826 1.826 0 0 1-1.835 1.818 1.826 1.826 0 0 1-1.834-1.818c0-1.004.821-1.818 1.834-1.818zm-7.338 7.273c1.013 0 1.835.814 1.835 1.818a1.826 1.826 0 0 1-1.835 1.818 1.827 1.827 0 0 1-1.835-1.818c0-1.004.822-1.818 1.835-1.818z"/><linearGradient id="ljh9b" x1="409.05" x2="410.03" y1="3151" y2="3111" gradientUnits="userSpaceOnUse"><stop offset="0" stop-color="#358cf1"/><stop offset="1" stop-color="#86cffc"/></linearGradient></defs><g><g transform="translate(-393 -3111)"><use xlink:href="#ljh9a"/><use fill="url(#ljh9b)" xlink:href="#ljh9a"/></g></g></svg>