<svg xmlns="http://www.w3.org/2000/svg" xmlns:xlink="http://www.w3.org/1999/xlink" width="40" height="36" viewBox="0 0 40 36"><defs><path id="l727a" d="M990 3006.539v-1.158c0-2.949 5.203-5.339 11.622-5.339 1.124 0 2.21.074 3.238.21v11.415c-1.028.137-2.114.21-3.238.21-6.419 0-11.622-2.39-11.622-5.338zm0 5.96v-1.157c0-.375.085-.74.245-1.094 1.098 2.424 5.774 4.245 11.377 4.245 1.124 0 2.21-.074 3.238-.21v3.345c-1.028.137-2.114.21-3.238.21-6.419 0-11.622-2.39-11.622-5.339zm14.86 9.162c0 .648.148 1.273.434 1.866a24.385 24.385 0 0 1-3.672.272c-6.419 0-11.622-2.39-11.622-5.34v-1.157c0-.374.084-.74.244-1.093 1.099 2.424 5.775 4.245 11.378 4.245 1.124 0 2.21-.074 3.238-.211zm25.14-25.322v1.158c0 2.948-5.203 5.339-11.622 5.339-6.418 0-11.621-2.39-11.621-5.34v-1.157c0-2.949 5.203-5.34 11.621-5.34 6.419 0 11.622 2.391 11.622 5.34zm-.245 4.867c.16.353.245.719.245 1.094v1.157c0 2.949-5.203 5.34-11.622 5.34-6.418 0-11.621-2.391-11.621-5.34v-1.157c0-.375.084-.741.244-1.094 1.099 2.424 5.775 4.245 11.377 4.245 5.603 0 10.279-1.821 11.377-4.245zm0 5.96c.16.353.245.72.245 1.094v1.158c0 2.948-5.203 5.339-11.622 5.339-6.418 0-11.621-2.39-11.621-5.34v-1.157c0-.375.084-.74.244-1.093 1.099 2.424 5.775 4.245 11.377 4.245 5.603 0 10.279-1.821 11.377-4.245zm0 6.283c.16.353.245.719.245 1.093v1.158c0 2.949-5.203 5.34-11.622 5.34-6.418 0-11.621-2.391-11.621-5.34v-1.158c0-.374.084-.74.244-1.093 1.099 2.424 5.775 4.245 11.377 4.245 5.603 0 10.279-1.821 11.377-4.245zm0 5.96c.16.354.245.72.245 1.094v1.158c0 2.948-5.203 5.339-11.622 5.339-6.418 0-11.621-2.39-11.621-5.339v-1.158c0-.375.084-.74.244-1.093 1.099 2.424 5.775 4.245 11.377 4.245 5.603 0 10.279-1.821 11.377-4.245z"/><linearGradient id="l727b" x1="1010" x2="1010" y1="3027" y2="2991" gradientUnits="userSpaceOnUse"><stop offset="0" stop-color="#e74b3b"/><stop offset="1" stop-color="#f4707e"/></linearGradient></defs><g><g transform="translate(-990 -2991)"><use fill="#f4707e" xlink:href="#l727a"/><use fill="url(#l727b)" xlink:href="#l727a"/></g></g></svg>