<svg xmlns="http://www.w3.org/2000/svg" xmlns:xlink="http://www.w3.org/1999/xlink" width="40" height="28" viewBox="0 0 40 28"><defs><path id="nzf4a" d="M991.816 3129.514v2.972c0 .496-.4.899-.892.899a.895.895 0 0 1-.891-.899v-2.972c0-.497.399-.899.891-.899.493 0 .892.402.892.9zm3.474 0v2.972c0 .496-.399.899-.891.899a.895.895 0 0 1-.892-.899v-2.972c0-.497.4-.899.892-.899s.891.402.891.9zm3.475-1.258v5.487c0 .497-.4.9-.892.9a.895.895 0 0 1-.892-.9v-5.487c0-.496.4-.898.892-.898s.892.402.892.898zm3.474-1.485v8.458c0 .497-.4.9-.892.9a.895.895 0 0 1-.892-.9v-8.458c0-.497.4-.9.892-.9.493 0 .892.403.892.9zm3.474-2.63v13.717c0 .497-.4.9-.892.9a.895.895 0 0 1-.891-.9v-13.716c0-.497.399-.9.891-.9.493 0 .892.403.892.9zm3.474-6.23v26.177c0 .497-.399.9-.891.9a.895.895 0 0 1-.892-.9v-26.177c0-.496.4-.898.892-.898s.891.402.891.898zm3.475 2.23v21.718c0 .497-.4.899-.892.899a.895.895 0 0 1-.892-.899v-21.719c0-.496.4-.898.892-.898s.892.402.892.898zm3.474 4.457v12.803c0 .497-.4.899-.892.899a.895.895 0 0 1-.892-.899v-12.803c0-.496.4-.898.892-.898.493 0 .892.402.892.898zm3.474 2.687v7.43c0 .496-.4.899-.892.899a.895.895 0 0 1-.891-.9v-7.43c0-.496.399-.898.891-.898.493 0 .892.402.892.899zm3.474 1.143v5.144c0 .496-.399.899-.891.899a.895.895 0 0 1-.892-.899v-5.144c0-.497.4-.899.892-.899s.891.402.891.9zm3.474 1.086v2.972c0 .496-.399.899-.891.899a.895.895 0 0 1-.892-.899v-2.972c0-.497.4-.899.892-.899s.891.402.891.9zm3.475 0v2.972c0 .496-.4.899-.892.899a.895.895 0 0 1-.892-.899v-2.972c0-.497.4-.899.892-.899s.892.402.892.9z"/><linearGradient id="nzf4b" x1="1010.03" x2="1010.03" y1="3144.99" y2="3117.01" gradientUnits="userSpaceOnUse"><stop offset="0" stop-color="#ff8a00"/><stop offset="1" stop-color="#ffc527"/></linearGradient></defs><g><g transform="translate(-990 -3117)"><use xlink:href="#nzf4a"/><use fill="url(#nzf4b)" xlink:href="#nzf4a"/></g></g></svg>