<svg xmlns="http://www.w3.org/2000/svg" xmlns:xlink="http://www.w3.org/1999/xlink" width="40" height="40" viewBox="0 0 40 40"><defs><path id="ud3ra" d="M417.624 3009.527c-.039-2.188-.892-4.137-2.289-5.57a7.583 7.583 0 0 0-5.51-2.347c-.193 0-.387.04-.581.04h-.117c-.233 0-.427.04-.66.08-.465.119-.97-.24-1.047-.756-.116-.478.233-.995.737-1.075l.815-.119c.31-.04.582-.04.854-.04.814 0 1.668.12 2.444.319a9.77 9.77 0 0 1 4.345 2.586c.97 1.034 1.785 2.267 2.25 3.66.35 1.074.544 2.188.544 3.342v.437c-.039.2-.039.319-.039.438a.955.955 0 0 1-1.009.875c-.504-.04-.892-.517-.853-1.034.039-.16.039-.279.116-.398v-.438zm5.238.478v-.398c0-1.75-.35-3.421-.931-4.933a13.697 13.697 0 0 0-2.91-4.496 12.835 12.835 0 0 0-5.47-3.342 13.053 13.053 0 0 0-3.764-.557c-.35 0-.737 0-1.125.04-.117 0-.233.04-.35.04-.271.04-.504.08-.776.119-.465.12-.97-.239-1.047-.756-.117-.477.233-.995.737-1.074.427-.08.854-.12 1.28-.16.427-.04.854-.04 1.28-.04.389 0 .816 0 1.204.04 3.608.28 6.867 1.91 9.311 4.417a15.253 15.253 0 0 1 4.152 8.235c.116.836.194 1.671.194 2.546 0 .438 0 .876-.039 1.313a.956.956 0 0 1-1.009.876c-.504-.04-.892-.518-.853-1.035 0-.278.038-.517.116-.835zm7.1-.319c0 .558-.038 1.154-.077 1.75a.955.955 0 0 1-1.01.876c-.503-.04-.891-.517-.853-1.034 0-.279.04-.517.04-.756v-.875c0-5.212-2.057-9.907-5.355-13.288-3.337-3.382-7.915-5.49-12.959-5.49-.543 0-1.048.039-1.59.079-.272 0-.544.04-.815.08-.272.04-.505.079-.777.119-.465.119-.97-.239-1.047-.756-.116-.477.233-.995.737-1.074.582-.12 1.164-.2 1.746-.24.582-.039 1.164-.079 1.746-.079 5.587 0 10.63 2.308 14.317 6.088 3.647 3.74 5.897 8.911 5.897 14.6zm-5.005 17.943c-11.872 6.645-33.173-13.487-34.88-25.94-.66-5.052 7.372-15.873 10.243-9.11l3.065 7.042c1.436 3.939-2.988 4.973-2.91 7.042.039 1.353 3.376 5.53 4.152 6.405 1.63 1.83 6.634 5.849 9.311 6.525 1.28.318 2.367-1.353 2.949-1.99 2.406-2.625 2.483-3.46 4.772-2.187l6.868 3.78c2.638 1.63-.931 6.921-3.57 8.433z"/><linearGradient id="ud3rb" x1="409.96" x2="410.04" y1="3028.94" y2="2989" gradientUnits="userSpaceOnUse"><stop offset="0" stop-color="#4ab3be"/><stop offset="1" stop-color="#acdce2"/></linearGradient></defs><g><g transform="translate(-390 -2989)"><use xlink:href="#ud3ra"/><use fill="url(#ud3rb)" xlink:href="#ud3ra"/></g></g></svg>