<svg xmlns="http://www.w3.org/2000/svg" xmlns:xlink="http://www.w3.org/1999/xlink" width="22" height="23"><defs><path id="a" d="M1295 1094.99a9.8 9.8 0 0 1-.8 3.9 9.82 9.82 0 0 1-5.32 5.31 9.83 9.83 0 0 1-7.78 0 9.85 9.85 0 0 1-5.31-5.32 9.8 9.8 0 0 1-.79-3.9c0-1.35.26-2.64.79-3.88a9.83 9.83 0 0 1 5.31-5.3 9.72 9.72 0 0 1 7.78 0 9.8 9.8 0 0 1 5.32 5.3c.53 1.24.8 2.53.8 3.89zm-1.21 0a8.8 8.8 0 1 0-17.58.04 8.8 8.8 0 0 0 17.58-.04zm-5.11 3c.23.23.25.6 0 .85a.62.62 0 0 1-.84 0l-3.27-3.27a.57.57 0 0 1-.17-.5l-.02-.08v-5.76c0-.34.29-.6.6-.6.34 0 .64.26.64.6v5.67z"/></defs><use fill="#ffb100" xlink:href="#a" transform="translate(-1274 -1083)"/></svg>