<svg xmlns="http://www.w3.org/2000/svg" xmlns:xlink="http://www.w3.org/1999/xlink" width="17" height="24"><defs><path id="a" d="M1289.04 1008.25c0 4.95-6.27 12.23-6.53 12.54a.62.62 0 0 1-.94 0c-.27-.3-6.53-7.59-6.53-12.54 0-4 3.14-7.25 7-7.25s7 3.25 7 7.25zm-1.26 0a5.85 5.85 0 0 0-5.74-5.95 5.85 5.85 0 0 0-5.74 5.95c0 3.4 3.63 8.51 5.74 11.1 2.1-2.59 5.74-7.7 5.74-11.1zm-2.22 0a3.59 3.59 0 0 1-3.52 3.64 3.59 3.59 0 0 1-3.52-3.64 3.59 3.59 0 0 1 3.52-3.65 3.59 3.59 0 0 1 3.52 3.65zm-1.26 0a2.3 2.3 0 0 0-2.26-2.35 2.3 2.3 0 0 0-2.26 2.35 2.3 2.3 0 0 0 2.26 2.34 2.3 2.3 0 0 0 2.26-2.34z"/></defs><use fill="#ffb100" xlink:href="#a" transform="translate(-1274 -999)"/></svg>