<svg xmlns="http://www.w3.org/2000/svg" xmlns:xlink="http://www.w3.org/1999/xlink" width="24" height="33"><defs><path id="a" d="M995.02 1095.02h-1.67a8.5 8.5 0 0 0-8.33-6.67 8.5 8.5 0 0 0-8.34 6.67h-1.66a10.3 10.3 0 0 1 6.5-7.67 6.58 6.58 0 0 1-3.17-5.67c0-3.66 3-6.66 6.67-6.66 3.66 0 6.66 3 6.66 6.66 0 2.42-1.25 4.5-3.16 5.67a10.04 10.04 0 0 1 6.5 7.67zm-10-8.34c2.75 0 5-2.25 5-5s-2.25-5-5-5-5 2.25-5 5 2.25 5 5 5z"/><path id="b" d="M994.78 1092.47l-12.31 12.3a.83.83 0 0 1-1.2 0l-6-6a.83.83 0 0 1 0-1.2l12.31-12.29a.83.83 0 0 1 1.2 0l6 6a.83.83 0 0 1 0 1.2zm-6.6-6.41l-1.4 1.55 1.7 1.63c.33.34.33.86 0 1.2a.83.83 0 0 1-1.2 0l-1.6-1.64-.83.83 2.64 2.63c.34.34.34.86 0 1.2a.83.83 0 0 1-1.19 0l-2.56-2.6-.85.86 1.54 1.57c.34.34.34.85 0 1.19a.83.83 0 0 1-1.2 0l-1.57-1.6-.8.8 2.59 2.63c.34.34.34.85 0 1.19a.83.83 0 0 1-1.2 0l-2.65-2.68-.8.8 1.62 1.67c.34.34.34.85 0 1.19a.83.83 0 0 1-1.19 0l-1.79-1.76-1.32 1.3 5.76 5.91 12.09-12.05z"/></defs><use fill="#ffb100" xlink:href="#a" transform="translate(-973 -1074)"/><use fill="#ffb100" xlink:href="#b" transform="translate(-973 -1074)"/></svg>