<svg xmlns="http://www.w3.org/2000/svg" xmlns:xlink="http://www.w3.org/1999/xlink" width="781" height="369" viewBox="0 0 781 369"><defs><path id="fbm4a" d="M965.208 13098.762c105.95 0 191.84 85.89 191.84 191.84 0 105.951-85.89 191.841-191.84 191.841s-191.84-85.89-191.84-191.84c0-105.952 85.89-191.84 191.84-191.84z"/><path id="fbm4b" d="M964.416 13146.986c77.761 0 140.8 63.039 140.8 140.801 0 77.761-63.039 140.799-140.8 140.799-77.762 0-140.8-63.038-140.8-140.799 0-77.762 63.038-140.8 140.8-140.8z"/><path id="fbm4c" d="M965.296 13186.586c57.35 0 103.84 46.49 103.84 103.84 0 57.349-46.49 103.84-103.84 103.84s-103.84-46.491-103.84-103.84c0-57.35 46.49-103.84 103.84-103.84z"/><path id="fbm4d" d="M472.487 12849.164c52.975 0 95.92 42.946 95.92 95.92 0 52.976-42.945 95.921-95.92 95.921s-95.92-42.945-95.92-95.92 42.945-95.92 95.92-95.92z"/><path id="fbm4e" d="M472.09 12873.276c38.881 0 70.4 31.52 70.4 70.402 0 38.88-31.519 70.398-70.4 70.398-38.88 0-70.4-31.519-70.4-70.398 0-38.883 31.52-70.402 70.4-70.402z"/><path id="fbm4f" d="M472.53 12893.078c28.675 0 51.92 23.245 51.92 51.918 0 28.676-23.245 51.921-51.92 51.921-28.674 0-51.92-23.246-51.92-51.92 0-28.674 23.246-51.92 51.92-51.92z"/><clipPath id="fbm4g"><use fill="#fff" xlink:href="#fbm4a"/></clipPath><clipPath id="fbm4h"><use fill="#fff" xlink:href="#fbm4b"/></clipPath><clipPath id="fbm4i"><use fill="#fff" xlink:href="#fbm4c"/></clipPath><clipPath id="fbm4j"><use fill="#fff" xlink:href="#fbm4d"/></clipPath><clipPath id="fbm4k"><use fill="#fff" xlink:href="#fbm4e"/></clipPath><clipPath id="fbm4l"><use fill="#fff" xlink:href="#fbm4f"/></clipPath></defs><g><g clip-path="url(#clip-21180)" opacity=".2" transform="translate(-376 -12929)"><use fill="#fff8e4" xlink:href="#fbm4a"/><use fill="#fff" fill-opacity="0" stroke="#fff" stroke-linecap="round" stroke-linejoin="round" stroke-miterlimit="50" stroke-width="20" clip-path="url(&quot;#fbm4g&quot;)" xlink:href="#fbm4a"/></g><g clip-path="url(#clip-21180)" opacity=".6" transform="translate(-376 -12929)"><use fill="#ffc527" xlink:href="#fbm4b"/><use fill="#fff" fill-opacity="0" stroke="#fff" stroke-linecap="round" stroke-linejoin="round" stroke-miterlimit="50" stroke-width="2" clip-path="url(&quot;#fbm4h&quot;)" xlink:href="#fbm4b"/></g><g clip-path="url(#clip-21180)" transform="translate(-376 -12929)"><use fill="#f1f4f9" xlink:href="#fbm4c"/><use fill="#fff" fill-opacity="0" stroke="#fff" stroke-linecap="round" stroke-linejoin="round" stroke-miterlimit="50" stroke-width="2" clip-path="url(&quot;#fbm4i&quot;)" xlink:href="#fbm4c"/></g><g clip-path="url(#clip-21180)" opacity=".2" transform="translate(-376 -12929)"><use fill="#fff8e4" xlink:href="#fbm4d"/><use fill="#fff" fill-opacity="0" stroke="#fff" stroke-linecap="round" stroke-linejoin="round" stroke-miterlimit="50" stroke-width="20" clip-path="url(&quot;#fbm4j&quot;)" xlink:href="#fbm4d"/></g><g clip-path="url(#clip-21180)" opacity=".6" transform="translate(-376 -12929)"><use fill="#ffc527" xlink:href="#fbm4e"/><use fill="#fff" fill-opacity="0" stroke="#fff" stroke-linecap="round" stroke-linejoin="round" stroke-miterlimit="50" stroke-width="2" clip-path="url(&quot;#fbm4k&quot;)" xlink:href="#fbm4e"/></g><g clip-path="url(#clip-21180)" transform="translate(-376 -12929)"><use fill="#f1f4f9" xlink:href="#fbm4f"/><use fill="#fff" fill-opacity="0" stroke="#fff" stroke-linecap="round" stroke-linejoin="round" stroke-miterlimit="50" stroke-width="2" clip-path="url(&quot;#fbm4l&quot;)" xlink:href="#fbm4f"/></g></g></svg>