<svg xmlns="http://www.w3.org/2000/svg" xmlns:xlink="http://www.w3.org/1999/xlink" width="32" height="32" viewBox="0 0 32 32"><defs><path id="wc7wa" d="M413.05 279.991l-2.048 2.049a3.17 3.17 0 0 1 1.038.696l.068.068c1.148 1.15 1.232 2.935.187 3.981-1.046 1.047-2.83.963-3.979-.186l-.068-.07a3.16 3.16 0 0 1-.696-1.038l-2.045 2.047a1.604 1.604 0 0 1-1.239.458 1.867 1.867 0 0 1-1.203-.552l-2.372-2.374c-.122.383-.33.73-.612 1.011l-.06.06a2.541 2.541 0 0 1-1.818.734c-.763 0-1.551-.31-2.161-.92-1.149-1.15-1.233-2.936-.187-3.982l.06-.06a2.49 2.49 0 0 1 1.011-.612l-2.372-2.374c-.7-.7-.742-1.796-.094-2.444l2.147-2.15a1.114 1.114 0 0 1 1.024-.293c.41.087.746.373.897.767.096.248.244.473.439.668l.068.068c.33.331.75.527 1.183.553.403.025.77-.105 1.03-.366.26-.26.39-.627.365-1.03a1.842 1.842 0 0 0-.553-1.183l-.068-.069a1.93 1.93 0 0 0-.668-.439 1.234 1.234 0 0 1-.765-.898c-.08-.378.03-.76.292-1.024l2.15-2.151c.648-.648 1.743-.606 2.443.094l2.372 2.374c.121-.384.33-.73.612-1.012l.06-.06c.517-.517 1.223-.776 1.988-.73.738.045 1.444.37 1.99.917 1.15 1.15 1.233 2.935.188 3.981l-.06.06a2.48 2.48 0 0 1-1.011.612l2.372 2.375c.329.329.525.756.552 1.204.028.468-.139.92-.458 1.24zm-.79-1.165a.625.625 0 0 0-.188-.395l-2.482-2.483a1.201 1.201 0 0 1-.318-1.187c.114-.384.416-.664.809-.747.246-.053.458-.166.63-.337l.06-.061c.558-.559.474-1.552-.187-2.214a1.84 1.84 0 0 0-1.183-.553c-.404-.023-.77.106-1.03.367l-.06.06c-.171.17-.285.383-.337.63a1.063 1.063 0 0 1-.747.809c-.413.122-.867 0-1.185-.318l-2.482-2.483c-.208-.209-.518-.253-.675-.095l-2.048 2.049c.387.16.735.393 1.038.697l.069.068c1.148 1.149 1.232 2.935.187 3.98-1.046 1.047-2.83.963-3.98-.186l-.067-.068a3.18 3.18 0 0 1-.696-1.039l-2.045 2.046a.358.358 0 0 0-.094.281c.008.14.077.285.188.395l2.482 2.484c.318.318.44.773.317 1.186a1.062 1.062 0 0 1-.808.747 1.238 1.238 0 0 0-.63.338l-.06.06c-.558.558-.475 1.551.187 2.214.661.662 1.654.745 2.212.187l.06-.06a1.24 1.24 0 0 0 .338-.63 1.06 1.06 0 0 1 .746-.81c.106-.031.215-.046.324-.046.314 0 .625.128.862.365l.647.646 2.072-2.074a.625.625 0 1 1 .883.884l-2.072 2.074.952.953a.63.63 0 0 0 .394.188.36.36 0 0 0 .28-.094l2.149-2.15a1.113 1.113 0 0 1 1.023-.292c.41.086.746.373.898.766.095.248.243.473.438.668l.069.069c.66.662 1.653.745 2.212.187.558-.56.474-1.552-.187-2.214l-.068-.069a1.918 1.918 0 0 0-.668-.438 1.236 1.236 0 0 1-.766-.9c-.08-.377.03-.76.293-1.023l2.15-2.151a.357.357 0 0 0 .094-.281zm-5.405 2.662a.628.628 0 0 1-.625.625.625.625 0 1 1 .625-.625zm13.262-17.11a.627.627 0 0 1-1.066.442.63.63 0 0 1-.183-.441.63.63 0 0 1 .183-.443.63.63 0 0 1 .442-.183.63.63 0 0 1 .441.183.63.63 0 0 1 .183.443zm4.563 6.054c1.148 1.15 1.232 2.935.187 3.981-1.046 1.047-2.83.963-3.979-.186l-.068-.069c-.34-.34-.599-.75-.754-1.192l-2.094 2.096c-.307.307-.715.459-1.134.459-.464 0-.94-.186-1.308-.554l-2.479-2.483a1.2 1.2 0 0 1-.318-1.186 1.06 1.06 0 0 1 .809-.747c.247-.053.458-.166.63-.337l.06-.06c.26-.261.39-.628.365-1.031a1.843 1.843 0 0 0-.552-1.183c-.33-.331-.75-.528-1.183-.554-.403-.024-.77.106-1.03.366l-.06.061c-.171.17-.285.383-.337.63a1.062 1.062 0 0 1-.747.808 1.2 1.2 0 0 1-1.185-.317l-2.484-2.484c-.7-.7-.742-1.796-.094-2.444l2.093-2.095a3.189 3.189 0 0 1-1.19-.754l-.069-.068c-1.148-1.15-1.232-2.936-.187-3.982 1.046-1.046 2.83-.962 3.979.187l.068.068c.34.34.599.75.754 1.192l2.094-2.095c.647-.648 1.742-.605 2.441.094l2.33 2.33c.124-.328.316-.626.563-.873l.06-.06c1.045-1.046 2.83-.962 3.979.187 1.148 1.15 1.232 2.936.187 3.981l-.06.061a2.496 2.496 0 0 1-.873.564l2.326 2.327c.329.33.525.756.552 1.204.028.47-.139.92-.458 1.24l-2.094 2.095c.442.155.852.415 1.192.755zm-.884.883l-.068-.068a1.928 1.928 0 0 0-.76-.471 1.247 1.247 0 0 1-.822-.89 1.112 1.112 0 0 1 .286-1.055l.313-.314-2.07-2.071a.626.626 0 0 1 .884-.885l2.07 2.072 1.002-1.003a.358.358 0 0 0 .094-.28.63.63 0 0 0-.188-.396l-2.424-2.425a1.21 1.21 0 0 1-.327-1.153c.098-.375.378-.66.75-.764a1.23 1.23 0 0 0 .547-.317l.06-.06c.559-.559.475-1.552-.187-2.214-.66-.662-1.653-.746-2.212-.187l-.06.06a1.234 1.234 0 0 0-.317.548 1.066 1.066 0 0 1-.763.751 1.208 1.208 0 0 1-1.152-.328l-2.427-2.428c-.208-.208-.517-.252-.675-.094l-2.2 2.2a1.113 1.113 0 0 1-1.054.286 1.248 1.248 0 0 1-.888-.821 1.924 1.924 0 0 0-.472-.762l-.068-.068c-.662-.662-1.654-.746-2.212-.187-.559.558-.475 1.551.186 2.214l.069.068c.217.218.48.38.76.472.407.132.721.472.821.89.094.387-.013.782-.285 1.054l-2.2 2.201a.358.358 0 0 0-.093.28c.008.141.077.285.188.396l2.375 2.374c.121-.383.33-.73.612-1.011l.06-.061c.517-.516 1.223-.776 1.988-.73.738.045 1.444.37 1.99.917a3.09 3.09 0 0 1 .917 1.992c.046.766-.213 1.473-.73 1.99l-.06.06c-.281.283-.627.49-1.01.613l2.37 2.373c.11.111.255.18.394.188a.358.358 0 0 0 .281-.093l2.199-2.201a1.11 1.11 0 0 1 1.055-.286c.416.1.756.415.888.823.091.28.254.542.472.76l.068.068c.661.662 1.654.747 2.212.187.559-.558.475-1.552-.187-2.214z"/></defs><g><g transform="translate(-394 -256)"><use fill="#777" xlink:href="#wc7wa"/></g></g></svg>