<svg xmlns="http://www.w3.org/2000/svg" xmlns:xlink="http://www.w3.org/1999/xlink" width="40" height="41" viewBox="0 0 40 41"><defs><path id="lyuma" d="M793.982 1121.987v-2.988h10.005v2.988zm0-6.988v-3.02h10.005v3.02zm10.005 10.982h-14.011v-31.002h24.022v14.986h-10.011v1.038h-11.972v4.971h11.972v1.986h-11.972v5.002h11.972zm2.977-26.124c0 1.2.97 2.176 2.164 2.176a2.172 2.172 0 0 0 2.163-2.176c0-1.2-.97-2.176-2.163-2.176a2.172 2.172 0 0 0-2.164 2.176zm-5.292 0c0 1.2.97 2.176 2.163 2.176a2.172 2.172 0 0 0 2.163-2.176c0-1.2-.97-2.176-2.163-2.176a2.171 2.171 0 0 0-2.163 2.176zm-9.657 9.099h19.949v-4.971h-19.95zm1.967-3.996h17.014v3.051h-17.014zM820.99 1129l4.016-.041.04 2.055-14.093-.025.04-2 3.994.018v-1.992h-10.016v-16.03h25.034v16.03h-9.015zm6.988-3.999v-12.044h-20.982v12.044zm-13.615-19.846a.203.203 0 0 1 0-.32l4.908-3.795a.2.2 0 0 1 .308.233l-.987 2.514 1.27.004s.122.007.29.02v-.02c.107-.002 2.563-.03 4.279 1.663 1.055 1.041 1.59 2.773 1.59 4.53h-2.396c0-1.101-.285-2.23-.872-2.81-.835-.824-2.065-.952-2.44-.97h-1.721l.987 2.512a.201.201 0 0 1-.066.235.199.199 0 0 1-.242-.002zm-5.02 26.163c.05.039.078.097.078.16a.2.2 0 0 1-.078.159l-4.907 3.796a.198.198 0 0 1-.122.041.198.198 0 0 1-.12-.04.202.202 0 0 1-.066-.235l.987-2.513-1.27-.004s-.122-.006-.29-.02v.02c-.108.002-2.564.03-4.28-1.663-1.055-1.041-1.59-2.304-1.59-4.06h2.396c0 1.1.285 1.76.872 2.34.835.824 2.066.952 2.44.97h1.721l-.986-2.512a.202.202 0 0 1 .065-.235.199.199 0 0 1 .243.002z"/><linearGradient id="lyumb" x1="810.01" x2="809.98" y1="1135.47" y2="1094.98" gradientUnits="userSpaceOnUse"><stop offset="0" stop-color="#4ab3be"/><stop offset="1" stop-color="#acdce2"/></linearGradient></defs><g><g transform="translate(-790 -1095)"><use xlink:href="#lyuma"/><use fill="url(#lyumb)" xlink:href="#lyuma"/></g></g></svg>