<svg xmlns="http://www.w3.org/2000/svg" xmlns:xlink="http://www.w3.org/1999/xlink" width="35" height="40" viewBox="0 0 35 40"><defs><path id="ey21a" d="M509.353 1301.568c1.773 0 3.21 1.428 3.21 3.189 0 1.76-1.437 3.188-3.21 3.188s-3.21-1.428-3.21-3.188c0-1.761 1.437-3.189 3.21-3.189zm18.607 1.313c-1.733 3.483-.831 1.672-4.335 8.71a.258.258 0 0 1-.462 0c-2.899-5.825-2.785-5.594-4.334-8.71a.217.217 0 0 1 .037-.249.224.224 0 0 1 .249-.053l2.08.864c-.66-5.912-5.717-10.527-11.84-10.527-6.575 0-11.922 5.312-11.922 11.842 0 6.528 5.347 11.84 11.921 11.84 4.7 0 8.762-2.725 10.701-6.66l1.273 2.554c.323.658.94 1.09 1.656 1.218a16.373 16.373 0 0 1-13.63 7.29c-9.018 0-16.354-7.287-16.354-16.243 0-8.207 6.167-14.995 14.136-16.076v-1.81h-.276a2.946 2.946 0 0 1-2.956-2.936 2.946 2.946 0 0 1 2.956-2.935h4.986a2.945 2.945 0 0 1 2.955 2.935 2.945 2.945 0 0 1-2.955 2.935h-.277v1.81c1.666.226 3.251.699 4.717 1.386l1.173-1.756a2.221 2.221 0 0 1 3.072-.618 2.192 2.192 0 0 1 .622 3.051l-1.15 1.724c3.157 2.71 5.276 6.585 5.637 10.958l2.034-.846a.222.222 0 1 1 .286.303z"/><linearGradient id="ey21b" x1="510.98" x2="510" y1="1321" y2="1281" gradientUnits="userSpaceOnUse"><stop offset="0" stop-color="#358cf1"/><stop offset="1" stop-color="#86cffc"/></linearGradient></defs><g><g transform="translate(-493 -1281)"><use xlink:href="#ey21a"/><use fill="url(#ey21b)" xlink:href="#ey21a"/></g></g></svg>