<svg xmlns="http://www.w3.org/2000/svg" xmlns:xlink="http://www.w3.org/1999/xlink" width="40" height="40" viewBox="0 0 40 40"><defs><path id="hzl4a" d="M790.045 1312.69l-.043-18.183a1.249 1.249 0 0 1 1.74-1.148l16.508 7.076c.46.196.757.645.759 1.142l-.02 18.184c.002.895-.915 1.5-1.74 1.149l-16.446-7.077a1.246 1.246 0 0 1-.758-1.142zm22.969-10.711l-.023 16.828 15.008-6.616-.008-16.828zm16.942-7.567l.043 18.185c0 .497-.295.948-.753 1.145l-16.506 7.155a1.249 1.249 0 0 1-1.745-1.14l.02-18.184a1.245 1.245 0 0 1 .752-1.145l16.443-7.155a1.246 1.246 0 0 1 1.746 1.14zm-35.97-4.41l15.927 7 15.893-7.075-15.927-7zm16.395-8.896l17.468 7.678c.99.435.994 1.836.005 2.276l-17.43 7.76a1.25 1.25 0 0 1-1.013.003l-17.468-7.678c-.991-.436-.994-1.836-.006-2.276l17.431-7.76a1.245 1.245 0 0 1 1.013-.003z"/><linearGradient id="hzl4b" x1="810" x2="810" y1="1321.01" y2="1281" gradientUnits="userSpaceOnUse"><stop offset="0" stop-color="#7cc623"/><stop offset="1" stop-color="#c8e19d"/></linearGradient></defs><g><g transform="translate(-790 -1281)"><use xlink:href="#hzl4a"/><use fill="url(#hzl4b)" xlink:href="#hzl4a"/></g></g></svg>