<svg xmlns="http://www.w3.org/2000/svg" xmlns:xlink="http://www.w3.org/1999/xlink" width="40" height="40" viewBox="0 0 40 40"><defs><path id="citya" d="M494.03 1113.652a523.763 523.763 0 0 1-3.98-.344c.81-6.755 3.956-12.002 9.754-15.453 5.995-3.574 12.268-3.705 18.706-.992-.582 1.254-1.139 2.435-1.687 3.624-10.811-4.87-22.08 2.96-22.793 13.165zm17.731 21.282c-.106-1.287-.221-2.574-.336-3.894 4.644-.516 8.444-2.533 11.278-6.205 2.85-3.69 3.816-7.903 3.12-12.576 1.343-.23 2.629-.46 3.923-.68 2.154 13.239-8.264 23.01-17.985 23.355zm-3.128-3.804c-.107 1.255-.222 2.55-.336 3.87-10.72-.87-17.83-10.05-18.132-18.208 1.285-.107 2.571-.221 3.808-.328 1.417 8.403 6.273 13.264 14.66 14.666zm10.59-29.225c.777-1.115 1.53-2.18 2.292-3.27 3.432 2.467 5.848 5.615 7.33 9.566-1.286.467-2.514.918-3.759 1.369-.598-1.574-1.368-3-2.367-4.296-.99-1.287-2.17-2.394-3.497-3.37zm-8.355 25.635h-1.637a1.06 1.06 0 0 1-1.057-1.058v-1.557a10.141 10.141 0 0 1-3.816-1.575l-1.098 1.1c-.418.409-1.081.409-1.499 0l-1.154-1.157a1.07 1.07 0 0 1 0-1.5l1.08-1.107a10.078 10.078 0 0 1-1.572-3.812h-1.556a1.06 1.06 0 0 1-1.056-1.057v-1.64a1.06 1.06 0 0 1 1.056-1.058h1.564a9.944 9.944 0 0 1 1.581-3.795l-1.114-1.115a1.07 1.07 0 0 1 0-1.5l1.155-1.164a1.067 1.067 0 0 1 1.499 0l1.122 1.115a10.017 10.017 0 0 1 3.783-1.558v-1.607a1.06 1.06 0 0 1 1.057-1.057h1.638a1.06 1.06 0 0 1 1.056 1.057v1.615c1.327.254 2.613.78 3.768 1.566l1.146-1.148a1.067 1.067 0 0 1 1.499 0l1.171 1.165a1.07 1.07 0 0 1 0 1.5l-1.146 1.147a10.031 10.031 0 0 1 1.564 3.763h1.613a1.06 1.06 0 0 1 1.057 1.058v1.64a1.06 1.06 0 0 1-1.057 1.057h-1.605a10.025 10.025 0 0 1-1.548 3.787l1.13 1.131a1.07 1.07 0 0 1 0 1.5l-1.154 1.157c-.418.41-1.082.41-1.5 0l-1.113-1.115a9.94 9.94 0 0 1-3.792 1.59v1.566c0 .582-.475 1.058-1.065 1.066zm3.03-8.69c2.13-2.131 2.122-5.591-.007-7.723-2.13-2.131-5.586-2.123-7.715.009-2.13 2.131-2.121 5.59.008 7.722a5.453 5.453 0 0 0 7.715-.008z"/><linearGradient id="cityb" x1="510.03" x2="510.05" y1="1135" y2="1094.98" gradientUnits="userSpaceOnUse"><stop offset="0" stop-color="#fb8b3e"/><stop offset="1" stop-color="#ffbd8f"/></linearGradient></defs><g><g transform="translate(-490 -1095)"><use xlink:href="#citya"/><use fill="url(#cityb)" xlink:href="#citya"/></g></g></svg>