<svg xmlns="http://www.w3.org/2000/svg" xmlns:xlink="http://www.w3.org/1999/xlink" width="34" height="36" viewBox="0 0 34 36"><defs><path id="ucgna" d="M977 4242.999v29.999c-.002 1.656-1.36 2.998-3.036 3h-25.937c-1.676-.002-3.034-1.344-3.036-3v-1.987H943v-5.05h1.99v-1.962H943v-4.988h1.99v-2.056H943v-4.956h1.99v-2.025H943v-5.019h1.99v-1.956c.003-1.657 1.36-3 3.037-3h25.937c1.676 0 3.034 1.343 3.036 3zm-30.018 5.962V4246h-3.018v2.962zm0 7.012v-2.963h-3.018v2.963zm0 6.982v-2.963h-3.018v2.963zm.031 7.044v-2.995h-3.049v2.995zm23.014-28.988h-22.22a1.811 1.811 0 0 0-1.82 1.8v2.144h2.022v5.019h-2.023v2.025h2.023v4.956h-2.023v2.056h2.023v4.988h-2.023v1.962h2.023v5.05h-2.023v2.143c0 .994.816 1.801 1.822 1.801h22.219zm2.91 0h-2.009v33.944h2.01zm3.036 1.8c0-.994-1.003-1.8-2.009-1.8v33.944c1.006 0 2.01-.807 2.01-1.8zm-14.978 10.163v10.987h2.166c1.005 0 1.82.806 1.82 1.8v3.444c0 .994-.815 1.8-1.82 1.8h-3.737c-3.017-.004-5.461-2.419-5.464-5.4v-14.244c.003-2.981 2.447-5.396 5.464-5.4h3.737c1.005 0 1.82.806 1.82 1.8v3.412c0 .995-.815 1.8-1.82 1.8zm0-1.013h2.353a.603.603 0 0 0 .607-.6v-3.818c0-.332-.272-.6-.607-.6h-2.353zm-1.79-5.019c-2.346.004-4.247 1.882-4.25 4.2v14.65c.003 2.319 1.904 4.197 4.25 4.2H960zm1.79 18.032v4.987h2.353a.604.604 0 0 0 .607-.6v-3.788c0-.33-.272-.599-.607-.599z"/></defs><g><g transform="translate(-943 -4240)"><use fill="#b0abb3" xlink:href="#ucgna"/></g></g></svg>