<svg xmlns="http://www.w3.org/2000/svg" xmlns:xlink="http://www.w3.org/1999/xlink" width="35" height="31" viewBox="0 0 35 31"><defs><path id="rsm0a" d="M778 4246.604v19.768c0 .33-.268.597-.6.597h-1.394v1.446a.597.597 0 0 1-.6.595h-1.394v2.351c0 .33-.268.596-.6.596h-1.456v1.445c0 .33-.268.595-.6.595H743.6a.596.596 0 0 1-.6-.595v-19.831c0-.33.268-.598.6-.598h2.394v-2.413c0-.329.268-.595.6-.595h1.362v-1.414c0-.33.268-.596.6-.596h1.456v-1.351c0-.33.269-.596.6-.596H777.4c.332 0 .6.265.6.596zm-6.994 11.362h-26.994v14.996h26.994zm0-3.987h-26.994v2.983h26.994zm1.994-3.01h-25.994v2.004h24.35c.332 0 .6.267.6.598v17.382H773zm1.994-2.01H749v1.006h24.412c.332 0 .6.266.6.595v17.477h.982zm1.993-1.946h-26.025v.942h24.444c.332 0 .6.267.6.596v17.445h.981zm-31.993 7.94h1.012v1.035h-1.012zm1.962 0H748v1.035h-1.044zm2.056 0h.982v1.035h-.982zm12.994-11.955h.981v1.005h-.981zm1.994 0h1.012v1.005H764zm1.962 0h1.044v1.005h-1.044z"/></defs><g><g transform="translate(-743 -4243)"><use fill="#b0abb3" xlink:href="#rsm0a"/></g></g></svg>