<svg xmlns="http://www.w3.org/2000/svg" xmlns:xlink="http://www.w3.org/1999/xlink" width="36" height="36" viewBox="0 0 36 36"><defs><path id="vqgpa" d="M1377.948 4256.211a.6.6 0 0 1-.599.583h-.017a.6.6 0 0 1-.583-.616c.114-4.055-1.422-7.982-4.21-10.774-2.79-2.792-6.72-4.32-10.761-4.216-.326.023-.607-.25-.616-.582a.602.602 0 0 1 .582-.618c4.379-.13 8.62 1.542 11.642 4.567 3.022 3.024 4.684 7.273 4.562 11.656zm-4.796-.035c.094-3.124-1.057-6.121-3.157-8.226-2.055-2.057-5.053-3.216-8.224-3.16h-.01a.6.6 0 0 1-.01-1.2c3.519-.042 6.81 1.227 9.092 3.512 2.333 2.337 3.612 5.657 3.508 9.111a.6.6 0 0 1-.599.582h-.019a.6.6 0 0 1-.581-.619zm-11.99-8.385a.6.6 0 0 1 .599-.6c1.525 0 4.403.319 6.538 2.457 2.136 2.14 2.455 5.02 2.455 6.547a.6.6 0 1 1-1.2 0c0-1.342-.273-3.864-2.102-5.698-1.83-1.832-4.352-2.105-5.69-2.105a.6.6 0 0 1-.6-.6zm13.026 20.948a.6.6 0 0 1 0 .848l-1.68 1.684a.596.596 0 0 1-.848 0 .6.6 0 0 1 0-.849l1.256-1.259-5.984-5.992-2.992 2.997c-1.911 1.913-5.687 1.995-9.814-2.138-3.822-3.826-4.036-7.351-2.53-9.371l-4.73-4.738a.6.6 0 0 1 .849-.848l5.122 5.13a.6.6 0 0 1 0 .85c-1.488 1.49-1.405 4.582 2.136 8.128 3.542 3.547 6.63 3.628 8.12 2.138l3.415-3.42a.615.615 0 0 1 .848 0zm-3.415 3.42a.599.599 0 0 1 0 .85c-1.99 1.99-4.101 2.99-6.307 2.99-1.086 0-2.193-.243-3.32-.727-.167-.066-4.44-1.819-10.437-7.822-5.995-6.003-7.746-10.282-7.819-10.462-1.734-3.468-1.083-6.27 2.269-9.625l3.415-3.42a.617.617 0 0 1 .848 0l6.833 6.84a.6.6 0 0 1 0 .85l-1.709 1.71a.6.6 0 0 1-.848-.85l1.284-1.286-5.984-5.99-2.991 2.995c-2.957 2.958-3.523 5.282-2.023 8.285.036.087 1.773 4.296 7.573 10.104 5.823 5.83 10.005 7.546 10.046 7.562 2.82 1.209 5.399.689 7.889-1.59l-4.691-4.696a.6.6 0 0 1 .847-.848z"/></defs><g><g transform="translate(-1342 -4240)"><use fill="#b0abb3" xlink:href="#vqgpa"/></g></g></svg>