<svg xmlns="http://www.w3.org/2000/svg" xmlns:xlink="http://www.w3.org/1999/xlink" width="36" height="30" viewBox="0 0 36 30"><defs><path id="hjdla" d="M550.039 4244.258c.656.715.974 1.712.974 3.048v21.385c0 1.336-.318 2.332-.974 3.048-.778.847-1.823 1.259-3.517 1.259s-2.77-.412-3.548-1.26c-.655-.715-.974-1.711-.974-3.047v-21.385c0-1.336.319-2.333.974-3.048.778-.847 1.854-1.26 3.548-1.26s2.74.413 3.517 1.26zm-.03 24.62v-21.76c0-1.625-.423-3.13-3.487-3.13s-3.518 1.505-3.518 3.13v21.76c0 1.627.454 3.132 3.518 3.132 3.065 0 3.487-1.505 3.487-3.132zm27.99-23.808v25.857c0 1.142-.916 2.071-2.042 2.071h-20.928c-1.126 0-2.043-.929-2.043-2.07v-25.858c0-1.143.917-2.071 2.043-2.071h20.928c1.126 0 2.043.928 2.043 2.07zm-1.003 26.014v-26.202a.89.89 0 0 0-.883-.894h-21.24a.89.89 0 0 0-.883.894v26.202a.89.89 0 0 0 .883.894h21.24a.89.89 0 0 0 .883-.894zM559 4266.986h-1.986v-.988H559zm10.001 0h-2.018v-.988h2.018zm-5 0h-1.987v-.988h1.986zm-5.001-3.993h-1.986v-.989H559zm9.97 0h-1.987v-.989h1.987zm-4.97 0h-1.986v-.989h1.986zm-5-4.025h-1.986v-.926H559zm9.97 0h-1.987v-.926h1.987zm-4.97 0h-1.986v-.926h1.986zm9.988-.337v7.736c0 .325-.26.588-.58.588h-2.424v-.957h2v-6.999h-2v-.957h2.424c.32 0 .58.264.58.589zm.979-12.033v6.77c0 .325-.26.589-.58.589h-14.39v-.958h13.997v-6H556.96v6h.998v.958h-1.422a.584.584 0 0 1-.58-.589v-6.77c0-.324.26-.587.58-.587h17.852c.32 0 .58.263.58.587z"/></defs><g><g transform="translate(-542 -4243)"><use fill="#fff" xlink:href="#hjdla"/></g></g></svg>