<svg xmlns="http://www.w3.org/2000/svg" xmlns:xlink="http://www.w3.org/1999/xlink" width="36" height="36" viewBox="0 0 36 36"><defs><path id="1mgma" d="M1177.54 4275.998h-35.081a.46.46 0 0 1-.46-.46v-35.08a.46.46 0 0 1 .46-.46h35.082a.46.46 0 0 1 .459.46v35.08a.46.46 0 0 1-.46.46zm-.553-1.014v-16.02h-5.355a.459.459 0 0 1-.393-.698.45.45 0 0 1 .07-.122 3.21 3.21 0 0 0 .698-1.996 3.245 3.245 0 0 0-3.237-3.229 3.243 3.243 0 0 0-3.236 3.243 3.22 3.22 0 0 0 .698 1.982c.03.037.053.078.07.121a.46.46 0 0 1-.393.7h-5.98v4.263a4.102 4.102 0 0 1 1.826-.424h.052a4.164 4.164 0 0 1 0 8.328h-.052a4.103 4.103 0 0 1-1.826-.424v4.276zm-34.006 0h16.027v-5.11c0-.019 0-.036.003-.053a.46.46 0 0 1 .75-.341 3.197 3.197 0 0 0 2.023.732c1.766-.013 3.208-1.468 3.208-3.243a3.247 3.247 0 0 0-3.214-3.243c-.74.004-1.44.257-2.017.73a.457.457 0 0 1-.75-.34.48.48 0 0 1-.003-.053v-5.098h-4.034c.27.558.41 1.17.41 1.807v.026a4.165 4.165 0 0 1-4.155 4.165 4.165 4.165 0 0 1-4.155-4.165v-.026c0-.636.14-1.247.41-1.807h-4.503zm5.779-16.316a.444.444 0 0 1-.07.122 3.214 3.214 0 0 0-.698 1.997 3.245 3.245 0 0 0 3.237 3.228c1.778 0 3.23-1.45 3.236-3.232a3.212 3.212 0 0 0-.698-1.993.441.441 0 0 1-.07-.122.46.46 0 0 1 .394-.699h4.917v-5.107a4.094 4.094 0 0 1-1.827.424h-.043a4.164 4.164 0 0 1-.008-8.328l.029.001h.022c.643 0 1.262.144 1.827.423v-4.4h-16.027v16.987h5.386a.459.459 0 0 1 .393.699zm23.756-.699h4.471v-16.987h-17.058v5.236a.477.477 0 0 1-.003.051.458.458 0 0 1-.75.342 3.2 3.2 0 0 0-2.023-.732c-1.766.012-3.208 1.467-3.208 3.243a3.25 3.25 0 0 0 3.202 3.243 3.194 3.194 0 0 0 2.03-.731.459.459 0 1 1 .75.342.47.47 0 0 1 .002.051v5.942h5.097a4.136 4.136 0 0 1-.41-1.792v-.04a4.164 4.164 0 0 1 4.155-4.165 4.164 4.164 0 0 1 4.155 4.164v.026c0 .637-.14 1.248-.41 1.807z"/></defs><g><g transform="translate(-1142 -4240)"><use fill="#b0abb3" xlink:href="#1mgma"/></g></g></svg>