<svg xmlns="http://www.w3.org/2000/svg" xmlns:xlink="http://www.w3.org/1999/xlink" width="19" height="15"><defs><path id="a" d="M635.5 1139h2.5l-2.03 3H634zm13 0l1.5 3h-2l-2-3zm-1.5-5.47a2 2 0 0 1 2 2v1a2 2 0 0 1-3.71 1.03c.45-.65.71-1.43.71-2.28v-1c0-.16 0-.31-.03-.47a2 2 0 0 1 1.03-.28zm-10 5a2 2 0 0 1-2-2v-1a2 2 0 0 1 3.03-1.72c-.02.16-.03.31-.03.47v1c0 .85.26 1.63.71 2.28a2 2 0 0 1-1.71.97zm5-7.53a3 3 0 0 1 3 3v1c0 1.66-1.34 3.5-3 3.5s-3-1.84-3-3.5v-1a3 3 0 0 1 3-3zm3 8l2 3h-10.03l2-3z"/></defs><use fill="#263139" xlink:href="#a" transform="translate(-632 -1129)"/></svg>