<svg xmlns="http://www.w3.org/2000/svg" xmlns:xlink="http://www.w3.org/1999/xlink" width="15" height="15"><defs><path id="a" d="M671.54 2170.3l-.07-.13c-.2-.44-2.6-1.1-2.79-1.11l-.15.01c-.3.05-.61.3-1.24.82a.4.4 0 0 1-.45.05c-.82-.43-1.82-1.3-2.32-1.83a8.21 8.21 0 0 1-1.51-2.25c-.06-.15 0-.3.11-.41.71-.6 1.02-.9 1.05-1.21.01-.19-.4-2.52-.84-2.74l-.12-.08c-.28-.17-.7-.42-1.16-.33-.11.03-.22.06-.32.12-.3.18-1.08.68-1.42 1.33-.21.4-.31 4.1 2.62 7.23 2.9 3.1 6.48 3.23 7 3.12h.02l.04-.01c.73-.25 1.34-.9 1.58-1.17.43-.5.14-1.08-.03-1.41z"/></defs><use fill="#7f8890" xlink:href="#a" transform="translate(-658 -2159)"/></svg>