<svg xmlns="http://www.w3.org/2000/svg" xmlns:xlink="http://www.w3.org/1999/xlink" width="36" height="31" viewBox="0 0 36 31"><defs><path id="jm6ba" d="M803.655 6171.447l-.073-1.194c0-1.246 1.585-2.253 3.245-2.253 1.615 0 2.965.962 3.039 2.156l.088.716a.363.363 0 0 1-.443.403 7.804 7.804 0 0 0-1.94-.239c-1.172 0-2.36.261-3.407.731-.228.105-.487-.06-.509-.32zm14.39 21.525c0 3.327-3.452 6.028-7.685 6.028-4.241 0-7.686-2.701-7.686-6.028v-2.754a6.28 6.28 0 0 1-2.625.552c-.967 0-1.874-.2-2.633-.559v2.76c0 3.328-3.445 6.029-7.686 6.029-4.24 0-7.685-2.701-7.685-6.028 0-.232.022-.456.052-.68l.036-.216c0-.015.008-.03.008-.045l1.364-7.013c.177-1.619 1.343-3.037 3.04-3.902l.648-5.096c0-2.163 2.42-3.932 5.318-3.932 2.891 0 5.657 1.761 5.657 3.924 0 .113-.007.217-.022.322l-.037.559a5.58 5.58 0 0 1 1.94-.336c.693 0 1.35.12 1.925.329l-.037-.552a2.342 2.342 0 0 1-.022-.322c0-2.17 2.758-3.924 5.657-3.924 2.898 0 5.317 1.769 5.317 3.932l.65 5.096c1.696.873 2.861 2.283 3.038 3.902l1.365 7.013c0 .015.007.03.007.045l.037.216c.03.224.052.448.059.68zm-22.776 0c0-2.09-2.537-3.858-5.539-3.858s-5.539 1.76-5.539 3.858c0 2.088 2.537 3.857 5.54 3.857 3.001 0 5.538-1.769 5.538-3.857zm7.066-5.723c0-.888-1.025-1.612-2.286-1.612-1.262 0-2.287.724-2.287 1.612 0 .888 1.025 1.611 2.287 1.611 1.26 0 2.286-.723 2.286-1.611zm13.556 5.723c0-2.09-2.537-3.858-5.539-3.858s-5.539 1.76-5.539 3.858c0 2.088 2.537 3.857 5.54 3.857 3.001 0 5.538-1.769 5.538-3.857zm-25.777-22.093l.088-.716c.081-1.193 1.424-2.156 3.039-2.156 1.66 0 3.245 1.007 3.245 2.253l-.073 1.194a.358.358 0 0 1-.502.313 8.399 8.399 0 0 0-3.408-.73c-.67 0-1.327.081-1.94.238a.363.363 0 0 1-.45-.396z"/></defs><g><g transform="translate(-782 -6168)"><use fill="#fff" xlink:href="#jm6ba"/></g></g></svg>