<svg xmlns="http://www.w3.org/2000/svg" xmlns:xlink="http://www.w3.org/1999/xlink" width="36" height="36" viewBox="0 0 36 36"><defs><path id="6vula" d="M1214.142 6189.708a.6.6 0 0 1 .15.835l-3.728 5.357a.6.6 0 0 1-.873.121l-2.871-2.357a.599.599 0 1 1 .76-.927l2.37 1.944 3.357-4.824a.597.597 0 0 1 .835-.149zm3.858 3.492c0 4.3-3.5 7.8-7.8 7.8s-7.8-3.5-7.8-7.8c0-4.301 3.5-7.8 7.8-7.8s7.8 3.499 7.8 7.8zm-1.2 0c0-3.64-2.961-6.6-6.6-6.6a6.608 6.608 0 0 0-6.6 6.6c0 3.639 2.96 6.6 6.6 6.6 3.639 0 6.6-2.961 6.6-6.6zm1.2-25.435v7.07c0 .584-.188 1.12-.502 1.565h-34.997a2.708 2.708 0 0 1-.501-1.565v-7.07a2.768 2.768 0 0 1 2.765-2.765h30.47a2.768 2.768 0 0 1 2.765 2.765zm-27 3.535c0-1.489-1.211-2.7-2.7-2.7a2.704 2.704 0 0 0-2.7 2.7c0 1.488 1.211 2.7 2.7 2.7s2.7-1.212 2.7-2.7zm12-.9a.6.6 0 1 0-1.2 0 .6.6 0 0 0 1.2 0zm1.2 1.8a.6.6 0 1 0-1.2 0 .6.6 0 0 0 1.2 0zm1.2-1.8a.6.6 0 1 0-1.2 0 .6.6 0 0 0 1.2 0zm1.2 1.8a.6.6 0 1 0-1.2 0 .6.6 0 0 0 1.2 0zm1.2-1.8a.6.6 0 1 0-1.2 0 .6.6 0 0 0 1.2 0zm1.2 1.8a.6.6 0 1 0-1.2 0 .6.6 0 0 0 1.2 0zm1.2-1.8a.6.6 0 1 0-1.2 0 .6.6 0 0 0 1.2 0zm1.2 1.8a.6.6 0 1 0-1.2 0 .6.6 0 0 0 1.2 0zm1.2-1.8a.6.6 0 1 0-1.2 0 .6.6 0 0 0 1.2 0zm1.2 1.8a.6.6 0 1 0-1.2 0 .6.6 0 0 0 1.2 0zm-9.929 28.2h-19.106a2.768 2.768 0 0 1-2.765-2.766v-7.07c0-.583.188-1.12.501-1.564h19.08a9.52 9.52 0 0 0-.981 4.2c0 2.868 1.27 5.439 3.271 7.2zm-12.871-6.3c0-1.489-1.211-2.7-2.7-2.7a2.704 2.704 0 0 0-2.7 2.7c0 1.488 1.211 2.7 2.7 2.7s2.7-1.212 2.7-2.7zm26.498-16.5c.313.444.501.98.501 1.565v7.07c0 .385-.088.746-.234 1.077-1.758-2.254-4.492-3.712-7.566-3.712a9.596 9.596 0 0 0-7.93 4.2H1182.5a2.706 2.706 0 0 1-.501-1.566v-7.07c0-.583.188-1.12.5-1.564zm-26.498 5.1c0-1.489-1.211-2.7-2.7-2.7a2.704 2.704 0 0 0-2.7 2.7c0 1.489 1.211 2.7 2.7 2.7s2.7-1.211 2.7-2.7zm12-.9a.6.6 0 1 0-1.201 0 .6.6 0 0 0 1.2 0zm2.4 0a.6.6 0 1 0-1.2 0 .6.6 0 0 0 1.2 0zm2.4 0a.6.6 0 1 0-1.201 0 .6.6 0 0 0 1.201 0zm2.4 0a.6.6 0 1 0-1.2 0 .6.6 0 0 0 1.2 0zm2.4 0a.6.6 0 1 0-1.201 0 .6.6 0 0 0 1.201 0z"/></defs><g><g transform="translate(-1182 -6165)"><use fill="#fff" xlink:href="#6vula"/></g></g></svg>