<svg xmlns="http://www.w3.org/2000/svg" xmlns:xlink="http://www.w3.org/1999/xlink" width="36" height="36" viewBox="0 0 36 36"><defs><path id="a9yea" d="M417.408 6175.506l-4.217 2.109a1.055 1.055 0 0 1-.943-1.887l4.217-2.11a1.055 1.055 0 1 1 .943 1.887zm.472 12.184c-.26.518-.889.734-1.415.472l-4.217-2.11a1.055 1.055 0 0 1 .943-1.886l4.217 2.11c.522.26.733.893.472 1.414zm-8.465-2.51v12.656a3.167 3.167 0 0 1-3.163 3.164h-21.089a3.167 3.167 0 0 1-3.163-3.164v-12.657a3.16 3.16 0 0 1 2.109-2.97v-5.608c0-6.397 5.203-11.601 11.599-11.601 6.395 0 11.598 5.204 11.598 11.601v2.11c0 .583-.471 1.054-1.054 1.054h-4.218a1.054 1.054 0 0 1-1.054-1.054v-2.11a5.279 5.279 0 0 0-5.272-5.273 5.279 5.279 0 0 0-5.273 5.273v5.414h15.817a3.167 3.167 0 0 1 3.163 3.164zm-10.544 4.218a3.167 3.167 0 0 0-3.163-3.164 3.167 3.167 0 0 0-3.164 3.164c0 1.373.884 2.533 2.11 2.97v3.358a1.054 1.054 0 1 0 2.108 0v-3.358a3.159 3.159 0 0 0 2.109-2.97zm19.12-8.508c0 .584-.471 1.055-1.054 1.055h-4.218a1.054 1.054 0 1 1 0-2.11h4.218c.583 0 1.054.472 1.054 1.055z"/></defs><g><g transform="translate(-382 -6165)"><use fill="#fff" xlink:href="#a9yea"/></g></g></svg>