<svg xmlns="http://www.w3.org/2000/svg" xmlns:xlink="http://www.w3.org/1999/xlink" width="64" height="48" viewBox="0 0 64 48"><defs><path style="fill: #ff9500;" id="rzria" d="M1087.56 1283.612c0 .786-.638 1.423-1.426 1.423h-9.655a1.425 1.425 0 0 1-1.427-1.423c0-.787.64-1.424 1.427-1.424h9.655c.788 0 1.426.637 1.426 1.424zm0-6.446c0 .786-.638 1.423-1.426 1.423h-9.655a1.425 1.425 0 0 1-1.427-1.423c0-.786.64-1.424 1.427-1.424h9.655c.788 0 1.426.638 1.426 1.424zm0-6.446c0 .786-.638 1.424-1.426 1.424h-9.655a1.425 1.425 0 0 1-1.427-1.424c0-.786.64-1.423 1.427-1.423h9.655c.788 0 1.426.637 1.426 1.423zm0-6.445c0 .786-.638 1.423-1.426 1.423h-9.655a1.425 1.425 0 0 1-1.427-1.423c0-.787.64-1.424 1.427-1.424h9.655c.788 0 1.426.637 1.426 1.424zm0-6.446c0 .786-.638 1.424-1.426 1.424h-9.655a1.425 1.425 0 0 1-1.427-1.424c0-.786.64-1.424 1.427-1.424h9.655c.788 0 1.426.638 1.426 1.424zm0-6.445c0 .786-.638 1.423-1.426 1.423h-9.655a1.425 1.425 0 0 1-1.427-1.423c0-.787.64-1.424 1.427-1.424h9.655c.788 0 1.426.637 1.426 1.424zm0-6.446c0 .787-.638 1.424-1.426 1.424h-9.655a1.425 1.425 0 0 1-1.427-1.424c0-.786.64-1.423 1.427-1.423h9.655c.788 0 1.426.637 1.426 1.423zm0-6.445c0 .786-.638 1.423-1.426 1.423h-9.655a1.425 1.425 0 0 1-1.427-1.423c0-.787.64-1.424 1.427-1.424h9.655c.788 0 1.426.637 1.426 1.424zm17.164 45.119c0 .786-.639 1.423-1.427 1.423h-9.654a1.425 1.425 0 0 1-1.427-1.423c0-.787.639-1.424 1.427-1.424h9.654c.788 0 1.427.637 1.427 1.424zm0-6.446c0 .786-.639 1.423-1.427 1.423h-9.654a1.425 1.425 0 0 1-1.427-1.423c0-.786.639-1.424 1.427-1.424h9.654c.788 0 1.427.638 1.427 1.424zm0-6.446c0 .786-.639 1.424-1.427 1.424h-9.654a1.425 1.425 0 0 1-1.427-1.424c0-.786.639-1.423 1.427-1.423h9.654c.788 0 1.427.637 1.427 1.423zm0-6.445c0 .786-.639 1.423-1.427 1.423h-9.654a1.425 1.425 0 0 1-1.427-1.423c0-.787.639-1.424 1.427-1.424h9.654c.788 0 1.427.637 1.427 1.424zm0-6.446c0 .786-.639 1.424-1.427 1.424h-9.654a1.425 1.425 0 0 1-1.427-1.424c0-.786.639-1.424 1.427-1.424h9.654c.788 0 1.427.638 1.427 1.424zm17.164 25.783c0 .786-.639 1.423-1.427 1.423h-9.654a1.425 1.425 0 0 1-1.427-1.423c0-.787.639-1.424 1.427-1.424h9.654c.788 0 1.427.637 1.427 1.424zm0-6.446c0 .786-.639 1.423-1.427 1.423h-9.654a1.425 1.425 0 0 1-1.427-1.423c0-.786.639-1.424 1.427-1.424h9.654c.788 0 1.427.638 1.427 1.424zm17.164 6.446c0 .786-.639 1.423-1.427 1.423h-9.654a1.425 1.425 0 0 1-1.427-1.423c0-.787.639-1.424 1.427-1.424h9.654c.788 0 1.427.637 1.427 1.424zm0-6.446c0 .786-.639 1.423-1.427 1.423h-9.654a1.425 1.425 0 0 1-1.427-1.423c0-.786.639-1.424 1.427-1.424h9.654c.788 0 1.427.638 1.427 1.424zm0-6.446c0 .786-.639 1.424-1.427 1.424h-9.654a1.425 1.425 0 0 1-1.427-1.424c0-.786.639-1.423 1.427-1.423h9.654c.788 0 1.427.637 1.427 1.423zm0-6.445c0 .786-.639 1.423-1.427 1.423h-9.654a1.425 1.425 0 0 1-1.427-1.423c0-.787.639-1.424 1.427-1.424h9.654c.788 0 1.427.637 1.427 1.424zm0-6.446c0 .786-.639 1.424-1.427 1.424h-9.654a1.425 1.425 0 0 1-1.427-1.424c0-.786.639-1.424 1.427-1.424h9.654c.788 0 1.427.638 1.427 1.424zm0-6.445c0 .786-.639 1.423-1.427 1.423h-9.654a1.425 1.425 0 0 1-1.427-1.423c0-.787.639-1.424 1.427-1.424h9.654c.788 0 1.427.637 1.427 1.424zm0-6.446c0 .787-.639 1.424-1.427 1.424h-9.654a1.425 1.425 0 0 1-1.427-1.424c0-.786.639-1.423 1.427-1.423h9.654c.788 0 1.427.637 1.427 1.423zm-12.508-6.445c0-.787.639-1.424 1.427-1.424h9.654c.788 0 1.427.637 1.427 1.424 0 .786-.639 1.423-1.427 1.423h-9.654a1.425 1.425 0 0 1-1.427-1.423z"/><linearGradient id="rzrib" x1="1107.05" x2="1107.05" y1="1285.04" y2="1237.07" gradientUnits="userSpaceOnUse"><stop offset="0" stop-color="#ff8a00"/><stop offset="1" stop-color="#ffb100"/></linearGradient></defs><g><g transform="translate(-1075 -1237)"><use xlink:href="#rzria"/><use fill="url(#rzrib)" xlink:href="#rzria"/></g></g></svg>