<svg xmlns="http://www.w3.org/2000/svg" xmlns:xlink="http://www.w3.org/1999/xlink" width="64" height="61" viewBox="0 0 64 61"><defs><path style="fill: #ff9500;" id="a62fa" d="M1139 1274.63a10.66 10.66 0 0 1-6.742 9.944v13.463a1.134 1.134 0 0 1-1.139 1.135 1.14 1.14 0 0 1-.785-.312 36.532 36.532 0 0 0-18.645-9.465l1.36 4.634a3.518 3.518 0 0 1-.57 3.132 3.543 3.543 0 0 1-2.855 1.424h-2.035l1.72 5.86a3.515 3.515 0 0 1-.569 3.13 3.542 3.542 0 0 1-2.856 1.425h-6.68a3.586 3.586 0 0 1-3.425-2.558l-4.284-14.59a1.14 1.14 0 0 1 2.186-.638l4.284 14.591c.16.545.67.925 1.239.925h6.68c.41 0 .788-.188 1.034-.515s.32-.74.205-1.133l-4.781-16.283h-12.326c-5.098 0-9.31-3.844-9.878-8.776h-1.684a3.452 3.452 0 0 1-3.454-3.442v-4.962a3.452 3.452 0 0 1 3.454-3.443h1.618a9.895 9.895 0 0 1 6.073-9.061 1.14 1.14 0 0 1 1.492.603 1.133 1.133 0 0 1-.605 1.487 7.63 7.63 0 0 0-4.683 7.041v10.642c0 4.214 3.44 7.641 7.667 7.641h15.057a38.891 38.891 0 0 1 18.84 4.837v-26.482c0-.626.51-1.134 1.139-1.134s1.138.508 1.138 1.134v27.844a39.018 39.018 0 0 1 3.79 2.779v-11.715-18.287V1251.628a39.045 39.045 0 0 1-3.79 2.779v6.344c0 .627-.51 1.135-1.138 1.135-.63 0-1.14-.508-1.14-1.135v-4.982a38.891 38.891 0 0 1-18.839 4.836h-13.778c-.629 0-1.139-.508-1.139-1.135s.51-1.134 1.14-1.134h13.777c9.446 0 18.417-3.573 25.26-10.061a1.14 1.14 0 0 1 1.924.822v15.59a10.66 10.66 0 0 1 6.743 9.944zm-58.93-4.183h-1.616c-.649 0-1.176.526-1.176 1.172v4.962c0 .646.527 1.172 1.176 1.172h1.617zm30.793 24.22l-1.654-5.636a37.23 37.23 0 0 0-4.135-.232h-.359l2.207 7.516h2.702c.41 0 .787-.188 1.033-.515.247-.328.322-.74.206-1.133zm25.86-20.036a8.396 8.396 0 0 0-4.466-7.443v14.886a8.396 8.396 0 0 0 4.465-7.444z"/><linearGradient id="a62fb" x1="1107" x2="1107" y1="1309" y2="1247.96" gradientUnits="userSpaceOnUse"><stop offset="0" stop-color="#ff8a00"/><stop offset="1" stop-color="#ffb100"/></linearGradient></defs><g><g transform="translate(-1075 -1248)"><use xlink:href="#a62fa"/><use fill="url(#a62fb)" xlink:href="#a62fa"/></g></g></svg>