<svg xmlns="http://www.w3.org/2000/svg" xmlns:xlink="http://www.w3.org/1999/xlink" width="64" height="64" viewBox="0 0 64 64"><defs><path style="fill: #ff9500;" id="ohvza" d="M1106.007 1291.933v16c0 .59-.477 1.067-1.065 1.067h-8.847c-10.086-.034-18.617-7.485-20.031-17.494a105.952 105.952 0 0 1-.01-28.932c1.385-10.04 9.927-17.53 20.041-17.574h8.847c.588 0 1.065.477 1.065 1.066v16c0 .59-.477 1.067-1.065 1.067h-9.037c-.474 0-.892.316-1.022.773l-.14.493a45.904 45.904 0 0 0 0 25.201l.14.493c.13.458.548.773 1.022.773h9.037c.588 0 1.065.478 1.065 1.067zm-2.129 1.067h-7.973a3.208 3.208 0 0 1-3.07-2.321l-.14-.493a48.07 48.07 0 0 1 0-26.372l.14-.493a3.208 3.208 0 0 1 3.07-2.321h7.973v-13.867h-7.783c-9.025.032-16.659 6.7-17.923 15.655a103.817 103.817 0 0 0-.01 28.35c1.239 8.984 8.883 15.689 17.933 15.728h7.783zm35.122-20.267c0 9.426-7.624 17.067-17.029 17.067a16.842 16.842 0 0 1-9.803-3.11l-8.032 2.011a1.064 1.064 0 0 1-1.263-1.386l3.067-8.822a16.89 16.89 0 0 1-.998-5.76c0-9.425 7.625-17.067 17.03-17.067 9.404 0 17.028 7.642 17.028 17.067zm-2.129 0c0-8.247-6.67-14.933-14.9-14.933-8.229 0-14.9 6.686-14.9 14.933-.006 1.834.33 3.652.992 5.361.092.237.097.5.013.74l-2.544 7.319 6.599-1.655a1.073 1.073 0 0 1 .9.182 14.737 14.737 0 0 0 8.94 2.986c8.23 0 14.9-6.685 14.9-14.933zm-19.157 0c0 .59-.477 1.067-1.064 1.067h-2.129a1.066 1.066 0 0 1 0-2.134h2.129c.587 0 1.064.478 1.064 1.067zm6.386 0c0 .59-.477 1.067-1.064 1.067h-2.13a1.066 1.066 0 0 1 0-2.134h2.13c.587 0 1.064.478 1.064 1.067zm6.386 0c0 .59-.477 1.067-1.065 1.067h-2.128a1.066 1.066 0 0 1 0-2.134h2.128c.588 0 1.065.478 1.065 1.067z"/><linearGradient id="ohvzb" x1="1107" x2="1107.07" y1="1309" y2="1245" gradientUnits="userSpaceOnUse"><stop offset="0" stop-color="#ff8a00"/><stop offset="1" stop-color="#ffb100"/></linearGradient></defs><g><g transform="translate(-1075 -1245)"><use xlink:href="#ohvza"/><use fill="url(#ohvzb)" xlink:href="#ohvza"/></g></g></svg>