<svg xmlns="http://www.w3.org/2000/svg" xmlns:xlink="http://www.w3.org/1999/xlink" width="64" height="64" viewBox="0 0 64 64"><defs><path style="fill: #ff9500;" id="zltaa" d="M1083.105 1261.058v6.504c.19.794 1.475 5.467 5.32 5.467.734 0 1.33.596 1.33 1.33v7.98h25.27v-9.31c0-4.208 2.61-5.32 3.99-5.32h7.981a2.503 2.503 0 0 0 2.66-2.66v-4.959c0-.38.164-.743.449-.995a7.676 7.676 0 0 1 4.872-2.027l.017.002a1.168 1.168 0 0 0 1.285-1.038l-6.456-11.705a1.33 1.33 0 0 1-.167-.643v-2.577a17.347 17.347 0 0 0-8.706-15.01l1.33-2.308a20.018 20.018 0 0 1 10.036 17.318v2.236l6.484 11.753c.11.196.166.417.166.642a3.878 3.878 0 0 1-3.99 3.99 4.765 4.765 0 0 0-2.66.996v4.324a5.171 5.171 0 0 1-5.32 5.32h-7.942c-.228.015-1.368.212-1.368 2.66v10.642a1.33 1.33 0 0 1-1.33 1.33h-27.931a1.33 1.33 0 0 1-1.33-1.33v-8.098c-4.157-.786-6.14-5.173-6.624-7.597a1.232 1.232 0 0 1-.027-.266v-6.651zm11.97-40.025c11.052.034 19.984 9.021 19.95 20.074v21.281a1.33 1.33 0 0 1-2.27.94l-6.043-6.044a20.014 20.014 0 0 1-11.759 3.774c-11.052-.033-19.984-9.02-19.95-20.073.033-11.053 9.02-19.985 20.072-19.952zm-13.403 30.984c6.03 7.396 16.916 8.503 24.312 2.472a1.33 1.33 0 0 1 1.782.089l4.6 4.6v-18.071c-.011-9.545-7.746-17.28-17.291-17.291a17.28 17.28 0 0 0-10.93 3.887c-7.397 6.032-8.504 16.917-2.473 24.314zm18.723-21.551a3.99 3.99 0 1 1 0 7.98 3.99 3.99 0 0 1 0-7.98zm0 5.32a1.33 1.33 0 1 0 0-2.66 1.33 1.33 0 0 0 0 2.66zm-10.64-5.32a3.99 3.99 0 1 1 0 7.98 3.99 3.99 0 0 1 0-7.98zm0 5.32a1.33 1.33 0 1 0 0-2.66 1.33 1.33 0 0 0 0 2.66zm5.32 14.631a7.98 7.98 0 0 0 7.98-7.98h2.66c-.006 5.874-4.766 10.634-10.64 10.64-5.874-.006-10.634-4.766-10.64-10.64h2.66a7.98 7.98 0 0 0 7.98 7.98z"/><linearGradient id="zltab" x1="1106.97" x2="1107" y1="1285" y2="1221.03" gradientUnits="userSpaceOnUse"><stop offset="0" stop-color="#ff8a00"/><stop offset="1" stop-color="#ffb100"/></linearGradient></defs><g><g transform="translate(-1075 -1221)"><use fill="#ff8a00" xlink:href="#zltaa"/><use fill="url(#zltab)" xlink:href="#zltaa"/></g></g></svg>