<svg xmlns="http://www.w3.org/2000/svg" xmlns:xlink="http://www.w3.org/1999/xlink" width="20" height="20"><defs><path id="a" d="M973.1 3643.66v.08c0 .15-.03.27-.08.36-.07.12-.17.25-.31.4l-.2.2a1.9 1.9 0 0 1-.39.3.74.74 0 0 1-.32.1.92.92 0 0 1-.62-.3l-4.46-4.5-.16.1a6.18 6.18 0 0 1-9.45-3.63 6.25 6.25 0 0 1 10.43-6.05 6.2 6.2 0 0 1 1.79 5.07 6.22 6.22 0 0 1-.85 2.58.97.97 0 0 1-.1.29l4.44 4.46c.18.18.28.37.28.54zm-5.02-9.82a5.06 5.06 0 0 0-1.34-2.31 4.87 4.87 0 0 0-3.61-1.52 5.2 5.2 0 0 0-3.63 1.52 5.27 5.27 0 0 0 0 7.29c1 .96 2.28 1.5 3.63 1.5a5.1 5.1 0 0 0 4.95-6.49z"/></defs><use fill="#fff" xlink:href="#a" transform="translate(-955 -3627)"/></svg>