<svg xmlns="http://www.w3.org/2000/svg" xmlns:xlink="http://www.w3.org/1999/xlink" width="28" height="31"><defs><path id="a" d="M971.86 1774.26l-2.36 2.25a13.74 13.74 0 0 0-15.39-.26 13.49 13.49 0 0 0-3.91 18.8 13.59 13.59 0 0 0 11.45 6.13c2.64 0 5.22-.76 7.48-2.23a.58.58 0 0 0 .17-.8.59.59 0 0 0-.81-.17 12.47 12.47 0 0 1-9.4 1.78 12.41 12.41 0 0 1-4.34-22.54 12.57 12.57 0 0 1 13.9.1l-2.29 2.18c-.46.45-.32.82.33.83l4.7.1c.65 0 1.18-.5 1.2-1.15l.1-4.67c0-.64-.36-.8-.83-.35z"/><path id="b" d="M957 1787h3v-3h2v3h3v2h-3v3h-2v-3h-3z"/></defs><use fill="#ff8a00" xlink:href="#a" transform="translate(-946 -1772)"/><use fill="#ff8a00" xlink:href="#b" transform="translate(-946 -1772)"/></svg>