<svg xmlns="http://www.w3.org/2000/svg" xmlns:xlink="http://www.w3.org/1999/xlink" width="23" height="24"><defs><path id="a" d="M1392 1895h3v8h-3zm0 15h3v9h-3zm8 5h3v4h-3zm0-20h3v13h-3zm8 0h3v5h-3zm0 12h3v12h-3zm-17-3h5a1 1 0 0 1 1 1v3a1 1 0 0 1-1 1h-5a1 1 0 0 1-1-1v-3a1 1 0 0 1 1-1zm8 5h5a1 1 0 0 1 1 1v3a1 1 0 0 1-1 1h-5a1 1 0 0 1-1-1v-3a1 1 0 0 1 1-1zm8-8h5a1 1 0 0 1 1 1v3a1 1 0 0 1-1 1h-5a1 1 0 0 1-1-1v-3a1 1 0 0 1 1-1zm-15.97 6.97h1v-2.94h-1zm2 0h1v-2.94h-1zm2 0h1v-2.94h-1zm4 5h1v-2.94h-1zm1.94 0h1v-2.94h-1zm2.06 0h1v-2.94h-1zm4-8h1v-2.94h-1zm1.94 0h1v-2.94h-1zm2.06 0h1v-2.94h-1z"/></defs><use fill="#b0abb3" xlink:href="#a" transform="translate(-1390 -1895)"/></svg>