<svg xmlns="http://www.w3.org/2000/svg" xmlns:xlink="http://www.w3.org/1999/xlink" width="29" height="26"><defs><path id="a" d="M1465.98 1766.62v2.76c0 1-1.04 1-1.04 0v-2.76c0-1 1.04-1 1.04 0zm2.01 0v2.76c0 1-1.03 1-1.03 0v-2.76c0-1 1.03-1 1.03 0zm2.02-1.17v5.1c0 .46-.06.83-.53.83-.47 0-.5-.37-.5-.83v-5.1c0-.46.03-.83.5-.83s.53.37.53.83zm3-1.38v7.86c0 .46-.54.83-1.01.83s-1-.37-1-.83v-7.86c0-.46.53-.83 1-.83s1 .37 1 .83zm2.98-2.44v12.74c0 .46-.5.83-.97.83s-1.04-.37-1.04-.83v-12.74c0-.46.57-.83 1.04-.83.47 0 .97.37.97.83zm3.02-5.79v24.31c0 .46-.57.84-1.04.84-.46 0-.97-.38-.97-.84v-24.3c0-.47.5-.84.97-.84s1.04.37 1.04.83zm2.99 2.08v20.16c0 .46-.5.84-.97.84s-1.04-.38-1.04-.84v-20.16c0-.47.57-.84 1.04-.84.46 0 .97.37.97.84zm2.99 4.13v11.9c0 .45-.54.83-1 .83-.48 0-.98-.38-.98-.84v-11.89c0-.46.5-.83.97-.83s1 .37 1 .83zm3.01 2.5v6.9c0 .46-.6.83-1.06.83-.47 0-.94-.37-.94-.83v-6.9c0-.46.47-.84.94-.84s1.06.38 1.06.84zm2 1.06v4.78c0 .46-.1.83-.57.83s-.48-.37-.48-.83v-4.78c0-.46 0-.83.48-.83.46 0 .56.37.56.83zm2.01 1v2.77c0 .46 0 .83-.47.83s-.53-.37-.53-.83v-2.76c0-.46.06-.84.53-.84.47 0 .47.38.47.84zm1.99 0v2.77c0 .46.03.83-.44.83s-.57-.37-.57-.83v-2.76c0-.46.1-.84.57-.84s.44.38.44.84z"/></defs><use fill="#b0abb3" xlink:href="#a" transform="translate(-1465 -1755)"/></svg>