<svg xmlns="http://www.w3.org/2000/svg" xmlns:xlink="http://www.w3.org/1999/xlink" width="27" height="34"><defs><path id="a" d="M1234.26 1892.1l-1.73-1.72v-3.07a2.3 2.3 0 0 1 2.3-2.3h13.33c1.28 0 2.3 1.03 2.31 2.3v21l-1.73-1.72v-17.7h-14.48zm11.8-5.06c0 .3.23.54.52.57l.06-.01.07.01c.3-.03.52-.27.52-.57a.6.6 0 0 0-.59-.6c-.32 0-.59.27-.58.6zm-7.65.3h6.18v-.67h-6.18zm10.33 25.64v-1.09l1.73 1.73v3.07a2.3 2.3 0 0 1-2.3 2.3h-13.34a2.3 2.3 0 0 1-2.3-2.3v-21.01l1.73 1.73v15.57zm-4.43 2.4h-5.63v1.15h5.63zm9.98-2.09l-1.5 1.5-2.32-2.32-1.73-1.73-14.48-14.49-1.73-1.73-3.82-3.82 1.5-1.5 2.32 2.33 1.73 1.73 14.48 14.48 1.73 1.73z"/></defs><use fill="#b0abb3" xlink:href="#a" transform="translate(-1228 -1885)"/></svg>