<svg xmlns="http://www.w3.org/2000/svg" xmlns:xlink="http://www.w3.org/1999/xlink" width="60" height="60"><defs><path id="a" d="M1322.75 3066c0 6.73-2.94 12.79-7.6 16.95l-.02.02a22.65 22.65 0 0 1-15.13 5.77 22.65 22.65 0 0 1-15.13-5.77l-.01-.02a22.69 22.69 0 0 1 0-33.9v-.02a22.65 22.65 0 0 1 15.13-5.77 22.65 22.65 0 0 1 15.14 5.77l.01.01a22.69 22.69 0 0 1 7.6 16.96zm-2-1a20.71 20.71 0 0 0-6.4-14 22.7 22.7 0 0 1-4.3 2.77c1.1 3.34 1.72 7.2 1.8 11.24zm-11.4-13.1c1.23-.61 2.4-1.36 3.49-2.21a20.7 20.7 0 0 0-7.06-3.64 17.02 17.02 0 0 1 2.8 4.12c.27.56.53 1.14.78 1.73zm-2.54-.84c-1.63-3.26-3.67-5.25-5.82-5.72v8.77c2.26-.1 4.48-.59 6.56-1.4-.23-.57-.48-1.12-.74-1.65zm-15.39-.89a17.03 17.03 0 0 1 2.8-4.12c-2.6.75-4.99 2-7.06 3.64 1.09.85 2.26 1.6 3.48 2.21.25-.6.5-1.17.78-1.73zm1.03 2.54c2.08.81 4.3 1.3 6.56 1.4v-8.77c-2.15.47-4.19 2.46-5.82 5.72-.26.53-.51 1.08-.74 1.65zm-.67 1.86c-1 3.1-1.57 6.68-1.66 10.44h8.9v-8.92c-2.5-.11-4.95-.63-7.24-1.52zM1299 3067h-8.89c.09 3.76.66 7.34 1.65 10.44 2.3-.9 4.74-1.41 7.24-1.52zm-6.56 12.3c.23.57.48 1.12.74 1.65 1.63 3.26 3.67 5.25 5.82 5.72v-8.77c-2.26.1-4.48.58-6.56 1.4zm-1.8.8c-1.23.62-2.4 1.36-3.49 2.22a20.71 20.71 0 0 0 7.06 3.63 17 17 0 0 1-2.8-4.12 24.9 24.9 0 0 1-.78-1.73zm17.93 1.73a17 17 0 0 1-2.8 4.12c2.6-.75 4.99-2 7.06-3.63a20.67 20.67 0 0 0-3.48-2.22c-.25.6-.5 1.18-.78 1.73zm-1.03-2.53a20.77 20.77 0 0 0-6.56-1.4v8.77c2.15-.47 4.19-2.46 5.82-5.72.26-.53.51-1.08.74-1.65zm.67-1.86c1-3.1 1.57-6.68 1.66-10.44h-8.9v8.92c2.5.1 4.95.62 7.24 1.52zm1.66-12.42a37.23 37.23 0 0 0-1.66-10.44c-2.3.9-4.74 1.4-7.23 1.52v8.92zm-30.63 0h8.9c.08-4.04.7-7.9 1.8-11.24a22.7 22.7 0 0 1-4.3-2.76 20.71 20.71 0 0 0-6.4 14zm6.4 15.98a22.72 22.72 0 0 1 4.3-2.77 39.12 39.12 0 0 1-1.8-11.23h-8.9a20.71 20.71 0 0 0 6.4 14zm35.1-14h-8.9c-.08 4.04-.7 7.9-1.8 11.23 1.52.76 2.97 1.68 4.3 2.77a20.71 20.71 0 0 0 6.4-14zm.75 19.54v.12l-.01.03a1 1 0 0 1-.03.1v.01l-1.36 4.66a.99.99 0 1 1-1.9-.55l.4-1.36a29.77 29.77 0 0 1-18.6 6.45 29.8 29.8 0 0 1-21.21-8.78A29.8 29.8 0 0 1 1270 3066a.99.99 0 1 1 1.98 0c0 7.48 2.91 14.52 8.2 19.81a28.06 28.06 0 0 0 37.38 2.02l-1.77.2a.99.99 0 0 1-.22-1.97l4.84-.53a1.05 1.05 0 0 1 .23 0h.03l.08.02h.03c.07.03.14.05.2.1h.02l.08.05.03.02.06.05.03.03.01.01.05.05.01.01.07.1.06.1.01.02.03.08.01.03.03.09v.02l.02.11v.12zm8.5-20.53a.99.99 0 0 1-1.98 0c0-7.49-2.91-14.52-8.2-19.81a28.06 28.06 0 0 0-37.38-2.02l1.77-.2a.99.99 0 0 1 .22 1.97l-4.84.53h-.23l-.07-.02h-.03l-.07-.02-.03-.01a.56.56 0 0 1-.1-.04.9.9 0 0 1-.17-.12.52.52 0 0 1-.05-.04.52.52 0 0 1-.03-.02l-.01-.01-.04-.04-.02-.03a.96.96 0 0 1-.12-.2c-.01 0-.02 0-.02-.02l-.03-.08-.01-.03a.93.93 0 0 1-.03-.08v-.02l-.02-.11v-.15a.9.9 0 0 1 0-.08l.01-.03a.96.96 0 0 1 .03-.12l1.36-4.66a.99.99 0 0 1 1.9.56l-.4 1.36a29.77 29.77 0 0 1 18.6-6.46 29.8 29.8 0 0 1 21.21 8.79 29.8 29.8 0 0 1 8.79 21.2z"/></defs><use fill="#7f8890" xlink:href="#a" transform="translate(-1270 -3036)"/></svg>