<svg xmlns="http://www.w3.org/2000/svg" xmlns:xlink="http://www.w3.org/1999/xlink" width="60" height="54"><defs><path id="a" d="M598.76 3091.14a1.1 1.1 0 1 1 0-2.21 1.1 1.1 0 0 1 0 2.2zm48.23-19.95a5.07 5.07 0 0 1-1.65 8.1 5.06 5.06 0 0 1-1.66 8.08 5.06 5.06 0 0 1-3.72 8.53 1.04 1.04 0 0 1 0-2.07 3.01 3.01 0 0 0 0-6.02 1.04 1.04 0 0 1 0-2.07h1.65a3.01 3.01 0 0 0 0-6.02h-1.65a1.04 1.04 0 0 1 0-2.07h3.3a3.01 3.01 0 0 0 0-6.02h-3.3a1.03 1.03 0 1 1 0-2.07h4.96a3.01 3.01 0 0 0 0-6.01H628.7a1.04 1.04 0 0 1 0-2.07h2.14a28.04 28.04 0 0 0 3.12-14.6 3 3 0 0 0-3.18-2.83 2.98 2.98 0 0 0-2.83 3.17c.27 4.67-.9 9.2-3.4 13.11a9.99 9.99 0 0 1-5.16 3.69 15.15 15.15 0 0 0-8.43 5.76c-.19.27-.5.43-.83.43h-5.51v16.96h5.5c.34 0 .65.16.84.42a15.19 15.19 0 0 0 12.24 6.24h12.62a1.03 1.03 0 1 1 0 2.07H623.2c-5.3 0-10.34-2.48-13.59-6.66h-4.99v5.63c0 .57-.46 1.03-1.03 1.03h-12.56a1.03 1.03 0 0 1 0-2.07h11.52v-30.28h-11.52a1.04 1.04 0 0 1 0-2.07h12.56c.57 0 1.03.46 1.03 1.03v5.63h5a17.22 17.22 0 0 1 9.26-6.13 8 8 0 0 0 3.93-2.79 19.87 19.87 0 0 0 3.08-11.88 5.05 5.05 0 0 1 4.78-5.36 5.04 5.04 0 0 1 5.35 4.78c.3 5.1-.7 10.16-2.87 14.72h11.77a5.08 5.08 0 0 1 2.07 9.71z"/></defs><use fill="#7f8890" xlink:href="#a" transform="translate(-590 -3042)"/></svg>