<svg xmlns="http://www.w3.org/2000/svg" xmlns:xlink="http://www.w3.org/1999/xlink" width="35" height="45"><defs><path id="a" d="M1289.91 2842.9h3.2v3.1h-3.2zm0-15.8h3.2v2.98h-3.2zm0 7.83h3.2v2.99h-3.2zm8.01-7.84h3.07v2.99h-3.07zm0 7.84h3.07v2.99h-3.07zm9.05 6.04l.01-20.05h-22.94v41.1l24.96-.02v2h-27.04v-45H1309v21.97z"/><path id="b" d="M1317 2851.57a9.4 9.4 0 0 1-9.35 9.43 9.4 9.4 0 0 1-9.36-9.43 9.4 9.4 0 0 1 9.36-9.43 9.4 9.4 0 0 1 9.35 9.43zm-1.94 0a7.46 7.46 0 0 0-7.41-7.48 7.46 7.46 0 0 0-7.42 7.48 7.46 7.46 0 0 0 7.42 7.48c4.09 0 7.41-3.36 7.41-7.48zm-3.22 0c0 .54-.43.97-.97.97h-2.26v2.28c0 .54-.43.98-.96.98a.97.97 0 0 1-.97-.98v-2.28h-2.26a.97.97 0 0 1-.97-.97c0-.54.43-.98.97-.98h2.26v-2.27c0-.54.43-.98.97-.98.53 0 .96.44.96.98v2.27h2.26c.54 0 .97.44.97.98z"/></defs><use fill="#fff" xlink:href="#a" transform="translate(-1282 -2819)"/><use fill="#fff" xlink:href="#b" transform="translate(-1282 -2819)"/></svg>