<svg xmlns="http://www.w3.org/2000/svg" xmlns:xlink="http://www.w3.org/1999/xlink" width="60" height="35"><defs><path id="a" d="M966.9 3084.05c0 .53-.43.96-.96.96h-11.88a.97.97 0 1 1 0-1.93h11.88c.53 0 .97.43.97.97zm3.63-27.83c.96 0 2.2.51 2.89 1.19l15.38 15.2a4.5 4.5 0 0 1 1.2 2.87v7.28a2.26 2.26 0 0 1-2.26 2.25h-2.07a.97.97 0 1 1 0-1.93h2.07c.18 0 .32-.14.32-.32v-7.28c0-.44-.3-1.19-.63-1.5l-15.37-15.2a2.67 2.67 0 0 0-1.53-.63h-38.27a.33.33 0 0 0-.32.33v24.28c0 .18.14.32.32.32h2.07a.97.97 0 1 1 0 1.93h-2.07a2.26 2.26 0 0 1-2.26-2.25v-24.28a2.26 2.26 0 0 1 2.26-2.26m50.51 27.83a6.97 6.97 0 0 1-13.93 0 6.97 6.97 0 0 1 13.93 0zm-1.93 0a5.03 5.03 0 1 0-10.06.02 5.03 5.03 0 0 0 10.06-.02zm3.66-9.85c0 .53-.43.96-.97.96h-16.18a1.87 1.87 0 0 1-1.87-1.87v-11.34c0-1.03.84-1.86 1.87-1.86h2.88a.97.97 0 1 1 0 1.93h-2.81v11.21h16.11c.54 0 .97.43.97.97zm-33.34 9.85a6.97 6.97 0 0 1-13.93 0 6.97 6.97 0 0 1 13.93 0zm-1.94 0a5.03 5.03 0 1 0-10.06.02 5.03 5.03 0 0 0 10.06-.02z"/></defs><use fill="#7f8890" xlink:href="#a" transform="translate(-930 -3056)"/></svg>