<svg xmlns="http://www.w3.org/2000/svg" xmlns:xlink="http://www.w3.org/1999/xlink" width="26" height="60"><defs><path id="a" d="M607 2819.9c0-7.12 5.83-12.9 13-12.9s13 5.78 13 12.9c0 4.73-2.62 9.09-6.85 11.34a.95.95 0 0 1-1.29-.38.94.94 0 0 1 .39-1.28 11 11 0 0 0 5.85-9.69c0-6.07-4.98-11-11.1-11-6.12 0-11.1 4.93-11.1 11a11 11 0 0 0 5.85 9.7c.46.24.64.81.39 1.27a.96.96 0 0 1-1.3.38 12.88 12.88 0 0 1-6.84-11.35zm19.02 0a6 6 0 0 0-6.02-5.98 6 6 0 0 0-6.02 5.97c0 1.94.95 3.76 2.55 4.88.43.3.53.9.23 1.32-.3.42-.9.52-1.33.22a7.86 7.86 0 0 1-3.36-6.42 7.9 7.9 0 0 1 7.93-7.86 7.9 7.9 0 0 1 7.93 7.86 7.86 7.86 0 0 1-3.36 6.42.95.95 0 0 1-1.33-.22.94.94 0 0 1 .23-1.32 5.98 5.98 0 0 0 2.55-4.88zm6.74 39.7a.95.95 0 0 1-1.8.61l-1.28-3.72-8.73 5.01v4.55c0 .53-.42.95-.95.95a.95.95 0 0 1-.95-.95v-4.55l-8.73-5.01-1.29 3.73a.95.95 0 0 1-1.8-.61l4.97-14.38.01-.04 3.16-9.15.01-.03 3.67-10.61v-2.84a2.84 2.84 0 0 1-1.9-2.67 2.85 2.85 0 0 1 2.85-2.83 2.85 2.85 0 0 1 2.85 2.83c0 1.23-.8 2.28-1.9 2.67v2.84l10.15 29.4zm-18.51-14.47l4.8 3.28v-8.52l-2.32-1.96zm6.7 3.28l4.8-3.28-2.48-7.2-2.32 1.96zm0-17.2v6.2l1.66-1.4zm-1.9-11.32c0 .52.43.94.95.94s.95-.42.95-.94a.95.95 0 0 0-.95-.94.95.95 0 0 0-.95.94zm0 11.33l-1.66 4.8 1.66 1.4zm0 28.1v-8.62l-5.44-3.72-2.66 7.69zm10-4.65l-2.66-7.69-5.44 3.72v8.62z"/></defs><use fill="#7f8890" xlink:href="#a" transform="translate(-607 -2807)"/></svg>