<svg xmlns="http://www.w3.org/2000/svg" xmlns:xlink="http://www.w3.org/1999/xlink" width="60" height="48"><defs><path id="a" d="M937.1 2827.13a8.1 8.1 0 0 1 8.06-8.13 8.1 8.1 0 0 1 8.07 8.13 8.1 8.1 0 0 1-8.07 8.13 8.1 8.1 0 0 1-8.06-8.13zm1.93 0c0 3.4 2.75 6.18 6.13 6.18a6.16 6.16 0 0 0 6.13-6.18c0-3.4-2.75-6.18-6.13-6.18a6.16 6.16 0 0 0-6.13 6.18zm19.36 0a8.1 8.1 0 0 1 8.06-8.13 8.1 8.1 0 0 1 8.07 8.13 8.1 8.1 0 0 1-8.07 8.13 8.1 8.1 0 0 1-8.06-8.13zm1.93 0c0 3.4 2.75 6.18 6.13 6.18a6.16 6.16 0 0 0 6.13-6.18c0-3.4-2.75-6.18-6.13-6.18a6.16 6.16 0 0 0-6.13 6.18zm6.13 13.85c-2.65 0-5.2.79-7.4 2.28a.96.96 0 0 1-1.34-.26.98.98 0 0 1 .26-1.36 15.03 15.03 0 0 1 20.48 3.34.98.98 0 0 1-.76 1.57.96.96 0 0 1-.77-.38 13.1 13.1 0 0 0-10.47-5.19zm-6.13 13.34c0 .53-.43.97-.97.97a.97.97 0 0 1-.96-.97 13.3 13.3 0 0 0-13.23-13.34 13.3 13.3 0 0 0-13.22 13.34c0 .53-.44.97-.97.97a.97.97 0 0 1-.97-.97c0-8.43 6.8-15.29 15.16-15.29s15.16 6.86 15.16 15.29zm29.68 3.25a9.4 9.4 0 0 1-9.35 9.43 9.4 9.4 0 0 1-9.36-9.43 9.4 9.4 0 0 1 9.36-9.43 9.4 9.4 0 0 1 9.35 9.43zm-1.94 0a7.46 7.46 0 0 0-7.41-7.48 7.46 7.46 0 0 0-7.42 7.48 7.46 7.46 0 0 0 7.42 7.48c4.09 0 7.41-3.36 7.41-7.48zm-3.22 0c0 .54-.43.97-.97.97h-2.26v2.28c0 .54-.43.97-.96.97a.97.97 0 0 1-.97-.97v-2.28h-2.26a.97.97 0 0 1-.97-.97c0-.54.43-.98.97-.98h2.26v-2.27c0-.54.43-.98.97-.98.53 0 .96.44.96.98v2.27h2.26c.54 0 .97.44.97.98z"/></defs><use fill="#7f8890" xlink:href="#a" transform="translate(-930 -2819)"/></svg>