<svg xmlns="http://www.w3.org/2000/svg" xmlns:xlink="http://www.w3.org/1999/xlink" width="30" height="25"><defs><path id="a" d="M1331.78 1767.44l2.24 2.24c.15.14.15.38 0 .53l-.8.79a.37.37 0 0 1-.52 0l-2.24-2.24-2.24 2.24a.37.37 0 0 1-.53 0l-.79-.8a.37.37 0 0 1 0-.52l2.24-2.24-2.24-2.24a.37.37 0 0 1 0-.53l.8-.8a.37.37 0 0 1 .52 0l2.24 2.25 2.24-2.24a.37.37 0 0 1 .53 0l.79.79c.15.14.15.38 0 .53zm-10.44 12.5l-8.38-5.84v-13.25l8.38-5.78c1.1 0 2.69.83 2.69 1.87v21.13c0 1.03-1.58 1.87-2.69 1.87zm-17.34-8.33v-8.15c0-1.03.9-2.5 2-2.5h6.03v13H1306c-1.1 0-2-1.32-2-2.35z"/></defs><use fill="#b0abb3" xlink:href="#a" transform="translate(-1304 -1755)"/></svg>