<svg xmlns="http://www.w3.org/2000/svg" xmlns:xlink="http://www.w3.org/1999/xlink" width="60" height="46" viewBox="0 0 60 46"><defs><path id="n55ha" d="M640 2136v40a3 3 0 0 1-3 3h-54a3 3 0 0 1-3-3v-40a3 3 0 0 1 3-3h54a3 3 0 0 1 3 3zm-2 40v-40a1 1 0 0 0-1-1h-54a1 1 0 0 0-1 1v40a1 1 0 0 0 1 1h54a1 1 0 0 0 1-1zm-2.234-38.643a1 1 0 0 1-.123 1.409l-23.07 19.379a3.995 3.995 0 0 1-5.146 0l-23.07-19.379a1 1 0 0 1 1.286-1.532l23.07 19.38a2 2 0 0 0 2.574 0l23.07-19.38a1 1 0 0 1 1.409.123zm-35.792 21.341a1 1 0 0 1-.243.984l-14 15a1 1 0 1 1-1.462-1.364l14-15a1 1 0 0 1 1.705.38zm35.757 14.62a1 1 0 0 1-1.462 1.364l-14-15a1 1 0 1 1 1.462-1.364z"/></defs><g><g transform="translate(-580 -2133)"><use fill="#fff" xlink:href="#n55ha"/></g></g></svg>