<svg xmlns="http://www.w3.org/2000/svg" xmlns:xlink="http://www.w3.org/1999/xlink" width="40" height="29"><defs><path id="a" d="M527.75 363.08a.66.66 0 0 1-.93 0 23.9 23.9 0 0 0-16.82-6.8 23.9 23.9 0 0 0-16.82 6.8.66.66 0 0 1-.93 0 .63.63 0 0 1 0-.9A25.21 25.21 0 0 1 510 355c6.71 0 13.01 2.55 17.75 7.18.25.24.25.65 0 .9zm-3.85 2.85c.26.25.26.65 0 .9a.66.66 0 0 1-.92 0c-7.16-7-18.8-7-25.96 0a.66.66 0 0 1-.93 0 .63.63 0 0 1 0-.9 20 20 0 0 1 27.81 0zm-3.84 3.76c.26.25.26.65 0 .9a.66.66 0 0 1-.92 0 12.99 12.99 0 0 0-9.14-3.7c-3.46 0-6.7 1.32-9.14 3.7a.66.66 0 0 1-.92 0 .63.63 0 0 1 0-.9 14.3 14.3 0 0 1 10.06-4.07c3.8 0 7.38 1.44 10.06 4.07zm-5.78 6.12c0 2.31-1.92 4.2-4.28 4.2a4.24 4.24 0 0 1-4.28-4.2c0-2.3 1.92-4.18 4.28-4.18a4.24 4.24 0 0 1 4.28 4.18zm-1.3 0c0-1.6-1.34-2.9-2.98-2.9a2.95 2.95 0 0 0-2.97 2.9c0 1.6 1.33 2.91 2.97 2.91 1.64 0 2.97-1.3 2.97-2.9z"/></defs><use fill="#b0abb3" xlink:href="#a" transform="translate(-490 -353)"/></svg>