<svg xmlns="http://www.w3.org/2000/svg" xmlns:xlink="http://www.w3.org/1999/xlink" width="39" height="39"><defs><path id="a" d="M601 355.34c0 1.5-1.21 2.71-2.7 2.71a2.71 2.71 0 0 1 0-5.43c1.49 0 2.7 1.22 2.7 2.72zm-1.2 0a1.5 1.5 0 0 0-1.5-1.51 1.5 1.5 0 0 0 0 3.01c.83 0 1.5-.67 1.5-1.5zm22.2-1.51c.33 0 .79.27.79.6 0 .33-.46.6-.79.6a.6.6 0 0 1-.6-.6c0-.33.27-.6.6-.6zm-2.4 0a.6.6 0 1 1 0 1.2.6.6 0 0 1-.6-.6c0-.33.27-.6.6-.6zm3.79 1.8c.33 0 .6.28.6.61a.6.6 0 0 1-.6.6.6.6 0 0 1-.6-.6c0-.33.27-.6.6-.6zm-2.59 0c.33 0 .6.28.6.61a.6.6 0 0 1-.6.6.6.6 0 0 1-.6-.6c0-.33.27-.6.6-.6zm-3.6-1.8a.6.6 0 1 1 0 1.2.6.6 0 0 1-.6-.6c0-.33.27-.6.6-.6zm1.2 1.8c.33 0 .6.28.6.61a.6.6 0 0 1-.6.6.6.6 0 0 1-.6-.6c0-.33.27-.6.6-.6zm-3.6-1.8a.6.6 0 1 1 0 1.2.6.6 0 0 1-.6-.6c0-.33.27-.6.6-.6zm1.2 1.8c.33 0 .6.28.6.61a.6.6 0 0 1-.6.6.6.6 0 0 1-.6-.6c0-.33.27-.6.6-.6zm-3.6-1.8a.6.6 0 1 1 0 1.2.6.6 0 0 1-.6-.6c0-.33.27-.6.6-.6zm1.2 1.8c.33 0 .6.28.6.61a.6.6 0 0 1-.6.6.6.6 0 0 1-.6-.6c0-.33.27-.6.6-.6zm13.52 5.44c.65.5.88 1.29.88 2.18v7.92c0 1.53-1.05 2.78-2.58 2.78H610.6v4.58a3.02 3.02 0 0 1 2.34 2.35h14.46a.6.6 0 1 1 0 1.2h-14.46a3.01 3.01 0 0 1-2.94 2.42 3.01 3.01 0 0 1-2.94-2.41H592.6a.6.6 0 0 1-.6-.6c0-.34.27-.61.6-.61h14.46a3.02 3.02 0 0 1 2.34-2.35v-4.58h-14.82c-1.53 0-2.58-1.25-2.58-2.78v-7.92c0-.89.23-1.67.88-2.18-.65-.51-.88-1.3-.88-2.18v-7.1c0-1.54 1.05-2.79 2.58-2.79h30.84c1.53 0 2.58 1.25 2.58 2.78v7.11c0 .89-.23 1.67-.88 2.18zM610 379.67a1.8 1.8 0 0 0 0 3.62 1.8 1.8 0 0 0 0-3.62zm15.42-17.75h-30.84c-.87 0-1.57.7-1.57 1.58v7.86c0 .86.7 1.57 1.57 1.57h30.84c.87 0 1.57-.7 1.57-1.57v-7.86c0-.87-.7-1.58-1.57-1.58zm0-.95c.87 0 1.57-1.21 1.57-2.08v-7.3c0-.86-.7-1.57-1.57-1.57h-30.84c-.87 0-1.57.7-1.57 1.57v7.3c0 .87.7 2.08 1.57 2.08zm-29.82 5.83c0-1.5 1.21-2.71 2.7-2.71a2.71 2.71 0 0 1 0 5.43 2.71 2.71 0 0 1-2.7-2.72zm1.2 0c0 .83.67 1.51 1.5 1.51a1.5 1.5 0 0 0 0-3.02c-.83 0-1.5.68-1.5 1.51zm25.2-1.5c.33 0 .79.26.79.6 0 .33-.46.6-.79.6a.6.6 0 0 1-.6-.6c0-.34.27-.6.6-.6zm-2.4 0a.6.6 0 1 1 0 1.2.6.6 0 0 1-.6-.6c0-.34.27-.6.6-.6zm3.79 1.8a.6.6 0 1 1 0 1.2.6.6 0 0 1-.6-.6c0-.33.27-.6.6-.6zm-2.59 0a.6.6 0 0 1 0 1.2.6.6 0 0 1-.6-.6c0-.33.27-.6.6-.6zm-3.6-1.8a.6.6 0 1 1 0 1.2.6.6 0 0 1-.6-.6c0-.34.27-.6.6-.6zm1.2 1.8a.6.6 0 1 1 0 1.2.6.6 0 0 1-.6-.6c0-.33.27-.6.6-.6zm-3.6-1.8a.6.6 0 1 1 0 1.2.6.6 0 0 1-.6-.6c0-.34.27-.6.6-.6zm1.2 1.8a.6.6 0 1 1 0 1.2.6.6 0 0 1-.6-.6c0-.33.27-.6.6-.6zm-3.6-1.8a.6.6 0 1 1 0 1.2.6.6 0 0 1-.6-.6c0-.34.27-.6.6-.6zm1.2 1.8a.6.6 0 1 1 0 1.2.6.6 0 0 1-.6-.6c0-.33.27-.6.6-.6z"/></defs><use fill="#b0abb3" xlink:href="#a" transform="translate(-590 -347)"/></svg>