<svg xmlns="http://www.w3.org/2000/svg" xmlns:xlink="http://www.w3.org/1999/xlink" width="25" height="39"><defs><path id="a" d="M703.01 368.26v8.68c0 1.5 1.6 3.04 3.12 3.04h8.9c1.52 0 2.95-1.54 2.95-3.04v-8.35a10.66 10.66 0 0 1 3.02 7.52c0 3.72-1.92 7-4.81 8.89h-11.38a10.59 10.59 0 0 1-4.81-8.9c0-3.1.89-5.91 3.01-7.84zm12.98-17.1v25.12c0 1.01-.8 1.7-1.56 1.7l-7.67.03c-.8 0-1.76-.62-1.76-1.7v-23.26c0-1.34.63-2.05 1.76-2.05l6.23-.03s.1-.96.23-1.28c.17-.43.47-.69.76-.69H715c.17 0 .37.1.5.26.23.26.4.66.47 1.18.03.2.03.69.03.72zm-1 15.81H713V369h2zm0 3.03H713v2h2zm-9.03-1H708v-2.03h-2.03zm3.04-3h3v-3h-3zm2.96-4H715v-.99h-3.04zm-2.96 4.97V369h3v-2.03zm-3.04 4.99H708v-2h-2.03zm3.04 0h3v-2h-3zm5.23-5.92h.73v-1.66c0-.75-.76-1.37-1.6-1.37h-.4v3h1.27zm-8.27-12.67v5.27c0 .75.7 1.38 1.53 1.38h5.98c.86 0 1.53-.63 1.53-1.38v-5.27c0-.76-.7-1.38-1.53-1.38h-5.95c-.86 0-1.53.62-1.53 1.38zM706 362h3v-1h-3zm0 2.34v1.62h2.03v-3h-.6c-.82 0-1.46.63-1.46 1.38zm1.4 11.67h.6v-3.03h-2.03v1.68c0 .76.64 1.35 1.43 1.35zm1.6 0h3v-3.06h-3zm6-3.06h-2v3.09h.4c.83 0 1.6-.62 1.6-1.38z"/></defs><use fill="#b0abb3" xlink:href="#a" transform="translate(-698 -347)"/></svg>