<svg xmlns="http://www.w3.org/2000/svg" xmlns:xlink="http://www.w3.org/1999/xlink" width="39" height="37"><defs><path id="a" d="M811.99 352.44v-5.76c0-.34.27-.6.6-.6h11.81c.33 0 .6.26.6.6v5.76a.6.6 0 0 1-.6.6h-11.81a.6.6 0 0 1-.6-.6zm1.01-.42h10.99v-4.98H813zm2.52 3.77V357a1.2 1.2 0 0 1-1.2 1.21h-1.2a1.2 1.2 0 0 1-1.2-1.21v-1.21c0-.67.54-1.22 1.2-1.22h1.2c.67 0 1.2.55 1.2 1.22zm-1.2 1.21v-1.21h-1.2V357zm6-1.21V357a1.2 1.2 0 0 1-1.2 1.21h-1.2a1.2 1.2 0 0 1-1.2-1.21v-1.21c0-.67.54-1.22 1.2-1.22h1.2c.67 0 1.2.55 1.2 1.22zm-1.2 1.21v-1.21h-1.2V357zm6-1.21V357a1.2 1.2 0 0 1-1.2 1.21h-1.2a1.2 1.2 0 0 1-1.2-1.21v-1.21c0-.67.54-1.22 1.2-1.22h1.2c.67 0 1.2.55 1.2 1.22zm-1.2 1.21v-1.21h-1.2V357zm-8.4 3.64v1.22a1.2 1.2 0 0 1-1.2 1.21h-1.2a1.2 1.2 0 0 1-1.2-1.21v-1.22c0-.67.54-1.21 1.2-1.21h1.2c.67 0 1.2.54 1.2 1.21zm-1.2 1.22v-1.22h-1.2v1.22zm6-1.22v1.22a1.2 1.2 0 0 1-1.2 1.21h-1.2a1.2 1.2 0 0 1-1.2-1.21v-1.22c0-.67.54-1.21 1.2-1.21h1.2c.67 0 1.2.54 1.2 1.21zm-1.2 1.22v-1.22h-1.2v1.22zm6-1.22v1.22a1.2 1.2 0 0 1-1.2 1.21h-1.2a1.2 1.2 0 0 1-1.2-1.21v-1.22c0-.67.54-1.21 1.2-1.21h1.2c.67 0 1.2.54 1.2 1.21zm-1.2 1.22v-1.22h-1.2v1.22zm-8.4 3.64v1.21a1.2 1.2 0 0 1-1.2 1.22h-1.2a1.2 1.2 0 0 1-1.2-1.22v-1.21c0-.67.54-1.21 1.2-1.21h1.2c.67 0 1.2.54 1.2 1.21zm-1.2 1.21v-1.21h-1.2v1.21zm6-1.21v1.21a1.2 1.2 0 0 1-1.2 1.22h-1.2a1.2 1.2 0 0 1-1.2-1.22v-1.21c0-.67.54-1.21 1.2-1.21h1.2c.67 0 1.2.54 1.2 1.21zm-1.2 1.21v-1.21h-1.2v1.21zm6-1.21v1.21a1.2 1.2 0 0 1-1.2 1.22h-1.2a1.2 1.2 0 0 1-1.2-1.22v-1.21c0-.67.54-1.21 1.2-1.21h1.2c.67 0 1.2.54 1.2 1.21zm-1.2 1.21v-1.21h-1.2v1.21zm4.08-21.85v24.28c0 1-.8 1.82-1.8 1.82h-21.95a4.56 4.56 0 0 1-4.26 3.04 5.01 5.01 0 0 1-4.64-2.97h-1.55c-1 0-1.8-.88-1.8-1.89v-24.28c0-1 .8-1.89 1.8-1.89h1.55A5.01 5.01 0 0 1 800 340a4.56 4.56 0 0 1 4.26 3.04h21.95c1 0 1.8.81 1.8 1.82zm-34.45 25.08h1.49c-.03-.2-.04-.4-.04-.61v-24.72c0-.2.01-.41.04-.61h-1.49a.6.6 0 0 0-.6.6v24.73c0 .34.27.6.6.6zm10.32.27l.01-.05c.1-.32.08-.66.08-1.02v-24.28a3.67 3.67 0 0 0-.16-1.07 4.33 4.33 0 0 0-3.81-2.83 4.33 4.33 0 0 0-3.83 2.88c-.1.32-.15.66-.15 1.02v24.28a3.67 3.67 0 0 0 .16 1.07 4.33 4.33 0 0 0 3.82 2.83 4.42 4.42 0 0 0 3.88-2.83zm23.12-.82v-24.78a.6.6 0 0 0-.6-.61h-21.45l.03.6v24.8c0 .2 0 .4-.03.6h21.45a.6.6 0 0 0 .6-.6z"/></defs><use fill="#b0abb3" xlink:href="#a" transform="translate(-790 -338)"/></svg>