<svg xmlns="http://www.w3.org/2000/svg" xmlns:xlink="http://www.w3.org/1999/xlink" width="38" height="35"><defs><path id="a" d="M905.9 360.07c.46 0 .83.37.83.83 0 .46-.37.82-.82.82a.82.82 0 0 1-.82-.82c0-.46.37-.83.82-.83zm0 3.3c.46 0 .83.37.83.83 0 .46-.37.82-.82.82a.82.82 0 0 1-.82-.82c0-.46.37-.83.82-.83zm3.28-3.3a.826.826 0 0 1 0 1.65.82.82 0 0 1-.82-.82c0-.46.37-.83.82-.83zm0 3.3a.826.826 0 0 1 0 1.65.82.82 0 0 1-.82-.82c0-.46.37-.83.82-.83zm-3.27 3.3a.826.826 0 0 1 0 1.65.82.82 0 0 1-.82-.82c0-.46.37-.83.82-.83zm0 3.3a.826.826 0 0 1 0 1.65.82.82 0 0 1-.82-.82c0-.46.37-.83.82-.83zm3.27-3.3a.826.826 0 0 1 0 1.65.82.82 0 0 1-.82-.82c0-.46.37-.83.82-.83zm0 3.3a.826.826 0 0 1 0 1.65.82.82 0 0 1-.82-.82c0-.46.37-.83.82-.83zM928 357.44v20.08c0 1.37-1.1 2.48-2.45 2.48H900.8a.82.82 0 0 1-.82-.83V375H901v3.97h25.16c.45 0 .82-.36.82-.82v-21.36a.82.82 0 0 0-.82-.83H897v4.02h4.19c.45 0 .82.37.82.83v3.36c0 .45-.37.82-.82.82H897v1.97h4.19c.45 0 .82.36.82.82v3.36c0 .46-.37.83-.82.83H897v11.02h-1v-31h-3.96L892 351h4.08c.45 0 .91.37.91.82v3.15h28.55a2.47 2.47 0 0 1 2.45 2.47zm-31 10.57v3h4v-3zm0-7V364h4v-3zm26.98 7.95v5.14c0 .46-.37.82-.82.82h-1.17v1.05h-.98v-1.05H919v1.05h-1.01v-1.05H916v1.05h-1.04v-1.05h-2.14a.82.82 0 0 1-.82-.82v-6.29c0-.45.37-.82.82-.82h2.14V365H916v1.98h1.95V365H919v1.98h2.01V365h.98v2.15c0 .45-.36.82-.82.82h-8.21v5.98H923v-5zm.02-7.99h-12v-.99h12z"/></defs><use fill="#b0abb3" xlink:href="#a" transform="translate(-891 -349)"/></svg>