<svg xmlns="http://www.w3.org/2000/svg" xmlns:xlink="http://www.w3.org/1999/xlink" width="39" height="37"><defs><path id="a" d="M1028 366.42c0 3.2-2.63 5.79-5.85 5.79h-8.02a2.47 2.47 0 0 1-2.38 1.79h-2.4a2.46 2.46 0 0 1-2.48-2.44c0-1.35 1.11-2.45 2.47-2.45h2.41c1.14 0 2.1.76 2.38 1.8h8.02c2.5 0 4.53-2.02 4.53-4.5v-.47c-.66.56-1.52.9-2.45.9h-2.94c-.88 0-1.59-.7-1.59-1.57v-10.3c0-.86.71-1.57 1.59-1.57h2.94c.93 0 1.79.34 2.45.9v-.89c0-5.59-4.29-10.22-9.85-10.77-.3.62-.94 1.05-1.68 1.05h-10.3c-.74 0-1.38-.43-1.68-1.05a10.87 10.87 0 0 0-9.85 10.77v.9c.66-.57 1.52-.9 2.45-.9h2.94c.87 0 1.59.7 1.59 1.56v10.3c0 .87-.72 1.57-1.59 1.57h-2.94a3.76 3.76 0 0 1-3.77-3.73v-9.7c0-6.27 4.81-11.47 11.06-12.08.23-.77.94-1.33 1.8-1.33h10.29c.85 0 1.56.56 1.79 1.33 6.25.6 11.06 5.81 11.06 12.08zm-29.29-11.7h-.26v10.81h.26c.15 0 .26-.11.26-.26v-10.3a.26.26 0 0 0-.26-.26zm-5.39 2.42v5.97c0 1.33 1.1 2.42 2.45 2.42h1.36v-10.82h-1.36a2.44 2.44 0 0 0-2.45 2.43zm22.37-15.3c0-.29-.24-.53-.54-.53h-10.3c-.3 0-.54.24-.54.54 0 .3.24.54.54.54h10.3c.3 0 .54-.25.54-.54zm5.6 23.7h.26V354.7h-.26a.26.26 0 0 0-.26.26v10.3c0 .15.11.26.26.26zm-8.39 6.02c0-.63-.51-1.14-1.15-1.14h-2.4c-.64 0-1.15.51-1.15 1.14 0 .62.51 1.13 1.14 1.13h2.41c.64 0 1.15-.5 1.15-1.13zm13.78-8.45v-5.97c0-1.34-1.1-2.43-2.45-2.43h-1.36v10.82h1.36a2.44 2.44 0 0 0 2.45-2.42z"/></defs><use fill="#b0abb3" xlink:href="#a" transform="translate(-990 -338)"/></svg>