<svg xmlns="http://www.w3.org/2000/svg" xmlns:xlink="http://www.w3.org/1999/xlink" width="39" height="39"><defs><path id="a" d="M1113.73 359.72v3.19c0 .38-.25.64-.64.64h-3.22c-.38 0-.64-.26-.64-.64v-3.19c0-.38.26-.64.64-.64h3.22c.38 0 .64.26.64.64zm-1.28.64h-1.93v1.91h1.93zm7.07-.64v3.19c0 .38-.26.64-.65.64h-3.2c-.4 0-.65-.26-.65-.64v-3.19c0-.38.25-.64.64-.64h3.21c.4 0 .65.26.65.64zm-1.29.64h-1.93v1.91h1.93zm7.07-.64v3.19c0 .38-.25.64-.64.64h-3.21c-.39 0-.65-.26-.65-.64v-3.19c0-.38.26-.64.65-.64h3.21c.39 0 .64.26.64.64zm-1.28.64h-1.93v1.91h1.93zm-10.29 5.1v3.2c0 .37-.25.63-.64.63h-3.22c-.38 0-.64-.26-.64-.64v-3.19c0-.38.26-.64.64-.64h3.22c.38 0 .64.26.64.64zm-1.28.64h-1.93v1.9h1.93zm7.07-.64v3.2c0 .37-.26.63-.65.63h-3.2c-.4 0-.65-.26-.65-.64v-3.19c0-.38.25-.64.64-.64h3.21c.4 0 .65.26.65.64zm-1.29.64h-1.93v1.9h1.93zm7.07-.64v3.2c0 .37-.25.63-.64.63h-3.21c-.39 0-.65-.26-.65-.64v-3.19c0-.38.26-.64.65-.64h3.21c.39 0 .64.26.64.64zm-1.28.64h-1.93v1.9h1.93zm-10.29 5.1v3.2c0 .37-.25.63-.64.63h-3.22c-.38 0-.64-.26-.64-.64v-3.19c0-.38.26-.64.64-.64h3.22c.38 0 .64.26.64.64zm-1.28.64h-1.93v1.91h1.93zm7.07-.64v3.2c0 .37-.26.63-.65.63h-3.2c-.4 0-.65-.26-.65-.64v-3.19c0-.38.25-.64.64-.64h3.21c.4 0 .65.26.65.64zm-1.29.64h-1.93v1.91h1.93zm7.07-.64v3.2c0 .37-.25.63-.64.63h-3.21c-.39 0-.65-.26-.65-.64v-3.19c0-.38.26-.64.65-.64h3.21c.39 0 .64.26.64.64zm-1.28.64h-1.93v1.91h1.93zm-10.29 5.1v3.2c0 .38-.25.63-.64.63h-3.22c-.38 0-.64-.25-.64-.64v-3.19c0-.38.26-.63.64-.63h3.22c.38 0 .64.25.64.63zm-1.28.64h-1.93v1.92h1.93zm7.07-.64v3.2c0 .38-.26.63-.65.63h-3.2c-.4 0-.65-.25-.65-.64v-3.19c0-.38.25-.63.64-.63h3.21c.4 0 .65.25.65.63zm-1.29.64h-1.93v1.92h1.93zm7.07-.64v3.2c0 .38-.25.63-.64.63h-3.21c-.39 0-.65-.25-.65-.64v-3.19c0-.38.26-.63.65-.63h3.21c.39 0 .64.25.64.63zm-1.28.64h-1.93v1.92h1.93zm1.4-25.62h.65c1.1 0 1.93.42 1.93 1.5v29.63c0 1.08-.84 1.91-1.93 1.91h-32.14c-1.1 0-1.93-.83-1.93-1.91v-29.62c0-1.09.84-1.92 1.93-1.92h1.08v-.64c0-1.08.83-1.91 1.93-1.91h8.56c1.1 0 1.5 1.24 1.5 2.32v.64h2.36zm-18.43 1.02v1.98h20v-1.34c0-.38-.25-.64-.64-.64zm-11 27.28c0 .38.25.64.63.64h8.75c.4 0 .65-.26.65-.64v-29.6c0-.38-.26-.63-.65-.63h-8.75c-.38 0-.64.25-.64.63zm-3.02-25.52h2.04v-1.91h-1.4c-.38 0-.64.25-.64.64zm14.02 1.28v24.05c0 1.09-.83 1.91-1.93 1.91h-8.56c-1.1 0-1.5-.82-1.5-1.9v-24.06h-2.03v27.35c0 .38.26.64.65.64h32.73c.39 0 .65-.26.65-.64v-27.35z"/></defs><use fill="#b0abb3" xlink:href="#a" transform="translate(-1090 -347)"/></svg>