<svg xmlns="http://www.w3.org/2000/svg" xmlns:xlink="http://www.w3.org/1999/xlink" width="56" height="56" viewBox="0 0 56 56"><defs><path id="cao7a" d="M422.168 9382.188c.5 0 .907.403.907.902a.904.904 0 0 1-.907.901.904.904 0 0 1-.906-.901c0-.499.406-.903.906-.903zm-5.204 8.59c-.008.008.008-.008 0 0zm-2.525-2.511c.007-.006-.006.007 0 0zm23.56-4.924v2.534a2.263 2.263 0 0 1-2.265 2.255h-1.108a14.507 14.507 0 0 1-1.694 4.067l.784.78c.428.426.664.992.664 1.594 0 .602-.236 1.169-.664 1.595l-1.8 1.791c-.429.426-.998.66-1.603.66a2.257 2.257 0 0 1-1.602-.66l-.784-.78a14.679 14.679 0 0 1-4.088 1.686v1.101a2.263 2.263 0 0 1-2.266 2.256h-2.547a2.263 2.263 0 0 1-2.266-2.256v-1.101a14.674 14.674 0 0 1-3.975-1.619l-9.97 9.92a.825.825 0 0 1-1.16 0 .814.814 0 0 1 0-1.155l15.309-15.229a.823.823 0 0 1 .913-.168c2.414 1.064 5.29.532 7.156-1.325a6.386 6.386 0 0 0 1.8-5.54l-3.604 3.587a.823.823 0 0 1-.906.172l-2.964-1.275a.82.82 0 0 1-.431-.435l-1.202-2.87-.001-.003-.004-.008a.161.161 0 0 1-.002-.007l-.003-.007-.003-.007-.003-.009-.002-.006c0-.003-.002-.005-.003-.008l-.002-.006-.003-.01-.001-.005a.082.082 0 0 1-.003-.01l-.002-.004-.003-.01v-.005a.113.113 0 0 1-.003-.01l-.002-.004-.002-.011v-.004l-.003-.01-.001-.005-.002-.01-.001-.005a.22.22 0 0 1-.002-.01v-.005a.301.301 0 0 1-.003-.01v-.005l-.002-.01v-.005l-.002-.011v-.004l-.001-.01v-.005a.715.715 0 0 0-.002-.015v-.01l-.001-.005v-.01-.004l-.001-.012v-.004-.01-.005-.01-.004-.012-.005-.01-.005l.001-.009v-.006l.002-.01v-.005-.01l.001-.004a.352.352 0 0 1 .002-.015l.001-.01a.1.1 0 0 0 .001-.006l.002-.009v-.006l.002-.008.001-.006.002-.009.001-.006.002-.008.001-.006.002-.009.002-.006c0-.003 0-.006.002-.008l.001-.007.002-.009.002-.006.002-.007.003-.007.002-.008.002-.006a.138.138 0 0 1 .004-.014l.003-.009a.03.03 0 0 0 .002-.005l.003-.009.002-.005.004-.01.002-.005a.167.167 0 0 0 .003-.007l.003-.007.003-.008.003-.005.004-.008a.033.033 0 0 1 .002-.006l.004-.008c0-.002.002-.004.003-.005l.004-.009.002-.004.005-.009.003-.006.004-.007a.044.044 0 0 1 .003-.006l.004-.007.003-.006a.067.067 0 0 0 .005-.007l.003-.005a.03.03 0 0 1 .005-.008l.004-.006a.089.089 0 0 0 .004-.007.016.016 0 0 0 .004-.006l.005-.007c0-.002.002-.003.004-.005l.004-.007a.016.016 0 0 1 .004-.005l.005-.008.004-.004a.282.282 0 0 0 .006-.007c0-.003.002-.004.004-.006l.005-.006.004-.005.006-.008a.144.144 0 0 1 .01-.012l.017-.019.004-.004.002-.003.02-.019 3.6-3.583.003-.003a6.457 6.457 0 0 0-5.568 1.792 6.414 6.414 0 0 0-1.33 7.12c.138.308.07.67-.17.907l-20.792 20.688a.822.822 0 0 1-.913.169c-2.414-1.065-5.29-.534-7.156 1.323a6.388 6.388 0 0 0-1.8 5.54l3.593-3.575a.824.824 0 0 1 .892-.177l2.895 1.184a.819.819 0 0 1 .443.434l1.27 2.96a.814.814 0 0 1-.174.899l-3.593 3.575a6.459 6.459 0 0 0 5.568-1.792 6.415 6.415 0 0 0 1.33-7.12.813.813 0 0 1 .17-.908l3.161-3.146a.825.825 0 0 1 1.16 0c.321.32.321.836 0 1.155l-2.778 2.765a8.056 8.056 0 0 1-1.883 8.408 8.116 8.116 0 0 1-8.603 1.818.82.82 0 0 1-.508-.593.812.812 0 0 1 .222-.746l4.201-4.18-.92-2.146-2.08-.85-4.206 4.186a.824.824 0 0 1-1.347-.285 8.012 8.012 0 0 1 1.827-8.56c2.207-2.196 5.54-2.916 8.451-1.874l14.98-14.904-.194-.334a14.515 14.515 0 0 1-1.683-4.049h-1.108a2.262 2.262 0 0 1-2.266-2.254v-2.534a2.263 2.263 0 0 1 2.266-2.255h1.108c.355-1.435.923-2.8 1.694-4.066l-.784-.78a2.25 2.25 0 0 1 0-3.19l1.8-1.79a2.277 2.277 0 0 1 3.206 0l.784.78a14.665 14.665 0 0 1 4.087-1.686v-1.103a2.263 2.263 0 0 1 2.267-2.254h2.546a2.263 2.263 0 0 1 2.267 2.254v1.103c1.442.353 2.814.918 4.087 1.686l.784-.78a2.275 2.275 0 0 1 3.205 0l1.8 1.79a2.25 2.25 0 0 1 0 3.19l-.783.78a14.49 14.49 0 0 1 1.694 4.067h1.107a2.263 2.263 0 0 1 2.267 2.254zm-13.473.39l-.694-2.3-2.311-.69-2.065 2.054.859 1.993 2.157.986 1.662-1.653zm11.833 2.145v-2.534a.624.624 0 0 0-.625-.622h-1.524c-.523 0-.982-.37-1.093-.88a12.912 12.912 0 0 0-1.787-4.291 1.115 1.115 0 0 1 .148-1.39l1.078-1.073a.621.621 0 0 0 0-.88l-1.801-1.791a.628.628 0 0 0-.884 0l-1.078 1.072c-.37.368-.958.43-1.399.146a13.058 13.058 0 0 0-4.312-1.777 1.122 1.122 0 0 1-.884-1.088v-1.516a.624.624 0 0 0-.625-.622h-2.547a.624.624 0 0 0-.625.622v1.517c0 .52-.372.977-.884 1.088-1.537.33-2.988.928-4.313 1.777-.44.283-1.029.22-1.398-.147l-1.078-1.072a.628.628 0 0 0-.884 0l-1.8 1.79a.621.621 0 0 0 0 .88l1.077 1.073c.37.368.432.954.148 1.39a12.908 12.908 0 0 0-1.787 4.293c-.11.51-.57.879-1.093.879h-1.524a.625.625 0 0 0-.625.622v2.534c0 .343.28.622.625.622h1.524c.522 0 .982.37 1.093.88a12.9 12.9 0 0 0 1.568 3.94l1.539-1.53a10.9 10.9 0 0 1-1.306-5.18c0-6.043 4.942-10.96 11.016-10.96 5.522 0 10.219 4.103 10.925 9.544a.817.817 0 0 1-.708.914.819.819 0 0 1-.919-.705c-.601-4.63-4.598-8.12-9.298-8.12-5.17 0-9.375 4.184-9.375 9.328 0 1.378.304 2.73.886 3.963l1.087-1.08a8.058 8.058 0 0 1 1.882-8.41 8.113 8.113 0 0 1 8.603-1.816.817.817 0 0 1 .287 1.34l-.83.824 1.889.564a.82.82 0 0 1 .55.548l.566 1.878.83-.825a.824.824 0 0 1 1.346.284 8.012 8.012 0 0 1-1.826 8.56c-2.208 2.197-5.54 2.916-8.452 1.873l-.952.948a9.445 9.445 0 0 0 3.51.677c4.475 0 8.345-3.167 9.2-7.532a.82.82 0 0 1 1.611.313c-1.006 5.13-5.552 8.852-10.812 8.852-1.646 0-3.278-.369-4.754-1.072l-1.558 1.55a13.02 13.02 0 0 0 3.53 1.314c.512.11.884.567.884 1.087v1.516c0 .344.28.623.625.623h2.546c.345 0 .625-.28.625-.623v-1.516c0-.52.372-.977.885-1.087a13.04 13.04 0 0 0 4.312-1.779 1.132 1.132 0 0 1 1.398.147l1.078 1.074a.63.63 0 0 0 .884 0l1.801-1.792a.616.616 0 0 0 0-.88l-1.078-1.073a1.116 1.116 0 0 1-.148-1.391 12.886 12.886 0 0 0 1.788-4.29c.11-.51.57-.88 1.092-.88h1.524c.345 0 .626-.28.626-.622zm-36.379-1.483v2.014a1.23 1.23 0 0 1-1.23 1.225h-.46c-.088.251-.19.497-.306.736l.324.323c.48.477.48 1.254 0 1.732l-1.43 1.424a1.226 1.226 0 0 1-.871.358c-.329 0-.638-.127-.87-.358l-.325-.324c-.24.116-.487.217-.74.304v.458a1.23 1.23 0 0 1-1.231 1.225h-2.024a1.23 1.23 0 0 1-1.23-1.225v-.458a6.753 6.753 0 0 1-.74-.304l-.325.324a1.226 1.226 0 0 1-.87.358c-.33 0-.639-.127-.871-.358l-1.431-1.424a1.223 1.223 0 0 1 0-1.732l.325-.323a6.74 6.74 0 0 1-.306-.736h-.46a1.23 1.23 0 0 1-1.231-1.225v-2.014a1.23 1.23 0 0 1 1.23-1.225h.46c.088-.25.19-.496.306-.735l-.324-.324a1.222 1.222 0 0 1 0-1.732l1.43-1.424c.233-.231.542-.358.871-.358.329 0 .638.128.87.358l.325.324c.24-.116.487-.218.74-.305v-.457c0-.676.552-1.225 1.231-1.225h2.024c.679 0 1.231.549 1.231 1.225v.457c.253.087.5.189.74.305l.324-.324c.233-.23.542-.358.87-.358.33 0 .639.127.871.358l1.431 1.424c.48.477.48 1.255 0 1.732l-.324.324c.116.239.218.484.305.735h.46c.679 0 1.231.55 1.231 1.225zM398.34 9386v-1.198h-.663a.82.82 0 0 1-.798-.624 5.112 5.112 0 0 0-.61-1.465.813.813 0 0 1 .121-1.002l.468-.466-.85-.847-.469.466a.824.824 0 0 1-1.007.12 5.2 5.2 0 0 0-1.473-.607.816.816 0 0 1-.628-.793v-.66h-1.203v.66c0 .377-.26.704-.627.793a5.2 5.2 0 0 0-1.473.607.825.825 0 0 1-1.007-.12l-.469-.466-.85.847.468.466c.268.266.317.68.12 1.002a5.112 5.112 0 0 0-.61 1.465.82.82 0 0 1-.797.624h-.663v1.198h.663a.82.82 0 0 1 .798.624c.126.519.331 1.012.609 1.465a.814.814 0 0 1-.12 1.003l-.469.465.851.847.469-.466a.823.823 0 0 1 1.007-.12c.455.277.95.48 1.473.607a.816.816 0 0 1 .627.793v.66h1.204v-.66c0-.377.259-.705.627-.793a5.175 5.175 0 0 0 1.473-.606.825.825 0 0 1 1.007.119l.468.466.851-.847-.468-.465a.814.814 0 0 1-.12-1.003c.277-.453.483-.946.609-1.465a.82.82 0 0 1 .798-.624zm-2.517-.599c0 2.192-1.791 3.973-3.993 3.973s-3.994-1.781-3.994-3.973c0-2.19 1.792-3.973 3.994-3.973s3.993 1.783 3.993 3.973zm-1.64 0c0-1.29-1.056-2.34-2.353-2.34a2.349 2.349 0 0 0-2.352 2.34 2.35 2.35 0 0 0 2.352 2.34 2.35 2.35 0 0 0 2.352-2.34zm34.463 25.99v2.013c0 .677-.552 1.225-1.23 1.225h-.46c-.088.252-.19.498-.306.736l.324.324c.48.477.48 1.254 0 1.732l-1.43 1.423c-.233.231-.542.36-.871.36-.329 0-.638-.129-.87-.36l-.325-.322c-.24.115-.487.217-.74.304v.457a1.23 1.23 0 0 1-1.231 1.225h-2.024a1.23 1.23 0 0 1-1.23-1.225v-.457a6.748 6.748 0 0 1-.74-.304l-.325.322c-.233.231-.542.36-.87.36-.33 0-.638-.129-.87-.36l-1.432-1.423a1.222 1.222 0 0 1 0-1.732l.325-.324a6.677 6.677 0 0 1-.306-.736h-.46a1.229 1.229 0 0 1-1.23-1.225v-2.013c0-.675.551-1.224 1.23-1.224h.46c.087-.252.19-.498.306-.737l-.325-.323a1.223 1.223 0 0 1 0-1.732l1.431-1.424c.233-.23.542-.358.87-.358.33 0 .639.127.87.358l.326.323c.24-.115.487-.216.74-.303v-.458a1.23 1.23 0 0 1 1.23-1.225h2.024c.679 0 1.231.55 1.231 1.225v.458c.253.087.5.188.74.303l.325-.323c.232-.23.541-.358.87-.358.329 0 .638.127.87.358l1.431 1.424c.48.478.48 1.255 0 1.732l-.324.323c.116.24.218.485.305.737h.46c.679 0 1.231.549 1.231 1.224zm-1.64.408h-.664a.82.82 0 0 1-.797-.624 5.123 5.123 0 0 0-.61-1.465.813.813 0 0 1 .12-1.003l.469-.465-.851-.847-.468.466a.825.825 0 0 1-1.008.12 5.155 5.155 0 0 0-1.473-.607.817.817 0 0 1-.627-.794v-.66h-1.203v.66c0 .377-.26.706-.628.794a5.157 5.157 0 0 0-1.472.607.825.825 0 0 1-1.008-.12l-.468-.466-.851.847.468.465c.268.267.318.681.12 1.003a5.125 5.125 0 0 0-.609 1.465.82.82 0 0 1-.797.624h-.663v1.198h.663a.82.82 0 0 1 .797.623c.127.52.332 1.013.61 1.467a.813.813 0 0 1-.12 1.002l-.469.465.85.848.47-.467a.824.824 0 0 1 1.007-.12c.455.277.95.481 1.472.606.368.09.628.417.628.794v.66h1.203v-.66c0-.377.26-.704.627-.794a5.132 5.132 0 0 0 1.473-.606.824.824 0 0 1 1.008.12l.468.467.85-.848-.467-.465a.813.813 0 0 1-.12-1.002c.277-.454.482-.947.609-1.467a.82.82 0 0 1 .797-.623h.663zm-2.517.599c0 2.191-1.792 3.973-3.994 3.973s-3.993-1.782-3.993-3.973c0-2.19 1.791-3.974 3.993-3.974s3.994 1.783 3.994 3.974zm-1.642 0c0-1.29-1.055-2.34-2.352-2.34a2.349 2.349 0 0 0-2.352 2.34c0 1.29 1.055 2.34 2.352 2.34a2.349 2.349 0 0 0 2.352-2.34z"/></defs><g><g transform="translate(-382 -9367)"><use fill="#7f8890" xlink:href="#cao7a"/></g></g></svg>