<svg xmlns="http://www.w3.org/2000/svg" xmlns:xlink="http://www.w3.org/1999/xlink" width="18" height="18" viewBox="0 0 18 18"><defs><path id="84fba" d="M404.718 3500.088a.399.399 0 0 1-.118-.297v-1.655a.4.4 0 0 1 .42-.414h2.94v-1.525h-2.94a.399.399 0 0 1-.42-.414v-1.925c0-.112.04-.21.118-.291a.4.4 0 0 1 .302-.123h2.94v-8.13a.401.401 0 0 1 .42-.414h7.074c1.75 0 3.179.526 4.286 1.577 1.106 1.051 1.66 2.409 1.66 4.072 0 1.663-.554 3.02-1.66 4.071-1.108 1.052-2.536 1.577-4.286 1.577h-4.462v1.525h6.628c.122 0 .223.04.302.117a.399.399 0 0 1 .118.297v1.655a.4.4 0 0 1-.42.413h-6.628v2.482c0 .121-.042.22-.125.297a.418.418 0 0 1-.295.117h-2.192a.412.412 0 0 1-.302-.117.398.398 0 0 1-.118-.297v-2.482h-2.94a.412.412 0 0 1-.302-.116zm6.274-6.644h4.2c.927 0 1.675-.267 2.244-.802.569-.533.853-1.232.853-2.093 0-.862-.284-1.56-.853-2.094-.569-.535-1.317-.802-2.244-.802h-4.2z"/></defs><g><g transform="translate(-404 -3485)"><use fill="#ffb100" xlink:href="#84fba"/></g></g></svg>