<svg xmlns="http://www.w3.org/2000/svg" xmlns:xlink="http://www.w3.org/1999/xlink" width="30" height="30"><defs><path id="ndq5a" d="M413.516 269.363a3.519 3.519 0 0 1-3.516 3.515 3.519 3.519 0 0 1-3.516-3.515 3.52 3.52 0 0 1 3.516-3.516 3.519 3.519 0 0 1 3.516 3.516zm11.484.879v3.516a.879.879 0 0 1-.879.878h-1.218a13.187 13.187 0 0 1-1.917 4.62l.822.823a.88.88 0 0 1 0 1.243l-2.486 2.485a.88.88 0 0 1-1.243 0l-.823-.822a13.182 13.182 0 0 1-4.62 1.917v1.219a.879.879 0 0 1-.878.879h-3.516a.879.879 0 0 1-.879-.879v-1.218a13.188 13.188 0 0 1-4.62-1.918l-.822.822a.88.88 0 0 1-1.243 0l-2.486-2.485a.879.879 0 0 1 0-1.243l.822-.823a13.183 13.183 0 0 1-1.917-4.62h-1.218a.878.878 0 0 1-.88-.878v-3.516a.88.88 0 0 1 .88-.88h1.218c.336-1.642.99-3.216 1.917-4.619l-.822-.823a.879.879 0 0 1 0-1.242l2.486-2.486a.878.878 0 0 1 1.243 0l.823.822a13.175 13.175 0 0 1 4.62-1.917v-1.218c0-.487.392-.88.878-.88h3.516c.486 0 .879.393.879.88v1.218a13.17 13.17 0 0 1 4.619 1.917l.823-.822a.878.878 0 0 1 1.243 0l2.486 2.486a.878.878 0 0 1 0 1.242l-.823.823a13.185 13.185 0 0 1 1.918 4.62h1.218c.486 0 .879.393.879.879zM417.91 272a7.91 7.91 0 0 0-7.91-7.91 7.91 7.91 0 0 0-7.91 7.91c0 4.245 3.466 7.91 7.91 7.91 4.438 0 7.91-3.659 7.91-7.91zm-2.886 3.53a6.14 6.14 0 0 1-5.024 2.622 6.14 6.14 0 0 1-5.024-2.623c1.105-1.597 2.937-2.65 5.024-2.65s3.919 1.053 5.024 2.65z"/></defs><use fill="#777" xlink:href="#ndq5a" transform="translate(-395 -257)"/></svg>