<svg xmlns="http://www.w3.org/2000/svg" xmlns:xlink="http://www.w3.org/1999/xlink" width="50" height="50" viewBox="0 0 50 50"><defs><path id="e7ioa" d="M434.552 2450.796a.86.86 0 0 1-1.206.18 22.213 22.213 0 0 0-13.313-4.391c-5.025 0-9.988 1.631-13.275 4.361a.861.861 0 0 1-1.413-.662v-5.423a.862.862 0 0 1 1.724 0v3.708c3.507-2.342 8.22-3.708 12.964-3.708a23.923 23.923 0 0 1 14.34 4.73.861.861 0 0 1 .18 1.205zm9.586 5.273h-3.709c2.343 3.507 3.709 8.22 3.709 12.964a23.924 23.924 0 0 1-4.73 14.34.862.862 0 0 1-1.387-1.027 22.214 22.214 0 0 0 4.393-13.313c0-5.025-1.631-9.988-4.362-13.276a.861.861 0 0 1 .663-1.413h5.423a.862.862 0 0 1 0 1.725zm-9.483 31.645v5.422a.862.862 0 0 1-1.724 0v-3.708c-3.508 2.342-8.22 3.708-12.965 3.708a23.932 23.932 0 0 1-14.34-4.729.863.863 0 0 1 1.027-1.386 22.211 22.211 0 0 0 13.314 4.392c5.025 0 9.988-1.632 13.275-4.362a.86.86 0 0 1 1.413.663zm-32.59-4.556a.86.86 0 0 1-.78.496h-5.423a.863.863 0 0 1 0-1.724h3.709c-2.343-3.508-3.71-8.221-3.71-12.965a23.93 23.93 0 0 1 4.731-14.34.863.863 0 0 1 1.386 1.028 22.21 22.21 0 0 0-4.393 13.312c0 5.026 1.631 9.988 4.362 13.276a.86.86 0 0 1 .117.917zm32.588-15.883v3.449a.863.863 0 0 1-.862.862h-1.664c-.378 0-.71.235-.809.571-.314 1.07-.626 1.88-.953 2.48a.836.836 0 0 0 .163.983l1.179 1.179a.862.862 0 0 1 0 1.218l-2.69 2.69a.861.861 0 0 1-1.22 0l-1.178-1.176c-.267-.266-.67-.334-.983-.163-.597.325-1.409.636-2.478.952-.338.099-.574.432-.574.808v1.664a.86.86 0 0 1-.86.862h-3.448a.863.863 0 0 1-.862-.862v-1.665c0-.377-.236-.71-.573-.808-1.07-.316-1.882-.628-2.48-.954-.31-.17-.715-.103-.981.163l-1.178 1.178a.86.86 0 0 1-1.22 0l-2.69-2.69a.86.86 0 0 1 0-1.22l1.179-1.177a.837.837 0 0 0 .162-.983c-.326-.6-.638-1.411-.952-2.48-.1-.337-.432-.572-.809-.572h-1.665a.862.862 0 0 1-.862-.862v-3.449c0-.476.386-.862.862-.862h1.664c.378 0 .71-.235.809-.572.315-1.07.626-1.88.953-2.48.17-.311.102-.716-.163-.981l-1.179-1.18a.863.863 0 0 1 0-1.218l2.69-2.69a.861.861 0 0 1 1.22 0l1.177 1.176c.267.266.67.334.983.163.597-.324 1.409-.636 2.478-.952.338-.1.573-.432.573-.808v-1.664c0-.475.386-.862.862-.862h3.448c.476 0 .862.387.862.862v1.665c0 .378.236.71.573.809 1.07.315 1.882.627 2.48.953.312.17.715.103.982-.163l1.178-1.178a.86.86 0 0 1 1.22 0l2.69 2.69a.86.86 0 0 1 0 1.22l-1.179 1.178c-.266.266-.333.67-.163.982.327.6.64 1.411.953 2.48.1.337.431.572.809.572h1.664c.476 0 .862.386.862.862zm-1.721.86h-.803c-1.136 0-2.149-.744-2.463-1.809-.28-.95-.545-1.65-.813-2.14-.533-.98-.344-2.225.459-3.029l.568-.568-1.472-1.472-.569.569c-.802.803-2.047.992-3.025.458-.49-.267-1.19-.533-2.142-.814-1.065-.313-1.81-1.326-1.81-2.461v-.802h-1.723v.803c0 1.136-.744 2.149-1.81 2.463-.952.28-1.652.546-2.141.813-.98.534-2.224.345-3.027-.46l-.568-.567-1.472 1.471.57.57c.802.802.99 2.047.458 3.025-.268.492-.534 1.192-.813 2.142-.313 1.065-1.327 1.81-2.463 1.81h-.802v1.723h.802c1.136 0 2.15.745 2.463 1.81.28.95.546 1.651.813 2.141.534.98.345 2.224-.458 3.027l-.569.568 1.472 1.472.568-.567c.803-.804 2.047-.992 3.026-.46.49.268 1.19.534 2.142.814 1.065.314 1.81 1.327 1.81 2.463v.802h1.722v-.802c0-1.138.744-2.15 1.81-2.464.951-.28 1.652-.546 2.142-.813.979-.534 2.223-.345 3.026.46l.569.567 1.471-1.472-.568-.57c-.803-.802-.991-2.046-.459-3.026.268-.49.534-1.191.813-2.14.314-1.067 1.327-1.811 2.463-1.811h.803zm-6.036.863a6.905 6.905 0 0 1-6.896 6.897 6.905 6.905 0 0 1-6.897-6.897 6.904 6.904 0 0 1 6.897-6.896 6.904 6.904 0 0 1 6.896 6.896zm-1.724 0a5.178 5.178 0 0 0-5.172-5.171 5.178 5.178 0 0 0-5.173 5.171 5.178 5.178 0 0 0 5.173 5.173 5.177 5.177 0 0 0 5.172-5.173z"/></defs><g><g transform="translate(-395 -2444)"><use fill="#7f8890" xlink:href="#e7ioa"/></g></g></svg>