<svg xmlns="http://www.w3.org/2000/svg" xmlns:xlink="http://www.w3.org/1999/xlink" width="36" height="36" viewBox="0 0 36 36"><defs><path id="3c50a" d="M519.971 4281.642v30.714a2.641 2.641 0 0 1-2.633 2.643H502.66a2.641 2.641 0 0 1-2.632-2.644v-30.713a2.64 2.64 0 0 1 2.632-2.642h14.68a2.64 2.64 0 0 1 2.631 2.642zm-18.935 24.395h17.928v-22.113h-17.929zm0-24.582v1.582h17.928v-1.582c0-.796-.645-1.443-1.438-1.443h-15.053c-.793 0-1.438.647-1.438 1.443zm17.928 31.026v-5.494h-17.929v5.494c0 .796.645 1.443 1.438 1.443h15.054c.792 0 1.437-.647 1.437-1.443zm-6.574-1.682c0 1.324-1.072 2.4-2.39 2.4a2.398 2.398 0 0 1-2.39-2.4c0-1.323 1.071-2.4 2.39-2.4a2.397 2.397 0 0 1 2.39 2.4zm-1.195 0c0-.662-.536-1.2-1.195-1.2-.66 0-1.196.538-1.196 1.2 0 .662.536 1.2 1.196 1.2.659 0 1.195-.538 1.195-1.2zm-4.183-29.337c0-.332.267-.6.597-.6H510c.331 0 .598.268.598.6 0 .331-.267.6-.597.6h-2.39a.598.598 0 0 1-.598-.6zm4.183 0c0-.332.267-.6.597-.6h.598c.33 0 .598.268.598.6 0 .331-.267.6-.598.6h-.598a.598.598 0 0 1-.597-.6zm14.708 10.107a.594.594 0 0 1-.845 0 .6.6 0 0 1 0-.849 5.773 5.773 0 0 0 0-8.131.6.6 0 0 1 0-.848.596.596 0 0 1 .845 0c2.699 2.71 2.699 7.12 0 9.828zm-1.02-4.83a5.11 5.11 0 0 1-1.496 3.63.596.596 0 0 1-.845 0 .601.601 0 0 1 0-.848 3.916 3.916 0 0 0 1.146-2.783 3.918 3.918 0 0 0-1.146-2.783.6.6 0 0 1 0-.849.595.595 0 0 1 .845 0 5.108 5.108 0 0 1 1.496 3.632zm-29.942 3.981a.6.6 0 0 1-.422 1.024.594.594 0 0 1-.423-.175c-2.699-2.71-2.699-7.119 0-9.828a.596.596 0 0 1 .845 0 .6.6 0 0 1 0 .848 5.772 5.772 0 0 0 0 8.131zm2.517-6.931a3.914 3.914 0 0 0-1.147 2.783c0 1.052.407 2.041 1.147 2.783a.6.6 0 0 1-.423 1.025.592.592 0 0 1-.422-.177 5.111 5.111 0 0 1-1.497-3.631 5.11 5.11 0 0 1 1.497-3.631.595.595 0 0 1 .845 0 .602.602 0 0 1 0 .848z"/></defs><g><g transform="translate(-492 -4279)"><use fill="#b0abb3" xlink:href="#3c50a"/></g></g></svg>