<svg xmlns="http://www.w3.org/2000/svg" xmlns:xlink="http://www.w3.org/1999/xlink" width="50" height="50" viewBox="0 0 50 50"><defs><path id="ugz0a" d="M433.742 2600.108l-1.966 3.286a4.81 4.81 0 0 1-2.847 2.199c-1.004.271-2.04.406-3.08.402-4.494 0-11.02-2.36-19.758-11.117-10.997-11.026-11.883-18.537-10.69-22.896a4.815 4.815 0 0 1 2.193-2.853l3.273-1.973a2.458 2.458 0 0 1 3.322.749l5.226 7.858a2.483 2.483 0 0 1-.537 3.32l-2.935 2.289a.798.798 0 0 0-.215 1.019l.24.436c.78 1.432 1.75 3.218 5.342 6.818 3.591 3.6 5.37 4.572 6.8 5.353l.436.241c.345.191.778.1 1.016-.215l2.282-2.942a2.47 2.47 0 0 1 3.312-.54l7.84 5.24a2.47 2.47 0 0 1 .746 3.326zm-1.667-1.94l-7.84-5.24a.804.804 0 0 0-1.08.177l-2.282 2.94a2.44 2.44 0 0 1-3.135.648l-.424-.234c-1.523-.833-3.417-1.866-7.179-5.638-3.761-3.772-4.795-5.671-5.626-7.198l-.231-.424a2.454 2.454 0 0 1 .645-3.142l2.935-2.289a.81.81 0 0 0 .175-1.081l-5.225-7.858a.802.802 0 0 0-1.08-.244l-3.28 1.972a3.16 3.16 0 0 0-1.445 1.866c-1.077 3.933-.17 10.822 10.263 21.276 10.433 10.453 17.303 11.369 21.224 10.287a3.16 3.16 0 0 0 1.861-1.449l1.967-3.286a.805.805 0 0 0-.243-1.083zm-10.328-30.53c0 .46-.372.832-.83.832h-2.492a.832.832 0 1 1 0-1.665h2.492c.458 0 .83.373.83.832zm0 3.33c0 .46-.372.832-.83.832h-2.492a.832.832 0 0 1 0-1.665h2.492c.458 0 .83.373.83.832zm23.253-1.665a5.815 5.815 0 0 1-4.981 5.76v5.852a1.717 1.717 0 0 1-.858 1.495c-.51.294-1.14.285-1.642-.02l-10.197-6.427H425.9v9.159c0 .92-.744 1.664-1.661 1.664h-2.709a1.653 1.653 0 0 1-1.588-1.174l-1.863-6.073a.835.835 0 0 1 .174-.827.829.829 0 0 1 1.413.337l1.864 6.073h2.709v-9.16h-7.475a3.326 3.326 0 0 1-3.322-3.329v-6.66c0-1.84 1.487-3.331 3.322-3.331h10.558l10.182-6.417a1.617 1.617 0 0 1 1.657-.03c.533.308.86.878.858 1.495v5.851a5.817 5.817 0 0 1 4.981 5.762zm-6.612 11.667l-.008-6.566a.765.765 0 0 1-.022-.106.813.813 0 0 1 .022-.103l-.014-9.843c0-.015-.008-.027-.008-.042 0-.015.008-.028.008-.043l-.008-6.577-10.351 6.49c-.02.012-.04.012-.06.022a.755.755 0 0 1-.156.06.757.757 0 0 1-.166.032.574.574 0 0 1-.064.013h-10.797c-.918 0-1.661.746-1.661 1.665v6.661c0 .92.743 1.665 1.66 1.665h9.967v-7.493a.832.832 0 1 1 1.661 0v7.865zm4.957-11.667c0-1.98-1.39-3.686-3.326-4.08v8.16a4.16 4.16 0 0 0 3.326-4.08z"/></defs><g><g transform="translate(-395 -2556)"><use fill="#7f8890" xlink:href="#ugz0a"/></g></g></svg>