<svg xmlns="http://www.w3.org/2000/svg" xmlns:xlink="http://www.w3.org/1999/xlink" width="36" height="36" viewBox="0 0 36 36"><defs><path id="m2cpa" d="M1187.2 4291.6v2.4a.6.6 0 0 1-.6.6h-13.2a.6.6 0 0 1-.6-.6v-2.4a5.407 5.407 0 0 1 4.376-5.3 4.184 4.184 0 0 1-1.376-3.1c0-2.316 1.884-4.2 4.2-4.2 2.316 0 4.2 1.884 4.2 4.2a4.184 4.184 0 0 1-1.376 3.1 5.407 5.407 0 0 1 4.376 5.3zm-7.2-5.4c1.654 0 3-1.346 3-3 0-1.655-1.346-3-3-3s-3 1.345-3 3c0 1.654 1.346 3 3 3zm6 5.4c0-2.316-1.884-4.2-4.2-4.2h-3.6a4.205 4.205 0 0 0-4.2 4.2v1.8h12zm-9.6 20.399v2.4a.6.6 0 0 1-.6.6h-13.2a.6.6 0 0 1-.6-.6v-2.4a5.406 5.406 0 0 1 4.376-5.3 4.188 4.188 0 0 1-1.376-3.1c0-2.315 1.884-4.2 4.2-4.2 2.316 0 4.2 1.885 4.2 4.2a4.188 4.188 0 0 1-1.376 3.1 5.406 5.406 0 0 1 4.376 5.3zm-7.2-5.4c1.654 0 3-1.345 3-3 0-1.654-1.346-3-3-3s-3 1.346-3 3c0 1.655 1.346 3 3 3zm6 5.4c0-2.315-1.884-4.2-4.2-4.2h-3.6a4.205 4.205 0 0 0-4.2 4.2v1.8h12zm22.8 0v2.4a.6.6 0 0 1-.6.6h-13.2a.6.6 0 0 1-.6-.6v-2.4a5.406 5.406 0 0 1 4.376-5.3 4.187 4.187 0 0 1-1.376-3.1c0-2.315 1.884-4.2 4.2-4.2 2.316 0 4.2 1.885 4.2 4.2a4.188 4.188 0 0 1-1.376 3.1 5.406 5.406 0 0 1 4.376 5.3zm-7.2-5.4c1.654 0 3-1.345 3-3 0-1.654-1.346-3-3-3s-3 1.346-3 3c0 1.655 1.346 3 3 3zm6 5.4c0-2.315-1.884-4.2-4.2-4.2h-3.6a4.205 4.205 0 0 0-4.2 4.2v1.8h12zm-31.097-12.67l-1.192.142a15.74 15.74 0 0 1-.098-1.244l1.198-.047c.015.381.046.768.092 1.148zm-.001-3.45c-.045.38-.076.765-.09 1.149l-1.2-.047c.016-.416.05-.834.098-1.244zm5.569-9.734c-.303.23-.602.478-.887.734l-.803-.893c.31-.278.634-.546.962-.796zm-4.305 5.325c-.163.345-.314.701-.449 1.06l-1.123-.422c.147-.39.31-.775.486-1.15zm-.81 2.154a14.22 14.22 0 0 0-.273 1.118l-1.176-.237c.082-.407.18-.815.295-1.212zm3.402-5.94c-.265.279-.52.57-.76.866l-.932-.755c.259-.32.535-.635.822-.938zm3.647-2.784c-.334.179-.667.375-.991.584l-.65-1.009c.35-.226.713-.44 1.076-.633zm-5.095 4.573c-.216.315-.423.644-.612.975l-1.041-.596c.206-.36.429-.715.663-1.058zm10.183 22.426l-.14 1.192c-.414-.05-.829-.114-1.233-.196l.237-1.177c.372.076.755.136 1.136.181zm4.826.99a15.98 15.98 0 0 1-1.231.198l-.145-1.192c.383-.046.765-.108 1.138-.183zm-2.475.297a14.871 14.871 0 0 1-1.247.001l.047-1.198c.38.015.768.013 1.152-.002zm10.671-26.324l-.87.824c-.263-.275-.54-.545-.826-.802l.802-.893c.31.278.61.571.894.87zm1.566 1.936l-.989.68a14.296 14.296 0 0 0-.688-.925l.933-.755c.259.321.51.658.744 1zm2.719 8.8c0 .212-.004.422-.013.63l-1.198-.046a14.515 14.515 0 0 0 0-1.153l1.198-.046c.009.203.013.41.013.615zm-1.478-6.637l-1.086.511a14.772 14.772 0 0 0-.532-1.02l1.042-.597c.205.359.4.73.576 1.106zm.877 2.334l-1.154.33a14.533 14.533 0 0 0-.361-1.092l1.123-.423c.146.388.278.787.392 1.185zm.49 2.445l-1.191.142c-.044-.38-.106-.763-.181-1.138l1.176-.236c.082.407.148.822.197 1.232zm-6.028-10.546l-.728.954a14.473 14.473 0 0 0-.943-.661l.65-1.01c.348.224.69.465 1.021.717zm-2.096-1.35l-.568 1.057c-.337-.18-.685-.35-1.035-.503l.48-1.1c.38.166.758.35 1.123.547z"/></defs><g><g transform="translate(-1162 -4279)"><use fill="#b0abb3" xlink:href="#m2cpa"/></g></g></svg>