<svg xmlns="http://www.w3.org/2000/svg" xmlns:xlink="http://www.w3.org/1999/xlink" width="36" height="36" viewBox="0 0 36 36"><defs><path id="pvrya" d="M524.142 1694.307a.6.6 0 0 1 .15.835l-3.728 5.358a.6.6 0 0 1-.873.12l-2.871-2.357a.6.6 0 1 1 .76-.927l2.37 1.945 3.357-4.824a.598.598 0 0 1 .835-.15zm-12.242-6.912c0 1.324-1.076 2.4-2.4 2.4-1.088 0-2-.732-2.292-1.727H502.9a.6.6 0 1 1 0-1.2h4.262a2.398 2.398 0 0 1 1.738-1.787v-6.086a.6.6 0 0 1 1.2 0v6.086c1.032.268 1.8 1.2 1.8 2.314zm-1.2 0a1.201 1.201 0 0 0-2.4 0 1.201 1.201 0 0 0 2.4 0zm-1.3-13.068v-.6a.6.6 0 1 1 1.2 0v.6a.6.6 0 1 1-1.2 0zm1.2 25.2v.6a.6.6 0 1 1-1.2 0v-.6a.6.6 0 1 1 1.2 0zm11.4-12.6a.6.6 0 0 1 .6-.6h.6a.6.6 0 1 1 0 1.2h-.6a.6.6 0 0 1-.6-.6zm-24 0a.6.6 0 0 1-.6.6h-.6a.6.6 0 1 1 0-1.2h.6a.6.6 0 0 1 .6.6zm20.485-8.486a.6.6 0 0 1 0-.849l.424-.424a.6.6 0 1 1 .849.849l-.424.424a.597.597 0 0 1-.849 0zm-16.97 16.97a.6.6 0 0 1 0 .85l-.424.424a.6.6 0 1 1-.849-.848l.424-.425a.6.6 0 0 1 .849 0zm0-17.819a.6.6 0 1 1-.849.85l-.424-.425a.6.6 0 1 1 .849-.849zm25.375 15.617a7.739 7.739 0 0 1 1.11 3.99c0 4.301-3.5 7.8-7.8 7.8-1.46 0-2.82-.41-3.99-1.11A17.922 17.922 0 0 1 510 1705c-9.925 0-18-8.074-18-18 0-9.925 8.075-18 18-18s18 8.075 18 18c0 2.13-.376 4.217-1.11 6.21zm-12.018 9.67a7.691 7.691 0 0 1-.804-.877 7.96 7.96 0 0 1-.254-.34 7.518 7.518 0 0 1-.194-.293 7.768 7.768 0 0 1-.223-.367c-.059-.106-.112-.213-.166-.322-.062-.124-.125-.247-.18-.374-.054-.122-.1-.247-.146-.372-.044-.12-.092-.237-.131-.358-.047-.145-.083-.294-.12-.442-.028-.108-.061-.214-.084-.323-.037-.177-.062-.358-.087-.538-.012-.086-.03-.17-.04-.256a7.815 7.815 0 0 1-.043-.818c0-4.3 3.5-7.8 7.8-7.8.276 0 .549.016.817.044.085.009.169.027.253.038.182.026.364.05.542.088.108.023.212.055.319.082.15.039.3.076.446.122.12.038.236.086.354.13.127.048.254.093.377.147.125.055.247.118.37.178.11.055.22.109.326.169.124.07.243.144.362.22.102.065.202.13.3.197a8.605 8.605 0 0 1 .914.752c.105.1.205.203.303.308.048.052.102.098.148.15.511-1.624.769-3.31.769-5.024 0-9.264-7.537-16.8-16.8-16.8-9.263 0-16.8 7.536-16.8 16.8 0 9.263 7.537 16.8 16.8 16.8 1.715 0 3.4-.26 5.025-.77-.055-.047-.101-.102-.153-.151zm11.928-5.68a6.552 6.552 0 0 0-1.087-3.617c-.144-.22-.3-.428-.465-.625-.03-.037-.064-.07-.096-.105a6.701 6.701 0 0 0-.604-.604 5.94 5.94 0 0 0-.38-.308c-.07-.055-.14-.11-.213-.16a6.635 6.635 0 0 0-1.274-.692c-.078-.031-.157-.057-.236-.086a6.438 6.438 0 0 0-1.253-.32c-.076-.011-.152-.026-.23-.034a6.4 6.4 0 0 0-.762-.048c-3.64 0-6.6 2.96-6.6 6.6 0 .256.019.51.047.762.01.077.024.154.036.23a6.485 6.485 0 0 0 .164.773c.045.162.097.321.154.48.03.078.056.158.087.235a6.324 6.324 0 0 0 .35.73c.105.187.218.369.342.545.05.073.105.142.159.213a6.797 6.797 0 0 0 .484.573c.136.142.279.28.428.41l.105.097c.199.165.407.321.627.465a6.557 6.557 0 0 0 3.617 1.086c3.639 0 6.6-2.96 6.6-6.6z"/></defs><g><g transform="translate(-492 -1669)"><use fill="#b0abb3" xlink:href="#pvrya"/></g></g></svg>