<svg xmlns="http://www.w3.org/2000/svg" xmlns:xlink="http://www.w3.org/1999/xlink" width="35" height="35" viewBox="0 0 35 35"><defs><path id="46p9a" d="M527 2947.854v9.29h-3.167c-.248.77-.557 1.516-.922 2.23l2.57 2.57-6.569 6.568-2.57-2.57c-.713.364-1.459.673-2.228.921V2970h-9.29v-3.137a15.004 15.004 0 0 1-2.229-.921l-2.57 2.57-6.569-6.569 2.57-2.57a15 15 0 0 1-.921-2.229H492v-9.29h3.105c.248-.77.557-1.515.921-2.228l-2.57-2.57 6.57-6.57 2.569 2.57c.713-.364 1.46-.673 2.228-.92v-3.168h9.29v3.167c.77.248 1.516.557 2.23.922l2.57-2.57 6.568 6.569-2.57 2.57c.365.713.674 1.459.922 2.228zm-33.964 4.065h5.449a3.488 3.488 0 0 1 3.436-4.065 3.488 3.488 0 0 1 3.435 4.065l3.53-.002-.003-5.194.817.357a2.325 2.325 0 0 0 3.252-2.13 2.325 2.325 0 0 0-3.251-2.128l-.814.355.001-7.173h-2.903V2939l-.419.122a13.85 13.85 0 0 0-2.8 1.158l-.381.21-2.36-2.361-4.927 4.927 2.36 2.36-.21.382a13.9 13.9 0 0 0-1.157 2.8l-.122.417h-2.933zm15.852 11.565a3.487 3.487 0 0 1-4.065-3.436 3.488 3.488 0 0 1 4.065-3.436l-.002-3.53-5.194.004.358-.818a2.325 2.325 0 0 0-2.13-3.252 2.325 2.325 0 0 0-2.129 3.25l.355.815-7.11-.001v2.903h2.933l.122.419c.285.977.674 1.919 1.158 2.8l.21.381-2.36 2.36 4.926 4.927 2.36-2.36.382.21c.88.483 1.823.873 2.8 1.157l.418.122v2.964h2.903zm17.076-10.404h-5.511a3.487 3.487 0 0 1-3.436 4.065 3.487 3.487 0 0 1-3.436-4.065l-3.53.002.004 5.194-.818-.358a2.325 2.325 0 0 0-3.252 2.13 2.325 2.325 0 0 0 3.251 2.129l.814-.355v7.14h2.903V2966l.418-.122c.977-.285 1.92-.675 2.8-1.158l.382-.21 2.36 2.36 4.927-4.926-2.36-2.36.209-.383c.484-.88.873-1.821 1.158-2.799l.121-.418h2.996zm0-4.065h-2.996l-.122-.418a13.88 13.88 0 0 0-1.158-2.8l-.21-.381 2.361-2.361-4.927-4.927-2.36 2.36-.382-.21a13.906 13.906 0 0 0-2.8-1.157l-.417-.121v-2.996h-2.904v5.511a3.487 3.487 0 0 1 4.064 3.436 3.487 3.487 0 0 1-4.064 3.436l.002 3.53 5.195-.004-.358.818a2.325 2.325 0 0 0 2.13 3.252 2.325 2.325 0 0 0 2.128-3.252l-.355-.813h7.173z"/></defs><g><g transform="translate(-492 -2935)"><use fill="#b0abb3" xlink:href="#46p9a"/></g></g></svg>