<svg xmlns="http://www.w3.org/2000/svg" xmlns:xlink="http://www.w3.org/1999/xlink" width="50" height="50" viewBox="0 0 50 50"><defs><path id="6w2ca" d="M745 2377.449c0 2.51-2.041 4.55-4.55 4.55a4.556 4.556 0 0 1-4.55-4.55c0-1.004.327-1.932.879-2.685l-4.686-4.687a17.777 17.777 0 0 1-12.033 4.693 17.79 17.79 0 0 1-12.032-4.693l-4.757 4.757c.522.741.83 1.642.83 2.614a4.528 4.528 0 0 1-2.513 4.069.732.732 0 1 1-.657-1.31 3.072 3.072 0 0 0 1.704-2.759 3.089 3.089 0 0 0-3.085-3.085 3.089 3.089 0 0 0-3.085 3.085c0 1.175.653 2.232 1.704 2.76a.733.733 0 0 1-.657 1.309 4.528 4.528 0 0 1-2.512-4.069 4.556 4.556 0 0 1 4.55-4.55c1.009 0 1.942.33 2.697.888l4.743-4.743a17.767 17.767 0 0 1-4.716-12.062c0-4.577 1.754-8.841 4.692-12.034l-4.728-4.728a4.527 4.527 0 0 1-2.688.882 4.556 4.556 0 0 1-4.55-4.55c0-2.51 2.041-4.551 4.55-4.551a4.555 4.555 0 0 1 4.55 4.55c0 .977-.31 1.881-.836 2.624l4.736 4.735a17.806 17.806 0 0 1 12.06-4.717c4.661 0 8.912 1.816 12.06 4.717l4.665-4.665a4.524 4.524 0 0 1-.885-2.694c0-2.51 2.04-4.55 4.55-4.55 1.731 0 3.29.962 4.068 2.512a.732.732 0 1 1-1.31.657 3.072 3.072 0 0 0-2.758-1.705 3.089 3.089 0 0 0-3.086 3.086 3.089 3.089 0 0 0 3.086 3.086 3.07 3.07 0 0 0 2.759-1.705.733.733 0 0 1 1.309.657 4.529 4.529 0 0 1-4.068 2.513c-.974 0-1.877-.31-2.618-.832l-4.677 4.678c6.248 6.791 6.266 17.291-.025 24.096l4.693 4.693a4.524 4.524 0 0 1 2.627-.838 4.556 4.556 0 0 1 4.55 4.55zm-42.365-40.898a3.09 3.09 0 0 0-3.085-3.087 3.089 3.089 0 0 0-3.085 3.087 3.089 3.089 0 0 0 3.085 3.085 3.089 3.089 0 0 0 3.085-3.085zm4.517 10.453a24.497 24.497 0 0 0 4.494 2.173c.703-2.78 1.968-5.864 3.97-7.899a16.316 16.316 0 0 0-8.464 5.726zm5.041 9.244h7.134v-4.142a26.096 26.096 0 0 1-6.601-1.035 31.316 31.316 0 0 0-.533 5.177zm-8.437 0h6.972c.04-1.952.243-3.849.595-5.63a26.06 26.06 0 0 1-5.017-2.416 16.22 16.22 0 0 0-2.55 8.046zm7.596 7.243a32.467 32.467 0 0 1-.624-5.777h-6.972a16.218 16.218 0 0 0 2.623 8.157 25.981 25.981 0 0 1 4.973-2.38zm4.263 9.191c-1.975-2.008-3.23-5.038-3.932-7.754a24.539 24.539 0 0 0-4.449 2.136 16.318 16.318 0 0 0 8.38 5.618zm3.712-9.204a24.585 24.585 0 0 0-6.25.994c.851 3.342 2.89 8.084 6.25 8.76zm0-5.764h-7.134c.04 1.85.231 3.644.562 5.325a26.072 26.072 0 0 1 6.573-1.027zm0-16.984c-3.389.681-5.452 5.544-6.287 8.906 2.03.603 4.141.942 6.288 1.005zm17.037 16.984h-6.972a32.607 32.607 0 0 1-.625 5.777 25.977 25.977 0 0 1 4.974 2.38 16.216 16.216 0 0 0 2.623-8.157zm-7.567-7.096c.352 1.781.554 3.678.595 5.63h6.972a16.218 16.218 0 0 0-2.55-8.046 26.057 26.057 0 0 1-5.017 2.416zm-4.293-9.34c2 2.032 3.267 5.117 3.97 7.899a24.465 24.465 0 0 0 4.494-2.174 16.317 16.317 0 0 0-8.464-5.725zm-3.712 9.363a24.628 24.628 0 0 0 6.288-1.005c-.839-3.375-2.904-8.233-6.288-8.906zm0 5.607h7.135a31.316 31.316 0 0 0-.533-5.177c-2.133.623-4.349.973-6.601 1.035zm0 5.764c2.242.062 4.449.409 6.573 1.027.33-1.681.522-3.475.562-5.325h-7.134zm6.251 2.46a24.587 24.587 0 0 0-6.25-.995v9.755c3.349-.667 5.405-5.442 6.25-8.76zm5.843 2.592a24.503 24.503 0 0 0-4.45-2.136c-.702 2.72-1.956 5.747-3.93 7.754a16.31 16.31 0 0 0 8.38-5.618zm10.649 10.384a3.089 3.089 0 0 0-3.085-3.085 3.09 3.09 0 0 0-3.086 3.085 3.089 3.089 0 0 0 3.086 3.086 3.089 3.089 0 0 0 3.085-3.086z"/></defs><g><g transform="translate(-695 -2332)"><use fill="#7f8890" xlink:href="#6w2ca"/></g></g></svg>