<svg xmlns="http://www.w3.org/2000/svg" xmlns:xlink="http://www.w3.org/1999/xlink" width="50" height="50" viewBox="0 0 50 50"><defs><path id="9pwfa" d="M444.928 2354.518a.834.834 0 0 1-.832.81h-.024a.835.835 0 0 1-.81-.857c.159-5.631-1.974-11.086-5.847-14.964-3.875-3.878-9.333-6-14.945-5.854-.453.03-.843-.35-.857-.81a.834.834 0 0 1 .81-.857c6.08-.182 11.972 2.14 16.17 6.342 4.196 4.201 6.505 10.103 6.335 16.19zm-6.661-.048c.13-4.34-1.468-8.504-4.385-11.426-2.853-2.856-7.018-4.467-11.422-4.389h-.014a.833.833 0 0 1-.013-1.667c4.886-.057 9.456 1.704 12.626 4.877 3.241 3.246 5.017 7.858 4.873 12.655a.834.834 0 0 1-.832.809h-.026a.834.834 0 0 1-.807-.86zm-16.654-11.646c0-.46.373-.834.833-.834 2.118 0 6.115.443 9.081 3.413 2.966 2.97 3.409 6.972 3.409 9.092a.833.833 0 1 1-1.665 0c0-1.862-.38-5.368-2.921-7.913-2.541-2.544-6.044-2.925-7.904-2.925a.833.833 0 0 1-.833-.833zm18.092 29.093a.834.834 0 0 1 0 1.179l-2.333 2.338a.83.83 0 0 1-1.177 0 .834.834 0 0 1 0-1.179l1.744-1.748-8.311-8.322-4.155 4.16c-2.655 2.658-7.899 2.771-13.632-2.969-5.308-5.314-5.605-10.209-3.512-13.015l-6.57-6.579a.833.833 0 1 1 1.177-1.179l7.116 7.126a.834.834 0 0 1 0 1.179c-2.067 2.07-1.952 6.365 2.967 11.29 4.92 4.925 9.208 5.039 11.277 2.969l4.743-4.75a.856.856 0 0 1 1.178 0zm-4.743 4.75a.834.834 0 0 1 0 1.179c-2.763 2.766-5.695 4.153-8.76 4.153-1.507 0-3.045-.335-4.61-1.008-.231-.091-6.167-2.525-14.496-10.864-8.327-8.337-10.758-14.282-10.86-14.53-2.408-4.818-1.504-8.708 3.152-13.368l4.743-4.751a.856.856 0 0 1 1.178 0l9.49 9.5a.834.834 0 0 1 0 1.18l-2.374 2.374a.833.833 0 1 1-1.177-1.179l1.783-1.785-8.311-8.32-4.155 4.16c-4.106 4.109-4.893 7.336-2.81 11.506.051.121 2.463 5.968 10.52 14.034 8.087 8.098 13.895 10.48 13.952 10.503 3.915 1.679 7.498.956 10.956-2.207l-6.515-6.524a.835.835 0 0 1 0-1.178.83.83 0 0 1 1.177 0z"/></defs><g><g transform="translate(-395 -2332)"><use xlink:href="#9pwfa"/></g></g></svg>