<svg xmlns="http://www.w3.org/2000/svg" xmlns:xlink="http://www.w3.org/1999/xlink" width="54" height="54"><defs><path id="a" d="M423.73 2477.82l-32.72 32.7c0 .02-.01.02-.02.03l-.06.05a.88.88 0 0 1-.28.14c-.02.01-.04.03-.07.03l-13.47 3.2a.9.9 0 0 1-1.05-.57.9.9 0 0 1-.06-.3v-.03c0-.06 0-.13.02-.19l3.2-13.47.02-.02c0-.03.02-.05.03-.07a.88.88 0 0 1 .1-.22l.06-.07.04-.05 32.71-32.7a8.18 8.18 0 0 1 11.55 11.54zm-9.57-10.86l8.87 8.88a6.36 6.36 0 0 0-8.87-8.88zm5.08 12.78l-8.98-8.98-1.29 1.28 8.98 8.98zm-38.74 31.04l-.69.69 9.73-2.32.45-4-4.65.5-.1.01h-.1c-.03 0-.06-.03-.1-.03a.99.99 0 0 1-.18-.06.9.9 0 0 1-.36-.31.9.9 0 0 1-.13-.32c-.01-.03-.03-.05-.03-.08v-.2l.52-4.65-4.01.45-2.32 9.73.69-.69a.9.9 0 1 1 1.28 1.28zm11.06-3.36l25.11-25.11-8.98-8.98-25.1 25.1 2.88-.31 20.3-20.3a.9.9 0 1 1 1.28 1.28l-20.3 20.3-.48 4.33 4.33-.48 20.3-20.3a.9.9 0 1 1 1.28 1.28l-20.3 20.3zm30.24-30.24l-8.98-8.99-1.28 1.29 8.98 8.98z"/></defs><use fill="#b0abb3" xlink:href="#a" transform="translate(-374 -2462)"/></svg>