<svg xmlns="http://www.w3.org/2000/svg" xmlns:xlink="http://www.w3.org/1999/xlink" width="53" height="47"><defs><path id="a" d="M725 2465.13l-13.67 38.37a.8.8 0 0 1-.5.5l-.07.02a.8.8 0 0 1-.57-.07l-18.12-10.02-1.28 11.06 5.93-6a.8.8 0 0 1 1.13 0 .8.8 0 0 1 0 1.14l-7.55 7.63a.76.76 0 0 1-.15.12.79.79 0 0 1-1.07-.21.8.8 0 0 1-.14-.33l-3.48-17.14-10.03-5.7a.8.8 0 0 1 .1-1.45l48.42-18.94a.8.8 0 0 1 .85.18c.22.22.3.55.2.84zm-38.86 23.6l31.12-20.27-39.58 15.48zm27.8-16.2l-26.88 17.52 2.45 12.07 1.11-9.54a.8.8 0 0 1 .3-.56zm8.55-5.14l-29.67 25.12 17.32 9.57z"/></defs><use fill="#b0abb3" xlink:href="#a" transform="translate(-674 -2462)"/></svg>