<svg xmlns="http://www.w3.org/2000/svg" xmlns:xlink="http://www.w3.org/1999/xlink" width="49" height="53"><defs><path id="a" d="M1005.52 2507.73v4.8h-11.05v-1.45h9.6v-3.35zm-15.1 3.35h1.82v1.44h-1.81zm9.13-39.88v2.25h-1.44v-.8H995v-1.45zm-5.65-1.76a1.72 1.72 0 1 1-3.45 0 1.72 1.72 0 0 1 3.45 0zm-1.44 0a.28.28 0 1 0-.56 0 .28.28 0 0 0 .56 0zm-6.48 12v6.8h-6.81v-6.8zm-1.45 1.45h-3.92v3.91h3.92zm1.45 8.06v6.8h-6.81v-6.8zm-1.45 1.45h-3.92v3.91h3.92zm1.45 8.06v6.8h-6.81v-6.8zm-1.45 1.45h-3.92v3.91h3.92zm4.54-17.79h13.6v1.44h-13.6zm25.72-1.3l-4 4-1.03-1.03 2.99-2.98-.9-.9 1.01-1.02zm-6.9 4.85l.96-.97 1.02 1.02-.96.97zm10.95-5.4L1008 2493.1v21.9h-33v-42.5h6.47v-3.78h6.32a4.41 4.41 0 0 1 4.39-3.72 4.42 4.42 0 0 1 4.39 3.72h5.46v3.78h5.97v8.23l4.65-4.64a4 4 0 0 1 5.63 0l.56.56a3.98 3.98 0 0 1 0 5.62zm-35.93-5.37h17.68v-6.74h-5.4v-.72a2.98 2.98 0 0 0-3.01-3 2.99 2.99 0 0 0-3 3v.72h-6.27zm23.65 17.63l-7.24 7.23-4.67 1.38h8.03v1.44h-13.6v-1.44h1.8l2.25-7.56.5-.5h-4.56v-1.45h6l11.49-11.46v-8.23h-4.53v4.4h-20.56v-4.4h-5.03v39.62h30.12zm-13.9 7.7l4.91-1.46-3.45-3.45zm23.6-19.42l-4.15-4.14-17.32 17.29 4.15 4.14zm1.56-5.14l-.56-.56a2.54 2.54 0 0 0-3.6 0l-.53.54 4.15 4.14.54-.54c.99-.98.99-2.6 0-3.58z"/></defs><use fill="#b0abb3" xlink:href="#a" transform="translate(-973 -2463)"/></svg>