<svg xmlns="http://www.w3.org/2000/svg" xmlns:xlink="http://www.w3.org/1999/xlink" width="50" height="50" viewBox="0 0 50 50"><defs><path id="not7a" d="M445 3082.967c0 9.909-8.06 17.97-17.969 17.97a17.899 17.899 0 0 1-12.19-4.782l-2.437 2.436c.432.63.666 1.374.666 2.153a3.79 3.79 0 0 1-1.118 2.698l-10.44 10.44a3.79 3.79 0 0 1-2.697 1.117 3.79 3.79 0 0 1-2.698-1.117 3.793 3.793 0 0 1-1.117-2.698c0-1.019.397-1.977 1.117-2.698l10.44-10.44a3.79 3.79 0 0 1 2.698-1.117c.726 0 1.421.202 2.022.58l2.462-2.462a17.903 17.903 0 0 1-4.677-12.08c0-9.907 8.061-17.968 17.97-17.968 9.907 0 17.968 8.06 17.968 17.968zm-33.493 17.777c0-.602-.234-1.167-.66-1.592a2.237 2.237 0 0 0-1.592-.66c-.602 0-1.168.235-1.593.66l-10.44 10.439a2.24 2.24 0 0 0-.66 1.593c0 .602.235 1.167.66 1.593.426.424.991.66 1.593.66s1.167-.236 1.593-.66l10.44-10.44a2.24 2.24 0 0 0 .66-1.593zm31.93-17.777c0-9.046-7.36-16.405-16.406-16.405s-16.406 7.36-16.406 16.405c0 9.047 7.36 16.407 16.406 16.407 9.047 0 16.406-7.36 16.406-16.407zm-3.906-6.25a2.347 2.347 0 0 1-2.681 2.32l-5.755 10.934c.387.419.624.977.624 1.591a2.346 2.346 0 0 1-2.344 2.343 2.346 2.346 0 0 1-2.344-2.343c0-.454.13-.878.354-1.237l-3.49-4.363a2.34 2.34 0 0 1-1.78-.098l-2.344 2.343a2.347 2.347 0 0 1-2.115 3.354 2.347 2.347 0 0 1-2.344-2.344 2.346 2.346 0 0 1 3.354-2.115l2.344-2.343a2.346 2.346 0 0 1 2.115-3.353 2.346 2.346 0 0 1 2.344 2.343c0 .454-.13.878-.354 1.237l3.49 4.362a2.34 2.34 0 0 1 1.108-.106l5.755-10.934a2.336 2.336 0 0 1-.624-1.59 2.347 2.347 0 0 1 2.343-2.344 2.347 2.347 0 0 1 2.344 2.344zm-21.094 12.5a.782.782 0 0 0-1.562 0 .782.782 0 0 0 1.562 0zm4.688-4.687a.782.782 0 1 0-.001-1.564.782.782 0 0 0 0 1.564zm7.031 7.032a.783.783 0 0 0-.781-.782.783.783 0 0 0 0 1.563c.43 0 .781-.351.781-.78zm7.813-14.844a.782.782 0 0 0-1.563 0 .782.782 0 0 0 1.563 0z"/></defs><g><g transform="translate(-395 -3065)"><use fill="#7f8890" xlink:href="#not7a"/></g></g></svg>