<svg xmlns="http://www.w3.org/2000/svg" xmlns:xlink="http://www.w3.org/1999/xlink" width="50" height="50" viewBox="0 0 50 50"><defs><path id="93c8a" d="M745 3085.046v2.538a2.662 2.662 0 0 1-2.135 2.603l-4.186.839a15.68 15.68 0 0 1-1.061 2.56l2.368 3.553c.7 1.05.56 2.458-.332 3.35l-1.795 1.796a2.657 2.657 0 0 1-1.88.775 2.65 2.65 0 0 1-1.47-.443l-3.949-2.633a.789.789 0 1 1 .876-1.314l3.948 2.633a1.08 1.08 0 0 0 1.359-.135l1.795-1.796c.361-.36.418-.932.134-1.357l-2.632-3.949a.789.789 0 0 1-.031-.825c.552-.98.985-2.025 1.288-3.11a.79.79 0 0 1 .606-.561l4.653-.93c.501-.1.865-.545.865-1.057v-2.537a1.08 1.08 0 0 0-.865-1.057l-4.653-.93a.788.788 0 0 1-.606-.561 14.065 14.065 0 0 0-1.288-3.11.788.788 0 0 1 .031-.825l2.632-3.95a1.078 1.078 0 0 0-.134-1.356l-1.795-1.796a1.08 1.08 0 0 0-1.358-.135l-3.95 2.633a.791.791 0 0 1-.824.031 14.045 14.045 0 0 0-3.11-1.288.79.79 0 0 1-.561-.606l-.93-4.652a1.079 1.079 0 0 0-1.057-.866h-2.538c-.511 0-.955.364-1.056.866l-.93 4.652a.79.79 0 0 1-.562.606c-1.084.303-2.13.736-3.11 1.288a.791.791 0 0 1-.824-.031l-3.949-2.633a1.08 1.08 0 0 0-1.358.135l-1.795 1.796a1.078 1.078 0 0 0-.135 1.357l2.632 3.95a.79.79 0 0 1 .031.824 14.07 14.07 0 0 0-1.288 3.11.788.788 0 0 1-.606.56l-4.652.931a1.08 1.08 0 0 0-.866 1.057v2.537c0 .512.364.957.866 1.057l2.71.542a.79.79 0 1 1-.31 1.547l-2.71-.542a2.662 2.662 0 0 1-2.135-2.604v-2.537a2.66 2.66 0 0 1 2.135-2.604l4.186-.838c.278-.884.633-1.74 1.062-2.561l-2.369-3.553c-.7-1.05-.56-2.459.332-3.35l1.795-1.796a2.663 2.663 0 0 1 3.35-.331l3.553 2.369c.82-.43 1.678-.785 2.562-1.062l.837-4.187a2.662 2.662 0 0 1 2.604-2.134h2.538c1.262 0 2.357.898 2.604 2.134l.837 4.187c.884.277 1.742.632 2.562 1.062l3.552-2.37c1.05-.7 2.46-.56 3.351.333l1.795 1.794a2.664 2.664 0 0 1 .332 3.352l-2.369 3.552c.429.82.785 1.678 1.062 2.561l4.186.838a2.662 2.662 0 0 1 2.135 2.604zm-15.79 10.216v1.053c0 .829-.35 1.577-.91 2.105.56.529.91 1.277.91 2.105v1.052c0 .83-.35 1.578-.91 2.106.56.528.91 1.278.91 2.106v1.052c0 .828-.35 1.577-.91 2.105.56.528.91 1.276.91 2.105v1.054a2.898 2.898 0 0 1-2.894 2.894h-14.301a4.357 4.357 0 0 1-3.092-1.276 2.807 2.807 0 0 0-1.99-.83H705v.264a1.844 1.844 0 0 1-1.842 1.842h-6.316a1.844 1.844 0 0 1-1.842-1.842v-17.895c0-1.016.826-1.842 1.842-1.842h6.316c1.016 0 1.842.826 1.842 1.842v.263h1.903c.567 0 1.069-.361 1.248-.9l.294-.882a25.101 25.101 0 0 0 1.291-7.954 2.897 2.897 0 0 1 2.895-2.895c1.055 0 2.046.41 2.792 1.156a3.922 3.922 0 0 1 1.156 2.79v8.422a.79.79 0 0 1-1.58 0v-8.421c0-.632-.245-1.227-.693-1.676a2.356 2.356 0 0 0-1.675-.693c-.725 0-1.315.591-1.315 1.317a26.68 26.68 0 0 1-1.373 8.454l-.293.881a2.89 2.89 0 0 1-2.747 1.98H705v2.369a.79.79 0 0 1-1.579 0v-4.21a.264.264 0 0 0-.263-.264h-6.316a.264.264 0 0 0-.263.263v17.895c0 .145.118.263.263.263h2.368v-10.789a.79.79 0 1 1 1.58 0v10.79h2.368a.264.264 0 0 0 .263-.264v-10.526a.79.79 0 1 1 1.579 0v8.684h1.932c1.167 0 2.27.458 3.105 1.289.529.526 1.231.816 1.978.816h14.3c.726 0 1.316-.59 1.316-1.315v-1.053c0-.726-.59-1.316-1.315-1.316h-7.369a.789.789 0 1 1 0-1.579h7.369c.725 0 1.315-.59 1.315-1.316v-1.052c0-.727-.59-1.317-1.315-1.317h-7.369a.79.79 0 1 1 0-1.578h7.369c.725 0 1.315-.59 1.315-1.316v-1.053c0-.725-.59-1.315-1.315-1.315h-7.369a.79.79 0 0 1 0-1.58h7.369c.725 0 1.315-.59 1.315-1.315v-1.053c0-.726-.59-1.316-1.315-1.316h-7.369a.79.79 0 0 1 0-1.579h7.369a2.898 2.898 0 0 1 2.894 2.895zm-9.53-8.322a4.057 4.057 0 0 1 3.38-4.63 4.057 4.057 0 0 1 4.628 3.38 4.056 4.056 0 0 1-4.006 4.678 4.06 4.06 0 0 1-4.002-3.428zm1.56-.244a2.477 2.477 0 0 0 2.826 2.063 2.478 2.478 0 0 0 2.062-2.826 2.478 2.478 0 0 0-2.825-2.063 2.477 2.477 0 0 0-2.063 2.826zm9.037 7.031a.789.789 0 0 1-.024-1.115 9.041 9.041 0 0 0 2.42-7.7 9.005 9.005 0 0 0-1.61-3.925.79.79 0 0 1 1.279-.925 10.567 10.567 0 0 1 1.892 4.607 10.605 10.605 0 0 1-2.84 9.034.788.788 0 0 1-1.117.024zm-1.115-14.676a9.021 9.021 0 0 0-6.881-1.726 9.039 9.039 0 0 0-6.584 4.632.789.789 0 1 1-1.386-.758 10.612 10.612 0 0 1 7.726-5.434c2.88-.45 5.748.27 8.076 2.024a.79.79 0 0 1-.95 1.262z"/></defs><g><g transform="translate(-695 -3065)"><use fill="#7f8890" xlink:href="#93c8a"/></g></g></svg>