<svg xmlns="http://www.w3.org/2000/svg" xmlns:xlink="http://www.w3.org/1999/xlink" width="36" height="50" viewBox="0 0 36 50"><defs><path id="gz5wa" d="M407.997 3200.808v-11.428c0-6.81 5.23-12.381 12.003-12.381 6.774 0 12.003 5.57 12.003 12.381v11.428c0 6.81-5.23 12.226-12.003 12.226-6.774 0-12.003-5.416-12.003-12.226zm1.988 0c0 5.763 4.283 10.259 10.015 10.259s10.015-4.496 10.015-10.259v-11.428c0-5.762-4.283-10.413-10.015-10.413s-10.015 4.65-10.015 10.413zm1.441-7.19v-4.762a6.694 6.694 0 0 1 3.884-6.047 1.01 1.01 0 0 1 1.28.476c.189.476 0 1.047-.474 1.285-1.658.81-2.748 2.476-2.748 4.334v4.762a.953.953 0 0 1-.947.952c-.521 0-.947-.429-.995-1zm.995 6.714a.952.952 0 0 1-.947-.952v-1.429c0-.523.426-.952.947-.952.521 0 .947.429.947.952v1.43a.952.952 0 0 1-.947.95zm25.579-.952v1.905c0 9.57-7.564 17.381-16.99 17.618v7.143c0 .524-.489.953-1.01.953s-1.01-.429-1.01-.953v-7.143c-9.426-.286-16.99-8.048-16.99-17.618v-1.905c0-.524.426-.952.947-.952.521 0 .948.428.948.952v1.905c0 8.666 7.01 15.714 15.631 15.714h.948c8.62 0 15.631-7.048 15.631-15.714v-1.905c0-.524.427-.952.948-.952.52 0 .947.428.947.952z"/></defs><g><g transform="translate(-402 -3177)"><use xlink:href="#gz5wa"/></g></g></svg>