<svg xmlns="http://www.w3.org/2000/svg" xmlns:xlink="http://www.w3.org/1999/xlink" width="50" height="44" viewBox="0 0 50 44"><defs><path id="km77a" d="M733.173 3227.512c-2.04.335-4.105.502-6.173.496-4.256.1-8.486-.69-12.421-2.318l.718-1.573A29.303 29.303 0 0 0 727 3226.28a35.729 35.729 0 0 0 5.889-.473zm-19.483-4.277l-.947 1.446a8.248 8.248 0 0 1-1.923-1.694l1.344-1.082c.437.52.952.968 1.526 1.33zm37.819-24.713l-2.97 1.485v12.596a2.589 2.589 0 0 1 .973 4.264l1.55 3.903a.863.863 0 0 1-.8 1.186h-5.17a.866.866 0 0 1-.796-1.186l1.551-3.903a2.585 2.585 0 0 1 .968-4.264v-11.73l-4.307 2.161v13.733c0 4.365-6.812 7.782-15.508 7.782-8.696 0-15.508-3.417-15.508-7.782v-13.733l-9-4.516a.867.867 0 0 1 0-1.548l24.123-12.106a.86.86 0 0 1 .77 0l24.124 12.106v.004a.866.866 0 0 1 0 1.548zm-10.724 17.531c-2.553 2.498-7.703 4.173-13.785 4.173s-11.232-1.675-13.785-4.173v.714c0 2.924 5.539 6.053 13.785 6.053s13.785-3.13 13.785-6.053zm0-12.154l-13.4 6.729a.86.86 0 0 1-.77 0l-13.4-6.729v8.545c0 2.924 5.539 6.053 13.785 6.053s13.785-3.13 13.785-6.053zm6.03 11.139c0 .478.386.865.862.865a.863.863 0 0 0 .862-.865.863.863 0 0 0-.862-.865.863.863 0 0 0-.861.865zm1.13 2.567c-.09.009-.173.027-.268.027-.094 0-.18-.018-.267-.027l-1.045 2.621h2.624zm1.252-19.861L727 3186.605l-22.197 11.139 22.197 11.14 17.628-8.848-13.598-1.364c-.596.99-2.125 1.666-4.03 1.666-2.456 0-4.308-1.115-4.308-2.594 0-1.479 1.852-2.595 4.308-2.595 1.981 0 3.551.733 4.09 1.791l16.425 1.648zm-22.197-.865c-1.668 0-2.585.65-2.585.865 0 .215.917.864 2.585.864s2.585-.65 2.585-.864c0-.216-.917-.865-2.585-.865zm19.43-3.986l.77-1.547 1.723.865-.77 1.547zm-14.647-7.347l.771-1.547 12.923 6.486-.77 1.547z"/></defs><g><g transform="translate(-702 -3184)"><use fill="#7f8890" xlink:href="#km77a"/></g></g></svg>