<svg xmlns="http://www.w3.org/2000/svg" xmlns:xlink="http://www.w3.org/1999/xlink" width="50" height="50" viewBox="0 0 50 50"><defs><path id="d4cja" d="M405.421 3308.166c0-.46.377-1.147.842-1.147h21.053c.465 0 .842.687.842 1.147 0 .46-.377.833-.842.833h-21.053a.838.838 0 0 1-.842-.833zm0-6.98c0-.46.377-1.146.842-1.146h8.421c.465 0 .842.687.842 1.147 0 .46-.377.833-.842.833h-8.42a.838.838 0 0 1-.843-.833zm0 13.647c0-.46.377-.834.842-.834h21.053c.465 0 .842.373.842.834 0 .46-.377 1.208-.842 1.208h-21.053c-.465 0-.842-.749-.842-1.208zm16 6.978c0 .461-.377 1.146-.842 1.146h-14.316c-.465 0-.842-.685-.842-1.146 0-.46.377-.833.842-.833h14.316c.465 0 .842.374.842.833zm-2.526 6.355c0 .46-.378.832-.842.832h-11.79a.838.838 0 0 1-.842-.832c0-.46.377-1.147.842-1.147h11.79c.464 0 .842.686.842 1.147zm26.105 0c0 5.973-4.911 10.833-10.947 10.833H395v-50h29.296l12.72 12.155v16.48c4.82 1.134 7.984 5.42 7.984 10.532zm-19.96-27.188h8.914l-8.915-9.134zm2.991 35.915c-.036-.024-.073.062-.11.126h.302c-.064-.04-.127-.085-.192-.126zm-.275.126a10.779 10.779 0 0 1-.65-.486c-.021-.015-.04-.033-.059-.05a11.187 11.187 0 0 1-.64-.574c-.053-.053-.106-.103-.158-.156a10.723 10.723 0 0 1-.613-.667c-.033-.039-.063-.08-.095-.12-.17-.207-.331-.421-.485-.642l-.12-.168c-.168-.252-.327-.509-.474-.774-.031-.056-.06-.113-.09-.17a10.646 10.646 0 0 1-.353-.723c-.023-.054-.048-.105-.07-.158a11.01 11.01 0 0 1-.32-.864c-.023-.068-.042-.137-.063-.206-.083-.273-.156-.55-.217-.83-.007-.037-.017-.074-.025-.11a10.817 10.817 0 0 1-.168-1.17c-.03-.325-.05-.653-.05-.985 0-5.973 4.91-10.834 10.947-10.834.274 0 .616.013.904.037v-14.412H422.98v-11.98h-25.983v46.042zm.09.062c.024.017.05-.017.075-.062h-.165l.09.062zm15.47-8.915c0-4.404-3.156-8.09-7.345-8.967l-.373-.062a10.81 10.81 0 0 0-.766-.099 9.414 9.414 0 0 0-.78-.039c-5.107 0-9.263 4.113-9.263 9.167 0 5.053 4.156 9.166 9.264 9.166 5.107 0 9.263-4.113 9.263-9.166zm-3.73-4.85a.827.827 0 0 1 .21 1.16l-5.232 7.44a.847.847 0 0 1-1.226.167l-4.03-3.274a.825.825 0 0 1-.117-1.172.847.847 0 0 1 1.185-.115l3.325 2.701 4.713-6.7a.845.845 0 0 1 1.172-.207z"/></defs><g><g transform="translate(-395 -3289)"><use fill="#7f8890" xlink:href="#d4cja"/></g></g></svg>