<svg xmlns="http://www.w3.org/2000/svg" xmlns:xlink="http://www.w3.org/1999/xlink" width="50" height="50" viewBox="0 0 50 50"><defs><path id="2aooa" d="M434.552 3407.797a.86.86 0 0 1-1.206.18 22.215 22.215 0 0 0-13.312-4.392c-5.025 0-9.988 1.631-13.276 4.362a.86.86 0 0 1-1.413-.663v-5.423a.862.862 0 0 1 1.724 0v3.71c3.508-2.343 8.22-3.71 12.965-3.71a23.93 23.93 0 0 1 14.34 4.73.863.863 0 0 1 .178 1.206zm9.586 5.272h-3.709c2.343 3.507 3.709 8.22 3.709 12.964a23.927 23.927 0 0 1-4.73 14.34.865.865 0 0 1-1.207.179.86.86 0 0 1-.18-1.205 22.212 22.212 0 0 0 4.393-13.314c0-5.026-1.631-9.987-4.362-13.275a.862.862 0 0 1 .663-1.414h5.423a.863.863 0 0 1 0 1.725zm-9.483 31.645v5.423a.862.862 0 0 1-1.724 0v-3.708c-3.508 2.342-8.22 3.708-12.965 3.708a23.925 23.925 0 0 1-14.34-4.73.862.862 0 1 1 1.027-1.386 22.211 22.211 0 0 0 13.314 4.393c5.025 0 9.988-1.632 13.275-4.362a.862.862 0 0 1 1.413.662zm-32.59-4.555a.86.86 0 0 1-.78.495h-5.423a.862.862 0 0 1 0-1.723h3.709c-2.343-3.508-3.709-8.222-3.709-12.966a23.925 23.925 0 0 1 4.73-14.34.861.861 0 1 1 1.386 1.027 22.212 22.212 0 0 0-4.393 13.313c0 5.026 1.631 9.988 4.362 13.276.214.257.26.615.118.918zm32.588-15.883v3.449c0 .474-.386.86-.862.86h-1.664c-.378 0-.71.236-.809.573-.314 1.07-.626 1.88-.953 2.48-.17.312-.103.716.163.982l1.179 1.18a.86.86 0 0 1 0 1.217l-2.69 2.692a.862.862 0 0 1-1.22 0l-1.178-1.178c-.266-.266-.67-.334-.983-.163-.597.325-1.408.637-2.478.952-.338.1-.573.433-.573.81v1.661a.86.86 0 0 1-.86.863h-3.45a.862.862 0 0 1-.861-.863v-1.664c0-.377-.236-.708-.573-.81-1.07-.314-1.881-.626-2.479-.952-.311-.168-.716-.102-.982.164l-1.178 1.177a.86.86 0 0 1-1.22 0l-2.69-2.69a.864.864 0 0 1 0-1.219l1.179-1.178a.837.837 0 0 0 .162-.983c-.326-.6-.637-1.411-.952-2.48-.1-.337-.432-.572-.809-.572h-1.665a.862.862 0 0 1-.862-.862v-3.448c0-.476.386-.862.862-.862h1.665c.377 0 .709-.235.808-.573.315-1.068.626-1.88.953-2.479.17-.312.102-.716-.163-.982l-1.179-1.18a.86.86 0 0 1 0-1.218l2.69-2.69a.86.86 0 0 1 1.22 0l1.177 1.177c.267.266.67.334.983.163.597-.325 1.409-.637 2.478-.953.338-.098.573-.431.573-.808v-1.663c0-.477.386-.863.862-.863h3.448c.476 0 .862.386.862.863v1.664c0 .377.236.71.573.81 1.07.315 1.882.627 2.48.952.312.17.715.103.982-.163l1.178-1.178a.862.862 0 0 1 1.22 0l2.69 2.691a.858.858 0 0 1 0 1.218l-1.179 1.179c-.266.267-.333.671-.163.983.327.599.64 1.41.953 2.479.1.337.431.573.809.573h1.664c.476 0 .862.385.862.862zm-1.721.86h-.803c-1.136 0-2.149-.744-2.463-1.81-.279-.95-.544-1.65-.812-2.14-.534-.98-.345-2.225.458-3.028l.568-.568-1.471-1.472-.57.568c-.802.803-2.047.992-3.025.458-.49-.266-1.19-.532-2.142-.814-1.065-.313-1.81-1.325-1.81-2.461v-.8h-1.723v.8c0 1.138-.744 2.15-1.81 2.464-.952.28-1.652.547-2.141.813-.98.535-2.224.345-3.027-.458l-.568-.568-1.472 1.471.57.57c.802.802.99 2.047.458 3.025-.268.492-.534 1.191-.813 2.14-.313 1.066-1.327 1.81-2.463 1.81h-.802v1.725h.802c1.136 0 2.15.745 2.463 1.81.28.95.546 1.65.813 2.141.534.98.345 2.223-.458 3.026l-.569.569 1.472 1.471.568-.567c.803-.803 2.047-.992 3.026-.458.49.267 1.19.532 2.142.813 1.065.312 1.81 1.327 1.81 2.462v.803h1.722v-.803c0-1.137.744-2.15 1.81-2.463.951-.28 1.652-.547 2.142-.813.98-.534 2.223-.344 3.027.459l.568.567 1.471-1.472-.568-.568c-.803-.803-.991-2.048-.458-3.027.268-.49.533-1.192.812-2.141.314-1.066 1.327-1.81 2.463-1.81h.803zm-6.035.862a6.904 6.904 0 0 1-6.897 6.897 6.904 6.904 0 0 1-6.897-6.897 6.904 6.904 0 0 1 6.897-6.896 6.904 6.904 0 0 1 6.897 6.896zm-1.725 0a5.178 5.178 0 0 0-5.172-5.171 5.178 5.178 0 0 0-5.173 5.171 5.179 5.179 0 0 0 5.173 5.173 5.178 5.178 0 0 0 5.172-5.173z"/></defs><g><g transform="translate(-395 -3401)"><use fill="#7f8890" xlink:href="#2aooa"/></g></g></svg>