<svg xmlns="http://www.w3.org/2000/svg" xmlns:xlink="http://www.w3.org/1999/xlink" width="23" height="36" viewBox="0 0 23 36"><defs><path id="53sna" d="M411.768 1486.07v3.388h4.609c.718 0 1.268.55 1.268 1.27 0 .721-.55 1.272-1.268 1.272h-11.754c-.719 0-1.268-.55-1.268-1.272 0-.72.55-1.27 1.268-1.27h4.609v-3.389c-5.835-.634-10.232-5.59-10.232-11.477 0-.72.55-1.27 1.268-1.27.72 0 1.269.55 1.269 1.27 0 4.955 4.016 8.98 8.963 8.98 4.947 0 8.963-4.025 8.963-8.98 0-.72.55-1.27 1.268-1.27.72 0 1.269.55 1.269 1.27 0 5.887-4.397 10.843-10.232 11.477zm5.792-22.998v11.52c0 3.897-3.17 7.073-7.06 7.073-3.89-.042-7.06-3.176-7.06-7.115v-11.478c0-3.897 3.17-7.073 7.06-7.073 3.89 0 7.06 3.176 7.06 7.073z"/></defs><g><g transform="translate(-399 -1456)"><use fill="#fff" xlink:href="#53sna"/></g></g></svg>