<svg xmlns="http://www.w3.org/2000/svg" xmlns:xlink="http://www.w3.org/1999/xlink" width="27" height="36" viewBox="0 0 27 36"><defs><path id="hk24a" d="M414.499 1358.759a1.431 1.431 0 0 1 2.01 0c.554.548.554 1.44 0 1.988l-7.067 6.993a1.433 1.433 0 0 1-2.01 0l-2.95-2.92a1.396 1.396 0 0 1 0-1.988 1.431 1.431 0 0 1 2.01 0l1.945 1.924zm9.5-11.682v30.516c0 .777-.635 1.407-1.42 1.407H398.42c-.785 0-1.421-.63-1.421-1.407v-30.516c0-.776.636-1.406 1.421-1.406h7.953v-1.266c0-.776.636-1.405 1.421-1.405h5.4c.785 0 1.421.63 1.421 1.405v1.266h7.963c.785 0 1.42.63 1.42 1.406zm-14.783 1.266h2.558v-2.531h-2.558v2.531zm11.942.14h-6.542v1.266c0 .777-.636 1.406-1.421 1.406h-5.4c-.785 0-1.421-.629-1.421-1.406v-1.265h-6.532v27.703h21.316z"/></defs><g><g transform="translate(-397 -1343)"><use fill="#fff" xlink:href="#hk24a"/></g></g></svg>