<svg xmlns="http://www.w3.org/2000/svg" xmlns:xlink="http://www.w3.org/1999/xlink" width="36" height="36" viewBox="0 0 36 36"><defs><path id="ze5ra" d="M396.285 1244.287h-4.247v-6.9c0-.57.467-1.037 1.047-1.037h1.225c.207 0 .403.104.52.272l1.677 2.385.41-.858-.666-1.389a.286.286 0 0 1 .26-.41h1.334c.21 0 .35.22.26.41l-.667 1.389.418.872 1.719-2.406a.624.624 0 0 1 .516-.265h1.164c.577 0 1.048.462 1.048 1.037v.246a14.928 14.928 0 0 0-3.667 3.027 14.849 14.849 0 0 0-2.352 3.627zm.882-15.288c1.861 0 3.376 1.5 3.376 3.344 0 1.843-1.515 3.342-3.376 3.342-1.862 0-3.377-1.5-3.377-3.342 0-1.844 1.515-3.344 3.377-3.344zm28.459 7.351h1.164c.577 0 1.048.462 1.048 1.037v6.896h-4.285a14.694 14.694 0 0 0-3.06-4.381 14.837 14.837 0 0 0-2.917-2.25v-.265c0-.57.468-1.037 1.048-1.037h1.225c.207 0 .403.104.52.272l1.673 2.385.41-.858-.666-1.389a.286.286 0 0 1 .26-.41h1.334c.21 0 .35.22.26.41l-.667 1.389.418.872 1.719-2.406a.624.624 0 0 1 .516-.265zm-2.92-7.35c1.861 0 3.376 1.5 3.376 3.343s-1.515 3.342-3.377 3.342c-1.861 0-3.376-1.5-3.376-3.342 0-1.844 1.515-3.344 3.376-3.344zm4.925 35.268c-.37.481-.931.731-1.496.731-.4 0-.803-.123-1.146-.384l-4.707-3.571a14.74 14.74 0 0 0 2.37-2.903l4.632 3.515a1.85 1.85 0 0 1 .347 2.612zm-12.56-13.963v6.9h-10.262v-6.9c0-.57.467-1.037 1.048-1.037h1.224c.208 0 .404.105.52.272l1.67 2.385.41-.859-.666-1.388a.286.286 0 0 1 .26-.41h1.334c.21 0 .35.22.26.41l-.667 1.388.418.873 1.718-2.406a.625.625 0 0 1 .517-.265h1.164c.577 0 1.048.462 1.048 1.037zm-8.51-5.04c0-1.844 1.515-3.344 3.377-3.344 1.861 0 3.376 1.5 3.376 3.343s-1.515 3.344-3.376 3.344c-1.862 0-3.377-1.5-3.377-3.344zm-6.553 14.917a13.797 13.797 0 0 1-3.004-4.41c-.73-1.71-1.1-3.53-1.1-5.4a13.676 13.676 0 0 1 1.417-6.085 13.864 13.864 0 0 1 2.687-3.724c.7-.695 1.466-1.306 2.287-1.832a14.022 14.022 0 0 1 7.62-2.228 14.048 14.048 0 0 1 9.907 4.063 13.818 13.818 0 0 1 3.004 4.41c.731 1.71 1.1 3.53 1.1 5.4 0 1.87-.369 3.686-1.1 5.4a14.05 14.05 0 0 1-.927 1.798 13.961 13.961 0 0 1-2.374 2.9 13.989 13.989 0 0 1-4.153 2.682 14.021 14.021 0 0 1-5.453 1.089 14.049 14.049 0 0 1-9.911-4.063zm-.053-9.806a9.757 9.757 0 0 0 2.92 6.981 9.943 9.943 0 0 0 7.048 2.892 9.95 9.95 0 0 0 7.047-2.892 9.757 9.757 0 0 0 2.92-6.981 9.722 9.722 0 0 0-2.118-6.086c-.064-.082-.128-.157-.192-.235a9.947 9.947 0 0 0-.61-.66 9.937 9.937 0 0 0-7.047-2.892 9.952 9.952 0 0 0-7.624 3.508c-.079.09-.154.183-.23.276a9.722 9.722 0 0 0-2.114 6.089z"/></defs><g><g transform="translate(-392 -1229)"><use fill="#fff" xlink:href="#ze5ra"/></g></g></svg>