<svg xmlns="http://www.w3.org/2000/svg" xmlns:xlink="http://www.w3.org/1999/xlink" width="36" height="36" viewBox="0 0 36 36"><defs><path id="kadxa" d="M997.147 1257.28v7.72h-5.141v-7.72c0-.354.288-.643.643-.643h3.856c.354 0 .642.289.642.643zm10.283-9.004V1265h-5.141v-16.723c0-.355.288-.642.642-.643h3.856c.355 0 .643.288.643.643zm10.283 3.86v12.863h-5.142v-12.863c.001-.356.288-.643.643-.644h3.856c.355 0 .642.288.643.644zm10.283-5.146V1265h-5.142v-18.01c0-.355.288-.643.643-.643h3.856c.355 0 .642.288.643.643zm-10.413-8.487a2.58 2.58 0 0 1-1.016 2.953 2.575 2.575 0 0 1-3.115-.192 2.58 2.58 0 0 1-.645-3.056l-6.425-4.592a2.512 2.512 0 0 1-2.629.25l-7.085 8.42a2.572 2.572 0 0 1-.344 3.381 2.566 2.566 0 0 1-3.395.085 2.573 2.573 0 0 1-.512-3.36 2.568 2.568 0 0 1 3.266-.932l7.085-8.42a2.573 2.573 0 0 1 .258-3.298 2.568 2.568 0 0 1 3.29-.315 2.573 2.573 0 0 1 .879 3.189l6.424 4.592a2.542 2.542 0 0 1 3.289.2l6.076-3.8a2.542 2.542 0 0 1 2.44-3.342 2.572 2.572 0 0 1 1.326 4.774 2.568 2.568 0 0 1-3.09-.338z"/></defs><g><g transform="translate(-992 -1229)"><use fill="#fff" xlink:href="#kadxa"/></g></g></svg>