<svg xmlns="http://www.w3.org/2000/svg" xmlns:xlink="http://www.w3.org/1999/xlink" width="36" height="31" viewBox="0 0 36 31"><defs><path id="s2rsa" d="M1020.985 1356.977c0 1.044-.71 1.874-1.862 2.13-.011.002-.066.01-.066.082v.788a.4.4 0 0 1-.407.391h-.362a.4.4 0 0 1-.407-.39v-.75c0-.055-.061-.076-.073-.078-.045-.006-1.056-.164-1.578-.432-.13-.067-.233-.218-.166-.405l.186-.498a.38.38 0 0 1 .36-.246.41.41 0 0 1 .17.039c.01.004.86.396 1.487.396.736 0 1.25-.388 1.25-.945 0-.512-.363-.86-1.252-1.204-1.111-.417-2.141-.972-2.141-2.2 0-.985.676-1.766 1.757-2.02.023-.005.087-.03.087-.088l-.001-.752c0-.215.182-.39.406-.39h.35c.224 0 .407.175.407.39l.003.715c0 .056.048.066.061.068.01.002.866.148 1.304.335a.304.304 0 0 1 .167.393l-.195.492a.374.374 0 0 1-.351.237.393.393 0 0 1-.186-.046 3.055 3.055 0 0 0-1.263-.28c-.805 0-1.09.435-1.09.806 0 .464.31.722 1.387 1.147 1.414.551 2.018 1.244 2.018 2.315zm7.051-1.591c0 5.184-4.263 9.387-9.522 9.387-5.26 0-9.523-4.203-9.523-9.387s4.263-9.387 9.523-9.387c5.259 0 9.522 4.203 9.522 9.387zm-2.207 0c0-3.982-3.275-7.211-7.315-7.211-4.04 0-7.316 3.229-7.316 7.21 0 3.984 3.275 7.213 7.316 7.213 4.04 0 7.315-3.229 7.315-7.212zm1.354 16.559c-1.135 1.074-7.052 4.53-9.142 5.01-1.461.335-12.054-1.578-13.278-1.852-.78-.175-1.624.385-2.226.891-.55.463-.619-.194-.615-.242.154-2.311.436-6.735.58-8.899.03-.465.34-.456.833-.535 1.44-.231 4.417-.68 5.622-.645 2.56.075 8.552 2.239 9.574 2.468 1.03.23 1.298 1.973-.594 2.471-2.466.648-6.543-.78-6.543-.367 0 1.087 4.649 2.01 7.12 1.627 2.777-.43 5.562-1.448 7.587-2.55 1.473-.801 2.84.958 1.082 2.623zm-26.885-4.907l-.676 8.7a.814.814 0 0 1-.839.737h-6.15c-.428-.016-.692-.364-.586-.774l1.01-9.03c.106-.41.544-.728.972-.707l5.55.27a.75.75 0 0 1 .719.804zm-2.452 6.728c0-.835-.687-1.512-1.535-1.512-.847 0-1.534.677-1.534 1.512 0 .836.687 1.513 1.534 1.513.848 0 1.535-.677 1.535-1.513z"/></defs><g><g transform="translate(-992 -1346)"><use fill="#fff" xlink:href="#s2rsa"/></g></g></svg>