<svg xmlns="http://www.w3.org/2000/svg" xmlns:xlink="http://www.w3.org/1999/xlink" width="36" height="26" viewBox="0 0 36 26"><defs><path id="qj3fa" d="M422.424 1100.492c-.896.189-1.458-.28-1.458-.28s-1.722-1.482-3.657-3.108c-1.57-1.323-2.395-1.271-3.54-.663-1.882 1-6.402 3.536-8.547 4.835-.79.442-1.344 1.044-1.344 1.93 0 1.144 1.473 2.644 3.251 1.698.94-.456 3.192-1.629 4.711-2.429 1.655-.873 2.685.137 2.685.137s5.978 5.94 7.66 7.551c1.09 1.049 2.596.563 3.075.503.48-.06 2.812-.52 2.812-.52v-10.89s-3.449.772-5.648 1.236zm-18.141 17.216c.289-.743.192-1.574-.363-2.144-.498-.51-1.226-.645-1.92-.486.194-.688.086-1.42-.415-1.937-.5-.509-1.227-.646-1.92-.486.192-.687.085-1.419-.417-1.934-.785-.805-2.144-.77-3.036.08-.888.85-1.457 2.393-.665 3.302.792.902 1.7.353 2.393.195-.192.688-.77 1.326-.059 2.226.711.899 1.7.354 2.394.197-.193.685-.746 1.388-.062 2.222.69.836 1.82.39 2.567.158-.288.741-.904 1.54-.112 2.433.791.9 2.62.484 3.512-.367.891-.852.977-2.201.193-3.009-.54-.554-1.347-.683-2.09-.45zm16.295-5.666c-6.456-6.451-3.42-3.415-6.894-6.895 0 0-1.044-1.039-2.42-.435-.966.422-2.21 1-3.146 1.44-1.028.538-1.768.705-2.116.703-1.988-.013-3.6-1.61-3.6-3.595 0-1.287.684-2.409 1.704-3.045 1.434-.992 4.736-2.747 4.736-2.747s-1.006-1.274-3.21-1.274c-2.202 0-6.805 3.014-6.805 3.014s-1.306.835-3.167.083l-3.587-1.248v12.461s1.024.297 1.944.672a4.097 4.097 0 0 1 1.009-1.591c1.527-1.454 4.058-1.47 5.447-.04.419.435.711.954.86 1.526.56.173 1.067.48 1.474.9.42.43.711.951.861 1.522.56.173 1.066.48 1.475.9.46.474.767 1.047.91 1.668.585.17 1.113.488 1.538.922.835.857 1.132 2.02.952 3.141.002 0 .004 0 .006.002.013.018.517.58.831.896.616.616 1.62.616 2.238 0a1.587 1.587 0 0 0 0-2.236c-.022-.022-2.22-2.32-2.044-2.499.176-.176 2.977 2.736 3.03 2.789.614.614 1.618.614 2.236 0a1.583 1.583 0 0 0 0-2.235c-.03-.028-.157-.15-.203-.197 0 0-2.778-2.473-2.566-2.684.214-.213 3.664 3.005 3.67 3.005.62.558 1.574.553 2.17-.043.581-.58.594-1.497.08-2.116-.012-.032-2.63-2.767-2.425-2.972.207-.208 2.797 2.457 2.803 2.463.613.614 1.619.614 2.237 0a1.59 1.59 0 0 0 0-2.239.49.49 0 0 1-.028-.016z"/></defs><g><g transform="translate(-392 -1096)"><use fill="#fff" xlink:href="#qj3fa"/></g></g></svg>