<svg xmlns="http://www.w3.org/2000/svg" xmlns:xlink="http://www.w3.org/1999/xlink" width="36" height="36" viewBox="0 0 36 36"><defs><path id="tie0a" d="M1028 1108.293v2.134c0 .92-.75 1.67-1.67 1.67h-1.306c-.353 0-.765.32-.9.698-.124.351-.27.7-.433 1.038-.174.36-.11.875.14 1.125l.929.93c.65.65.65 1.71 0 2.361l-1.51 1.51a1.66 1.66 0 0 1-1.18.49c-.446 0-.866-.174-1.181-.49l-.93-.929c-.15-.15-.398-.238-.666-.238-.164 0-.327.035-.458.098-.338.163-.688.31-1.039.434-.379.135-.698.546-.698.899v1.306c0 .921-.75 1.67-1.67 1.67h-2.134c-.921 0-1.67-.749-1.67-1.67v-1.306c0-.353-.32-.764-.698-.9-.35-.124-.7-.27-1.038-.433a1.057 1.057 0 0 0-.459-.098c-.267 0-.516.088-.666.238l-.93.93a1.66 1.66 0 0 1-1.18.489 1.66 1.66 0 0 1-1.181-.49l-1.51-1.51a1.671 1.671 0 0 1 0-2.362l.929-.93c.25-.25.314-.765.14-1.124-.163-.339-.31-.688-.434-1.038-.134-.379-.546-.698-.9-.698h-1.305c-.92 0-1.67-.75-1.67-1.67v-2.135c0-.92.75-1.67 1.67-1.67h1.306c.353 0 .765-.32.9-.697.124-.351.27-.7.433-1.039.174-.359.11-.874-.14-1.124l-.93-.93a1.658 1.658 0 0 1-.489-1.18c0-.447.174-.866.49-1.18l1.51-1.51a1.658 1.658 0 0 1 1.18-.49c.447 0 .866.174 1.182.49l.928.928c.15.149.398.238.666.238.165 0 .327-.035.459-.099.338-.162.687-.309 1.038-.434.379-.134.698-.546.698-.898v-1.307c0-.92.75-1.67 1.67-1.67h2.135c.92 0 1.67.75 1.67 1.67v1.307c0 .352.32.764.698.898.351.125.701.272 1.04.436.133.065.292.098.459.098.267 0 .515-.088.664-.238l.93-.93a1.66 1.66 0 0 1 1.18-.488c.447 0 .866.173 1.182.488l1.508 1.51c.651.65.651 1.71 0 2.361l-.93.93c-.25.25-.313.764-.139 1.124.163.338.31.688.434 1.038.135.379.547.699.9.699h1.305c.921 0 1.67.75 1.67 1.67zm-13.64-3.828a4.9 4.9 0 0 0-4.894 4.894 4.9 4.9 0 0 0 4.895 4.895 4.9 4.9 0 0 0 4.894-4.895 4.9 4.9 0 0 0-4.894-4.894zm-10.347-8.01c-.04.083-.019.21.016.244l.465.465c.434.434.434 1.14 0 1.574l-.755.755c-.21.21-.49.326-.787.326-.297 0-.577-.116-.787-.326l-.465-.465c-.015-.015-.064-.038-.136-.038-.04 0-.08.008-.108.022a5.521 5.521 0 0 1-.547.229c-.09.031-.164.137-.164.187v.653c0 .614-.5 1.114-1.114 1.114h-1.066c-.614 0-1.114-.5-1.114-1.114v-.653c0-.05-.075-.156-.164-.187a5.403 5.403 0 0 1-.547-.23.252.252 0 0 0-.108-.021c-.072 0-.122.023-.136.038l-.465.465c-.21.21-.49.325-.787.325-.298 0-.577-.115-.787-.325l-.755-.755c-.21-.21-.326-.49-.326-.787 0-.297.116-.577.326-.787l.465-.465c.035-.035.056-.16.016-.243a5.385 5.385 0 0 1-.23-.548c-.03-.088-.136-.164-.186-.164h-.654c-.614 0-1.113-.5-1.113-1.113v-1.067c0-.614.5-1.114 1.113-1.114h.654c.05 0 .156-.075.187-.164.066-.185.143-.37.23-.547.04-.083.018-.208-.017-.243l-.465-.465a1.115 1.115 0 0 1 0-1.575l.755-.755c.21-.21.49-.326.787-.326.297 0 .577.116.787.326l.465.465c.014.015.064.038.136.038.04 0 .08-.008.108-.021.177-.086.362-.164.547-.23.09-.031.164-.137.164-.186v-.654c0-.614.5-1.113 1.114-1.113h1.066c.614 0 1.114.499 1.114 1.113v.654c0 .049.075.155.164.187.185.065.369.143.547.229a.262.262 0 0 0 .108.021c.072 0 .121-.023.136-.038l.465-.465c.21-.21.49-.326.787-.326.297 0 .577.116.787.326l.755.755c.434.433.434 1.14 0 1.574l-.465.465c-.035.035-.056.16-.016.244.086.178.163.362.229.547.031.09.137.164.187.164h.653c.614 0 1.114.5 1.114 1.114v1.067c0 .614-.5 1.113-1.114 1.113h-.654c-.05 0-.155.075-.186.164a5.526 5.526 0 0 1-.23.548zm-4.915-4.528a2.172 2.172 0 0 0-2.169 2.17c0 1.195.973 2.169 2.169 2.169a2.171 2.171 0 0 0 2.169-2.17c0-1.195-.973-2.169-2.17-2.169z"/></defs><g><g transform="translate(-992 -1087)"><use fill="#fff" xlink:href="#tie0a"/></g></g></svg>