<svg xmlns="http://www.w3.org/2000/svg" xmlns:xlink="http://www.w3.org/1999/xlink" width="61" height="59" viewBox="0 0 61 59"><defs><path id="m24na" d="M633.326 2958.626a4.825 4.825 0 0 1-.877 5.751l-2.548 2.517c-3.142 3.103-6.61 4.664-10.343 4.664a14.55 14.55 0 0 1-3.24-.377c-4.15-.948-8.567-3.712-13.127-8.217l-14.773-14.592c-10.039-9.915-11.415-19.038-3.98-26.382l2.549-2.518a4.975 4.975 0 0 1 5.822-.865c3.814 1.991 7.949 8.911 8.123 9.205.737 1.277.968 2.588.656 3.702-.236.839-.772 1.52-1.554 1.981-1.225 1.012-2.657 2.267-2.882 2.575-1.61 2.345-1.42 4.214.634 6.243l11.539 11.397c2.052 2.028 3.942 2.216 6.324.625.306-.22 1.578-1.634 2.604-2.846a3.337 3.337 0 0 1 2.004-1.534c1.129-.31 2.457-.08 3.738.641.308.178 7.313 4.264 9.33 8.03zm-1.78.928c-1.454-2.715-6.672-6.146-8.56-7.24-.78-.44-1.607-.604-2.195-.446-.361.1-.637.322-.84.678l-.104.15c-.714.846-2.444 2.859-3.074 3.281-.793.531-1.575.91-2.345 1.139 1.568.713 3.45 1.328 5.575 1.545a.998.998 0 0 1 .896 1.091 1.001 1.001 0 0 1-1.103.884c-6.927-.71-11.463-5.057-11.652-5.242-.047-.046-.07-.102-.105-.154-.045-.043-.091-.081-.137-.126l-10.66-10.53c-.026-.018-.057-.024-.082-.045-.23-.188-5.663-4.679-6.388-11.578a.998.998 0 0 1 .896-1.09 1.009 1.009 0 0 1 1.104.885c.19 1.806.767 3.436 1.481 4.843.214-.866.622-1.747 1.237-2.645.427-.622 2.466-2.33 3.323-3.037l.15-.103c.363-.2.587-.472.688-.83.163-.583-.008-1.398-.46-2.179-.033-.056-4.013-6.715-7.322-8.445a2.954 2.954 0 0 0-3.462.514l-2.548 2.518c-6.598 6.519-5.26 14.45 3.98 23.576l14.772 14.592c9.24 9.127 17.271 10.447 23.87 3.93l2.548-2.517a2.864 2.864 0 0 0 .517-3.42zm8.448-14.18c0 .549-.45.993-1.005.993a.998.998 0 0 1-1.004-.993c0-16.761-13.806-30.397-30.776-30.397a.998.998 0 0 1-1.004-.993c0-.549.449-.992 1.004-.992 18.078 0 32.785 14.526 32.785 32.382zm-33.79-24.414c0-.549.45-.992 1.005-.992 14.183 0 25.722 11.397 25.722 25.405 0 .549-.45.993-1.005.993a.998.998 0 0 1-1.004-.993c0-12.914-10.637-23.42-23.713-23.42a.998.998 0 0 1-1.004-.993zm0 6.975c0-.548.45-.992 1.005-.992 10.29 0 18.66 8.269 18.66 18.431 0 .549-.449.993-1.004.993a.998.998 0 0 1-1.005-.993c0-9.068-7.469-16.447-16.65-16.447a.997.997 0 0 1-1.005-.992z"/></defs><g><g transform="translate(-579 -2913)"><use fill="#fff" xlink:href="#m24na"/></g></g></svg>