<svg xmlns="http://www.w3.org/2000/svg" xmlns:xlink="http://www.w3.org/1999/xlink" width="38" height="40" viewBox="0 0 38 40"><defs><path id="h2xca" d="M429 2645.272v1.905c0 .338-.25.627-.587.678l-1.046.16a1.336 1.336 0 0 0-1.042.798c-.191.435-.147.91.12 1.302l.57.837a.685.685 0 0 1-.084.871l-1.352 1.347a.692.692 0 0 1-.898.069l-.6-.439a1.346 1.346 0 0 0-.8-.265c-.583 0-1.235.396-1.352 1.152l-.113.732a.69.69 0 0 1-.683.583h-1.914a.69.69 0 0 1-.678-.559l-.191-.992c-.14-.722-.782-1.101-1.344-1.101-.286 0-.562.091-.798.265l-.854.623a.696.696 0 0 1-.898-.069l-1.352-1.346a.685.685 0 0 1-.084-.872l.57-.836c.267-.394.31-.868.12-1.303a1.338 1.338 0 0 0-1.042-.797l-1.046-.16a.689.689 0 0 1-.586-.68v-1.903a.69.69 0 0 1 .56-.676l.998-.19c.468-.089.836-.394 1.01-.835a1.322 1.322 0 0 0-.169-1.296l-.626-.85a.684.684 0 0 1 .069-.892l1.353-1.346a.696.696 0 0 1 .876-.084l1.086.732c.228.154.49.235.76.235.56 0 1.202-.378 1.341-1.1l.248-1.282a.69.69 0 0 1 .678-.559h1.914c.34 0 .63.249.683.583l.16 1.042c.117.756.769 1.152 1.352 1.152.269 0 .53-.082.76-.236l.84-.567a.695.695 0 0 1 .876.084l1.354 1.346c.241.24.27.619.069.893l-.627.849a1.322 1.322 0 0 0-.17 1.296c.175.441.543.746 1.011.835l.998.19c.325.064.56.346.56.676zm-1.38 1.314v-.746l-.437-.084a2.729 2.729 0 0 1-1.695-4.295l.276-.374-.53-.528-.37.249a2.73 2.73 0 0 1-1.532.472 2.73 2.73 0 0 1-2.718-2.317l-.071-.459h-.75l-.14.725a2.747 2.747 0 0 1-4.234 1.744l-.614-.414-.53.528.275.374a2.728 2.728 0 0 1-1.695 4.295l-.437.084v.746l.46.07c.935.143 1.72.744 2.098 1.607a2.704 2.704 0 0 1-.243 2.621l-.25.367.53.528.377-.274a2.75 2.75 0 0 1 4.318 1.687l.083.434h.75l.023-.15a2.73 2.73 0 0 1 2.719-2.317c.581 0 1.14.184 1.616.531l.123.09.53-.529-.25-.366a2.703 2.703 0 0 1-.242-2.622 2.726 2.726 0 0 1 2.097-1.606l.461-.071zm-4.147-.52c0 1.895-1.55 3.436-3.455 3.436s-3.454-1.541-3.454-3.436 1.55-3.437 3.454-3.437c1.905 0 3.455 1.542 3.455 3.437zm-1.382 0a2.07 2.07 0 0 0-2.073-2.062 2.07 2.07 0 0 0-2.073 2.062 2.07 2.07 0 0 0 2.073 2.062 2.07 2.07 0 0 0 2.073-2.062zm-13.818-1.437c-8.71 0-15.307-1.883-17.273-3.925v-6.461c.904.618 2.075 1.158 3.443 1.615 2.91 1.017 6.952 1.73 12.024 1.868a57.073 57.073 0 0 0 3.607 0 58.946 58.946 0 0 0 2.844-.15l-2.764 2.749a.685.685 0 0 0-.07.893l1.016 1.374-1.575.301a.689.689 0 0 0-.561.675v1.052c-.231.003-.457.01-.691.01zm-1.875-9.041c-7.775-.246-13.575-2.003-15.398-3.896v-6.461c3.363 2.298 10.471 3.513 17.273 3.513 6.801 0 13.91-1.215 17.272-3.513v6.461c-1.822 1.893-7.622 3.65-15.397 3.896l-.241.006c-.226.005-.45.012-.679.015a59.516 59.516 0 0 1-1.91 0c-.229-.003-.453-.01-.679-.016l-.241-.005zm1.875-8.906c-8.763 0-15.313-1.879-17.273-3.914v-1.585c0-.125.043-.235.102-.336.799-2.95 6.754-5.85 17.17-5.85 10.444 0 16.405 2.915 17.18 5.871a.63.63 0 0 1 .093.315v1.585c-1.959 2.035-8.51 3.914-17.272 3.914zm2.155 25.394l2.687 2.676c-1.533.162-3.157.249-4.842.249-9.076 0-16.376-2.512-17.192-5.876a.644.644 0 0 1-.081-.31v-5.637c2.856 2.001 8.743 3.575 17.273 3.575.235 0 .46-.007.69-.008v2.199c0 .339.25.628.586.68l1.695.258-.9 1.322a.686.686 0 0 0 .084.872z"/><linearGradient id="h2xcb" x1="410" x2="410" y1="2655" y2="2615" gradientUnits="userSpaceOnUse"><stop offset="0" stop-color="#fb8b3e"/><stop offset="1" stop-color="#ffbd8f"/></linearGradient></defs><g><g transform="translate(-391 -2615)"><use xlink:href="#h2xca"/><use fill="url(#h2xcb)" xlink:href="#h2xca"/></g></g></svg>