<svg xmlns="http://www.w3.org/2000/svg" xmlns:xlink="http://www.w3.org/1999/xlink" width="40" height="40" viewBox="0 0 40 40"><defs><path id="phzea" d="M1002.655 2637.742a1.37 1.37 0 0 1-.34-1.395 1.352 1.352 0 0 1 1.088-.927l3.714-.556 1.672-3.393a1.353 1.353 0 0 1 1.21-.756c.514 0 .983.293 1.21.756l1.673 3.393 3.715.556c.507.075.93.435 1.088.927a1.374 1.374 0 0 1-.34 1.395l-2.68 2.654.622 3.736a1.369 1.369 0 0 1-.538 1.33 1.344 1.344 0 0 1-1.42.105l-3.33-1.753-3.329 1.753a1.342 1.342 0 0 1-1.42-.105 1.371 1.371 0 0 1-.537-1.33l.623-3.736zm27.344-13.687v26.873c0 2.244-1.81 4.07-4.034 4.07h-31.93c-2.224 0-4.035-1.826-4.035-4.07v-26.873c0-2.245 1.81-4.071 4.035-4.071h3.954v-5.006h5.013v5.006h14.008v-5.006h4.982v5.006h3.973c2.224 0 4.035 1.826 4.035 4.07zm-3.998 3.94h-32.002v21.964h32.002z"/><linearGradient id="phzeb" x1="1010" x2="1010" y1="2655" y2="2614.98" gradientUnits="userSpaceOnUse"><stop offset="0" stop-color="#4ab3be"/><stop offset="1" stop-color="#acdce2"/></linearGradient></defs><g><g transform="translate(-990 -2615)"><use xlink:href="#phzea"/><use fill="url(#phzeb)" xlink:href="#phzea"/></g></g></svg>