<svg xmlns="http://www.w3.org/2000/svg" xmlns:xlink="http://www.w3.org/1999/xlink" width="64" height="64" viewBox="0 0 64 64"><defs><path id="b5sna" d="M1107 9250.266V9246c0-.589.478-1.067 1.067-1.067h4.266c.589 0 1.067.478 1.067 1.067v4.266c0 .59-.478 1.067-1.067 1.067h-4.266a1.067 1.067 0 0 1-1.067-1.067zm2.133-1.066h2.134v-2.133h-2.134zm21.334-3.2v4.266c0 .59-.478 1.067-1.067 1.067h-4.267a1.067 1.067 0 0 1-1.066-1.067V9246c0-.589.478-1.067 1.066-1.067h4.267c.589 0 1.067.478 1.067 1.067zm-2.134 1.067h-2.133v2.133h2.133zm10.667-41.6v49.066a5.34 5.34 0 0 1-5.333 5.333H1103.8a1.067 1.067 0 0 1 0-2.133h29.867c1.764 0 3.2-1.436 3.2-3.2v-49.067c0-1.764-1.436-3.2-3.2-3.2H1103.8a1.067 1.067 0 0 1 0-2.133h29.867a5.34 5.34 0 0 1 5.333 5.333zm-38.4-4.267v57.6c0 1.764-1.436 3.2-3.2 3.2h-12.8a3.206 3.206 0 0 1-3.018-2.134h-1.249c-3.09 0-5.333-2.243-5.333-5.333v-49.067c0-1.878 1.02-3.64 2.664-4.597a1.067 1.067 0 0 1 1.073 1.844c-1.004.585-1.604 1.614-1.604 2.753v49.067c0 1.913 1.287 3.2 3.2 3.2h2.134c.588 0 1.066.478 1.066 1.067 0 .587.48 1.066 1.067 1.066h12.8c.588 0 1.066-.479 1.066-1.066v-57.6c0-.588-.478-1.067-1.066-1.067h-12.8c-.588 0-1.067.48-1.067 1.067v53.333a1.067 1.067 0 0 1-2.133 0V9201.2c0-1.764 1.436-3.2 3.2-3.2h12.8c1.764 0 3.2 1.436 3.2 3.2zm29.867 40.533c0 .588-.478 1.067-1.067 1.067h-4.267a1.067 1.067 0 0 1-1.066-1.067v-4.267c0-.589.478-1.066 1.066-1.066h4.267c.589 0 1.067.477 1.067 1.066zm-2.134-3.2h-2.133v2.134h2.133zm-21.333 3.2v-4.267c0-.588.478-1.066 1.067-1.066h4.266c.589 0 1.067.478 1.067 1.066v4.267c0 .588-.478 1.067-1.067 1.067h-4.266a1.067 1.067 0 0 1-1.067-1.067zm2.133-1.066h2.134v-2.134h-2.134zm12.8-3.2v4.266c0 .588-.478 1.067-1.066 1.067h-4.267a1.067 1.067 0 0 1-1.067-1.067v-4.267c0-.589.478-1.066 1.067-1.066h4.267c.588 0 1.066.477 1.066 1.066zm-2.133 1.066h-2.133v2.134h2.133zm-12.8-5.334v-4.266c0-.589.478-1.067 1.067-1.067h4.266c.589 0 1.067.478 1.067 1.067v4.266c0 .59-.478 1.067-1.067 1.067h-4.266a1.067 1.067 0 0 1-1.067-1.067zm2.133-1.066h2.134V9230h-2.134zm12.8 13.867v4.266c0 .59-.478 1.067-1.066 1.067h-4.267a1.067 1.067 0 0 1-1.067-1.067V9246c0-.589.478-1.067 1.067-1.067h4.267c.588 0 1.066.478 1.066 1.067zm-2.133 1.067h-2.133v2.133h2.133zm10.667-24.534c0 .589-.478 1.067-1.067 1.067h-21.333a1.067 1.067 0 0 1-1.067-1.067v-12.8c0-.588.478-1.067 1.067-1.067h21.333c.589 0 1.067.479 1.067 1.067zm-2.134-11.734h-19.2v10.667h19.2zm2.134 22.4c0 .59-.478 1.067-1.067 1.067h-4.267a1.067 1.067 0 0 1-1.066-1.067v-4.266c0-.589.478-1.067 1.066-1.067h4.267c.589 0 1.067.478 1.067 1.067zm-2.134-3.2h-2.133v2.134h2.133zm-6.4-1.066v4.266c0 .59-.478 1.067-1.066 1.067h-4.267a1.067 1.067 0 0 1-1.067-1.067v-4.266c0-.589.478-1.067 1.067-1.067h4.267c.588 0 1.066.478 1.066 1.067zM1119.8 9230h-2.133v2.133h2.133z"/><linearGradient id="b5snb" x1="1107" x2="1107" y1="9262" y2="9198" gradientUnits="userSpaceOnUse"><stop offset="0" stop-color="#ff8a00"/><stop offset="1" stop-color="#ffb100"/></linearGradient></defs><g><g transform="translate(-1075 -9198)"><use xlink:href="#b5sna"/><use fill="url(#b5snb)" xlink:href="#b5sna"/></g></g></svg>