<svg xmlns="http://www.w3.org/2000/svg" xmlns:xlink="http://www.w3.org/1999/xlink" width="50" height="64" viewBox="0 0 50 64"><defs><path id="npvga" d="M1128.864 9199.707v32.813c0 .59-.477 1.068-1.065 1.068a1.067 1.067 0 0 1-1.065-1.068v-31.538a29.882 29.882 0 0 1-20.45-4.093l-.851-.52-.852.522a29.9 29.9 0 0 1-20.449 4.091v31.538a21.64 21.64 0 0 0 2.948 10.924 20.708 20.708 0 0 0 9.585 8.574l8.768 3.852 8.77-3.855c.47-.206.93-.43 1.38-.668a1.064 1.064 0 0 1 1.44.442 1.07 1.07 0 0 1-.441 1.444c-.497.264-1.006.51-1.523.738l-9.2 4.043c-.272.119-.58.119-.852 0l-9.197-4.043a22.817 22.817 0 0 1-10.566-9.447 23.785 23.785 0 0 1-3.242-12v-32.817a1.065 1.065 0 0 1 1.278-1.05 27.767 27.767 0 0 0 20.191-3.582l1.405-.865c.342-.21.772-.21 1.114 0l1.405.865a27.768 27.768 0 0 0 20.19 3.587 1.066 1.066 0 0 1 1.278 1.045zm-23.953 3.803a25.37 25.37 0 0 1-16.519 3.236v24.241a15.99 15.99 0 0 0 2.36 8.348 16.385 16.385 0 0 0 7.69 6.58c.543.228.798.853.57 1.397-.227.544-.85.8-1.393.573a18.508 18.508 0 0 1-8.682-7.433 18.122 18.122 0 0 1-2.675-9.465v-25.505a1.065 1.065 0 0 1 1.278-1.047 23.276 23.276 0 0 0 16.376-2.813 1.064 1.064 0 0 1 1.44.445 1.07 1.07 0 0 1-.445 1.443zm26.836 45.74l-5.093 5.105c.05.178.077.361.08.546 0 1.18-.954 2.135-2.13 2.135a2.11 2.11 0 0 1-2.044-2.681l-9.352-9.375a1.069 1.069 0 0 1 0-1.483 1.063 1.063 0 0 1 1.506-.027l9.353 9.376a1.889 1.889 0 0 1 1.088 0l5.093-5.105c.401-.346.995-.345 1.394.003.444.387.49 1.061.105 1.506zm-9.585-29.892l-18.106 18.149a1.064 1.064 0 0 1-1.506 0l-8.52-8.54a1.07 1.07 0 0 1 0-1.51l4.26-4.27a1.063 1.063 0 0 1 1.506 0l3.507 3.515 13.092-13.124a1.063 1.063 0 0 1 1.506 0l4.26 4.27a1.07 1.07 0 0 1 0 1.51zm-2.255-.755l-2.759-2.761-13.085 13.124a1.064 1.064 0 0 1-1.506 0l-3.514-3.516-2.75 2.761 7.01 7.032z"/><linearGradient id="npvgb" x1="1107.01" x2="1107" y1="9258.1" y2="9194.05" gradientUnits="userSpaceOnUse"><stop offset="0" stop-color="#ff8a00"/><stop offset="1" stop-color="#ffb100"/></linearGradient></defs><g><g transform="translate(-1082 -9194)"><use xlink:href="#npvga"/><use fill="url(#npvgb)" xlink:href="#npvga"/></g></g></svg>