<svg xmlns="http://www.w3.org/2000/svg" xmlns:xlink="http://www.w3.org/1999/xlink" width="62" height="64" viewBox="0 0 62 64"><defs><path id="ppqva" d="M1136.494 9227.767c-1.617 3.49-4.806 6.412-9.478 8.686-3.477 1.692-6.53 2.394-6.866 2.469l-.778.171c-1.66 2.145-3.53 3.848-5.559 5.042-1.976 1.163-3.202 3.34-3.198 5.681l.004 2.75h5.49a4.681 4.681 0 0 1 4.679 4.684v1.166h2.603c.526 0 .953.427.953.954v9.676a.953.953 0 0 1-.953.954h-22.296a.953.953 0 0 1 0-1.908h21.344v-7.769h-30.877v7.77h5.087a.953.953 0 0 1 0 1.907h-6.04a.953.953 0 0 1-.952-.954v-9.676c0-.527.427-.954.953-.954h2.604v-1.166a4.681 4.681 0 0 1 4.678-4.684h5.49l.004-2.75c.004-2.341-1.222-4.518-3.198-5.681-2.03-1.194-3.9-2.897-5.56-5.042l-.776-.171c-.336-.074-3.384-.773-6.867-2.47-4.672-2.273-7.86-5.196-9.479-8.684-2.13-4.594-2.054-9.263.207-12.81 1.977-3.101 5.32-4.897 9.474-5.11v-2.894c0-.527.426-.955.952-.955h26.419a.953.953 0 0 1 0 1.908h-25.466v6.052c0 12.822 4.847 24.288 12.061 28.532 2.557 1.504 4.143 4.312 4.138 7.328l-.004 2.747h3.427l-.005-2.746c-.004-3.017 1.581-5.825 4.139-7.33 7.214-4.244 12.06-15.71 12.06-28.53v-6.053h-5.905a.953.953 0 0 1 0-1.907h6.858c.526 0 .953.427.953.954v2.894c4.154.213 7.498 2.009 9.474 5.11 2.26 3.548 2.335 8.217.206 12.81zm-53.963-9.731c-1.19 1.868-1.133 4.536.159 7.322 1.346 2.901 4.577 4.902 7.05 6.07.246.115.497.229.753.34-1.98-4.825-3.104-10.374-3.28-16.185-2.128.173-3.774 1.027-4.682 2.453zm10.463 18.69a32.004 32.004 0 0 1-1.365-2.456c-.941-.341-1.85-.715-2.702-1.118-2.758-1.302-6.379-3.572-7.965-6.991-1.571-3.388-1.585-6.723-.037-9.151 1.26-1.977 3.465-3.142 6.262-3.336v-1.914c-3.477.205-6.25 1.686-7.868 4.224-1.904 2.987-1.935 6.99-.085 10.98 1.78 3.838 5.65 6.346 8.584 7.774a33.338 33.338 0 0 0 5.176 1.988zm4.898 17.748a2.778 2.778 0 0 0-2.773 2.776v1.166h23.764v-1.166a2.778 2.778 0 0 0-2.774-2.776zm25.617-22.706c.254-.111.505-.225.751-.34 2.473-1.168 5.704-3.168 7.05-6.071 1.292-2.785 1.35-5.453.16-7.321-.909-1.426-2.555-2.28-4.682-2.453-.176 5.81-1.3 11.36-3.28 16.185zm11.173-15.785c-1.617-2.537-4.392-4.018-7.868-4.223v1.914c2.796.194 5.002 1.36 6.262 3.336 1.547 2.429 1.533 5.764-.038 9.15-1.587 3.421-5.207 5.69-7.965 6.992-.857.405-1.765.778-2.7 1.116-.432.86-.887 1.68-1.367 2.457a33.326 33.326 0 0 0 5.177-1.987c2.934-1.428 6.804-3.937 8.583-7.773 1.85-3.991 1.82-7.993-.084-10.982z"/><linearGradient id="ppqvb" x1="1107.04" x2="1106.96" y1="9270" y2="9206" gradientUnits="userSpaceOnUse"><stop offset="0" stop-color="#ff8a00"/><stop offset="1" stop-color="#ffb100"/></linearGradient></defs><g><g transform="translate(-1076 -9206)"><use xlink:href="#ppqva"/><use fill="url(#ppqvb)" xlink:href="#ppqva"/></g></g></svg>