<svg xmlns="http://www.w3.org/2000/svg" xmlns:xlink="http://www.w3.org/1999/xlink" width="64" height="64" viewBox="0 0 64 64"><defs><path id="mn97a" d="M1096.875 9208.083c0-5.56 4.519-10.083 10.073-10.083s10.072 4.523 10.072 10.083c0 5.56-4.518 10.084-10.072 10.084-5.554 0-10.073-4.523-10.073-10.084zm2.042 0c0 4.434 3.603 8.04 8.03 8.04 4.429 0 8.032-3.606 8.032-8.04 0-4.433-3.603-8.04-8.031-8.04-4.428 0-8.031 3.607-8.031 8.04zm-7.321 28.553h3.029a1.021 1.021 0 0 1 0 2.043h-4.083c-.564 0-1.021-.457-1.021-1.021 0-9.62 7.817-17.447 17.427-17.447 9.609 0 17.427 7.826 17.427 17.447 0 .564-.458 1.021-1.021 1.021h-24.646a1.021 1.021 0 0 1 0-2.043h23.591c-.526-8.019-7.21-14.38-15.351-14.38-8.14 0-14.825 6.361-15.352 14.38zm3.279 13.522c.118.363.024.76-.242 1.032l-3.978 4.056.836 5.623a1.022 1.022 0 0 1-1.464 1.065l-5.083-2.534-5.083 2.534a1.022 1.022 0 0 1-1.465-1.065l.837-5.623-3.978-4.056a1.023 1.023 0 0 1 .56-1.724l5.6-.94 2.624-5.041a1.021 1.021 0 0 1 1.81 0l2.625 5.04 5.6.941c.375.063.684.33.801.692zm-3.071 1l-4.17-.701a1.02 1.02 0 0 1-.736-.536l-1.954-3.753-1.954 3.753a1.02 1.02 0 0 1-.736.536l-4.17.7 2.962 3.02c.225.23.329.55.282.867l-.623 4.186 3.784-1.886c.287-.143.624-.143.91 0l3.785 1.886-.623-4.186a1.023 1.023 0 0 1 .28-.866zm25.075-1c.117.363.024.76-.242 1.032l-3.978 4.056.836 5.623a1.022 1.022 0 0 1-1.465 1.065l-5.082-2.534-5.083 2.534a1.022 1.022 0 0 1-1.465-1.065l.837-5.623-3.978-4.056a1.023 1.023 0 0 1 .56-1.724l5.6-.94 2.624-5.041a1.02 1.02 0 0 1 1.81 0l2.624 5.04 5.6.941c.375.063.684.33.802.692zm-3.072 1l-4.169-.701a1.02 1.02 0 0 1-.736-.535l-1.954-3.754-1.954 3.753a1.02 1.02 0 0 1-.737.536l-4.169.7 2.962 3.02c.224.229.328.55.281.867l-.623 4.186 3.785-1.886a1.022 1.022 0 0 1 .91 0l3.784 1.886-.623-4.186a1.023 1.023 0 0 1 .281-.866zm24.833.032l-3.978 4.056.836 5.623a1.022 1.022 0 0 1-1.464 1.065l-5.083-2.534-5.083 2.534a1.022 1.022 0 0 1-1.465-1.065l.837-5.623-3.978-4.056a1.023 1.023 0 0 1 .56-1.724l5.6-.94 2.624-5.041a1.02 1.02 0 0 1 1.81 0l2.625 5.04 5.6.941a1.02 1.02 0 0 1 .559 1.724zm-2.829-.033l-4.17-.7a1.02 1.02 0 0 1-.736-.536l-1.953-3.753-1.954 3.753a1.02 1.02 0 0 1-.737.536l-4.17.7 2.963 3.02c.224.23.328.55.281.867l-.623 4.186 3.784-1.886a1.022 1.022 0 0 1 .91 0l3.785 1.886-.623-4.186a1.023 1.023 0 0 1 .281-.866zm-32.356-40.037a1.02 1.02 0 1 1 1.54-1.341 2.585 2.585 0 0 0 1.953.894c.747 0 1.458-.326 1.952-.894a1.02 1.02 0 1 1 1.54 1.34 4.626 4.626 0 0 1-3.492 1.598 4.626 4.626 0 0 1-3.493-1.597z"/><linearGradient id="mn97b" x1="1106.93" x2="1106.96" y1="9262.04" y2="9198" gradientUnits="userSpaceOnUse"><stop offset="0" stop-color="#ff8a00"/><stop offset="1" stop-color="#ffb100"/></linearGradient></defs><g><g transform="translate(-1075 -9198)"><use xlink:href="#mn97a"/><use fill="url(#mn97b)" xlink:href="#mn97a"/></g></g></svg>