<svg xmlns="http://www.w3.org/2000/svg" xmlns:xlink="http://www.w3.org/1999/xlink" width="60" height="64" viewBox="0 0 60 64"><defs><path id="z408a" d="M1137 9235.333c0 14.704-12.016 26.666-26.786 26.666-7.61 0-14.888-3.24-19.966-8.89a1.064 1.064 0 0 1 .084-1.506 1.075 1.075 0 0 1 1.513.083 24.728 24.728 0 0 0 18.37 8.18c13.587 0 24.642-11.004 24.642-24.533 0-12.665-9.921-23.4-22.588-24.44a1.07 1.07 0 0 1-.983-1.064v-5.43c0-.59.48-1.066 1.071-1.066h3.214v-3.2h-10.714v3.2h3.214c.592 0 1.072.477 1.072 1.067v5.429c0 .555-.428 1.017-.984 1.063a24.694 24.694 0 0 0-15.335 7.064 1.073 1.073 0 0 1-1.515-.004 1.063 1.063 0 0 1 .003-1.509 26.845 26.845 0 0 1 15.688-7.577v-3.4h-3.214a1.069 1.069 0 0 1-1.072-1.066v-5.334c0-.59.48-1.066 1.072-1.066h12.857c.591 0 1.071.476 1.071 1.066v5.334c0 .59-.48 1.066-1.071 1.066h-3.214v3.4c4.932.59 9.45 2.536 13.18 5.437l2.447-2.437-2.456-2.445a1.062 1.062 0 0 1 0-1.509 1.074 1.074 0 0 1 1.515 0l6.428 6.4a1.062 1.062 0 0 1 0 1.509 1.07 1.07 0 0 1-.757.312 1.07 1.07 0 0 1-.758-.312l-2.457-2.446-2.321 2.31c5.379 4.911 8.75 11.952 8.75 19.648zm-13.149 13.576c-3.678 3.663-8.627 5.62-13.661 5.62-2.28 0-4.577-.4-6.782-1.227a1.064 1.064 0 0 1-.624-1.374 1.07 1.07 0 0 1 1.38-.621c6.29 2.356 13.423.823 18.172-3.906 3.848-3.83 5.64-9.33 4.795-14.713a1.068 1.068 0 0 1 .894-1.22 1.07 1.07 0 0 1 1.223.89c.95 6.055-1.068 12.242-5.397 16.551zm1.05-26.689l-10.238 10.192c.554.84.876 1.844.876 2.921 0 2.94-2.403 5.334-5.357 5.334a5.343 5.343 0 0 1-2.933-.873l-3.096 3.082a1.073 1.073 0 0 1-1.515 0 1.062 1.062 0 0 1 0-1.509l3.089-3.075a5.286 5.286 0 0 1-.902-2.959c0-2.94 2.403-5.333 5.357-5.333 1.099 0 2.121.33 2.972.898l10.231-10.186a1.074 1.074 0 0 1 1.515 0c.42.417.42 1.091 0 1.508zm-16.96 15.375c.045.044.084.09.118.139a3.21 3.21 0 0 0 2.123.799 3.21 3.21 0 0 0 3.214-3.2c0-1.764-1.442-3.2-3.214-3.2a3.211 3.211 0 0 0-3.214 3.2c0 .821.312 1.571.825 2.139.052.036.102.077.149.123zm-10.584-17.195c0 .59-.48 1.066-1.071 1.066h-17.143a1.069 1.069 0 0 1-1.072-1.066c0-.59.48-1.067 1.072-1.067h17.143c.591 0 1.07.477 1.07 1.067zm0 14.933c0 .59-.48 1.067-1.071 1.067h-18.215a1.069 1.069 0 0 1-1.071-1.067c0-.59.48-1.067 1.071-1.067h18.215c.591 0 1.071.477 1.071 1.067zm-7.5 14.933c0 .59-.48 1.067-1.071 1.067h-8.572a1.069 1.069 0 0 1-1.071-1.067c0-.59.48-1.066 1.071-1.066h8.572c.591 0 1.071.476 1.071 1.066zm3.214-7.466c0 .59-.48 1.066-1.071 1.066h-11.786a1.069 1.069 0 0 1-1.071-1.066c0-.59.48-1.067 1.071-1.067H1092c.591 0 1.071.477 1.071 1.067zm1.072-14.934c0 .59-.48 1.067-1.072 1.067h-12.857a1.068 1.068 0 0 1-1.071-1.067c0-.59.48-1.066 1.071-1.066h12.857c.592 0 1.072.476 1.072 1.066z"/><linearGradient id="z408b" x1="1107" x2="1107" y1="9262" y2="9198" gradientUnits="userSpaceOnUse"><stop offset="0" stop-color="#ff8a00"/><stop offset="1" stop-color="#ffb100"/></linearGradient></defs><g><g transform="translate(-1077 -9198)"><use xlink:href="#z408a"/><use fill="url(#z408b)" xlink:href="#z408a"/></g></g></svg>