<svg xmlns="http://www.w3.org/2000/svg" xmlns:xlink="http://www.w3.org/1999/xlink" width="18" height="11"><defs><path id="a" d="M1156.85 366.38c-1.82 2.33-4.26 3.62-6.86 3.62-2.6 0-5.04-1.29-6.86-3.62a.62.62 0 0 1 0-.76c1.82-2.33 4.26-3.62 6.86-3.62 2.6 0 5.04 1.29 6.86 3.62.17.22.17.54 0 .76zm-4.95-.38c0-1.1-.86-1.98-1.91-1.98-1.06 0-1.91.89-1.91 1.98 0 1.1.85 1.98 1.9 1.98 1.06 0 1.92-.89 1.92-1.98zm-3.8 2.52a3.23 3.23 0 0 1-1.19-2.52c0-1.02.47-1.93 1.19-2.52a7.97 7.97 0 0 0-3.76 2.52 7.98 7.98 0 0 0 3.76 2.52zm7.53-2.52a7.97 7.97 0 0 0-3.75-2.52c.72.6 1.18 1.5 1.18 2.52s-.46 1.93-1.18 2.52a7.98 7.98 0 0 0 3.75-2.52z"/></defs><use fill="#888" xlink:href="#a" transform="translate(-1141 -360)"/></svg>