<svg xmlns="http://www.w3.org/2000/svg" xmlns:xlink="http://www.w3.org/1999/xlink" width="56" height="56" viewBox="0 0 56 56"><defs><path id="spbza" d="M423.133 1485.504v-.468a9.052 9.052 0 0 1-4.321-6.079 3.564 3.564 0 0 1-1.623-.828h-.344v3.613h1.797v1.806h-17.965v-1.806h1.797v-3.613h-10.78a2.706 2.706 0 0 1-2.694-2.71v-27.097a2.705 2.705 0 0 1 2.695-2.71h12.89c.741-2.101 2.733-3.612 5.074-3.612 2.342 0 4.334 1.51 5.076 3.613h12.89a2.705 2.705 0 0 1 2.694 2.71v9.54a10.991 10.991 0 0 1 4.51 2.748l.45.452a5.66 5.66 0 0 1 4.022 5.435v8.92a3.614 3.614 0 0 1-2.864 3.539 9.05 9.05 0 0 1-4.321 6.079v.468l5.894 1.078a6.272 6.272 0 0 1 4.898 4.403L445 1498h-34.751l2.092-7.015a6.274 6.274 0 0 1 4.898-4.404zm14.372-10.084c0-.666-.364-1.242-.898-1.555v3.11c.534-.314.898-.89.898-1.555zm-24.253-21.273v.636l2.399.401a4.521 4.521 0 0 1 3.58 3.215l.491 1.73c1.949-1.721 4.494-2.775 7.285-2.775.513 0 1.017.048 1.516.116v-9.148a.902.902 0 0 0-.899-.903H415.05v2.71a5.37 5.37 0 0 1-1.797 4.018zm1.797 23.982H404.27v3.613h10.779zm1.997-14.452h-18.458l1.5-5.278a4.518 4.518 0 0 1 3.58-3.214l2.399-.402v-.636a5.37 5.37 0 0 1-1.797-4.018v-2.71h-12.575a.902.902 0 0 0-.898.903v22.581h21.557v1.806h-21.557v2.71a.9.9 0 0 0 .898.903h24.38a3.572 3.572 0 0 1-.128-.903v-2.71h-1.796v-1.806h1.796v-2.427c0-1.72.402-3.344 1.099-4.799zm1.085-1.807c.053-.072.104-.143.159-.213l-.786-2.762a2.71 2.71 0 0 0-2.148-1.928l-3.9-.654v-3.041l.357-.271a3.586 3.586 0 0 0 1.44-2.872v-2.71c0-1.992-1.612-3.613-3.594-3.613-1.981 0-3.592 1.62-3.592 3.613v2.71c0 1.13.524 2.177 1.44 2.872l.356.27v3.042l-3.9.653a2.713 2.713 0 0 0-2.148 1.929l-.845 2.975zm.51 11.994c-.534.313-.897.89-.897 1.555 0 .666.363 1.242.898 1.554zm.9-2.961c2.076 0 4.029-.813 5.497-2.29l1.786-1.795.713.959a7.8 7.8 0 0 0 6.22 3.126h2.85v1.031c.32.083.62.21.898.375v-5.81a3.857 3.857 0 0 0-2.912-3.752l-.243-.06-.792-.798a9.175 9.175 0 0 0-6.55-2.728c-5.108 0-9.264 4.178-9.264 9.315v3.833c.278-.164.578-.292.898-.375v-1.031zm8.083 13.547c3.962 0 7.186-3.242 7.186-7.226v-4.515h-1.052a9.605 9.605 0 0 1-7.1-3.17l-.35.35a9.476 9.476 0 0 1-5.87 2.779v4.558c0 3.984 3.224 7.224 7.186 7.224zm0 3.388l2.62-1.974a8.907 8.907 0 0 1-5.239 0zm-3.817-.621l-.572.104 1.19 3.587 1.832-1.843zm5.185 1.849l1.833 1.842 1.189-3.586-.571-.104zm-7.541-1.417l-3.89.71a4.478 4.478 0 0 0-3.498 3.145l-1.4 4.69h29.922l-1.398-4.69a4.48 4.48 0 0 0-3.498-3.145l-3.89-.71-2.188 6.604-3.987-4.009-3.984 4.01zm-3.707-38.424h1.796v1.807h-1.796zm3.593 0h1.796v1.807h-1.796zm3.593 0h1.796v1.807h-1.796zm-32.337 18.065h1.796v1.806h-1.796zm3.593 0h1.796v1.806h-1.796zm3.593 0h1.796v1.806h-1.796z"/></defs><g><g transform="translate(-389 -1442)"><use fill="#7f8890" xlink:href="#spbza"/></g></g></svg>