<svg xmlns="http://www.w3.org/2000/svg" xmlns:xlink="http://www.w3.org/1999/xlink" width="56" height="56" viewBox="0 0 56 56"><defs><path id="fhz5a" d="M1028.2 1462.6v3.733a.933.933 0 0 1-.933.933h-20.534a.933.933 0 0 1-.933-.933v-3.734c0-4.086 2.935-7.497 6.808-8.244a6.51 6.51 0 0 1-2.141-4.822A6.541 6.541 0 0 1 1017 1443a6.541 6.541 0 0 1 6.533 6.533 6.51 6.51 0 0 1-2.14 4.822c3.872.747 6.807 4.158 6.807 8.244zm-11.2-8.4a4.672 4.672 0 0 0 4.667-4.667 4.672 4.672 0 0 0-4.667-4.666 4.672 4.672 0 0 0-4.667 4.666 4.672 4.672 0 0 0 4.667 4.667zm9.333 8.4a6.541 6.541 0 0 0-6.533-6.534h-5.6a6.541 6.541 0 0 0-6.533 6.533v2.8h18.666zm-14.933 31.733v3.733a.933.933 0 0 1-.933.934h-20.534a.933.933 0 0 1-.933-.934v-3.733c0-4.087 2.935-7.497 6.808-8.244a6.512 6.512 0 0 1-2.141-4.823 6.541 6.541 0 0 1 6.533-6.533 6.541 6.541 0 0 1 6.533 6.533c0 1.911-.83 3.627-2.14 4.823 3.872.747 6.807 4.157 6.807 8.244zm-11.2-8.4a4.672 4.672 0 0 0 4.667-4.667 4.672 4.672 0 0 0-4.667-4.666 4.672 4.672 0 0 0-4.667 4.666 4.672 4.672 0 0 0 4.667 4.667zm9.333 8.4a6.541 6.541 0 0 0-6.533-6.533h-5.6a6.541 6.541 0 0 0-6.533 6.533v2.8h18.666zm35.467 0v3.733a.933.933 0 0 1-.933.934h-20.534a.933.933 0 0 1-.933-.934v-3.733c0-4.087 2.935-7.497 6.808-8.244a6.511 6.511 0 0 1-2.141-4.823 6.541 6.541 0 0 1 6.533-6.533 6.541 6.541 0 0 1 6.533 6.533c0 1.911-.83 3.627-2.14 4.823 3.872.747 6.807 4.157 6.807 8.244zm-11.2-8.4a4.672 4.672 0 0 0 4.667-4.667 4.672 4.672 0 0 0-4.667-4.666 4.672 4.672 0 0 0-4.667 4.666 4.672 4.672 0 0 0 4.667 4.667zm9.333 8.4a6.541 6.541 0 0 0-6.533-6.533h-5.6a6.541 6.541 0 0 0-6.533 6.533v2.8h18.666zm-48.373-19.711l-1.854.222a24.469 24.469 0 0 1-.153-1.935l1.865-.073c.023.594.07 1.195.142 1.786zm-.001-5.365c-.07.59-.118 1.19-.141 1.786l-1.865-.072c.024-.647.076-1.298.152-1.934zm8.662-15.142a21.9 21.9 0 0 0-1.38 1.142l-1.247-1.389c.482-.433.985-.849 1.496-1.238zm-6.697 8.283a22.376 22.376 0 0 0-.697 1.65l-1.747-.657c.228-.605.481-1.207.756-1.79zm-1.26 3.35a22.14 22.14 0 0 0-.424 1.74l-1.83-.368c.128-.633.282-1.269.46-1.885zm5.293-9.24c-.412.435-.81.889-1.181 1.347l-1.452-1.174c.403-.497.833-.987 1.28-1.458zm5.673-4.33c-.519.278-1.038.583-1.542.91l-1.012-1.57a23.96 23.96 0 0 1 1.675-.985zm-7.925 7.114c-.337.49-.658 1.001-.953 1.516l-1.62-.927c.32-.559.668-1.112 1.033-1.645zm15.84 34.885l-.217 1.854a23.525 23.525 0 0 1-1.919-.304l.369-1.83c.578.116 1.174.21 1.767.28zm7.506 1.538a24.88 24.88 0 0 1-1.915.31l-.225-1.854a22.58 22.58 0 0 0 1.77-.286zm-3.85.464c-.33.013-.664.02-.998.021-.318 0-.631-.005-.942-.018l.074-1.865c.592.023 1.195.02 1.792-.002zm16.6-40.949l-1.355 1.283a22.87 22.87 0 0 0-1.283-1.248l1.247-1.39c.482.433.95.889 1.392 1.355zm2.437 3.013l-1.54 1.056a22.554 22.554 0 0 0-1.07-1.438l1.451-1.174c.404.5.793 1.023 1.159 1.556zm4.229 13.688c0 .33-.007.656-.02.981l-1.865-.073a22.493 22.493 0 0 0 0-1.793l1.865-.072c.013.317.02.637.02.957zm-2.3-10.325l-1.688.797a22.858 22.858 0 0 0-.828-1.59l1.62-.927c.32.559.621 1.137.896 1.72zm1.364 3.631l-1.794.515a22.571 22.571 0 0 0-.562-1.7l1.747-.657c.227.603.432 1.223.61 1.842zm.764 3.804l-1.854.22a21.99 21.99 0 0 0-.282-1.77l1.83-.367c.128.633.23 1.278.306 1.917zm-9.377-16.405l-1.133 1.485c-.475-.363-.968-.709-1.467-1.03l1.011-1.57c.54.348 1.074.722 1.589 1.115zm-3.261-2.1l-.883 1.645a22.329 22.329 0 0 0-1.611-.783l.747-1.71c.59.257 1.178.542 1.747.848z"/></defs><g><g transform="translate(-989 -1443)"><use fill="#7f8890" xlink:href="#fhz5a"/></g></g></svg>