<svg xmlns="http://www.w3.org/2000/svg" xmlns:xlink="http://www.w3.org/1999/xlink" width="40" height="40" viewBox="0 0 40 40"><defs><path id="o2mja" d="M412.319 4063.67v-13.95a.988.988 0 0 1 1.102-.98c3.532.401 6.836 1.783 9.6 4.016a.983.983 0 0 1 .072 1.46l-9.859 9.832a.52.52 0 0 1-.584.116.517.517 0 0 1-.331-.495zm13.8-7.752A18.535 18.535 0 0 1 430 4067.31c0 10.306-8.408 18.69-18.75 18.69h-.046a18.657 18.657 0 0 1-11.367-3.87.983.983 0 0 1-.092-1.476l24.894-24.826a.99.99 0 0 1 1.48.091zm-35.163 14.427l5.214 5.15-1.371 1.368a18.335 18.335 0 0 1-3.843-6.518zm11.322-.94l-4.041 4.03-8.217-8.118a18.334 18.334 0 0 1 1.039-7.02zm5.088-20.646l-2.447-2.44a18.592 18.592 0 0 1 2.447-.32zm0 10.474l-9.78-9.683a18.571 18.571 0 0 1 4.141-2.291l5.64 5.623zm-3.022 8.11l-11.997-11.878a18.627 18.627 0 0 1 3.02-4.004l11.987 11.868a3.001 3.001 0 0 1-.877 1.889z"/><linearGradient id="o2mjb" x1="410" x2="410" y1="4086" y2="4046" gradientUnits="userSpaceOnUse"><stop offset="0" stop-color="#358cf1"/><stop offset="1" stop-color="#86cffc"/></linearGradient></defs><g><g transform="translate(-390 -4046)"><use xlink:href="#o2mja"/><use fill="url(#o2mjb)" xlink:href="#o2mja"/></g></g></svg>