<svg xmlns="http://www.w3.org/2000/svg" xmlns:xlink="http://www.w3.org/1999/xlink" width="34" height="40" viewBox="0 0 34 40"><defs><path id="33hxa" d="M427 3959h-34c0-6.91 5.71-12.541 12.718-12.541h8.527c7.008 0 12.718 5.667 12.755 12.54zm-18.539-18.282c-1.335 0-2.484.95-2.78 2.23-2.707-1.498-4.524-4.35-4.524-7.605 0-4.826 3.967-8.701 8.824-8.701 4.857 0 8.825 3.875 8.825 8.701 0 2.34-.927 4.425-2.447 5.997h-3.078a2.769 2.769 0 0 0-1.78-.622zm-11.605-4.717a.6.6 0 0 1-.185-.438v-3.035c0-.768.037-1.536.185-2.267.111-.768.334-1.499.593-2.23a18.07 18.07 0 0 1 1.001-2.084c.371-.659.816-1.28 1.335-1.865.074-.073.111-.11.186-.146-.075-.33.037-.732.296-.987a13.86 13.86 0 0 1 9.714-3.95c3.523 0 7.008 1.317 9.678 3.95.26.255.37.658.296.987.074.036.148.073.186.146.519.585.964 1.206 1.334 1.865.408.658.742 1.352 1.001 2.084.26.731.445 1.462.668 2.23.111.731.185 1.5.185 2.267v3.035c0 .146-.074.329-.185.438 0 .037-.037.037-.074.073a4.064 4.064 0 0 1-1.187 2.377l-.111.11v3.035c0 .402-.074.768-.148 1.06-.112.33-.26.585-.445.805-.223.219-.445.365-.742.475-.222.073-.445.146-.704.146h-7.156c-.223.366-.63.621-1.075.621h-3.04a1.219 1.219 0 0 1-1.224-1.17c0-.62.519-1.17 1.186-1.17h3.04c.482 0 .853.257 1.076.622h6.859c.185 0 .334-.037.482-.073a.813.813 0 0 0 .297-.183c.074-.11.148-.22.185-.402a3.63 3.63 0 0 0 .074-.695v-2.303c-.185.073-.37.146-.556.183.037-.11.037-.256.037-.403v-7.056c0-.146 0-.293-.037-.44.704.22 1.335.586 1.817 1.062.037.036.111.073.148.146v-.293c0-.695-.074-1.39-.185-2.047a17.899 17.899 0 0 0-.556-2.011c-.26-.658-.557-1.28-.89-1.865a10.632 10.632 0 0 0-1.187-1.682c-.037-.036-.037-.11-.074-.146a1.062 1.062 0 0 1-.89-.293c-2.224-2.23-5.228-3.327-8.157-3.327-2.929 0-5.895 1.097-8.157 3.327-.222.22-.556.33-.89.293 0 .037-.037.11-.074.146a10.646 10.646 0 0 0-1.186 1.682 8.65 8.65 0 0 0-.89 1.865 8.661 8.661 0 0 0-.556 1.974 12.376 12.376 0 0 0-.186 2.048v.292l.149-.146c.519-.512 1.112-.878 1.816-1.06-.037.146-.037.292-.037.438v7.093c0 .11 0 .256.037.403a4.491 4.491 0 0 1-1.816-1.06 4.064 4.064 0 0 1-1.187-2.378c0-.036-.037-.036-.074-.073z"/><linearGradient id="33hxb" x1="410" x2="410" y1="3959" y2="3919" gradientUnits="userSpaceOnUse"><stop offset="0" stop-color="#4ab3be"/><stop offset="1" stop-color="#acdce2"/></linearGradient></defs><g><g transform="translate(-393 -3919)"><use xlink:href="#33hxa"/><use fill="url(#33hxb)" xlink:href="#33hxa"/></g></g></svg>