<svg xmlns="http://www.w3.org/2000/svg" xmlns:xlink="http://www.w3.org/1999/xlink" width="40" height="40" viewBox="0 0 40 40"><defs><path id="7sqxa" d="M402.655 3795.742a1.371 1.371 0 0 1-.34-1.395 1.354 1.354 0 0 1 1.088-.927l3.714-.556 1.672-3.393a1.353 1.353 0 0 1 1.21-.756c.513 0 .983.293 1.21.756l1.673 3.393 3.715.556c.507.075.93.435 1.088.927a1.373 1.373 0 0 1-.34 1.395l-2.68 2.654.622 3.736a1.369 1.369 0 0 1-.538 1.33 1.345 1.345 0 0 1-1.42.105l-3.33-1.753-3.329 1.753a1.341 1.341 0 0 1-1.42-.105 1.371 1.371 0 0 1-.537-1.33l.623-3.736zM430 3781.118v27.81c0 2.244-1.81 4.071-4.035 4.071h-31.93c-2.224 0-4.035-1.827-4.035-4.071v-27.81c0-2.246 1.81-4.072 4.035-4.072h3.954v-2.067c0-1.093 1.128-1.98 2.21-1.98h.312c1.083 0 2.523.887 2.523 1.98v2.067h13.945v-2.067c0-1.093 1.377-1.98 2.46-1.98h.312c1.082 0 2.272.887 2.272 1.98v2.067h3.942c2.224 0 4.035 1.826 4.035 4.072zm-4.062 4.908H394v22.933h31.94z"/><linearGradient id="7sqxb" x1="410" x2="410" y1="3813" y2="3773" gradientUnits="userSpaceOnUse"><stop offset="0" stop-color="#fb8b3e"/><stop offset="1" stop-color="#ffbd8f"/></linearGradient></defs><g><g transform="translate(-390 -3773)"><use xlink:href="#7sqxa"/><use fill="url(#7sqxb)" xlink:href="#7sqxa"/></g></g></svg>