<svg xmlns="http://www.w3.org/2000/svg" xmlns:xlink="http://www.w3.org/1999/xlink" width="24" height="25" viewBox="0 0 24 25"><defs><path id="z1pma" d="M1211.355 6683.22l-.568.566a1.605 1.605 0 0 1-2.27 0l-4.54-4.54c-.526-.526-.583-1.314-.226-1.928l-2.482-2.481a7.982 7.982 0 0 1-4.771 1.583 8.025 8.025 0 0 1-8.026-8.025 8.025 8.025 0 0 1 8.026-8.026 8.025 8.025 0 0 1 8.025 8.026 7.986 7.986 0 0 1-2.065 5.36l2.428 2.428c.614-.357 1.403-.3 1.929.227l4.54 4.539a1.606 1.606 0 0 1 0 2.27zm-8.855-14.858a6.019 6.019 0 1 0-12.038-.002 6.019 6.019 0 0 0 12.038.002zm-5.668 2.056h-.802v-1.556h-1.605v-.802h1.605v-1.605h.802v1.605h1.605v.802h-1.605z"/></defs><g><g opacity=".6" transform="translate(-1188 -6660)"><use fill="#fff" xlink:href="#z1pma"/></g></g></svg>