<svg xmlns="http://www.w3.org/2000/svg" width="76" height="76" viewBox="0 0 76 76"><defs><mask id="7grtb" width="2" height="2" x="-1" y="-1"><path fill="#fff" d="M13 6h50v50H13z"/><path d="M38 5.996c13.807 0 25 11.192 25 25s-11.193 25-25 25-25-11.192-25-25 11.193-25 25-25z"/></mask><filter id="7grta" width="100" height="107" x="-12" y="-19" filterUnits="userSpaceOnUse"><feOffset dy="7" in="SourceGraphic" result="FeOffset1061Out"/><feGaussianBlur in="FeOffset1061Out" result="FeGaussianBlur1062Out" stdDeviation="6 6"/></filter></defs><g><g><g filter="url(#7grta)"><path fill="none" d="M38 5.996c13.807 0 25 11.192 25 25s-11.193 25-25 25-25-11.192-25-25 11.193-25 25-25z" mask="url(&quot;#7grtb&quot;)"/><path fill="#ffd466" d="M38 5.996c13.807 0 25 11.192 25 25s-11.193 25-25 25-25-11.192-25-25 11.193-25 25-25z"/></g><path fill="#ffc527" d="M38 5.996c13.807 0 25 11.192 25 25s-11.193 25-25 25-25-11.192-25-25 11.193-25 25-25z"/></g><g><path fill="#fff" d="M32.94 28.43a1.445 1.445 0 0 0-.268-.282c-1.073-.964-2.683-.836-3.61.281a2.733 2.733 0 0 0 .268 3.757l5.903 5.305.292.28c.025.024.05.05.073.05.756.61 1.854.457 2.464-.33l9.536-12.895L36.891 33.2z"/></g></g></svg>