<svg xmlns="http://www.w3.org/2000/svg" width="219" height="219" viewBox="0 0 219 219"><defs><clipPath id="p3xna"><path fill="#fff" d="M109.2.597c60.199 0 109 48.8 109 109 0 60.199-48.801 108.999-109 108.999-60.2 0-109-48.8-109-109 0-60.198 48.8-109 109-109z"/></clipPath><clipPath id="p3xnb"><path fill="#fff" d="M108.75 27.998c44.183 0 80 35.817 80 79.998 0 44.183-35.817 80-80 80s-80-35.817-80-80c0-44.181 35.817-79.998 80-79.998z"/></clipPath></defs><g><g opacity=".1"><path fill="#fff8e4" d="M109.2.597c60.199 0 109 48.8 109 109 0 60.199-48.801 108.999-109 108.999-60.2 0-109-48.8-109-109 0-60.198 48.8-109 109-109z"/><path fill="none" stroke="#ffb100" stroke-linecap="round" stroke-linejoin="round" stroke-miterlimit="50" stroke-width="20" d="M109.2.597c60.199 0 109 48.8 109 109 0 60.199-48.801 108.999-109 108.999-60.2 0-109-48.8-109-109 0-60.198 48.8-109 109-109z" clip-path="url(&quot;#p3xna&quot;)"/></g><g opacity=".4"><path fill="#ffc527" d="M108.75 27.998c44.183 0 80 35.817 80 79.998 0 44.183-35.817 80-80 80s-80-35.817-80-80c0-44.181 35.817-79.998 80-79.998z"/><path fill="none" stroke="#ffb100" stroke-linecap="round" stroke-linejoin="round" stroke-miterlimit="50" stroke-width="2" d="M108.75 27.998c44.183 0 80 35.817 80 79.998 0 44.183-35.817 80-80 80s-80-35.817-80-80c0-44.181 35.817-79.998 80-79.998z" clip-path="url(&quot;#p3xnb&quot;)"/></g><g><path fill="#ffb100" d="M109.25 50.497c32.585 0 59 26.414 59 59.001 0 32.584-26.415 59-59 59s-59-26.416-59-59c0-32.587 26.415-59 59-59z"/></g><g><path fill="#fff" d="M108.862 117.947c-1.272-3.007.187-6.473 3.239-7.727 3.052-1.253 6.57.183 7.842 3.192 1.273 3.006-.186 6.472-3.238 7.727-3.052 1.252-6.57-.184-7.843-3.192zm25.07 3.741l-1.397 3.334c-.28.674-1.066.99-1.749.714l-2.814-1.142a16.041 16.041 0 0 1-4.49 4.434l1.169 2.763a1.314 1.314 0 0 1-.724 1.734l-3.373 1.376a1.346 1.346 0 0 1-1.76-.714l-1.168-2.762a16.491 16.491 0 0 1-6.363 0l-1.159 2.772c-.28.673-1.066.99-1.749.714l-3.383-1.375a1.315 1.315 0 0 1-.724-1.725l1.159-2.772a16.051 16.051 0 0 1-4.501-4.425l-2.814 1.153a1.346 1.346 0 0 1-1.76-.715l-1.396-3.322a1.314 1.314 0 0 1 .724-1.734l2.804-1.152c-.31-1.499-.383-2.996-.258-4.465 2.162 0 3.962-1.57 4.283-3.619a.581.581 0 0 0 .114-.04c.983.723 2.214.967 3.373.764a9.174 9.174 0 0 0-.31 7.788c2.006 4.762 7.563 7.025 12.384 5.047 4.832-1.978 7.129-7.453 5.121-12.204-2.007-4.76-7.563-7.023-12.384-5.045-.02 0-.031.01-.052.02a4.222 4.222 0 0 0-.683-3.649c.02-.042.031-.072.052-.113 1.904-.275 3.414-1.774 3.673-3.67 1.283-.05 2.566.052 3.807.296l1.16-2.772c.278-.674 1.065-.99 1.748-.715l3.362 1.387a1.314 1.314 0 0 1 .725 1.723l-1.16 2.773a16.06 16.06 0 0 1 4.501 4.424l2.815-1.152a1.347 1.347 0 0 1 1.759.713l1.396 3.324a1.313 1.313 0 0 1-.724 1.733l-2.804 1.153c.424 2.099.414 4.23 0 6.258l2.814 1.142a1.366 1.366 0 0 1 .756 1.743zm-47.056-21.591l-1.748-.01c-.621 0-1.128-.5-1.128-1.122l.01-1.875c0-.612.507-1.112 1.138-1.112l1.749.01c.269-1.325.807-2.6 1.604-3.752l-1.221-1.212a1.099 1.099 0 0 1 .01-1.57l1.345-1.315a1.138 1.138 0 0 1 1.593.01l1.232 1.223a10.511 10.511 0 0 1 3.828-1.54l.01-1.723c0-.611.507-1.11 1.138-1.11l1.904.01c.62 0 1.128.5 1.128 1.12l-.01 1.724c1.345.265 2.638.796 3.807 1.58l1.242-1.213a1.137 1.137 0 0 1 1.593.01l1.334 1.325a1.1 1.1 0 0 1-.01 1.57l-1.241 1.214a10.203 10.203 0 0 1 1.562 3.772l1.748.009c.621 0 1.128.5 1.128 1.123l-.01 1.875c0 .612-.507 1.111-1.138 1.111l-1.749-.01a10.129 10.129 0 0 1-1.604 3.751l1.232 1.225c.434.437.434 1.14-.01 1.568l-1.346 1.316a1.138 1.138 0 0 1-1.593-.01l-1.231-1.224a10.512 10.512 0 0 1-3.828 1.54l-.01 1.723c0 .612-.508 1.111-1.139 1.111l-1.904-.01c-.62 0-1.127-.5-1.127-1.121l.01-1.724a10.399 10.399 0 0 1-3.807-1.58l-1.242 1.213a1.138 1.138 0 0 1-1.593-.01l-1.335-1.325a1.1 1.1 0 0 1 .01-1.57l1.242-1.214a10.163 10.163 0 0 1-1.573-3.781zm6.84 1.509c1.965 1.957 5.162 1.977 7.149.04a4.926 4.926 0 0 0 .04-7.044c-1.965-1.957-5.162-1.978-7.148-.04a4.917 4.917 0 0 0-.042 7.044z"/></g></g></svg>