<svg xmlns="http://www.w3.org/2000/svg" width="60" height="50" viewBox="0 0 60 50"><g><g><path fill="#8fd4ef" d="M15-.005c8.284 0 15 6.718 15 15.002 0 8.283-6.716 14.998-15 14.998-8.285 0-15-6.715-15-14.998C0 6.713 6.715-.005 15-.005z"/></g><g><path fill="#565574" d="M37.627 31.667c-.784 0-1.539-.311-2.098-.871a2.965 2.965 0 0 1-.86-2.33 2.965 2.965 0 0 1 1.213-2.17L46.67 18.49a.834.834 0 0 1 1.164 1.163l-7.802 10.788a2.965 2.965 0 0 1-2.405 1.225zm-.92-2.049c.27.271.643.402 1.022.378.381-.03.729-.225.954-.534l4.759-6.579-6.581 4.76a1.303 1.303 0 0 0-.154 1.974zM59.523 27.5c0 4.074-1.094 7.896-2.997 11.197-.009.017-.008.035-.018.053-.014.024-.034.042-.05.065a22.669 22.669 0 0 1-8.144 8.134c-.016.01-.025.026-.042.037-.025.014-.052.02-.078.032a22.356 22.356 0 0 1-11.016 2.977c-.006 0-.012.004-.019.004-.005 0-.009-.003-.015-.003l-.12.003c-1.686 0-3.386-.193-5.049-.576a.833.833 0 0 1-.626-.998.83.83 0 0 1 .999-.626c1.314.301 2.649.468 3.98.514v-1.647a.833.833 0 1 1 1.666 0v1.64a20.665 20.665 0 0 0 8.713-2.37l-.821-1.423a.832.832 0 1 1 1.443-.833l.82 1.419a20.997 20.997 0 0 0 6.476-6.477l-1.42-.82a.833.833 0 1 1 .834-1.442l1.422.821a20.684 20.684 0 0 0 2.375-8.849H56.19a.833.833 0 1 1 0-1.666h1.646a20.684 20.684 0 0 0-2.375-8.85l-1.422.822a.834.834 0 0 1-.835-1.443l1.42-.82a21.006 21.006 0 0 0-6.477-6.477l-.82 1.42a.831.831 0 0 1-1.138.305.833.833 0 0 1-.305-1.139l.822-1.422a20.666 20.666 0 0 0-8.713-2.37v1.64a.832.832 0 1 1-1.667 0V6.687c-.245.01-.497.026-.77.047l-.894.07a21.21 21.21 0 0 0-2.317.396.832.832 0 1 1-.372-1.623c.888-.204 1.786-.35 2.686-.446v-.964h-1.25a2.085 2.085 0 0 1-2.083-2.083c0-1.15.934-2.084 2.083-2.084h7.5a2.085 2.085 0 0 1 0 4.167h-1.25v.993a22.333 22.333 0 0 1 8.562 2.836c.017.01.036.009.053.02.017.009.026.025.042.035 1.446.843 2.789 1.84 4.007 2.972l1.79-1.79-1.18-1.178 3.537-3.535 3.535 3.535-3.535 3.535-1.179-1.178-1.79 1.79a22.65 22.65 0 0 1 2.971 4.007c.011.016.027.025.037.042.01.017.01.035.017.053A22.348 22.348 0 0 1 59.523 27.5zM55.29 8.054l1.179 1.179 1.178-1.18-1.178-1.177zM36.613 5.012c.137-.004.274-.013.41-.013l.063.002.073-.002c.267 0 .544.006.834.018V2.5h2.916c.23 0 .417-.187.417-.416a.418.418 0 0 0-.417-.417h-7.5a.418.418 0 0 0-.416.417c0 .229.187.416.416.416h2.917v2.518c.1-.004.19-.003.287-.005zm-6.12 7.488a.832.832 0 0 1-.834.833h-7.166a.832.832 0 1 1 0-1.667h7.166c.461 0 .834.372.834.834zm0 5.833c0 .46-.373.833-.834.833H18.326a.833.833 0 1 1 0-1.666h11.333c.461 0 .834.372.834.833zm0 5.833c0 .46-.373.834-.834.834h-15.5a.833.833 0 1 1 0-1.667h15.5c.461 0 .834.372.834.833zm0 5.834c0 .46-.373.833-.834.833H10.826a.833.833 0 1 1 0-1.666H29.66c.461 0 .834.372.834.833zm0 5.833c0 .46-.373.834-.834.834H15.826a.833.833 0 1 1 0-1.667h13.833c.461 0 .834.372.834.833zm0 5.833a.832.832 0 0 1-.834.833h-8.833a.832.832 0 1 1 0-1.666h8.833c.461 0 .834.373.834.833z"/></g></g></svg>