<svg xmlns="http://www.w3.org/2000/svg" width="30" height="30" viewBox="0 0 30 30"><g><g><path fill="#7f888f" d="M16.677 13.252V2.79c0-.442.389-.785.83-.735a14.012 14.012 0 0 1 7.234 3.011.735.735 0 0 1 .055 1.096l-7.429 7.374a.394.394 0 0 1-.44.087.389.389 0 0 1-.25-.371zm10.399-5.814A13.86 13.86 0 0 1 30 15.981C30 23.711 23.665 30 15.872 30h-.034a14.101 14.101 0 0 1-8.566-2.902.736.736 0 0 1-.069-1.107L25.961 7.37a.748.748 0 0 1 1.115.068zM.72 18.26l3.929 3.863-1.033 1.025A13.741 13.741 0 0 1 .72 18.26zm8.53-.706l-3.044 3.023-6.191-6.088a13.694 13.694 0 0 1 .783-5.265zM13.086 2.07L11.241.24c.602-.119 1.217-.2 1.844-.24zm0 7.856l-7.37-7.263A13.984 13.984 0 0 1 8.837.944l4.25 4.218zm-2.277 6.082L1.768 7.1a13.972 13.972 0 0 1 2.276-3.004l9.032 8.901a2.244 2.244 0 0 1-.661 1.417z"/></g></g></svg>