<svg xmlns="http://www.w3.org/2000/svg" width="30" height="30" viewBox="0 0 30 30"><g><g><path fill="#7f888f" d="M0 16.514C0 9.065 6.065 3.028 13.544 3.028c2.245 0 4.36.545 6.223 1.504a2.59 2.59 0 0 0-.006.47l.151 1.967-1.122 1.118A9.933 9.933 0 0 0 13.547 6.6c-5.5 0-9.958 4.439-9.958 9.913s4.462 9.913 9.961 9.913c5.5 0 9.958-4.439 9.958-9.913a9.835 9.835 0 0 0-1.493-5.22l1.24-1.233 1.723.132c.067.003.133.006.196.006.111 0 .225-.006.336-.022a13.371 13.371 0 0 1 1.584 6.337c0 7.448-6.065 13.485-13.547 13.485S0 23.962 0 16.514zm10.046 0a3.49 3.49 0 0 0 3.498 3.485 3.492 3.492 0 0 0 3.49-3.75l2.502-2.49.054-.053c.401.853.626 1.804.626 2.808 0 3.667-2.985 6.64-6.669 6.64-3.684 0-6.67-2.976-6.67-6.643 0-3.668 2.986-6.64 6.67-6.64 1.009 0 1.964.224 2.82.624l-.053.054-2.501 2.489a3.494 3.494 0 0 0-3.766 3.476zm19.66-11.856a.314.314 0 0 1 .199.536l-3.618 3.601c-.3.296-.702.46-1.119.46-.038 0-.079 0-.12-.003l-.092-.007-2.068-.158-1.423 1.417-2.356 2.346-.054.053-2.28 2.27-1.002.998a.782.782 0 0 1-.518.23l-.839.04h-.04a.788.788 0 0 1-.788-.85l.063-.79a.777.777 0 0 1 .228-.494l1.012-1.008 2.28-2.27.054-.052L19.58 8.63l1.31-1.303-.174-2.257-.01-.141c-.035-.46.133-.91.459-1.234L24.785.09A.309.309 0 0 1 25.007 0c.155 0 .303.11.316.29l.19 2.439.92-.916a.93.93 0 0 1 1.322 0l.556.557a.929.929 0 0 1 0 1.32l-.803.799z"/></g></g></svg>