<svg xmlns="http://www.w3.org/2000/svg" width="30" height="30" viewBox="0 0 30 30"><g><g><path fill="#7f888f" d="M21.26 15.006a6.267 6.267 0 1 1-12.533 0 6.267 6.267 0 0 1 12.534 0zm-3.017-1.408l-1.23-1.236-2.84 2.822-1.186-1.194-1.237 1.23 1.188 1.193 1.23 1.237 1.236-1.23zM30 15c0 .605-.49 1.095-1.096 1.095h-1.31c-.526 6.108-5.39 10.973-11.499 11.5v1.309a1.094 1.094 0 1 1-2.19 0v-1.31c-6.108-.526-10.974-5.39-11.5-11.499h-1.31a1.095 1.095 0 1 1 0-2.19h1.31c.526-6.108 5.392-10.974 11.5-11.5v-1.31a1.094 1.094 0 1 1 2.19 0v1.31c6.108.526 10.973 5.392 11.5 11.5h1.31c.605 0 1.095.489 1.095 1.095zm-6.94 1.089v-2.185h2.399a10.527 10.527 0 0 0-9.376-9.376v2.399h-2.185V4.528a10.527 10.527 0 0 0-9.375 9.376h2.399v2.185h-2.4a10.527 10.527 0 0 0 9.376 9.375v-2.398h2.185v2.398a10.527 10.527 0 0 0 9.376-9.375z"/></g></g></svg>