<svg xmlns="http://www.w3.org/2000/svg" width="30" height="30" viewBox="0 0 30 30"><g><g><path fill="#7f888f" d="M11.097 3.899C11.097 1.749 12.834 0 14.97 0s3.874 1.748 3.874 3.899c0 2.15-1.738 3.899-3.874 3.899s-3.873-1.75-3.873-3.9zm-3.309 12.35c0-3.987 3.222-7.23 7.182-7.23 3.96 0 7.183 3.243 7.183 7.23 0 .52-.42.94-.936.94H8.723a.938.938 0 0 1-.935-.94zm11.474 9.16l-1.467 1.438.346 2.034c.132.773-.677 1.352-1.357.992l-1.814-.96-1.814.96c-.684.362-1.487-.225-1.356-.992l.346-2.034-1.468-1.439c-.553-.544-.247-1.493.519-1.606l2.028-.296.907-1.85a.933.933 0 0 1 1.677 0l.907 1.85 2.028.296c.766.113 1.073 1.062.518 1.606zm-10.417 0l-1.468 1.438.347 2.034c.131.773-.678 1.352-1.357.992l-1.814-.96-1.814.96c-.685.362-1.488-.225-1.357-.992l.346-2.034-1.467-1.439c-.554-.544-.248-1.493.518-1.606l2.028-.296.907-1.85a.933.933 0 0 1 1.677 0l.907 1.85 2.028.296c.766.113 1.073 1.062.519 1.606zm20.835 0l-1.467 1.438.346 2.034c.132.773-.678 1.352-1.357.992l-1.814-.96-1.814.96c-.684.362-1.487-.225-1.356-.992l.346-2.034-1.468-1.439c-.554-.544-.247-1.493.519-1.606l2.028-.296.907-1.85a.934.934 0 0 1 .838-.525c-.062 0 .558-.048.839.525l.907 1.85 2.028.296c.765.113 1.072 1.062.518 1.606z"/></g></g></svg>