<svg xmlns="http://www.w3.org/2000/svg" xmlns:xlink="http://www.w3.org/1999/xlink" width="36" height="36" viewBox="0 0 36 36"><defs><path id="22j1a" d="M726.285 1452.285h-4.247v-6.899c0-.57.467-1.037 1.047-1.037h1.225c.207 0 .403.104.52.272l1.677 2.385.41-.858-.666-1.39a.285.285 0 0 1 .26-.409h1.334c.21 0 .35.22.26.41l-.667 1.39.418.87 1.719-2.405a.624.624 0 0 1 .516-.265h1.164c.577 0 1.048.462 1.048 1.037v.246a14.929 14.929 0 0 0-3.667 3.027 14.832 14.832 0 0 0-2.352 3.626zm.882-15.287c1.861 0 3.376 1.5 3.376 3.344 0 1.842-1.515 3.342-3.376 3.342-1.862 0-3.377-1.5-3.377-3.342 0-1.844 1.515-3.344 3.377-3.344zm28.459 7.351h1.164c.577 0 1.048.462 1.048 1.037v6.896h-4.285a14.678 14.678 0 0 0-2.325-3.602 15.917 15.917 0 0 0-.735-.78 14.843 14.843 0 0 0-2.917-2.249v-.265c0-.57.468-1.037 1.048-1.037h1.225c.207 0 .403.104.52.272l1.673 2.385.41-.858-.666-1.39a.285.285 0 0 1 .26-.409h1.334c.21 0 .35.22.26.41l-.667 1.39.418.87 1.719-2.405a.624.624 0 0 1 .516-.265zm-2.92-7.35c1.861 0 3.376 1.5 3.376 3.343 0 1.842-1.515 3.342-3.377 3.342-1.861 0-3.376-1.5-3.376-3.342 0-1.844 1.515-3.344 3.376-3.344zm4.925 35.268c-.37.482-.931.73-1.496.73-.4 0-.803-.121-1.146-.383l-4.707-3.571a14.7 14.7 0 0 0 2.37-2.903l4.632 3.514c.825.627.98 1.8.347 2.613zm-12.56-13.963v6.898h-10.262v-6.898c0-.57.467-1.038 1.048-1.038h1.224c.208 0 .404.105.52.273l1.67 2.385.41-.859-.666-1.388a.286.286 0 0 1 .26-.41h1.334c.21 0 .35.22.26.41l-.667 1.388.418.873 1.718-2.406a.625.625 0 0 1 .517-.266h1.164c.577 0 1.048.463 1.048 1.038zm-8.51-5.041c0-1.844 1.515-3.343 3.377-3.343 1.861 0 3.376 1.499 3.376 3.343 0 1.843-1.515 3.343-3.376 3.343-1.862 0-3.377-1.5-3.377-3.343zm-6.553 14.918a13.803 13.803 0 0 1-3.004-4.41c-.73-1.71-1.1-3.53-1.1-5.4a13.682 13.682 0 0 1 1.417-6.086 13.881 13.881 0 0 1 2.687-3.724c.7-.694 1.466-1.305 2.287-1.832a14.026 14.026 0 0 1 7.62-2.228 14.053 14.053 0 0 1 7.658 2.254c.806.523 1.56 1.127 2.25 1.81a13.812 13.812 0 0 1 3.003 4.41c.731 1.71 1.1 3.53 1.1 5.399 0 1.87-.369 3.687-1.1 5.4-.264.623-.577 1.22-.927 1.798a13.924 13.924 0 0 1-2.374 2.9 13.958 13.958 0 0 1-4.153 2.682 14.014 14.014 0 0 1-5.453 1.09 14.042 14.042 0 0 1-9.911-4.063zm-.053-9.807a9.76 9.76 0 0 0 2.92 6.983 9.948 9.948 0 0 0 7.048 2.89 9.954 9.954 0 0 0 7.047-2.89 9.76 9.76 0 0 0 2.92-6.983 9.723 9.723 0 0 0-2.118-6.085c-.064-.083-.128-.157-.192-.235a9.889 9.889 0 0 0-.61-.66 9.935 9.935 0 0 0-7.047-2.893 9.95 9.95 0 0 0-7.051 2.893 8.654 8.654 0 0 0-.573.616c-.079.09-.154.182-.23.275a9.723 9.723 0 0 0-2.114 6.089z"/></defs><g><g transform="translate(-722 -1437)"><use fill="#fff" xlink:href="#22j1a"/></g></g></svg>