<svg xmlns="http://www.w3.org/2000/svg" xmlns:xlink="http://www.w3.org/1999/xlink" width="301" height="301" viewBox="0 0 301 301"><defs><path id="mw01a" d="M1109.61 6484.034v61.868c0 9.204-7.825 15.787-19.369 16.681.065 1.086-.13 2.237-.652 3.195-1.5 2.748-37.24 66.279-115.435 67.237-3.717 4.09-8.934 6.39-14.478 6.454-11.282.128-20.478-9.076-19.89-20.323.52-9.588 8.412-17.513 18.195-18.216 11.478-.83 21.065 7.99 21.196 19.046 57.782-3.196 89.412-45.442 97.108-57.202h-14.152c-14.935 0-24.196-9.011-24.196-23.519v-33.427c0-15.404 9.913-26.14 24.196-26.14h34.369c-1.11-34.002-15.652-65.767-41.152-89.862-26.804-25.63-63.196-39.307-100.63-37.9-70.174 2.493-127.761 59.055-131.804 127.763h34.239c14.217 0 24.195 10.736 24.195 26.14v33.426c0 14.508-9.26 23.52-24.195 23.52H831.59c-12.979 0-21.979-6.966-21.979-16.873v-59.63-.256-.384c.913-78.23 65.413-143.804 144.586-146.553 40.957-1.277 80.674 13.678 110.217 41.48 29.153 27.611 45.196 64.297 45.197 103.475zm-143.477 136.198c0-3.515-2.935-6.391-6.522-6.391s-6.522 2.876-6.522 6.39c0 3.516 2.935 6.393 6.522 6.393s6.522-2.877 6.522-6.392z"/></defs><g><g transform="translate(-809 -6339)"><use fill="#fff" xlink:href="#mw01a"/></g></g></svg>