<svg xmlns="http://www.w3.org/2000/svg" xmlns:xlink="http://www.w3.org/1999/xlink" width="50" height="50" viewBox="0 0 50 50"><defs><path id="n4faa" d="M725 9770.885v.944c0 4.434-3.393 8.019-7.59 8.019h-3.124c-.983 0-1.786-.848-1.786-1.887v-13.207c0-1.038.803-1.888 1.786-1.888h1.785c0-9.386-7.187-16.98-16.071-16.98s-16.071 7.594-16.071 16.98h1.785c.982 0 1.786.85 1.786 1.888v13.207c0 1.039-.804 1.887-1.786 1.887h-.625l2.59 4.292c1.875 3.208 5.133 5.142 8.705 5.142h.625c.402-1.604 1.786-2.83 3.437-2.83 1.965 0 3.572 1.698 3.572 3.773 0 2.076-1.607 3.774-3.572 3.774-1.651 0-3.035-1.226-3.437-2.83h-.625c-4.197 0-7.991-2.217-10.223-5.991l-3.17-5.33h-.402c-4.196 0-7.589-3.585-7.589-8.02v-.943c0-4.245 3.17-7.735 7.143-7.97v-.048c0-10.424 7.99-18.868 17.857-18.868 9.866 0 17.857 8.444 17.857 18.915 3.973.236 7.143 3.726 7.143 7.971zm-26.34 19.34c0 1.038.804 1.888 1.786 1.888.983 0 1.786-.85 1.786-1.888 0-1.038-.803-1.886-1.786-1.886-.982 0-1.785.848-1.785 1.886zm-16.07-25.47c-3.215 0-5.804 2.735-5.804 6.13v.944c0 3.396 2.589 6.132 5.803 6.132h3.125v-13.207zm40.624 6.13c0-3.395-2.589-6.13-5.803-6.13h-3.125v13.206h3.125c3.214 0 5.803-2.736 5.803-6.132zm-15.446-18.49c-.179.33-.447.472-.76.472a.826.826 0 0 1-.446-.142 1.793 1.793 0 0 1-.401-.236c-.134-.094-.268-.188-.358-.235-.446-.283-.535-.802-.312-1.274a.817.817 0 0 1 1.205-.33c.09.048.224.141.358.236.133.094.267.19.357.235.446.284.58.85.357 1.274zm-4.956-3.349c.447.141.804.661.67 1.132-.134.472-.58.802-1.071.708a10.529 10.529 0 0 0-2.411-.283c-3.259 0-6.34 1.509-8.482 4.104a.786.786 0 0 1-.67.33c-.223 0-.402-.094-.58-.236-.357-.33-.402-.944-.09-1.321 2.456-3.018 6.027-4.764 9.822-4.764.937 0 1.875.094 2.812.33z"/></defs><g><g transform="translate(-675 -9744)"><use fill="#7f888f" xlink:href="#n4faa"/></g></g></svg>