<svg xmlns="http://www.w3.org/2000/svg" xmlns:xlink="http://www.w3.org/1999/xlink" width="50" height="50" viewBox="0 0 50 50"><defs><path id="q5sqa" d="M1025 9758.749v34.583c0 .921-.746 1.667-1.667 1.667h-46.666c-.92 0-1.667-.746-1.667-1.667v-34.667c0-.92.746-1.667 1.667-1.667h1.666c.46 0 .834.374.834.834 0 .46-.373 1.166-.834 1.166H977v34.084h46v-34.084h-18c-.46 0-.833-.622-.833-1.083 0-.46.373-.833.833-.833h18.333c.92 0 1.667.746 1.667 1.667zm-44 25.082v-34.665a4.172 4.172 0 0 1 4.167-4.167h11.666a4.172 4.172 0 0 1 4.167 4.167v34.665a4.172 4.172 0 0 1-4.167 4.168h-11.666a4.172 4.172 0 0 1-4.167-4.168zm2-.333a2.5 2.5 0 0 0 2.5 2.501h11a2.5 2.5 0 0 0 2.5-2.501v-33.999a2.5 2.5 0 0 0-2.5-2.5h-11a2.5 2.5 0 0 0-2.5 2.5zm21-13.166v-6.75c0-.92.746-1.666 1.666-1.666h8.5c.46 0 .834.539.834 1 0 .46-.373 1-.834 1H1006v6.165h14V9764h-1.667c-.46 0-.833-.707-.833-1.167 0-.46.373-.833.833-.833h2c.92 0 1.667.746 1.667 1.667v6.666c0 .92-.746 1.666-1.667 1.666h-14.667c-.92 0-1.666-.745-1.666-1.666zm.167 4.667c0-.46.373-.833.833-.833h2.5a.833.833 0 1 1 0 1.667h-2.5a.834.834 0 0 1-.833-.834zm17.5 0c0 .46-.374.834-.834.834h-2.5a.834.834 0 0 1 0-1.667h2.5c.46 0 .833.373.833.833zm-6.667 0c0 .46-.373.834-.833.834h-2.5a.834.834 0 0 1 0-1.667h2.5c.46 0 .833.373.833.833zm-10.833 4.167c0-.46.373-.834.833-.834h2.5a.833.833 0 1 1 0 1.667h-2.5a.833.833 0 0 1-.833-.833zm17.5 0c0 .46-.374.833-.834.833h-2.5a.833.833 0 1 1 0-1.667h2.5c.46 0 .833.373.833.834zm-6.667 0c0 .46-.373.833-.833.833h-2.5a.833.833 0 1 1 0-1.667h2.5c.46 0 .833.373.833.834zm-10.833 4.166c0-.46.373-.833.833-.833h2.5a.834.834 0 0 1 0 1.666h-2.5a.833.833 0 0 1-.833-.833zm17.5 0c0 .46-.374.833-.834.833h-2.5a.833.833 0 1 1 0-1.666h2.5c.46 0 .834.374.833.833zm-6.667 0c0 .46-.373.833-.833.833h-2.5a.833.833 0 1 1 0-1.666h2.5c.46 0 .833.374.833.833zm-10.833 4.168c0-.46.373-.834.833-.834h2.5a.833.833 0 1 1 0 1.667h-2.5a.833.833 0 0 1-.833-.833zm17.5 0c0 .46-.374.833-.834.833h-2.5a.834.834 0 0 1 0-1.667h2.5c.46 0 .833.373.833.834zm-6.667 0c0 .46-.373.833-.833.833h-2.5a.833.833 0 0 1 0-1.667h2.5c.46 0 .833.373.833.834z"/></defs><g><g transform="translate(-975 -9745)"><use fill="#7f888f" xlink:href="#q5sqa"/></g></g></svg>