<svg xmlns="http://www.w3.org/2000/svg" xmlns:xlink="http://www.w3.org/1999/xlink" width="50" height="50" viewBox="0 0 50 50"><defs><path id="31gsa" d="M1322.983 9766.728v5.266c0 .41-.382.744-.853.744s-.853-.334-.853-.744v-5.266c0-.841-.785-1.525-1.75-1.525h-39.352c-1.334 0-2.55-.443-3.47-1.167v21.52c0 .41-.38.742-.852.742-.471 0-.853-.332-.853-.742v-24.857-.008c0-2.489 2.321-4.513 5.175-4.513h5.883c.47 0 .853.333.853.744 0 .41-.382.744-.853.744h-5.883c-1.912 0-3.467 1.355-3.47 3.022v.01c.006 1.664 1.56 3.017 3.47 3.017h39.353c1.905 0 3.455 1.352 3.455 3.013zm0 18.544v6.715c0 1.661-1.55 3.012-3.455 3.012h-39.354c-2.853 0-5.174-2.024-5.174-4.513v-2.452c0-.41.382-.743.853-.743s.853.332.853.743v2.452c0 1.669 1.556 3.026 3.468 3.026h39.353c.965 0 1.75-.684 1.75-1.525v-6.715c0-.411.382-.744.853-.744s.853.333.853.744zm0-26.768v4.3c0 .41-.382.744-.853.744s-.853-.333-.853-.744v-4.3c0-.462-.432-.838-.962-.838h-.677c-.471 0-.853-.334-.853-.744s.382-.744.853-.744h.677c1.471 0 2.668 1.043 2.668 2.326zm-5.588 1.617l-2.644 2.306a.919.919 0 0 1-.603.217.919.919 0 0 1-.603-.217.679.679 0 0 1 0-1.052l2.643-2.305c.67-.583.67-1.532 0-2.116l-11.504-10.03a1.84 1.84 0 0 0-1.212-.438c-.459 0-.89.156-1.213.438l-3.692 3.219a.944.944 0 0 1-1.206 0 .678.678 0 0 1 0-1.052l3.691-3.219c.646-.563 1.505-.873 2.42-.873.913 0 1.773.31 2.419.873l11.504 10.03c1.333 1.164 1.333 3.057 0 4.22zm-20.79-8.268l-12.126 10.574a.92.92 0 0 1-.604.217.92.92 0 0 1-.603-.217.68.68 0 0 1 0-1.052l12.127-10.574a.944.944 0 0 1 1.207 0 .678.678 0 0 1 0 1.052zm15.41 9.008l-1.796 1.566a.92.92 0 0 1-.603.217.92.92 0 0 1-.603-.217.679.679 0 0 1 0-1.052l.984-.858a3.43 3.43 0 0 1-.342-.262c-.686-.6-1.065-1.396-1.065-2.243 0-.848.379-1.644 1.067-2.243.107-.093.22-.18.34-.262l-3.653-3.185a3.34 3.34 0 0 1-.3.298c-.687.6-1.6.929-2.572.929-.973 0-1.886-.33-2.573-.93a3.397 3.397 0 0 1-.3-.296l-11.588 10.104a.946.946 0 0 1-1.206 0 .679.679 0 0 1 0-1.052l12.4-10.812a.934.934 0 0 1 .81-.196c.29.063.521.254.609.504.093.267.255.5.48.697.366.319.851.494 1.368.494a2.07 2.07 0 0 0 1.365-.494c.227-.197.389-.432.482-.697.088-.25.32-.441.61-.504.29-.064.597.01.809.196l5.278 4.602a.681.681 0 0 1 .224.705c-.072.254-.291.455-.577.532a1.977 1.977 0 0 0-.8.418c-.366.32-.567.742-.567 1.192 0 .45.201.873.566 1.19.226.198.495.34.8.421.287.077.506.278.578.532a.681.681 0 0 1-.224.706zm-9.015 1.763a.954.954 0 0 1-.195.02c-.387 0-.738-.231-.83-.574a3.592 3.592 0 0 0-1.13-1.769c-.8-.697-1.865-1.082-2.997-1.082s-2.197.385-2.998 1.082c-.56.489-.95 1.1-1.13 1.769-.107.4-.566.648-1.024.554-.459-.093-.744-.493-.637-.893.252-.938.8-1.797 1.585-2.482 1.123-.979 2.616-1.518 4.204-1.518 1.588 0 3.081.54 4.204 1.518.785.685 1.333 1.544 1.585 2.482.107.4-.178.8-.637.893zm22 12.998v6.023c0 1.316-1.228 2.387-2.738 2.387h-7.608c-3.414 0-6.192-2.422-6.192-5.399s2.778-5.4 6.192-5.4h7.608c1.51 0 2.738 1.072 2.738 2.389zm-1.706 0c0-.497-.463-.9-1.032-.9h-7.608c-2.474 0-4.486 1.754-4.486 3.911s2.012 3.912 4.486 3.912h7.608c.569 0 1.032-.404 1.032-.9zm-5.77 3.011c0 1.437-1.34 2.606-2.988 2.606s-2.99-1.17-2.99-2.606c0-1.437 1.342-2.606 2.99-2.606 1.648 0 2.988 1.169 2.988 2.606zm-1.705 0c0-.617-.576-1.119-1.283-1.119-.708 0-1.283.502-1.283 1.119s.575 1.119 1.283 1.119c.707 0 1.283-.502 1.283-1.119z"/></defs><g><g transform="translate(-1275 -9745)"><use fill="#7f888f" xlink:href="#31gsa"/></g></g></svg>