<svg xmlns="http://www.w3.org/2000/svg" xmlns:xlink="http://www.w3.org/1999/xlink" width="50" height="50" viewBox="0 0 50 50"><defs><path id="b4jca" d="M1022.218 9955.585a17.88 17.88 0 0 1-6.004 5.985c-2.716 1.633-5.43 1.976-7.228 1.976a12.33 12.33 0 0 1-1.344-.07c-.868.933-1.812 1.687-2.811 2.244a2.924 2.924 0 0 0-1.428 1.951 2.45 2.45 0 0 1 1.72 2.337 2.45 2.45 0 0 1-1.788 2.355v3.617h3.674v3.002h3.997v6.017h-22.008v-6.017h3.997v-3.002h3.768v-3.617a2.45 2.45 0 0 1-1.788-2.355 2.45 2.45 0 0 1 1.72-2.337 2.925 2.925 0 0 0-1.428-1.951c-1.001-.558-1.939-1.308-2.809-2.244l-.076.008c-.4.041-.827.063-1.27.063-1.8 0-4.513-.344-7.228-1.977a17.88 17.88 0 0 1-6.005-5.985c-1.927-3.155-2.879-6.871-2.83-11.047.05-4.244 2.222-6.581 6.115-6.581 1.51 0 2.963.352 3.912.645a59.648 59.648 0 0 1-.098-2.86v-.743h30.049v.742c0 .054-.002 1.125-.096 2.86.949-.294 2.495-.644 4.002-.644 3.894 0 6.066 2.337 6.116 6.58.049 4.177-.903 7.893-2.83 11.048zm-35.242-19.57c.007.27.019 1.551.035 1.95h26.016c.016-.4.027-1.678.033-1.95zm23.775 22.71c1.068-.11 2.343-.425 3.527-1.186 3.398-2.181 5.664-6.262 6.382-11.489.173-1.255.02-2.167-.453-2.71-.411-.471-1.116-.71-2.096-.71-1.168 0-2.472.337-3.478.673-.529 4.714-1.622 10.673-3.882 15.422zm-25.284-15.422c-1.006-.335-2.312-.673-3.48-.673-.98 0-1.685.24-2.097.71-.473.544-.625 1.455-.453 2.71.718 5.227 2.985 9.308 6.383 11.49 1.183.76 2.457 1.073 3.525 1.185-.04-.083-.08-.166-.118-.25-1.259-2.717-2.267-6.081-2.998-10a72.077 72.077 0 0 1-.762-5.172zm5.829 18.757l-.07-.1a19.394 19.394 0 0 1-.456-.669l-.086-.13a20.294 20.294 0 0 1-.54-.899c-1.387-.028-3.33-.319-5.127-1.472-1.84-1.181-3.376-2.827-4.567-4.892-1.249-2.164-2.084-4.735-2.484-7.646-.234-1.699.037-3.007.805-3.887.706-.81 1.788-1.22 3.215-1.22 1.116 0 2.305.253 3.315.55a84.479 84.479 0 0 1-.125-1.496c-.742-.26-2.367-.757-4.012-.757-3.075 0-4.59 1.673-4.63 5.114-.114 9.73 5.638 14.25 8.116 15.74 2.423 1.46 4.851 1.765 6.461 1.765l.185-.001zm-.281 18.907v2.047h17.975v-2.047zm2.965-4.002v2.017h11.982v-2.017zm8.026-.985v-3.526h-4.008v3.526zm.671-6.934h-5.256a.962.962 0 0 0 0 1.923h5.256a.962.962 0 0 0 0-1.923zm6.187-9.88l.213-.391c2.403-4.643 3.542-10.805 4.082-15.642l.049-.458a81.895 81.895 0 0 0 .264-3.022l.002-.032c.015-.22-.534-.433-.522-.638h-26.02c.292 4.736.914 13.655 4.107 19.824l.194.359c.635 1.17 1.33 2.19 2.069 3.032l.181.207c.752.819 1.585 1.504 2.506 2.017a4.415 4.415 0 0 1 2.198 3.14h3.725a4.414 4.414 0 0 1 2.197-3.14c.955-.53 1.859-1.28 2.687-2.224l.012-.014c.082-.094.164-.19.245-.29l.055-.067c.074-.09.147-.183.22-.277l.025-.031a17.756 17.756 0 0 0 1.511-2.353zm14.7-14.61c-.04-3.44-1.555-5.114-4.63-5.114-1.645 0-3.27.496-4.012.758a84.056 84.056 0 0 1-.124 1.495c1.009-.297 2.198-.55 3.313-.55 1.428 0 2.51.41 3.216 1.22.767.88 1.038 2.189.805 3.887-.4 2.91-1.236 5.483-2.484 7.646-1.191 2.065-2.728 3.71-4.568 4.892-1.796 1.154-3.74 1.444-5.125 1.472l-.047.08-.2.343-.04.064c-.082.137-.166.272-.251.406l-.06.091c-.077.12-.154.239-.234.355l-.034.05c-.093.136-.188.272-.284.405l-.003.004h.184c1.61 0 4.039-.305 6.462-1.763 2.478-1.491 8.23-6.011 8.116-15.74zm-28.532 16.03l-1.086 1.013a13.216 13.216 0 0 1-1.353-1.737l1.24-.817a11.76 11.76 0 0 0 1.2 1.542zm-1.718-2.389l-1.29.734c-1.164-2.047-2.114-4.668-2.826-7.79l1.447-.33c.68 2.98 1.578 5.465 2.67 7.386zm23.684 8.81v1.004h-.984l-.001-1.002h-1.004l-.001-.985 1.004-.001-.001-1.035.985-.002v1.036l1.005-.001v.985zM985.01 9975l.001.99h-1.016l-.001-.988h-.99l-.002-1.016.99-.002v-.989h1.015l.001.989.99-.002.001 1.017zm-6.005-11.986H981V9965h-1.995zm9.004 3.957h1.995v1.985h-1.995zm22.987 5.031h1.995v1.954h-1.995z"/></defs><g><g transform="translate(-975 -9935)"><use fill="#7f8890" xlink:href="#b4jca"/></g></g></svg>