<svg xmlns="http://www.w3.org/2000/svg" xmlns:xlink="http://www.w3.org/1999/xlink" width="18" height="18" viewBox="0 0 18 18"><defs><path id="fq5fa" d="M660.008 3067.006a9 9 0 1 1 0-18 9 9 0 0 1 0 18zm5.024-12.154l-.895-.895a.421.421 0 0 0-.597 0l-5.37 5.369-2.554-2.573a.421.421 0 0 0-.597 0l-.895.896a.422.422 0 0 0 0 .597l2.84 2.86.009.015.615.614.148.15.133.131a.422.422 0 0 0 .596 0l6.567-6.566a.423.423 0 0 0 0-.598z"/></defs><g><g transform="translate(-651 -3049)"><use fill="#ffb100" xlink:href="#fq5fa"/></g></g></svg>