<svg xmlns="http://www.w3.org/2000/svg" xmlns:xlink="http://www.w3.org/1999/xlink" width="18" height="18" viewBox="0 0 18 18"><defs><path id="ejawa" d="M860.009 3066.998a9 9 0 1 1 .001-18 9 9 0 0 1-.001 18zm4.127-11.624a.433.433 0 0 0 0-.613l-.92-.919a.433.433 0 0 0-.612 0l-2.603 2.605-2.604-2.605a.433.433 0 0 0-.613 0l-.919.92a.433.433 0 0 0 0 .612l2.604 2.603-2.604 2.604a.435.435 0 0 0 0 .613l.92.918c.169.17.443.17.612 0l2.604-2.602 2.603 2.602c.17.17.444.17.613 0l.919-.918a.434.434 0 0 0 0-.613l-2.604-2.604z"/></defs><g><g transform="translate(-851 -3049)"><use fill="#b0abb3" xlink:href="#ejawa"/></g></g></svg>