<svg xmlns="http://www.w3.org/2000/svg" xmlns:xlink="http://www.w3.org/1999/xlink" width="30" height="30" viewBox="0 0 30 30"><defs><path id="oenoa" d="M1272.45 6661.047c-.113-6.767-5.65-12.048-12.442-12.048h-.016c-6.792 0-12.33 5.219-12.442 11.985H1245v10.011h2.548v.796a5.465 5.465 0 0 0 5.459 5.46h.958v1.747h6.076v-5.071h-6.076v1.565h-.958a3.704 3.704 0 0 1-3.702-3.701v-.796h1.692v-10.01h-1.689c.112-5.798 4.861-10.228 10.684-10.228h.016c5.822 0 10.572 4.493 10.684 10.29h-2.69v9.885H1275v-9.885z"/></defs><g><g transform="translate(-1245 -6649)"><use fill="#7f8890" xlink:href="#oenoa"/></g></g></svg>