<svg xmlns="http://www.w3.org/2000/svg" xmlns:xlink="http://www.w3.org/1999/xlink" width="30" height="30" viewBox="0 0 30 30"><defs><path id="iw7xa" d="M656.003 6300.997v3.988h-1.995v-4.737c0-.692.556-1.249 1.247-1.249h9.5c.692 0 1.249.557 1.249 1.25v4.736h-1.996v-3.988zm10.472 20.043v-3.728h-3.162v1.34h1.486v1.45c-.232.117-.556.173-.954.173-.666 0-1.198-.215-1.59-.63-.391-.424-.587-1.01-.587-1.776 0-.754.22-1.354.655-1.806.44-.454 1.003-.68 1.7-.68.831 0 1.529.165 2.103.496v-1.574c-.605-.214-1.296-.325-2.085-.325-1.247 0-2.25.368-3.003 1.103-.752.735-1.13 1.69-1.13 2.859 0 1.163.342 2.075 1.033 2.737.685.661 1.632.991 2.825.991 1.076 0 1.975-.214 2.703-.63zm-8.928.501h2.116l-2.814-3.893 2.593-3.55h-1.993l-2.055 3.103a6.6 6.6 0 0 0-.208.416h-.024v-3.52h-1.676v7.439h1.676v-3.643h.024c.086.215.153.349.196.41l2.164 3.233zm17.392 6.007a1.28 1.28 0 0 1-.27 1.01c-.238.282-.586.441-.953.441h-27.47a1.248 1.248 0 0 1-1.236-1.451l3.204-19.566h23.514z"/></defs><g><g transform="translate(-645 -6299)"><use fill="#7f888f" xlink:href="#iw7xa"/></g></g></svg>