<svg xmlns="http://www.w3.org/2000/svg" xmlns:xlink="http://www.w3.org/1999/xlink" width="30" height="30" viewBox="0 0 30 30"><defs><path id="3w05a" d="M1265.718 6314.395c-.029-1.642-.67-3.104-1.717-4.178a5.689 5.689 0 0 0-4.132-1.76c-.145 0-.29.03-.436.03h-.088c-.174 0-.32.03-.494.06-.35.089-.728-.18-.786-.567-.087-.358.175-.747.553-.806l.611-.09c.233-.03.436-.03.64-.03.611 0 1.251.09 1.833.24a7.306 7.306 0 0 1 3.26 1.94c.727.774 1.338 1.7 1.687 2.744.262.805.408 1.64.408 2.507v.327c-.03.15-.03.24-.03.329a.716.716 0 0 1-.756.656c-.378-.03-.67-.388-.64-.776.029-.12.029-.209.087-.299v-.327zm3.929.358v-.299c0-1.312-.262-2.565-.699-3.7a10.273 10.273 0 0 0-2.182-3.372 9.643 9.643 0 0 0-4.103-2.507 9.816 9.816 0 0 0-2.823-.416c-.262 0-.553 0-.844.029-.087 0-.174.03-.262.03-.203.03-.378.06-.582.089-.349.09-.727-.179-.785-.567-.088-.357.174-.746.553-.806.32-.058.64-.089.96-.118.32-.03.64-.03.96-.03.291 0 .611 0 .902.03 2.706.209 5.15 1.432 6.984 3.311a11.442 11.442 0 0 1 3.114 6.177c.087.627.145 1.253.145 1.91 0 .328 0 .657-.029.985a.716.716 0 0 1-.757.656c-.378-.03-.669-.388-.64-.776 0-.208.03-.387.088-.626zm5.325-.24c0 .419-.03.866-.059 1.314a.715.715 0 0 1-.756.656c-.378-.03-.67-.388-.64-.775 0-.21.029-.388.029-.567v-.656c0-3.91-1.542-7.43-4.016-9.967-2.502-2.536-5.936-4.117-9.72-4.117-.406 0-.785.029-1.192.06-.204 0-.408.029-.611.059-.204.03-.378.06-.582.089-.35.089-.728-.18-.786-.567-.087-.358.175-.746.553-.806.437-.089.873-.149 1.31-.178.436-.03.872-.06 1.309-.06 4.19 0 7.973 1.73 10.738 4.565 2.735 2.805 4.423 6.684 4.423 10.95zm-3.754 13.458c-8.904 4.984-24.88-10.116-26.16-19.455-.495-3.79 5.529-11.905 7.682-6.833l2.299 5.282c1.076 2.954-2.24 3.73-2.183 5.28.03 1.015 2.532 4.149 3.114 4.805 1.222 1.373 4.976 4.386 6.984 4.893.96.24 1.775-1.014 2.211-1.491 1.804-1.969 1.863-2.597 3.58-1.642l5.15 2.836c1.979 1.223-.698 5.19-2.677 6.325z"/></defs><g><g transform="translate(-1245 -6299)"><use fill="#7f8890" xlink:href="#3w05a"/></g></g></svg>