<svg xmlns="http://www.w3.org/2000/svg" xmlns:xlink="http://www.w3.org/1999/xlink" width="30" height="30" viewBox="0 0 30 30"><defs><path id="f1moa" d="M968.528 6788.8c.284.159.58.291.887.398-.4.914-.963 1.78-1.678 2.579l-.82 5.63a1.852 1.852 0 0 1-1.07 1.437 1.767 1.767 0 0 1-1.746-.173l-4.06-2.883c-.811.132-1.639.197-2.467.197-3.307 0-6.428-1.034-8.786-2.91-2.443-1.946-3.788-4.557-3.788-7.355s1.345-5.41 3.788-7.353c1.923-1.532 4.354-2.502 6.979-2.808.026.054.053.107.081.16.336.631.74 1.3 1.198 1.988-5.491.213-9.874 3.725-9.874 8.013 0 4.424 4.666 8.023 10.402 8.023.85 0 1.696-.08 2.518-.239l.443-.086 4.32 3.065.837-5.752.25-.26a7.55 7.55 0 0 0 1.535-2.301c.345.22.695.43 1.05.63zm6.481-4.73a3.97 3.97 0 0 1-1.092 2.38 3.77 3.77 0 0 1-2.691 1.144c-.635 0-1.261-.165-1.813-.477-4.808-2.69-9.847-8.377-11.942-12.324-.814-1.514-.55-3.43.64-4.66a3.748 3.748 0 0 1 2.307-1.127 1.309 1.309 0 0 1 1.08.4l2.684 2.77c.286.294.427.703.387 1.118a3.967 3.967 0 0 1-.822 2.07.538.538 0 0 0-.002.657 29.818 29.818 0 0 0 4.469 4.615.508.508 0 0 0 .634 0 3.723 3.723 0 0 1 2.007-.853 1.313 1.313 0 0 1 1.084.4l2.683 2.77c.286.295.427.702.387 1.116zm-16.45-1.062l-.228 2.369-.331 3.446a.432.432 0 0 1-.468.396.436.436 0 0 1-.384-.396l-.33-3.446c-.084-.861-.166-1.722-.228-2.369l-.076-.78-.026-.297c-.085-.618.332-1.193.932-1.28.6-.088 1.155.343 1.24.963a1.2 1.2 0 0 1 0 .317s-.017.202-.027.297l-.075.78zm-.985 6.534c.493 0 .892.41.892.92 0 .508-.4.92-.892.92-.493 0-.892-.412-.892-.92 0-.51.4-.92.892-.92z"/></defs><g><g transform="translate(-945 -6769)"><use fill="#7f8890" xlink:href="#f1moa"/></g></g></svg>