<svg xmlns="http://www.w3.org/2000/svg" xmlns:xlink="http://www.w3.org/1999/xlink" width="30" height="23" viewBox="0 0 30 23"><defs><path id="mtuja" d="M1275.753 6488.986l-7.625 7.69a.628.628 0 0 1-.894 0l-1.652-1.667a.642.642 0 0 1 0-.902l5.524-5.574-5.525-5.571a.643.643 0 0 1 0-.903l1.653-1.667a.646.646 0 0 1 .894 0l7.625 7.691a.643.643 0 0 1 0 .903zm-19.334 6.023l-1.653 1.668a.629.629 0 0 1-.894 0l-7.625-7.691a.642.642 0 0 1 0-.903l7.625-7.691a.63.63 0 0 1 .894 0l1.653 1.668a.638.638 0 0 1 0 .902l-5.525 5.572 5.524 5.573a.641.641 0 0 1 0 .902zm8.967-16.72l-6.22 21.253a.634.634 0 0 1-.607.458.59.59 0 0 1-.179-.028l-1.34-.399a.629.629 0 0 1-.376-.305.646.646 0 0 1-.051-.487l6.221-21.252a.632.632 0 0 1 .785-.43l1.34.398a.64.64 0 0 1 .427.792z"/></defs><g><g transform="translate(-1246 -6477)"><use fill="#7f8890" xlink:href="#mtuja"/></g></g></svg>