<svg xmlns="http://www.w3.org/2000/svg" xmlns:xlink="http://www.w3.org/1999/xlink" width="30" height="30" viewBox="0 0 30 30"><defs><path id="i9wea" d="M675 6487.56c0 4.482-2.184 8.587-5.74 11.092a3.919 3.919 0 0 0-1.034-1.839l-.319-.32a11.008 11.008 0 0 0 4.554-8.933c0-6.074-4.928-11.015-10.985-11.015-3.568 0-6.867 1.739-8.907 4.569l-.413-.415a3.907 3.907 0 0 0-1.699-1 13.535 13.535 0 0 1 11.02-5.7c7.456 0 13.523 6.083 13.523 13.56zm-8.338 10.82c.362.363.542.865.491 1.375a4.73 4.73 0 0 1-1.354 2.869 4.744 4.744 0 0 1-3.337 1.375 4.695 4.695 0 0 1-2.248-.573c-5.897-3.203-12.077-9.979-14.646-14.68a4.74 4.74 0 0 1 .794-5.613 4.71 4.71 0 0 1 2.86-1.359 1.686 1.686 0 0 1 1.371.494l3.285 3.293c.363.365.542.868.49 1.38a4.7 4.7 0 0 1-1.018 2.492.565.565 0 0 0-.002.707 35.925 35.925 0 0 0 5.462 5.48.56.56 0 0 0 .703-.002c.71-.576 1.57-.93 2.488-1.024.52-.052 1.014.13 1.376.492zm-3.659-18.927v6.538h5.694c.483 0 .875.518.875 1.003 0 .484-.392 1.003-.875 1.003h-6.82a.877.877 0 0 1-.875-.878v-7.666c0-.485.517-.878 1-.878.484 0 1.001.393 1.001.878z"/></defs><g><g transform="translate(-645 -6474)"><use fill="#7f8890" xlink:href="#i9wea"/></g></g></svg>