<svg xmlns="http://www.w3.org/2000/svg" xmlns:xlink="http://www.w3.org/1999/xlink" width="18" height="18" viewBox="0 0 18 18"><defs><path id="j6bga" d="M436.008 4958.007a9 9 0 1 1 0-18 9 9 0 0 1 0 18zm5.024-12.155l-.895-.895a.421.421 0 0 0-.597 0l-5.37 5.368-2.554-2.572a.422.422 0 0 0-.597 0l-.895.896a.421.421 0 0 0 0 .597l2.84 2.86c.004.005.005.01.009.014l.615.614.148.15.133.133a.422.422 0 0 0 .596 0l6.567-6.568a.423.423 0 0 0 0-.597z"/></defs><g><g transform="translate(-427 -4940)"><use fill="#ffb100" xlink:href="#j6bga"/></g></g></svg>